M48
;Layer_Color=9474304
;FILE_FORMAT=2:5
INCH,LZ
;TYPE=PLATED
T1F00S00C0.01575
T2F00S00C0.01968
T3F00S00C0.02756
T4F00S00C0.03543
T6F00S00C0.04000
T7F00S00C0.04724
T8F00S00C0.05200
T9F00S00C0.05906
T10F00S00C0.06000
T11F00S00C0.09843
;TYPE=NON_PLATED
T12F00S00C0.05906
%
T01
X0053391Y0016825
X0073076
X0092761
X0092126Y0032283
X0112446Y0016825
X0132131
X0151816
X0171501
X0191186
X0201028Y003651
X0181343
X0161658
X0141973
X0151816Y0056195
X0171501
X0191186
X0210871
X0201028Y007588
X0181343
X0191186Y0095565
X0210871
X0220713Y0115251
X0201028
X0181343
X0190945Y0130315
X0209842Y0129921
X0229528Y0126772
X0229134Y0147638
Y0170079
X0220472
X0216929Y0173622
X0229134Y0182283
X0185433Y0181496
X0174945Y0179227
X0168504Y0189764
X0159449Y0187008
X0154724
X0148819Y0182677
X0135394Y0182429
X0130266
X0134472Y0158282
X0140945Y0162992
X0159449Y0166929
X0162598Y0144882
X0154724Y0138189
X0169291Y0130315
X0179528Y0145276
X0183465Y0158661
X0157062Y011167
X0151816Y0095565
X0137402Y009685
X0132902Y009252
Y0084646
Y0076772
Y0068898
Y0061024
X0132131Y0056195
X0171501Y0095565
X0125984Y0095276
X0123374Y0111854
X011658Y0106392
X0106044Y0096098
X0112533Y008876
X0122288Y007588
X0112446Y0056195
X0122288Y003651
X0092126Y0038583
X0081496Y0055118
X0081102Y0066929
X0088189Y0072441
X0088169Y0078515
X0088367Y0095354
X0088268Y0114173
X0088169Y0131606
X008807Y0149336
Y0166967
X0087019Y017324
X0106388Y0166662
X0102603Y0154621
X0125038Y0159514
X012183Y0170043
X0128441Y0141786
X0125898Y0131562
X0120527Y0124137
X0065748Y01
X0067323Y009252
X0074016Y0083071
X0072835Y0075984
X0045713Y0072928
X0052571Y0059099
X006811Y0049213
X0031102Y0049606
X0023863Y003651
X0025462Y018694
X0031565Y0181195
X0065399Y0191038
X0101816
X0096895Y020088
X0101886Y0214298
X0107968Y0213922
X0112643Y0212691
X011658Y0216628
X0120517Y0212691
X0122835Y0224803
X0127165Y0234345
X0127953Y0246063
X0128495Y026268
X0112105Y0265953
X0105967Y026584
X0105129Y0270616
X01Y0262598
X0090158Y026811
X0086614Y0259842
X0092761Y0253046
X0092126Y0236614
X0073716Y0236292
X0070659Y0241897
X0073076Y0253046
X0071104Y0267624
X0073706Y0281543
X0067366Y0281543
X0079957Y0281442
X0086265Y0281496
X0098872Y027824
X0095703Y0274632
X0099319Y0295607
X0108252Y0294375
X0100787Y0305512
X0096457Y0311417
X0092567Y0308268
X0086614Y0313386
X0076772Y0314567
X0073814Y0308361
X0070472Y0311417
X0070515Y0294392
X0076978Y029446
X0082724Y02955
X0060858Y0287816
X0053391Y0292416
X005315Y0305118
X0038583Y0305512
X0026772Y030001
X0015748
X0019291Y0293701
X0004724Y0302756
X0011226Y0311773
X0026772Y031811
X0023622Y0323622
X0014151Y0336929
X006161Y0335749
X0066139Y0336137
X0076772Y0339764
X0084729Y0336137
X0088726Y033579
X0096457Y0336221
X0095669Y0344094
X010748Y0340945
X0112276Y0331587
X0112363Y0327046
X0112205Y0322441
X0112598Y0312992
X0119291Y0336221
X0112446Y0253046
X0111088Y0240695
X0114173Y0237795
X0067323Y0222047
X0058942Y0220949
X0058987Y0225623
X0065399Y0202849
X0042126Y0208268
X0025176Y0203186
X0018898Y024252
X0031565Y024606
X003622Y0256693
X0007415Y0264503
X0131779Y0288042
X0136496Y0287988
X0142631Y0287467
X0142059Y0279646
X0146484Y0275766
X0151181Y0268898
X0148377Y0293019
Y0308936
X0152034Y0311695
X015748Y0311811
X0155118Y0307087
X0159459Y0303829
X016773Y0300252
X0175591Y0318504
X0149284Y0320544
X0146881Y0335206
X0141698Y0335209
X0155672Y0346561
X0160209Y0347264
X0165473Y034323
X0192147Y0333641
X0212266Y0333754
X0233465Y0332677
X0193307Y0306299
X0171718Y027559
X0184252Y0251969
X0192126Y0229528
X0196457
Y0225197
X0192126
Y0220866
X0196457
X0201181
Y0225197
Y0229528
X0220472Y0216142
X0184646Y0212598
X0159196Y021173
X0158852Y0202767
X014902Y0195907
X0141186Y0232677
X0136517Y0308767
X0131807Y0308864
X0133858Y0315748
X021063Y0262205
X0205477Y036796
X0153247Y0367292
X0159887Y0358214
X0141973Y0351471
X0122288
X0100394Y0354331
X0095669Y0349213
X0083858Y0354331
X0077953
X0060467Y0367626
X0111529Y0367459
T02
X0048425Y033189
X0182283Y028189
T03
X0167609Y0068409
Y0076284
Y0084158
X0175483Y0080221
Y0072347
Y0088095
T04
X019748Y0142992
Y0152992
Y0162992
X020748
Y0152992
Y0142992
X0203406Y0300125
Y0309967
T06
X0077777Y-0029656
Y-0019657
Y-0009657
X0174532Y0362928
X0184532
X0194532
T07
X0121021Y-0019198
X0129289Y-0026088
Y-0012308
X0146218Y-0019198
X0031068Y0078301
X00228Y0085191
Y0071411
X0005871Y0078301
X0005871Y0117671
X00228Y0110781
Y0124561
X0031068Y0117671
Y0157041
X00228Y0150151
Y0163931
X0005871Y0157041
T08
X0141186Y0188189
X0219291Y0125591
X0041776Y0234345
Y0263873
Y0279621
X0148819Y0229528
X0069788Y0358492
T09
X0013509Y0028726
X0045399Y0030891
X0048942Y0042112
X0045399Y0053332
X0013509Y0055498
T10
X0017738Y0308773
X0151667Y020836
T11
X0031506Y0011824
X0098402Y-0019291
X0204715Y0011791
X0216544Y0350405
X0043365Y0354509
T12
X0138344Y-0019198
X0035556Y0042112
X0007997
X0013745Y0078301
X0013745Y0117671
Y0157041
M30
