M48
;Layer_Color=9474304
;FILE_FORMAT=2:5
INCH,LZ
;TYPE=PLATED
T1F00S00C0.01575
T3F00S00C0.02756
T4F00S00C0.03937
T5F00S00C0.04000
T6F00S00C0.04724
T7F00S00C0.05118
T8F00S00C0.05200
T9F00S00C0.05512
T10F00S00C0.09843
;TYPE=NON_PLATED
T11F00S00C0.05906
%
T01
X0086614Y0
Y003937
X0096457Y0059055
X0106Y0067
X0112598Y0089764
X0111Y0106
X0096457Y0098425
X0088Y0117
X01095Y0128
X01465Y0123
X0155
X0158Y0117
X0169
Y00945
X0158Y0094
X0153254Y0082061
X0153266Y0070794
X01425Y0084
X0141732Y0088976
X01295Y00815
X0136Y01035
X01505Y0107
X01465Y01125
X0158Y01325
X00775Y01065
X0067Y0101
X005Y01025
X0047389Y0093389
X0054Y0093
X0051Y008922
X0038Y0078
X0036Y00605
X0038Y00475
X00475Y0052
X0058Y0055
Y006
X00685Y0061
X00795
X0077Y007
X0063Y00475
X0061Y0026
X0045Y00255
X0041Y00155
X0033071Y0015748
X00235Y00195
X0022Y0034
X0007874Y003937
X00185Y00505
X002Y00815
X001Y00905
X0019685Y0107874
X003Y0103
X0026772Y0119685
X0007874Y011811
X0047244
X00595Y012
X00575Y01135
X00535Y001
X00525Y00055
X006063Y-000315
X0073953Y0001047
X001811Y-0003937
X0037402Y0137795
X0018898Y0156693
X0116142Y0137795
X0135827
X015093Y0156131
T03
X0047389Y0037687
X0067389
X0057389Y0047687
X0084948Y0142018
X0092822
X0100696
T04
X0053Y00315
X0065
T05
X0108345Y-0002764
Y0007236
Y0017236
X0106Y00595
X0116
X0126
X0136
X0146
X01658Y0085827
X01758
X01858
X0204041Y0036216
X0214041
X0224041
X0075Y01265
X0065
X0165918Y0152249
X0175918
X0185918
T06
X0151589Y0007695
X0159857Y0000805
Y0014584
X0176786Y0007695
T07
X005378Y0132018
Y0152018
X001378Y0142018
T08
X0003292Y0131245
T09
X007668Y0142018
X0108963
T10
X012897Y0007602
X0222743Y010068
X0004239
T11
X0168912Y0007695
M30
