%FSLAX25Y25*%
%MOIN*%
G70*
G01*
G75*
G04 Layer_Color=32768*
%ADD10R,0.05906X0.05118*%
%ADD11R,0.03000X0.13386*%
%ADD12C,0.01200*%
%ADD13C,0.02500*%
%ADD14C,0.05000*%
%ADD15C,0.17716*%
%ADD16C,0.08661*%
%ADD17C,0.05906*%
%ADD18C,0.10000*%
%ADD19C,0.07874*%
%ADD20C,0.07000*%
%ADD21R,0.07000X0.07000*%
%ADD22C,0.07874*%
%ADD23R,0.05906X0.05906*%
%ADD24R,0.07000X0.07000*%
%ADD25C,0.04724*%
%ADD26C,0.06000*%
%ADD27C,0.03150*%
%ADD28C,0.03937*%
%ADD29R,0.03937X0.11811*%
%ADD30R,0.02756X0.03937*%
%ADD31R,0.03600X0.03600*%
%ADD32R,0.05000X0.03600*%
%ADD33R,0.02362X0.03543*%
%ADD34R,0.03543X0.02362*%
%ADD35R,0.03937X0.04331*%
%ADD36R,0.09843X0.07087*%
%ADD37R,0.07087X0.09843*%
%ADD38R,0.06299X0.13780*%
%ADD39R,0.13780X0.06299*%
%ADD40R,0.03937X0.02362*%
%ADD41O,0.08858X0.01575*%
%ADD42R,0.06890X0.04921*%
%ADD43O,0.02165X0.06890*%
%ADD44O,0.06890X0.02165*%
%ADD45R,0.07087X0.03937*%
%ADD46R,0.04331X0.03937*%
%ADD47R,0.07874X0.03150*%
%ADD48R,0.03600X0.05000*%
%ADD49R,0.03600X0.03600*%
%ADD50R,0.02559X0.04331*%
%ADD51R,0.05315X0.01575*%
%ADD52R,0.06299X0.08268*%
%ADD53R,0.07480X0.07480*%
%ADD54R,0.21654X0.08465*%
%ADD55R,0.05000X0.02500*%
%ADD56R,0.10000X0.10512*%
%ADD57C,0.02000*%
%ADD58C,0.10000*%
%ADD59R,0.46850X0.13386*%
%ADD60R,0.24410X0.18504*%
%ADD61R,0.34646X0.04724*%
%ADD62R,0.25591X0.18110*%
%ADD63R,0.20079X0.05512*%
%ADD64R,0.10236X0.26378*%
%ADD65R,0.27559X0.20472*%
%ADD66R,0.27165X0.35433*%
%ADD67R,0.08661X0.04331*%
%ADD68R,0.09449X0.02362*%
%ADD69R,0.05118X0.07087*%
%ADD70R,0.03937X0.05118*%
%ADD71R,0.03937X0.03150*%
%ADD72R,0.07874X0.15748*%
%ADD73C,0.00965*%
%ADD74C,0.01000*%
%ADD75C,0.00500*%
%ADD76C,0.00700*%
%ADD77R,0.06706X0.05918*%
%ADD78R,0.03800X0.14186*%
%ADD79C,0.18517*%
%ADD80C,0.09461*%
%ADD81C,0.06706*%
%ADD82C,0.10800*%
%ADD83C,0.13874*%
%ADD84C,0.07800*%
%ADD85R,0.07800X0.07800*%
%ADD86C,0.08674*%
%ADD87R,0.06706X0.06706*%
%ADD88R,0.07800X0.07800*%
%ADD89C,0.05524*%
G04:AMPARAMS|DCode=90|XSize=8mil|YSize=8mil|CornerRadius=0mil|HoleSize=0mil|Usage=FLASHONLY|Rotation=90.000|XOffset=0mil|YOffset=0mil|HoleType=Round|Shape=RoundedRectangle|*
%AMROUNDEDRECTD90*
21,1,0.00800,0.00800,0,0,90.0*
21,1,0.00800,0.00800,0,0,90.0*
1,1,0.00000,0.00400,0.00400*
1,1,0.00000,0.00400,-0.00400*
1,1,0.00000,-0.00400,-0.00400*
1,1,0.00000,-0.00400,0.00400*
%
%ADD90ROUNDEDRECTD90*%
%ADD91C,0.06800*%
%ADD92R,0.04737X0.12611*%
%ADD93R,0.03556X0.04737*%
%ADD94R,0.04400X0.04400*%
%ADD95R,0.05800X0.04400*%
%ADD96R,0.03162X0.04343*%
%ADD97R,0.04343X0.03162*%
%ADD98R,0.04737X0.05131*%
%ADD99R,0.10642X0.07887*%
%ADD100R,0.07887X0.10642*%
%ADD101R,0.07099X0.14579*%
%ADD102R,0.14579X0.07099*%
%ADD103R,0.04737X0.03162*%
%ADD104O,0.09658X0.02375*%
%ADD105R,0.07690X0.05721*%
%ADD106O,0.02965X0.07690*%
%ADD107O,0.07690X0.02965*%
%ADD108R,0.07887X0.04737*%
%ADD109R,0.05131X0.04737*%
%ADD110R,0.08674X0.03950*%
%ADD111R,0.04400X0.05800*%
%ADD112R,0.04400X0.04400*%
%ADD113R,0.03359X0.05131*%
%ADD114R,0.06115X0.02375*%
%ADD115R,0.07099X0.09068*%
%ADD116R,0.08280X0.08280*%
%ADD117R,0.22453X0.09265*%
%ADD118R,0.05800X0.03300*%
%ADD119R,0.10800X0.11312*%
%ADD120R,0.08674X0.16548*%
%ADD121C,0.01500*%
%ADD122C,0.00787*%
%ADD123C,0.01575*%
%ADD124C,0.00984*%
%ADD125C,0.02362*%
%ADD126C,0.00492*%
%ADD127C,0.00200*%
%ADD128C,0.00394*%
%ADD129C,0.01181*%
%ADD130C,0.00800*%
%ADD131R,0.09449X0.03543*%
%ADD132C,0.01969*%
%ADD133C,0.04000*%
%ADD134C,0.00600*%
%ADD135C,0.00050*%
%ADD136C,0.00001*%
%ADD137C,0.00197*%
D128*
X132328Y318991D02*
Y322928D01*
X130359Y320959D02*
X134296D01*
X90989Y255998D02*
Y259935D01*
X89021Y257967D02*
X92958D01*
D136*
X-81967Y63773D02*
G03*
X-74600Y63078I7367J38675D01*
G01*
Y90637D02*
G03*
X-81967Y89942I0J-39370D01*
G01*
X-13355Y89653D02*
G03*
X-14340Y90637I-984J0D01*
G01*
Y63078D02*
G03*
X-13355Y64062I0J984D01*
G01*
Y168393D02*
G03*
X-14340Y169377I-984J0D01*
G01*
Y141818D02*
G03*
X-13355Y142802I0J984D01*
G01*
X-81967Y142513D02*
G03*
X-74600Y141818I7367J38675D01*
G01*
Y169377D02*
G03*
X-81967Y168682I0J-39370D01*
G01*
X-79998Y24403D02*
G03*
X-72632Y23708I7367J38675D01*
G01*
Y51267D02*
G03*
X-79998Y50572I0J-39370D01*
G01*
X-11387Y50283D02*
G03*
X-12371Y51267I-984J0D01*
G01*
Y23708D02*
G03*
X-11387Y24692I0J984D01*
G01*
X-13355Y129023D02*
G03*
X-14340Y130007I-984J0D01*
G01*
Y102448D02*
G03*
X-13355Y103432I0J984D01*
G01*
X-81967Y103143D02*
G03*
X-74600Y102448I7367J38675D01*
G01*
Y130007D02*
G03*
X-81967Y129312I0J-39370D01*
G01*
X-3599Y214132D02*
G03*
X-3644Y214307I-1802J-366D01*
G01*
X-3695Y214454D02*
G03*
X-4018Y215017I-1995J-771D01*
G01*
X-4018D02*
G03*
X-4902Y215637I-1517J-1221D01*
G01*
X-5041Y215678D02*
G03*
X-5227Y215713I-382J-1525D01*
G01*
X-5175Y182104D02*
G03*
X-4958Y182154I-257J1594D01*
G01*
X-4812Y182206D02*
G03*
X-3832Y183068I-727J1814D01*
G01*
X-3832Y183068D02*
G03*
X-3640Y183515I-1924J1090D01*
G01*
X239204Y340637D02*
G03*
X239204Y340637I-4528J0D01*
G01*
Y9928D02*
G03*
X239204Y9928I-4528J0D01*
G01*
X18731D02*
G03*
X18731Y9928I-4528J0D01*
G01*
Y340637D02*
G03*
X18731Y340637I-4528J0D01*
G01*
X127393Y116227D02*
G03*
X127393Y116227I-6890J0D01*
G01*
X130936Y107369D02*
G03*
X130936Y107369I-1969J0D01*
G01*
X114007Y125086D02*
G03*
X114007Y125086I-1969J0D01*
G01*
X131330Y124692D02*
G03*
X131330Y124692I-1969J0D01*
G01*
X113613Y107763D02*
G03*
X113613Y107763I-1969J0D01*
G01*
X88023Y155598D02*
G03*
X88023Y155598I-6890J0D01*
G01*
X74637Y164456D02*
G03*
X74637Y164456I-1969J0D01*
G01*
X91960Y164062D02*
G03*
X91960Y164062I-1969J0D01*
G01*
X74243Y147133D02*
G03*
X74243Y147133I-1969J0D01*
G01*
X91566Y146739D02*
G03*
X91566Y146739I-1969J0D01*
G01*
X88023Y116227D02*
G03*
X88023Y116227I-6890J0D01*
G01*
X74243Y107763D02*
G03*
X74243Y107763I-1969J0D01*
G01*
X91960Y124692D02*
G03*
X91960Y124692I-1969J0D01*
G01*
X74637Y125086D02*
G03*
X74637Y125086I-1969J0D01*
G01*
X91566Y107369D02*
G03*
X91566Y107369I-1969J0D01*
G01*
X48652Y116227D02*
G03*
X48652Y116227I-6890J0D01*
G01*
X35267Y125086D02*
G03*
X35267Y125086I-1969J0D01*
G01*
X34873Y107763D02*
G03*
X34873Y107763I-1969J0D01*
G01*
X52589Y124692D02*
G03*
X52589Y124692I-1969J0D01*
G01*
X52196Y107369D02*
G03*
X52196Y107369I-1969J0D01*
G01*
X88023Y76857D02*
G03*
X88023Y76857I-6890J0D01*
G01*
X74637Y85716D02*
G03*
X74637Y85716I-1969J0D01*
G01*
X91566Y67999D02*
G03*
X91566Y67999I-1969J0D01*
G01*
X91960Y85322D02*
G03*
X91960Y85322I-1969J0D01*
G01*
X74243Y68393D02*
G03*
X74243Y68393I-1969J0D01*
G01*
X-53454Y216017D02*
G03*
X-64540Y214446I5071J-75719D01*
G01*
X-65006Y183466D02*
G03*
X-54668Y181885I16602J73956D01*
G01*
X-25552Y187094D02*
G03*
X-23584Y189062I0J1969D01*
G01*
Y208747D02*
G03*
X-25552Y210716I-1969J0D01*
G01*
X-58033D02*
G03*
X-60001Y208747I0J-1969D01*
G01*
Y189062D02*
G03*
X-58033Y187094I1969J0D01*
G01*
X-73500Y216310D02*
G03*
X-76348Y212480I1152J-3830D01*
G01*
X-17618Y219929D02*
G03*
X-18002Y220108I-1218J-2114D01*
G01*
X-17369Y219768D02*
G03*
X-17618Y219929I-1636J-2253D01*
G01*
X-17093Y219542D02*
G03*
X-17369Y219768I-2098J-2283D01*
G01*
X-16682Y219087D02*
G03*
X-17093Y219542I-2590J-1926D01*
G01*
X-16530Y218860D02*
G03*
X-16682Y219087I-2421J-1454D01*
G01*
X-16409Y218633D02*
G03*
X-16530Y218860I-2320J-1093D01*
G01*
X-16280Y218294D02*
G03*
X-16409Y218633I-2284J-675D01*
G01*
X-16583Y178866D02*
G03*
X-16305Y179436I-2076J1363D01*
G01*
X-16773Y178606D02*
G03*
X-16583Y178866I-2278J1867D01*
G01*
X-17466Y177974D02*
G03*
X-16773Y178606I-1788J2658D01*
G01*
X-17692Y177839D02*
G03*
X-17466Y177974I-1261J2370D01*
G01*
X-17929Y177729D02*
G03*
X-17692Y177839I-908J2261D01*
G01*
X-46229Y220322D02*
G03*
X-73500Y216310I0J-94694D01*
G01*
Y181499D02*
G03*
X-46229Y177487I27270J90682D01*
G01*
X-76348Y185329D02*
G03*
X-73500Y181499I4000J0D01*
G01*
X-3513Y213735D02*
G03*
X-5513Y215735I-2000J0D01*
G01*
Y182074D02*
G03*
X-3513Y184074I0J2000D01*
G01*
X27196Y190243D02*
G03*
X27196Y190243I-1575J0D01*
G01*
X79164Y-13694D02*
Y33550D01*
X114597Y-13694D02*
Y33550D01*
X-74600Y63078D02*
X-14340D01*
X-74600Y90637D02*
X-14340D01*
X-119655Y82763D02*
X-81967Y89942D01*
X-119655Y70952D02*
X-81967Y63773D01*
X-13355Y71936D02*
X-9418D01*
X-13355Y81779D02*
X-9418D01*
X-74600Y141818D02*
X-14340D01*
X-74600Y169377D02*
X-14340D01*
X-119655Y161503D02*
X-81967Y168682D01*
X-119655Y149692D02*
X-81967Y142513D01*
X-13355Y150676D02*
X-9418D01*
X-13355Y160519D02*
X-9418D01*
X-72632Y23708D02*
X-12371D01*
X-72632Y51267D02*
X-12371D01*
X-117686Y43393D02*
X-79998Y50572D01*
X-117686Y31582D02*
X-79998Y24403D01*
X-11387Y32566D02*
X-7450D01*
X-11387Y42408D02*
X-7450D01*
X-74600Y102448D02*
X-14340D01*
X-74600Y130007D02*
X-14340D01*
X-119655Y122133D02*
X-81967Y129312D01*
X-119655Y110322D02*
X-81967Y103143D01*
X-13355Y111306D02*
X-9418D01*
X-13355Y121149D02*
X-9418D01*
X-94064Y182409D02*
X-75123D01*
X-109812D02*
X-98001D01*
X-119655D02*
X-113749D01*
X-119655Y215401D02*
X-113749D01*
X-109812D02*
X-98001D01*
X-94064D02*
X-75123D01*
X-3551Y213742D02*
X-3550Y213735D01*
X-3551Y213745D02*
X-3551Y213742D01*
X-3551Y213748D02*
X-3551Y213745D01*
X-3551Y213751D02*
X-3551Y213748D01*
X-3552Y213754D02*
X-3551Y213751D01*
X-3552Y213757D02*
X-3552Y213754D01*
X-3552Y213760D02*
X-3552Y213757D01*
X-3553Y213764D02*
X-3552Y213760D01*
X-3553Y213767D02*
X-3553Y213764D01*
X-3553Y213770D02*
X-3553Y213767D01*
X-3554Y213776D02*
X-3553Y213770D01*
X-3554Y213783D02*
X-3554Y213776D01*
X-3555Y213789D02*
X-3554Y213783D01*
X-3555Y213795D02*
X-3555Y213789D01*
X-3556Y213801D02*
X-3555Y213795D01*
X-3557Y213811D02*
X-3556Y213801D01*
X-3557Y213820D02*
X-3557Y213811D01*
X-3558Y213830D02*
X-3557Y213820D01*
X-3559Y213839D02*
X-3558Y213830D01*
X-3560Y213852D02*
X-3559Y213839D01*
X-3562Y213864D02*
X-3560Y213852D01*
X-3563Y213880D02*
X-3562Y213864D01*
X-3565Y213895D02*
X-3563Y213880D01*
X-3567Y213914D02*
X-3565Y213895D01*
X-3569Y213933D02*
X-3567Y213914D01*
X-3571Y213955D02*
X-3569Y213933D01*
X-3574Y213977D02*
X-3571Y213955D01*
X-3577Y214002D02*
X-3574Y213977D01*
X-3582Y214030D02*
X-3577Y214002D01*
X-3586Y214061D02*
X-3582Y214030D01*
X-3592Y214095D02*
X-3586Y214061D01*
X-3599Y214132D02*
X-3592Y214095D01*
X-3695Y214454D02*
X-3644Y214307D01*
X-5041Y215678D02*
X-4902Y215637D01*
X-5258Y215717D02*
X-5227Y215713D01*
X-5286Y215720D02*
X-5258Y215717D01*
X-5311Y215722D02*
X-5286Y215720D01*
X-5336Y215724D02*
X-5311Y215722D01*
X-5358Y215726D02*
X-5336Y215724D01*
X-5377Y215727D02*
X-5358Y215726D01*
X-5395Y215728D02*
X-5377Y215727D01*
X-5411Y215729D02*
X-5395Y215728D01*
X-5427Y215730D02*
X-5411Y215729D01*
X-5439Y215731D02*
X-5427Y215730D01*
X-5452Y215731D02*
X-5439Y215731D01*
X-5461Y215732D02*
X-5452Y215731D01*
X-5471Y215732D02*
X-5461Y215732D01*
X-5480Y215733D02*
X-5471Y215732D01*
X-5486Y215733D02*
X-5480Y215733D01*
X-5492Y215733D02*
X-5486Y215733D01*
X-5499Y215734D02*
X-5492Y215733D01*
X-5505Y215734D02*
X-5499Y215734D01*
X-5511Y215734D02*
X-5505Y215734D01*
X-5514Y215734D02*
X-5511Y215734D01*
X-5518Y215734D02*
X-5514Y215734D01*
X-5521Y215734D02*
X-5518Y215734D01*
X-5524Y215735D02*
X-5521Y215734D01*
X-5527Y215735D02*
X-5524Y215735D01*
X-5530Y215735D02*
X-5527Y215735D01*
X-5533Y215735D02*
X-5530Y215735D01*
X-5536Y215735D02*
X-5533Y215735D01*
X-5540Y215735D02*
X-5536Y215735D01*
X-5540Y182074D02*
X-5533Y182074D01*
X-5530Y182075D01*
X-5527Y182075D01*
X-5524Y182075D01*
X-5521Y182075D01*
X-5518Y182075D01*
X-5514Y182075D01*
X-5511Y182075D01*
X-5508Y182076D01*
X-5502Y182076D01*
X-5496Y182076D01*
X-5489Y182076D01*
X-5483Y182077D01*
X-5477Y182077D01*
X-5471Y182077D01*
X-5461Y182078D01*
X-5452Y182078D01*
X-5442Y182079D01*
X-5430Y182079D01*
X-5417Y182080D01*
X-5405Y182081D01*
X-5389Y182082D01*
X-5373Y182083D01*
X-5355Y182084D01*
X-5336Y182085D01*
X-5314Y182087D01*
X-5292Y182089D01*
X-5268Y182091D01*
X-5240Y182095D01*
X-5209Y182099D01*
X-5175Y182104D01*
X-4958Y182154D02*
X-4812Y182206D01*
X-3640Y183515D02*
X-3607Y183640D01*
X-3591Y183721D01*
X-3585Y183758D01*
X-3580Y183792D01*
X-3576Y183820D01*
X-3572Y183848D01*
X-3569Y183873D01*
X-3567Y183895D01*
X-3565Y183914D01*
X-3563Y183933D01*
X-3561Y183948D01*
X-3560Y183961D01*
X-3559Y183974D01*
X-3558Y183986D01*
X-3557Y183995D01*
X-3556Y184005D01*
X-3555Y184014D01*
X-3555Y184021D01*
X-3554Y184027D01*
X-3554Y184033D01*
X-3553Y184039D01*
X-3553Y184046D01*
X-3552Y184049D01*
X-3552Y184052D01*
X-3552Y184055D01*
X-3551Y184058D01*
X-3551Y184061D01*
X-3551Y184065D01*
X-3551Y184068D01*
X-3550Y184071D01*
X-3550Y184074D01*
X-7450Y49298D02*
X2393D01*
X-7450Y25676D02*
X2393D01*
X-9418Y124101D02*
X2393D01*
X-9418Y108353D02*
X2393D01*
X195306Y417409D02*
Y429220D01*
X179558Y417409D02*
Y429220D01*
X-9418Y84731D02*
X2393D01*
X-9418Y68983D02*
X2393D01*
X-9418Y163472D02*
X2393D01*
X-9418Y147724D02*
X2393D01*
X57511Y49298D02*
X155936D01*
X57511Y-1883D02*
Y49298D01*
X2393Y-1883D02*
X57511D01*
X2393Y328826D02*
Y352448D01*
Y-1883D02*
Y194968D01*
Y352448D02*
X163810D01*
Y417409D01*
X211054D01*
Y352448D02*
Y417409D01*
Y352448D02*
X246487D01*
Y-1883D02*
Y352448D01*
X155936Y-1883D02*
X246487D01*
X155936D02*
Y49298D01*
X79164Y33550D02*
X114597D01*
X79164Y-13694D02*
X114597D01*
X-13355Y64062D02*
Y89653D01*
X-119655Y70952D02*
Y82763D01*
X-13355Y142802D02*
Y168393D01*
X-119655Y149692D02*
Y161503D01*
X-11387Y24692D02*
Y50283D01*
X-117686Y31582D02*
Y43393D01*
X-13355Y103432D02*
Y129023D01*
X-119655Y110322D02*
Y122133D01*
X108298Y104023D02*
X132708D01*
X108298D02*
Y128432D01*
X132708D01*
Y104023D02*
Y128432D01*
X93338Y143393D02*
Y167802D01*
X68928Y143393D02*
X93338D01*
X68928D02*
Y167802D01*
X93338D01*
X68928Y104023D02*
X93338D01*
X68928D02*
Y128432D01*
X93338D01*
Y104023D02*
Y128432D01*
X29558D02*
X53967D01*
X29558Y104023D02*
X53967D01*
Y128432D01*
X29558Y104023D02*
Y128432D01*
X68928Y64653D02*
X93338D01*
X68928D02*
Y89062D01*
X93338D01*
Y64653D02*
Y89062D01*
X-72348Y185329D02*
Y198905D01*
Y212480D01*
X-72296Y212494D01*
X-72271Y212501D01*
X-72245Y212507D01*
X-72220Y212514D01*
X-72194Y212521D01*
X-72168Y212528D01*
X-72143Y212535D01*
X-72117Y212542D01*
X-72092Y212549D01*
X-72066Y212556D01*
X-72015Y212569D01*
X-71964Y212583D01*
X-71913Y212597D01*
X-71861Y212611D01*
X-71810Y212625D01*
X-71733Y212645D01*
X-71657Y212666D01*
X-71580Y212686D01*
X-71503Y212707D01*
X-71401Y212735D01*
X-71298Y212762D01*
X-71171Y212796D01*
X-71043Y212830D01*
X-70889Y212872D01*
X-70735Y212913D01*
X-70556Y212960D01*
X-70377Y213008D01*
X-70172Y213063D01*
X-69942Y213123D01*
X-69686Y213191D01*
X-69404Y213265D01*
X-69096Y213345D01*
X-68763Y213432D01*
X-68404Y213524D01*
X-67993Y213628D01*
X-67556Y213738D01*
X-67068Y213859D01*
X-66527Y213990D01*
X-65935Y214131D01*
X-65264Y214285D01*
X-64540Y214446D01*
X-53454Y216017D02*
X-52714Y216065D01*
X-52053Y216103D01*
X-51471Y216133D01*
X-50942Y216158D01*
X-50466Y216179D01*
X-50042Y216197D01*
X-49645Y216212D01*
X-49301Y216225D01*
X-48984Y216236D01*
X-48692Y216247D01*
X-48428Y216255D01*
X-48189Y216263D01*
X-47977Y216270D01*
X-47792Y216276D01*
X-47633Y216280D01*
X-47474Y216285D01*
X-47342Y216289D01*
X-47209Y216293D01*
X-47104Y216296D01*
X-46997Y216300D01*
X-46918Y216302D01*
X-46839Y216304D01*
X-46759Y216307D01*
X-46706Y216308D01*
X-46653Y216310D01*
X-46600Y216311D01*
X-46547Y216313D01*
X-46494Y216314D01*
X-46468Y216315D01*
X-46441Y216316D01*
X-46415Y216317D01*
X-46388Y216317D01*
X-46362Y216318D01*
X-46335Y216319D01*
X-46309Y216320D01*
X-46282Y216320D01*
X-46256Y216321D01*
X-46229Y216322D01*
X-19111D01*
Y181487D02*
Y216322D01*
X-46229Y181487D02*
X-19111D01*
X-46282Y181489D02*
X-46229Y181487D01*
X-46309Y181490D02*
X-46282Y181489D01*
X-46335Y181491D02*
X-46309Y181490D01*
X-46362Y181491D02*
X-46335Y181491D01*
X-46388Y181492D02*
X-46362Y181491D01*
X-46415Y181493D02*
X-46388Y181492D01*
X-46441Y181493D02*
X-46415Y181493D01*
X-46468Y181494D02*
X-46441Y181493D01*
X-46494Y181495D02*
X-46468Y181494D01*
X-46547Y181497D02*
X-46494Y181495D01*
X-46600Y181498D02*
X-46547Y181497D01*
X-46653Y181500D02*
X-46600Y181498D01*
X-46706Y181501D02*
X-46653Y181500D01*
X-46759Y181503D02*
X-46706Y181501D01*
X-46839Y181505D02*
X-46759Y181503D01*
X-46918Y181508D02*
X-46839Y181505D01*
X-46997Y181510D02*
X-46918Y181508D01*
X-47077Y181512D02*
X-46997Y181510D01*
X-47183Y181515D02*
X-47077Y181512D01*
X-47289Y181519D02*
X-47183Y181515D01*
X-47395Y181522D02*
X-47289Y181519D01*
X-47527Y181526D02*
X-47395Y181522D01*
X-47660Y181530D02*
X-47527Y181526D01*
X-47818Y181535D02*
X-47660Y181530D01*
X-47977Y181540D02*
X-47818Y181535D01*
X-48163Y181546D02*
X-47977Y181540D01*
X-48375Y181552D02*
X-48163Y181546D01*
X-48613Y181560D02*
X-48375Y181552D01*
X-48851Y181568D02*
X-48613Y181560D01*
X-49116Y181578D02*
X-48851Y181568D01*
X-49407Y181588D02*
X-49116Y181578D01*
X-49725Y181600D02*
X-49407Y181588D01*
X-50095Y181615D02*
X-49725Y181600D01*
X-50492Y181631D02*
X-50095Y181615D01*
X-50942Y181651D02*
X-50492Y181631D01*
X-51418Y181674D02*
X-50942Y181651D01*
X-51947Y181701D02*
X-51418Y181674D01*
X-52529Y181734D02*
X-51947Y181701D01*
X-53163Y181773D02*
X-52529Y181734D01*
X-53876Y181823D02*
X-53163Y181773D01*
X-54668Y181885D02*
X-53876Y181823D01*
X-65754Y183636D02*
X-65006Y183466D01*
X-66424Y183794D02*
X-65754Y183636D01*
X-67042Y183944D02*
X-66424Y183794D01*
X-67582Y184078D02*
X-67042Y183944D01*
X-68070Y184200D02*
X-67582Y184078D01*
X-68506Y184312D02*
X-68070Y184200D01*
X-68891Y184411D02*
X-68506Y184312D01*
X-69250Y184504D02*
X-68891Y184411D01*
X-69583Y184591D02*
X-69250Y184504D01*
X-69865Y184666D02*
X-69583Y184591D01*
X-70121Y184733D02*
X-69865Y184666D01*
X-70351Y184794D02*
X-70121Y184733D01*
X-70556Y184849D02*
X-70351Y184794D01*
X-70735Y184897D02*
X-70556Y184849D01*
X-70915Y184945D02*
X-70735Y184897D01*
X-71068Y184986D02*
X-70915Y184945D01*
X-71196Y185020D02*
X-71068Y184986D01*
X-71324Y185054D02*
X-71196Y185020D01*
X-71426Y185082D02*
X-71324Y185054D01*
X-71529Y185109D02*
X-71426Y185082D01*
X-71631Y185137D02*
X-71529Y185109D01*
X-71708Y185157D02*
X-71631Y185137D01*
X-71785Y185178D02*
X-71708Y185157D01*
X-71861Y185199D02*
X-71785Y185178D01*
X-71913Y185212D02*
X-71861Y185199D01*
X-71964Y185226D02*
X-71913Y185212D01*
X-72015Y185240D02*
X-71964Y185226D01*
X-72066Y185254D02*
X-72015Y185240D01*
X-72117Y185267D02*
X-72066Y185254D01*
X-72143Y185274D02*
X-72117Y185267D01*
X-72168Y185281D02*
X-72143Y185274D01*
X-72194Y185288D02*
X-72168Y185281D01*
X-72220Y185295D02*
X-72194Y185288D01*
X-72245Y185302D02*
X-72220Y185295D01*
X-72271Y185309D02*
X-72245Y185302D01*
X-72296Y185316D02*
X-72271Y185309D01*
X-72322Y185323D02*
X-72296Y185316D01*
X-72348Y185329D02*
X-72322Y185323D01*
X-23584Y189062D02*
Y208747D01*
X-58033Y210716D02*
X-25552D01*
X-60001Y189062D02*
Y208747D01*
X-58033Y187094D02*
X-25552D01*
X-76348Y212480D02*
X-72348D01*
X-72359Y198927D02*
X-72348Y198905D01*
X-72364Y198938D02*
X-72359Y198927D01*
X-72370Y198950D02*
X-72364Y198938D01*
X-72375Y198961D02*
X-72370Y198950D01*
X-72386Y198983D02*
X-72375Y198961D01*
X-72397Y199005D02*
X-72386Y198983D01*
X-72408Y199028D02*
X-72397Y199005D01*
X-72419Y199050D02*
X-72408Y199028D01*
X-72425Y199061D02*
X-72419Y199050D01*
X-72430Y199073D02*
X-72425Y199061D01*
X-72436Y199084D02*
X-72430Y199073D01*
X-72441Y199095D02*
X-72436Y199084D01*
X-72447Y199106D02*
X-72441Y199095D01*
X-72452Y199117D02*
X-72447Y199106D01*
X-72458Y199128D02*
X-72452Y199117D01*
X-72463Y199140D02*
X-72458Y199128D01*
X-72469Y199151D02*
X-72463Y199140D01*
X-72474Y199162D02*
X-72469Y199151D01*
X-72480Y199173D02*
X-72474Y199162D01*
X-72485Y199185D02*
X-72480Y199173D01*
X-72491Y199196D02*
X-72485Y199185D01*
X-72496Y199207D02*
X-72491Y199196D01*
X-72502Y199218D02*
X-72496Y199207D01*
X-72507Y199229D02*
X-72502Y199218D01*
X-72513Y199241D02*
X-72507Y199229D01*
X-72518Y199252D02*
X-72513Y199241D01*
X-72524Y199263D02*
X-72518Y199252D01*
X-72530Y199274D02*
X-72524Y199263D01*
X-72540Y199296D02*
X-72530Y199274D01*
X-72552Y199319D02*
X-72540Y199296D01*
X-72563Y199341D02*
X-72552Y199319D01*
X-72574Y199364D02*
X-72563Y199341D01*
X-72585Y199386D02*
X-72574Y199364D01*
X-72601Y199420D02*
X-72585Y199386D01*
X-72618Y199453D02*
X-72601Y199420D01*
X-72634Y199487D02*
X-72618Y199453D01*
X-72651Y199521D02*
X-72634Y199487D01*
X-72673Y199565D02*
X-72651Y199521D01*
X-72695Y199610D02*
X-72673Y199565D01*
X-72723Y199666D02*
X-72695Y199610D01*
X-72750Y199722D02*
X-72723Y199666D01*
X-72783Y199789D02*
X-72750Y199722D01*
X-72816Y199857D02*
X-72783Y199789D01*
X-72855Y199935D02*
X-72816Y199857D01*
X-72893Y200013D02*
X-72855Y199935D01*
X-72937Y200103D02*
X-72893Y200013D01*
X-72986Y200204D02*
X-72937Y200103D01*
X-73041Y200316D02*
X-72986Y200204D01*
X-73101Y200439D02*
X-73041Y200316D01*
X-73167Y200573D02*
X-73101Y200439D01*
X-73238Y200719D02*
X-73167Y200573D01*
X-73314Y200876D02*
X-73238Y200719D01*
X-73395Y201044D02*
X-73314Y200876D01*
X-73487Y201234D02*
X-73395Y201044D01*
X-73583Y201435D02*
X-73487Y201234D01*
X-73690Y201658D02*
X-73583Y201435D01*
X-73800Y201892D02*
X-73690Y201658D01*
X-73921Y202149D02*
X-73800Y201892D01*
X-74045Y202416D02*
X-73921Y202149D01*
X-74178Y202704D02*
X-74045Y202416D01*
X-74439Y203280D02*
X-74178Y202704D01*
X-74738Y203962D02*
X-74439Y203280D01*
X-75034Y204664D02*
X-74738Y203962D01*
X-75169Y204991D02*
X-75034Y204664D01*
X-75204Y205079D02*
X-75169Y204991D01*
X-75243Y205176D02*
X-75204Y205079D01*
X-75287Y205285D02*
X-75243Y205176D01*
X-75329Y205394D02*
X-75287Y205285D01*
X-75376Y205513D02*
X-75329Y205394D01*
X-75426Y205643D02*
X-75376Y205513D01*
X-75479Y205784D02*
X-75426Y205643D01*
X-75531Y205924D02*
X-75479Y205784D01*
X-75585Y206075D02*
X-75531Y205924D01*
X-75641Y206235D02*
X-75585Y206075D01*
X-75696Y206395D02*
X-75641Y206235D01*
X-75751Y206565D02*
X-75696Y206395D01*
X-75804Y206735D02*
X-75751Y206565D01*
X-75858Y206913D02*
X-75804Y206735D01*
X-75907Y207091D02*
X-75858Y206913D01*
X-76024Y207567D02*
X-75907Y207091D01*
X-76086Y207863D02*
X-76024Y207567D01*
X-76129Y208097D02*
X-76086Y207863D01*
X-76162Y208288D02*
X-76129Y208097D01*
X-76188Y208449D02*
X-76162Y208288D01*
X-76209Y208589D02*
X-76188Y208449D01*
X-76226Y208709D02*
X-76209Y208589D01*
X-76241Y208819D02*
X-76226Y208709D01*
X-76253Y208909D02*
X-76241Y208819D01*
X-76264Y208988D02*
X-76253Y208909D01*
X-76274Y209068D02*
X-76264Y208988D01*
X-76283Y209138D02*
X-76274Y209068D01*
X-76290Y209197D02*
X-76283Y209138D01*
X-76297Y209247D02*
X-76290Y209197D01*
X-76303Y209297D02*
X-76297Y209247D01*
X-76307Y209336D02*
X-76303Y209297D01*
X-76312Y209376D02*
X-76307Y209336D01*
X-76317Y209416D02*
X-76312Y209376D01*
X-76320Y209445D02*
X-76317Y209416D01*
X-76324Y209475D02*
X-76320Y209445D01*
X-76328Y209505D02*
X-76324Y209475D01*
X-76330Y209525D02*
X-76328Y209505D01*
X-76332Y209545D02*
X-76330Y209525D01*
X-76335Y209564D02*
X-76332Y209545D01*
X-76337Y209584D02*
X-76335Y209564D01*
X-76338Y209594D02*
X-76337Y209584D01*
X-76339Y209604D02*
X-76338Y209594D01*
X-76341Y209614D02*
X-76339Y209604D01*
X-76342Y209624D02*
X-76341Y209614D01*
X-76343Y209634D02*
X-76342Y209624D01*
X-76344Y209644D02*
X-76343Y209634D01*
X-76345Y209654D02*
X-76344Y209644D01*
X-76346Y209664D02*
X-76345Y209654D01*
X-76348Y209674D02*
X-76346Y209664D01*
X-76348Y209674D02*
Y212480D01*
Y185329D02*
X-72348D01*
X-76348D02*
Y188136D01*
X-76345Y188156D01*
X-76344Y188166D01*
X-76343Y188175D01*
X-76342Y188185D01*
X-76341Y188195D01*
X-76339Y188205D01*
X-76338Y188215D01*
X-76337Y188225D01*
X-76336Y188235D01*
X-76335Y188245D01*
X-76332Y188265D01*
X-76330Y188285D01*
X-76328Y188304D01*
X-76325Y188324D01*
X-76323Y188344D01*
X-76319Y188374D01*
X-76316Y188404D01*
X-76312Y188433D01*
X-76307Y188473D01*
X-76303Y188513D01*
X-76298Y188552D01*
X-76292Y188602D01*
X-76286Y188652D01*
X-76278Y188712D01*
X-76271Y188771D01*
X-76262Y188841D01*
X-76251Y188920D01*
X-76239Y189010D01*
X-76225Y189110D01*
X-76209Y189220D01*
X-76190Y189350D01*
X-76167Y189491D01*
X-76139Y189662D01*
X-76102Y189865D01*
X-76053Y190109D01*
X-75981Y190428D01*
X-75823Y191012D01*
X-75765Y191202D01*
X-75706Y191382D01*
X-75645Y191564D01*
X-75585Y191735D01*
X-75526Y191896D01*
X-75470Y192047D01*
X-75417Y192188D01*
X-75363Y192329D01*
X-75312Y192459D01*
X-75265Y192578D01*
X-75221Y192687D01*
X-75182Y192785D01*
X-74971Y193299D01*
X-74662Y194023D01*
X-74354Y194718D01*
X-74127Y195216D01*
X-73983Y195527D01*
X-73848Y195817D01*
X-73721Y196084D01*
X-73604Y196330D01*
X-73497Y196553D01*
X-73400Y196755D01*
X-73308Y196945D01*
X-73227Y197113D01*
X-73150Y197269D01*
X-73080Y197415D01*
X-73019Y197538D01*
X-72964Y197650D01*
X-72915Y197751D01*
X-72865Y197852D01*
X-72822Y197942D01*
X-72783Y198020D01*
X-72750Y198087D01*
X-72717Y198154D01*
X-72689Y198211D01*
X-72667Y198255D01*
X-72645Y198300D01*
X-72623Y198345D01*
X-72607Y198379D01*
X-72590Y198412D01*
X-72574Y198446D01*
X-72563Y198468D01*
X-72552Y198491D01*
X-72540Y198513D01*
X-72530Y198535D01*
X-72518Y198558D01*
X-72513Y198569D01*
X-72507Y198580D01*
X-72502Y198591D01*
X-72496Y198602D01*
X-72491Y198614D01*
X-72485Y198625D01*
X-72480Y198636D01*
X-72474Y198647D01*
X-72469Y198659D01*
X-72463Y198670D01*
X-72458Y198681D01*
X-72452Y198692D01*
X-72447Y198703D01*
X-72441Y198714D01*
X-72436Y198726D01*
X-72430Y198737D01*
X-72425Y198748D01*
X-72419Y198759D01*
X-72414Y198770D01*
X-72403Y198793D01*
X-72392Y198815D01*
X-72381Y198838D01*
X-72370Y198860D01*
X-72364Y198871D01*
X-72359Y198882D01*
X-72353Y198893D01*
X-72348Y198905D01*
X-46229Y216322D02*
Y220322D01*
X-19111D01*
Y216322D02*
Y220322D01*
Y216322D02*
X-16111D01*
Y181487D02*
Y216322D01*
X-19111Y181487D02*
X-16111D01*
X-46229Y177487D02*
Y181487D01*
X-19111Y177487D02*
Y181487D01*
X-46229Y177487D02*
X-19111D01*
X-72572Y213227D02*
X-72348Y212480D01*
X-72788Y213946D02*
X-72572Y213227D01*
X-72988Y214608D02*
X-72788Y213946D01*
X-73162Y215189D02*
X-72988Y214608D01*
X-73305Y215665D02*
X-73162Y215189D01*
X-73412Y216019D02*
X-73305Y215665D01*
X-73477Y216237D02*
X-73412Y216019D01*
X-73500Y216310D02*
X-73477Y216237D01*
X-19111Y220322D02*
X-19102Y220321D01*
X-19097Y220320D01*
X-19093Y220320D01*
X-19088Y220319D01*
X-19083Y220319D01*
X-19078Y220318D01*
X-19074Y220318D01*
X-19069Y220317D01*
X-19064Y220317D01*
X-19060Y220316D01*
X-19050Y220315D01*
X-19041Y220314D01*
X-19031Y220313D01*
X-19022Y220312D01*
X-19012Y220311D01*
X-18998Y220309D01*
X-18984Y220307D01*
X-18970Y220306D01*
X-18956Y220304D01*
X-18937Y220302D01*
X-18918Y220299D01*
X-18894Y220297D01*
X-18871Y220294D01*
X-18843Y220290D01*
X-18815Y220286D01*
X-18782Y220282D01*
X-18749Y220278D01*
X-18712Y220272D01*
X-18670Y220266D01*
X-18623Y220259D01*
X-18576Y220251D01*
X-18526Y220243D01*
X-18470Y220233D01*
X-18410Y220221D01*
X-18342Y220206D01*
X-18269Y220189D01*
X-18188Y220167D01*
X-18099Y220141D01*
X-18002Y220108D01*
X-16280Y218294D02*
X-16254Y218200D01*
X-16234Y218119D01*
X-16216Y218041D01*
X-16203Y217972D01*
X-16191Y217908D01*
X-16181Y217852D01*
X-16173Y217801D01*
X-16166Y217755D01*
X-16160Y217712D01*
X-16154Y217670D01*
X-16149Y217633D01*
X-16145Y217600D01*
X-16141Y217572D01*
X-16137Y217544D01*
X-16135Y217520D01*
X-16132Y217496D01*
X-16129Y217478D01*
X-16127Y217459D01*
X-16126Y217445D01*
X-16124Y217430D01*
X-16122Y217416D01*
X-16121Y217407D01*
X-16120Y217397D01*
X-16119Y217388D01*
X-16118Y217379D01*
X-16117Y217369D01*
X-16116Y217360D01*
X-16115Y217355D01*
X-16115Y217350D01*
X-16114Y217346D01*
X-16114Y217341D01*
X-16113Y217336D01*
X-16112Y217332D01*
X-16112Y217327D01*
X-16111Y217322D01*
Y216322D02*
Y217322D01*
Y180487D02*
Y181487D01*
X-16112Y180478D02*
X-16111Y180487D01*
X-16113Y180473D02*
X-16112Y180478D01*
X-16114Y180468D02*
X-16113Y180473D01*
X-16114Y180464D02*
X-16114Y180468D01*
X-16115Y180459D02*
X-16114Y180464D01*
X-16115Y180454D02*
X-16115Y180459D01*
X-16116Y180450D02*
X-16115Y180454D01*
X-16116Y180445D02*
X-16116Y180450D01*
X-16117Y180440D02*
X-16116Y180445D01*
X-16118Y180431D02*
X-16117Y180440D01*
X-16119Y180421D02*
X-16118Y180431D01*
X-16120Y180412D02*
X-16119Y180421D01*
X-16121Y180403D02*
X-16120Y180412D01*
X-16122Y180393D02*
X-16121Y180403D01*
X-16123Y180384D02*
X-16122Y180393D01*
X-16125Y180369D02*
X-16123Y180384D01*
X-16127Y180355D02*
X-16125Y180369D01*
X-16128Y180341D02*
X-16127Y180355D01*
X-16130Y180322D02*
X-16128Y180341D01*
X-16133Y180304D02*
X-16130Y180322D01*
X-16135Y180285D02*
X-16133Y180304D01*
X-16138Y180261D02*
X-16135Y180285D01*
X-16141Y180238D02*
X-16138Y180261D01*
X-16145Y180209D02*
X-16141Y180238D01*
X-16148Y180181D02*
X-16145Y180209D01*
X-16152Y180148D02*
X-16148Y180181D01*
X-16158Y180111D02*
X-16152Y180148D01*
X-16163Y180074D02*
X-16158Y180111D01*
X-16169Y180032D02*
X-16163Y180074D01*
X-16176Y179985D02*
X-16169Y180032D01*
X-16185Y179934D02*
X-16176Y179985D01*
X-16195Y179878D02*
X-16185Y179934D01*
X-16206Y179819D02*
X-16195Y179878D01*
X-16219Y179754D02*
X-16206Y179819D01*
X-16235Y179686D02*
X-16219Y179754D01*
X-16254Y179609D02*
X-16235Y179686D01*
X-16276Y179529D02*
X-16254Y179609D01*
X-16305Y179436D02*
X-16276Y179529D01*
X-18090Y177671D02*
X-17929Y177729D01*
X-18188Y177642D02*
X-18090Y177671D01*
X-18274Y177620D02*
X-18188Y177642D01*
X-18351Y177601D02*
X-18274Y177620D01*
X-18424Y177586D02*
X-18351Y177601D01*
X-18489Y177573D02*
X-18424Y177586D01*
X-18549Y177563D02*
X-18489Y177573D01*
X-18604Y177553D02*
X-18549Y177563D01*
X-18656Y177545D02*
X-18604Y177553D01*
X-18702Y177538D02*
X-18656Y177545D01*
X-18744Y177532D02*
X-18702Y177538D01*
X-18782Y177527D02*
X-18744Y177532D01*
X-18815Y177523D02*
X-18782Y177527D01*
X-18847Y177519D02*
X-18815Y177523D01*
X-18876Y177515D02*
X-18847Y177519D01*
X-18899Y177512D02*
X-18876Y177515D01*
X-18923Y177509D02*
X-18899Y177512D01*
X-18942Y177507D02*
X-18923Y177509D01*
X-18960Y177505D02*
X-18942Y177507D01*
X-18979Y177503D02*
X-18960Y177505D01*
X-18993Y177501D02*
X-18979Y177503D01*
X-19008Y177499D02*
X-18993Y177501D01*
X-19022Y177498D02*
X-19008Y177499D01*
X-19031Y177497D02*
X-19022Y177498D01*
X-19041Y177496D02*
X-19031Y177497D01*
X-19050Y177494D02*
X-19041Y177496D01*
X-19060Y177493D02*
X-19050Y177494D01*
X-19069Y177492D02*
X-19060Y177493D01*
X-19074Y177492D02*
X-19069Y177492D01*
X-19078Y177491D02*
X-19074Y177492D01*
X-19083Y177491D02*
X-19078Y177491D01*
X-19088Y177490D02*
X-19083Y177491D01*
X-19093Y177489D02*
X-19088Y177490D01*
X-19097Y177489D02*
X-19093Y177489D01*
X-19102Y177488D02*
X-19097Y177489D01*
X-19107Y177488D02*
X-19102Y177488D01*
X-19111Y177487D02*
X-19107Y177488D01*
X-72572Y184582D02*
X-72348Y185329D01*
X-72788Y183864D02*
X-72572Y184582D01*
X-72988Y183201D02*
X-72788Y183864D01*
X-73162Y182621D02*
X-72988Y183201D01*
X-73305Y182144D02*
X-73162Y182621D01*
X-73412Y181790D02*
X-73305Y182144D01*
X-73477Y181573D02*
X-73412Y181790D01*
X-73500Y181499D02*
X-73477Y181573D01*
X-119655Y182409D02*
Y198905D01*
Y215401D01*
X-113749Y202350D02*
Y215401D01*
Y202350D02*
X-109812D01*
Y215401D01*
X-98001Y202350D02*
Y215401D01*
Y202350D02*
X-94064D01*
Y215401D01*
X-101938Y182772D02*
Y215037D01*
X-105875D02*
X-101938D01*
X-105875Y182772D02*
Y215037D01*
Y182772D02*
X-101938D01*
X-113749Y195460D02*
X-109812D01*
X-113749Y182409D02*
Y195460D01*
X-109812Y182409D02*
Y195460D01*
X-98001D02*
X-94064D01*
X-98001Y182409D02*
Y195460D01*
X-94064Y182409D02*
Y195460D01*
X-76348Y188136D02*
X-76220Y188885D01*
X-76348Y209674D02*
X-76220Y208924D01*
X-90127Y182772D02*
X-86190D01*
Y215037D01*
X-90127D02*
X-86190D01*
X-90127Y182772D02*
Y215037D01*
Y189685D02*
X-86190D01*
X-90127Y208125D02*
X-86190D01*
X-105875Y189685D02*
X-101938D01*
X-105875Y208125D02*
X-101938D01*
X-3550Y213735D02*
X-3513D01*
X-5513D02*
Y215735D01*
X-3550Y184074D02*
X-3513D01*
X-5513D02*
Y213735D01*
X-3513Y184074D02*
Y213735D01*
X-5513Y182074D02*
Y184074D01*
X-16111Y182074D02*
X-5513D01*
X-16111Y184074D02*
X-5513D01*
X-16111Y213735D02*
X-5513D01*
X-16111Y215735D02*
X-5513D01*
X-3513Y210066D02*
X2393D01*
X-3513Y187743D02*
X2393D01*
X-3513Y212291D02*
X2393D01*
X-3513Y185519D02*
X2393D01*
X6133Y39456D02*
X7314D01*
Y35519D02*
Y39456D01*
X6133Y35519D02*
X7314D01*
X6133D02*
Y39456D01*
X33298Y35519D02*
Y39456D01*
X34479D01*
Y35519D02*
Y39456D01*
X33298Y35519D02*
X34479D01*
X24046Y45952D02*
X27983D01*
Y44771D02*
Y45952D01*
X24046Y44771D02*
X27983D01*
X24046D02*
Y45952D01*
Y29023D02*
Y30204D01*
X27983Y29023D02*
Y30204D01*
X24046D02*
X27983D01*
X24046Y29023D02*
X27983D01*
X-7450Y25676D02*
Y49298D01*
X45700Y23708D02*
X63810D01*
Y49298D01*
X6133Y118196D02*
X7314D01*
X6133Y114259D02*
X7314D01*
Y118196D01*
X6133Y114259D02*
Y118196D01*
X27983Y123511D02*
Y124692D01*
X24046Y123511D02*
Y124692D01*
X27983D01*
X24046Y123511D02*
X27983D01*
Y107763D02*
Y108944D01*
X24046Y107763D02*
X27983D01*
X24046D02*
Y108944D01*
X27983D01*
X-9418Y108353D02*
Y124101D01*
X185464Y412488D02*
Y413669D01*
X189401Y412488D02*
Y413669D01*
X185464D02*
X189401D01*
X185464Y412488D02*
X189401D01*
X178967Y395755D02*
X180149D01*
Y391818D02*
Y395755D01*
X178967Y391818D02*
X180149D01*
X178967D02*
Y395755D01*
X194716Y391818D02*
X195897D01*
X194716Y395755D02*
X195897D01*
X194716Y391818D02*
Y395755D01*
X195897Y391818D02*
Y395755D01*
X185464Y385322D02*
X189401D01*
X185464Y386503D02*
X189401D01*
Y385322D02*
Y386503D01*
X185464Y385322D02*
Y386503D01*
X179558Y429220D02*
X195306D01*
X6133Y78826D02*
X7314D01*
Y74889D02*
Y78826D01*
X6133Y74889D02*
Y78826D01*
Y74889D02*
X7314D01*
X24046Y68393D02*
Y69574D01*
X27983D01*
Y68393D02*
Y69574D01*
X24046Y68393D02*
X27983D01*
X24046Y85322D02*
X27983D01*
Y84141D02*
Y85322D01*
X24046Y84141D02*
Y85322D01*
Y84141D02*
X27983D01*
X34479Y74889D02*
Y78826D01*
X33298Y74889D02*
X34479D01*
X33298Y78826D02*
X34479D01*
X33298Y74889D02*
Y78826D01*
X-9418Y68983D02*
Y84731D01*
X7314Y153629D02*
Y157566D01*
X6133Y153629D02*
X7314D01*
X6133D02*
Y157566D01*
X7314D01*
X24046Y147133D02*
Y148314D01*
X27983D01*
Y147133D02*
Y148314D01*
X24046Y147133D02*
X27983D01*
Y162881D02*
Y164062D01*
X24046Y162881D02*
Y164062D01*
X27983D01*
X24046Y162881D02*
X27983D01*
X34479Y153629D02*
Y157566D01*
X33298Y153629D02*
X34479D01*
X33298D02*
Y157566D01*
X34479D01*
X-9418Y147724D02*
Y163472D01*
X2393Y194968D02*
Y328826D01*
X159873D01*
Y194968D02*
Y328826D01*
X2393Y194968D02*
X159873D01*
X-81967Y63773D02*
Y89942D01*
X-74600Y63078D02*
Y90637D01*
X-14340Y63078D02*
Y90637D01*
Y141818D02*
Y169377D01*
X-74600Y141818D02*
Y169377D01*
X-81967Y142513D02*
Y168682D01*
X-79998Y24403D02*
Y50572D01*
X-72632Y23708D02*
Y51267D01*
X-12371Y23708D02*
Y51267D01*
X-14340Y102448D02*
Y130007D01*
X-74600Y102448D02*
Y130007D01*
X-81967Y103143D02*
Y129312D01*
X-5513Y213735D02*
X-3550D01*
X-5513Y184074D02*
X-3550D01*
X-3513Y207901D02*
X2393D01*
X-3513Y189909D02*
X2393D01*
X-3513Y187458D02*
X2393D01*
X-3513Y210351D02*
X2393D01*
X-3513Y186146D02*
X2393D01*
X-3513Y211663D02*
X2393D01*
X-185684Y148813D02*
X-181747Y152750D01*
X-185684Y146845D02*
X-181747Y142908D01*
X-185684Y146845D02*
Y148813D01*
D137*
X117564Y309935D02*
X147091D01*
X117564Y331983D02*
X147091D01*
X117564Y309935D02*
Y331983D01*
X147091Y309935D02*
Y331983D01*
X56540Y292416D02*
X125438D01*
X56540Y223518D02*
X125438D01*
Y292416D01*
X56540Y223518D02*
Y292416D01*
M02*
