%FSLAX25Y25*%
%MOIN*%
G70*
G01*
G75*
%ADD10R,0.05906X0.05118*%
%ADD11R,0.03000X0.13386*%
%ADD12C,0.01200*%
%ADD13C,0.02500*%
%ADD14C,0.05000*%
%ADD15C,0.17716*%
%ADD16C,0.08661*%
%ADD17C,0.05906*%
%ADD18C,0.10000*%
%ADD19C,0.07874*%
%ADD20C,0.07000*%
%ADD21R,0.07000X0.07000*%
%ADD22C,0.07874*%
%ADD23R,0.05906X0.05906*%
%ADD24R,0.07000X0.07000*%
%ADD25C,0.04724*%
%ADD26C,0.06000*%
%ADD27C,0.03150*%
%ADD28C,0.03937*%
%ADD29R,0.03937X0.11811*%
%ADD30R,0.02756X0.03937*%
%ADD31R,0.03600X0.03600*%
%ADD32R,0.05000X0.03600*%
%ADD33R,0.02362X0.03543*%
%ADD34R,0.03543X0.02362*%
%ADD35R,0.03937X0.04331*%
%ADD36R,0.09843X0.07087*%
%ADD37R,0.07087X0.09843*%
%ADD38R,0.06299X0.13780*%
%ADD39R,0.13780X0.06299*%
%ADD40R,0.03937X0.02362*%
%ADD41O,0.08858X0.01575*%
%ADD42R,0.06890X0.04921*%
%ADD43O,0.02165X0.06890*%
%ADD44O,0.06890X0.02165*%
%ADD45R,0.07087X0.03937*%
%ADD46R,0.04331X0.03937*%
%ADD47R,0.07874X0.03150*%
%ADD48R,0.03600X0.05000*%
%ADD49R,0.03600X0.03600*%
%ADD50R,0.02559X0.04331*%
%ADD51R,0.05315X0.01575*%
%ADD52R,0.06299X0.08268*%
%ADD53R,0.07480X0.07480*%
%ADD54R,0.21654X0.08465*%
%ADD55R,0.05000X0.02500*%
%ADD56R,0.10000X0.10512*%
%ADD57C,0.02000*%
%ADD58C,0.10000*%
%ADD59R,0.46850X0.13386*%
%ADD60R,0.24410X0.18504*%
%ADD61R,0.34646X0.04724*%
%ADD62R,0.25591X0.18110*%
%ADD63R,0.20079X0.05512*%
%ADD64R,0.10236X0.26378*%
%ADD65R,0.27559X0.20472*%
%ADD66R,0.27165X0.35433*%
%ADD67R,0.08661X0.04331*%
%ADD68R,0.09449X0.02362*%
%ADD69R,0.05118X0.07087*%
%ADD70R,0.03937X0.05118*%
%ADD71R,0.03937X0.03150*%
%ADD72R,0.07874X0.15748*%
D10*
X159327Y233314D02*
D03*
Y225833D02*
D03*
X159459Y277610D02*
D03*
Y285090D02*
D03*
X9879Y233846D02*
D03*
Y226366D02*
D03*
X10107Y277861D02*
D03*
Y285341D02*
D03*
D11*
X88668Y323321D02*
D03*
X92567D02*
D03*
X96567D02*
D03*
X100468D02*
D03*
X68919D02*
D03*
X84667D02*
D03*
X80730D02*
D03*
X76793D02*
D03*
X72856D02*
D03*
D15*
X98402Y-19291D02*
D03*
X43365Y354509D02*
D03*
X204715Y11791D02*
D03*
X31506Y11824D02*
D03*
X216544Y350405D02*
D03*
D16*
X48942Y42112D02*
D03*
X45399Y30891D02*
D03*
Y53332D02*
D03*
X13509Y28726D02*
D03*
Y55498D02*
D03*
X121021Y-19198D02*
D03*
X129289Y-26088D02*
D03*
Y-12308D02*
D03*
X22800Y110781D02*
D03*
Y124561D02*
D03*
X31068Y117671D02*
D03*
X31068Y78301D02*
D03*
X22800Y85191D02*
D03*
Y71411D02*
D03*
X22800Y150151D02*
D03*
Y163931D02*
D03*
X31068Y157041D02*
D03*
D17*
X7997Y42112D02*
D03*
X35556D02*
D03*
X197480Y162992D02*
D03*
X207480Y152992D02*
D03*
X197480D02*
D03*
X207480Y142992D02*
D03*
X197480D02*
D03*
X138344Y-19198D02*
D03*
X13745Y117671D02*
D03*
X13745Y78301D02*
D03*
X13745Y157041D02*
D03*
D18*
X219291Y125591D02*
D03*
X148819Y229528D02*
D03*
X141186Y188189D02*
D03*
X69788Y358492D02*
D03*
X41776Y234345D02*
D03*
Y263873D02*
D03*
Y279621D02*
D03*
D19*
X29144Y337327D02*
D03*
X225272Y29943D02*
D03*
D20*
X194532Y362928D02*
D03*
X184532D02*
D03*
X77777Y-29656D02*
D03*
Y-19657D02*
D03*
D21*
X174532Y362928D02*
D03*
D22*
X203406Y300125D02*
D03*
Y309967D02*
D03*
X146218Y-19198D02*
D03*
X5871Y117671D02*
D03*
X5871Y78301D02*
D03*
X5871Y157041D02*
D03*
D23*
X207480Y162992D02*
D03*
D24*
X77777Y-9657D02*
D03*
D25*
X167609Y68409D02*
D03*
X175483Y72347D02*
D03*
X167609Y76284D02*
D03*
X175483Y80221D02*
D03*
X167609Y84158D02*
D03*
X175483Y88095D02*
D03*
D26*
X17738Y308773D02*
D03*
X151667Y208360D02*
D03*
M02*
