%FSLAX25Y25*%
%MOIN*%
G70*
G01*
G75*
G04 Layer_Color=255*
%ADD10R,0.05906X0.05118*%
%ADD11R,0.03000X0.13386*%
%ADD12C,0.01200*%
%ADD13C,0.02500*%
%ADD14C,0.05000*%
%ADD15C,0.17716*%
%ADD16C,0.08661*%
%ADD17C,0.05906*%
%ADD18C,0.10000*%
%ADD19C,0.07874*%
%ADD20C,0.07000*%
%ADD21R,0.07000X0.07000*%
%ADD22C,0.07874*%
%ADD23R,0.05906X0.05906*%
%ADD24R,0.07000X0.07000*%
%ADD25C,0.04724*%
%ADD26C,0.06000*%
%ADD27C,0.03150*%
%ADD28C,0.03937*%
%ADD29R,0.03937X0.11811*%
%ADD30R,0.02756X0.03937*%
%ADD31R,0.03600X0.03600*%
%ADD32R,0.05000X0.03600*%
%ADD33R,0.02362X0.03543*%
%ADD34R,0.03543X0.02362*%
%ADD35R,0.03937X0.04331*%
%ADD36R,0.09843X0.07087*%
%ADD37R,0.07087X0.09843*%
%ADD38R,0.06299X0.13780*%
%ADD39R,0.13780X0.06299*%
%ADD40R,0.03937X0.02362*%
%ADD41O,0.08858X0.01575*%
%ADD42R,0.06890X0.04921*%
%ADD43O,0.02165X0.06890*%
%ADD44O,0.06890X0.02165*%
%ADD45R,0.07087X0.03937*%
%ADD46R,0.04331X0.03937*%
%ADD47R,0.07874X0.03150*%
%ADD48R,0.03600X0.05000*%
%ADD49R,0.03600X0.03600*%
%ADD50R,0.02559X0.04331*%
%ADD51R,0.05315X0.01575*%
%ADD52R,0.06299X0.08268*%
%ADD53R,0.07480X0.07480*%
%ADD54R,0.21654X0.08465*%
%ADD55R,0.05000X0.02500*%
%ADD56R,0.10000X0.10512*%
%ADD57C,0.02000*%
%ADD58C,0.10000*%
%ADD59R,0.46850X0.13386*%
%ADD60R,0.24410X0.18504*%
%ADD61R,0.34646X0.04724*%
%ADD62R,0.25591X0.18110*%
%ADD63R,0.20079X0.05512*%
%ADD64R,0.10236X0.26378*%
%ADD65R,0.27559X0.20472*%
%ADD66R,0.27165X0.35433*%
%ADD67R,0.08661X0.04331*%
%ADD68R,0.09449X0.02362*%
%ADD69R,0.05118X0.07087*%
%ADD70R,0.03937X0.05118*%
%ADD71R,0.03937X0.03150*%
%ADD72R,0.07874X0.15748*%
D15*
X98402Y-19291D02*
D03*
X43365Y354509D02*
D03*
X204715Y11791D02*
D03*
X31506Y11824D02*
D03*
X216544Y350405D02*
D03*
D16*
X48942Y42112D02*
D03*
X45399Y30891D02*
D03*
Y53332D02*
D03*
X13509Y28726D02*
D03*
Y55498D02*
D03*
X121021Y-19198D02*
D03*
X129289Y-26088D02*
D03*
Y-12308D02*
D03*
X22800Y110781D02*
D03*
Y124561D02*
D03*
X31068Y117671D02*
D03*
X31068Y78301D02*
D03*
X22800Y85191D02*
D03*
Y71411D02*
D03*
X22800Y150151D02*
D03*
Y163931D02*
D03*
X31068Y157041D02*
D03*
D17*
X7997Y42112D02*
D03*
X35556D02*
D03*
X197480Y162992D02*
D03*
X207480Y152992D02*
D03*
X197480D02*
D03*
X207480Y142992D02*
D03*
X197480D02*
D03*
X138344Y-19198D02*
D03*
X13745Y117671D02*
D03*
X13745Y78301D02*
D03*
X13745Y157041D02*
D03*
D18*
X219291Y125591D02*
D03*
X148819Y229528D02*
D03*
X141186Y188189D02*
D03*
X69788Y358492D02*
D03*
X41776Y234345D02*
D03*
Y263873D02*
D03*
Y279621D02*
D03*
D19*
X29144Y337327D02*
D03*
X225272Y29943D02*
D03*
D20*
X194532Y362928D02*
D03*
X184532D02*
D03*
X77777Y-29656D02*
D03*
Y-19657D02*
D03*
D21*
X174532Y362928D02*
D03*
D22*
X203406Y300125D02*
D03*
Y309967D02*
D03*
X146218Y-19198D02*
D03*
X5871Y117671D02*
D03*
X5871Y78301D02*
D03*
X5871Y157041D02*
D03*
D23*
X207480Y162992D02*
D03*
D24*
X77777Y-9657D02*
D03*
D25*
X167609Y68409D02*
D03*
X175483Y72347D02*
D03*
X167609Y76284D02*
D03*
X175483Y80221D02*
D03*
X167609Y84158D02*
D03*
X175483Y88095D02*
D03*
D26*
X17738Y308773D02*
D03*
X151667Y208360D02*
D03*
D29*
X226772Y310630D02*
D03*
X213386D02*
D03*
D30*
X230118Y224803D02*
D03*
X226378D02*
D03*
X222638D02*
D03*
Y234252D02*
D03*
X226378D02*
D03*
X230118D02*
D03*
D31*
X220079Y322441D02*
D03*
Y329941D02*
D03*
X172947Y207805D02*
D03*
Y215305D02*
D03*
D32*
X228079Y326241D02*
D03*
X164947Y211506D02*
D03*
D33*
X204921Y322441D02*
D03*
X199016D02*
D03*
X209252D02*
D03*
X215158D02*
D03*
X107721Y346746D02*
D03*
X101816D02*
D03*
X188779Y322441D02*
D03*
X194685D02*
D03*
X172638Y222835D02*
D03*
X166732D02*
D03*
X87872Y295428D02*
D03*
X93777D02*
D03*
X46698Y252062D02*
D03*
X40792D02*
D03*
Y246156D02*
D03*
X46698D02*
D03*
X107968Y219563D02*
D03*
X102062D02*
D03*
X78194Y216432D02*
D03*
X72288D02*
D03*
X32918Y198912D02*
D03*
X38824D02*
D03*
X32918Y193006D02*
D03*
X38824D02*
D03*
X64414Y70959D02*
D03*
X58509D02*
D03*
X62402Y37992D02*
D03*
X68307D02*
D03*
X64414Y55211D02*
D03*
X58509D02*
D03*
X76225D02*
D03*
X70320D02*
D03*
X88386Y32283D02*
D03*
X82480D02*
D03*
X76225Y70959D02*
D03*
X70320D02*
D03*
X82480Y38583D02*
D03*
X88386D02*
D03*
X97879Y88676D02*
D03*
X91973D02*
D03*
X97879Y106392D02*
D03*
X91973D02*
D03*
X97879Y124109D02*
D03*
X91973D02*
D03*
X97879Y141825D02*
D03*
X91973D02*
D03*
X97879Y159542D02*
D03*
X91973D02*
D03*
X141186Y92614D02*
D03*
X147091D02*
D03*
X141186Y84740D02*
D03*
X147091D02*
D03*
X141186Y76866D02*
D03*
X147091D02*
D03*
X141186Y68992D02*
D03*
X147091D02*
D03*
X141186Y61118D02*
D03*
X147091D02*
D03*
X97879Y177258D02*
D03*
X91973D02*
D03*
X205315Y213583D02*
D03*
X211221D02*
D03*
X68307Y43701D02*
D03*
X62402D02*
D03*
X68307Y26378D02*
D03*
X62402D02*
D03*
Y32087D02*
D03*
X68307D02*
D03*
X97835Y169291D02*
D03*
X91929D02*
D03*
D34*
X177756Y159252D02*
D03*
Y153347D02*
D03*
X210433Y255709D02*
D03*
Y249803D02*
D03*
X174516Y333649D02*
D03*
Y339554D02*
D03*
X187249Y333754D02*
D03*
Y339660D02*
D03*
X198031Y339567D02*
D03*
Y333661D02*
D03*
X181693Y196260D02*
D03*
Y190354D02*
D03*
X156496Y153347D02*
D03*
Y159252D02*
D03*
X186614Y145079D02*
D03*
Y139173D02*
D03*
X134493Y238386D02*
D03*
Y232480D02*
D03*
X136461Y280605D02*
D03*
Y274699D02*
D03*
X37402Y312008D02*
D03*
Y317913D02*
D03*
X42913Y312008D02*
D03*
Y317913D02*
D03*
X134312Y260122D02*
D03*
Y254216D02*
D03*
X134356Y243548D02*
D03*
Y249454D02*
D03*
X53937Y312008D02*
D03*
Y317913D02*
D03*
X59449Y312008D02*
D03*
Y317913D02*
D03*
X48425D02*
D03*
Y312008D02*
D03*
X31890Y317913D02*
D03*
Y312008D02*
D03*
D35*
X174515Y346284D02*
D03*
Y352977D02*
D03*
X194553Y346284D02*
D03*
Y352977D02*
D03*
X184533Y346166D02*
D03*
Y352859D02*
D03*
X65399Y209345D02*
D03*
Y216038D02*
D03*
D36*
X226378Y276772D02*
D03*
Y296850D02*
D03*
D37*
X210236Y281890D02*
D03*
X190157D02*
D03*
D38*
X193307Y240551D02*
D03*
Y262598D02*
D03*
D39*
X192913Y195669D02*
D03*
X214961D02*
D03*
D40*
X172047Y159646D02*
D03*
Y155905D02*
D03*
Y152165D02*
D03*
X162598D02*
D03*
Y159646D02*
D03*
D41*
X122977Y312209D02*
D03*
Y314709D02*
D03*
Y317209D02*
D03*
Y319709D02*
D03*
Y322209D02*
D03*
Y324709D02*
D03*
Y327209D02*
D03*
Y329709D02*
D03*
X141678Y312209D02*
D03*
Y314709D02*
D03*
Y317209D02*
D03*
Y319709D02*
D03*
Y322209D02*
D03*
Y324709D02*
D03*
Y327209D02*
D03*
Y329709D02*
D03*
D42*
X77800Y346550D02*
D03*
X88430D02*
D03*
D43*
X67367Y227849D02*
D03*
X70517D02*
D03*
X73666D02*
D03*
X76816D02*
D03*
X79966D02*
D03*
X83115D02*
D03*
X86265D02*
D03*
X89414D02*
D03*
X92564D02*
D03*
X95714D02*
D03*
X98863D02*
D03*
X102013D02*
D03*
X105162D02*
D03*
X108312D02*
D03*
X111461D02*
D03*
X114611D02*
D03*
Y288085D02*
D03*
X111461D02*
D03*
X108312D02*
D03*
X105162D02*
D03*
X102013D02*
D03*
X98863D02*
D03*
X95714D02*
D03*
X92564D02*
D03*
X89414D02*
D03*
X86265D02*
D03*
X83115D02*
D03*
X79966D02*
D03*
X76816D02*
D03*
X73666D02*
D03*
X70517D02*
D03*
X67367D02*
D03*
D44*
X121107Y234345D02*
D03*
Y237494D02*
D03*
Y240644D02*
D03*
Y243794D02*
D03*
Y246943D02*
D03*
Y250093D02*
D03*
Y253243D02*
D03*
Y256392D02*
D03*
Y259542D02*
D03*
Y262691D02*
D03*
Y265841D02*
D03*
Y268991D02*
D03*
Y272140D02*
D03*
Y275290D02*
D03*
Y278439D02*
D03*
Y281589D02*
D03*
X60871D02*
D03*
Y278439D02*
D03*
Y275290D02*
D03*
Y272140D02*
D03*
Y268991D02*
D03*
Y265841D02*
D03*
Y262691D02*
D03*
Y259542D02*
D03*
Y256392D02*
D03*
Y253243D02*
D03*
Y250093D02*
D03*
Y246943D02*
D03*
Y243794D02*
D03*
Y240644D02*
D03*
Y237494D02*
D03*
Y234345D02*
D03*
D45*
X142520Y257087D02*
D03*
Y247244D02*
D03*
D46*
X39217Y187101D02*
D03*
X32524D02*
D03*
D47*
X53588Y88676D02*
D03*
Y78676D02*
D03*
X81147D02*
D03*
Y88676D02*
D03*
X53588Y106392D02*
D03*
Y96392D02*
D03*
X81147D02*
D03*
Y106392D02*
D03*
X53588Y124109D02*
D03*
Y114109D02*
D03*
X81147D02*
D03*
Y124109D02*
D03*
X53588Y141825D02*
D03*
Y131825D02*
D03*
X81147D02*
D03*
Y141825D02*
D03*
X53588Y159542D02*
D03*
Y149542D02*
D03*
X81147D02*
D03*
Y159542D02*
D03*
X53588Y177258D02*
D03*
Y167258D02*
D03*
X81147D02*
D03*
Y177258D02*
D03*
D48*
X179787Y329867D02*
D03*
D49*
X176086Y321867D02*
D03*
X183587D02*
D03*
D50*
X215158Y229921D02*
D03*
X207677D02*
D03*
Y220472D02*
D03*
X211417D02*
D03*
X215158D02*
D03*
D51*
X18339Y193439D02*
D03*
Y195999D02*
D03*
Y198558D02*
D03*
Y201117D02*
D03*
Y203676D02*
D03*
D52*
X17945Y186353D02*
D03*
X17749Y210762D02*
D03*
D53*
X7709Y185172D02*
D03*
Y194621D02*
D03*
Y202495D02*
D03*
Y211943D02*
D03*
D54*
X225197Y243209D02*
D03*
Y258366D02*
D03*
D55*
X229921Y216496D02*
D03*
D56*
Y207480D02*
D03*
M02*
