%FSLAX25Y25*%
%MOIN*%
G70*
G01*
G75*
G04 Layer_Color=32896*
%ADD10R,0.05906X0.05118*%
%ADD11R,0.03000X0.13386*%
%ADD12C,0.01200*%
%ADD13C,0.02500*%
%ADD14C,0.05000*%
%ADD15C,0.17716*%
%ADD16C,0.08661*%
%ADD17C,0.05906*%
%ADD18C,0.10000*%
%ADD19C,0.07874*%
%ADD20C,0.07000*%
%ADD21R,0.07000X0.07000*%
%ADD22C,0.07874*%
%ADD23R,0.05906X0.05906*%
%ADD24R,0.07000X0.07000*%
%ADD25C,0.04724*%
%ADD26C,0.06000*%
%ADD27C,0.03150*%
%ADD28C,0.03937*%
%ADD29R,0.03937X0.11811*%
%ADD30R,0.02756X0.03937*%
%ADD31R,0.03600X0.03600*%
%ADD32R,0.05000X0.03600*%
%ADD33R,0.02362X0.03543*%
%ADD34R,0.03543X0.02362*%
%ADD35R,0.03937X0.04331*%
%ADD36R,0.09843X0.07087*%
%ADD37R,0.07087X0.09843*%
%ADD38R,0.06299X0.13780*%
%ADD39R,0.13780X0.06299*%
%ADD40R,0.03937X0.02362*%
%ADD41O,0.08858X0.01575*%
%ADD42R,0.06890X0.04921*%
%ADD43O,0.02165X0.06890*%
%ADD44O,0.06890X0.02165*%
%ADD45R,0.07087X0.03937*%
%ADD46R,0.04331X0.03937*%
%ADD47R,0.07874X0.03150*%
%ADD48R,0.03600X0.05000*%
%ADD49R,0.03600X0.03600*%
%ADD50R,0.02559X0.04331*%
%ADD51R,0.05315X0.01575*%
%ADD52R,0.06299X0.08268*%
%ADD53R,0.07480X0.07480*%
%ADD54R,0.21654X0.08465*%
%ADD55R,0.05000X0.02500*%
%ADD56R,0.10000X0.10512*%
%ADD57C,0.02000*%
%ADD58C,0.10000*%
%ADD59R,0.46850X0.13386*%
%ADD60R,0.24410X0.18504*%
%ADD61R,0.34646X0.04724*%
%ADD62R,0.25591X0.18110*%
%ADD63R,0.20079X0.05512*%
%ADD64R,0.10236X0.26378*%
%ADD65R,0.27559X0.20472*%
%ADD66R,0.27165X0.35433*%
%ADD67R,0.08661X0.04331*%
%ADD68R,0.09449X0.02362*%
%ADD69R,0.05118X0.07087*%
%ADD70R,0.03937X0.05118*%
%ADD71R,0.03937X0.03150*%
%ADD72R,0.07874X0.15748*%
%ADD73C,0.00965*%
%ADD74C,0.01000*%
%ADD75C,0.00500*%
%ADD76C,0.00700*%
%ADD77R,0.06706X0.05918*%
%ADD78R,0.03800X0.14186*%
%ADD79C,0.18517*%
%ADD80C,0.09461*%
%ADD81C,0.06706*%
%ADD82C,0.10800*%
%ADD83C,0.13874*%
%ADD84C,0.07800*%
%ADD85R,0.07800X0.07800*%
%ADD86C,0.08674*%
%ADD87R,0.06706X0.06706*%
%ADD88R,0.07800X0.07800*%
%ADD89C,0.05524*%
G04:AMPARAMS|DCode=90|XSize=8mil|YSize=8mil|CornerRadius=0mil|HoleSize=0mil|Usage=FLASHONLY|Rotation=90.000|XOffset=0mil|YOffset=0mil|HoleType=Round|Shape=RoundedRectangle|*
%AMROUNDEDRECTD90*
21,1,0.00800,0.00800,0,0,90.0*
21,1,0.00800,0.00800,0,0,90.0*
1,1,0.00000,0.00400,0.00400*
1,1,0.00000,0.00400,-0.00400*
1,1,0.00000,-0.00400,-0.00400*
1,1,0.00000,-0.00400,0.00400*
%
%ADD90ROUNDEDRECTD90*%
%ADD91C,0.06800*%
%ADD92R,0.04737X0.12611*%
%ADD93R,0.03556X0.04737*%
%ADD94R,0.04400X0.04400*%
%ADD95R,0.05800X0.04400*%
%ADD96R,0.03162X0.04343*%
%ADD97R,0.04343X0.03162*%
%ADD98R,0.04737X0.05131*%
%ADD99R,0.10642X0.07887*%
%ADD100R,0.07887X0.10642*%
%ADD101R,0.07099X0.14579*%
%ADD102R,0.14579X0.07099*%
%ADD103R,0.04737X0.03162*%
%ADD104O,0.09658X0.02375*%
%ADD105R,0.07690X0.05721*%
%ADD106O,0.02965X0.07690*%
%ADD107O,0.07690X0.02965*%
%ADD108R,0.07887X0.04737*%
%ADD109R,0.05131X0.04737*%
%ADD110R,0.08674X0.03950*%
%ADD111R,0.04400X0.05800*%
%ADD112R,0.04400X0.04400*%
%ADD113R,0.03359X0.05131*%
%ADD114R,0.06115X0.02375*%
%ADD115R,0.07099X0.09068*%
%ADD116R,0.08280X0.08280*%
%ADD117R,0.22453X0.09265*%
%ADD118R,0.05800X0.03300*%
%ADD119R,0.10800X0.11312*%
%ADD120R,0.08674X0.16548*%
%ADD121C,0.01500*%
%ADD122C,0.00787*%
%ADD123C,0.01575*%
%ADD124C,0.00984*%
%ADD125C,0.02362*%
%ADD126C,0.00492*%
%ADD127C,0.00200*%
%ADD128C,0.00394*%
%ADD129C,0.01181*%
%ADD130C,0.00800*%
%ADD131R,0.09449X0.03543*%
G36*
X412532Y6613D02*
X411587D01*
Y14301D01*
X412532D01*
Y6613D01*
D02*
G37*
G36*
X456550Y13567D02*
Y12190D01*
X457250D01*
Y11457D01*
X456550D01*
Y8235D01*
Y8079D01*
Y7946D01*
X456539Y7824D01*
X456528Y7701D01*
Y7601D01*
X456516Y7513D01*
X456494Y7368D01*
X456472Y7257D01*
X456461Y7179D01*
X456439Y7135D01*
Y7124D01*
X456394Y7024D01*
X456327Y6946D01*
X456261Y6868D01*
X456205Y6813D01*
X456139Y6757D01*
X456094Y6724D01*
X456061Y6701D01*
X456050Y6690D01*
X455928Y6635D01*
X455805Y6602D01*
X455672Y6568D01*
X455539Y6557D01*
X455428Y6546D01*
X455339Y6535D01*
X455250D01*
X455005Y6546D01*
X454883Y6557D01*
X454772Y6579D01*
X454672Y6590D01*
X454594Y6602D01*
X454550Y6613D01*
X454528D01*
X454650Y7446D01*
X454739Y7435D01*
X454828Y7424D01*
X454905D01*
X454961Y7413D01*
X455072D01*
X455217Y7424D01*
X455316Y7446D01*
X455372Y7468D01*
X455394Y7479D01*
X455472Y7535D01*
X455516Y7590D01*
X455550Y7635D01*
X455561Y7657D01*
X455572Y7713D01*
X455583Y7790D01*
X455594Y7968D01*
X455605Y8046D01*
Y8112D01*
Y8157D01*
Y8179D01*
Y11457D01*
X454650D01*
Y12190D01*
X455605D01*
Y14134D01*
X456550Y13567D01*
D02*
G37*
G36*
X459538D02*
Y12190D01*
X460238D01*
Y11457D01*
X459538D01*
Y8235D01*
Y8079D01*
Y7946D01*
X459527Y7824D01*
X459516Y7701D01*
Y7601D01*
X459505Y7513D01*
X459483Y7368D01*
X459460Y7257D01*
X459449Y7179D01*
X459427Y7135D01*
Y7124D01*
X459383Y7024D01*
X459316Y6946D01*
X459249Y6868D01*
X459194Y6813D01*
X459127Y6757D01*
X459083Y6724D01*
X459049Y6701D01*
X459038Y6690D01*
X458916Y6635D01*
X458794Y6602D01*
X458661Y6568D01*
X458527Y6557D01*
X458416Y6546D01*
X458327Y6535D01*
X458238D01*
X457994Y6546D01*
X457872Y6557D01*
X457761Y6579D01*
X457661Y6590D01*
X457583Y6602D01*
X457539Y6613D01*
X457516D01*
X457639Y7446D01*
X457727Y7435D01*
X457816Y7424D01*
X457894D01*
X457949Y7413D01*
X458061D01*
X458205Y7424D01*
X458305Y7446D01*
X458361Y7468D01*
X458383Y7479D01*
X458461Y7535D01*
X458505Y7590D01*
X458538Y7635D01*
X458549Y7657D01*
X458561Y7713D01*
X458572Y7790D01*
X458583Y7968D01*
X458594Y8046D01*
Y8112D01*
Y8157D01*
Y8179D01*
Y11457D01*
X457639D01*
Y12190D01*
X458594D01*
Y14134D01*
X459538Y13567D01*
D02*
G37*
G36*
X419998Y12301D02*
X420198Y12279D01*
X420387Y12245D01*
X420564Y12190D01*
X420731Y12134D01*
X420887Y12068D01*
X421031Y12001D01*
X421153Y11923D01*
X421275Y11857D01*
X421375Y11779D01*
X421464Y11712D01*
X421531Y11657D01*
X421587Y11601D01*
X421631Y11568D01*
X421653Y11546D01*
X421664Y11534D01*
X421786Y11379D01*
X421898Y11212D01*
X421998Y11046D01*
X422086Y10868D01*
X422153Y10679D01*
X422209Y10501D01*
X422297Y10146D01*
X422331Y9990D01*
X422353Y9835D01*
X422364Y9701D01*
X422375Y9579D01*
X422386Y9479D01*
Y9412D01*
Y9357D01*
Y9346D01*
X422375Y9101D01*
X422353Y8868D01*
X422320Y8646D01*
X422275Y8446D01*
X422220Y8257D01*
X422164Y8079D01*
X422098Y7924D01*
X422031Y7779D01*
X421964Y7657D01*
X421898Y7546D01*
X421842Y7457D01*
X421786Y7379D01*
X421742Y7313D01*
X421709Y7268D01*
X421687Y7246D01*
X421675Y7235D01*
X421531Y7102D01*
X421386Y6990D01*
X421231Y6890D01*
X421064Y6802D01*
X420909Y6735D01*
X420742Y6668D01*
X420431Y6579D01*
X420287Y6557D01*
X420153Y6535D01*
X420031Y6513D01*
X419931Y6502D01*
X419853Y6490D01*
X419731D01*
X419387Y6513D01*
X419076Y6568D01*
X418798Y6635D01*
X418687Y6679D01*
X418576Y6724D01*
X418476Y6768D01*
X418387Y6813D01*
X418320Y6846D01*
X418254Y6879D01*
X418209Y6913D01*
X418176Y6935D01*
X418153Y6957D01*
X418142D01*
X417920Y7157D01*
X417742Y7368D01*
X417587Y7590D01*
X417476Y7801D01*
X417387Y7990D01*
X417354Y8079D01*
X417320Y8146D01*
X417298Y8213D01*
X417287Y8257D01*
X417276Y8279D01*
Y8290D01*
X418254Y8412D01*
X418342Y8201D01*
X418442Y8024D01*
X418542Y7868D01*
X418631Y7746D01*
X418709Y7657D01*
X418776Y7590D01*
X418831Y7546D01*
X418842Y7535D01*
X418987Y7446D01*
X419131Y7379D01*
X419287Y7335D01*
X419420Y7301D01*
X419542Y7279D01*
X419642Y7268D01*
X419731D01*
X419865Y7279D01*
X419987Y7290D01*
X420209Y7346D01*
X420409Y7424D01*
X420587Y7513D01*
X420720Y7590D01*
X420820Y7668D01*
X420887Y7724D01*
X420898Y7746D01*
X420909D01*
X421064Y7946D01*
X421186Y8168D01*
X421275Y8412D01*
X421342Y8635D01*
X421375Y8835D01*
X421398Y8924D01*
X421409Y9001D01*
Y9068D01*
X421420Y9112D01*
Y9146D01*
Y9157D01*
X417254D01*
X417242Y9268D01*
Y9346D01*
Y9390D01*
Y9401D01*
X417254Y9657D01*
X417276Y9890D01*
X417309Y10112D01*
X417354Y10323D01*
X417409Y10512D01*
X417465Y10690D01*
X417531Y10846D01*
X417598Y10990D01*
X417665Y11123D01*
X417731Y11234D01*
X417787Y11323D01*
X417842Y11401D01*
X417887Y11468D01*
X417920Y11512D01*
X417942Y11534D01*
X417953Y11546D01*
X418087Y11679D01*
X418231Y11801D01*
X418387Y11901D01*
X418542Y11990D01*
X418698Y12068D01*
X418842Y12123D01*
X418998Y12179D01*
X419131Y12212D01*
X419276Y12245D01*
X419398Y12268D01*
X419509Y12290D01*
X419598Y12301D01*
X419676Y12312D01*
X419787D01*
X419998Y12301D01*
D02*
G37*
G36*
X472759Y6613D02*
X469826D01*
X469559Y6624D01*
X469326Y6635D01*
X469115Y6657D01*
X468937Y6679D01*
X468793Y6701D01*
X468682Y6713D01*
X468615Y6735D01*
X468593D01*
X468404Y6790D01*
X468249Y6846D01*
X468104Y6913D01*
X467982Y6979D01*
X467882Y7024D01*
X467804Y7068D01*
X467760Y7102D01*
X467749Y7113D01*
X467626Y7213D01*
X467515Y7335D01*
X467426Y7457D01*
X467338Y7568D01*
X467271Y7679D01*
X467226Y7757D01*
X467193Y7812D01*
X467182Y7835D01*
X467104Y8012D01*
X467049Y8190D01*
X467004Y8357D01*
X466982Y8512D01*
X466960Y8646D01*
X466949Y8757D01*
Y8824D01*
Y8835D01*
Y8846D01*
X466960Y9090D01*
X467004Y9312D01*
X467071Y9501D01*
X467137Y9679D01*
X467204Y9812D01*
X467271Y9912D01*
X467315Y9979D01*
X467326Y10001D01*
X467482Y10179D01*
X467649Y10323D01*
X467837Y10446D01*
X468004Y10546D01*
X468160Y10623D01*
X468293Y10668D01*
X468337Y10690D01*
X468371Y10701D01*
X468393Y10712D01*
X468404D01*
X468215Y10823D01*
X468048Y10934D01*
X467915Y11057D01*
X467804Y11168D01*
X467715Y11257D01*
X467649Y11345D01*
X467615Y11390D01*
X467604Y11412D01*
X467515Y11579D01*
X467449Y11734D01*
X467393Y11890D01*
X467360Y12034D01*
X467338Y12157D01*
X467326Y12257D01*
Y12312D01*
Y12334D01*
X467338Y12523D01*
X467371Y12712D01*
X467426Y12879D01*
X467482Y13034D01*
X467537Y13168D01*
X467593Y13256D01*
X467626Y13323D01*
X467637Y13345D01*
X467760Y13512D01*
X467893Y13668D01*
X468037Y13790D01*
X468171Y13890D01*
X468282Y13968D01*
X468382Y14023D01*
X468448Y14056D01*
X468460Y14067D01*
X468471D01*
X468682Y14145D01*
X468915Y14201D01*
X469148Y14245D01*
X469371Y14267D01*
X469571Y14290D01*
X469660D01*
X469737Y14301D01*
X472759D01*
Y6613D01*
D02*
G37*
G36*
X414165Y12301D02*
X414276Y12279D01*
X414387Y12245D01*
X414476Y12212D01*
X414543Y12179D01*
X414609Y12145D01*
X414643Y12123D01*
X414654Y12112D01*
X414754Y12023D01*
X414854Y11912D01*
X414954Y11779D01*
X415043Y11657D01*
X415132Y11534D01*
X415187Y11434D01*
X415232Y11357D01*
X415243Y11345D01*
Y12190D01*
X416098D01*
Y6613D01*
X415154D01*
Y9523D01*
X415143Y9746D01*
X415132Y9946D01*
X415109Y10135D01*
X415076Y10301D01*
X415043Y10435D01*
X415021Y10535D01*
X415009Y10601D01*
X414998Y10623D01*
X414954Y10746D01*
X414898Y10846D01*
X414843Y10934D01*
X414787Y11012D01*
X414732Y11068D01*
X414698Y11112D01*
X414665Y11134D01*
X414654Y11146D01*
X414565Y11212D01*
X414465Y11257D01*
X414365Y11290D01*
X414287Y11312D01*
X414210Y11323D01*
X414154Y11334D01*
X414098D01*
X413976Y11323D01*
X413854Y11301D01*
X413732Y11268D01*
X413632Y11234D01*
X413543Y11201D01*
X413476Y11168D01*
X413432Y11146D01*
X413421Y11134D01*
X413076Y12001D01*
X413265Y12101D01*
X413443Y12179D01*
X413598Y12234D01*
X413743Y12279D01*
X413865Y12301D01*
X413965Y12312D01*
X414043D01*
X414165Y12301D01*
D02*
G37*
G36*
X463604D02*
X463782Y12290D01*
X464127Y12212D01*
X464427Y12112D01*
X464560Y12057D01*
X464682Y12001D01*
X464793Y11946D01*
X464882Y11890D01*
X464971Y11834D01*
X465038Y11790D01*
X465093Y11745D01*
X465138Y11712D01*
X465160Y11701D01*
X465171Y11690D01*
X465327Y11546D01*
X465449Y11379D01*
X465571Y11201D01*
X465660Y11023D01*
X465749Y10835D01*
X465815Y10634D01*
X465871Y10446D01*
X465915Y10268D01*
X465960Y10090D01*
X465982Y9935D01*
X466004Y9779D01*
X466015Y9657D01*
Y9546D01*
X466026Y9468D01*
Y9424D01*
Y9401D01*
X466015Y9146D01*
X465993Y8901D01*
X465960Y8679D01*
X465915Y8468D01*
X465860Y8279D01*
X465804Y8101D01*
X465738Y7935D01*
X465671Y7790D01*
X465604Y7657D01*
X465538Y7546D01*
X465482Y7457D01*
X465427Y7379D01*
X465382Y7313D01*
X465349Y7268D01*
X465327Y7246D01*
X465315Y7235D01*
X465171Y7102D01*
X465027Y6990D01*
X464871Y6890D01*
X464715Y6802D01*
X464560Y6735D01*
X464393Y6668D01*
X464093Y6579D01*
X463960Y6557D01*
X463827Y6535D01*
X463716Y6513D01*
X463616Y6502D01*
X463527Y6490D01*
X463416D01*
X463149Y6502D01*
X462905Y6546D01*
X462671Y6602D01*
X462482Y6657D01*
X462316Y6724D01*
X462249Y6746D01*
X462194Y6768D01*
X462138Y6790D01*
X462105Y6813D01*
X462094Y6824D01*
X462082D01*
X461860Y6968D01*
X461671Y7124D01*
X461505Y7279D01*
X461371Y7435D01*
X461271Y7568D01*
X461194Y7679D01*
X461171Y7724D01*
X461149Y7757D01*
X461138Y7768D01*
Y7779D01*
X461027Y8035D01*
X460949Y8313D01*
X460883Y8590D01*
X460849Y8868D01*
X460827Y8990D01*
Y9101D01*
X460816Y9212D01*
X460805Y9301D01*
Y9379D01*
Y9435D01*
Y9468D01*
Y9479D01*
X460816Y9724D01*
X460838Y9946D01*
X460872Y10157D01*
X460916Y10357D01*
X460971Y10546D01*
X461038Y10712D01*
X461105Y10879D01*
X461171Y11012D01*
X461238Y11134D01*
X461305Y11246D01*
X461371Y11345D01*
X461427Y11423D01*
X461471Y11479D01*
X461505Y11523D01*
X461527Y11546D01*
X461538Y11557D01*
X461683Y11690D01*
X461827Y11801D01*
X461982Y11912D01*
X462138Y11990D01*
X462293Y12068D01*
X462449Y12123D01*
X462749Y12223D01*
X462893Y12245D01*
X463016Y12268D01*
X463127Y12290D01*
X463227Y12301D01*
X463305Y12312D01*
X463416D01*
X463604Y12301D01*
D02*
G37*
G36*
X408032D02*
X408266Y12279D01*
X408488Y12245D01*
X408666Y12212D01*
X408821Y12179D01*
X408932Y12145D01*
X408977Y12134D01*
X409010Y12123D01*
X409021Y12112D01*
X409032D01*
X409221Y12034D01*
X409388Y11934D01*
X409532Y11846D01*
X409654Y11757D01*
X409743Y11668D01*
X409810Y11601D01*
X409854Y11557D01*
X409866Y11546D01*
X409965Y11401D01*
X410054Y11246D01*
X410121Y11090D01*
X410177Y10946D01*
X410221Y10801D01*
X410254Y10701D01*
X410265Y10657D01*
Y10623D01*
X410277Y10612D01*
Y10601D01*
X409354Y10479D01*
X409288Y10679D01*
X409221Y10857D01*
X409143Y11001D01*
X409077Y11112D01*
X409010Y11201D01*
X408954Y11257D01*
X408910Y11290D01*
X408899Y11301D01*
X408766Y11379D01*
X408610Y11434D01*
X408443Y11479D01*
X408288Y11501D01*
X408132Y11523D01*
X408021Y11534D01*
X407910D01*
X407655Y11523D01*
X407432Y11490D01*
X407255Y11434D01*
X407099Y11379D01*
X406988Y11312D01*
X406899Y11268D01*
X406844Y11223D01*
X406832Y11212D01*
X406744Y11112D01*
X406677Y10990D01*
X406621Y10857D01*
X406588Y10723D01*
X406566Y10601D01*
X406555Y10490D01*
Y10423D01*
Y10412D01*
Y10401D01*
Y10379D01*
Y10334D01*
Y10257D01*
X406566Y10190D01*
Y10168D01*
Y10157D01*
X406677Y10123D01*
X406799Y10090D01*
X407055Y10023D01*
X407343Y9968D01*
X407610Y9912D01*
X407743Y9890D01*
X407866Y9879D01*
X407977Y9857D01*
X408066Y9846D01*
X408143Y9835D01*
X408199D01*
X408243Y9823D01*
X408254D01*
X408455Y9801D01*
X408621Y9768D01*
X408766Y9746D01*
X408877Y9724D01*
X408965Y9712D01*
X409032Y9690D01*
X409077Y9679D01*
X409088D01*
X409232Y9635D01*
X409354Y9590D01*
X409477Y9535D01*
X409577Y9490D01*
X409665Y9446D01*
X409721Y9401D01*
X409765Y9379D01*
X409777Y9368D01*
X409888Y9290D01*
X409977Y9201D01*
X410065Y9112D01*
X410132Y9024D01*
X410188Y8946D01*
X410232Y8879D01*
X410254Y8835D01*
X410265Y8824D01*
X410321Y8701D01*
X410365Y8568D01*
X410399Y8446D01*
X410421Y8324D01*
X410432Y8224D01*
X410443Y8146D01*
Y8101D01*
Y8079D01*
X410432Y7946D01*
X410421Y7835D01*
X410365Y7601D01*
X410288Y7413D01*
X410199Y7246D01*
X410110Y7113D01*
X410032Y7013D01*
X409977Y6957D01*
X409954Y6935D01*
X409754Y6790D01*
X409532Y6679D01*
X409288Y6602D01*
X409065Y6546D01*
X408866Y6513D01*
X408777Y6502D01*
X408699D01*
X408632Y6490D01*
X408543D01*
X408343Y6502D01*
X408143Y6524D01*
X407966Y6546D01*
X407810Y6579D01*
X407688Y6613D01*
X407588Y6646D01*
X407521Y6657D01*
X407499Y6668D01*
X407310Y6746D01*
X407132Y6846D01*
X406966Y6957D01*
X406799Y7057D01*
X406666Y7157D01*
X406566Y7235D01*
X406499Y7290D01*
X406488Y7313D01*
X406477D01*
X406455Y7168D01*
X406432Y7035D01*
X406410Y6913D01*
X406377Y6813D01*
X406344Y6724D01*
X406321Y6668D01*
X406310Y6624D01*
X406299Y6613D01*
X405310D01*
X405366Y6735D01*
X405421Y6857D01*
X405466Y6968D01*
X405488Y7068D01*
X405521Y7157D01*
X405533Y7224D01*
X405544Y7268D01*
Y7279D01*
X405555Y7357D01*
X405566Y7457D01*
Y7568D01*
X405577Y7690D01*
X405588Y7968D01*
Y8246D01*
X405599Y8512D01*
Y8635D01*
Y8735D01*
Y8824D01*
Y8890D01*
Y8935D01*
Y8946D01*
Y10212D01*
Y10423D01*
X405610Y10612D01*
X405621Y10757D01*
Y10879D01*
X405632Y10968D01*
X405644Y11034D01*
X405655Y11068D01*
Y11079D01*
X405688Y11223D01*
X405732Y11345D01*
X405777Y11445D01*
X405832Y11546D01*
X405877Y11612D01*
X405910Y11668D01*
X405933Y11701D01*
X405944Y11712D01*
X406033Y11801D01*
X406133Y11890D01*
X406244Y11957D01*
X406355Y12023D01*
X406455Y12068D01*
X406532Y12101D01*
X406588Y12123D01*
X406610Y12134D01*
X406788Y12190D01*
X406977Y12234D01*
X407166Y12268D01*
X407355Y12290D01*
X407521Y12301D01*
X407644Y12312D01*
X407766D01*
X408032Y12301D01*
D02*
G37*
G36*
X432608Y14423D02*
X432885Y14390D01*
X433152Y14334D01*
X433407Y14267D01*
X433641Y14179D01*
X433863Y14090D01*
X434063Y13990D01*
X434241Y13890D01*
X434407Y13790D01*
X434552Y13690D01*
X434674Y13601D01*
X434774Y13512D01*
X434852Y13445D01*
X434918Y13390D01*
X434952Y13356D01*
X434963Y13345D01*
X435141Y13134D01*
X435296Y12912D01*
X435441Y12668D01*
X435552Y12423D01*
X435652Y12168D01*
X435741Y11923D01*
X435807Y11679D01*
X435852Y11445D01*
X435896Y11223D01*
X435929Y11012D01*
X435952Y10823D01*
X435974Y10668D01*
Y10535D01*
X435985Y10435D01*
Y10368D01*
Y10357D01*
Y10346D01*
X435963Y9968D01*
X435918Y9623D01*
X435852Y9290D01*
X435807Y9146D01*
X435763Y9001D01*
X435730Y8879D01*
X435685Y8768D01*
X435652Y8668D01*
X435618Y8579D01*
X435596Y8512D01*
X435574Y8468D01*
X435552Y8435D01*
Y8424D01*
X435363Y8101D01*
X435163Y7824D01*
X434941Y7579D01*
X434730Y7379D01*
X434541Y7213D01*
X434463Y7146D01*
X434396Y7102D01*
X434330Y7057D01*
X434285Y7024D01*
X434263Y7013D01*
X434252Y7001D01*
X434085Y6913D01*
X433919Y6835D01*
X433585Y6701D01*
X433263Y6613D01*
X432963Y6546D01*
X432819Y6524D01*
X432696Y6513D01*
X432585Y6490D01*
X432485D01*
X432419Y6479D01*
X432308D01*
X431941Y6502D01*
X431597Y6557D01*
X431274Y6624D01*
X431130Y6668D01*
X430997Y6713D01*
X430874Y6757D01*
X430763Y6802D01*
X430675Y6835D01*
X430597Y6868D01*
X430530Y6901D01*
X430475Y6924D01*
X430452Y6946D01*
X430441D01*
X430130Y7146D01*
X429864Y7368D01*
X429641Y7601D01*
X429452Y7824D01*
X429297Y8035D01*
X429241Y8112D01*
X429197Y8190D01*
X429152Y8257D01*
X429130Y8301D01*
X429108Y8335D01*
Y8346D01*
X429019Y8524D01*
X428952Y8701D01*
X428830Y9057D01*
X428741Y9412D01*
X428686Y9735D01*
X428675Y9879D01*
X428652Y10012D01*
X428641Y10135D01*
Y10234D01*
X428630Y10323D01*
Y10379D01*
Y10423D01*
Y10435D01*
X428652Y10857D01*
X428697Y11246D01*
X428730Y11423D01*
X428775Y11601D01*
X428819Y11757D01*
X428853Y11901D01*
X428897Y12034D01*
X428941Y12157D01*
X428975Y12257D01*
X429019Y12345D01*
X429041Y12412D01*
X429064Y12456D01*
X429086Y12490D01*
Y12501D01*
X429263Y12823D01*
X429475Y13112D01*
X429697Y13356D01*
X429897Y13556D01*
X430086Y13712D01*
X430174Y13779D01*
X430241Y13834D01*
X430308Y13868D01*
X430352Y13901D01*
X430374Y13912D01*
X430386Y13923D01*
X430552Y14012D01*
X430719Y14090D01*
X431041Y14223D01*
X431374Y14312D01*
X431663Y14367D01*
X431797Y14390D01*
X431930Y14412D01*
X432030Y14423D01*
X432130D01*
X432208Y14434D01*
X432308D01*
X432608Y14423D01*
D02*
G37*
G36*
X445417Y12301D02*
X445606Y12268D01*
X445773Y12234D01*
X445917Y12190D01*
X446040Y12134D01*
X446129Y12101D01*
X446184Y12068D01*
X446206Y12057D01*
X446362Y11957D01*
X446495Y11846D01*
X446617Y11734D01*
X446717Y11623D01*
X446795Y11534D01*
X446862Y11457D01*
X446895Y11412D01*
X446906Y11390D01*
Y12190D01*
X447751D01*
Y6613D01*
X446806D01*
Y9501D01*
X446795Y9768D01*
X446784Y10001D01*
X446762Y10201D01*
X446728Y10368D01*
X446695Y10490D01*
X446673Y10579D01*
X446662Y10634D01*
X446651Y10657D01*
X446584Y10801D01*
X446506Y10923D01*
X446428Y11034D01*
X446351Y11123D01*
X446273Y11190D01*
X446217Y11234D01*
X446173Y11268D01*
X446162Y11279D01*
X446029Y11345D01*
X445906Y11401D01*
X445773Y11434D01*
X445662Y11468D01*
X445573Y11479D01*
X445495Y11490D01*
X445429D01*
X445240Y11479D01*
X445084Y11445D01*
X444951Y11390D01*
X444851Y11334D01*
X444773Y11268D01*
X444718Y11223D01*
X444684Y11179D01*
X444673Y11168D01*
X444595Y11034D01*
X444540Y10890D01*
X444495Y10734D01*
X444473Y10579D01*
X444451Y10446D01*
X444440Y10323D01*
Y10279D01*
Y10257D01*
Y10234D01*
Y10223D01*
Y6613D01*
X443495D01*
Y9846D01*
X443473Y10146D01*
X443429Y10401D01*
X443373Y10612D01*
X443295Y10790D01*
X443229Y10923D01*
X443162Y11012D01*
X443118Y11068D01*
X443107Y11090D01*
X442951Y11223D01*
X442784Y11323D01*
X442618Y11390D01*
X442462Y11445D01*
X442329Y11468D01*
X442218Y11479D01*
X442173Y11490D01*
X442118D01*
X441996Y11479D01*
X441896Y11468D01*
X441796Y11445D01*
X441718Y11412D01*
X441640Y11379D01*
X441596Y11357D01*
X441562Y11345D01*
X441551Y11334D01*
X441462Y11268D01*
X441396Y11201D01*
X441340Y11134D01*
X441296Y11068D01*
X441262Y11012D01*
X441240Y10968D01*
X441218Y10934D01*
Y10923D01*
X441185Y10823D01*
X441162Y10690D01*
X441151Y10557D01*
X441140Y10423D01*
X441129Y10301D01*
Y10201D01*
Y10135D01*
Y10123D01*
Y10112D01*
Y6613D01*
X440185D01*
Y10435D01*
Y10612D01*
X440207Y10768D01*
X440229Y10923D01*
X440251Y11057D01*
X440285Y11190D01*
X440329Y11301D01*
X440362Y11401D01*
X440407Y11501D01*
X440451Y11579D01*
X440485Y11657D01*
X440562Y11757D01*
X440607Y11823D01*
X440629Y11846D01*
X440807Y12001D01*
X441018Y12112D01*
X441229Y12201D01*
X441429Y12257D01*
X441618Y12290D01*
X441696Y12301D01*
X441773D01*
X441829Y12312D01*
X441907D01*
X442107Y12301D01*
X442284Y12268D01*
X442462Y12223D01*
X442629Y12157D01*
X442784Y12079D01*
X442929Y12001D01*
X443051Y11912D01*
X443173Y11823D01*
X443284Y11723D01*
X443373Y11634D01*
X443451Y11557D01*
X443518Y11479D01*
X443573Y11412D01*
X443607Y11368D01*
X443629Y11334D01*
X443640Y11323D01*
X443707Y11490D01*
X443795Y11634D01*
X443895Y11757D01*
X443984Y11857D01*
X444073Y11946D01*
X444140Y12001D01*
X444184Y12034D01*
X444206Y12045D01*
X444362Y12134D01*
X444529Y12201D01*
X444695Y12245D01*
X444862Y12279D01*
X444995Y12301D01*
X445118Y12312D01*
X445218D01*
X445417Y12301D01*
D02*
G37*
G36*
X402577Y6613D02*
X402622Y6513D01*
X402644Y6435D01*
X402666Y6391D01*
Y6379D01*
X402733Y6191D01*
X402800Y6035D01*
X402844Y5902D01*
X402888Y5813D01*
X402911Y5746D01*
X402933Y5702D01*
X402955Y5679D01*
Y5668D01*
X403044Y5546D01*
X403144Y5457D01*
X403188Y5424D01*
X403222Y5402D01*
X403244Y5379D01*
X403255D01*
X403333Y5346D01*
X403411Y5313D01*
X403577Y5280D01*
X403644D01*
X403699Y5268D01*
X403755D01*
X403933Y5280D01*
X404110Y5313D01*
X404177Y5335D01*
X404233Y5346D01*
X404277Y5357D01*
X404288D01*
X404188Y4479D01*
X404066Y4435D01*
X403955Y4413D01*
X403855Y4391D01*
X403766Y4368D01*
X403688D01*
X403633Y4357D01*
X403588D01*
X403422Y4368D01*
X403277Y4391D01*
X403144Y4424D01*
X403033Y4468D01*
X402933Y4513D01*
X402866Y4546D01*
X402822Y4568D01*
X402811Y4580D01*
X402688Y4668D01*
X402588Y4780D01*
X402488Y4891D01*
X402399Y5002D01*
X402333Y5102D01*
X402277Y5179D01*
X402244Y5235D01*
X402233Y5257D01*
X402200Y5335D01*
X402155Y5413D01*
X402066Y5602D01*
X401977Y5813D01*
X401900Y6024D01*
X401822Y6213D01*
X401789Y6302D01*
X401755Y6379D01*
X401733Y6435D01*
X401711Y6479D01*
X401700Y6513D01*
Y6524D01*
X399578Y12190D01*
X400522D01*
X401722Y8935D01*
X401811Y8701D01*
X401877Y8479D01*
X401955Y8257D01*
X402011Y8068D01*
X402055Y7901D01*
X402077Y7835D01*
X402088Y7779D01*
X402100Y7735D01*
X402111Y7701D01*
X402122Y7679D01*
Y7668D01*
X402188Y7924D01*
X402255Y8157D01*
X402322Y8379D01*
X402388Y8568D01*
X402444Y8724D01*
X402466Y8790D01*
X402488Y8846D01*
X402499Y8901D01*
X402511Y8935D01*
X402522Y8946D01*
Y8957D01*
X403688Y12190D01*
X404688D01*
X402577Y6613D01*
D02*
G37*
G36*
X425931D02*
X425031D01*
X422909Y12190D01*
X423886D01*
X425119Y8779D01*
X425197Y8557D01*
X425275Y8357D01*
X425331Y8168D01*
X425386Y8024D01*
X425420Y7890D01*
X425453Y7801D01*
X425464Y7746D01*
X425475Y7724D01*
X425542Y7935D01*
X425597Y8146D01*
X425664Y8335D01*
X425719Y8501D01*
X425764Y8646D01*
X425797Y8757D01*
X425808Y8790D01*
X425819Y8824D01*
X425831Y8835D01*
Y8846D01*
X427030Y12190D01*
X428030D01*
X425931Y6613D01*
D02*
G37*
G36*
X451650Y12301D02*
X451828Y12290D01*
X452172Y12212D01*
X452472Y12112D01*
X452606Y12057D01*
X452728Y12001D01*
X452839Y11946D01*
X452928Y11890D01*
X453017Y11834D01*
X453083Y11790D01*
X453139Y11745D01*
X453183Y11712D01*
X453206Y11701D01*
X453217Y11690D01*
X453372Y11546D01*
X453494Y11379D01*
X453617Y11201D01*
X453706Y11023D01*
X453794Y10835D01*
X453861Y10634D01*
X453917Y10446D01*
X453961Y10268D01*
X454005Y10090D01*
X454028Y9935D01*
X454050Y9779D01*
X454061Y9657D01*
Y9546D01*
X454072Y9468D01*
Y9424D01*
Y9401D01*
X454061Y9146D01*
X454039Y8901D01*
X454005Y8679D01*
X453961Y8468D01*
X453905Y8279D01*
X453850Y8101D01*
X453783Y7935D01*
X453717Y7790D01*
X453650Y7657D01*
X453583Y7546D01*
X453528Y7457D01*
X453472Y7379D01*
X453428Y7313D01*
X453394Y7268D01*
X453372Y7246D01*
X453361Y7235D01*
X453217Y7102D01*
X453072Y6990D01*
X452917Y6890D01*
X452761Y6802D01*
X452606Y6735D01*
X452439Y6668D01*
X452139Y6579D01*
X452006Y6557D01*
X451872Y6535D01*
X451761Y6513D01*
X451661Y6502D01*
X451572Y6490D01*
X451461D01*
X451195Y6502D01*
X450950Y6546D01*
X450717Y6602D01*
X450528Y6657D01*
X450361Y6724D01*
X450295Y6746D01*
X450239Y6768D01*
X450184Y6790D01*
X450150Y6813D01*
X450139Y6824D01*
X450128D01*
X449906Y6968D01*
X449717Y7124D01*
X449550Y7279D01*
X449417Y7435D01*
X449317Y7568D01*
X449239Y7679D01*
X449217Y7724D01*
X449195Y7757D01*
X449184Y7768D01*
Y7779D01*
X449073Y8035D01*
X448995Y8313D01*
X448928Y8590D01*
X448895Y8868D01*
X448873Y8990D01*
Y9101D01*
X448862Y9212D01*
X448850Y9301D01*
Y9379D01*
Y9435D01*
Y9468D01*
Y9479D01*
X448862Y9724D01*
X448884Y9946D01*
X448917Y10157D01*
X448961Y10357D01*
X449017Y10546D01*
X449084Y10712D01*
X449150Y10879D01*
X449217Y11012D01*
X449284Y11134D01*
X449350Y11246D01*
X449417Y11345D01*
X449473Y11423D01*
X449517Y11479D01*
X449550Y11523D01*
X449573Y11546D01*
X449584Y11557D01*
X449728Y11690D01*
X449873Y11801D01*
X450028Y11912D01*
X450184Y11990D01*
X450339Y12068D01*
X450495Y12123D01*
X450795Y12223D01*
X450939Y12245D01*
X451061Y12268D01*
X451172Y12290D01*
X451272Y12301D01*
X451350Y12312D01*
X451461D01*
X451650Y12301D01*
D02*
G37*
%LPC*%
G36*
X406566Y9412D02*
X406555D01*
X406566Y9057D01*
X406577Y8835D01*
X406588Y8646D01*
X406610Y8490D01*
X406644Y8357D01*
X406677Y8257D01*
X406699Y8179D01*
X406710Y8135D01*
X406721Y8124D01*
X406810Y7979D01*
X406899Y7846D01*
X407010Y7735D01*
X407110Y7646D01*
X407199Y7568D01*
X407277Y7513D01*
X407321Y7479D01*
X407343Y7468D01*
X407510Y7390D01*
X407677Y7335D01*
X407832Y7290D01*
X407988Y7268D01*
X408110Y7246D01*
X408221Y7235D01*
X408310D01*
X408510Y7246D01*
X408677Y7268D01*
X408821Y7313D01*
X408943Y7357D01*
X409032Y7401D01*
X409099Y7446D01*
X409143Y7468D01*
X409154Y7479D01*
X409243Y7579D01*
X409310Y7690D01*
X409366Y7790D01*
X409399Y7890D01*
X409421Y7979D01*
X409432Y8046D01*
Y8101D01*
Y8112D01*
X409421Y8201D01*
X409410Y8290D01*
X409388Y8357D01*
X409366Y8424D01*
X409343Y8479D01*
X409332Y8524D01*
X409310Y8546D01*
Y8557D01*
X409199Y8690D01*
X409065Y8779D01*
X409021Y8812D01*
X408977Y8835D01*
X408943Y8857D01*
X408932D01*
X408821Y8901D01*
X408699Y8935D01*
X408566Y8968D01*
X408432Y8990D01*
X408310Y9012D01*
X408199Y9035D01*
X408132Y9046D01*
X408110D01*
X407921Y9079D01*
X407743Y9101D01*
X407588Y9135D01*
X407432Y9168D01*
X407288Y9201D01*
X407166Y9235D01*
X407044Y9257D01*
X406944Y9290D01*
X406855Y9312D01*
X406777Y9335D01*
X406710Y9357D01*
X406655Y9379D01*
X406610Y9390D01*
X406577Y9401D01*
X406566Y9412D01*
D02*
G37*
G36*
X471737Y10168D02*
X469715D01*
X469482Y10146D01*
X469293Y10123D01*
X469137Y10101D01*
X469015Y10079D01*
X468915Y10057D01*
X468871Y10046D01*
X468848Y10035D01*
X468704Y9979D01*
X468582Y9912D01*
X468471Y9835D01*
X468382Y9757D01*
X468315Y9690D01*
X468271Y9635D01*
X468237Y9590D01*
X468226Y9579D01*
X468149Y9457D01*
X468093Y9335D01*
X468048Y9212D01*
X468026Y9101D01*
X468004Y9001D01*
X467993Y8912D01*
Y8868D01*
Y8846D01*
X468004Y8712D01*
X468015Y8579D01*
X468037Y8468D01*
X468071Y8379D01*
X468104Y8301D01*
X468126Y8235D01*
X468137Y8201D01*
X468149Y8190D01*
X468215Y8090D01*
X468271Y8001D01*
X468349Y7935D01*
X468404Y7868D01*
X468460Y7824D01*
X468504Y7790D01*
X468537Y7768D01*
X468548Y7757D01*
X468737Y7668D01*
X468926Y7601D01*
X469004Y7579D01*
X469071Y7568D01*
X469115Y7557D01*
X469126D01*
X469215Y7546D01*
X469315Y7535D01*
X469548Y7524D01*
X471737D01*
Y10168D01*
D02*
G37*
G36*
X419842Y11534D02*
X419776D01*
X419642Y11523D01*
X419520Y11512D01*
X419287Y11445D01*
X419087Y11357D01*
X418920Y11257D01*
X418787Y11157D01*
X418687Y11068D01*
X418631Y11001D01*
X418609Y10990D01*
Y10979D01*
X418509Y10835D01*
X418420Y10668D01*
X418365Y10501D01*
X418309Y10323D01*
X418276Y10179D01*
X418254Y10046D01*
Y10001D01*
X418242Y9968D01*
Y9946D01*
Y9935D01*
X421364D01*
X421331Y10190D01*
X421264Y10423D01*
X421186Y10623D01*
X421098Y10779D01*
X421020Y10912D01*
X420942Y11012D01*
X420898Y11068D01*
X420876Y11090D01*
X420698Y11234D01*
X420520Y11345D01*
X420331Y11423D01*
X420153Y11479D01*
X420009Y11512D01*
X419887Y11523D01*
X419842Y11534D01*
D02*
G37*
G36*
X471737Y13390D02*
X469915D01*
X469671Y13367D01*
X469482Y13356D01*
X469315Y13334D01*
X469193Y13312D01*
X469115Y13301D01*
X469060Y13279D01*
X469048D01*
X468926Y13234D01*
X468815Y13168D01*
X468726Y13101D01*
X468648Y13034D01*
X468593Y12979D01*
X468548Y12923D01*
X468526Y12890D01*
X468515Y12879D01*
X468448Y12768D01*
X468404Y12656D01*
X468371Y12545D01*
X468349Y12434D01*
X468337Y12345D01*
X468326Y12279D01*
Y12234D01*
Y12212D01*
X468337Y12068D01*
X468360Y11934D01*
X468393Y11823D01*
X468426Y11734D01*
X468460Y11657D01*
X468493Y11590D01*
X468515Y11557D01*
X468526Y11546D01*
X468604Y11457D01*
X468704Y11368D01*
X468804Y11301D01*
X468893Y11257D01*
X468982Y11212D01*
X469048Y11179D01*
X469093Y11168D01*
X469115Y11157D01*
X469237Y11134D01*
X469393Y11112D01*
X469548Y11101D01*
X469704Y11090D01*
X469848Y11079D01*
X471737D01*
Y13390D01*
D02*
G37*
G36*
X451528Y11534D02*
X451461D01*
X451328Y11523D01*
X451206Y11512D01*
X450984Y11457D01*
X450784Y11368D01*
X450617Y11268D01*
X450484Y11168D01*
X450384Y11090D01*
X450317Y11023D01*
X450295Y11012D01*
Y11001D01*
X450206Y10901D01*
X450139Y10779D01*
X450017Y10535D01*
X449928Y10268D01*
X449873Y10023D01*
X449839Y9790D01*
X449828Y9690D01*
Y9601D01*
X449817Y9535D01*
Y9479D01*
Y9446D01*
Y9435D01*
Y9235D01*
X449839Y9046D01*
X449861Y8879D01*
X449895Y8712D01*
X449928Y8568D01*
X449973Y8435D01*
X450006Y8313D01*
X450050Y8201D01*
X450095Y8112D01*
X450139Y8024D01*
X450184Y7957D01*
X450217Y7901D01*
X450250Y7857D01*
X450273Y7824D01*
X450284Y7812D01*
X450295Y7801D01*
X450384Y7713D01*
X450484Y7624D01*
X450672Y7490D01*
X450873Y7401D01*
X451050Y7335D01*
X451217Y7301D01*
X451339Y7279D01*
X451395Y7268D01*
X451461D01*
X451595Y7279D01*
X451717Y7290D01*
X451950Y7346D01*
X452150Y7435D01*
X452317Y7535D01*
X452450Y7624D01*
X452550Y7713D01*
X452617Y7768D01*
X452628Y7790D01*
X452639D01*
X452717Y7901D01*
X452795Y8012D01*
X452906Y8268D01*
X452994Y8535D01*
X453050Y8801D01*
X453083Y9035D01*
X453094Y9135D01*
Y9223D01*
X453106Y9301D01*
Y9357D01*
Y9390D01*
Y9401D01*
X453094Y9590D01*
X453083Y9779D01*
X453061Y9946D01*
X453028Y10101D01*
X452994Y10246D01*
X452961Y10379D01*
X452917Y10490D01*
X452872Y10601D01*
X452828Y10690D01*
X452783Y10779D01*
X452750Y10846D01*
X452717Y10901D01*
X452683Y10946D01*
X452661Y10979D01*
X452639Y10990D01*
Y11001D01*
X452550Y11090D01*
X452450Y11179D01*
X452261Y11312D01*
X452061Y11401D01*
X451872Y11468D01*
X451706Y11512D01*
X451583Y11523D01*
X451528Y11534D01*
D02*
G37*
G36*
X463482D02*
X463416D01*
X463282Y11523D01*
X463160Y11512D01*
X462938Y11457D01*
X462738Y11368D01*
X462571Y11268D01*
X462438Y11168D01*
X462338Y11090D01*
X462271Y11023D01*
X462249Y11012D01*
Y11001D01*
X462160Y10901D01*
X462094Y10779D01*
X461971Y10535D01*
X461882Y10268D01*
X461827Y10023D01*
X461794Y9790D01*
X461783Y9690D01*
Y9601D01*
X461771Y9535D01*
Y9479D01*
Y9446D01*
Y9435D01*
Y9235D01*
X461794Y9046D01*
X461816Y8879D01*
X461849Y8712D01*
X461882Y8568D01*
X461927Y8435D01*
X461960Y8313D01*
X462005Y8201D01*
X462049Y8112D01*
X462094Y8024D01*
X462138Y7957D01*
X462171Y7901D01*
X462205Y7857D01*
X462227Y7824D01*
X462238Y7812D01*
X462249Y7801D01*
X462338Y7713D01*
X462438Y7624D01*
X462627Y7490D01*
X462827Y7401D01*
X463005Y7335D01*
X463171Y7301D01*
X463294Y7279D01*
X463349Y7268D01*
X463416D01*
X463549Y7279D01*
X463671Y7290D01*
X463904Y7346D01*
X464105Y7435D01*
X464271Y7535D01*
X464404Y7624D01*
X464504Y7713D01*
X464571Y7768D01*
X464582Y7790D01*
X464593D01*
X464671Y7901D01*
X464749Y8012D01*
X464860Y8268D01*
X464949Y8535D01*
X465004Y8801D01*
X465038Y9035D01*
X465049Y9135D01*
Y9223D01*
X465060Y9301D01*
Y9357D01*
Y9390D01*
Y9401D01*
X465049Y9590D01*
X465038Y9779D01*
X465016Y9946D01*
X464982Y10101D01*
X464949Y10246D01*
X464916Y10379D01*
X464871Y10490D01*
X464827Y10601D01*
X464782Y10690D01*
X464738Y10779D01*
X464704Y10846D01*
X464671Y10901D01*
X464638Y10946D01*
X464615Y10979D01*
X464593Y10990D01*
Y11001D01*
X464504Y11090D01*
X464404Y11179D01*
X464216Y11312D01*
X464016Y11401D01*
X463827Y11468D01*
X463660Y11512D01*
X463538Y11523D01*
X463482Y11534D01*
D02*
G37*
G36*
X432408Y13556D02*
X432308D01*
X432030Y13545D01*
X431763Y13501D01*
X431530Y13434D01*
X431330Y13367D01*
X431163Y13290D01*
X431097Y13256D01*
X431041Y13234D01*
X430986Y13201D01*
X430952Y13190D01*
X430941Y13168D01*
X430930D01*
X430719Y13012D01*
X430530Y12834D01*
X430363Y12656D01*
X430230Y12479D01*
X430130Y12323D01*
X430052Y12190D01*
X430030Y12145D01*
X430008Y12112D01*
X429997Y12090D01*
Y12079D01*
X429886Y11812D01*
X429808Y11523D01*
X429752Y11257D01*
X429719Y11001D01*
X429697Y10879D01*
X429686Y10779D01*
Y10679D01*
X429675Y10601D01*
Y10535D01*
Y10490D01*
Y10457D01*
Y10446D01*
X429686Y10179D01*
X429708Y9923D01*
X429741Y9679D01*
X429786Y9457D01*
X429852Y9257D01*
X429908Y9068D01*
X429975Y8890D01*
X430041Y8735D01*
X430119Y8601D01*
X430186Y8479D01*
X430241Y8379D01*
X430297Y8301D01*
X430352Y8235D01*
X430386Y8179D01*
X430408Y8157D01*
X430419Y8146D01*
X430563Y8001D01*
X430719Y7879D01*
X430874Y7779D01*
X431030Y7679D01*
X431185Y7601D01*
X431352Y7546D01*
X431497Y7490D01*
X431652Y7446D01*
X431785Y7413D01*
X431919Y7390D01*
X432030Y7368D01*
X432130Y7357D01*
X432208D01*
X432263Y7346D01*
X432319D01*
X432530Y7357D01*
X432730Y7379D01*
X432908Y7424D01*
X433085Y7468D01*
X433252Y7535D01*
X433407Y7601D01*
X433552Y7668D01*
X433685Y7746D01*
X433796Y7824D01*
X433896Y7890D01*
X433985Y7957D01*
X434063Y8024D01*
X434119Y8068D01*
X434163Y8112D01*
X434185Y8135D01*
X434196Y8146D01*
X434330Y8301D01*
X434441Y8468D01*
X434541Y8646D01*
X434630Y8824D01*
X434696Y9012D01*
X434763Y9190D01*
X434852Y9546D01*
X434874Y9701D01*
X434896Y9857D01*
X434918Y9990D01*
X434930Y10101D01*
X434941Y10201D01*
Y10279D01*
Y10323D01*
Y10334D01*
X434930Y10646D01*
X434907Y10934D01*
X434874Y11212D01*
X434819Y11457D01*
X434763Y11679D01*
X434696Y11879D01*
X434619Y12068D01*
X434552Y12223D01*
X434474Y12368D01*
X434407Y12490D01*
X434341Y12590D01*
X434285Y12668D01*
X434230Y12734D01*
X434196Y12779D01*
X434174Y12801D01*
X434163Y12812D01*
X434019Y12945D01*
X433863Y13057D01*
X433708Y13157D01*
X433541Y13245D01*
X433385Y13312D01*
X433230Y13379D01*
X432941Y13467D01*
X432808Y13490D01*
X432685Y13512D01*
X432585Y13534D01*
X432485Y13545D01*
X432408Y13556D01*
D02*
G37*
%LPD*%
D12*
X225791Y125591D02*
G03*
X225791Y125591I-6500J0D01*
G01*
X155319Y229528D02*
G03*
X155319Y229528I-6500J0D01*
G01*
X147686Y188189D02*
G03*
X147686Y188189I-6500J0D01*
G01*
X76288Y358492D02*
G03*
X76288Y358492I-6500J0D01*
G01*
X48276Y234345D02*
G03*
X48276Y234345I-6500J0D01*
G01*
Y263873D02*
G03*
X48276Y263873I-6500J0D01*
G01*
Y279621D02*
G03*
X48276Y279621I-6500J0D01*
G01*
X229921Y303543D02*
Y317717D01*
X210236Y303543D02*
Y317717D01*
X224016Y303543D02*
X229921D01*
X224016Y317717D02*
X229921D01*
X210236D02*
X216181D01*
X210236Y303543D02*
X216181D01*
X228579Y320441D02*
Y322441D01*
X219579Y325941D02*
Y326441D01*
X228579Y329941D02*
Y331941D01*
X224079Y320441D02*
X228579D01*
X224079Y331941D02*
X228579D01*
X164447Y205805D02*
X168947D01*
X164447Y217305D02*
X168947D01*
X164447Y205805D02*
Y207805D01*
X173447Y211305D02*
Y211806D01*
X164447Y215305D02*
Y217305D01*
X174086Y325867D02*
Y330367D01*
X185587Y325867D02*
Y330367D01*
X174086D02*
X176086D01*
X179587Y321367D02*
X180087D01*
X183587Y330367D02*
X185587D01*
D74*
X234646Y221260D02*
G03*
X234646Y221260I-787J0D01*
G01*
X193452Y122645D02*
G03*
X193452Y122645I-3640J0D01*
G01*
X179532Y357928D02*
Y367928D01*
X169532Y357928D02*
Y367928D01*
Y357928D02*
X199532D01*
Y367928D01*
X169532D02*
X199532D01*
X171515Y356631D02*
X177515D01*
Y342631D02*
Y356631D01*
X171515Y342631D02*
X177515D01*
X171515D02*
Y356631D01*
X191553D02*
X197553D01*
Y342631D02*
Y356631D01*
X191553Y342631D02*
X197553D01*
X191553D02*
Y356631D01*
X181533Y356513D02*
X187533D01*
Y342513D02*
Y356513D01*
X181533Y342513D02*
X187533D01*
X181533D02*
Y356513D01*
X68398Y205691D02*
Y219691D01*
X62398D02*
X68398D01*
X62398Y205691D02*
Y219691D01*
Y205691D02*
X68398D01*
X28871Y184101D02*
Y190101D01*
X42871D01*
Y184101D02*
Y190101D01*
X28871Y184101D02*
X42871D01*
X72777Y-14657D02*
X82777D01*
X72777Y-4656D02*
X82777D01*
X72777Y-34657D02*
Y-4656D01*
Y-34657D02*
X82777D01*
Y-4656D01*
D75*
X177422Y293235D02*
X203406D01*
X177422Y316857D02*
X203406D01*
X177422Y293235D02*
Y316857D01*
D76*
X215748Y326772D02*
Y329771D01*
X214248D01*
X213749Y329271D01*
Y328271D01*
X214248Y327771D01*
X215748D01*
X214748D02*
X213749Y326772D01*
X212749D02*
X211749D01*
X212249D01*
Y329771D01*
X212749Y329271D01*
X210250D02*
X209750Y329771D01*
X208750D01*
X208250Y329271D01*
Y327272D01*
X208750Y326772D01*
X209750D01*
X210250Y327272D01*
Y329271D01*
X204724Y326378D02*
Y329377D01*
X203225D01*
X202725Y328877D01*
Y327877D01*
X203225Y327378D01*
X204724D01*
X203725D02*
X202725Y326378D01*
X201725Y328877D02*
X201225Y329377D01*
X200226D01*
X199726Y328877D01*
Y328377D01*
X200226Y327877D01*
X199726Y327378D01*
Y326878D01*
X200226Y326378D01*
X201225D01*
X201725Y326878D01*
Y327378D01*
X201225Y327877D01*
X201725Y328377D01*
Y328877D01*
X201225Y327877D02*
X200226D01*
X227134Y334752D02*
Y336751D01*
X227634Y337251D01*
X228634D01*
X229134Y336751D01*
Y334752D01*
X228634Y334252D01*
X227634D01*
X228134Y335252D02*
X227134Y334252D01*
X227634D02*
X227134Y334752D01*
X226135Y336751D02*
X225635Y337251D01*
X224635D01*
X224135Y336751D01*
Y336251D01*
X224635Y335752D01*
X225135D01*
X224635D01*
X224135Y335252D01*
Y334752D01*
X224635Y334252D01*
X225635D01*
X226135Y334752D01*
X14902Y222819D02*
X15901D01*
X15402D01*
Y220320D01*
X15901Y219820D01*
X16401D01*
X16901Y220320D01*
X13902Y219820D02*
X12902D01*
X13402D01*
Y222819D01*
X13902Y222320D01*
X11403D02*
X10903Y222819D01*
X9903D01*
X9403Y222320D01*
Y220320D01*
X9903Y219820D01*
X10903D01*
X11403Y220320D01*
Y222320D01*
X55975Y173882D02*
Y171383D01*
X55475Y170883D01*
X54475D01*
X53975Y171383D01*
Y173882D01*
X50976Y170883D02*
X52976D01*
X50976Y172883D01*
Y173383D01*
X51476Y173882D01*
X52476D01*
X52976Y173383D01*
X60658Y211133D02*
X57659D01*
Y213133D01*
Y214132D02*
Y215132D01*
Y214632D01*
X60658D01*
X60158Y214132D01*
X183071Y289613D02*
Y286614D01*
X181571D01*
X181071Y287114D01*
Y289113D01*
X181571Y289613D01*
X183071D01*
X178073Y286614D02*
X180072D01*
X178073Y288614D01*
Y289113D01*
X178572Y289613D01*
X179572D01*
X180072Y289113D01*
X235389Y306449D02*
Y303450D01*
X233889D01*
X233389Y303950D01*
Y305949D01*
X233889Y306449D01*
X235389D01*
X232390Y303450D02*
X231390D01*
X231890D01*
Y306449D01*
X232390Y305949D01*
X65648Y48157D02*
Y51156D01*
X64148D01*
X63649Y50656D01*
Y49657D01*
X64148Y49157D01*
X65648D01*
X64648D02*
X63649Y48157D01*
X60650D02*
X62649D01*
X60650Y50156D01*
Y50656D01*
X61149Y51156D01*
X62149D01*
X62649Y50656D01*
X58150Y48157D02*
Y51156D01*
X59650Y49657D01*
X57651D01*
X51091Y197660D02*
Y200659D01*
X49591D01*
X49091Y200160D01*
Y199160D01*
X49591Y198660D01*
X51091D01*
X50091D02*
X49091Y197660D01*
X46092D02*
X48092D01*
X46092Y199660D01*
Y200160D01*
X46592Y200659D01*
X47592D01*
X48092Y200160D01*
X45093D02*
X44593Y200659D01*
X43593D01*
X43093Y200160D01*
Y199660D01*
X43593Y199160D01*
X44093D01*
X43593D01*
X43093Y198660D01*
Y198160D01*
X43593Y197660D01*
X44593D01*
X45093Y198160D01*
X54964Y70174D02*
Y73173D01*
X53465D01*
X52965Y72674D01*
Y71674D01*
X53465Y71174D01*
X54964D01*
X53964D02*
X52965Y70174D01*
X49966D02*
X51965D01*
X49966Y72174D01*
Y72674D01*
X50466Y73173D01*
X51465D01*
X51965Y72674D01*
X46967Y70174D02*
X48966D01*
X46967Y72174D01*
Y72674D01*
X47466Y73173D01*
X48466D01*
X48966Y72674D01*
X50754Y192103D02*
Y195102D01*
X49254D01*
X48755Y194602D01*
Y193602D01*
X49254Y193103D01*
X50754D01*
X49754D02*
X48755Y192103D01*
X45755D02*
X47755D01*
X45755Y194102D01*
Y194602D01*
X46255Y195102D01*
X47255D01*
X47755Y194602D01*
X44756Y192103D02*
X43756D01*
X44256D01*
Y195102D01*
X44756Y194602D01*
X109192Y87015D02*
Y90014D01*
X107692D01*
X107193Y89515D01*
Y88515D01*
X107692Y88015D01*
X109192D01*
X108192D02*
X107193Y87015D01*
X104193D02*
X106193D01*
X104193Y89015D01*
Y89515D01*
X104693Y90014D01*
X105693D01*
X106193Y89515D01*
X103194D02*
X102694Y90014D01*
X101694D01*
X101195Y89515D01*
Y87515D01*
X101694Y87015D01*
X102694D01*
X103194Y87515D01*
Y89515D01*
X109360Y105204D02*
Y108203D01*
X107861D01*
X107361Y107703D01*
Y106703D01*
X107861Y106203D01*
X109360D01*
X108361D02*
X107361Y105204D01*
X106361D02*
X105362D01*
X105861D01*
Y108203D01*
X106361Y107703D01*
X103862Y105703D02*
X103362Y105204D01*
X102363D01*
X101863Y105703D01*
Y107703D01*
X102363Y108203D01*
X103362D01*
X103862Y107703D01*
Y107203D01*
X103362Y106703D01*
X101863D01*
X109696Y122886D02*
Y125885D01*
X108197D01*
X107697Y125385D01*
Y124385D01*
X108197Y123885D01*
X109696D01*
X108696D02*
X107697Y122886D01*
X106697D02*
X105698D01*
X106197D01*
Y125885D01*
X106697Y125385D01*
X104198D02*
X103698Y125885D01*
X102699D01*
X102199Y125385D01*
Y124885D01*
X102699Y124385D01*
X102199Y123885D01*
Y123386D01*
X102699Y122886D01*
X103698D01*
X104198Y123386D01*
Y123885D01*
X103698Y124385D01*
X104198Y124885D01*
Y125385D01*
X103698Y124385D02*
X102699D01*
X109192Y140233D02*
Y143232D01*
X107692D01*
X107193Y142732D01*
Y141732D01*
X107692Y141232D01*
X109192D01*
X108192D02*
X107193Y140233D01*
X106193D02*
X105193D01*
X105693D01*
Y143232D01*
X106193Y142732D01*
X103694Y143232D02*
X101694D01*
Y142732D01*
X103694Y140733D01*
Y140233D01*
X110034Y158421D02*
Y161420D01*
X108535D01*
X108035Y160920D01*
Y159921D01*
X108535Y159421D01*
X110034D01*
X109034D02*
X108035Y158421D01*
X107035D02*
X106035D01*
X106535D01*
Y161420D01*
X107035Y160920D01*
X102536Y161420D02*
X103536Y160920D01*
X104536Y159921D01*
Y158921D01*
X104036Y158421D01*
X103036D01*
X102536Y158921D01*
Y159421D01*
X103036Y159921D01*
X104536D01*
X109282Y175914D02*
Y178913D01*
X107783D01*
X107283Y178413D01*
Y177413D01*
X107783Y176913D01*
X109282D01*
X108282D02*
X107283Y175914D01*
X106283D02*
X105283D01*
X105783D01*
Y178913D01*
X106283Y178413D01*
X101785Y178913D02*
X103784D01*
Y177413D01*
X102784Y177913D01*
X102284D01*
X101785Y177413D01*
Y176413D01*
X102284Y175914D01*
X103284D01*
X103784Y176413D01*
X195276Y326378D02*
Y329377D01*
X193776D01*
X193276Y328877D01*
Y327877D01*
X193776Y327378D01*
X195276D01*
X194276D02*
X193276Y326378D01*
X192277D02*
X191277D01*
X191777D01*
Y329377D01*
X192277Y328877D01*
X188278Y326378D02*
Y329377D01*
X189777Y327877D01*
X187778D01*
X173690Y226791D02*
Y229790D01*
X172191D01*
X171691Y229290D01*
Y228290D01*
X172191Y227790D01*
X173690D01*
X172690D02*
X171691Y226791D01*
X170691D02*
X169692D01*
X170191D01*
Y229790D01*
X170691Y229290D01*
X168192D02*
X167692Y229790D01*
X166692D01*
X166193Y229290D01*
Y228790D01*
X166692Y228290D01*
X167192D01*
X166692D01*
X166193Y227790D01*
Y227291D01*
X166692Y226791D01*
X167692D01*
X168192Y227291D01*
X37470Y250950D02*
Y253949D01*
X35971D01*
X35471Y253449D01*
Y252449D01*
X35971Y251949D01*
X37470D01*
X36471D02*
X35471Y250950D01*
X34471D02*
X33472D01*
X33972D01*
Y253949D01*
X34471Y253449D01*
X29973Y250950D02*
X31972D01*
X29973Y252949D01*
Y253449D01*
X30473Y253949D01*
X31472D01*
X31972Y253449D01*
X44127Y328109D02*
X41128D01*
Y326610D01*
X41628Y326110D01*
X42628D01*
X43128Y326610D01*
Y328109D01*
Y327110D02*
X44127Y326110D01*
Y325110D02*
Y324111D01*
Y324610D01*
X41128D01*
X41628Y325110D01*
X44127Y322611D02*
Y321611D01*
Y322111D01*
X41128D01*
X41628Y322611D01*
X38761Y327772D02*
X35762D01*
Y326272D01*
X36262Y325772D01*
X37261D01*
X37761Y326272D01*
Y327772D01*
Y326772D02*
X38761Y325772D01*
X38261Y324773D02*
X38761Y324273D01*
Y323273D01*
X38261Y322773D01*
X36262D01*
X35762Y323273D01*
Y324273D01*
X36262Y324773D01*
X36761D01*
X37261Y324273D01*
Y322773D01*
X37548Y244803D02*
Y247802D01*
X36049D01*
X35549Y247302D01*
Y246303D01*
X36049Y245803D01*
X37548D01*
X36549D02*
X35549Y244803D01*
X34549Y247802D02*
X32550D01*
Y247302D01*
X34549Y245303D01*
Y244803D01*
X186221Y149213D02*
X189219D01*
Y150712D01*
X188720Y151212D01*
X187720D01*
X187220Y150712D01*
Y149213D01*
Y150212D02*
X186221Y151212D01*
X189219Y154211D02*
X188720Y153211D01*
X187720Y152212D01*
X186720D01*
X186221Y152711D01*
Y153711D01*
X186720Y154211D01*
X187220D01*
X187720Y153711D01*
Y152212D01*
X156060Y83379D02*
Y86378D01*
X154561D01*
X154061Y85878D01*
Y84878D01*
X154561Y84378D01*
X156060D01*
X155061D02*
X154061Y83379D01*
X151062Y86378D02*
X153061D01*
Y84878D01*
X152061Y85378D01*
X151562D01*
X151062Y84878D01*
Y83878D01*
X151562Y83379D01*
X152561D01*
X153061Y83878D01*
X156060Y91216D02*
Y94215D01*
X154561D01*
X154061Y93716D01*
Y92716D01*
X154561Y92216D01*
X156060D01*
X155061D02*
X154061Y91216D01*
X151562D02*
Y94215D01*
X153061Y92716D01*
X151062D01*
X156185Y75665D02*
Y78664D01*
X154685D01*
X154185Y78164D01*
Y77165D01*
X154685Y76665D01*
X156185D01*
X155185D02*
X154185Y75665D01*
X153186Y78164D02*
X152686Y78664D01*
X151686D01*
X151186Y78164D01*
Y77665D01*
X151686Y77165D01*
X152186D01*
X151686D01*
X151186Y76665D01*
Y76165D01*
X151686Y75665D01*
X152686D01*
X153186Y76165D01*
X156185Y60114D02*
Y63113D01*
X154685D01*
X154185Y62613D01*
Y61614D01*
X154685Y61114D01*
X156185D01*
X155185D02*
X154185Y60114D01*
X151186D02*
X153186D01*
X151186Y62113D01*
Y62613D01*
X151686Y63113D01*
X152686D01*
X153186Y62613D01*
X156060Y68325D02*
Y71324D01*
X154561D01*
X154061Y70824D01*
Y69825D01*
X154561Y69325D01*
X156060D01*
X155061D02*
X154061Y68325D01*
X153061D02*
X152061D01*
X152561D01*
Y71324D01*
X153061Y70824D01*
X188783Y165134D02*
X189783D01*
X189283D01*
Y162635D01*
X189783Y162135D01*
X190283D01*
X190783Y162635D01*
X186284Y162135D02*
Y165134D01*
X187784Y163635D01*
X185784D01*
X87764Y-30859D02*
X88764D01*
X88264D01*
Y-33358D01*
X88764Y-33858D01*
X89264D01*
X89764Y-33358D01*
X84765Y-33858D02*
X86765D01*
X84765Y-31859D01*
Y-31359D01*
X85265Y-30859D01*
X86265D01*
X86765Y-31359D01*
X182086Y202113D02*
X182585Y201613D01*
Y200614D01*
X182086Y200114D01*
X180086D01*
X179586Y200614D01*
Y201613D01*
X180086Y202113D01*
X179586Y203113D02*
Y204113D01*
Y203613D01*
X182585D01*
X182086Y203113D01*
X182585Y205612D02*
Y207611D01*
X182086D01*
X180086Y205612D01*
X179586D01*
X224830Y188075D02*
X225330Y188574D01*
X226330D01*
X226830Y188075D01*
Y186075D01*
X226330Y185575D01*
X225330D01*
X224830Y186075D01*
X223831Y185575D02*
X222831D01*
X223331D01*
Y188574D01*
X223831Y188075D01*
X219332Y188574D02*
X221331D01*
Y187075D01*
X220332Y187575D01*
X219832D01*
X219332Y187075D01*
Y186075D01*
X219832Y185575D01*
X220831D01*
X221331Y186075D01*
X77528Y39113D02*
X78028Y39613D01*
X79028D01*
X79528Y39113D01*
Y37114D01*
X79028Y36614D01*
X78028D01*
X77528Y37114D01*
X76529Y36614D02*
X75529D01*
X76029D01*
Y39613D01*
X76529Y39113D01*
X72530Y36614D02*
Y39613D01*
X74029Y38114D01*
X72030D01*
X183404Y233859D02*
X182904Y234359D01*
Y235359D01*
X183404Y235858D01*
X185403D01*
X185903Y235359D01*
Y234359D01*
X185403Y233859D01*
X185903Y232859D02*
Y231860D01*
Y232360D01*
X182904D01*
X183404Y232859D01*
X185903Y228361D02*
Y230360D01*
X183904Y228361D01*
X183404D01*
X182904Y228861D01*
Y229860D01*
X183404Y230360D01*
X83783Y221210D02*
X84283Y221710D01*
X85282D01*
X85782Y221210D01*
Y219211D01*
X85282Y218711D01*
X84283D01*
X83783Y219211D01*
X82783Y221710D02*
X80784D01*
Y221210D01*
X82783Y219211D01*
Y218711D01*
X96414Y220706D02*
X96914Y221205D01*
X97914D01*
X98414Y220706D01*
Y218706D01*
X97914Y218206D01*
X96914D01*
X96414Y218706D01*
X93415Y221205D02*
X94415Y220706D01*
X95415Y219706D01*
Y218706D01*
X94915Y218206D01*
X93915D01*
X93415Y218706D01*
Y219206D01*
X93915Y219706D01*
X95415D01*
X141082Y237826D02*
X141582Y237326D01*
Y236327D01*
X141082Y235827D01*
X139083D01*
X138583Y236327D01*
Y237326D01*
X139083Y237826D01*
X141582Y240825D02*
Y238826D01*
X140082D01*
X140582Y239826D01*
Y240325D01*
X140082Y240825D01*
X139083D01*
X138583Y240325D01*
Y239326D01*
X139083Y238826D01*
X137795Y267865D02*
X138294Y267366D01*
Y266366D01*
X137795Y265866D01*
X135795D01*
X135295Y266366D01*
Y267366D01*
X135795Y267865D01*
X135295Y270365D02*
X138294D01*
X136795Y268865D01*
Y270865D01*
X151031Y250000D02*
X148031Y251999D01*
X151031D02*
X148031Y250000D01*
Y252999D02*
Y253999D01*
Y253499D01*
X151031D01*
X150531Y252999D01*
X55975Y121002D02*
Y118503D01*
X55475Y118003D01*
X54475D01*
X53975Y118503D01*
Y121002D01*
X50976D02*
X51976Y120502D01*
X52976Y119502D01*
Y118503D01*
X52476Y118003D01*
X51476D01*
X50976Y118503D01*
Y119002D01*
X51476Y119502D01*
X52976D01*
X55637Y138684D02*
Y136185D01*
X55137Y135685D01*
X54137D01*
X53637Y136185D01*
Y138684D01*
X50638D02*
X52638D01*
Y137184D01*
X51638Y137684D01*
X51138D01*
X50638Y137184D01*
Y136185D01*
X51138Y135685D01*
X52138D01*
X52638Y136185D01*
X169840Y166088D02*
Y163589D01*
X169340Y163089D01*
X168340D01*
X167841Y163589D01*
Y166088D01*
X165341Y163089D02*
Y166088D01*
X166841Y164588D01*
X164842D01*
X55805Y156704D02*
Y154204D01*
X55305Y153705D01*
X54306D01*
X53806Y154204D01*
Y156704D01*
X52806Y156204D02*
X52306Y156704D01*
X51307D01*
X50807Y156204D01*
Y155704D01*
X51307Y155204D01*
X51806D01*
X51307D01*
X50807Y154704D01*
Y154204D01*
X51307Y153705D01*
X52306D01*
X52806Y154204D01*
X57995Y231478D02*
Y228979D01*
X57496Y228479D01*
X56496D01*
X55996Y228979D01*
Y231478D01*
X54997Y228479D02*
X53997D01*
X54497D01*
Y231478D01*
X54997Y230978D01*
X166754Y201018D02*
Y203017D01*
X167254Y203517D01*
X168254D01*
X168753Y203017D01*
Y201018D01*
X168254Y200518D01*
X167254D01*
X167754Y201518D02*
X166754Y200518D01*
X167254D02*
X166754Y201018D01*
X165754Y200518D02*
X164755D01*
X165254D01*
Y203517D01*
X165754Y203017D01*
X198625Y356589D02*
X201624D01*
Y354590D01*
X198625Y351591D02*
X199125Y352591D01*
X200125Y353590D01*
X201124D01*
X201624Y353090D01*
Y352091D01*
X201124Y351591D01*
X200624D01*
X200125Y352091D01*
Y353590D01*
X183298Y341101D02*
Y338102D01*
X181299D01*
X178300Y341101D02*
X180299D01*
Y339602D01*
X179299Y340102D01*
X178799D01*
X178300Y339602D01*
Y338602D01*
X178799Y338102D01*
X179799D01*
X180299Y338602D01*
X169419Y354927D02*
Y351928D01*
X167420D01*
X164921D02*
Y354927D01*
X166420Y353427D01*
X164421D01*
X49911Y189207D02*
Y186208D01*
X47912D01*
X46912Y188707D02*
X46412Y189207D01*
X45412D01*
X44912Y188707D01*
Y188207D01*
X45412Y187707D01*
X45912D01*
X45412D01*
X44912Y187207D01*
Y186707D01*
X45412Y186208D01*
X46412D01*
X46912Y186707D01*
X227953Y267960D02*
Y264961D01*
X225953D01*
X222954D02*
X224954D01*
X222954Y266960D01*
Y267460D01*
X223454Y267960D01*
X224454D01*
X224954Y267460D01*
X110193Y-7723D02*
X111193D01*
X110693D01*
Y-10222D01*
X111193Y-10722D01*
X111693D01*
X112193Y-10222D01*
X109194Y-8223D02*
X108694Y-7723D01*
X107694D01*
X107194Y-8223D01*
Y-8723D01*
X107694Y-9223D01*
X108194D01*
X107694D01*
X107194Y-9722D01*
Y-10222D01*
X107694Y-10722D01*
X108694D01*
X109194Y-10222D01*
X169822Y335070D02*
X170322Y334570D01*
Y333571D01*
X169822Y333071D01*
X167823D01*
X167323Y333571D01*
Y334570D01*
X167823Y335070D01*
X167323Y336070D02*
Y337070D01*
Y336570D01*
X170322D01*
X169822Y336070D01*
X167823Y338569D02*
X167323Y339069D01*
Y340069D01*
X167823Y340568D01*
X169822D01*
X170322Y340069D01*
Y339069D01*
X169822Y338569D01*
X169322D01*
X168822Y339069D01*
Y340568D01*
X193444Y335070D02*
X193944Y334570D01*
Y333571D01*
X193444Y333071D01*
X191445D01*
X190945Y333571D01*
Y334570D01*
X191445Y335070D01*
X190945Y336070D02*
Y337070D01*
Y336570D01*
X193944D01*
X193444Y336070D01*
Y338569D02*
X193944Y339069D01*
Y340069D01*
X193444Y340568D01*
X192944D01*
X192444Y340069D01*
X191945Y340568D01*
X191445D01*
X190945Y340069D01*
Y339069D01*
X191445Y338569D01*
X191945D01*
X192444Y339069D01*
X192944Y338569D01*
X193444D01*
X192444Y339069D02*
Y340069D01*
X209705Y243670D02*
X209206Y244170D01*
Y245169D01*
X209705Y245669D01*
X211705D01*
X212205Y245169D01*
Y244170D01*
X211705Y243670D01*
X212205Y242670D02*
Y241671D01*
Y242170D01*
X209206D01*
X209705Y242670D01*
Y240171D02*
X209206Y239671D01*
Y238671D01*
X209705Y238172D01*
X210205D01*
X210705Y238671D01*
Y239171D01*
Y238671D01*
X211205Y238172D01*
X211705D01*
X212205Y238671D01*
Y239671D01*
X211705Y240171D01*
X155377Y147610D02*
X154877Y148110D01*
Y149109D01*
X155377Y149609D01*
X157376D01*
X157876Y149109D01*
Y148110D01*
X157376Y147610D01*
X157876Y146610D02*
Y145610D01*
Y146110D01*
X154877D01*
X155377Y146610D01*
X157876Y144111D02*
Y143111D01*
Y143611D01*
X154877D01*
X155377Y144111D01*
X175454Y148001D02*
X174954Y148501D01*
Y149500D01*
X175454Y150000D01*
X177453D01*
X177953Y149500D01*
Y148501D01*
X177453Y148001D01*
X177953Y147001D02*
Y146001D01*
Y146501D01*
X174954D01*
X175454Y147001D01*
Y144502D02*
X174954Y144002D01*
Y143002D01*
X175454Y142502D01*
X177453D01*
X177953Y143002D01*
Y144002D01*
X177453Y144502D01*
X175454D01*
X79921Y340211D02*
X80421Y340710D01*
X81420D01*
X81920Y340211D01*
Y338211D01*
X81420Y337711D01*
X80421D01*
X79921Y338211D01*
X78921D02*
X78421Y337711D01*
X77422D01*
X76922Y338211D01*
Y340211D01*
X77422Y340710D01*
X78421D01*
X78921Y340211D01*
Y339711D01*
X78421Y339211D01*
X76922D01*
X105002Y341286D02*
X105502Y341786D01*
X106502D01*
X107002Y341286D01*
Y339286D01*
X106502Y338787D01*
X105502D01*
X105002Y339286D01*
X104003Y341286D02*
X103503Y341786D01*
X102503D01*
X102003Y341286D01*
Y340786D01*
X102503Y340286D01*
X102003Y339786D01*
Y339286D01*
X102503Y338787D01*
X103503D01*
X104003Y339286D01*
Y339786D01*
X103503Y340286D01*
X104003Y340786D01*
Y341286D01*
X103503Y340286D02*
X102503D01*
X130058Y256724D02*
X130558Y256224D01*
Y255224D01*
X130058Y254724D01*
X128059D01*
X127559Y255224D01*
Y256224D01*
X128059Y256724D01*
X127559Y259723D02*
Y257723D01*
X129558Y259723D01*
X130058D01*
X130558Y259223D01*
Y258223D01*
X130058Y257723D01*
X55975Y103319D02*
Y100820D01*
X55475Y100320D01*
X54475D01*
X53975Y100820D01*
Y103319D01*
X52976D02*
X50976D01*
Y102819D01*
X52976Y100820D01*
Y100320D01*
X130058Y246487D02*
X130558Y245988D01*
Y244988D01*
X130058Y244488D01*
X128059D01*
X127559Y244988D01*
Y245988D01*
X128059Y246487D01*
X127559Y247487D02*
Y248487D01*
Y247987D01*
X130558D01*
X130058Y247487D01*
X89370Y42520D02*
Y45519D01*
X87871D01*
X87371Y45019D01*
Y44019D01*
X87871Y43519D01*
X89370D01*
X88370D02*
X87371Y42520D01*
X84372D02*
X86371D01*
X84372Y44519D01*
Y45019D01*
X84872Y45519D01*
X85871D01*
X86371Y45019D01*
X81373Y45519D02*
X83372D01*
Y44019D01*
X82372Y44519D01*
X81872D01*
X81373Y44019D01*
Y43020D01*
X81872Y42520D01*
X82872D01*
X83372Y43020D01*
X89764Y25591D02*
Y28590D01*
X88264D01*
X87764Y28090D01*
Y27090D01*
X88264Y26590D01*
X89764D01*
X88764D02*
X87764Y25591D01*
X84765D02*
X86765D01*
X84765Y27590D01*
Y28090D01*
X85265Y28590D01*
X86265D01*
X86765Y28090D01*
X81766Y28590D02*
X82766Y28090D01*
X83766Y27090D01*
Y26090D01*
X83266Y25591D01*
X82266D01*
X81766Y26090D01*
Y26590D01*
X82266Y27090D01*
X83766D01*
X79528Y48031D02*
Y51030D01*
X78028D01*
X77528Y50531D01*
Y49531D01*
X78028Y49031D01*
X79528D01*
X78528D02*
X77528Y48031D01*
X74529D02*
X76529D01*
X74529Y50031D01*
Y50531D01*
X75029Y51030D01*
X76029D01*
X76529Y50531D01*
X73529Y51030D02*
X71530D01*
Y50531D01*
X73529Y48531D01*
Y48031D01*
X87795Y69291D02*
Y72290D01*
X86296D01*
X85796Y71790D01*
Y70791D01*
X86296Y70291D01*
X87795D01*
X86796D02*
X85796Y69291D01*
X82797D02*
X84796D01*
X82797Y71291D01*
Y71790D01*
X83297Y72290D01*
X84296D01*
X84796Y71790D01*
X81797D02*
X81297Y72290D01*
X80298D01*
X79798Y71790D01*
Y71291D01*
X80298Y70791D01*
X79798Y70291D01*
Y69791D01*
X80298Y69291D01*
X81297D01*
X81797Y69791D01*
Y70291D01*
X81297Y70791D01*
X81797Y71291D01*
Y71790D01*
X81297Y70791D02*
X80298D01*
X91699Y302889D02*
X92199Y303389D01*
X93199D01*
X93698Y302889D01*
Y300890D01*
X93199Y300390D01*
X92199D01*
X91699Y300890D01*
X90699Y302889D02*
X90199Y303389D01*
X89200D01*
X88700Y302889D01*
Y302389D01*
X89200Y301890D01*
X89700D01*
X89200D01*
X88700Y301390D01*
Y300890D01*
X89200Y300390D01*
X90199D01*
X90699Y300890D01*
X232283Y200243D02*
Y197244D01*
X230784D01*
X230284Y197744D01*
Y199743D01*
X230784Y200243D01*
X232283D01*
X229284Y199743D02*
X228785Y200243D01*
X227785D01*
X227285Y199743D01*
Y199243D01*
X227785Y198744D01*
X228285D01*
X227785D01*
X227285Y198244D01*
Y197744D01*
X227785Y197244D01*
X228785D01*
X229284Y197744D01*
X169804Y324078D02*
X171803D01*
X172303Y323578D01*
Y322578D01*
X171803Y322079D01*
X169804D01*
X169304Y322578D01*
Y323578D01*
X170304Y323078D02*
X169304Y324078D01*
Y323578D02*
X169804Y324078D01*
X169304Y327077D02*
Y325078D01*
X171303Y327077D01*
X171803D01*
X172303Y326577D01*
Y325577D01*
X171803Y325078D01*
X202038Y332698D02*
X205037D01*
Y334197D01*
X204537Y334697D01*
X203538D01*
X203038Y334197D01*
Y332698D01*
Y333698D02*
X202038Y334697D01*
Y337696D02*
Y335697D01*
X204038Y337696D01*
X204537D01*
X205037Y337196D01*
Y336197D01*
X204537Y335697D01*
X202538Y338696D02*
X202038Y339196D01*
Y340195D01*
X202538Y340695D01*
X204537D01*
X205037Y340195D01*
Y339196D01*
X204537Y338696D01*
X204038D01*
X203538Y339196D01*
Y340695D01*
X32733Y281160D02*
X30734D01*
X31734D01*
Y278161D01*
X29734D02*
Y281160D01*
X28235D01*
X27735Y280660D01*
Y279661D01*
X28235Y279161D01*
X29734D01*
X26735Y278161D02*
X25736D01*
X26235D01*
Y281160D01*
X26735Y280660D01*
X32061Y265834D02*
X30061D01*
X31061D01*
Y262835D01*
X29061D02*
Y265834D01*
X27562D01*
X27062Y265334D01*
Y264334D01*
X27562Y263835D01*
X29061D01*
X24063Y262835D02*
X26063D01*
X24063Y264834D01*
Y265334D01*
X24563Y265834D01*
X25563D01*
X26063Y265334D01*
X45532Y224911D02*
X43533D01*
X44533D01*
Y221912D01*
X42533D02*
Y224911D01*
X41034D01*
X40534Y224412D01*
Y223412D01*
X41034Y222912D01*
X42533D01*
X39534Y224412D02*
X39034Y224911D01*
X38035D01*
X37535Y224412D01*
Y223912D01*
X38035Y223412D01*
X38535D01*
X38035D01*
X37535Y222912D01*
Y222412D01*
X38035Y221912D01*
X39034D01*
X39534Y222412D01*
X152756Y240401D02*
X150757D01*
X151756D01*
Y237402D01*
X149757D02*
Y240401D01*
X148257D01*
X147757Y239901D01*
Y238901D01*
X148257Y238401D01*
X149757D01*
X145258Y237402D02*
Y240401D01*
X146758Y238901D01*
X144758D01*
X157960Y190522D02*
X155961D01*
X156961D01*
Y187522D01*
X154961D02*
Y190522D01*
X153462D01*
X152962Y190022D01*
Y189022D01*
X153462Y188522D01*
X154961D01*
X149963Y190522D02*
X151962D01*
Y189022D01*
X150963Y189522D01*
X150463D01*
X149963Y189022D01*
Y188022D01*
X150463Y187522D01*
X151462D01*
X151962Y188022D01*
X86595Y363137D02*
X84596D01*
X85595D01*
Y360138D01*
X83596D02*
Y363137D01*
X82096D01*
X81597Y362638D01*
Y361638D01*
X82096Y361138D01*
X83596D01*
X78598Y363137D02*
X79597Y362638D01*
X80597Y361638D01*
Y360638D01*
X80097Y360138D01*
X79097D01*
X78598Y360638D01*
Y361138D01*
X79097Y361638D01*
X80597D01*
X54796Y85636D02*
Y83137D01*
X54296Y82637D01*
X53296D01*
X52796Y83137D01*
Y85636D01*
X51797Y85136D02*
X51297Y85636D01*
X50297D01*
X49797Y85136D01*
Y84636D01*
X50297Y84136D01*
X49797Y83636D01*
Y83137D01*
X50297Y82637D01*
X51297D01*
X51797Y83137D01*
Y83636D01*
X51297Y84136D01*
X51797Y84636D01*
Y85136D01*
X51297Y84136D02*
X50297D01*
X204724Y236464D02*
Y233964D01*
X204225Y233465D01*
X203225D01*
X202725Y233964D01*
Y236464D01*
X201725Y233964D02*
X201225Y233465D01*
X200226D01*
X199726Y233964D01*
Y235964D01*
X200226Y236464D01*
X201225D01*
X201725Y235964D01*
Y235464D01*
X201225Y234964D01*
X199726D01*
X136137Y336229D02*
Y333730D01*
X135638Y333230D01*
X134638D01*
X134138Y333730D01*
Y336229D01*
X133138Y333230D02*
X132139D01*
X132639D01*
Y336229D01*
X133138Y335729D01*
X130639D02*
X130139Y336229D01*
X129140D01*
X128640Y335729D01*
Y333730D01*
X129140Y333230D01*
X130139D01*
X130639Y333730D01*
Y335729D01*
X61024Y328740D02*
X58025D01*
Y327241D01*
X58524Y326741D01*
X59524D01*
X60024Y327241D01*
Y328740D01*
Y327741D02*
X61024Y326741D01*
X58524Y325741D02*
X58025Y325241D01*
Y324242D01*
X58524Y323742D01*
X59024D01*
X59524Y324242D01*
Y324741D01*
Y324242D01*
X60024Y323742D01*
X60524D01*
X61024Y324242D01*
Y325241D01*
X60524Y325741D01*
X58524Y322742D02*
X58025Y322242D01*
Y321243D01*
X58524Y320743D01*
X60524D01*
X61024Y321243D01*
Y322242D01*
X60524Y322742D01*
X58524D01*
X55512Y327953D02*
X52513D01*
Y326453D01*
X53013Y325953D01*
X54012D01*
X54512Y326453D01*
Y327953D01*
Y326953D02*
X55512Y325953D01*
X53013Y324954D02*
X52513Y324454D01*
Y323454D01*
X53013Y322954D01*
X53513D01*
X54012Y323454D01*
Y323954D01*
Y323454D01*
X54512Y322954D01*
X55012D01*
X55512Y323454D01*
Y324454D01*
X55012Y324954D01*
X55512Y321955D02*
Y320955D01*
Y321455D01*
X52513D01*
X53013Y321955D01*
X234358Y229165D02*
X236357D01*
X236857Y228665D01*
Y227665D01*
X236357Y227165D01*
X234358D01*
X233858Y227665D01*
Y228665D01*
X234858Y228165D02*
X233858Y229165D01*
Y228665D02*
X234358Y229165D01*
X233858Y231664D02*
X236857D01*
X235358Y230164D01*
Y232164D01*
X33465Y329134D02*
X30465D01*
Y327634D01*
X30965Y327134D01*
X31965D01*
X32465Y327634D01*
Y329134D01*
Y328134D02*
X33465Y327134D01*
X30965Y326135D02*
X30465Y325635D01*
Y324635D01*
X30965Y324135D01*
X31465D01*
X31965Y324635D01*
Y325135D01*
Y324635D01*
X32465Y324135D01*
X32965D01*
X33465Y324635D01*
Y325635D01*
X32965Y326135D01*
X33465Y321136D02*
Y323136D01*
X31465Y321136D01*
X30965D01*
X30465Y321636D01*
Y322636D01*
X30965Y323136D01*
X50394Y329134D02*
X47395D01*
Y327634D01*
X47894Y327134D01*
X48894D01*
X49394Y327634D01*
Y329134D01*
Y328134D02*
X50394Y327134D01*
X47894Y326135D02*
X47395Y325635D01*
Y324635D01*
X47894Y324135D01*
X48394D01*
X48894Y324635D01*
Y325135D01*
Y324635D01*
X49394Y324135D01*
X49894D01*
X50394Y324635D01*
Y325635D01*
X49894Y326135D01*
X47894Y323136D02*
X47395Y322636D01*
Y321636D01*
X47894Y321136D01*
X48394D01*
X48894Y321636D01*
Y322136D01*
Y321636D01*
X49394Y321136D01*
X49894D01*
X50394Y321636D01*
Y322636D01*
X49894Y323136D01*
X199182Y214704D02*
X199682Y215204D01*
X200681D01*
X201181Y214704D01*
Y212705D01*
X200681Y212205D01*
X199682D01*
X199182Y212705D01*
X198182Y212205D02*
X197182D01*
X197682D01*
Y215204D01*
X198182Y214704D01*
X193684Y215204D02*
X194683Y214704D01*
X195683Y213704D01*
Y212705D01*
X195183Y212205D01*
X194183D01*
X193684Y212705D01*
Y213204D01*
X194183Y213704D01*
X195683D01*
X77528Y33208D02*
X78028Y33708D01*
X79028D01*
X79528Y33208D01*
Y31209D01*
X79028Y30709D01*
X78028D01*
X77528Y31209D01*
X74529Y30709D02*
X76529D01*
X74529Y32708D01*
Y33208D01*
X75029Y33708D01*
X76029D01*
X76529Y33208D01*
X73529D02*
X73030Y33708D01*
X72030D01*
X71530Y33208D01*
Y31209D01*
X72030Y30709D01*
X73030D01*
X73529Y31209D01*
Y33208D01*
X233040Y317566D02*
X235039D01*
Y316066D01*
X234040D01*
X235039D01*
Y314567D01*
X232040D02*
X231041D01*
X231540D01*
Y317566D01*
X232040Y317066D01*
X79528Y24803D02*
Y27802D01*
X78028D01*
X77528Y27302D01*
Y26303D01*
X78028Y25803D01*
X79528D01*
X78528D02*
X77528Y24803D01*
X76529Y27302D02*
X76029Y27802D01*
X75029D01*
X74529Y27302D01*
Y26803D01*
X75029Y26303D01*
X75529D01*
X75029D01*
X74529Y25803D01*
Y25303D01*
X75029Y24803D01*
X76029D01*
X76529Y25303D01*
X72030Y24803D02*
Y27802D01*
X73529Y26303D01*
X71530D01*
X79528Y42126D02*
Y45125D01*
X78028D01*
X77528Y44625D01*
Y43626D01*
X78028Y43126D01*
X79528D01*
X78528D02*
X77528Y42126D01*
X76529Y44625D02*
X76029Y45125D01*
X75029D01*
X74529Y44625D01*
Y44125D01*
X75029Y43626D01*
X75529D01*
X75029D01*
X74529Y43126D01*
Y42626D01*
X75029Y42126D01*
X76029D01*
X76529Y42626D01*
X71530Y45125D02*
X73529D01*
Y43626D01*
X72530Y44125D01*
X72030D01*
X71530Y43626D01*
Y42626D01*
X72030Y42126D01*
X73030D01*
X73529Y42626D01*
X109449Y168110D02*
Y171109D01*
X107949D01*
X107449Y170609D01*
Y169610D01*
X107949Y169110D01*
X109449D01*
X108449D02*
X107449Y168110D01*
X106450Y170609D02*
X105950Y171109D01*
X104950D01*
X104450Y170609D01*
Y170110D01*
X104950Y169610D01*
X105450D01*
X104950D01*
X104450Y169110D01*
Y168610D01*
X104950Y168110D01*
X105950D01*
X106450Y168610D01*
X101451Y171109D02*
X102451Y170609D01*
X103451Y169610D01*
Y168610D01*
X102951Y168110D01*
X101951D01*
X101451Y168610D01*
Y169110D01*
X101951Y169610D01*
X103451D01*
X218654Y313749D02*
Y315748D01*
X220154D01*
Y314748D01*
Y315748D01*
X221654D01*
X218654Y312749D02*
X221154D01*
X221654Y312249D01*
Y311249D01*
X221154Y310750D01*
X218654D01*
X219154Y307751D02*
X218654Y308250D01*
Y309250D01*
X219154Y309750D01*
X219654D01*
X220154Y309250D01*
Y308250D01*
X220654Y307751D01*
X221154D01*
X221654Y308250D01*
Y309250D01*
X221154Y309750D01*
X218654Y304752D02*
Y306751D01*
X221654D01*
Y304752D01*
X220154Y306751D02*
Y305751D01*
X164305Y26033D02*
X164961Y26689D01*
X166273D01*
X166929Y26033D01*
Y23409D01*
X166273Y22753D01*
X164961D01*
X164305Y23409D01*
X162337Y22753D02*
X161026D01*
X160370Y23409D01*
Y24721D01*
X161026Y25377D01*
X162337D01*
X162993Y24721D01*
Y23409D01*
X162337Y22753D01*
X159058Y21441D02*
Y25377D01*
X157090D01*
X156434Y24721D01*
Y23409D01*
X157090Y22753D01*
X159058D01*
X155122Y25377D02*
Y23409D01*
X154466Y22753D01*
X152498D01*
Y22097D01*
X153154Y21441D01*
X153810D01*
X152498Y22753D02*
Y25377D01*
X151186D02*
Y22753D01*
Y24065D01*
X150530Y24721D01*
X149874Y25377D01*
X149218D01*
X147250Y22753D02*
X145939D01*
X146595D01*
Y25377D01*
X147250D01*
X142659Y21441D02*
X142003D01*
X141347Y22097D01*
Y25377D01*
X143315D01*
X143971Y24721D01*
Y23409D01*
X143315Y22753D01*
X141347D01*
X140035Y26689D02*
Y22753D01*
Y24721D01*
X139379Y25377D01*
X138067D01*
X137411Y24721D01*
Y22753D01*
X135443Y26033D02*
Y25377D01*
X136099D01*
X134787D01*
X135443D01*
Y23409D01*
X134787Y22753D01*
X126260D02*
X128884D01*
X126260Y25377D01*
Y26033D01*
X126916Y26689D01*
X128228D01*
X128884Y26033D01*
X124948D02*
X124292Y26689D01*
X122980D01*
X122324Y26033D01*
Y23409D01*
X122980Y22753D01*
X124292D01*
X124948Y23409D01*
Y26033D01*
X121012Y22753D02*
X119700D01*
X120356D01*
Y26689D01*
X121012Y26033D01*
X115764Y22753D02*
Y26689D01*
X117732Y24721D01*
X115109D01*
D121*
X109425Y-19291D02*
G03*
X109425Y-19291I-11024J0D01*
G01*
X54389Y354509D02*
G03*
X54389Y354509I-11024J0D01*
G01*
X215738Y11791D02*
G03*
X215738Y11791I-11024J0D01*
G01*
X42530Y11824D02*
G03*
X42530Y11824I-11024J0D01*
G01*
X227567Y350405D02*
G03*
X227567Y350405I-11024J0D01*
G01*
D122*
X188227Y263297D02*
G03*
X187904Y239998I5080J-11722D01*
G01*
X184694Y246332D02*
G03*
X188345Y242796I8613J5243D01*
G01*
X198710Y239998D02*
G03*
X198387Y263297I-5403J11577D01*
G01*
X198269Y242796D02*
G03*
X201921Y246332I-4962J8778D01*
G01*
X215659Y200749D02*
G03*
X192360Y201072I-11722J-5080D01*
G01*
X198694Y204283D02*
G03*
X195159Y200631I5243J-8613D01*
G01*
X192360Y190267D02*
G03*
X215659Y190590I11577J5403D01*
G01*
X195159Y190708D02*
G03*
X198694Y187056I8778J4962D01*
G01*
X64906Y91254D02*
G03*
X69828Y91254I2461J0D01*
G01*
X64906Y108971D02*
G03*
X69828Y108971I2461J0D01*
G01*
X64906Y126688D02*
G03*
X69828Y126688I2461J0D01*
G01*
X64906Y144404D02*
G03*
X69828Y144404I2461J0D01*
G01*
X64906Y162120D02*
G03*
X69828Y162120I2461J0D01*
G01*
X64906Y179837D02*
G03*
X69828Y179837I2461J0D01*
G01*
X220472Y222047D02*
Y237008D01*
X232283D01*
Y222047D02*
Y237008D01*
X220472Y222047D02*
X232283D01*
X122441Y136614D02*
Y164173D01*
Y136614D02*
X150000D01*
X122441Y164173D02*
X150000D01*
Y136614D02*
Y164173D01*
X123Y28332D02*
X6029D01*
X123Y55891D02*
X6029D01*
X19808Y28332D02*
X38529D01*
X19808Y55891D02*
X38529D01*
X51713Y56300D02*
X53274D01*
Y46050D02*
Y56300D01*
Y27924D02*
Y38174D01*
X51713Y27924D02*
X53274D01*
X-9719Y32269D02*
Y51954D01*
X123Y28332D02*
Y55891D01*
X-9719Y32269D02*
X123D01*
X-9719Y51954D02*
X123D01*
X217323Y102953D02*
X221260D01*
X215354Y104921D02*
X223228D01*
X213386Y106890D02*
X225197D01*
X211417Y108858D02*
X227165D01*
X209449Y110827D02*
X229134D01*
X209449D02*
X219291D01*
Y118701D01*
X201969Y242913D02*
X202958Y243903D01*
Y244297D01*
X186806Y241924D02*
X187402Y242520D01*
X186806Y241789D02*
Y241924D01*
Y241789D02*
Y242913D01*
X186412Y242520D02*
X186806Y242913D01*
X186284Y242520D02*
X186412D01*
X186180Y242416D02*
X186284Y242520D01*
X186180Y242416D02*
Y244135D01*
X185351Y243307D02*
X186180Y244135D01*
X185288Y243307D02*
X185351D01*
X185288D02*
X187045Y241551D01*
X187381D01*
X187876Y242045D01*
Y241732D02*
Y242045D01*
X187048Y240904D02*
X187876Y241732D01*
X185288Y242665D02*
X187048Y240904D01*
X185288Y242665D02*
Y244295D01*
X185433Y244440D01*
Y244882D01*
X187402Y242913D01*
Y242520D02*
Y242913D01*
Y242520D02*
X188344Y241578D01*
X188345D01*
X187360Y240593D02*
X188345Y241578D01*
X185712Y242241D02*
X187360Y240593D01*
X184924Y242241D02*
X185712D01*
X184646Y242520D02*
X184924Y242241D01*
X184646Y242520D02*
Y246284D01*
X184694Y246332D01*
Y243259D02*
Y246332D01*
Y243259D02*
X187905Y240048D01*
Y239998D02*
Y240048D01*
Y239998D02*
X188345Y240439D01*
Y242796D01*
X179528Y237795D02*
Y261575D01*
Y237795D02*
X187795D01*
X182015Y246332D02*
X184694D01*
X182015Y245938D02*
Y246332D01*
Y245938D02*
X184694Y243259D01*
Y245621D01*
X183983Y246332D02*
X184694Y245621D01*
X182677Y246332D02*
X183983D01*
X182677D02*
X182760Y246249D01*
Y245193D02*
Y246249D01*
Y245193D02*
X183071Y244882D01*
X184646D01*
X183879Y244115D02*
X184646Y244882D01*
X183465Y244529D02*
X183879Y244115D01*
X183465Y244529D02*
Y246332D01*
X184521Y245276D01*
X183465D02*
X184521D01*
X183465D02*
X185944Y242796D01*
X188345D01*
Y240439D02*
Y242796D01*
X188191Y240593D02*
X188345Y240439D01*
X187360Y240593D02*
X188191D01*
X199213Y242520D02*
X199808Y241924D01*
Y241789D02*
Y241924D01*
Y241789D02*
Y242913D01*
X200202Y242520D01*
X200330D01*
X200435Y242416D01*
Y244135D01*
X201263Y243307D01*
X201326D01*
X199570Y241551D02*
X201326Y243307D01*
X199233Y241551D02*
X199570D01*
X198738Y242045D02*
X199233Y241551D01*
X198738Y241732D02*
Y242045D01*
Y241732D02*
X199566Y240904D01*
X201326Y242665D01*
Y244295D01*
X201181Y244440D02*
X201326Y244295D01*
X201181Y244440D02*
Y244882D01*
X199213Y242913D02*
X201181Y244882D01*
X199213Y242520D02*
Y242913D01*
X198271Y241578D02*
X199213Y242520D01*
X198269Y241578D02*
X198271D01*
X198269D02*
X199254Y240593D01*
X200903Y242241D01*
X201690D01*
X201969Y242520D01*
Y246284D01*
X201921Y246332D02*
X201969Y246284D01*
X201921Y243259D02*
Y246332D01*
X198710Y240048D02*
X201921Y243259D01*
X198710Y239998D02*
Y240048D01*
X198269Y240439D02*
X198710Y239998D01*
X198269Y240439D02*
Y242796D01*
X207087Y237795D02*
Y261575D01*
X198819Y237795D02*
X207087D01*
X201921Y246332D02*
X204600D01*
Y245938D02*
Y246332D01*
X201921Y243259D02*
X204600Y245938D01*
X201921Y243259D02*
Y245621D01*
X202631Y246332D01*
X203937D01*
X203854Y246249D02*
X203937Y246332D01*
X203854Y245193D02*
Y246249D01*
X203543Y244882D02*
X203854Y245193D01*
X201969Y244882D02*
X203543D01*
X201969D02*
X202736Y244115D01*
X203150Y244529D01*
Y246332D01*
X202093Y245276D02*
X203150Y246332D01*
X202093Y245276D02*
X203150D01*
X200670Y242796D02*
X203150Y245276D01*
X198269Y242796D02*
X200670D01*
X198269Y240439D02*
Y242796D01*
Y240439D02*
X198423Y240593D01*
X199254D01*
X179528Y261575D02*
X183307Y265354D01*
X203307D02*
X207087Y261575D01*
X199528Y265354D02*
X203307D01*
X183307D02*
X187087D01*
X192480Y137992D02*
X212480D01*
X192480Y167992D02*
X212480D01*
Y137992D02*
Y167992D01*
X192480Y137992D02*
Y167992D01*
X195276Y187008D02*
X196265Y186018D01*
X196659D01*
X194286Y202170D02*
X194882Y201575D01*
X194151Y202170D02*
X194286D01*
X194151D02*
X195276D01*
X194882Y202564D02*
X195276Y202170D01*
X194882Y202564D02*
Y202693D01*
X194778Y202797D02*
X194882Y202693D01*
X194778Y202797D02*
X196498D01*
X195669Y203625D02*
X196498Y202797D01*
X195669Y203625D02*
Y203688D01*
X193913Y201932D02*
X195669Y203688D01*
X193913Y201595D02*
Y201932D01*
Y201595D02*
X194407Y201100D01*
X194095D02*
X194407D01*
X193267Y201928D02*
X194095Y201100D01*
X193267Y201928D02*
X195027Y203688D01*
X196658D01*
X196802Y203543D01*
X197244D01*
X195276Y201575D02*
X197244Y203543D01*
X194882Y201575D02*
X195276D01*
X193940Y200633D02*
X194882Y201575D01*
X193940Y200631D02*
Y200633D01*
X192955Y201616D02*
X193940Y200631D01*
X192955Y201616D02*
X194604Y203265D01*
Y204052D01*
X194882Y204331D01*
X198646D01*
X198694Y204283D01*
X195621D02*
X198694D01*
X192411Y201072D02*
X195621Y204283D01*
X192360Y201072D02*
X192411D01*
X192360D02*
X192801Y200631D01*
X195159D01*
X190157Y209449D02*
X213937D01*
X190157Y201181D02*
Y209449D01*
X198694Y204283D02*
Y206962D01*
X198300D02*
X198694D01*
X195621Y204283D02*
X198300Y206962D01*
X195621Y204283D02*
X197984D01*
X198694Y204993D01*
Y206299D01*
X198611Y206216D02*
X198694Y206299D01*
X197555Y206216D02*
X198611D01*
X197244Y205906D02*
X197555Y206216D01*
X197244Y204331D02*
Y205906D01*
X196477Y205098D02*
X197244Y204331D01*
X196477Y205098D02*
X196891Y205512D01*
X198694D01*
X197638Y204456D02*
X198694Y205512D01*
X197638Y204456D02*
Y205512D01*
X195159Y203033D02*
X197638Y205512D01*
X195159Y200631D02*
Y203033D01*
X192801Y200631D02*
X195159D01*
X192801D02*
X192955Y200785D01*
Y201616D01*
X194286Y189168D02*
X194882Y189764D01*
X194151Y189168D02*
X194286D01*
X194151D02*
X195276D01*
X194882Y188775D02*
X195276Y189168D01*
X194882Y188646D02*
Y188775D01*
X194778Y188542D02*
X194882Y188646D01*
X194778Y188542D02*
X196498D01*
X195669Y187714D02*
X196498Y188542D01*
X195669Y187650D02*
Y187714D01*
X193913Y189407D02*
X195669Y187650D01*
X193913Y189407D02*
Y189744D01*
X194407Y190238D01*
X194095D02*
X194407D01*
X193267Y189410D02*
X194095Y190238D01*
X193267Y189410D02*
X195027Y187650D01*
X196658D01*
X196802Y187795D01*
X197244D01*
X195276Y189764D02*
X197244Y187795D01*
X194882Y189764D02*
X195276D01*
X193940Y190706D02*
X194882Y189764D01*
X193940Y190706D02*
Y190708D01*
X192955Y189722D02*
X193940Y190708D01*
X192955Y189722D02*
X194604Y188074D01*
Y187286D02*
Y188074D01*
Y187286D02*
X194882Y187008D01*
X198646D01*
X198694Y187056D01*
X195621D02*
X198694D01*
X192411Y190267D02*
X195621Y187056D01*
X192360Y190267D02*
X192411D01*
X192360D02*
X192801Y190708D01*
X195159D01*
X190157Y181890D02*
X213937D01*
X190157D02*
Y190157D01*
X198694Y184377D02*
Y187056D01*
X198300Y184377D02*
X198694D01*
X195621Y187056D02*
X198300Y184377D01*
X195621Y187056D02*
X197984D01*
X198694Y186345D01*
Y185039D02*
Y186345D01*
X198611Y185122D02*
X198694Y185039D01*
X197555Y185122D02*
X198611D01*
X197244Y185433D02*
X197555Y185122D01*
X197244Y185433D02*
Y187008D01*
X196477Y186241D02*
X197244Y187008D01*
X196477Y186241D02*
X196891Y185827D01*
X198694D01*
X197638Y186883D02*
X198694Y185827D01*
X197638D02*
Y186883D01*
X195159Y188306D02*
X197638Y185827D01*
X195159Y188306D02*
Y190708D01*
X192801D02*
X195159D01*
X192801D02*
X192955Y190554D01*
Y189722D02*
Y190554D01*
X213937Y209449D02*
X217717Y205669D01*
X213937Y181890D02*
X217717Y185669D01*
Y189449D01*
Y201890D02*
Y205669D01*
X168803Y161614D02*
X168803Y161614D01*
X166040Y161614D02*
X168803D01*
X166040Y150197D02*
X168803D01*
Y161614D01*
X166040Y150197D02*
Y161614D01*
X168803Y161614D02*
X168803Y161614D01*
X128784Y311117D02*
X135871D01*
X128784Y330802D02*
X135871D01*
X128784Y311117D02*
Y330802D01*
X135871Y311117D02*
Y330802D01*
X65989Y282967D02*
X115989D01*
X65989Y232967D02*
X115989D01*
Y282967D01*
X65989Y232967D02*
Y282967D01*
X76029Y76097D02*
Y91254D01*
X58706Y76097D02*
X76029D01*
X58706D02*
Y91254D01*
X69828D02*
X76029D01*
X58706D02*
X64906D01*
X76029Y93814D02*
Y108971D01*
X58706Y93814D02*
X76029D01*
X58706D02*
Y108971D01*
X69828D02*
X76029D01*
X58706D02*
X64906D01*
X76029Y111530D02*
Y126688D01*
X58706Y111530D02*
X76029D01*
X58706D02*
Y126688D01*
X69828D02*
X76029D01*
X58706D02*
X64906D01*
X76029Y129246D02*
Y144404D01*
X58706Y129246D02*
X76029D01*
X58706D02*
Y144404D01*
X69828D02*
X76029D01*
X58706D02*
X64906D01*
X76029Y146963D02*
Y162120D01*
X58706Y146963D02*
X76029D01*
X58706D02*
Y162120D01*
X69828D02*
X76029D01*
X58706D02*
X64906D01*
X76029Y164680D02*
Y179837D01*
X58706Y164680D02*
X76029D01*
X58706D02*
Y179837D01*
X69828D02*
X76029D01*
X58706D02*
X64906D01*
X113718Y-6198D02*
X152123D01*
Y-32198D02*
Y-6198D01*
X152218Y-9698D02*
X158718D01*
X152218Y-28698D02*
X158718D01*
X113674Y-6198D02*
X113674Y-32197D01*
X113718Y-32198D02*
X152123D01*
X158718Y-28698D02*
Y-9698D01*
X-6629Y108171D02*
Y127171D01*
X-34Y130671D02*
X38371D01*
X38415Y130670D02*
X38415Y104671D01*
X-6629Y127171D02*
X-129D01*
X-6629Y108171D02*
X-129D01*
X-34Y104671D02*
Y130671D01*
Y104671D02*
X38371D01*
X-34Y65301D02*
X38371D01*
X-34D02*
Y91301D01*
X-6629Y68801D02*
X-129D01*
X-6629Y87801D02*
X-129D01*
X38414Y91300D02*
X38415Y65301D01*
X-34Y91301D02*
X38371D01*
X-6629Y68801D02*
Y87801D01*
X-6629Y147541D02*
Y166541D01*
X-34Y170041D02*
X38371D01*
X38415Y170040D02*
X38415Y144041D01*
X-6629Y166541D02*
X-129D01*
X-6629Y147541D02*
X-129D01*
X-34Y144041D02*
Y170041D01*
Y144041D02*
X38371D01*
X205315Y226181D02*
X217520D01*
X205315Y224213D02*
X217520D01*
X205315D02*
Y226181D01*
X217520Y224213D02*
Y226181D01*
X235433Y249311D02*
Y252264D01*
X214961Y249311D02*
Y252264D01*
X129134Y116928D02*
X127822D01*
X128478D01*
Y112992D01*
X129134D01*
X127822D01*
X125854D02*
X123886D01*
X123230Y113648D01*
X123886Y114304D01*
X125198D01*
X125854Y114960D01*
X125198Y115616D01*
X123230D01*
X121918Y112992D02*
X119950D01*
X119295Y113648D01*
X119950Y114304D01*
X121262D01*
X121918Y114960D01*
X121262Y115616D01*
X119295D01*
X117983D02*
Y113648D01*
X117327Y112992D01*
X115359D01*
Y115616D01*
X112079Y112992D02*
X113391D01*
X114047Y113648D01*
Y114960D01*
X113391Y115616D01*
X112079D01*
X111423Y114960D01*
Y114304D01*
X114047D01*
X104208Y112992D02*
Y116928D01*
X106175Y114960D01*
X103552D01*
X102240Y112992D02*
Y113648D01*
X101584D01*
Y112992D01*
X102240D01*
X98960Y116272D02*
X98304Y116928D01*
X96992D01*
X96336Y116272D01*
Y113648D01*
X96992Y112992D01*
X98304D01*
X98960Y113648D01*
Y116272D01*
X192913Y116928D02*
X190290D01*
X191602D01*
Y112992D01*
X188978D02*
Y116928D01*
X187010D01*
X186354Y116272D01*
Y114960D01*
X187010Y114304D01*
X188978D01*
X187666D02*
X186354Y112992D01*
X185042Y116928D02*
X183730D01*
X184386D01*
Y112992D01*
X185042D01*
X183730D01*
X181762Y116272D02*
X181106Y116928D01*
X179794D01*
X179138Y116272D01*
Y113648D01*
X179794Y112992D01*
X181106D01*
X181762Y113648D01*
Y116272D01*
X177826D02*
X177170Y116928D01*
X175858D01*
X175203Y116272D01*
Y113648D01*
X175858Y112992D01*
X177170D01*
X177826Y113648D01*
Y116272D01*
X171267Y112992D02*
X173891D01*
X171267Y115616D01*
Y116272D01*
X171923Y116928D01*
X173235D01*
X173891Y116272D01*
X166019Y116928D02*
Y112992D01*
X164051D01*
X163395Y113648D01*
Y114304D01*
X164051Y114960D01*
X166019D01*
X164051D01*
X163395Y115616D01*
Y116272D01*
X164051Y116928D01*
X166019D01*
X161427Y115616D02*
X160116D01*
X159460Y114960D01*
Y112992D01*
X161427D01*
X162083Y113648D01*
X161427Y114304D01*
X159460D01*
X158148Y112992D02*
X156180D01*
X155524Y113648D01*
X156180Y114304D01*
X157492D01*
X158148Y114960D01*
X157492Y115616D01*
X155524D01*
X152244Y112992D02*
X153556D01*
X154212Y113648D01*
Y114960D01*
X153556Y115616D01*
X152244D01*
X151588Y114960D01*
Y114304D01*
X154212D01*
X150276Y116928D02*
Y112992D01*
X148308D01*
X147652Y113648D01*
Y114304D01*
Y114960D01*
X148308Y115616D01*
X150276D01*
X146341Y112992D02*
X145029D01*
X145685D01*
Y116928D01*
X146341D01*
X142405Y112992D02*
X141093D01*
X140437Y113648D01*
Y114960D01*
X141093Y115616D01*
X142405D01*
X143061Y114960D01*
Y113648D01*
X142405Y112992D01*
X136501Y115616D02*
X138469D01*
X139125Y114960D01*
Y113648D01*
X138469Y112992D01*
X136501D01*
X135189D02*
Y116928D01*
Y114304D02*
X133221Y115616D01*
X135189Y114304D02*
X133221Y112992D01*
X192126Y106693D02*
X190814D01*
X191470D01*
Y110629D01*
X192126Y109973D01*
X188846D02*
X188190Y110629D01*
X186878D01*
X186222Y109973D01*
Y109317D01*
X186878Y108661D01*
X187534D01*
X186878D01*
X186222Y108005D01*
Y107349D01*
X186878Y106693D01*
X188190D01*
X188846Y107349D01*
X184911Y106693D02*
X182287Y109317D01*
X180975Y106693D02*
X179663D01*
X180319D01*
Y110629D01*
X180975Y109973D01*
X177695D02*
X177039Y110629D01*
X175727D01*
X175071Y109973D01*
Y107349D01*
X175727Y106693D01*
X177039D01*
X177695Y107349D01*
Y109973D01*
X173759Y106693D02*
X171135Y109317D01*
X167200Y106693D02*
X169824D01*
X167200Y109317D01*
Y109973D01*
X167856Y110629D01*
X169167D01*
X169824Y109973D01*
X165888D02*
X165232Y110629D01*
X163920D01*
X163264Y109973D01*
Y107349D01*
X163920Y106693D01*
X165232D01*
X165888Y107349D01*
Y109973D01*
X161952Y106693D02*
X160640D01*
X161296D01*
Y110629D01*
X161952Y109973D01*
X156704Y106693D02*
Y110629D01*
X158672Y108661D01*
X156048D01*
X188753Y124269D02*
X190721D01*
X191376Y123613D01*
Y122301D01*
X190721Y121645D01*
X188753D01*
X183505Y125581D02*
X180881D01*
X182193D01*
Y121645D01*
X179569Y124269D02*
Y121645D01*
Y122957D01*
X178913Y123613D01*
X178257Y124269D01*
X177601D01*
X175634Y121645D02*
X174322D01*
X174978D01*
Y124269D01*
X175634D01*
X171042Y120333D02*
X170386D01*
X169730Y120989D01*
Y124269D01*
X171698D01*
X172354Y123613D01*
Y122301D01*
X171698Y121645D01*
X169730D01*
X167106Y120333D02*
X166450D01*
X165794Y120989D01*
Y124269D01*
X167762D01*
X168418Y123613D01*
Y122301D01*
X167762Y121645D01*
X165794D01*
X162514D02*
X163826D01*
X164482Y122301D01*
Y123613D01*
X163826Y124269D01*
X162514D01*
X161858Y123613D01*
Y122957D01*
X164482D01*
X160547Y124269D02*
Y121645D01*
Y122957D01*
X159891Y123613D01*
X159235Y124269D01*
X158579D01*
X155955Y124925D02*
Y124269D01*
X156611D01*
X155299D01*
X155955D01*
Y122301D01*
X155299Y121645D01*
X153331Y124269D02*
Y121645D01*
Y122957D01*
X152675Y123613D01*
X152019Y124269D01*
X151363D01*
X148739D02*
X147427D01*
X146772Y123613D01*
Y121645D01*
X148739D01*
X149395Y122301D01*
X148739Y122957D01*
X146772D01*
X145460Y120333D02*
Y124269D01*
X143492D01*
X142836Y123613D01*
Y122301D01*
X143492Y121645D01*
X145460D01*
X137588Y125581D02*
Y121645D01*
X134964D01*
X132996Y124925D02*
Y124269D01*
X133652D01*
X132340D01*
X132996D01*
Y122301D01*
X132340Y121645D01*
X127749Y125581D02*
Y121645D01*
X129717D01*
X130373Y122301D01*
Y123613D01*
X129717Y124269D01*
X127749D01*
D123*
X133509Y327652D02*
G03*
X133509Y327652I-787J0D01*
G01*
D124*
X142170Y332662D02*
G03*
X142170Y332662I-492J0D01*
G01*
X61363Y231097D02*
G03*
X61363Y231097I-492J0D01*
G01*
X219094Y220472D02*
G03*
X219094Y220472I-492J0D01*
G01*
D125*
X71107Y236904D02*
G03*
X71107Y236904I-1181J0D01*
G01*
D126*
X77800Y93518D02*
G03*
X77800Y93518I-984J0D01*
G01*
Y111235D02*
G03*
X77800Y111235I-984J0D01*
G01*
Y128951D02*
G03*
X77800Y128951I-984J0D01*
G01*
Y146668D02*
G03*
X77800Y146668I-984J0D01*
G01*
Y164384D02*
G03*
X77800Y164384I-984J0D01*
G01*
Y182101D02*
G03*
X77800Y182101I-984J0D01*
G01*
X163672Y61323D02*
Y95181D01*
Y61323D02*
X189361D01*
Y95181D01*
X163672D02*
X189361D01*
D127*
X175448Y55707D02*
X181248D01*
X181648D02*
X195048D01*
X175448Y55507D02*
X181248D01*
X181648D02*
X195048D01*
X175448Y55307D02*
X181248D01*
X181648D02*
X195048D01*
X175448Y55107D02*
X181248D01*
X181648D02*
X195048D01*
X175448Y54907D02*
X181248D01*
X181648D02*
X195048D01*
X175448Y54707D02*
X181248D01*
X181648D02*
X195048D01*
X175448Y54507D02*
X181248D01*
X181648D02*
X195048D01*
X175448Y54307D02*
X181248D01*
X181648D02*
X195048D01*
X175448Y54107D02*
X181248D01*
X181648D02*
X195048D01*
X175448Y53907D02*
X181248D01*
X181648D02*
X195048D01*
X175448Y53707D02*
X181248D01*
X181648D02*
X195048D01*
X175448Y53507D02*
X181248D01*
X181648D02*
X195048D01*
X175448Y53307D02*
X181248D01*
X181648D02*
X195048D01*
X175448Y53107D02*
X181248D01*
X181648D02*
X195048D01*
X175448Y52907D02*
X181248D01*
X181648D02*
X195048D01*
X175448Y52707D02*
X181248D01*
X181648D02*
X195048D01*
X175448Y52507D02*
X181248D01*
X181648D02*
X195048D01*
X175448Y52307D02*
X181248D01*
X181648D02*
X195048D01*
X175448Y52107D02*
X181248D01*
X181648D02*
X195048D01*
X175448Y51907D02*
X181248D01*
X181648D02*
X195048D01*
X175448Y51707D02*
X181248D01*
X181648D02*
X195048D01*
X175448Y51507D02*
X181248D01*
X181648D02*
X195048D01*
X175448Y51307D02*
X181248D01*
X181648D02*
X195048D01*
X157048Y51107D02*
X157248D01*
X175448D02*
X181248D01*
X181648D02*
X195048D01*
X156848Y50907D02*
X158048D01*
X175448D02*
X181248D01*
X181648D02*
X195048D01*
X156448Y50707D02*
X158448D01*
X175448D02*
X181248D01*
X181648D02*
X195048D01*
X156048Y50507D02*
X158648D01*
X175448D02*
X181248D01*
X181648D02*
X195048D01*
X155848Y50307D02*
X158648D01*
X158848D02*
X159048D01*
X175448D02*
X181248D01*
X181648D02*
X195048D01*
X155848Y50107D02*
X159048D01*
X165848D02*
X173048D01*
X175448D02*
X181248D01*
X185448D02*
X195048D01*
X155648Y49907D02*
X158848D01*
X159048D02*
X159248D01*
X165848D02*
X173048D01*
X175448D02*
X181248D01*
X185448D02*
X191248D01*
X155648Y49707D02*
X159248D01*
X165848D02*
X173048D01*
X175448D02*
X185048D01*
X185448D02*
X191248D01*
X155448Y49507D02*
X159448D01*
X165848D02*
X173048D01*
X175448D02*
X185048D01*
X185448D02*
X191248D01*
X155448Y49307D02*
X159248D01*
X165848D02*
X173048D01*
X175448D02*
X185048D01*
X185448D02*
X191248D01*
X155448Y49107D02*
X159448D01*
X165848D02*
X173048D01*
X175448D02*
X185048D01*
X185448D02*
X191248D01*
X118048Y48907D02*
X121248D01*
X155448D02*
X159448D01*
X165848D02*
X173048D01*
X175448D02*
X185048D01*
X185448D02*
X191248D01*
X118048Y48707D02*
X121248D01*
X155448D02*
X159448D01*
X165848D02*
X173048D01*
X175448D02*
X185048D01*
X185448D02*
X191248D01*
X118048Y48507D02*
X121248D01*
X155448D02*
X159248D01*
X165848D02*
X173048D01*
X175448D02*
X185048D01*
X185448D02*
X191248D01*
X118048Y48307D02*
X121248D01*
X155848D02*
X159248D01*
X165848D02*
X173048D01*
X175448D02*
X185048D01*
X185448D02*
X191248D01*
X118048Y48107D02*
X121248D01*
X155848D02*
X158848D01*
X159048D02*
X159248D01*
X165848D02*
X173048D01*
X175448D02*
X185048D01*
X185448D02*
X191248D01*
X118048Y47907D02*
X121248D01*
X156048D02*
X159048D01*
X165848D02*
X173048D01*
X175448D02*
X185048D01*
X185448D02*
X191248D01*
X118048Y47707D02*
X121248D01*
X156048D02*
X158848D01*
X165848D02*
X173048D01*
X175448D02*
X185048D01*
X185448D02*
X191248D01*
X118048Y47507D02*
X121248D01*
X156448D02*
X158448D01*
X165848D02*
X173048D01*
X175448D02*
X185048D01*
X185448D02*
X191248D01*
X118048Y47307D02*
X121248D01*
X156848D02*
X157448D01*
X157648D02*
X158048D01*
X165848D02*
X173048D01*
X175448D02*
X185048D01*
X185448D02*
X191248D01*
X118048Y47107D02*
X121248D01*
X165848D02*
X172848D01*
X175448D02*
X185048D01*
X185448D02*
X191248D01*
X118048Y46907D02*
X121248D01*
X167648D02*
X171248D01*
X175448D02*
X185048D01*
X185448D02*
X191248D01*
X110848Y46707D02*
X111448D01*
X118048D02*
X121248D01*
X122448D02*
X122848D01*
X123048D02*
X123248D01*
X142448D02*
X143648D01*
X151448D02*
X152448D01*
X159848D02*
X160448D01*
X167648D02*
X171248D01*
X175448D02*
X185048D01*
X185448D02*
X191248D01*
X95248Y46507D02*
X96448D01*
X96648D02*
X97048D01*
X97848D02*
X101048D01*
X102448D02*
X105648D01*
X107248D02*
X108048D01*
X110848D02*
X112048D01*
X113048D02*
X116248D01*
X117048D02*
X122248D01*
X122448D02*
X123848D01*
X124648D02*
X128048D01*
X131848D02*
X133848D01*
X137848D02*
X141248D01*
X142248D02*
X144248D01*
X146848D02*
X150248D01*
X151248D02*
X153048D01*
X155848D02*
X159048D01*
X159848D02*
X161048D01*
X162048D02*
X165248D01*
X167648D02*
X171248D01*
X175448D02*
X185048D01*
X185448D02*
X191248D01*
X94848Y46307D02*
X97448D01*
X97848D02*
X101048D01*
X102448D02*
X105648D01*
X106648D02*
X108648D01*
X110848D02*
X112248D01*
X113048D02*
X116248D01*
X117048D02*
X122248D01*
X122448D02*
X124048D01*
X124648D02*
X128048D01*
X131248D02*
X133648D01*
X133848D02*
X134448D01*
X137848D02*
X141248D01*
X141848D02*
X144448D01*
X146848D02*
X150248D01*
X150648D02*
X153448D01*
X155848D02*
X159048D01*
X159848D02*
X161248D01*
X162048D02*
X165248D01*
X167648D02*
X171248D01*
X175448D02*
X185048D01*
X185448D02*
X191248D01*
X94648Y46107D02*
X97448D01*
X97848D02*
X101048D01*
X102448D02*
X105648D01*
X106448D02*
X108848D01*
X110848D02*
X112648D01*
X113048D02*
X116248D01*
X117048D02*
X122248D01*
X122448D02*
X124248D01*
X124648D02*
X128048D01*
X130848D02*
X135048D01*
X137848D02*
X141248D01*
X141648D02*
X144648D01*
X146848D02*
X150248D01*
X150448D02*
X153448D01*
X155848D02*
X159048D01*
X159848D02*
X161648D01*
X162048D02*
X165248D01*
X167648D02*
X171248D01*
X175448D02*
X185048D01*
X185448D02*
X191248D01*
X94448Y45907D02*
X97648D01*
X97848D02*
X101048D01*
X102448D02*
X105648D01*
X106048D02*
X109048D01*
X110848D02*
X112648D01*
X113048D02*
X116248D01*
X117048D02*
X122248D01*
X122448D02*
X124448D01*
X124648D02*
X128048D01*
X130448D02*
X130848D01*
X131048D02*
X135048D01*
X137848D02*
X141248D01*
X141448D02*
X144848D01*
X146848D02*
X153648D01*
X155848D02*
X159048D01*
X159848D02*
X161648D01*
X162048D02*
X165248D01*
X167648D02*
X171248D01*
X175448D02*
X185048D01*
X185448D02*
X191248D01*
X94248Y45707D02*
X101048D01*
X102448D02*
X105648D01*
X105848D02*
X109448D01*
X110848D02*
X112848D01*
X113048D02*
X116248D01*
X117048D02*
X122248D01*
X122448D02*
X124448D01*
X124648D02*
X128048D01*
X130248D02*
X130448D01*
X130648D02*
X135248D01*
X137848D02*
X144848D01*
X146848D02*
X153848D01*
X155848D02*
X159048D01*
X159848D02*
X161848D01*
X162048D02*
X165248D01*
X167648D02*
X171248D01*
X175448D02*
X185048D01*
X185448D02*
X191248D01*
X94048Y45507D02*
X101048D01*
X102448D02*
X109448D01*
X110848D02*
X116248D01*
X117048D02*
X122248D01*
X122448D02*
X124648D01*
X124848D02*
X128048D01*
X130048D02*
X130248D01*
X130448D02*
X135448D01*
X137848D02*
X145048D01*
X146848D02*
X154048D01*
X155848D02*
X159048D01*
X159848D02*
X162048D01*
X162248D02*
X165248D01*
X167648D02*
X171248D01*
X175448D02*
X185048D01*
X185448D02*
X191248D01*
X93848Y45307D02*
X101048D01*
X102448D02*
X109448D01*
X110848D02*
X116248D01*
X117048D02*
X122248D01*
X122448D02*
X128048D01*
X130048D02*
X135648D01*
X137848D02*
X145048D01*
X146848D02*
X154048D01*
X155848D02*
X159048D01*
X159848D02*
X162048D01*
X162248D02*
X165248D01*
X167648D02*
X171248D01*
X175448D02*
X185048D01*
X185448D02*
X191248D01*
X93848Y45107D02*
X101048D01*
X102448D02*
X109848D01*
X110848D02*
X116248D01*
X117048D02*
X122248D01*
X122448D02*
X128048D01*
X129848D02*
X135848D01*
X137848D02*
X145248D01*
X146848D02*
X154248D01*
X155848D02*
X159048D01*
X159848D02*
X165248D01*
X167648D02*
X171248D01*
X175448D02*
X185048D01*
X185448D02*
X191248D01*
X93648Y44907D02*
X101048D01*
X102448D02*
X109848D01*
X110848D02*
X116248D01*
X117048D02*
X122248D01*
X122448D02*
X128048D01*
X129848D02*
X136048D01*
X137848D02*
X145448D01*
X146848D02*
X154248D01*
X155848D02*
X159048D01*
X159848D02*
X165248D01*
X167648D02*
X171248D01*
X175448D02*
X185048D01*
X185448D02*
X191248D01*
X93648Y44707D02*
X101048D01*
X102448D02*
X109848D01*
X110848D02*
X116248D01*
X117048D02*
X122248D01*
X122448D02*
X128048D01*
X129648D02*
X136048D01*
X137848D02*
X145448D01*
X146848D02*
X154248D01*
X155848D02*
X159048D01*
X159848D02*
X165248D01*
X167648D02*
X171248D01*
X175448D02*
X185048D01*
X185448D02*
X191248D01*
X93448Y44507D02*
X101048D01*
X102448D02*
X110048D01*
X110848D02*
X116248D01*
X117048D02*
X122248D01*
X122448D02*
X128048D01*
X129448D02*
X136248D01*
X137848D02*
X145448D01*
X146848D02*
X154448D01*
X155848D02*
X159048D01*
X159848D02*
X165248D01*
X167648D02*
X171248D01*
X175448D02*
X185048D01*
X185448D02*
X191248D01*
X93448Y44307D02*
X101048D01*
X102448D02*
X110048D01*
X110848D02*
X116248D01*
X117048D02*
X122248D01*
X122448D02*
X128048D01*
X129248D02*
X136648D01*
X137848D02*
X145448D01*
X146848D02*
X154448D01*
X155848D02*
X159048D01*
X159848D02*
X165248D01*
X167648D02*
X171248D01*
X175448D02*
X185048D01*
X185448D02*
X191248D01*
X93448Y44107D02*
X101048D01*
X102448D02*
X110048D01*
X110848D02*
X116248D01*
X117048D02*
X122248D01*
X122448D02*
X128048D01*
X129048D02*
X136648D01*
X137848D02*
X145648D01*
X146848D02*
X154448D01*
X155848D02*
X159048D01*
X159848D02*
X165248D01*
X167648D02*
X171248D01*
X175448D02*
X185048D01*
X185448D02*
X191248D01*
X93248Y43907D02*
X101048D01*
X102448D02*
X110248D01*
X110848D02*
X116248D01*
X117048D02*
X122048D01*
X122448D02*
X128048D01*
X129248D02*
X132648D01*
X133248D02*
X136848D01*
X137848D02*
X141448D01*
X142048D02*
X145648D01*
X146848D02*
X150248D01*
X151048D02*
X154648D01*
X155848D02*
X159048D01*
X159848D02*
X165248D01*
X167648D02*
X171248D01*
X175448D02*
X181248D01*
X185448D02*
X191248D01*
X93248Y43707D02*
X96648D01*
X97448D02*
X101048D01*
X102448D02*
X105848D01*
X106648D02*
X110248D01*
X110848D02*
X116248D01*
X118048D02*
X121248D01*
X122448D02*
X128048D01*
X129248D02*
X132448D01*
X133448D02*
X136848D01*
X137848D02*
X141248D01*
X142248D02*
X145648D01*
X146848D02*
X150248D01*
X151048D02*
X154648D01*
X155848D02*
X159048D01*
X159848D02*
X165248D01*
X167648D02*
X171248D01*
X175448D02*
X181248D01*
X185448D02*
X191248D01*
X93248Y43507D02*
X96648D01*
X97448D02*
X101048D01*
X102448D02*
X105848D01*
X106648D02*
X110248D01*
X110848D02*
X116248D01*
X118048D02*
X121248D01*
X122448D02*
X128048D01*
X129048D02*
X132448D01*
X133648D02*
X136648D01*
X137848D02*
X141248D01*
X142248D02*
X145848D01*
X146848D02*
X150248D01*
X151248D02*
X154648D01*
X155848D02*
X159048D01*
X159848D02*
X165248D01*
X167648D02*
X171248D01*
X175448D02*
X181248D01*
X185448D02*
X191248D01*
X93248Y43307D02*
X96648D01*
X97648D02*
X101048D01*
X102448D02*
X105848D01*
X106848D02*
X110248D01*
X110848D02*
X111448D01*
X111848D02*
X116248D01*
X118048D02*
X121248D01*
X122448D02*
X123048D01*
X123648D02*
X128048D01*
X129048D02*
X136648D01*
X137848D02*
X141248D01*
X142248D02*
X145848D01*
X146848D02*
X150248D01*
X151248D02*
X154648D01*
X155848D02*
X159048D01*
X159848D02*
X160448D01*
X160848D02*
X165248D01*
X167648D02*
X171248D01*
X175448D02*
X181248D01*
X185448D02*
X191248D01*
X93248Y43107D02*
X96448D01*
X97648D02*
X101048D01*
X102448D02*
X105648D01*
X106848D02*
X110248D01*
X112248D02*
X116248D01*
X118048D02*
X121248D01*
X122448D02*
X122648D01*
X123848D02*
X128048D01*
X129048D02*
X136848D01*
X137848D02*
X141248D01*
X142448D02*
X145848D01*
X146848D02*
X150048D01*
X151248D02*
X154648D01*
X155848D02*
X159048D01*
X159848D02*
X160048D01*
X161248D02*
X165248D01*
X167648D02*
X171248D01*
X175448D02*
X181248D01*
X185448D02*
X191248D01*
X93248Y42907D02*
X96448D01*
X97648D02*
X101048D01*
X102448D02*
X105648D01*
X106848D02*
X110248D01*
X112648D02*
X116248D01*
X118048D02*
X121248D01*
X124448D02*
X128048D01*
X129048D02*
X136848D01*
X137848D02*
X141248D01*
X142448D02*
X145848D01*
X146848D02*
X150048D01*
X151248D02*
X154648D01*
X155848D02*
X159048D01*
X161648D02*
X165248D01*
X167648D02*
X171248D01*
X175448D02*
X181248D01*
X185448D02*
X191248D01*
X93248Y42707D02*
X96448D01*
X97648D02*
X101048D01*
X102448D02*
X105648D01*
X107048D02*
X110248D01*
X112848D02*
X116248D01*
X118048D02*
X121248D01*
X124448D02*
X128048D01*
X129048D02*
X136848D01*
X137848D02*
X141248D01*
X142448D02*
X145848D01*
X146848D02*
X150048D01*
X151248D02*
X154848D01*
X155848D02*
X159048D01*
X161848D02*
X165248D01*
X167648D02*
X171248D01*
X175448D02*
X181248D01*
X185448D02*
X191248D01*
X93248Y42507D02*
X96448D01*
X97848D02*
X101048D01*
X102448D02*
X105648D01*
X107048D02*
X110248D01*
X112848D02*
X116248D01*
X118048D02*
X121248D01*
X124448D02*
X128048D01*
X129048D02*
X136848D01*
X137848D02*
X141248D01*
X142448D02*
X145848D01*
X146848D02*
X150048D01*
X151248D02*
X154848D01*
X155848D02*
X159048D01*
X161848D02*
X165248D01*
X167648D02*
X171248D01*
X175448D02*
X181248D01*
X185448D02*
X191248D01*
X93248Y42307D02*
X96448D01*
X97848D02*
X101048D01*
X102448D02*
X105648D01*
X107048D02*
X110048D01*
X112848D02*
X116248D01*
X118048D02*
X121248D01*
X124648D02*
X128048D01*
X129048D02*
X136848D01*
X137848D02*
X141248D01*
X142448D02*
X145848D01*
X146848D02*
X150048D01*
X151248D02*
X154848D01*
X155848D02*
X159048D01*
X161848D02*
X165248D01*
X167648D02*
X171248D01*
X175448D02*
X181248D01*
X185448D02*
X191248D01*
X93248Y42107D02*
X96448D01*
X97648D02*
X101048D01*
X102448D02*
X105648D01*
X107048D02*
X110248D01*
X112848D02*
X116248D01*
X118048D02*
X121248D01*
X124648D02*
X128048D01*
X129048D02*
X136648D01*
X137848D02*
X141248D01*
X142448D02*
X145848D01*
X146848D02*
X150048D01*
X151248D02*
X154848D01*
X155848D02*
X159048D01*
X162048D02*
X165248D01*
X167648D02*
X171248D01*
X175448D02*
X181248D01*
X185448D02*
X191248D01*
X93248Y41907D02*
X96448D01*
X97848D02*
X101048D01*
X102448D02*
X105648D01*
X107048D02*
X110248D01*
X113048D02*
X116248D01*
X118048D02*
X121248D01*
X124648D02*
X128048D01*
X129048D02*
X137048D01*
X137848D02*
X141248D01*
X142448D02*
X145848D01*
X146848D02*
X150048D01*
X151248D02*
X154648D01*
X155848D02*
X159048D01*
X162048D02*
X165248D01*
X167648D02*
X171248D01*
X175448D02*
X181248D01*
X185448D02*
X191248D01*
X93248Y41707D02*
X96448D01*
X97648D02*
X101048D01*
X102448D02*
X105848D01*
X107048D02*
X110248D01*
X113048D02*
X116248D01*
X118048D02*
X121248D01*
X124648D02*
X128048D01*
X129048D02*
X136848D01*
X137848D02*
X141248D01*
X142448D02*
X145848D01*
X146848D02*
X150048D01*
X151248D02*
X154648D01*
X155848D02*
X159048D01*
X162048D02*
X165248D01*
X167648D02*
X171248D01*
X175448D02*
X181248D01*
X185448D02*
X191248D01*
X93248Y41507D02*
X96648D01*
X97648D02*
X101048D01*
X102448D02*
X105848D01*
X107048D02*
X110248D01*
X113048D02*
X116248D01*
X118048D02*
X121248D01*
X124648D02*
X128048D01*
X129048D02*
X136848D01*
X137848D02*
X141248D01*
X142448D02*
X145848D01*
X146848D02*
X150048D01*
X151248D02*
X154648D01*
X155848D02*
X159048D01*
X162048D02*
X165248D01*
X167648D02*
X171248D01*
X175448D02*
X181248D01*
X185448D02*
X191248D01*
X93248Y41307D02*
X96648D01*
X97648D02*
X101048D01*
X102448D02*
X105848D01*
X106848D02*
X110248D01*
X113048D02*
X116248D01*
X118048D02*
X121248D01*
X124648D02*
X128048D01*
X133648D02*
X136848D01*
X137848D02*
X141248D01*
X142248D02*
X145848D01*
X146848D02*
X150248D01*
X151248D02*
X154648D01*
X155848D02*
X159048D01*
X162048D02*
X165248D01*
X167648D02*
X171248D01*
X175448D02*
X181248D01*
X185448D02*
X191248D01*
X93248Y41107D02*
X96648D01*
X97648D02*
X101048D01*
X102448D02*
X105848D01*
X106848D02*
X110248D01*
X113048D02*
X116248D01*
X118048D02*
X121248D01*
X124648D02*
X128048D01*
X133448D02*
X136848D01*
X137848D02*
X141248D01*
X142248D02*
X145648D01*
X146848D02*
X150248D01*
X151248D02*
X154648D01*
X155848D02*
X159048D01*
X162048D02*
X165248D01*
X167648D02*
X171248D01*
X175448D02*
X181248D01*
X185448D02*
X191248D01*
X93248Y40907D02*
X96848D01*
X97448D02*
X101048D01*
X102448D02*
X106048D01*
X106848D02*
X110248D01*
X113048D02*
X116248D01*
X118048D02*
X121248D01*
X124648D02*
X128048D01*
X129048D02*
X132448D01*
X133448D02*
X136648D01*
X137848D02*
X141448D01*
X142248D02*
X145648D01*
X146848D02*
X150248D01*
X151048D02*
X154648D01*
X155848D02*
X159048D01*
X162048D02*
X165248D01*
X167648D02*
X171248D01*
X175448D02*
X181248D01*
X185448D02*
X191248D01*
X93248Y40707D02*
X96648D01*
X96848D02*
X101048D01*
X102448D02*
X106048D01*
X106648D02*
X110048D01*
X113048D02*
X116248D01*
X118048D02*
X121248D01*
X124648D02*
X128048D01*
X129048D02*
X132448D01*
X133448D02*
X136648D01*
X137848D02*
X141448D01*
X142048D02*
X145648D01*
X146848D02*
X150248D01*
X151048D02*
X154648D01*
X155848D02*
X159048D01*
X162048D02*
X165248D01*
X167648D02*
X171248D01*
X175448D02*
X181248D01*
X185448D02*
X191248D01*
X93248Y40507D02*
X101048D01*
X102448D02*
X110048D01*
X113048D02*
X116248D01*
X118048D02*
X121248D01*
X124648D02*
X128048D01*
X129248D02*
X132648D01*
X133248D02*
X136648D01*
X137848D02*
X145648D01*
X146848D02*
X154448D01*
X155848D02*
X159048D01*
X162048D02*
X165248D01*
X167648D02*
X171248D01*
X175448D02*
X181248D01*
X185448D02*
X191248D01*
X93448Y40307D02*
X101048D01*
X102448D02*
X110048D01*
X113048D02*
X116248D01*
X118048D02*
X121248D01*
X124648D02*
X128048D01*
X129248D02*
X136648D01*
X137848D02*
X145448D01*
X146848D02*
X154448D01*
X155848D02*
X159048D01*
X162048D02*
X165248D01*
X167648D02*
X171248D01*
X175448D02*
X181248D01*
X185448D02*
X191248D01*
X93448Y40107D02*
X101048D01*
X102448D02*
X110048D01*
X113048D02*
X116248D01*
X118048D02*
X121248D01*
X124648D02*
X128048D01*
X129248D02*
X136648D01*
X137848D02*
X145448D01*
X146848D02*
X154448D01*
X155848D02*
X159048D01*
X162048D02*
X165248D01*
X167648D02*
X171248D01*
X175448D02*
X181248D01*
X185448D02*
X191248D01*
X93448Y39907D02*
X101048D01*
X102448D02*
X109848D01*
X113048D02*
X116248D01*
X118048D02*
X121248D01*
X124648D02*
X128048D01*
X129448D02*
X136448D01*
X137848D02*
X145448D01*
X146848D02*
X154248D01*
X155848D02*
X159048D01*
X162048D02*
X165248D01*
X167648D02*
X171248D01*
X175448D02*
X181248D01*
X185448D02*
X191248D01*
X93448Y39707D02*
X101048D01*
X102448D02*
X109848D01*
X113048D02*
X116248D01*
X118048D02*
X121248D01*
X124648D02*
X128048D01*
X129648D02*
X136248D01*
X137848D02*
X145248D01*
X146848D02*
X154248D01*
X155848D02*
X159048D01*
X162048D02*
X165248D01*
X167648D02*
X171248D01*
X175448D02*
X181248D01*
X185448D02*
X191248D01*
X93648Y39507D02*
X101048D01*
X102448D02*
X109648D01*
X113048D02*
X116248D01*
X118048D02*
X121248D01*
X124648D02*
X128048D01*
X129648D02*
X136248D01*
X137848D02*
X145248D01*
X146848D02*
X154248D01*
X155848D02*
X159048D01*
X162048D02*
X165248D01*
X167648D02*
X171248D01*
X175448D02*
X181248D01*
X185448D02*
X191248D01*
X93848Y39307D02*
X101048D01*
X102448D02*
X109648D01*
X113048D02*
X116248D01*
X118048D02*
X121248D01*
X124648D02*
X128048D01*
X129848D02*
X136048D01*
X137848D02*
X145048D01*
X146848D02*
X154048D01*
X155848D02*
X159048D01*
X162048D02*
X165248D01*
X167648D02*
X171248D01*
X175448D02*
X181248D01*
X185448D02*
X191248D01*
X93848Y39107D02*
X101048D01*
X102448D02*
X109648D01*
X113048D02*
X116248D01*
X118048D02*
X121248D01*
X124648D02*
X128048D01*
X130048D02*
X135848D01*
X137848D02*
X145048D01*
X146848D02*
X154048D01*
X155848D02*
X159048D01*
X162048D02*
X165248D01*
X167648D02*
X171248D01*
X175448D02*
X181248D01*
X185448D02*
X191248D01*
X94048Y38907D02*
X97648D01*
X97848D02*
X101048D01*
X102448D02*
X109448D01*
X113048D02*
X116248D01*
X118048D02*
X121248D01*
X124648D02*
X128048D01*
X130248D02*
X135448D01*
X137848D02*
X144848D01*
X146848D02*
X153848D01*
X155848D02*
X159048D01*
X162048D02*
X165248D01*
X167648D02*
X171248D01*
X175448D02*
X181248D01*
X185448D02*
X191248D01*
X94248Y38707D02*
X97448D01*
X97848D02*
X101048D01*
X102448D02*
X105648D01*
X105848D02*
X109448D01*
X113048D02*
X116248D01*
X118048D02*
X121248D01*
X124648D02*
X128048D01*
X130248D02*
X135248D01*
X137848D02*
X144648D01*
X146848D02*
X153648D01*
X155848D02*
X159048D01*
X162048D02*
X165248D01*
X167648D02*
X171248D01*
X175448D02*
X181248D01*
X185448D02*
X191248D01*
X94448Y38507D02*
X97248D01*
X97848D02*
X101048D01*
X102448D02*
X105648D01*
X106048D02*
X109248D01*
X113048D02*
X116248D01*
X118048D02*
X121248D01*
X124648D02*
X128048D01*
X130648D02*
X135048D01*
X137848D02*
X141248D01*
X141448D02*
X144648D01*
X146848D02*
X150048D01*
X150448D02*
X153448D01*
X155848D02*
X159048D01*
X162048D02*
X165248D01*
X167648D02*
X171248D01*
X175448D02*
X181248D01*
X185448D02*
X191248D01*
X94648Y38307D02*
X96848D01*
X97048D02*
X97248D01*
X97848D02*
X101048D01*
X102448D02*
X105648D01*
X106248D02*
X106648D01*
X106848D02*
X108648D01*
X108848D02*
X109048D01*
X113048D02*
X116248D01*
X118048D02*
X121248D01*
X124648D02*
X128048D01*
X131048D02*
X134248D01*
X134448D02*
X134848D01*
X137848D02*
X141248D01*
X141648D02*
X144448D01*
X146848D02*
X150048D01*
X150648D02*
X153248D01*
X155848D02*
X159048D01*
X162048D02*
X165248D01*
X167648D02*
X171248D01*
X175448D02*
X181248D01*
X185448D02*
X191248D01*
X95448Y38107D02*
X96248D01*
X97848D02*
X101048D01*
X102448D02*
X105448D01*
X106648D02*
X107248D01*
X107448D02*
X107848D01*
X108248D02*
X108848D01*
X113048D02*
X116048D01*
X118048D02*
X121048D01*
X124648D02*
X127848D01*
X131648D02*
X134248D01*
X137848D02*
X141248D01*
X141848D02*
X144048D01*
X146848D02*
X150048D01*
X150848D02*
X152848D01*
X155848D02*
X158848D01*
X162048D02*
X165048D01*
X167648D02*
X171048D01*
X175448D02*
X181248D01*
X185448D02*
X191248D01*
X97848Y37907D02*
X101048D01*
X107848D02*
X108248D01*
X137848D02*
X141248D01*
X142448D02*
X143448D01*
X143648D02*
X143848D01*
X146848D02*
X150048D01*
X151448D02*
X152648D01*
X175448D02*
X181248D01*
X185448D02*
X191248D01*
X97848Y37707D02*
X101048D01*
X137848D02*
X141248D01*
X146848D02*
X150048D01*
X175448D02*
X181248D01*
X185448D02*
X191248D01*
X97848Y37507D02*
X101048D01*
X137848D02*
X141248D01*
X146848D02*
X150048D01*
X175448D02*
X181248D01*
X185448D02*
X191248D01*
X97848Y37307D02*
X101048D01*
X138048D02*
X141248D01*
X146848D02*
X150048D01*
X175448D02*
X181248D01*
X185448D02*
X191248D01*
X97848Y37107D02*
X101048D01*
X138048D02*
X141248D01*
X142248D02*
X145648D01*
X146848D02*
X150048D01*
X151248D02*
X154648D01*
X175448D02*
X181248D01*
X185448D02*
X191248D01*
X97848Y36907D02*
X101048D01*
X138048D02*
X141248D01*
X142248D02*
X145648D01*
X146848D02*
X150248D01*
X151248D02*
X154648D01*
X175448D02*
X181248D01*
X185448D02*
X191248D01*
X97848Y36707D02*
X101048D01*
X138048D02*
X141448D01*
X142248D02*
X145648D01*
X147048D02*
X150248D01*
X151048D02*
X154448D01*
X175448D02*
X181248D01*
X185448D02*
X191248D01*
X97848Y36507D02*
X101048D01*
X138048D02*
X145648D01*
X147048D02*
X154448D01*
X175448D02*
X181248D01*
X185448D02*
X191248D01*
X97848Y36307D02*
X101048D01*
X138248D02*
X145448D01*
X147048D02*
X154448D01*
X175448D02*
X181248D01*
X185448D02*
X191248D01*
X97848Y36107D02*
X101048D01*
X138248D02*
X145448D01*
X147048D02*
X154248D01*
X175448D02*
X181248D01*
X185448D02*
X191248D01*
X97848Y35907D02*
X101048D01*
X138448D02*
X145248D01*
X147248D02*
X154248D01*
X175448D02*
X181248D01*
X185448D02*
X191248D01*
X97848Y35707D02*
X101048D01*
X138448D02*
X145248D01*
X147448D02*
X154048D01*
X175448D02*
X181248D01*
X185448D02*
X191248D01*
X97848Y35507D02*
X101048D01*
X138648D02*
X145048D01*
X147648D02*
X154048D01*
X175448D02*
X181248D01*
X185448D02*
X191248D01*
X97848Y35307D02*
X101048D01*
X138848D02*
X144848D01*
X147848D02*
X153848D01*
X175448D02*
X181248D01*
X185448D02*
X191248D01*
X97848Y35107D02*
X101048D01*
X138848D02*
X144648D01*
X147848D02*
X153648D01*
X175448D02*
X181248D01*
X185448D02*
X191248D01*
X97848Y34907D02*
X101048D01*
X138848D02*
X144448D01*
X147648D02*
X147848D01*
X148048D02*
X153448D01*
X175448D02*
X181248D01*
X185448D02*
X191248D01*
X97848Y34707D02*
X101048D01*
X139248D02*
X144248D01*
X148248D02*
X153248D01*
X175448D02*
X181248D01*
X185448D02*
X191248D01*
X97848Y34507D02*
X101048D01*
X139648D02*
X143848D01*
X144048D02*
X144448D01*
X148648D02*
X153248D01*
X175448D02*
X181248D01*
X185448D02*
X191248D01*
X97848Y34307D02*
X100848D01*
X140048D02*
X143648D01*
X149048D02*
X152648D01*
X175448D02*
X181248D01*
X185448D02*
X191248D01*
X140848Y34107D02*
X143048D01*
X149848D02*
X152048D01*
X175448D02*
X181248D01*
X185448D02*
X191248D01*
X175448Y33907D02*
X181248D01*
X185448D02*
X191248D01*
X175448Y33707D02*
X181248D01*
X185448D02*
X191248D01*
X175448Y33507D02*
X181248D01*
X185448D02*
X191248D01*
X175448Y33307D02*
X181248D01*
X185448D02*
X191248D01*
X175448Y33107D02*
X181248D01*
X185448D02*
X191248D01*
X175448Y32907D02*
X181248D01*
X185448D02*
X191248D01*
X175448Y32707D02*
X181248D01*
X185448D02*
X191248D01*
X175448Y32507D02*
X181248D01*
X185448D02*
X191248D01*
X175448Y32307D02*
X181248D01*
X185448D02*
X191248D01*
X175448Y32107D02*
X181248D01*
X185448D02*
X191248D01*
X175448Y31907D02*
X181248D01*
X185448D02*
X191248D01*
X175448Y31707D02*
X181248D01*
X185448D02*
X191248D01*
D128*
X196850Y325197D02*
X207087D01*
X196850Y319685D02*
Y325197D01*
Y319685D02*
X207087D01*
Y325197D01*
Y319685D02*
X217323D01*
Y325197D01*
X207087D02*
X217323D01*
X207087Y319685D02*
Y325197D01*
X99651Y343991D02*
Y349502D01*
X109887D01*
Y343991D02*
Y349502D01*
X99651Y343991D02*
X109887D01*
X175000Y151181D02*
X180512D01*
X175000D02*
Y161417D01*
X180512D01*
Y151181D02*
Y161417D01*
X207677Y247638D02*
X213189D01*
X207677D02*
Y257874D01*
X213189D01*
Y247638D02*
Y257874D01*
X177272Y331483D02*
Y341720D01*
X171760D02*
X177272D01*
X171760Y331483D02*
Y341720D01*
Y331483D02*
X177272D01*
X190005Y331589D02*
Y341825D01*
X184493D02*
X190005D01*
X184493Y331589D02*
Y341825D01*
Y331589D02*
X190005D01*
X196850Y319685D02*
Y325197D01*
X186614Y319685D02*
X196850D01*
X186614D02*
Y325197D01*
X196850D01*
X195276Y331496D02*
X200787D01*
X195276D02*
Y341732D01*
X200787D01*
Y331496D02*
Y341732D01*
X178937Y188189D02*
Y198425D01*
Y188189D02*
X184449D01*
Y198425D01*
X178937D02*
X184449D01*
X159252Y151181D02*
Y161417D01*
X153740D02*
X159252D01*
X153740Y151181D02*
Y161417D01*
Y151181D02*
X159252D01*
X183858Y137008D02*
X189370D01*
X183858D02*
Y147244D01*
X189370D01*
Y137008D02*
Y147244D01*
X164567Y220079D02*
Y225591D01*
X174803D01*
Y220079D02*
Y225591D01*
X164567Y220079D02*
X174803D01*
X131737Y230315D02*
Y240551D01*
Y230315D02*
X137249D01*
Y240551D01*
X131737D02*
X137249D01*
X133706Y272534D02*
Y282770D01*
Y272534D02*
X139217D01*
Y282770D01*
X133706D02*
X139217D01*
X72879Y340250D02*
Y342613D01*
X71698Y341432D02*
X74060D01*
X75044Y351077D02*
X92958D01*
X73273Y349306D02*
X75044Y351077D01*
X73273Y343794D02*
Y349306D01*
Y343794D02*
X75044Y342022D01*
X92958D01*
Y343243D02*
Y351077D01*
Y342022D02*
Y343243D01*
X85706Y292672D02*
X95942D01*
Y298184D01*
X85706D02*
X95942D01*
X85706Y292672D02*
Y298184D01*
X38627Y249306D02*
Y254817D01*
X48863D01*
Y249306D02*
Y254817D01*
X38627Y249306D02*
X48863D01*
Y243400D02*
Y248912D01*
X38627Y243400D02*
X48863D01*
X38627D02*
Y248912D01*
X48863D01*
X34646Y320079D02*
X40157D01*
Y309842D02*
Y320079D01*
X34646Y309842D02*
X40157D01*
X34646D02*
Y320079D01*
X40157D02*
X45669D01*
Y309842D02*
Y320079D01*
X40157Y309842D02*
X45669D01*
X40157D02*
Y320079D01*
X99897Y222319D02*
X110133D01*
X99897Y216807D02*
Y222319D01*
Y216807D02*
X110133D01*
Y222319D01*
X131556Y252051D02*
Y262287D01*
Y252051D02*
X137068D01*
Y262287D01*
X131556D02*
X137068D01*
X137112Y241383D02*
Y251619D01*
X131600D02*
X137112D01*
X131600Y241383D02*
Y251619D01*
Y241383D02*
X137112D01*
X70123Y219187D02*
X80359D01*
X70123Y213676D02*
Y219187D01*
Y213676D02*
X80359D01*
Y219187D01*
X137795Y244094D02*
Y260236D01*
Y244094D02*
X147244D01*
Y260236D01*
X137795D02*
X147244D01*
X40989Y196156D02*
Y201668D01*
X30753Y196156D02*
X40989D01*
X30753D02*
Y201668D01*
X40989D01*
Y190251D02*
Y195762D01*
X30753Y190251D02*
X40989D01*
X30753D02*
Y195762D01*
X40989D01*
X56343Y68203D02*
Y73715D01*
X66580D01*
Y68203D02*
Y73715D01*
X56343Y68203D02*
X66580D01*
X60236Y35236D02*
X70472D01*
Y40748D01*
X60236D02*
X70472D01*
X60236Y35236D02*
Y40748D01*
X56343Y52455D02*
Y57967D01*
X66580D01*
Y52455D02*
Y57967D01*
X56343Y52455D02*
X66580D01*
X68154D02*
Y57967D01*
X78391D01*
Y52455D02*
Y57967D01*
X68154Y52455D02*
X78391D01*
X80315Y29528D02*
Y35039D01*
X90551D01*
Y29528D02*
Y35039D01*
X80315Y29528D02*
X90551D01*
X68154Y68203D02*
Y73715D01*
X78391D01*
Y68203D02*
Y73715D01*
X68154Y68203D02*
X78391D01*
X90551Y35827D02*
Y41339D01*
X80315Y35827D02*
X90551D01*
X80315D02*
Y41339D01*
X90551D01*
X89808Y85920D02*
Y91432D01*
X100044D01*
Y85920D02*
Y91432D01*
X89808Y85920D02*
X100044D01*
X89808Y103636D02*
Y109148D01*
X100044D01*
Y103636D02*
Y109148D01*
X89808Y103636D02*
X100044D01*
X89808Y121353D02*
Y126865D01*
X100044D01*
Y121353D02*
Y126865D01*
X89808Y121353D02*
X100044D01*
X89808Y139069D02*
Y144581D01*
X100044D01*
Y139069D02*
Y144581D01*
X89808Y139069D02*
X100044D01*
X89808Y156786D02*
Y162298D01*
X100044D01*
Y156786D02*
Y162298D01*
X89808Y156786D02*
X100044D01*
X149257Y89858D02*
Y95370D01*
X139021Y89858D02*
X149257D01*
X139021D02*
Y95370D01*
X149257D01*
Y81984D02*
Y87496D01*
X139021Y81984D02*
X149257D01*
X139021D02*
Y87496D01*
X149257D01*
Y74110D02*
Y79622D01*
X139021Y74110D02*
X149257D01*
X139021D02*
Y79622D01*
X149257D01*
Y66236D02*
Y71748D01*
X139021Y66236D02*
X149257D01*
X139021D02*
Y71748D01*
X149257D01*
Y58362D02*
Y63874D01*
X139021Y58362D02*
X149257D01*
X139021D02*
Y63874D01*
X149257D01*
X89808Y174502D02*
Y180014D01*
X100044D01*
Y174502D02*
Y180014D01*
X89808Y174502D02*
X100044D01*
X21882Y180841D02*
Y215290D01*
X-2724Y180841D02*
X21882D01*
X-2724D02*
Y216274D01*
X21882D01*
Y215290D02*
Y216274D01*
X51181Y320079D02*
X56693D01*
Y309842D02*
Y320079D01*
X51181Y309842D02*
X56693D01*
X51181D02*
Y320079D01*
X56693D02*
X62205D01*
Y309842D02*
Y320079D01*
X56693Y309842D02*
X62205D01*
X56693D02*
Y320079D01*
X224410Y201575D02*
X235433D01*
Y218504D01*
X224410D02*
X235433D01*
X224410Y201575D02*
Y218504D01*
X45669Y309842D02*
X51181D01*
X45669D02*
Y320079D01*
X51181D01*
Y309842D02*
Y320079D01*
X29134Y309842D02*
X34646D01*
X29134D02*
Y320079D01*
X34646D01*
Y309842D02*
Y320079D01*
X203150Y210827D02*
X213386D01*
Y216339D01*
X203150D02*
X213386D01*
X203150Y210827D02*
Y216339D01*
X60236Y40945D02*
Y46457D01*
X70472D01*
Y40945D02*
Y46457D01*
X60236Y40945D02*
X70472D01*
X60236Y23622D02*
Y29134D01*
X70472D01*
Y23622D02*
Y29134D01*
X60236Y23622D02*
X70472D01*
X60236Y29331D02*
X70472D01*
Y34843D01*
X60236D02*
X70472D01*
X60236Y29331D02*
Y34843D01*
X89764Y166535D02*
Y172047D01*
X100000D01*
Y166535D02*
Y172047D01*
X89764Y166535D02*
X100000D01*
D129*
X217717Y271572D02*
X235039D01*
X235039Y277984D02*
X235039Y277984D01*
X235039Y277984D02*
Y301772D01*
X217815D02*
X235039D01*
X217717Y271572D02*
Y301772D01*
X235039Y271572D02*
Y277984D01*
X217717Y281857D02*
X235039D01*
X215436Y273228D02*
Y290551D01*
X209024D02*
X209024Y290551D01*
X185236D02*
X209024D01*
X185236Y273327D02*
Y290551D01*
Y273228D02*
X215436D01*
X209024Y290551D02*
X215436D01*
X205151Y273228D02*
Y290551D01*
D130*
X199480Y169660D02*
Y172992D01*
X196148Y169660D01*
X195315D01*
X194482Y170493D01*
Y172159D01*
X195315Y172992D01*
X209480D02*
Y171326D01*
Y172159D01*
X204482D01*
X205315Y172992D01*
D131*
X142520Y252166D02*
D03*
M02*
