%FSLAX25Y25*%
%MOIN*%
G70*
G01*
G75*
G04 Layer_Color=8421504*
%ADD10R,0.05906X0.05118*%
%ADD11R,0.03000X0.13386*%
%ADD12C,0.01200*%
%ADD13C,0.02500*%
%ADD14C,0.05000*%
%ADD15C,0.17716*%
%ADD16C,0.08661*%
%ADD17C,0.05906*%
%ADD18C,0.10000*%
%ADD19C,0.07874*%
%ADD20C,0.07000*%
%ADD21R,0.07000X0.07000*%
%ADD22C,0.07874*%
%ADD23R,0.05906X0.05906*%
%ADD24R,0.07000X0.07000*%
%ADD25C,0.04724*%
%ADD26C,0.06000*%
%ADD27C,0.03150*%
%ADD28C,0.03937*%
%ADD29R,0.03937X0.11811*%
%ADD30R,0.02756X0.03937*%
%ADD31R,0.03600X0.03600*%
%ADD32R,0.05000X0.03600*%
%ADD33R,0.02362X0.03543*%
%ADD34R,0.03543X0.02362*%
%ADD35R,0.03937X0.04331*%
%ADD36R,0.09843X0.07087*%
%ADD37R,0.07087X0.09843*%
%ADD38R,0.06299X0.13780*%
%ADD39R,0.13780X0.06299*%
%ADD40R,0.03937X0.02362*%
%ADD41O,0.08858X0.01575*%
%ADD42R,0.06890X0.04921*%
%ADD43O,0.02165X0.06890*%
%ADD44O,0.06890X0.02165*%
%ADD45R,0.07087X0.03937*%
%ADD46R,0.04331X0.03937*%
%ADD47R,0.07874X0.03150*%
%ADD48R,0.03600X0.05000*%
%ADD49R,0.03600X0.03600*%
%ADD50R,0.02559X0.04331*%
%ADD51R,0.05315X0.01575*%
%ADD52R,0.06299X0.08268*%
%ADD53R,0.07480X0.07480*%
%ADD54R,0.21654X0.08465*%
%ADD55R,0.05000X0.02500*%
%ADD56R,0.10000X0.10512*%
%ADD57C,0.02000*%
%ADD58C,0.10000*%
%ADD59R,0.46850X0.13386*%
%ADD60R,0.24410X0.18504*%
%ADD61R,0.34646X0.04724*%
%ADD62R,0.25591X0.18110*%
%ADD63R,0.20079X0.05512*%
%ADD64R,0.10236X0.26378*%
%ADD65R,0.27559X0.20472*%
%ADD66R,0.27165X0.35433*%
%ADD67R,0.08661X0.04331*%
%ADD68R,0.09449X0.02362*%
%ADD69R,0.05118X0.07087*%
%ADD70R,0.03937X0.05118*%
%ADD71R,0.03937X0.03150*%
%ADD72R,0.07874X0.15748*%
%ADD73C,0.00965*%
%ADD74C,0.01000*%
%ADD75C,0.00500*%
%ADD76C,0.00700*%
G36*
X508375Y48823D02*
X505842D01*
Y42046D01*
X504820D01*
Y48823D01*
X502287D01*
Y49734D01*
X508375D01*
Y48823D01*
D02*
G37*
G36*
X543871Y47623D02*
X544827D01*
Y46890D01*
X543871D01*
Y43612D01*
Y43590D01*
Y43546D01*
Y43479D01*
X543883Y43401D01*
X543894Y43223D01*
X543905Y43146D01*
X543916Y43090D01*
X543927Y43068D01*
X543960Y43023D01*
X544005Y42968D01*
X544082Y42912D01*
X544105Y42901D01*
X544160Y42879D01*
X544260Y42857D01*
X544405Y42846D01*
X544516D01*
X544571Y42857D01*
X544649D01*
X544738Y42868D01*
X544827Y42879D01*
X544949Y42046D01*
X544927D01*
X544882Y42035D01*
X544805Y42024D01*
X544705Y42012D01*
X544594Y41990D01*
X544471Y41979D01*
X544227Y41968D01*
X544138D01*
X544049Y41979D01*
X543938Y41990D01*
X543805Y42001D01*
X543672Y42035D01*
X543549Y42068D01*
X543427Y42123D01*
X543416Y42135D01*
X543383Y42157D01*
X543338Y42190D01*
X543271Y42246D01*
X543216Y42301D01*
X543149Y42379D01*
X543083Y42457D01*
X543038Y42557D01*
Y42568D01*
X543016Y42612D01*
X543005Y42690D01*
X542983Y42801D01*
X542960Y42946D01*
X542949Y43034D01*
Y43134D01*
X542938Y43257D01*
X542927Y43379D01*
Y43512D01*
Y43668D01*
Y46890D01*
X542227D01*
Y47623D01*
X542927D01*
Y49001D01*
X543871Y49567D01*
Y47623D01*
D02*
G37*
G36*
X534017Y47734D02*
X534184Y47723D01*
X534372Y47701D01*
X534561Y47667D01*
X534750Y47623D01*
X534928Y47567D01*
X534950Y47556D01*
X535006Y47534D01*
X535083Y47501D01*
X535183Y47456D01*
X535294Y47390D01*
X535406Y47323D01*
X535506Y47234D01*
X535595Y47145D01*
X535606Y47134D01*
X535628Y47101D01*
X535661Y47045D01*
X535706Y46979D01*
X535761Y46879D01*
X535806Y46779D01*
X535850Y46656D01*
X535883Y46512D01*
Y46501D01*
X535894Y46468D01*
X535906Y46401D01*
X535917Y46312D01*
Y46190D01*
X535928Y46045D01*
X535939Y45856D01*
Y45645D01*
Y44379D01*
Y44368D01*
Y44323D01*
Y44257D01*
Y44168D01*
Y44068D01*
Y43946D01*
X535950Y43679D01*
Y43401D01*
X535961Y43123D01*
X535972Y43001D01*
Y42890D01*
X535983Y42790D01*
X535994Y42712D01*
Y42701D01*
X536006Y42657D01*
X536017Y42590D01*
X536050Y42501D01*
X536072Y42401D01*
X536117Y42290D01*
X536172Y42168D01*
X536228Y42046D01*
X535239D01*
X535228Y42057D01*
X535217Y42101D01*
X535194Y42157D01*
X535161Y42246D01*
X535128Y42346D01*
X535106Y42468D01*
X535083Y42601D01*
X535061Y42746D01*
X535050D01*
X535039Y42723D01*
X534972Y42668D01*
X534872Y42590D01*
X534739Y42490D01*
X534572Y42390D01*
X534406Y42279D01*
X534228Y42179D01*
X534039Y42101D01*
X534017Y42090D01*
X533950Y42079D01*
X533850Y42046D01*
X533728Y42012D01*
X533572Y41979D01*
X533395Y41957D01*
X533195Y41935D01*
X532995Y41923D01*
X532906D01*
X532839Y41935D01*
X532761D01*
X532673Y41946D01*
X532473Y41979D01*
X532250Y42035D01*
X532006Y42112D01*
X531784Y42224D01*
X531584Y42368D01*
X531562Y42390D01*
X531506Y42446D01*
X531428Y42546D01*
X531339Y42679D01*
X531250Y42846D01*
X531173Y43034D01*
X531117Y43268D01*
X531106Y43379D01*
X531095Y43512D01*
Y43534D01*
Y43579D01*
X531106Y43657D01*
X531117Y43757D01*
X531139Y43879D01*
X531173Y44001D01*
X531217Y44134D01*
X531273Y44257D01*
X531284Y44268D01*
X531306Y44312D01*
X531351Y44379D01*
X531406Y44457D01*
X531473Y44546D01*
X531562Y44634D01*
X531650Y44723D01*
X531762Y44801D01*
X531773Y44812D01*
X531817Y44834D01*
X531873Y44879D01*
X531961Y44923D01*
X532061Y44968D01*
X532184Y45023D01*
X532306Y45068D01*
X532450Y45112D01*
X532462D01*
X532506Y45123D01*
X532573Y45145D01*
X532661Y45156D01*
X532773Y45179D01*
X532917Y45201D01*
X533084Y45234D01*
X533284Y45257D01*
X533295D01*
X533339Y45268D01*
X533395D01*
X533472Y45279D01*
X533561Y45290D01*
X533673Y45312D01*
X533795Y45323D01*
X533928Y45345D01*
X534195Y45401D01*
X534483Y45456D01*
X534739Y45523D01*
X534861Y45557D01*
X534972Y45590D01*
Y45601D01*
Y45623D01*
X534983Y45690D01*
Y45768D01*
Y45812D01*
Y45834D01*
Y45845D01*
Y45856D01*
Y45923D01*
X534972Y46034D01*
X534950Y46156D01*
X534917Y46290D01*
X534861Y46423D01*
X534795Y46545D01*
X534706Y46645D01*
X534695Y46656D01*
X534639Y46701D01*
X534550Y46745D01*
X534439Y46812D01*
X534283Y46867D01*
X534106Y46923D01*
X533884Y46956D01*
X533628Y46968D01*
X533517D01*
X533406Y46956D01*
X533250Y46934D01*
X533095Y46912D01*
X532928Y46867D01*
X532773Y46812D01*
X532639Y46734D01*
X532628Y46723D01*
X532584Y46690D01*
X532528Y46634D01*
X532462Y46545D01*
X532395Y46434D01*
X532317Y46290D01*
X532250Y46112D01*
X532184Y45912D01*
X531262Y46034D01*
Y46045D01*
X531273Y46056D01*
Y46090D01*
X531284Y46134D01*
X531317Y46234D01*
X531362Y46379D01*
X531417Y46523D01*
X531484Y46679D01*
X531573Y46834D01*
X531673Y46979D01*
X531684Y46990D01*
X531728Y47034D01*
X531795Y47101D01*
X531884Y47190D01*
X532006Y47278D01*
X532150Y47367D01*
X532317Y47467D01*
X532506Y47545D01*
X532517D01*
X532528Y47556D01*
X532561Y47567D01*
X532606Y47578D01*
X532717Y47612D01*
X532872Y47645D01*
X533050Y47679D01*
X533273Y47712D01*
X533506Y47734D01*
X533773Y47745D01*
X533895D01*
X534017Y47734D01*
D02*
G37*
G36*
X527695Y49723D02*
X527884Y49712D01*
X528084Y49700D01*
X528273Y49678D01*
X528440Y49656D01*
X528462D01*
X528540Y49634D01*
X528640Y49612D01*
X528773Y49578D01*
X528917Y49523D01*
X529073Y49456D01*
X529240Y49378D01*
X529384Y49289D01*
X529406Y49278D01*
X529451Y49245D01*
X529517Y49178D01*
X529606Y49101D01*
X529706Y49001D01*
X529806Y48867D01*
X529917Y48723D01*
X530006Y48556D01*
X530017Y48534D01*
X530040Y48478D01*
X530084Y48378D01*
X530128Y48245D01*
X530162Y48090D01*
X530206Y47912D01*
X530228Y47712D01*
X530239Y47501D01*
Y47490D01*
Y47456D01*
Y47412D01*
X530228Y47334D01*
X530217Y47256D01*
X530206Y47156D01*
X530184Y47045D01*
X530162Y46923D01*
X530084Y46668D01*
X530040Y46534D01*
X529973Y46390D01*
X529895Y46245D01*
X529817Y46112D01*
X529717Y45979D01*
X529606Y45845D01*
X529595Y45834D01*
X529573Y45812D01*
X529539Y45779D01*
X529484Y45745D01*
X529417Y45690D01*
X529328Y45634D01*
X529217Y45568D01*
X529095Y45512D01*
X528951Y45445D01*
X528784Y45379D01*
X528606Y45323D01*
X528395Y45279D01*
X528173Y45234D01*
X527929Y45201D01*
X527651Y45179D01*
X527362Y45168D01*
X525395D01*
Y42046D01*
X524373D01*
Y49734D01*
X527529D01*
X527695Y49723D01*
D02*
G37*
G36*
X511752Y47734D02*
X511852Y47723D01*
X511964Y47701D01*
X512086Y47679D01*
X512230Y47656D01*
X512530Y47556D01*
X512686Y47501D01*
X512841Y47423D01*
X512997Y47345D01*
X513152Y47234D01*
X513297Y47123D01*
X513441Y46990D01*
X513452Y46979D01*
X513475Y46956D01*
X513508Y46912D01*
X513552Y46856D01*
X513608Y46779D01*
X513674Y46679D01*
X513741Y46567D01*
X513808Y46445D01*
X513874Y46312D01*
X513941Y46145D01*
X514008Y45979D01*
X514063Y45790D01*
X514108Y45590D01*
X514141Y45379D01*
X514163Y45156D01*
X514174Y44912D01*
Y44901D01*
Y44868D01*
Y44812D01*
Y44734D01*
X514163Y44646D01*
X514152Y44534D01*
Y44423D01*
X514130Y44301D01*
X514097Y44023D01*
X514030Y43746D01*
X513952Y43468D01*
X513841Y43212D01*
Y43201D01*
X513830Y43190D01*
X513808Y43157D01*
X513786Y43112D01*
X513708Y43001D01*
X513608Y42868D01*
X513475Y42712D01*
X513308Y42557D01*
X513119Y42401D01*
X512897Y42257D01*
X512886D01*
X512875Y42246D01*
X512841Y42224D01*
X512786Y42201D01*
X512730Y42179D01*
X512664Y42157D01*
X512497Y42090D01*
X512308Y42035D01*
X512075Y41979D01*
X511830Y41935D01*
X511564Y41923D01*
X511452D01*
X511364Y41935D01*
X511264Y41946D01*
X511153Y41968D01*
X511019Y41990D01*
X510886Y42012D01*
X510586Y42101D01*
X510419Y42168D01*
X510264Y42235D01*
X510108Y42323D01*
X509953Y42423D01*
X509808Y42535D01*
X509664Y42668D01*
X509653Y42679D01*
X509630Y42701D01*
X509597Y42746D01*
X509553Y42812D01*
X509497Y42890D01*
X509442Y42979D01*
X509375Y43090D01*
X509308Y43223D01*
X509242Y43368D01*
X509175Y43534D01*
X509119Y43712D01*
X509064Y43901D01*
X509019Y44112D01*
X508986Y44334D01*
X508964Y44579D01*
X508953Y44834D01*
Y44857D01*
Y44901D01*
X508964Y44979D01*
Y45090D01*
X508975Y45212D01*
X508997Y45368D01*
X509019Y45523D01*
X509064Y45701D01*
X509108Y45879D01*
X509164Y46068D01*
X509231Y46268D01*
X509319Y46456D01*
X509408Y46634D01*
X509530Y46812D01*
X509653Y46979D01*
X509808Y47123D01*
X509819Y47134D01*
X509841Y47145D01*
X509886Y47179D01*
X509941Y47223D01*
X510008Y47267D01*
X510097Y47323D01*
X510186Y47379D01*
X510297Y47434D01*
X510419Y47490D01*
X510553Y47545D01*
X510852Y47645D01*
X511197Y47723D01*
X511375Y47734D01*
X511564Y47745D01*
X511675D01*
X511752Y47734D01*
D02*
G37*
G36*
X517930D02*
X518007Y47723D01*
X518174Y47701D01*
X518374Y47656D01*
X518585Y47590D01*
X518796Y47490D01*
X519007Y47367D01*
X519018D01*
X519030Y47345D01*
X519096Y47301D01*
X519196Y47212D01*
X519318Y47101D01*
X519452Y46956D01*
X519585Y46779D01*
X519718Y46567D01*
X519829Y46334D01*
Y46323D01*
X519840Y46301D01*
X519852Y46268D01*
X519874Y46223D01*
X519896Y46156D01*
X519918Y46079D01*
X519974Y45901D01*
X520029Y45679D01*
X520074Y45434D01*
X520107Y45156D01*
X520118Y44868D01*
Y44857D01*
Y44834D01*
Y44790D01*
Y44723D01*
X520107Y44646D01*
Y44557D01*
X520085Y44357D01*
X520041Y44112D01*
X519985Y43857D01*
X519907Y43590D01*
X519807Y43323D01*
Y43312D01*
X519796Y43290D01*
X519774Y43257D01*
X519752Y43212D01*
X519674Y43090D01*
X519574Y42935D01*
X519452Y42768D01*
X519296Y42601D01*
X519118Y42435D01*
X518907Y42279D01*
X518896D01*
X518885Y42268D01*
X518852Y42246D01*
X518807Y42224D01*
X518696Y42168D01*
X518541Y42101D01*
X518352Y42035D01*
X518152Y41979D01*
X517918Y41935D01*
X517685Y41923D01*
X517607D01*
X517519Y41935D01*
X517407Y41946D01*
X517274Y41968D01*
X517130Y42001D01*
X516985Y42046D01*
X516841Y42112D01*
X516830Y42123D01*
X516774Y42146D01*
X516708Y42190D01*
X516619Y42257D01*
X516530Y42323D01*
X516419Y42412D01*
X516319Y42512D01*
X516230Y42623D01*
Y39913D01*
X515285D01*
Y47623D01*
X516141D01*
Y46890D01*
X516152Y46912D01*
X516196Y46956D01*
X516252Y47034D01*
X516341Y47123D01*
X516441Y47234D01*
X516552Y47334D01*
X516685Y47434D01*
X516819Y47523D01*
X516841Y47534D01*
X516885Y47556D01*
X516974Y47590D01*
X517085Y47634D01*
X517219Y47679D01*
X517374Y47712D01*
X517552Y47734D01*
X517752Y47745D01*
X517874D01*
X517930Y47734D01*
D02*
G37*
G36*
X548227D02*
X548315Y47723D01*
X548427Y47701D01*
X548549Y47679D01*
X548693Y47645D01*
X548827Y47612D01*
X548982Y47556D01*
X549126Y47501D01*
X549282Y47423D01*
X549438Y47334D01*
X549593Y47234D01*
X549738Y47112D01*
X549871Y46979D01*
X549882Y46968D01*
X549904Y46945D01*
X549937Y46901D01*
X549982Y46834D01*
X550037Y46756D01*
X550093Y46668D01*
X550160Y46556D01*
X550226Y46423D01*
X550293Y46279D01*
X550360Y46123D01*
X550415Y45945D01*
X550471Y45757D01*
X550515Y45545D01*
X550549Y45323D01*
X550571Y45090D01*
X550582Y44834D01*
Y44823D01*
Y44779D01*
Y44701D01*
X550571Y44590D01*
X546405D01*
Y44579D01*
Y44546D01*
X546416Y44501D01*
Y44434D01*
X546427Y44357D01*
X546449Y44268D01*
X546482Y44068D01*
X546549Y43845D01*
X546638Y43601D01*
X546760Y43379D01*
X546916Y43179D01*
X546927D01*
X546938Y43157D01*
X547005Y43101D01*
X547105Y43023D01*
X547238Y42946D01*
X547415Y42857D01*
X547615Y42779D01*
X547838Y42723D01*
X547960Y42712D01*
X548093Y42701D01*
X548182D01*
X548282Y42712D01*
X548404Y42735D01*
X548538Y42768D01*
X548693Y42812D01*
X548838Y42879D01*
X548982Y42968D01*
X548993Y42979D01*
X549049Y43023D01*
X549115Y43090D01*
X549193Y43179D01*
X549282Y43301D01*
X549382Y43457D01*
X549482Y43635D01*
X549571Y43845D01*
X550549Y43723D01*
Y43712D01*
X550537Y43690D01*
X550526Y43646D01*
X550504Y43579D01*
X550471Y43512D01*
X550437Y43423D01*
X550349Y43235D01*
X550238Y43023D01*
X550082Y42801D01*
X549904Y42590D01*
X549682Y42390D01*
X549671D01*
X549649Y42368D01*
X549615Y42346D01*
X549571Y42312D01*
X549504Y42279D01*
X549438Y42246D01*
X549349Y42201D01*
X549249Y42157D01*
X549138Y42112D01*
X549026Y42068D01*
X548749Y42001D01*
X548438Y41946D01*
X548093Y41923D01*
X547971D01*
X547893Y41935D01*
X547793Y41946D01*
X547671Y41968D01*
X547538Y41990D01*
X547393Y42012D01*
X547082Y42101D01*
X546916Y42168D01*
X546760Y42235D01*
X546593Y42323D01*
X546438Y42423D01*
X546293Y42535D01*
X546149Y42668D01*
X546138Y42679D01*
X546116Y42701D01*
X546082Y42746D01*
X546038Y42812D01*
X545982Y42890D01*
X545927Y42979D01*
X545860Y43090D01*
X545793Y43212D01*
X545727Y43357D01*
X545660Y43512D01*
X545605Y43690D01*
X545549Y43879D01*
X545505Y44079D01*
X545471Y44301D01*
X545449Y44534D01*
X545438Y44779D01*
Y44790D01*
Y44845D01*
Y44912D01*
X545449Y45012D01*
X545460Y45134D01*
X545471Y45268D01*
X545494Y45423D01*
X545527Y45579D01*
X545616Y45934D01*
X545671Y46112D01*
X545738Y46301D01*
X545827Y46479D01*
X545927Y46645D01*
X546038Y46812D01*
X546160Y46968D01*
X546171Y46979D01*
X546193Y47001D01*
X546238Y47034D01*
X546293Y47090D01*
X546360Y47145D01*
X546449Y47212D01*
X546549Y47290D01*
X546671Y47356D01*
X546793Y47434D01*
X546938Y47501D01*
X547093Y47567D01*
X547260Y47623D01*
X547438Y47679D01*
X547627Y47712D01*
X547827Y47734D01*
X548038Y47745D01*
X548149D01*
X548227Y47734D01*
D02*
G37*
G36*
X539450D02*
X539616Y47723D01*
X539794Y47701D01*
X539983Y47656D01*
X540183Y47612D01*
X540372Y47545D01*
X540383D01*
X540394Y47534D01*
X540450Y47512D01*
X540539Y47467D01*
X540650Y47412D01*
X540772Y47334D01*
X540894Y47245D01*
X541005Y47145D01*
X541105Y47034D01*
X541116Y47023D01*
X541138Y46979D01*
X541183Y46901D01*
X541238Y46812D01*
X541294Y46679D01*
X541350Y46534D01*
X541394Y46367D01*
X541438Y46179D01*
X540516Y46056D01*
Y46079D01*
X540505Y46123D01*
X540483Y46201D01*
X540450Y46301D01*
X540394Y46401D01*
X540327Y46512D01*
X540250Y46623D01*
X540138Y46723D01*
X540127Y46734D01*
X540083Y46756D01*
X540016Y46801D01*
X539916Y46845D01*
X539805Y46890D01*
X539661Y46934D01*
X539483Y46956D01*
X539294Y46968D01*
X539183D01*
X539072Y46956D01*
X538928Y46945D01*
X538783Y46912D01*
X538627Y46879D01*
X538483Y46823D01*
X538361Y46745D01*
X538350Y46734D01*
X538316Y46712D01*
X538272Y46668D01*
X538228Y46601D01*
X538172Y46534D01*
X538128Y46445D01*
X538094Y46345D01*
X538083Y46245D01*
Y46234D01*
Y46212D01*
X538094Y46179D01*
Y46134D01*
X538128Y46023D01*
X538194Y45912D01*
X538205Y45901D01*
X538216Y45890D01*
X538239Y45856D01*
X538283Y45823D01*
X538328Y45790D01*
X538394Y45745D01*
X538472Y45712D01*
X538561Y45668D01*
X538572D01*
X538594Y45656D01*
X538639Y45645D01*
X538716Y45612D01*
X538828Y45579D01*
X538972Y45545D01*
X539061Y45512D01*
X539161Y45490D01*
X539272Y45456D01*
X539394Y45423D01*
X539405D01*
X539439Y45412D01*
X539494Y45401D01*
X539561Y45379D01*
X539639Y45357D01*
X539739Y45334D01*
X539950Y45268D01*
X540183Y45201D01*
X540416Y45123D01*
X540627Y45045D01*
X540716Y45012D01*
X540794Y44979D01*
X540816Y44968D01*
X540861Y44945D01*
X540927Y44912D01*
X541027Y44857D01*
X541127Y44790D01*
X541227Y44701D01*
X541327Y44601D01*
X541416Y44490D01*
X541427Y44479D01*
X541449Y44434D01*
X541494Y44368D01*
X541538Y44268D01*
X541572Y44146D01*
X541616Y44012D01*
X541638Y43857D01*
X541649Y43679D01*
Y43657D01*
Y43601D01*
X541638Y43512D01*
X541616Y43390D01*
X541583Y43257D01*
X541527Y43112D01*
X541461Y42946D01*
X541372Y42790D01*
X541361Y42768D01*
X541316Y42723D01*
X541261Y42646D01*
X541172Y42557D01*
X541049Y42457D01*
X540916Y42346D01*
X540761Y42246D01*
X540572Y42146D01*
X540561D01*
X540550Y42135D01*
X540483Y42112D01*
X540372Y42079D01*
X540227Y42035D01*
X540050Y41990D01*
X539850Y41957D01*
X539639Y41935D01*
X539394Y41923D01*
X539294D01*
X539216Y41935D01*
X539127D01*
X539016Y41946D01*
X538905Y41957D01*
X538783Y41979D01*
X538516Y42035D01*
X538239Y42112D01*
X537972Y42224D01*
X537850Y42290D01*
X537739Y42368D01*
X537728Y42379D01*
X537716Y42390D01*
X537650Y42457D01*
X537550Y42557D01*
X537439Y42712D01*
X537317Y42901D01*
X537194Y43123D01*
X537094Y43401D01*
X537017Y43712D01*
X537950Y43857D01*
Y43845D01*
Y43834D01*
X537972Y43768D01*
X537994Y43657D01*
X538039Y43534D01*
X538094Y43401D01*
X538161Y43257D01*
X538261Y43112D01*
X538383Y42990D01*
X538405Y42979D01*
X538450Y42946D01*
X538539Y42901D01*
X538650Y42846D01*
X538794Y42790D01*
X538961Y42746D01*
X539161Y42712D01*
X539394Y42701D01*
X539505D01*
X539616Y42712D01*
X539761Y42735D01*
X539916Y42768D01*
X540083Y42812D01*
X540227Y42868D01*
X540361Y42957D01*
X540372Y42968D01*
X540416Y43001D01*
X540461Y43057D01*
X540527Y43134D01*
X540583Y43223D01*
X540638Y43334D01*
X540672Y43446D01*
X540683Y43579D01*
Y43590D01*
Y43635D01*
X540672Y43690D01*
X540650Y43768D01*
X540616Y43845D01*
X540561Y43923D01*
X540494Y44012D01*
X540394Y44079D01*
X540383Y44090D01*
X540350Y44101D01*
X540294Y44134D01*
X540205Y44168D01*
X540072Y44212D01*
X539994Y44245D01*
X539905Y44268D01*
X539805Y44301D01*
X539694Y44334D01*
X539572Y44368D01*
X539428Y44401D01*
X539416D01*
X539383Y44412D01*
X539327Y44423D01*
X539261Y44445D01*
X539172Y44468D01*
X539072Y44501D01*
X538861Y44557D01*
X538616Y44634D01*
X538383Y44701D01*
X538161Y44779D01*
X538061Y44823D01*
X537983Y44857D01*
X537961Y44868D01*
X537917Y44890D01*
X537850Y44934D01*
X537761Y44990D01*
X537661Y45068D01*
X537561Y45156D01*
X537461Y45257D01*
X537372Y45379D01*
X537361Y45390D01*
X537339Y45434D01*
X537305Y45512D01*
X537272Y45601D01*
X537239Y45712D01*
X537206Y45845D01*
X537183Y45979D01*
X537172Y46134D01*
Y46156D01*
Y46201D01*
X537183Y46268D01*
X537194Y46367D01*
X537217Y46468D01*
X537239Y46590D01*
X537283Y46701D01*
X537339Y46823D01*
X537350Y46834D01*
X537372Y46879D01*
X537405Y46934D01*
X537461Y47012D01*
X537528Y47090D01*
X537605Y47190D01*
X537694Y47278D01*
X537805Y47356D01*
X537816Y47367D01*
X537850Y47379D01*
X537894Y47412D01*
X537961Y47445D01*
X538050Y47490D01*
X538150Y47534D01*
X538272Y47578D01*
X538405Y47623D01*
X538427Y47634D01*
X538472Y47645D01*
X538550Y47667D01*
X538650Y47690D01*
X538772Y47712D01*
X538905Y47723D01*
X539061Y47745D01*
X539327D01*
X539450Y47734D01*
D02*
G37*
%LPC*%
G36*
X548049Y46968D02*
X547982D01*
X547938Y46956D01*
X547816Y46945D01*
X547671Y46912D01*
X547493Y46856D01*
X547304Y46779D01*
X547127Y46668D01*
X546949Y46523D01*
X546927Y46501D01*
X546882Y46445D01*
X546805Y46345D01*
X546727Y46212D01*
X546638Y46056D01*
X546560Y45856D01*
X546493Y45623D01*
X546460Y45368D01*
X549582D01*
Y45379D01*
Y45401D01*
X549571Y45434D01*
Y45479D01*
X549549Y45612D01*
X549515Y45757D01*
X549460Y45934D01*
X549404Y46101D01*
X549315Y46268D01*
X549215Y46412D01*
Y46423D01*
X549193Y46434D01*
X549138Y46501D01*
X549038Y46590D01*
X548904Y46690D01*
X548738Y46790D01*
X548538Y46879D01*
X548304Y46945D01*
X548182Y46956D01*
X548049Y46968D01*
D02*
G37*
G36*
X527595Y48823D02*
X525395D01*
Y46079D01*
X527462D01*
X527540Y46090D01*
X527618D01*
X527706Y46101D01*
X527917Y46123D01*
X528151Y46167D01*
X528384Y46234D01*
X528595Y46323D01*
X528695Y46379D01*
X528773Y46445D01*
X528795Y46468D01*
X528840Y46512D01*
X528906Y46601D01*
X528984Y46712D01*
X529062Y46856D01*
X529129Y47034D01*
X529173Y47234D01*
X529195Y47467D01*
Y47479D01*
Y47490D01*
Y47545D01*
X529184Y47645D01*
X529162Y47756D01*
X529140Y47879D01*
X529095Y48023D01*
X529029Y48156D01*
X528951Y48290D01*
X528940Y48301D01*
X528906Y48345D01*
X528851Y48401D01*
X528784Y48478D01*
X528684Y48556D01*
X528573Y48623D01*
X528451Y48689D01*
X528306Y48745D01*
X528295D01*
X528251Y48756D01*
X528184Y48767D01*
X528095Y48790D01*
X527962Y48801D01*
X527795Y48812D01*
X527595Y48823D01*
D02*
G37*
G36*
X517663Y47001D02*
X517607D01*
X517563Y46990D01*
X517452Y46968D01*
X517307Y46934D01*
X517141Y46867D01*
X516963Y46768D01*
X516863Y46701D01*
X516774Y46623D01*
X516685Y46534D01*
X516596Y46434D01*
Y46423D01*
X516574Y46412D01*
X516552Y46379D01*
X516530Y46334D01*
X516496Y46268D01*
X516452Y46201D01*
X516407Y46112D01*
X516374Y46023D01*
X516330Y45912D01*
X516285Y45790D01*
X516252Y45656D01*
X516208Y45512D01*
X516185Y45345D01*
X516163Y45179D01*
X516141Y45001D01*
Y44801D01*
Y44790D01*
Y44757D01*
Y44701D01*
X516152Y44623D01*
Y44534D01*
X516163Y44434D01*
X516196Y44201D01*
X516252Y43934D01*
X516319Y43679D01*
X516430Y43423D01*
X516496Y43312D01*
X516574Y43212D01*
X516596Y43190D01*
X516652Y43134D01*
X516741Y43046D01*
X516863Y42957D01*
X517019Y42868D01*
X517196Y42779D01*
X517396Y42723D01*
X517507Y42712D01*
X517619Y42701D01*
X517685D01*
X517730Y42712D01*
X517841Y42735D01*
X517996Y42768D01*
X518163Y42834D01*
X518341Y42923D01*
X518518Y43057D01*
X518607Y43134D01*
X518696Y43223D01*
Y43235D01*
X518718Y43246D01*
X518741Y43279D01*
X518763Y43323D01*
X518807Y43379D01*
X518841Y43457D01*
X518885Y43534D01*
X518929Y43635D01*
X518963Y43734D01*
X519007Y43868D01*
X519052Y44001D01*
X519085Y44146D01*
X519107Y44312D01*
X519130Y44490D01*
X519152Y44679D01*
Y44879D01*
Y44890D01*
Y44923D01*
Y44979D01*
X519141Y45057D01*
Y45145D01*
X519130Y45245D01*
X519096Y45479D01*
X519041Y45734D01*
X518963Y45990D01*
X518852Y46245D01*
X518785Y46367D01*
X518707Y46468D01*
Y46479D01*
X518685Y46490D01*
X518630Y46556D01*
X518541Y46634D01*
X518418Y46734D01*
X518263Y46834D01*
X518085Y46923D01*
X517885Y46979D01*
X517774Y46990D01*
X517663Y47001D01*
D02*
G37*
G36*
X534983Y44845D02*
X534972D01*
X534961Y44834D01*
X534928Y44823D01*
X534883Y44812D01*
X534828Y44790D01*
X534761Y44768D01*
X534684Y44745D01*
X534595Y44723D01*
X534495Y44690D01*
X534372Y44668D01*
X534250Y44634D01*
X534106Y44601D01*
X533950Y44568D01*
X533795Y44534D01*
X533617Y44512D01*
X533428Y44479D01*
X533406D01*
X533339Y44468D01*
X533228Y44445D01*
X533106Y44423D01*
X532972Y44401D01*
X532839Y44368D01*
X532717Y44334D01*
X532606Y44290D01*
X532595D01*
X532561Y44268D01*
X532517Y44245D01*
X532473Y44212D01*
X532339Y44123D01*
X532228Y43990D01*
Y43979D01*
X532206Y43957D01*
X532195Y43912D01*
X532173Y43857D01*
X532150Y43790D01*
X532128Y43723D01*
X532117Y43635D01*
X532106Y43546D01*
Y43534D01*
Y43479D01*
X532117Y43412D01*
X532139Y43323D01*
X532173Y43223D01*
X532228Y43123D01*
X532295Y43012D01*
X532384Y42912D01*
X532395Y42901D01*
X532439Y42879D01*
X532506Y42834D01*
X532595Y42790D01*
X532717Y42746D01*
X532861Y42701D01*
X533028Y42679D01*
X533228Y42668D01*
X533317D01*
X533428Y42679D01*
X533550Y42701D01*
X533706Y42723D01*
X533861Y42768D01*
X534028Y42823D01*
X534195Y42901D01*
X534217Y42912D01*
X534261Y42946D01*
X534339Y43001D01*
X534428Y43079D01*
X534528Y43168D01*
X534639Y43279D01*
X534728Y43412D01*
X534817Y43557D01*
X534828Y43568D01*
X534839Y43612D01*
X534861Y43690D01*
X534895Y43790D01*
X534928Y43923D01*
X534950Y44079D01*
X534961Y44268D01*
X534972Y44490D01*
X534983Y44845D01*
D02*
G37*
G36*
X511564Y46968D02*
X511497D01*
X511441Y46956D01*
X511319Y46945D01*
X511153Y46901D01*
X510964Y46834D01*
X510764Y46745D01*
X510575Y46612D01*
X510475Y46523D01*
X510386Y46434D01*
Y46423D01*
X510364Y46412D01*
X510342Y46379D01*
X510308Y46334D01*
X510275Y46279D01*
X510242Y46212D01*
X510197Y46123D01*
X510153Y46034D01*
X510108Y45923D01*
X510064Y45812D01*
X510030Y45679D01*
X509997Y45534D01*
X509964Y45379D01*
X509941Y45212D01*
X509930Y45023D01*
X509919Y44834D01*
Y44823D01*
Y44790D01*
Y44734D01*
X509930Y44657D01*
Y44568D01*
X509941Y44468D01*
X509975Y44234D01*
X510030Y43968D01*
X510119Y43701D01*
X510230Y43446D01*
X510308Y43334D01*
X510386Y43223D01*
X510397D01*
X510408Y43201D01*
X510475Y43146D01*
X510575Y43057D01*
X510708Y42968D01*
X510875Y42868D01*
X511075Y42779D01*
X511308Y42723D01*
X511430Y42712D01*
X511564Y42701D01*
X511630D01*
X511686Y42712D01*
X511808Y42735D01*
X511975Y42768D01*
X512152Y42834D01*
X512352Y42923D01*
X512541Y43057D01*
X512641Y43146D01*
X512730Y43235D01*
X512741Y43246D01*
X512752Y43257D01*
X512775Y43290D01*
X512808Y43334D01*
X512841Y43390D01*
X512886Y43457D01*
X512930Y43546D01*
X512975Y43635D01*
X513019Y43746D01*
X513052Y43868D01*
X513097Y44001D01*
X513130Y44146D01*
X513163Y44312D01*
X513186Y44479D01*
X513208Y44668D01*
Y44868D01*
Y44879D01*
Y44912D01*
Y44968D01*
X513197Y45034D01*
Y45123D01*
X513186Y45223D01*
X513152Y45456D01*
X513097Y45701D01*
X513008Y45968D01*
X512886Y46212D01*
X512819Y46334D01*
X512730Y46434D01*
Y46445D01*
X512708Y46456D01*
X512641Y46523D01*
X512541Y46601D01*
X512408Y46701D01*
X512241Y46801D01*
X512041Y46890D01*
X511819Y46945D01*
X511697Y46956D01*
X511564Y46968D01*
D02*
G37*
%LPD*%
D10*
X159327Y233314D02*
D03*
Y225833D02*
D03*
X159459Y277610D02*
D03*
Y285090D02*
D03*
X9879Y233846D02*
D03*
Y226366D02*
D03*
X10107Y277861D02*
D03*
Y285341D02*
D03*
D11*
X88668Y323321D02*
D03*
X92567D02*
D03*
X96567D02*
D03*
X100468D02*
D03*
X68919D02*
D03*
X84667D02*
D03*
X80730D02*
D03*
X76793D02*
D03*
X72856D02*
D03*
M02*
