%FSLAX25Y25*%
%MOIN*%
G70*
G01*
G75*
G04 Layer_Physical_Order=1*
G04 Layer_Color=255*
%ADD10R,0.05906X0.05118*%
%ADD11R,0.03000X0.13386*%
%ADD12C,0.01200*%
%ADD13C,0.02500*%
%ADD14C,0.05000*%
%ADD15C,0.17716*%
%ADD16C,0.08661*%
%ADD17C,0.05906*%
%ADD18C,0.10000*%
%ADD19C,0.07874*%
%ADD20C,0.07000*%
%ADD21R,0.07000X0.07000*%
%ADD22C,0.07874*%
%ADD23R,0.05906X0.05906*%
%ADD24R,0.07000X0.07000*%
%ADD25C,0.04724*%
%ADD26C,0.06000*%
%ADD27C,0.03150*%
%ADD28C,0.03937*%
G36*
X423441Y35923D02*
X423519Y35912D01*
X423686Y35890D01*
X423886Y35845D01*
X424097Y35779D01*
X424308Y35679D01*
X424519Y35556D01*
X424530D01*
X424541Y35534D01*
X424608Y35490D01*
X424708Y35401D01*
X424830Y35290D01*
X424964Y35145D01*
X425097Y34968D01*
X425230Y34756D01*
X425341Y34523D01*
Y34512D01*
X425352Y34490D01*
X425363Y34457D01*
X425386Y34412D01*
X425408Y34345D01*
X425430Y34268D01*
X425486Y34090D01*
X425541Y33868D01*
X425586Y33623D01*
X425619Y33345D01*
X425630Y33057D01*
Y33046D01*
Y33023D01*
Y32979D01*
Y32912D01*
X425619Y32834D01*
Y32746D01*
X425597Y32546D01*
X425552Y32301D01*
X425497Y32046D01*
X425419Y31779D01*
X425319Y31512D01*
Y31501D01*
X425308Y31479D01*
X425286Y31446D01*
X425264Y31401D01*
X425186Y31279D01*
X425086Y31124D01*
X424964Y30957D01*
X424808Y30790D01*
X424630Y30624D01*
X424419Y30468D01*
X424408D01*
X424397Y30457D01*
X424364Y30435D01*
X424319Y30413D01*
X424208Y30357D01*
X424052Y30290D01*
X423864Y30224D01*
X423664Y30168D01*
X423430Y30124D01*
X423197Y30112D01*
X423119D01*
X423030Y30124D01*
X422919Y30135D01*
X422786Y30157D01*
X422642Y30190D01*
X422497Y30235D01*
X422353Y30301D01*
X422341Y30312D01*
X422286Y30335D01*
X422219Y30379D01*
X422130Y30446D01*
X422042Y30512D01*
X421931Y30601D01*
X421831Y30701D01*
X421742Y30812D01*
Y28102D01*
X420797D01*
Y35812D01*
X421653D01*
Y35079D01*
X421664Y35101D01*
X421708Y35145D01*
X421764Y35223D01*
X421853Y35312D01*
X421953Y35423D01*
X422064Y35523D01*
X422197Y35623D01*
X422330Y35712D01*
X422353Y35723D01*
X422397Y35745D01*
X422486Y35779D01*
X422597Y35823D01*
X422730Y35868D01*
X422886Y35901D01*
X423064Y35923D01*
X423264Y35934D01*
X423386D01*
X423441Y35923D01*
D02*
G37*
G36*
X438340D02*
X438507Y35912D01*
X438695Y35890D01*
X438884Y35856D01*
X439073Y35812D01*
X439251Y35756D01*
X439273Y35745D01*
X439329Y35723D01*
X439406Y35690D01*
X439506Y35645D01*
X439618Y35579D01*
X439729Y35512D01*
X439829Y35423D01*
X439918Y35334D01*
X439929Y35323D01*
X439951Y35290D01*
X439984Y35234D01*
X440029Y35168D01*
X440084Y35068D01*
X440129Y34968D01*
X440173Y34845D01*
X440206Y34701D01*
Y34690D01*
X440217Y34657D01*
X440229Y34590D01*
X440240Y34501D01*
Y34379D01*
X440251Y34234D01*
X440262Y34045D01*
Y33834D01*
Y32568D01*
Y32557D01*
Y32512D01*
Y32446D01*
Y32357D01*
Y32257D01*
Y32135D01*
X440273Y31868D01*
Y31590D01*
X440284Y31312D01*
X440295Y31190D01*
Y31079D01*
X440306Y30979D01*
X440317Y30901D01*
Y30890D01*
X440329Y30846D01*
X440340Y30779D01*
X440373Y30690D01*
X440395Y30590D01*
X440440Y30479D01*
X440495Y30357D01*
X440551Y30235D01*
X439562D01*
X439551Y30246D01*
X439540Y30290D01*
X439518Y30346D01*
X439484Y30435D01*
X439451Y30535D01*
X439429Y30657D01*
X439406Y30790D01*
X439384Y30935D01*
X439373D01*
X439362Y30912D01*
X439295Y30857D01*
X439195Y30779D01*
X439062Y30679D01*
X438895Y30579D01*
X438729Y30468D01*
X438551Y30368D01*
X438362Y30290D01*
X438340Y30279D01*
X438273Y30268D01*
X438173Y30235D01*
X438051Y30201D01*
X437895Y30168D01*
X437718Y30146D01*
X437518Y30124D01*
X437318Y30112D01*
X437229D01*
X437162Y30124D01*
X437084D01*
X436996Y30135D01*
X436796Y30168D01*
X436573Y30224D01*
X436329Y30301D01*
X436107Y30413D01*
X435907Y30557D01*
X435885Y30579D01*
X435829Y30635D01*
X435751Y30735D01*
X435662Y30868D01*
X435573Y31035D01*
X435496Y31223D01*
X435440Y31457D01*
X435429Y31568D01*
X435418Y31701D01*
Y31723D01*
Y31768D01*
X435429Y31846D01*
X435440Y31946D01*
X435462Y32068D01*
X435496Y32190D01*
X435540Y32323D01*
X435596Y32446D01*
X435607Y32457D01*
X435629Y32501D01*
X435674Y32568D01*
X435729Y32646D01*
X435796Y32735D01*
X435885Y32823D01*
X435974Y32912D01*
X436085Y32990D01*
X436096Y33001D01*
X436140Y33023D01*
X436196Y33068D01*
X436285Y33112D01*
X436385Y33157D01*
X436507Y33212D01*
X436629Y33257D01*
X436773Y33301D01*
X436785D01*
X436829Y33312D01*
X436896Y33334D01*
X436984Y33345D01*
X437096Y33368D01*
X437240Y33390D01*
X437407Y33423D01*
X437607Y33446D01*
X437618D01*
X437662Y33457D01*
X437718D01*
X437795Y33468D01*
X437884Y33479D01*
X437995Y33501D01*
X438118Y33512D01*
X438251Y33534D01*
X438518Y33590D01*
X438806Y33645D01*
X439062Y33712D01*
X439184Y33746D01*
X439295Y33779D01*
Y33790D01*
Y33812D01*
X439306Y33879D01*
Y33957D01*
Y34001D01*
Y34023D01*
Y34034D01*
Y34045D01*
Y34112D01*
X439295Y34223D01*
X439273Y34345D01*
X439240Y34479D01*
X439184Y34612D01*
X439118Y34734D01*
X439029Y34834D01*
X439018Y34845D01*
X438962Y34890D01*
X438873Y34934D01*
X438762Y35001D01*
X438607Y35056D01*
X438429Y35112D01*
X438207Y35145D01*
X437951Y35156D01*
X437840D01*
X437729Y35145D01*
X437573Y35123D01*
X437418Y35101D01*
X437251Y35056D01*
X437096Y35001D01*
X436962Y34923D01*
X436951Y34912D01*
X436907Y34879D01*
X436851Y34823D01*
X436785Y34734D01*
X436718Y34623D01*
X436640Y34479D01*
X436573Y34301D01*
X436507Y34101D01*
X435585Y34223D01*
Y34234D01*
X435596Y34245D01*
Y34279D01*
X435607Y34323D01*
X435640Y34423D01*
X435685Y34568D01*
X435740Y34712D01*
X435807Y34868D01*
X435896Y35023D01*
X435996Y35168D01*
X436007Y35179D01*
X436051Y35223D01*
X436118Y35290D01*
X436207Y35379D01*
X436329Y35467D01*
X436473Y35556D01*
X436640Y35656D01*
X436829Y35734D01*
X436840D01*
X436851Y35745D01*
X436884Y35756D01*
X436929Y35767D01*
X437040Y35801D01*
X437196Y35834D01*
X437373Y35868D01*
X437596Y35901D01*
X437829Y35923D01*
X438096Y35934D01*
X438218D01*
X438340Y35923D01*
D02*
G37*
G36*
X444162Y30146D02*
Y30135D01*
X444150Y30101D01*
X444128Y30057D01*
X444106Y30001D01*
X444073Y29924D01*
X444039Y29835D01*
X443962Y29646D01*
X443884Y29435D01*
X443795Y29224D01*
X443706Y29035D01*
X443662Y28957D01*
X443628Y28879D01*
X443617Y28857D01*
X443584Y28802D01*
X443528Y28724D01*
X443462Y28624D01*
X443373Y28513D01*
X443273Y28402D01*
X443173Y28291D01*
X443051Y28202D01*
X443040Y28190D01*
X442995Y28168D01*
X442928Y28135D01*
X442828Y28091D01*
X442717Y28046D01*
X442584Y28013D01*
X442440Y27990D01*
X442273Y27979D01*
X442228D01*
X442173Y27990D01*
X442095D01*
X442006Y28013D01*
X441906Y28035D01*
X441795Y28057D01*
X441673Y28102D01*
X441573Y28979D01*
X441584D01*
X441629Y28968D01*
X441684Y28957D01*
X441751Y28935D01*
X441928Y28901D01*
X442106Y28890D01*
X442162D01*
X442217Y28901D01*
X442284D01*
X442451Y28935D01*
X442528Y28968D01*
X442606Y29002D01*
X442617D01*
X442639Y29024D01*
X442673Y29046D01*
X442717Y29079D01*
X442817Y29168D01*
X442906Y29290D01*
Y29302D01*
X442928Y29324D01*
X442951Y29368D01*
X442973Y29435D01*
X443017Y29524D01*
X443062Y29657D01*
X443128Y29812D01*
X443195Y30001D01*
Y30013D01*
X443217Y30057D01*
X443239Y30135D01*
X443284Y30235D01*
X441173Y35812D01*
X442173D01*
X443339Y32579D01*
Y32568D01*
X443351Y32557D01*
X443362Y32523D01*
X443373Y32468D01*
X443395Y32412D01*
X443417Y32346D01*
X443473Y32190D01*
X443539Y32001D01*
X443606Y31779D01*
X443673Y31546D01*
X443739Y31290D01*
Y31301D01*
X443750Y31324D01*
X443762Y31357D01*
X443773Y31401D01*
X443784Y31457D01*
X443806Y31523D01*
X443851Y31690D01*
X443906Y31879D01*
X443984Y32101D01*
X444051Y32323D01*
X444139Y32557D01*
X445339Y35812D01*
X446284D01*
X444162Y30146D01*
D02*
G37*
G36*
X455294Y35923D02*
X455416Y35901D01*
X455560Y35856D01*
X455716Y35801D01*
X455894Y35723D01*
X456083Y35623D01*
X455738Y34756D01*
X455727Y34768D01*
X455683Y34790D01*
X455616Y34823D01*
X455527Y34857D01*
X455427Y34890D01*
X455305Y34923D01*
X455183Y34945D01*
X455060Y34956D01*
X455005D01*
X454949Y34945D01*
X454872Y34934D01*
X454794Y34912D01*
X454694Y34879D01*
X454594Y34834D01*
X454505Y34768D01*
X454494Y34756D01*
X454460Y34734D01*
X454427Y34690D01*
X454372Y34634D01*
X454316Y34556D01*
X454261Y34468D01*
X454205Y34368D01*
X454161Y34245D01*
X454149Y34223D01*
X454138Y34157D01*
X454116Y34056D01*
X454083Y33923D01*
X454049Y33757D01*
X454027Y33568D01*
X454016Y33368D01*
X454005Y33145D01*
Y30235D01*
X453061D01*
Y35812D01*
X453916D01*
Y34968D01*
X453927Y34979D01*
X453972Y35056D01*
X454027Y35156D01*
X454116Y35279D01*
X454205Y35401D01*
X454305Y35534D01*
X454405Y35645D01*
X454505Y35734D01*
X454516Y35745D01*
X454549Y35767D01*
X454616Y35801D01*
X454683Y35834D01*
X454772Y35868D01*
X454883Y35901D01*
X454994Y35923D01*
X455116Y35934D01*
X455194D01*
X455294Y35923D01*
D02*
G37*
G36*
X430863Y31146D02*
X434651D01*
Y30235D01*
X429841D01*
Y37923D01*
X430863D01*
Y31146D01*
D02*
G37*
G36*
X221515Y364202D02*
X221507D01*
X221688Y361897D01*
X222226Y359658D01*
X222157Y359551D01*
X221859Y359296D01*
X221261Y359663D01*
X219755Y360287D01*
X218169Y360668D01*
X216544Y360796D01*
X214918Y360668D01*
X213333Y360287D01*
X211827Y359663D01*
X210436Y358811D01*
X209197Y357752D01*
X208138Y356513D01*
X207286Y355122D01*
X206662Y353616D01*
X206281Y352031D01*
X206153Y350405D01*
X206281Y348780D01*
X206662Y347195D01*
X207286Y345688D01*
X208138Y344298D01*
X209197Y343058D01*
X210436Y341999D01*
X211827Y341147D01*
X213333Y340524D01*
X214918Y340143D01*
X216544Y340015D01*
X218169Y340143D01*
X219755Y340524D01*
X221261Y341147D01*
X222651Y341999D01*
X223891Y343058D01*
X224950Y344298D01*
X225801Y345688D01*
X226426Y347195D01*
X226806Y348780D01*
X226934Y350405D01*
X226806Y352031D01*
X226719Y352392D01*
X227146Y352653D01*
X227581Y352282D01*
X229552Y351074D01*
X231688Y350189D01*
X233936Y349649D01*
X236241Y349468D01*
X236279Y348983D01*
Y99897D01*
X235615Y99831D01*
X234390Y99459D01*
X233261Y98856D01*
X232271Y98044D01*
X231459Y97054D01*
X230855Y95925D01*
X230484Y94699D01*
X230364Y93481D01*
X230353Y93425D01*
Y66929D01*
Y64055D01*
X230360Y64018D01*
X230489Y62704D01*
X230884Y61404D01*
X231524Y60207D01*
X232385Y59157D01*
X233435Y58296D01*
X234633Y57655D01*
X235932Y57261D01*
X236279Y57227D01*
Y25090D01*
X236241Y24606D01*
X233936Y24424D01*
X232322Y24036D01*
X232042Y24484D01*
X232539Y25088D01*
X233346Y26599D01*
X233843Y28239D01*
X234011Y29943D01*
X233843Y31648D01*
X233346Y33288D01*
X232539Y34799D01*
X231452Y36123D01*
X230128Y37210D01*
X228617Y38017D01*
X226977Y38515D01*
X225272Y38682D01*
X223568Y38515D01*
X221928Y38017D01*
X220417Y37210D01*
X219093Y36123D01*
X218006Y34799D01*
X217199Y33288D01*
X216702Y31648D01*
X216534Y29943D01*
X216702Y28239D01*
X217199Y26599D01*
X218006Y25088D01*
X219093Y23764D01*
X220417Y22677D01*
X221928Y21870D01*
X223568Y21373D01*
X225272Y21204D01*
X226235Y21299D01*
X226440Y20817D01*
X225822Y20290D01*
X224321Y18532D01*
X223113Y16560D01*
X222228Y14424D01*
X221688Y12176D01*
X221507Y9871D01*
X221515D01*
Y28D01*
X221517Y20D01*
X221200Y-367D01*
X140946D01*
Y-2373D01*
X136219D01*
Y-367D01*
X24899Y-396D01*
X24670Y-117D01*
X24589Y104D01*
Y3513D01*
X25043Y3722D01*
X25399Y3418D01*
X26789Y2567D01*
X28296Y1943D01*
X29881Y1562D01*
X31506Y1434D01*
X33132Y1562D01*
X34717Y1943D01*
X36224Y2567D01*
X37614Y3418D01*
X38853Y4477D01*
X39912Y5717D01*
X40764Y7107D01*
X41388Y8614D01*
X41769Y10199D01*
X41897Y11824D01*
X41769Y13450D01*
X41388Y15035D01*
X40764Y16542D01*
X39912Y17932D01*
X38853Y19172D01*
X37614Y20230D01*
X36224Y21082D01*
X34717Y21706D01*
X33132Y22087D01*
X31506Y22215D01*
X29881Y22087D01*
X28296Y21706D01*
X26789Y21082D01*
X25399Y20230D01*
X24159Y19172D01*
X23100Y17932D01*
X22876Y17565D01*
X22376D01*
X21784Y18532D01*
X20282Y20290D01*
X18524Y21791D01*
X16553Y22999D01*
X16311Y23100D01*
X16286Y23599D01*
X16764Y23855D01*
X17652Y24583D01*
X18381Y25471D01*
X18922Y26484D01*
X19255Y27583D01*
X19368Y28726D01*
X19255Y29869D01*
X18922Y30968D01*
X18381Y31981D01*
X17652Y32869D01*
X16764Y33598D01*
X15751Y34139D01*
X14652Y34472D01*
X13509Y34585D01*
X12366Y34472D01*
X11267Y34139D01*
X10254Y33598D01*
X9366Y32869D01*
X8637Y31981D01*
X8096Y30968D01*
X7763Y29869D01*
X7650Y28726D01*
X7763Y27583D01*
X8096Y26484D01*
X8637Y25471D01*
X8984Y25049D01*
X8770Y24597D01*
X1952D01*
Y63386D01*
X39370D01*
X39370Y171260D01*
X1952D01*
Y339633D01*
X9863D01*
X9863Y339633D01*
Y339632D01*
X12614Y339786D01*
X15331Y340248D01*
X17978Y341011D01*
X20524Y342065D01*
X21663Y342694D01*
X21983Y342310D01*
X21878Y342182D01*
X21070Y340671D01*
X20573Y339032D01*
X20405Y337327D01*
X20573Y335622D01*
X21070Y333983D01*
X21878Y332472D01*
X22964Y331148D01*
X24289Y330061D01*
X25800Y329253D01*
X27439Y328756D01*
X29144Y328588D01*
X30849Y328756D01*
X32488Y329253D01*
X33999Y330061D01*
X35323Y331148D01*
X36410Y332472D01*
X37218Y333983D01*
X37715Y335622D01*
X37883Y337327D01*
X37715Y339032D01*
X37218Y340671D01*
X36410Y342182D01*
X35323Y343506D01*
X33999Y344593D01*
X32488Y345401D01*
X30849Y345898D01*
X29144Y346066D01*
X27439Y345898D01*
X26693Y345672D01*
X26443Y346118D01*
X27237Y346828D01*
X29073Y348883D01*
X30667Y351130D01*
X32000Y353541D01*
X32490Y354725D01*
X32983Y354607D01*
X32975Y354509D01*
X33103Y352884D01*
X33483Y351298D01*
X34107Y349792D01*
X34959Y348402D01*
X36018Y347162D01*
X37258Y346103D01*
X38648Y345251D01*
X40154Y344627D01*
X41740Y344247D01*
X43365Y344119D01*
X44991Y344247D01*
X46576Y344627D01*
X48082Y345251D01*
X49472Y346103D01*
X50712Y347162D01*
X51771Y348402D01*
X52623Y349792D01*
X53247Y351298D01*
X53628Y352884D01*
X53755Y354509D01*
X53628Y356134D01*
X53247Y357720D01*
X52623Y359226D01*
X51771Y360616D01*
X50712Y361856D01*
X49472Y362915D01*
X48082Y363767D01*
X46576Y364391D01*
X44991Y364771D01*
X43365Y364899D01*
X41740Y364771D01*
X40154Y364391D01*
X38648Y363767D01*
X37258Y362915D01*
X36018Y361856D01*
X34959Y360616D01*
X34523Y359905D01*
X34047Y360084D01*
X34279Y361451D01*
X34433Y364202D01*
X34432D01*
X34432Y364202D01*
Y372901D01*
X221515D01*
Y364202D01*
D02*
G37*
G36*
X417264Y35923D02*
X417364Y35912D01*
X417475Y35890D01*
X417598Y35868D01*
X417742Y35845D01*
X418042Y35745D01*
X418197Y35690D01*
X418353Y35612D01*
X418509Y35534D01*
X418664Y35423D01*
X418809Y35312D01*
X418953Y35179D01*
X418964Y35168D01*
X418986Y35145D01*
X419020Y35101D01*
X419064Y35045D01*
X419120Y34968D01*
X419186Y34868D01*
X419253Y34756D01*
X419320Y34634D01*
X419386Y34501D01*
X419453Y34334D01*
X419520Y34168D01*
X419575Y33979D01*
X419620Y33779D01*
X419653Y33568D01*
X419675Y33345D01*
X419686Y33101D01*
Y33090D01*
Y33057D01*
Y33001D01*
Y32923D01*
X419675Y32834D01*
X419664Y32723D01*
Y32612D01*
X419642Y32490D01*
X419608Y32212D01*
X419542Y31934D01*
X419464Y31657D01*
X419353Y31401D01*
Y31390D01*
X419342Y31379D01*
X419320Y31346D01*
X419297Y31301D01*
X419220Y31190D01*
X419120Y31057D01*
X418986Y30901D01*
X418820Y30746D01*
X418631Y30590D01*
X418409Y30446D01*
X418398D01*
X418386Y30435D01*
X418353Y30413D01*
X418297Y30390D01*
X418242Y30368D01*
X418175Y30346D01*
X418009Y30279D01*
X417820Y30224D01*
X417586Y30168D01*
X417342Y30124D01*
X417075Y30112D01*
X416964D01*
X416875Y30124D01*
X416775Y30135D01*
X416664Y30157D01*
X416531Y30179D01*
X416398Y30201D01*
X416098Y30290D01*
X415931Y30357D01*
X415775Y30424D01*
X415620Y30512D01*
X415464Y30612D01*
X415320Y30724D01*
X415176Y30857D01*
X415165Y30868D01*
X415142Y30890D01*
X415109Y30935D01*
X415064Y31001D01*
X415009Y31079D01*
X414953Y31168D01*
X414887Y31279D01*
X414820Y31412D01*
X414753Y31557D01*
X414687Y31723D01*
X414631Y31901D01*
X414576Y32090D01*
X414531Y32301D01*
X414498Y32523D01*
X414476Y32768D01*
X414465Y33023D01*
Y33046D01*
Y33090D01*
X414476Y33168D01*
Y33279D01*
X414487Y33401D01*
X414509Y33557D01*
X414531Y33712D01*
X414576Y33890D01*
X414620Y34068D01*
X414676Y34257D01*
X414742Y34457D01*
X414831Y34645D01*
X414920Y34823D01*
X415042Y35001D01*
X415165Y35168D01*
X415320Y35312D01*
X415331Y35323D01*
X415353Y35334D01*
X415398Y35368D01*
X415453Y35412D01*
X415520Y35456D01*
X415609Y35512D01*
X415698Y35568D01*
X415809Y35623D01*
X415931Y35679D01*
X416064Y35734D01*
X416364Y35834D01*
X416709Y35912D01*
X416887Y35923D01*
X417075Y35934D01*
X417186D01*
X417264Y35923D01*
D02*
G37*
G36*
X413887Y37012D02*
X411354D01*
Y30235D01*
X410332D01*
Y37012D01*
X407798D01*
Y37923D01*
X413887D01*
Y37012D01*
D02*
G37*
G36*
X449561Y35923D02*
X449650Y35912D01*
X449761Y35890D01*
X449883Y35868D01*
X450028Y35834D01*
X450161Y35801D01*
X450316Y35745D01*
X450461Y35690D01*
X450617Y35612D01*
X450772Y35523D01*
X450928Y35423D01*
X451072Y35301D01*
X451205Y35168D01*
X451216Y35156D01*
X451239Y35134D01*
X451272Y35090D01*
X451316Y35023D01*
X451372Y34945D01*
X451428Y34857D01*
X451494Y34745D01*
X451561Y34612D01*
X451627Y34468D01*
X451694Y34312D01*
X451750Y34134D01*
X451805Y33945D01*
X451850Y33734D01*
X451883Y33512D01*
X451905Y33279D01*
X451916Y33023D01*
Y33012D01*
Y32968D01*
Y32890D01*
X451905Y32779D01*
X447739D01*
Y32768D01*
Y32735D01*
X447750Y32690D01*
Y32623D01*
X447761Y32546D01*
X447783Y32457D01*
X447817Y32257D01*
X447883Y32035D01*
X447972Y31790D01*
X448095Y31568D01*
X448250Y31368D01*
X448261D01*
X448272Y31346D01*
X448339Y31290D01*
X448439Y31212D01*
X448572Y31135D01*
X448750Y31046D01*
X448950Y30968D01*
X449172Y30912D01*
X449294Y30901D01*
X449428Y30890D01*
X449517D01*
X449617Y30901D01*
X449739Y30924D01*
X449872Y30957D01*
X450028Y31001D01*
X450172Y31068D01*
X450316Y31157D01*
X450328Y31168D01*
X450383Y31212D01*
X450450Y31279D01*
X450528Y31368D01*
X450617Y31490D01*
X450716Y31646D01*
X450816Y31823D01*
X450905Y32035D01*
X451883Y31912D01*
Y31901D01*
X451872Y31879D01*
X451861Y31835D01*
X451839Y31768D01*
X451805Y31701D01*
X451772Y31612D01*
X451683Y31424D01*
X451572Y31212D01*
X451416Y30990D01*
X451239Y30779D01*
X451016Y30579D01*
X451005D01*
X450983Y30557D01*
X450950Y30535D01*
X450905Y30501D01*
X450839Y30468D01*
X450772Y30435D01*
X450683Y30390D01*
X450583Y30346D01*
X450472Y30301D01*
X450361Y30257D01*
X450083Y30190D01*
X449772Y30135D01*
X449428Y30112D01*
X449305D01*
X449228Y30124D01*
X449128Y30135D01*
X449006Y30157D01*
X448872Y30179D01*
X448728Y30201D01*
X448417Y30290D01*
X448250Y30357D01*
X448095Y30424D01*
X447928Y30512D01*
X447772Y30612D01*
X447628Y30724D01*
X447483Y30857D01*
X447472Y30868D01*
X447450Y30890D01*
X447417Y30935D01*
X447372Y31001D01*
X447317Y31079D01*
X447261Y31168D01*
X447195Y31279D01*
X447128Y31401D01*
X447061Y31546D01*
X446995Y31701D01*
X446939Y31879D01*
X446883Y32068D01*
X446839Y32268D01*
X446806Y32490D01*
X446783Y32723D01*
X446772Y32968D01*
Y32979D01*
Y33034D01*
Y33101D01*
X446783Y33201D01*
X446795Y33323D01*
X446806Y33457D01*
X446828Y33612D01*
X446861Y33768D01*
X446950Y34123D01*
X447006Y34301D01*
X447072Y34490D01*
X447161Y34668D01*
X447261Y34834D01*
X447372Y35001D01*
X447495Y35156D01*
X447506Y35168D01*
X447528Y35190D01*
X447572Y35223D01*
X447628Y35279D01*
X447694Y35334D01*
X447783Y35401D01*
X447883Y35479D01*
X448006Y35545D01*
X448128Y35623D01*
X448272Y35690D01*
X448428Y35756D01*
X448595Y35812D01*
X448772Y35868D01*
X448961Y35901D01*
X449161Y35923D01*
X449372Y35934D01*
X449483D01*
X449561Y35923D01*
D02*
G37*
%LPC*%
G36*
X174983Y91420D02*
X174605Y91370D01*
X173787Y91031D01*
X173085Y90492D01*
X172546Y89790D01*
X172207Y88972D01*
X172158Y88595D01*
X174983D01*
Y91420D01*
D02*
G37*
G36*
X175483Y84116D02*
X174475Y83983D01*
X173535Y83594D01*
X172729Y82975D01*
X172109Y82168D01*
X171720Y81229D01*
X171588Y80221D01*
X171720Y79212D01*
X172109Y78273D01*
X172729Y77466D01*
X173535Y76847D01*
X174242Y76554D01*
Y76013D01*
X173535Y75720D01*
X172729Y75101D01*
X172109Y74294D01*
X171720Y73355D01*
X171588Y72347D01*
X171720Y71338D01*
X172109Y70399D01*
X172729Y69592D01*
X173535Y68973D01*
X174475Y68584D01*
X175483Y68451D01*
X176491Y68584D01*
X177431Y68973D01*
X178238Y69592D01*
X178857Y70399D01*
X179246Y71338D01*
X179379Y72347D01*
X179246Y73355D01*
X178857Y74294D01*
X178238Y75101D01*
X177431Y75720D01*
X176724Y76013D01*
Y76554D01*
X177431Y76847D01*
X178238Y77466D01*
X178857Y78273D01*
X179246Y79212D01*
X179379Y80221D01*
X179246Y81229D01*
X178857Y82168D01*
X178238Y82975D01*
X177431Y83594D01*
X176491Y83983D01*
X175483Y84116D01*
D02*
G37*
G36*
X174983Y87594D02*
X172158D01*
X172207Y87217D01*
X172546Y86399D01*
X173085Y85697D01*
X173787Y85158D01*
X174605Y84819D01*
X174983Y84769D01*
Y87594D01*
D02*
G37*
G36*
X178808D02*
X175983D01*
Y84769D01*
X176361Y84819D01*
X177179Y85158D01*
X177881Y85697D01*
X178420Y86399D01*
X178759Y87217D01*
X178808Y87594D01*
D02*
G37*
G36*
X175983Y91420D02*
Y88595D01*
X178808D01*
X178759Y88972D01*
X178420Y89790D01*
X177881Y90492D01*
X177179Y91031D01*
X176361Y91370D01*
X175983Y91420D01*
D02*
G37*
G36*
X218791Y131570D02*
X218115Y131504D01*
X216984Y131161D01*
X215942Y130604D01*
X215028Y129854D01*
X214278Y128940D01*
X213721Y127898D01*
X213378Y126767D01*
X213312Y126091D01*
X218791D01*
Y131570D01*
D02*
G37*
G36*
X219791D02*
Y126091D01*
X225271D01*
X225204Y126767D01*
X224861Y127898D01*
X224304Y128940D01*
X223554Y129854D01*
X222641Y130604D01*
X221599Y131161D01*
X220467Y131504D01*
X219791Y131570D01*
D02*
G37*
G36*
X218791Y125091D02*
X213312D01*
X213378Y124414D01*
X213721Y123283D01*
X214278Y122241D01*
X215028Y121327D01*
X215942Y120578D01*
X216984Y120020D01*
X218115Y119677D01*
X218791Y119611D01*
Y125091D01*
D02*
G37*
G36*
X225271D02*
X219791D01*
Y119611D01*
X220467Y119677D01*
X221599Y120020D01*
X222641Y120578D01*
X223554Y121327D01*
X224304Y122241D01*
X224861Y123283D01*
X225204Y124414D01*
X225271Y125091D01*
D02*
G37*
G36*
X423175Y35190D02*
X423119D01*
X423075Y35179D01*
X422964Y35156D01*
X422819Y35123D01*
X422653Y35056D01*
X422475Y34956D01*
X422375Y34890D01*
X422286Y34812D01*
X422197Y34723D01*
X422108Y34623D01*
Y34612D01*
X422086Y34601D01*
X422064Y34568D01*
X422042Y34523D01*
X422008Y34457D01*
X421964Y34390D01*
X421919Y34301D01*
X421886Y34212D01*
X421842Y34101D01*
X421797Y33979D01*
X421764Y33845D01*
X421719Y33701D01*
X421697Y33534D01*
X421675Y33368D01*
X421653Y33190D01*
Y32990D01*
Y32979D01*
Y32945D01*
Y32890D01*
X421664Y32812D01*
Y32723D01*
X421675Y32623D01*
X421708Y32390D01*
X421764Y32123D01*
X421831Y31868D01*
X421942Y31612D01*
X422008Y31501D01*
X422086Y31401D01*
X422108Y31379D01*
X422164Y31324D01*
X422253Y31235D01*
X422375Y31146D01*
X422530Y31057D01*
X422708Y30968D01*
X422908Y30912D01*
X423019Y30901D01*
X423130Y30890D01*
X423197D01*
X423241Y30901D01*
X423352Y30924D01*
X423508Y30957D01*
X423675Y31023D01*
X423852Y31112D01*
X424030Y31246D01*
X424119Y31324D01*
X424208Y31412D01*
Y31424D01*
X424230Y31435D01*
X424253Y31468D01*
X424275Y31512D01*
X424319Y31568D01*
X424352Y31646D01*
X424397Y31723D01*
X424441Y31823D01*
X424475Y31923D01*
X424519Y32057D01*
X424564Y32190D01*
X424597Y32335D01*
X424619Y32501D01*
X424641Y32679D01*
X424663Y32868D01*
Y33068D01*
Y33079D01*
Y33112D01*
Y33168D01*
X424652Y33246D01*
Y33334D01*
X424641Y33434D01*
X424608Y33668D01*
X424552Y33923D01*
X424475Y34179D01*
X424364Y34434D01*
X424297Y34556D01*
X424219Y34657D01*
Y34668D01*
X424197Y34679D01*
X424141Y34745D01*
X424052Y34823D01*
X423930Y34923D01*
X423775Y35023D01*
X423597Y35112D01*
X423397Y35168D01*
X423286Y35179D01*
X423175Y35190D01*
D02*
G37*
G36*
X449383Y35156D02*
X449317D01*
X449272Y35145D01*
X449150Y35134D01*
X449006Y35101D01*
X448828Y35045D01*
X448639Y34968D01*
X448461Y34857D01*
X448283Y34712D01*
X448261Y34690D01*
X448217Y34634D01*
X448139Y34534D01*
X448061Y34401D01*
X447972Y34245D01*
X447894Y34045D01*
X447828Y33812D01*
X447794Y33557D01*
X450916D01*
Y33568D01*
Y33590D01*
X450905Y33623D01*
Y33668D01*
X450883Y33801D01*
X450850Y33945D01*
X450794Y34123D01*
X450739Y34290D01*
X450650Y34457D01*
X450550Y34601D01*
Y34612D01*
X450528Y34623D01*
X450472Y34690D01*
X450372Y34779D01*
X450239Y34879D01*
X450072Y34979D01*
X449872Y35068D01*
X449639Y35134D01*
X449517Y35145D01*
X449383Y35156D01*
D02*
G37*
G36*
X439306Y33034D02*
X439295D01*
X439284Y33023D01*
X439251Y33012D01*
X439207Y33001D01*
X439151Y32979D01*
X439084Y32957D01*
X439007Y32934D01*
X438918Y32912D01*
X438818Y32879D01*
X438695Y32857D01*
X438573Y32823D01*
X438429Y32790D01*
X438273Y32757D01*
X438118Y32723D01*
X437940Y32701D01*
X437751Y32668D01*
X437729D01*
X437662Y32657D01*
X437551Y32634D01*
X437429Y32612D01*
X437296Y32590D01*
X437162Y32557D01*
X437040Y32523D01*
X436929Y32479D01*
X436918D01*
X436884Y32457D01*
X436840Y32434D01*
X436796Y32401D01*
X436662Y32312D01*
X436551Y32179D01*
Y32168D01*
X436529Y32146D01*
X436518Y32101D01*
X436496Y32046D01*
X436473Y31979D01*
X436451Y31912D01*
X436440Y31823D01*
X436429Y31735D01*
Y31723D01*
Y31668D01*
X436440Y31601D01*
X436462Y31512D01*
X436496Y31412D01*
X436551Y31312D01*
X436618Y31201D01*
X436707Y31101D01*
X436718Y31090D01*
X436762Y31068D01*
X436829Y31023D01*
X436918Y30979D01*
X437040Y30935D01*
X437184Y30890D01*
X437351Y30868D01*
X437551Y30857D01*
X437640D01*
X437751Y30868D01*
X437873Y30890D01*
X438029Y30912D01*
X438184Y30957D01*
X438351Y31012D01*
X438518Y31090D01*
X438540Y31101D01*
X438584Y31135D01*
X438662Y31190D01*
X438751Y31268D01*
X438851Y31357D01*
X438962Y31468D01*
X439051Y31601D01*
X439140Y31746D01*
X439151Y31757D01*
X439162Y31801D01*
X439184Y31879D01*
X439218Y31979D01*
X439251Y32112D01*
X439273Y32268D01*
X439284Y32457D01*
X439295Y32679D01*
X439306Y33034D01*
D02*
G37*
G36*
X417075Y35156D02*
X417009D01*
X416953Y35145D01*
X416831Y35134D01*
X416664Y35090D01*
X416475Y35023D01*
X416276Y34934D01*
X416087Y34801D01*
X415987Y34712D01*
X415898Y34623D01*
Y34612D01*
X415875Y34601D01*
X415853Y34568D01*
X415820Y34523D01*
X415787Y34468D01*
X415753Y34401D01*
X415709Y34312D01*
X415664Y34223D01*
X415620Y34112D01*
X415576Y34001D01*
X415542Y33868D01*
X415509Y33723D01*
X415476Y33568D01*
X415453Y33401D01*
X415442Y33212D01*
X415431Y33023D01*
Y33012D01*
Y32979D01*
Y32923D01*
X415442Y32846D01*
Y32757D01*
X415453Y32657D01*
X415487Y32423D01*
X415542Y32157D01*
X415631Y31890D01*
X415742Y31635D01*
X415820Y31523D01*
X415898Y31412D01*
X415909D01*
X415920Y31390D01*
X415987Y31335D01*
X416087Y31246D01*
X416220Y31157D01*
X416387Y31057D01*
X416586Y30968D01*
X416820Y30912D01*
X416942Y30901D01*
X417075Y30890D01*
X417142D01*
X417198Y30901D01*
X417320Y30924D01*
X417486Y30957D01*
X417664Y31023D01*
X417864Y31112D01*
X418053Y31246D01*
X418153Y31335D01*
X418242Y31424D01*
X418253Y31435D01*
X418264Y31446D01*
X418286Y31479D01*
X418320Y31523D01*
X418353Y31579D01*
X418398Y31646D01*
X418442Y31735D01*
X418486Y31823D01*
X418531Y31934D01*
X418564Y32057D01*
X418609Y32190D01*
X418642Y32335D01*
X418675Y32501D01*
X418698Y32668D01*
X418720Y32857D01*
Y33057D01*
Y33068D01*
Y33101D01*
Y33157D01*
X418709Y33223D01*
Y33312D01*
X418698Y33412D01*
X418664Y33645D01*
X418609Y33890D01*
X418520Y34157D01*
X418398Y34401D01*
X418331Y34523D01*
X418242Y34623D01*
Y34634D01*
X418220Y34645D01*
X418153Y34712D01*
X418053Y34790D01*
X417920Y34890D01*
X417753Y34990D01*
X417553Y35079D01*
X417331Y35134D01*
X417209Y35145D01*
X417075Y35156D01*
D02*
G37*
G36*
X204715Y22182D02*
X203089Y22054D01*
X201504Y21673D01*
X199997Y21049D01*
X198607Y20197D01*
X197368Y19138D01*
X196309Y17898D01*
X195457Y16508D01*
X194833Y15002D01*
X194452Y13417D01*
X194324Y11791D01*
X194452Y10166D01*
X194833Y8580D01*
X195457Y7074D01*
X196309Y5684D01*
X197368Y4444D01*
X198607Y3385D01*
X199997Y2533D01*
X201504Y1909D01*
X203089Y1529D01*
X204715Y1401D01*
X206340Y1529D01*
X207925Y1909D01*
X209432Y2533D01*
X210822Y3385D01*
X212062Y4444D01*
X213121Y5684D01*
X213972Y7074D01*
X214596Y8580D01*
X214977Y10166D01*
X215105Y11791D01*
X214977Y13417D01*
X214596Y15002D01*
X213972Y16508D01*
X213121Y17898D01*
X212062Y19138D01*
X210822Y20197D01*
X209432Y21049D01*
X207925Y21673D01*
X206340Y22054D01*
X204715Y22182D01*
D02*
G37*
G36*
X13509Y61357D02*
X12366Y61244D01*
X11267Y60911D01*
X10254Y60369D01*
X9366Y59641D01*
X8637Y58753D01*
X8096Y57740D01*
X7763Y56641D01*
X7650Y55498D01*
X7763Y54355D01*
X8096Y53256D01*
X8637Y52243D01*
X9366Y51355D01*
X10254Y50626D01*
X11267Y50085D01*
X12366Y49751D01*
X13509Y49639D01*
X14652Y49751D01*
X15751Y50085D01*
X16764Y50626D01*
X17652Y51355D01*
X18381Y52243D01*
X18922Y53256D01*
X19255Y54355D01*
X19368Y55498D01*
X19255Y56641D01*
X18922Y57740D01*
X18381Y58753D01*
X17652Y59641D01*
X16764Y60369D01*
X15751Y60911D01*
X14652Y61244D01*
X13509Y61357D01*
D02*
G37*
G36*
X167609Y88053D02*
X166601Y87920D01*
X165661Y87531D01*
X164854Y86912D01*
X164235Y86105D01*
X163846Y85166D01*
X163714Y84158D01*
X163846Y83149D01*
X164235Y82210D01*
X164854Y81403D01*
X165661Y80784D01*
X166368Y80491D01*
Y79950D01*
X165661Y79657D01*
X164854Y79038D01*
X164235Y78231D01*
X163846Y77292D01*
X163714Y76284D01*
X163846Y75275D01*
X164235Y74336D01*
X164854Y73529D01*
X165661Y72910D01*
X166368Y72617D01*
Y72076D01*
X165661Y71783D01*
X164854Y71164D01*
X164235Y70357D01*
X163846Y69418D01*
X163714Y68409D01*
X163846Y67401D01*
X164235Y66462D01*
X164854Y65655D01*
X165661Y65036D01*
X166601Y64647D01*
X167609Y64514D01*
X168617Y64647D01*
X169557Y65036D01*
X170364Y65655D01*
X170983Y66462D01*
X171372Y67401D01*
X171504Y68409D01*
X171372Y69418D01*
X170983Y70357D01*
X170364Y71164D01*
X169557Y71783D01*
X168850Y72076D01*
Y72617D01*
X169557Y72910D01*
X170364Y73529D01*
X170983Y74336D01*
X171372Y75275D01*
X171504Y76284D01*
X171372Y77292D01*
X170983Y78231D01*
X170364Y79038D01*
X169557Y79657D01*
X168850Y79950D01*
Y80491D01*
X169557Y80784D01*
X170364Y81403D01*
X170983Y82210D01*
X171372Y83149D01*
X171504Y84158D01*
X171372Y85166D01*
X170983Y86105D01*
X170364Y86912D01*
X169557Y87531D01*
X168617Y87920D01*
X167609Y88053D01*
D02*
G37*
G36*
X7997Y46603D02*
X6835Y46450D01*
X5752Y46001D01*
X4822Y45288D01*
X4108Y44357D01*
X3659Y43274D01*
X3506Y42112D01*
X3659Y40949D01*
X4108Y39866D01*
X4822Y38936D01*
X5752Y38222D01*
X6835Y37774D01*
X7997Y37621D01*
X9160Y37774D01*
X10243Y38222D01*
X11173Y38936D01*
X11887Y39866D01*
X12335Y40949D01*
X12488Y42112D01*
X12335Y43274D01*
X11887Y44357D01*
X11173Y45288D01*
X10243Y46001D01*
X9160Y46450D01*
X7997Y46603D01*
D02*
G37*
G36*
X35556D02*
X34394Y46450D01*
X33311Y46001D01*
X32381Y45288D01*
X31667Y44357D01*
X31218Y43274D01*
X31065Y42112D01*
X31218Y40949D01*
X31667Y39866D01*
X32381Y38936D01*
X33311Y38222D01*
X34394Y37774D01*
X35556Y37621D01*
X36719Y37774D01*
X37802Y38222D01*
X38732Y38936D01*
X39446Y39866D01*
X39894Y40949D01*
X40047Y42112D01*
X39894Y43274D01*
X39446Y44357D01*
X38732Y45288D01*
X37802Y46001D01*
X36719Y46450D01*
X35556Y46603D01*
D02*
G37*
G36*
X202906Y299624D02*
X198493D01*
X198597Y298836D01*
X199094Y297635D01*
X199885Y296603D01*
X200917Y295812D01*
X202118Y295315D01*
X202906Y295211D01*
Y299624D01*
D02*
G37*
G36*
X208320D02*
X203906D01*
Y295211D01*
X204695Y295315D01*
X205896Y295812D01*
X206927Y296603D01*
X207719Y297635D01*
X208216Y298836D01*
X208320Y299624D01*
D02*
G37*
G36*
X203406Y315451D02*
X201987Y315264D01*
X200664Y314716D01*
X199529Y313845D01*
X198657Y312709D01*
X198109Y311386D01*
X197923Y309967D01*
X198109Y308548D01*
X198657Y307225D01*
X199529Y306089D01*
X200664Y305218D01*
X201130Y305025D01*
Y304525D01*
X200917Y304437D01*
X199885Y303646D01*
X199094Y302614D01*
X198597Y301413D01*
X198493Y300624D01*
X208320D01*
X208216Y301413D01*
X207719Y302614D01*
X206927Y303646D01*
X205896Y304437D01*
X205683Y304525D01*
Y305025D01*
X206148Y305218D01*
X207284Y306089D01*
X208156Y307225D01*
X208703Y308548D01*
X208890Y309967D01*
X208703Y311386D01*
X208156Y312709D01*
X207284Y313845D01*
X206148Y314716D01*
X204826Y315264D01*
X203406Y315451D01*
D02*
G37*
G36*
X159449Y190109D02*
X158646Y190004D01*
X157898Y189694D01*
X157439Y189342D01*
X156917Y189201D01*
X156275Y189694D01*
X155527Y190004D01*
X154724Y190109D01*
X153922Y190004D01*
X153174Y189694D01*
X152531Y189201D01*
X152039Y188558D01*
X151729Y187811D01*
X151623Y187008D01*
X151729Y186205D01*
X152039Y185457D01*
X152531Y184815D01*
X152583Y184775D01*
Y140422D01*
X152531Y140382D01*
X152039Y139740D01*
X151729Y138992D01*
X151623Y138189D01*
X151729Y137386D01*
X152039Y136638D01*
X152531Y135996D01*
X153174Y135503D01*
X153922Y135193D01*
X154724Y135088D01*
X155527Y135193D01*
X156275Y135503D01*
X156917Y135996D01*
X157410Y136638D01*
X157720Y137386D01*
X157826Y138189D01*
X157720Y138992D01*
X157410Y139740D01*
X156917Y140382D01*
X156866Y140422D01*
Y164488D01*
X157366Y164652D01*
X157898Y164243D01*
X158646Y163934D01*
X159449Y163828D01*
X160251Y163934D01*
X161000Y164243D01*
X161642Y164736D01*
X162135Y165378D01*
X162444Y166126D01*
X162550Y166929D01*
X162444Y167732D01*
X162135Y168480D01*
X161642Y169122D01*
X161590Y169162D01*
Y184775D01*
X161642Y184815D01*
X162135Y185457D01*
X162444Y186205D01*
X162550Y187008D01*
X162444Y187811D01*
X162135Y188558D01*
X161642Y189201D01*
X161000Y189694D01*
X160251Y190004D01*
X159449Y190109D01*
D02*
G37*
G36*
X151667Y212899D02*
X150493Y212744D01*
X149398Y212291D01*
X148458Y211570D01*
X147737Y210630D01*
X147283Y209535D01*
X147129Y208360D01*
X147283Y207185D01*
X147737Y206091D01*
X148458Y205151D01*
X149398Y204429D01*
X150493Y203976D01*
X151667Y203821D01*
X152842Y203976D01*
X153937Y204429D01*
X154877Y205151D01*
X155598Y206091D01*
X156052Y207185D01*
X156206Y208360D01*
X156052Y209535D01*
X155598Y210630D01*
X154877Y211570D01*
X153937Y212291D01*
X152842Y212744D01*
X151667Y212899D01*
D02*
G37*
G36*
X41776Y286152D02*
X40502Y286027D01*
X39277Y285655D01*
X38148Y285051D01*
X37158Y284239D01*
X36346Y283249D01*
X35742Y282120D01*
X35370Y280895D01*
X35245Y279621D01*
X35370Y278346D01*
X35742Y277121D01*
X36346Y275992D01*
X37158Y275002D01*
X38148Y274190D01*
X39277Y273586D01*
X40502Y273215D01*
X41776Y273089D01*
X43051Y273215D01*
X44276Y273586D01*
X44606Y273763D01*
X49434Y268935D01*
Y259897D01*
X48972Y259705D01*
X47634Y261043D01*
X47811Y261373D01*
X48182Y262598D01*
X48308Y263873D01*
X48182Y265147D01*
X47811Y266372D01*
X47207Y267501D01*
X46395Y268491D01*
X45405Y269303D01*
X44276Y269907D01*
X43051Y270279D01*
X41776Y270404D01*
X40502Y270279D01*
X39277Y269907D01*
X38148Y269303D01*
X37158Y268491D01*
X36346Y267501D01*
X35742Y266372D01*
X35370Y265147D01*
X35245Y263873D01*
X35370Y262598D01*
X35742Y261373D01*
X36346Y260244D01*
X37158Y259254D01*
X38148Y258442D01*
X39277Y257838D01*
X40502Y257467D01*
X41776Y257341D01*
X43051Y257467D01*
X44276Y257838D01*
X44606Y258015D01*
X47509Y255112D01*
Y238394D01*
X47009Y238215D01*
X46395Y238963D01*
X45405Y239776D01*
X44276Y240379D01*
X43051Y240751D01*
X41776Y240876D01*
X40502Y240751D01*
X39277Y240379D01*
X38148Y239776D01*
X37158Y238963D01*
X36346Y237974D01*
X35742Y236844D01*
X35370Y235619D01*
X35245Y234345D01*
X35370Y233071D01*
X35742Y231845D01*
X36346Y230716D01*
X37158Y229727D01*
X38148Y228914D01*
X39277Y228311D01*
X40502Y227939D01*
X41776Y227814D01*
X43051Y227939D01*
X44276Y228311D01*
X45405Y228914D01*
X46395Y229727D01*
X47009Y230475D01*
X47509Y230296D01*
Y77751D01*
X45778Y76020D01*
X45713Y76029D01*
X44911Y75923D01*
X44163Y75613D01*
X43521Y75121D01*
X43028Y74478D01*
X42718Y73730D01*
X42612Y72928D01*
X42718Y72125D01*
X43028Y71377D01*
X43521Y70735D01*
X44163Y70242D01*
X44911Y69932D01*
X45713Y69826D01*
X46516Y69932D01*
X47264Y70242D01*
X47907Y70735D01*
X48399Y71377D01*
X48709Y72125D01*
X48784Y72694D01*
X48934Y72801D01*
X49434Y72544D01*
Y60096D01*
X49534Y59589D01*
X49470Y59099D01*
X49576Y58297D01*
X49703Y57990D01*
X49289Y57683D01*
X48654Y58204D01*
X47641Y58745D01*
X46542Y59079D01*
X45399Y59191D01*
X44256Y59079D01*
X43157Y58745D01*
X42144Y58204D01*
X41256Y57475D01*
X40527Y56587D01*
X39986Y55575D01*
X39652Y54475D01*
X39540Y53332D01*
X39652Y52189D01*
X39986Y51090D01*
X40527Y50077D01*
X41256Y49189D01*
X42144Y48461D01*
X43157Y47919D01*
X44256Y47586D01*
X45399Y47473D01*
X45576Y47491D01*
X45724Y47003D01*
X45687Y46983D01*
X44799Y46255D01*
X44071Y45367D01*
X43529Y44354D01*
X43196Y43255D01*
X43083Y42112D01*
X43196Y40969D01*
X43529Y39870D01*
X44071Y38857D01*
X44799Y37969D01*
X45687Y37240D01*
X45724Y37221D01*
X45576Y36733D01*
X45399Y36750D01*
X44256Y36638D01*
X43157Y36304D01*
X42144Y35763D01*
X41256Y35034D01*
X40527Y34146D01*
X39986Y33134D01*
X39652Y32034D01*
X39540Y30891D01*
X39652Y29748D01*
X39986Y28649D01*
X40527Y27636D01*
X41256Y26748D01*
X42144Y26020D01*
X43157Y25479D01*
X44256Y25145D01*
X45399Y25032D01*
X46542Y25145D01*
X47641Y25479D01*
X48654Y26020D01*
X49542Y26748D01*
X50270Y27636D01*
X50812Y28649D01*
X51145Y29748D01*
X51258Y30891D01*
X51145Y32034D01*
X50812Y33134D01*
X50270Y34146D01*
X49542Y35034D01*
X48654Y35763D01*
X48617Y35783D01*
X48765Y36270D01*
X48942Y36253D01*
X50085Y36366D01*
X51184Y36699D01*
X52197Y37240D01*
X53085Y37969D01*
X53814Y38857D01*
X54355Y39870D01*
X54689Y40969D01*
X54801Y42112D01*
X54689Y43255D01*
X54355Y44354D01*
X53814Y45367D01*
X53085Y46255D01*
X52197Y46983D01*
X51184Y47525D01*
X50085Y47858D01*
X48942Y47971D01*
X48765Y47953D01*
X48617Y48441D01*
X48654Y48461D01*
X49542Y49189D01*
X50270Y50077D01*
X50812Y51090D01*
X51145Y52189D01*
X51258Y53332D01*
X51145Y54475D01*
X50812Y55575D01*
X50477Y56200D01*
X50867Y56531D01*
X51021Y56414D01*
X51769Y56104D01*
X52571Y55998D01*
X53374Y56104D01*
X54122Y56414D01*
X54764Y56906D01*
X55257Y57549D01*
X55567Y58297D01*
X55673Y59099D01*
X55567Y59902D01*
X55257Y60650D01*
X54764Y61292D01*
X54122Y61785D01*
X53716Y61953D01*
Y269822D01*
X53553Y270642D01*
X53089Y271336D01*
X47634Y276791D01*
X47811Y277121D01*
X48182Y278346D01*
X48308Y279621D01*
X48182Y280895D01*
X47811Y282120D01*
X47207Y283249D01*
X46395Y284239D01*
X45405Y285051D01*
X44276Y285655D01*
X43051Y286027D01*
X41776Y286152D01*
D02*
G37*
G36*
X69788Y365024D02*
X68514Y364898D01*
X67289Y364526D01*
X66160Y363923D01*
X65170Y363110D01*
X64358Y362121D01*
X63754Y360992D01*
X63382Y359766D01*
X63257Y358492D01*
X63382Y357218D01*
X63754Y355993D01*
X64358Y354863D01*
X65170Y353874D01*
X66160Y353061D01*
X67015Y352604D01*
Y350071D01*
X51607Y334664D01*
X50508D01*
X50174Y334920D01*
X49331Y335269D01*
X48425Y335388D01*
X47520Y335269D01*
X46676Y334920D01*
X45951Y334364D01*
X45395Y333639D01*
X45046Y332795D01*
X44927Y331890D01*
X45046Y330984D01*
X45395Y330140D01*
X45951Y329416D01*
X46676Y328860D01*
X47520Y328510D01*
X48425Y328391D01*
X49331Y328510D01*
X50174Y328860D01*
X50508Y329116D01*
X52756D01*
X53474Y329210D01*
X54143Y329488D01*
X54717Y329928D01*
X58683Y333895D01*
X59182Y333862D01*
X59417Y333556D01*
X59469Y333517D01*
Y323846D01*
X59344Y323722D01*
X58880Y323027D01*
X58717Y322208D01*
Y290049D01*
X58665Y290009D01*
X58172Y289367D01*
X57863Y288619D01*
X57757Y287816D01*
X57863Y287014D01*
X58172Y286265D01*
X58665Y285623D01*
X59307Y285130D01*
X60055Y284821D01*
X60858Y284715D01*
X61661Y284821D01*
X62055Y284984D01*
X62555Y284650D01*
Y284214D01*
X62718Y283394D01*
X63182Y282700D01*
X64273Y281608D01*
X64265Y281543D01*
X64371Y280740D01*
X64680Y279993D01*
X65173Y279350D01*
X65816Y278857D01*
X66563Y278548D01*
X67366Y278442D01*
X68169Y278548D01*
X68917Y278857D01*
X69559Y279350D01*
X70052Y279993D01*
X70266Y280508D01*
X70807D01*
X71020Y279993D01*
X71513Y279350D01*
X72155Y278857D01*
X72903Y278548D01*
X73706Y278442D01*
X74509Y278548D01*
X75257Y278857D01*
X75899Y279350D01*
X76392Y279993D01*
X76540Y280350D01*
X77081D01*
X77271Y279892D01*
X77764Y279249D01*
X77816Y279210D01*
Y235873D01*
X77354Y235682D01*
X76809Y236227D01*
X76817Y236292D01*
X76711Y237095D01*
X76402Y237843D01*
X75909Y238485D01*
X75266Y238978D01*
X74519Y239288D01*
X73716Y239393D01*
X73189Y239324D01*
X73142Y239348D01*
X73035Y239478D01*
X72920Y239793D01*
X73344Y240346D01*
X73654Y241094D01*
X73760Y241897D01*
X73654Y242699D01*
X73344Y243447D01*
X72852Y244090D01*
X72209Y244583D01*
X71461Y244892D01*
X70659Y244998D01*
X69856Y244892D01*
X69108Y244583D01*
X68466Y244090D01*
X67973Y243447D01*
X67663Y242699D01*
X67557Y241897D01*
X67663Y241094D01*
X67973Y240346D01*
X68406Y239781D01*
Y234453D01*
X68569Y233634D01*
X69033Y232939D01*
X76653Y225320D01*
Y216398D01*
X76191Y216207D01*
X70416Y221983D01*
X70424Y222047D01*
X70319Y222850D01*
X70009Y223598D01*
X69516Y224240D01*
X68874Y224733D01*
X68125Y225043D01*
X67323Y225149D01*
X66520Y225043D01*
X65772Y224733D01*
X65130Y224240D01*
X64637Y223598D01*
X64601Y223511D01*
X64037Y223455D01*
X63744Y223894D01*
X62080Y225558D01*
X62088Y225623D01*
X61983Y226425D01*
X61673Y227173D01*
X61180Y227815D01*
X60538Y228308D01*
X59790Y228618D01*
X58987Y228724D01*
X58184Y228618D01*
X57437Y228308D01*
X56794Y227815D01*
X56301Y227173D01*
X55992Y226425D01*
X55886Y225623D01*
X55992Y224820D01*
X56301Y224072D01*
X56612Y223667D01*
X56721Y223249D01*
X56600Y222948D01*
X56256Y222500D01*
X55946Y221752D01*
X55841Y220949D01*
X55946Y220147D01*
X56256Y219399D01*
X56749Y218756D01*
X56801Y218717D01*
Y100900D01*
X56964Y100081D01*
X57428Y99386D01*
X64230Y92585D01*
X64222Y92520D01*
X64327Y91717D01*
X64637Y90969D01*
X65130Y90327D01*
X65772Y89834D01*
X66520Y89524D01*
X67323Y89418D01*
X68125Y89524D01*
X68874Y89834D01*
X69516Y90327D01*
X70009Y90969D01*
X70319Y91717D01*
X70424Y92520D01*
X70319Y93322D01*
X70009Y94070D01*
X69516Y94713D01*
X68874Y95205D01*
X68125Y95515D01*
X67323Y95621D01*
X67258Y95613D01*
X66346Y96525D01*
X66506Y96999D01*
X66551Y97004D01*
X67299Y97314D01*
X67941Y97807D01*
X68434Y98449D01*
X68744Y99197D01*
X68849Y100000D01*
X68744Y100803D01*
X68434Y101551D01*
X67941Y102193D01*
X67299Y102686D01*
X66551Y102996D01*
X65748Y103101D01*
X65683Y103093D01*
X64461Y104315D01*
Y187587D01*
X64961Y187994D01*
X65399Y187936D01*
X66201Y188042D01*
X66949Y188352D01*
X67592Y188845D01*
X68084Y189487D01*
X68394Y190235D01*
X68500Y191038D01*
X68394Y191841D01*
X68172Y192376D01*
Y201510D01*
X68394Y202046D01*
X68500Y202849D01*
X68394Y203652D01*
X68084Y204399D01*
X67592Y205042D01*
X66949Y205535D01*
X66201Y205844D01*
X65399Y205950D01*
X64871Y205881D01*
X64371Y206248D01*
Y220022D01*
X64871Y220191D01*
X65130Y219854D01*
X65772Y219361D01*
X66520Y219052D01*
X67323Y218946D01*
X67388Y218954D01*
X73769Y212573D01*
Y86140D01*
X73213Y86067D01*
X72465Y85757D01*
X71823Y85264D01*
X71330Y84622D01*
X71020Y83874D01*
X70914Y83071D01*
X71020Y82268D01*
X71330Y81520D01*
X71823Y80878D01*
X72465Y80385D01*
X73213Y80075D01*
X73258Y80069D01*
X73418Y79596D01*
X72899Y79077D01*
X72835Y79086D01*
X72032Y78980D01*
X71284Y78670D01*
X70642Y78177D01*
X70149Y77535D01*
X69839Y76787D01*
X69733Y75984D01*
X69839Y75182D01*
X70149Y74434D01*
X70642Y73791D01*
X71284Y73298D01*
X72032Y72989D01*
X72835Y72883D01*
X73637Y72989D01*
X74385Y73298D01*
X75028Y73791D01*
X75520Y74434D01*
X75830Y75182D01*
X75936Y75984D01*
X75927Y76049D01*
X79065Y79186D01*
X79346Y79070D01*
X79530Y78944D01*
X79690Y78143D01*
X80154Y77448D01*
X85096Y72506D01*
X85088Y72441D01*
X85193Y71638D01*
X85503Y70890D01*
X85996Y70248D01*
X86638Y69755D01*
X87386Y69445D01*
X88189Y69340D01*
X88992Y69445D01*
X89485Y69650D01*
X89985Y69347D01*
Y40815D01*
X89933Y40776D01*
X89440Y40133D01*
X89130Y39385D01*
X89025Y38583D01*
X89130Y37780D01*
X89440Y37032D01*
X89933Y36390D01*
X90575Y35897D01*
X91323Y35587D01*
X92126Y35481D01*
X92929Y35587D01*
X93677Y35897D01*
X94319Y36390D01*
X94812Y37032D01*
X95122Y37780D01*
X95227Y38583D01*
X95122Y39385D01*
X94812Y40133D01*
X94319Y40776D01*
X94267Y40815D01*
Y227953D01*
X94104Y228772D01*
X93640Y229467D01*
X85999Y237107D01*
Y256200D01*
X86549Y256750D01*
X86614Y256741D01*
X87417Y256847D01*
X88165Y257157D01*
X88807Y257649D01*
X89300Y258292D01*
X89610Y259040D01*
X89715Y259842D01*
X89610Y260645D01*
X89300Y261393D01*
X88807Y262035D01*
X88165Y262528D01*
X87417Y262838D01*
X86614Y262944D01*
X85812Y262838D01*
X85063Y262528D01*
X84421Y262035D01*
X83928Y261393D01*
X83618Y260645D01*
X83513Y259842D01*
X83521Y259778D01*
X82598Y258854D01*
X82098Y259062D01*
Y279210D01*
X82150Y279249D01*
X82643Y279892D01*
X82851Y280395D01*
X83393D01*
X83579Y279945D01*
X84072Y279303D01*
X84714Y278810D01*
X85462Y278500D01*
X86265Y278395D01*
X87067Y278500D01*
X87815Y278810D01*
X88458Y279303D01*
X88951Y279945D01*
X89260Y280693D01*
X89366Y281496D01*
X89260Y282299D01*
X88951Y283047D01*
X88458Y283689D01*
X88406Y283729D01*
Y309798D01*
X88243Y310618D01*
X87779Y311312D01*
X84425Y314666D01*
X84616Y315128D01*
X90426D01*
Y310501D01*
X90374Y310461D01*
X89882Y309818D01*
X89572Y309070D01*
X89466Y308268D01*
X89572Y307465D01*
X89882Y306717D01*
X90374Y306075D01*
X91017Y305582D01*
X91765Y305272D01*
X92567Y305166D01*
X93370Y305272D01*
X94118Y305582D01*
X94761Y306075D01*
X95253Y306717D01*
X95563Y307465D01*
X95628Y307960D01*
X95669Y308268D01*
X96162Y308355D01*
X96457Y308316D01*
X97259Y308422D01*
X98007Y308732D01*
X98650Y309224D01*
X99142Y309867D01*
X99452Y310615D01*
X99558Y311417D01*
X99452Y312220D01*
X99142Y312968D01*
X98709Y313533D01*
Y315128D01*
X103468D01*
Y331514D01*
X102609D01*
Y352166D01*
X103079Y352780D01*
X103389Y353528D01*
X103495Y354331D01*
X103389Y355133D01*
X103079Y355881D01*
X102587Y356524D01*
X101944Y357016D01*
X101196Y357326D01*
X100394Y357432D01*
X99591Y357326D01*
X98843Y357016D01*
X98201Y356524D01*
X97708Y355881D01*
X97398Y355133D01*
X97292Y354331D01*
X97398Y353528D01*
X97708Y352780D01*
X98201Y352138D01*
X98326Y352041D01*
Y331514D01*
X90809D01*
Y333512D01*
X90919Y333597D01*
X91412Y334239D01*
X91721Y334987D01*
X91827Y335790D01*
X91721Y336592D01*
X91412Y337340D01*
X90919Y337983D01*
X90276Y338475D01*
X89529Y338785D01*
X88726Y338891D01*
X87923Y338785D01*
X87175Y338475D01*
X86945Y338299D01*
X86922Y338330D01*
X86279Y338823D01*
X85532Y339133D01*
X84729Y339239D01*
X83926Y339133D01*
X83372Y338903D01*
X82872Y339170D01*
Y350316D01*
X83793Y351238D01*
X83858Y351229D01*
X84661Y351335D01*
X85409Y351645D01*
X86051Y352138D01*
X86544Y352780D01*
X86854Y353528D01*
X86960Y354331D01*
X86854Y355133D01*
X86544Y355881D01*
X86051Y356524D01*
X85409Y357016D01*
X84661Y357326D01*
X83858Y357432D01*
X83056Y357326D01*
X82308Y357016D01*
X81665Y356524D01*
X81172Y355881D01*
X81156Y355840D01*
X80655D01*
X80639Y355881D01*
X80146Y356524D01*
X79503Y357016D01*
X78755Y357326D01*
X77953Y357432D01*
X77150Y357326D01*
X76670Y357127D01*
X76220Y357483D01*
X76320Y358492D01*
X76194Y359766D01*
X75823Y360992D01*
X75219Y362121D01*
X74407Y363110D01*
X73417Y363923D01*
X72288Y364526D01*
X71063Y364898D01*
X69788Y365024D01*
D02*
G37*
G36*
X159887Y361315D02*
X159084Y361210D01*
X158336Y360900D01*
X157694Y360407D01*
X157201Y359765D01*
X156891Y359017D01*
X156785Y358214D01*
X156891Y357411D01*
X157113Y356875D01*
Y349742D01*
X156697Y349465D01*
X156475Y349557D01*
X155672Y349662D01*
X154869Y349557D01*
X154121Y349247D01*
X153479Y348754D01*
X152986Y348112D01*
X152676Y347364D01*
X152571Y346561D01*
X152676Y345758D01*
X152986Y345010D01*
X153118Y344838D01*
Y337489D01*
X153213Y336771D01*
X153375Y336380D01*
X153490Y336102D01*
X153931Y335528D01*
X156242Y333217D01*
X156816Y332776D01*
X157485Y332499D01*
X158203Y332404D01*
X159464D01*
X159798Y331905D01*
X159635Y331510D01*
X159516Y330604D01*
Y320138D01*
X159016Y319986D01*
X158994Y320018D01*
X147577Y331435D01*
X147256Y331649D01*
X147378Y332170D01*
X147683Y332210D01*
X148431Y332520D01*
X149074Y333013D01*
X149566Y333655D01*
X149876Y334403D01*
X149982Y335206D01*
X149876Y336008D01*
X149566Y336756D01*
X149074Y337399D01*
X148431Y337892D01*
X147683Y338201D01*
X146881Y338307D01*
X146078Y338201D01*
X145330Y337892D01*
X144688Y337399D01*
X144541Y337207D01*
X144041D01*
X143891Y337402D01*
X143249Y337894D01*
X142501Y338204D01*
X141698Y338310D01*
X140895Y338204D01*
X140148Y337894D01*
X139531Y337422D01*
X133093D01*
X132273Y337259D01*
X131579Y336794D01*
X121820Y327036D01*
X121358Y327227D01*
Y333931D01*
X121484Y334028D01*
X121977Y334670D01*
X122287Y335418D01*
X122393Y336221D01*
X122287Y337023D01*
X121977Y337771D01*
X121484Y338413D01*
X120842Y338906D01*
X120094Y339216D01*
X119291Y339322D01*
X118489Y339216D01*
X117741Y338906D01*
X117098Y338413D01*
X116605Y337771D01*
X116296Y337023D01*
X116190Y336221D01*
X116296Y335418D01*
X116605Y334670D01*
X117076Y334057D01*
Y330549D01*
X116576Y330342D01*
X115372Y331546D01*
X115378Y331587D01*
X115272Y332389D01*
X114962Y333137D01*
X114469Y333780D01*
X113827Y334272D01*
X113079Y334582D01*
X112276Y334688D01*
X111474Y334582D01*
X110726Y334272D01*
X110703Y334255D01*
X110254Y334476D01*
Y339606D01*
X110476Y340142D01*
X110582Y340945D01*
X110476Y341748D01*
X110166Y342495D01*
X109673Y343138D01*
X109031Y343631D01*
X108283Y343940D01*
X107480Y344046D01*
X106678Y343940D01*
X105930Y343631D01*
X105287Y343138D01*
X104795Y342495D01*
X104485Y341748D01*
X104379Y340945D01*
X104485Y340142D01*
X104707Y339606D01*
Y315711D01*
X104656Y315330D01*
Y304866D01*
X98304Y298514D01*
X97769Y298292D01*
X97126Y297799D01*
X96634Y297157D01*
X96324Y296409D01*
X96218Y295607D01*
X96324Y294804D01*
X96634Y294056D01*
X97126Y293414D01*
X97769Y292921D01*
X98517Y292611D01*
X99319Y292505D01*
X100122Y292611D01*
X100870Y292921D01*
X101512Y293414D01*
X102005Y294056D01*
X102227Y294592D01*
X109391Y301756D01*
X109832Y302330D01*
X109947Y302607D01*
X109957Y302632D01*
X110457Y302533D01*
Y299608D01*
X108317Y297468D01*
X108252Y297477D01*
X107449Y297371D01*
X106702Y297061D01*
X106059Y296568D01*
X105566Y295926D01*
X105257Y295178D01*
X105151Y294375D01*
X105257Y293573D01*
X105566Y292825D01*
X106059Y292182D01*
X106702Y291689D01*
X107449Y291380D01*
X108252Y291274D01*
X109055Y291380D01*
X109803Y291689D01*
X110445Y292182D01*
X110938Y292825D01*
X111248Y293573D01*
X111354Y294375D01*
X111345Y294440D01*
X113014Y296109D01*
X113476Y295918D01*
Y287082D01*
X106775Y280381D01*
X101105D01*
X101065Y280433D01*
X100423Y280926D01*
X99675Y281236D01*
X98872Y281341D01*
X98069Y281236D01*
X97321Y280926D01*
X96679Y280433D01*
X96186Y279791D01*
X95876Y279043D01*
X95771Y278240D01*
X95777Y278191D01*
X95381Y277691D01*
X94901Y277627D01*
X94152Y277318D01*
X93510Y276825D01*
X93017Y276182D01*
X92708Y275434D01*
X92602Y274632D01*
X92708Y273829D01*
X93017Y273081D01*
X93510Y272439D01*
X94152Y271946D01*
X94901Y271636D01*
X95703Y271530D01*
X96506Y271636D01*
X97254Y271946D01*
X97896Y272439D01*
X97936Y272491D01*
X102114D01*
X102370Y271990D01*
X102133Y271419D01*
X102028Y270616D01*
X102133Y269813D01*
X102443Y269065D01*
X102936Y268423D01*
X103255Y268178D01*
X103370Y267508D01*
X103281Y267391D01*
X102971Y266643D01*
X102866Y265840D01*
X102942Y265259D01*
X102634Y264853D01*
X102155Y264821D01*
X101551Y265284D01*
X100803Y265594D01*
X100000Y265700D01*
X99197Y265594D01*
X98449Y265284D01*
X97807Y264791D01*
X97314Y264149D01*
X97004Y263401D01*
X96899Y262598D01*
X97004Y261796D01*
X97314Y261048D01*
X97807Y260405D01*
X98449Y259913D01*
X99197Y259603D01*
X100000Y259497D01*
X100803Y259603D01*
X101551Y259913D01*
X102193Y260405D01*
X102233Y260457D01*
X123622D01*
X124441Y260620D01*
X125136Y261084D01*
X125307Y261255D01*
X125689Y261179D01*
X125843Y261084D01*
X126302Y260487D01*
X126944Y259994D01*
X127692Y259684D01*
X128495Y259578D01*
X129297Y259684D01*
X129531Y259781D01*
X129947Y259503D01*
Y236593D01*
X129447Y236423D01*
X129358Y236538D01*
X128716Y237031D01*
X127968Y237341D01*
X127165Y237446D01*
X126363Y237341D01*
X125615Y237031D01*
X124972Y236538D01*
X124479Y235896D01*
X124170Y235148D01*
X124064Y234345D01*
X124170Y233542D01*
X124479Y232794D01*
X124972Y232152D01*
X125024Y232112D01*
Y219996D01*
X124562Y219804D01*
X116314Y228052D01*
Y235562D01*
X116366Y235602D01*
X116859Y236245D01*
X117169Y236993D01*
X117275Y237795D01*
X117169Y238598D01*
X116859Y239346D01*
X116366Y239988D01*
X115724Y240481D01*
X114976Y240791D01*
X114173Y240897D01*
X114163Y240895D01*
X114084Y241498D01*
X113774Y242246D01*
X113281Y242888D01*
X112639Y243381D01*
X111891Y243690D01*
X111088Y243796D01*
X110286Y243690D01*
X109538Y243381D01*
X108895Y242888D01*
X108403Y242246D01*
X108093Y241498D01*
X107987Y240695D01*
X108093Y239892D01*
X108403Y239144D01*
X108895Y238502D01*
X108947Y238462D01*
Y227101D01*
X109110Y226281D01*
X109574Y225587D01*
X115289Y219872D01*
X115191Y219382D01*
X115029Y219314D01*
X114387Y218821D01*
X113894Y218179D01*
X113584Y217431D01*
X113478Y216628D01*
X113539Y216166D01*
X113105Y215732D01*
X112643Y215793D01*
X111840Y215687D01*
X111092Y215377D01*
X110450Y214884D01*
X109957Y214242D01*
X109647Y213494D01*
X109541Y212691D01*
X109647Y211889D01*
X109957Y211141D01*
X110450Y210498D01*
X110502Y210459D01*
Y91076D01*
X110340Y90953D01*
X109847Y90310D01*
X109537Y89562D01*
X109432Y88760D01*
X109537Y87957D01*
X109847Y87209D01*
X110340Y86567D01*
X110982Y86074D01*
X111730Y85764D01*
X112533Y85658D01*
X113336Y85764D01*
X114084Y86074D01*
X114726Y86567D01*
X115219Y87209D01*
X115529Y87957D01*
X115634Y88760D01*
X115529Y89562D01*
X115219Y90310D01*
X114784Y90878D01*
Y103298D01*
X115284Y103601D01*
X115777Y103396D01*
X116580Y103291D01*
X117382Y103396D01*
X118130Y103706D01*
X118773Y104199D01*
X119265Y104841D01*
X119575Y105589D01*
X119681Y106392D01*
X119575Y107195D01*
X119265Y107943D01*
X118773Y108585D01*
X118721Y108625D01*
Y121053D01*
X119221Y121350D01*
X119724Y121141D01*
X120527Y121036D01*
X121329Y121141D01*
X122077Y121451D01*
X122720Y121944D01*
X123212Y122586D01*
X123522Y123334D01*
X123628Y124137D01*
X123522Y124940D01*
X123212Y125688D01*
X122720Y126330D01*
X122658Y126377D01*
Y156834D01*
X123158Y157081D01*
X123487Y156828D01*
X124235Y156518D01*
X125038Y156412D01*
X125721Y156502D01*
X126221Y156204D01*
Y143943D01*
X125755Y143336D01*
X125445Y142589D01*
X125340Y141786D01*
X125445Y140983D01*
X125755Y140235D01*
X126248Y139593D01*
X126890Y139100D01*
X127638Y138790D01*
X128441Y138684D01*
X129244Y138790D01*
X129992Y139100D01*
X130634Y139593D01*
X131127Y140235D01*
X131437Y140983D01*
X131542Y141786D01*
X131437Y142589D01*
X131127Y143336D01*
X130634Y143979D01*
X130503Y144079D01*
Y177390D01*
X130340Y178209D01*
X129897Y178872D01*
X129929Y178990D01*
X130143Y179343D01*
X130266Y179327D01*
X131069Y179433D01*
X131816Y179743D01*
X132459Y180236D01*
X132580Y180393D01*
X133080D01*
X133201Y180236D01*
X133843Y179743D01*
X134591Y179433D01*
X135394Y179327D01*
X136196Y179433D01*
X136944Y179743D01*
X137586Y180236D01*
X137912Y180660D01*
X138412Y180490D01*
Y164742D01*
X138259Y164543D01*
X137949Y163795D01*
X137844Y162992D01*
X137949Y162189D01*
X138259Y161442D01*
X138412Y161242D01*
Y140850D01*
X130941Y133379D01*
X130500Y132805D01*
X130385Y132528D01*
X130223Y132136D01*
X130129Y131418D01*
Y93858D01*
X129907Y93322D01*
X129801Y92520D01*
X129907Y91717D01*
X130129Y91181D01*
Y85984D01*
X129907Y85448D01*
X129801Y84646D01*
X129907Y83843D01*
X130129Y83307D01*
Y78110D01*
X129907Y77574D01*
X129801Y76772D01*
X129907Y75969D01*
X130129Y75433D01*
Y70236D01*
X129907Y69700D01*
X129801Y68898D01*
X129907Y68095D01*
X130129Y67559D01*
Y62362D01*
X129907Y61826D01*
X129801Y61024D01*
X129907Y60221D01*
X130217Y59473D01*
X130709Y58831D01*
X131352Y58338D01*
X132100Y58028D01*
X132902Y57922D01*
X133705Y58028D01*
X134453Y58338D01*
X135095Y58831D01*
X135588Y59473D01*
X135898Y60221D01*
X136004Y61024D01*
X135898Y61826D01*
X135676Y62362D01*
Y67559D01*
X135898Y68095D01*
X136004Y68898D01*
X135898Y69700D01*
X135676Y70236D01*
Y75433D01*
X135898Y75969D01*
X136004Y76772D01*
X135898Y77574D01*
X135676Y78110D01*
Y83307D01*
X135898Y83843D01*
X136004Y84646D01*
X135898Y85448D01*
X135676Y85984D01*
Y91181D01*
X135898Y91717D01*
X136004Y92520D01*
X135898Y93322D01*
X135676Y93858D01*
Y130269D01*
X143147Y137740D01*
X143588Y138315D01*
X143865Y138984D01*
X143960Y139702D01*
Y162335D01*
X144046Y162992D01*
X143960Y163649D01*
Y182301D01*
X144815Y182758D01*
X145804Y183571D01*
X146617Y184560D01*
X147220Y185689D01*
X147592Y186915D01*
X147717Y188189D01*
X147592Y189463D01*
X147220Y190689D01*
X146617Y191818D01*
X145804Y192807D01*
X144815Y193620D01*
X143960Y194077D01*
Y224460D01*
X144460Y224696D01*
X145190Y224097D01*
X146319Y223493D01*
X147545Y223122D01*
X148819Y222996D01*
X150093Y223122D01*
X151318Y223493D01*
X152448Y224097D01*
X153437Y224909D01*
X154250Y225899D01*
X154374Y226131D01*
X154874Y226006D01*
Y221774D01*
X156553D01*
Y213335D01*
X156511Y213280D01*
X156201Y212532D01*
X156095Y211730D01*
X156201Y210927D01*
X156511Y210179D01*
X157003Y209537D01*
X157646Y209044D01*
X158394Y208734D01*
X159196Y208628D01*
X159999Y208734D01*
X160747Y209044D01*
X161389Y209537D01*
X161882Y210179D01*
X162192Y210927D01*
X162298Y211730D01*
X162192Y212532D01*
X162100Y212754D01*
Y221774D01*
X163779D01*
Y224030D01*
X169722Y229973D01*
X170163Y230547D01*
X170440Y231216D01*
X170534Y231934D01*
Y272281D01*
X171034Y272579D01*
X171718Y272489D01*
X172346Y272572D01*
X172846Y272250D01*
Y214564D01*
X166511Y208229D01*
X166070Y207654D01*
X165955Y207377D01*
X165793Y206985D01*
X165699Y206267D01*
Y191026D01*
X165508Y190567D01*
X165403Y189764D01*
X165508Y188961D01*
X165699Y188502D01*
Y173654D01*
X165793Y172936D01*
X165955Y172544D01*
X166070Y172267D01*
X166511Y171692D01*
X180557Y157647D01*
X180779Y157111D01*
X181272Y156468D01*
X181914Y155976D01*
X182662Y155666D01*
X183465Y155560D01*
X184267Y155666D01*
X185015Y155976D01*
X185658Y156468D01*
X186150Y157111D01*
X186460Y157859D01*
X186566Y158661D01*
X186460Y159464D01*
X186150Y160212D01*
X185658Y160854D01*
X185015Y161347D01*
X184479Y161569D01*
X171246Y174803D01*
Y188349D01*
X171500Y188961D01*
X171605Y189764D01*
X171500Y190567D01*
X171246Y191179D01*
Y205119D01*
X172342Y206214D01*
X172804Y206023D01*
Y181460D01*
X172752Y181420D01*
X172259Y180778D01*
X171949Y180029D01*
X171844Y179227D01*
X171949Y178424D01*
X172259Y177676D01*
X172752Y177034D01*
X173394Y176541D01*
X174142Y176231D01*
X174945Y176126D01*
X175748Y176231D01*
X176496Y176541D01*
X177138Y177034D01*
X177631Y177676D01*
X177941Y178424D01*
X178046Y179227D01*
X177941Y180029D01*
X177631Y180778D01*
X177138Y181420D01*
X177086Y181460D01*
Y207523D01*
X179879Y210316D01*
X180343Y211011D01*
X180507Y211830D01*
Y278330D01*
X181007Y278664D01*
X181378Y278510D01*
X182283Y278391D01*
X183189Y278510D01*
X184033Y278860D01*
X184757Y279416D01*
X185313Y280140D01*
X185663Y280984D01*
X185782Y281890D01*
X185663Y282795D01*
X185313Y283639D01*
X184757Y284364D01*
X184033Y284920D01*
X183189Y285269D01*
X182283Y285388D01*
X181378Y285269D01*
X181007Y285115D01*
X180507Y285449D01*
Y337383D01*
X180343Y338202D01*
X179879Y338897D01*
X174032Y344744D01*
X173338Y345208D01*
X172518Y345371D01*
X167706D01*
X167666Y345423D01*
X167024Y345916D01*
X166276Y346225D01*
X165473Y346331D01*
X164671Y346225D01*
X163923Y345916D01*
X163483Y345578D01*
X162983Y345825D01*
Y345926D01*
X163205Y346461D01*
X163310Y347264D01*
X163205Y348067D01*
X162895Y348815D01*
X162660Y349120D01*
Y356875D01*
X162882Y357411D01*
X162988Y358214D01*
X162882Y359017D01*
X162573Y359765D01*
X162080Y360407D01*
X161437Y360900D01*
X160689Y361210D01*
X159887Y361315D01*
D02*
G37*
G36*
X194532Y367971D02*
X193227Y367799D01*
X192011Y367295D01*
X190966Y366494D01*
X190165Y365449D01*
X189803Y364576D01*
X189262D01*
X188900Y365449D01*
X188098Y366494D01*
X187054Y367295D01*
X185838Y367799D01*
X184532Y367971D01*
X183227Y367799D01*
X182011Y367295D01*
X180966Y366494D01*
X180165Y365449D01*
X180032Y365129D01*
X179532Y365229D01*
Y367928D01*
X169532D01*
Y357928D01*
X179532D01*
Y360627D01*
X180032Y360726D01*
X180165Y360406D01*
X180966Y359362D01*
X182011Y358560D01*
X183227Y358056D01*
X184532Y357885D01*
X185838Y358056D01*
X187054Y358560D01*
X188098Y359362D01*
X188900Y360406D01*
X189262Y361280D01*
X189803D01*
X190165Y360406D01*
X190966Y359362D01*
X192011Y358560D01*
X193227Y358056D01*
X194532Y357885D01*
X195838Y358056D01*
X197054Y358560D01*
X198098Y359362D01*
X198900Y360406D01*
X199404Y361622D01*
X199575Y362928D01*
X199404Y364233D01*
X198900Y365449D01*
X198098Y366494D01*
X197054Y367295D01*
X195838Y367799D01*
X194532Y367971D01*
D02*
G37*
G36*
X23622Y326723D02*
X22819Y326618D01*
X22071Y326308D01*
X21429Y325815D01*
X20936Y325173D01*
X20626Y324425D01*
X20521Y323622D01*
X20626Y322819D01*
X20936Y322071D01*
X21429Y321429D01*
X21481Y321389D01*
Y312065D01*
X21007Y311905D01*
X20948Y311982D01*
X20008Y312703D01*
X18913Y313157D01*
X17738Y313312D01*
X16564Y313157D01*
X15469Y312703D01*
X14779Y312174D01*
X14246Y312395D01*
X14222Y312576D01*
X13912Y313323D01*
X13419Y313966D01*
X12777Y314459D01*
X12029Y314768D01*
X11226Y314874D01*
X10424Y314768D01*
X9676Y314459D01*
X9033Y313966D01*
X8540Y313323D01*
X8231Y312576D01*
X8125Y311773D01*
X8159Y311518D01*
X8128Y311472D01*
X7965Y310653D01*
Y289400D01*
X5654D01*
Y281282D01*
Y273802D01*
X14559D01*
Y278638D01*
X17262Y281340D01*
X17726Y282035D01*
X17889Y282854D01*
Y297778D01*
X17941Y297817D01*
X18434Y298460D01*
X18744Y299208D01*
X18849Y300010D01*
X18744Y300813D01*
X18434Y301561D01*
X17941Y302203D01*
X17299Y302696D01*
X16551Y303006D01*
X15748Y303112D01*
X14945Y303006D01*
X14197Y302696D01*
X13555Y302203D01*
X13062Y301561D01*
X12752Y300813D01*
X12748Y300778D01*
X12248Y300811D01*
Y308868D01*
X12734Y309069D01*
X13002Y308957D01*
X13208Y308838D01*
X13200Y308773D01*
X13354Y307598D01*
X13808Y306503D01*
X14529Y305563D01*
X15469Y304842D01*
X16564Y304389D01*
X17738Y304234D01*
X18913Y304389D01*
X20008Y304842D01*
X20948Y305563D01*
X21007Y305641D01*
X21481Y305480D01*
Y238682D01*
X18786Y235987D01*
X14332D01*
Y237905D01*
X9890D01*
X9556Y238405D01*
X9700Y238754D01*
X9820Y239659D01*
Y251864D01*
X9700Y252770D01*
X9351Y253613D01*
X8795Y254338D01*
X8070Y254894D01*
X7226Y255243D01*
X6321Y255363D01*
X5416Y255243D01*
X4572Y254894D01*
X3847Y254338D01*
X3291Y253613D01*
X2942Y252770D01*
X2823Y251864D01*
Y239659D01*
X2942Y238754D01*
X3291Y237910D01*
X3847Y237186D01*
X4572Y236630D01*
X5416Y236280D01*
X5426Y236279D01*
Y229787D01*
Y222307D01*
X14332D01*
Y224225D01*
X24791D01*
X25611Y224388D01*
X26305Y224852D01*
X28286Y226833D01*
X28291Y226841D01*
X28791Y226689D01*
Y182534D01*
X28569Y181998D01*
X28464Y181195D01*
X28569Y180393D01*
X28879Y179645D01*
X29372Y179002D01*
X30014Y178509D01*
X30762Y178200D01*
X31565Y178094D01*
X32368Y178200D01*
X33116Y178509D01*
X33758Y179002D01*
X34251Y179645D01*
X34561Y180393D01*
X34666Y181195D01*
X34561Y181998D01*
X34339Y182534D01*
Y244721D01*
X34561Y245257D01*
X34666Y246060D01*
X34561Y246862D01*
X34337Y247402D01*
X34270Y304728D01*
X34221Y305092D01*
X34175Y305442D01*
X34175Y305444D01*
X34174Y305445D01*
X34036Y305779D01*
X33898Y306111D01*
X33897Y306113D01*
X33897Y306114D01*
X33680Y306396D01*
X33457Y306686D01*
X29545Y310598D01*
Y316772D01*
X29767Y317308D01*
X29873Y318110D01*
X29767Y318913D01*
X29458Y319661D01*
X28965Y320303D01*
X28322Y320796D01*
X27574Y321106D01*
X26772Y321212D01*
X26263Y321145D01*
X26203Y321174D01*
X25952Y321608D01*
X26308Y322071D01*
X26618Y322819D01*
X26723Y323622D01*
X26618Y324425D01*
X26308Y325173D01*
X25815Y325815D01*
X25173Y326308D01*
X24425Y326618D01*
X23622Y326723D01*
D02*
G37*
G36*
X6321Y334103D02*
X5416Y333983D01*
X4572Y333634D01*
X3847Y333078D01*
X3291Y332353D01*
X2942Y331510D01*
X2823Y330604D01*
Y318400D01*
X2942Y317494D01*
X3291Y316650D01*
X3847Y315926D01*
X4572Y315370D01*
X5416Y315020D01*
X6321Y314901D01*
X7226Y315020D01*
X8070Y315370D01*
X8795Y315926D01*
X9351Y316650D01*
X9700Y317494D01*
X9820Y318400D01*
Y330604D01*
X9700Y331510D01*
X9351Y332353D01*
X8795Y333078D01*
X8070Y333634D01*
X7226Y333983D01*
X6321Y334103D01*
D02*
G37*
G36*
X212266Y336856D02*
X211463Y336750D01*
X210716Y336440D01*
X210073Y335947D01*
X210033Y335895D01*
X199502D01*
X198683Y335733D01*
X197988Y335268D01*
X187856Y325136D01*
X187392Y324441D01*
X187229Y323622D01*
Y257580D01*
X184665Y255015D01*
X184252Y255070D01*
X183449Y254964D01*
X182701Y254654D01*
X182059Y254162D01*
X181566Y253519D01*
X181256Y252771D01*
X181151Y251969D01*
X181256Y251166D01*
X181566Y250418D01*
X182059Y249776D01*
X182701Y249283D01*
X183449Y248973D01*
X184252Y248867D01*
X185055Y248973D01*
X185803Y249283D01*
X186445Y249776D01*
X186938Y250418D01*
X187248Y251166D01*
X187305Y251600D01*
X190884Y255179D01*
X191348Y255873D01*
X191511Y256693D01*
Y322735D01*
X200389Y331613D01*
X210033D01*
X210073Y331561D01*
X210716Y331069D01*
X211463Y330759D01*
X212266Y330653D01*
X213069Y330759D01*
X213817Y331069D01*
X214459Y331561D01*
X214952Y332204D01*
X215262Y332952D01*
X215368Y333754D01*
X215262Y334557D01*
X214952Y335305D01*
X214459Y335947D01*
X213817Y336440D01*
X213069Y336750D01*
X212266Y336856D01*
D02*
G37*
G36*
X197980Y146913D02*
Y143492D01*
X201401D01*
X201331Y144024D01*
X200933Y144986D01*
X200300Y145811D01*
X199474Y146445D01*
X198512Y146843D01*
X197980Y146913D01*
D02*
G37*
G36*
X197480Y157483D02*
X196318Y157330D01*
X195235Y156882D01*
X194305Y156168D01*
X193591Y155238D01*
X193142Y154155D01*
X192989Y152992D01*
X193142Y151830D01*
X193591Y150747D01*
X194305Y149816D01*
X195235Y149103D01*
X196318Y148654D01*
X197480Y148501D01*
X198643Y148654D01*
X199726Y149103D01*
X200656Y149816D01*
X201370Y150747D01*
X201818Y151830D01*
X201972Y152992D01*
X201818Y154155D01*
X201370Y155238D01*
X200656Y156168D01*
X199726Y156882D01*
X198643Y157330D01*
X197480Y157483D01*
D02*
G37*
G36*
X196980Y142492D02*
X193559D01*
X193629Y141960D01*
X194028Y140999D01*
X194661Y140173D01*
X195487Y139539D01*
X196448Y139141D01*
X196980Y139071D01*
Y142492D01*
D02*
G37*
G36*
X201401D02*
X197980D01*
Y139071D01*
X198512Y139141D01*
X199474Y139539D01*
X200300Y140173D01*
X200933Y140999D01*
X201331Y141960D01*
X201401Y142492D01*
D02*
G37*
G36*
X196980Y146913D02*
X196448Y146843D01*
X195487Y146445D01*
X194661Y145811D01*
X194028Y144986D01*
X193629Y144024D01*
X193559Y143492D01*
X196980D01*
Y146913D01*
D02*
G37*
G36*
X207480Y157483D02*
X206318Y157330D01*
X205235Y156882D01*
X204305Y156168D01*
X203591Y155238D01*
X203142Y154155D01*
X202989Y152992D01*
X203142Y151830D01*
X203591Y150747D01*
X204305Y149816D01*
X205235Y149103D01*
X206318Y148654D01*
X207480Y148501D01*
X208643Y148654D01*
X209726Y149103D01*
X210656Y149816D01*
X211370Y150747D01*
X211818Y151830D01*
X211971Y152992D01*
X211818Y154155D01*
X211370Y155238D01*
X210656Y156168D01*
X209726Y156882D01*
X208643Y157330D01*
X207480Y157483D01*
D02*
G37*
G36*
X211933Y167445D02*
X203028D01*
Y158539D01*
X211933D01*
Y167445D01*
D02*
G37*
G36*
X210630Y265306D02*
X209827Y265200D01*
X209079Y264891D01*
X208437Y264398D01*
X207944Y263755D01*
X207634Y263007D01*
X207529Y262205D01*
X207634Y261402D01*
X207944Y260654D01*
X208437Y260012D01*
X209079Y259519D01*
X209615Y259297D01*
X214155Y254757D01*
Y174960D01*
X213933Y174425D01*
X213828Y173622D01*
X213933Y172819D01*
X214243Y172071D01*
X214736Y171429D01*
X215378Y170936D01*
X216126Y170626D01*
X216929Y170521D01*
X217031Y170534D01*
X217350Y170215D01*
X217372Y170075D01*
X217477Y169276D01*
X217787Y168528D01*
X218280Y167886D01*
X218922Y167393D01*
X219670Y167083D01*
X220472Y166977D01*
X221275Y167083D01*
X222023Y167393D01*
X222665Y167886D01*
X223158Y168528D01*
X223468Y169276D01*
X223574Y170079D01*
X223468Y170881D01*
X223158Y171629D01*
X222665Y172272D01*
X222614Y172311D01*
Y213909D01*
X222665Y213949D01*
X223158Y214591D01*
X223468Y215339D01*
X223574Y216142D01*
X223468Y216944D01*
X223158Y217692D01*
X222665Y218335D01*
X222023Y218828D01*
X221275Y219137D01*
X220472Y219243D01*
X220079Y219191D01*
X219703Y219521D01*
Y255906D01*
X219608Y256623D01*
X219446Y257015D01*
X219331Y257292D01*
X218891Y257867D01*
X213538Y263220D01*
X213316Y263755D01*
X212823Y264398D01*
X212181Y264891D01*
X211433Y265200D01*
X210630Y265306D01*
D02*
G37*
G36*
X101886Y217400D02*
X101084Y217294D01*
X100336Y216984D01*
X99693Y216491D01*
X99201Y215849D01*
X98891Y215101D01*
X98785Y214298D01*
X98891Y213495D01*
X99201Y212748D01*
X99675Y212130D01*
Y193271D01*
X99623Y193231D01*
X99130Y192588D01*
X98820Y191841D01*
X98715Y191038D01*
X98820Y190235D01*
X99130Y189487D01*
X99623Y188845D01*
X100265Y188352D01*
X101013Y188042D01*
X101816Y187936D01*
X102619Y188042D01*
X103366Y188352D01*
X104009Y188845D01*
X104502Y189487D01*
X104812Y190235D01*
X104917Y191038D01*
X104812Y191841D01*
X104502Y192588D01*
X104009Y193231D01*
X103957Y193271D01*
Y212011D01*
X104079Y212105D01*
X104572Y212748D01*
X104882Y213495D01*
X104988Y214298D01*
X104882Y215101D01*
X104572Y215849D01*
X104079Y216491D01*
X103437Y216984D01*
X102689Y217294D01*
X101886Y217400D01*
D02*
G37*
G36*
X197480Y167483D02*
X196318Y167330D01*
X195235Y166882D01*
X194305Y166168D01*
X193591Y165238D01*
X193142Y164155D01*
X192989Y162992D01*
X193142Y161830D01*
X193591Y160747D01*
X194305Y159816D01*
X195235Y159103D01*
X196318Y158654D01*
X197480Y158501D01*
X198643Y158654D01*
X199726Y159103D01*
X200656Y159816D01*
X201370Y160747D01*
X201818Y161830D01*
X201972Y162992D01*
X201818Y164155D01*
X201370Y165238D01*
X200656Y166168D01*
X199726Y166882D01*
X198643Y167330D01*
X197480Y167483D01*
D02*
G37*
G36*
X207480Y147483D02*
X206318Y147330D01*
X205235Y146882D01*
X204305Y146168D01*
X203591Y145238D01*
X203142Y144155D01*
X202989Y142992D01*
X203142Y141830D01*
X203591Y140747D01*
X204305Y139816D01*
X205235Y139103D01*
X206318Y138654D01*
X207480Y138501D01*
X208643Y138654D01*
X209726Y139103D01*
X210656Y139816D01*
X211370Y140747D01*
X211818Y141830D01*
X211971Y142992D01*
X211818Y144155D01*
X211370Y145238D01*
X210656Y146168D01*
X209726Y146882D01*
X208643Y147330D01*
X207480Y147483D01*
D02*
G37*
%LPD*%
G36*
X78589Y350809D02*
Y331514D01*
X77731D01*
Y331014D01*
X77293D01*
Y323321D01*
Y315628D01*
X77731D01*
Y315128D01*
X78613D01*
X78730Y314535D01*
X79195Y313840D01*
X84123Y308911D01*
Y283729D01*
X84072Y283689D01*
X83579Y283047D01*
X83370Y282543D01*
X82829D01*
X82643Y282993D01*
X82150Y283635D01*
X81508Y284128D01*
X80760Y284438D01*
X79957Y284544D01*
X79154Y284438D01*
X78406Y284128D01*
X77764Y283635D01*
X77271Y282993D01*
X77123Y282635D01*
X76582D01*
X76392Y283094D01*
X75899Y283736D01*
X75847Y283776D01*
Y291121D01*
X76347Y291442D01*
X76978Y291359D01*
X77781Y291464D01*
X78529Y291774D01*
X79171Y292267D01*
X79664Y292909D01*
X79974Y293657D01*
X80080Y294460D01*
X79974Y295263D01*
X79664Y296011D01*
X79171Y296653D01*
X79119Y296693D01*
Y309352D01*
X78956Y310172D01*
X78492Y310866D01*
X74693Y314666D01*
X74884Y315128D01*
X75857D01*
Y315628D01*
X76293D01*
Y323321D01*
Y331014D01*
X75857D01*
Y331514D01*
X75091D01*
Y348441D01*
X77888Y351238D01*
X77953Y351229D01*
X78109Y351250D01*
X78589Y350809D01*
D02*
G37*
G36*
X84334Y171689D02*
X84826Y171047D01*
X85469Y170554D01*
X86217Y170244D01*
X87019Y170139D01*
X87822Y170244D01*
X88570Y170554D01*
X89212Y171047D01*
X89485Y171402D01*
X89985Y171232D01*
Y75535D01*
X89485Y75232D01*
X88992Y75437D01*
X88189Y75542D01*
X88124Y75534D01*
X83809Y79849D01*
Y171650D01*
X84309Y171749D01*
X84334Y171689D01*
D02*
G37*
G36*
X155339Y317617D02*
Y314044D01*
X155287Y314004D01*
X155028Y313666D01*
X154398Y313666D01*
X154227Y313888D01*
X153585Y314381D01*
X152837Y314691D01*
X152034Y314796D01*
X151231Y314691D01*
X150483Y314381D01*
X149841Y313888D01*
X149348Y313246D01*
X149038Y312498D01*
X149013Y312310D01*
X148617Y312005D01*
X148377Y312037D01*
X147574Y311931D01*
X146826Y311621D01*
X146184Y311128D01*
X145691Y310486D01*
X145381Y309738D01*
X145276Y308936D01*
X145381Y308133D01*
X145691Y307385D01*
X146184Y306743D01*
X146236Y306703D01*
Y295252D01*
X146184Y295212D01*
X145691Y294570D01*
X145381Y293822D01*
X145276Y293019D01*
X145381Y292216D01*
X145691Y291468D01*
X146184Y290826D01*
X146826Y290333D01*
X147574Y290023D01*
X148377Y289918D01*
X148664Y289955D01*
X149040Y289626D01*
Y278254D01*
X148540Y278064D01*
X148034Y278452D01*
X147286Y278762D01*
X146484Y278868D01*
X145681Y278762D01*
X144933Y278452D01*
X144291Y277959D01*
X143798Y277317D01*
X143488Y276569D01*
X143382Y275766D01*
X143488Y274964D01*
X143710Y274428D01*
Y242514D01*
X139225Y238029D01*
X139209Y238009D01*
X138709Y238179D01*
Y285821D01*
X139182Y286438D01*
X139492Y287186D01*
X139597Y287988D01*
X139492Y288791D01*
X139182Y289539D01*
X138709Y290155D01*
Y306574D01*
X138710Y306574D01*
X139203Y307217D01*
X139513Y307965D01*
X139618Y308767D01*
X139513Y309570D01*
X139203Y310318D01*
X138710Y310960D01*
X138068Y311453D01*
X137320Y311763D01*
X136517Y311869D01*
X135714Y311763D01*
X134966Y311453D01*
X134324Y310960D01*
X134075D01*
X134001Y311057D01*
X133379Y311534D01*
X133290Y311629D01*
X133203Y312065D01*
X133793Y312655D01*
X133858Y312647D01*
X134661Y312752D01*
X135409Y313062D01*
X136051Y313555D01*
X136544Y314197D01*
X136854Y314945D01*
X136960Y315748D01*
X136854Y316551D01*
X136544Y317299D01*
X136051Y317941D01*
X135409Y318434D01*
X134661Y318744D01*
X133858Y318849D01*
X133056Y318744D01*
X132308Y318434D01*
X131665Y317941D01*
X131172Y317299D01*
X130863Y316551D01*
X130757Y315748D01*
X130765Y315683D01*
X128194Y313111D01*
X127732Y313303D01*
Y321800D01*
X133712Y327780D01*
X145176D01*
X155339Y317617D01*
D02*
G37*
G36*
X110812Y324360D02*
X111560Y324050D01*
X112363Y323945D01*
X112428Y323953D01*
X113476Y322905D01*
Y316478D01*
X112976Y316044D01*
X112598Y316093D01*
X111796Y315988D01*
X111048Y315678D01*
X110754Y315453D01*
X110254Y315699D01*
Y324223D01*
X110703Y324445D01*
X110812Y324360D01*
D02*
G37*
G36*
X523451Y65668D02*
X522507D01*
Y71245D01*
X523451D01*
Y65668D01*
D02*
G37*
G36*
X529573Y66579D02*
X533361D01*
Y65668D01*
X528551D01*
Y73356D01*
X529573D01*
Y66579D01*
D02*
G37*
G36*
X537050Y71356D02*
X537217Y71345D01*
X537405Y71323D01*
X537594Y71289D01*
X537783Y71245D01*
X537961Y71189D01*
X537983Y71178D01*
X538039Y71156D01*
X538117Y71123D01*
X538216Y71078D01*
X538328Y71012D01*
X538439Y70945D01*
X538539Y70856D01*
X538627Y70767D01*
X538639Y70756D01*
X538661Y70723D01*
X538694Y70667D01*
X538739Y70601D01*
X538794Y70501D01*
X538839Y70401D01*
X538883Y70278D01*
X538916Y70134D01*
Y70123D01*
X538928Y70090D01*
X538939Y70023D01*
X538950Y69934D01*
Y69812D01*
X538961Y69667D01*
X538972Y69478D01*
Y69267D01*
Y68001D01*
Y67990D01*
Y67945D01*
Y67879D01*
Y67790D01*
Y67690D01*
Y67568D01*
X538983Y67301D01*
Y67023D01*
X538994Y66746D01*
X539005Y66623D01*
Y66512D01*
X539016Y66412D01*
X539028Y66334D01*
Y66323D01*
X539039Y66279D01*
X539050Y66212D01*
X539083Y66123D01*
X539105Y66023D01*
X539150Y65912D01*
X539205Y65790D01*
X539261Y65668D01*
X538272D01*
X538261Y65679D01*
X538250Y65723D01*
X538228Y65779D01*
X538194Y65868D01*
X538161Y65968D01*
X538139Y66090D01*
X538117Y66223D01*
X538094Y66368D01*
X538083D01*
X538072Y66346D01*
X538005Y66290D01*
X537905Y66212D01*
X537772Y66112D01*
X537605Y66012D01*
X537439Y65901D01*
X537261Y65801D01*
X537072Y65723D01*
X537050Y65712D01*
X536983Y65701D01*
X536883Y65668D01*
X536761Y65635D01*
X536606Y65601D01*
X536428Y65579D01*
X536228Y65557D01*
X536028Y65546D01*
X535939D01*
X535872Y65557D01*
X535794D01*
X535706Y65568D01*
X535506Y65601D01*
X535283Y65657D01*
X535039Y65734D01*
X534817Y65846D01*
X534617Y65990D01*
X534595Y66012D01*
X534539Y66068D01*
X534461Y66168D01*
X534372Y66301D01*
X534283Y66468D01*
X534206Y66657D01*
X534150Y66890D01*
X534139Y67001D01*
X534128Y67134D01*
Y67156D01*
Y67201D01*
X534139Y67279D01*
X534150Y67379D01*
X534172Y67501D01*
X534206Y67623D01*
X534250Y67756D01*
X534306Y67879D01*
X534317Y67890D01*
X534339Y67934D01*
X534383Y68001D01*
X534439Y68079D01*
X534506Y68168D01*
X534595Y68256D01*
X534684Y68345D01*
X534795Y68423D01*
X534806Y68434D01*
X534850Y68456D01*
X534906Y68501D01*
X534995Y68545D01*
X535094Y68590D01*
X535217Y68645D01*
X535339Y68690D01*
X535483Y68734D01*
X535495D01*
X535539Y68745D01*
X535606Y68767D01*
X535695Y68779D01*
X535806Y68801D01*
X535950Y68823D01*
X536117Y68856D01*
X536317Y68879D01*
X536328D01*
X536372Y68890D01*
X536428D01*
X536506Y68901D01*
X536594Y68912D01*
X536705Y68934D01*
X536828Y68945D01*
X536961Y68967D01*
X537228Y69023D01*
X537516Y69078D01*
X537772Y69145D01*
X537894Y69178D01*
X538005Y69212D01*
Y69223D01*
Y69245D01*
X538017Y69312D01*
Y69390D01*
Y69434D01*
Y69456D01*
Y69467D01*
Y69478D01*
Y69545D01*
X538005Y69656D01*
X537983Y69779D01*
X537950Y69912D01*
X537894Y70045D01*
X537828Y70167D01*
X537739Y70267D01*
X537728Y70278D01*
X537672Y70323D01*
X537583Y70367D01*
X537472Y70434D01*
X537317Y70490D01*
X537139Y70545D01*
X536917Y70578D01*
X536661Y70590D01*
X536550D01*
X536439Y70578D01*
X536283Y70556D01*
X536128Y70534D01*
X535961Y70490D01*
X535806Y70434D01*
X535672Y70356D01*
X535661Y70345D01*
X535617Y70312D01*
X535561Y70256D01*
X535495Y70167D01*
X535428Y70056D01*
X535350Y69912D01*
X535283Y69734D01*
X535217Y69534D01*
X534295Y69656D01*
Y69667D01*
X534306Y69678D01*
Y69712D01*
X534317Y69756D01*
X534350Y69856D01*
X534395Y70001D01*
X534450Y70145D01*
X534517Y70301D01*
X534606Y70456D01*
X534706Y70601D01*
X534717Y70612D01*
X534761Y70656D01*
X534828Y70723D01*
X534917Y70812D01*
X535039Y70901D01*
X535183Y70990D01*
X535350Y71090D01*
X535539Y71167D01*
X535550D01*
X535561Y71178D01*
X535595Y71189D01*
X535639Y71201D01*
X535750Y71234D01*
X535906Y71267D01*
X536083Y71301D01*
X536306Y71334D01*
X536539Y71356D01*
X536805Y71367D01*
X536928D01*
X537050Y71356D01*
D02*
G37*
G36*
X548271D02*
X548360Y71345D01*
X548471Y71323D01*
X548593Y71301D01*
X548738Y71267D01*
X548871Y71234D01*
X549026Y71178D01*
X549171Y71123D01*
X549327Y71045D01*
X549482Y70956D01*
X549638Y70856D01*
X549782Y70734D01*
X549915Y70601D01*
X549926Y70590D01*
X549949Y70567D01*
X549982Y70523D01*
X550026Y70456D01*
X550082Y70378D01*
X550138Y70289D01*
X550204Y70178D01*
X550271Y70045D01*
X550338Y69901D01*
X550404Y69745D01*
X550460Y69567D01*
X550515Y69379D01*
X550560Y69167D01*
X550593Y68945D01*
X550615Y68712D01*
X550626Y68456D01*
Y68445D01*
Y68401D01*
Y68323D01*
X550615Y68212D01*
X546449D01*
Y68201D01*
Y68168D01*
X546460Y68123D01*
Y68056D01*
X546471Y67979D01*
X546493Y67890D01*
X546527Y67690D01*
X546593Y67468D01*
X546682Y67223D01*
X546805Y67001D01*
X546960Y66801D01*
X546971D01*
X546982Y66779D01*
X547049Y66723D01*
X547149Y66645D01*
X547282Y66568D01*
X547460Y66479D01*
X547660Y66401D01*
X547882Y66346D01*
X548004Y66334D01*
X548138Y66323D01*
X548227D01*
X548327Y66334D01*
X548449Y66357D01*
X548582Y66390D01*
X548738Y66434D01*
X548882Y66501D01*
X549026Y66590D01*
X549038Y66601D01*
X549093Y66645D01*
X549160Y66712D01*
X549238Y66801D01*
X549327Y66923D01*
X549427Y67079D01*
X549526Y67256D01*
X549615Y67468D01*
X550593Y67345D01*
Y67334D01*
X550582Y67312D01*
X550571Y67268D01*
X550549Y67201D01*
X550515Y67134D01*
X550482Y67045D01*
X550393Y66857D01*
X550282Y66645D01*
X550126Y66423D01*
X549949Y66212D01*
X549726Y66012D01*
X549715D01*
X549693Y65990D01*
X549660Y65968D01*
X549615Y65934D01*
X549549Y65901D01*
X549482Y65868D01*
X549393Y65823D01*
X549293Y65779D01*
X549182Y65734D01*
X549071Y65690D01*
X548793Y65623D01*
X548482Y65568D01*
X548138Y65546D01*
X548015D01*
X547938Y65557D01*
X547838Y65568D01*
X547716Y65590D01*
X547582Y65612D01*
X547438Y65635D01*
X547127Y65723D01*
X546960Y65790D01*
X546805Y65857D01*
X546638Y65946D01*
X546482Y66045D01*
X546338Y66157D01*
X546193Y66290D01*
X546182Y66301D01*
X546160Y66323D01*
X546127Y66368D01*
X546082Y66434D01*
X546027Y66512D01*
X545971Y66601D01*
X545905Y66712D01*
X545838Y66834D01*
X545771Y66979D01*
X545705Y67134D01*
X545649Y67312D01*
X545594Y67501D01*
X545549Y67701D01*
X545516Y67923D01*
X545494Y68156D01*
X545482Y68401D01*
Y68412D01*
Y68467D01*
Y68534D01*
X545494Y68634D01*
X545505Y68756D01*
X545516Y68890D01*
X545538Y69045D01*
X545571Y69201D01*
X545660Y69556D01*
X545716Y69734D01*
X545782Y69923D01*
X545871Y70101D01*
X545971Y70267D01*
X546082Y70434D01*
X546205Y70590D01*
X546216Y70601D01*
X546238Y70623D01*
X546282Y70656D01*
X546338Y70712D01*
X546405Y70767D01*
X546493Y70834D01*
X546593Y70912D01*
X546716Y70978D01*
X546838Y71056D01*
X546982Y71123D01*
X547138Y71189D01*
X547304Y71245D01*
X547482Y71301D01*
X547671Y71334D01*
X547871Y71356D01*
X548082Y71367D01*
X548193D01*
X548271Y71356D01*
D02*
G37*
G36*
X520618Y71245D02*
X521574D01*
Y70512D01*
X520618D01*
Y67234D01*
Y67212D01*
Y67168D01*
Y67101D01*
X520629Y67023D01*
X520640Y66845D01*
X520652Y66768D01*
X520663Y66712D01*
X520674Y66690D01*
X520707Y66645D01*
X520751Y66590D01*
X520829Y66534D01*
X520852Y66523D01*
X520907Y66501D01*
X521007Y66479D01*
X521151Y66468D01*
X521263D01*
X521318Y66479D01*
X521396D01*
X521485Y66490D01*
X521574Y66501D01*
X521696Y65668D01*
X521674D01*
X521629Y65657D01*
X521552Y65646D01*
X521452Y65635D01*
X521340Y65612D01*
X521218Y65601D01*
X520974Y65590D01*
X520885D01*
X520796Y65601D01*
X520685Y65612D01*
X520552Y65623D01*
X520418Y65657D01*
X520296Y65690D01*
X520174Y65746D01*
X520163Y65757D01*
X520129Y65779D01*
X520085Y65812D01*
X520018Y65868D01*
X519963Y65923D01*
X519896Y66001D01*
X519829Y66079D01*
X519785Y66179D01*
Y66190D01*
X519763Y66234D01*
X519752Y66312D01*
X519729Y66423D01*
X519707Y66568D01*
X519696Y66657D01*
Y66757D01*
X519685Y66879D01*
X519674Y67001D01*
Y67134D01*
Y67290D01*
Y70512D01*
X518974D01*
Y71245D01*
X519674D01*
Y72623D01*
X520618Y73189D01*
Y71245D01*
D02*
G37*
G36*
X518052Y65668D02*
X517107D01*
Y73356D01*
X518052D01*
Y65668D01*
D02*
G37*
G36*
X515652D02*
X514808D01*
Y66479D01*
X514797Y66468D01*
X514774Y66434D01*
X514741Y66390D01*
X514685Y66334D01*
X514619Y66268D01*
X514541Y66179D01*
X514452Y66101D01*
X514341Y66012D01*
X514219Y65923D01*
X514085Y65846D01*
X513941Y65768D01*
X513786Y65690D01*
X513608Y65635D01*
X513430Y65590D01*
X513230Y65557D01*
X513030Y65546D01*
X512952D01*
X512852Y65557D01*
X512730Y65568D01*
X512586Y65590D01*
X512430Y65623D01*
X512275Y65668D01*
X512108Y65734D01*
X512086Y65746D01*
X512041Y65768D01*
X511964Y65812D01*
X511875Y65868D01*
X511764Y65934D01*
X511664Y66012D01*
X511564Y66101D01*
X511475Y66201D01*
X511464Y66212D01*
X511441Y66257D01*
X511408Y66312D01*
X511364Y66401D01*
X511308Y66501D01*
X511264Y66623D01*
X511219Y66757D01*
X511186Y66901D01*
Y66912D01*
X511175Y66957D01*
X511164Y67023D01*
Y67112D01*
X511153Y67245D01*
X511141Y67390D01*
X511130Y67579D01*
Y67790D01*
Y71245D01*
X512075D01*
Y68145D01*
Y68134D01*
Y68112D01*
Y68079D01*
Y68023D01*
Y67901D01*
X512086Y67745D01*
Y67579D01*
X512097Y67412D01*
X512108Y67268D01*
X512130Y67145D01*
Y67134D01*
X512152Y67090D01*
X512175Y67023D01*
X512208Y66934D01*
X512263Y66845D01*
X512330Y66746D01*
X512408Y66657D01*
X512508Y66568D01*
X512519Y66557D01*
X512564Y66534D01*
X512619Y66501D01*
X512708Y66468D01*
X512808Y66423D01*
X512930Y66390D01*
X513063Y66368D01*
X513219Y66357D01*
X513297D01*
X513375Y66368D01*
X513475Y66379D01*
X513597Y66412D01*
X513730Y66445D01*
X513874Y66501D01*
X514019Y66568D01*
X514041Y66579D01*
X514085Y66612D01*
X514152Y66657D01*
X514230Y66723D01*
X514319Y66812D01*
X514408Y66912D01*
X514486Y67023D01*
X514552Y67156D01*
X514563Y67179D01*
X514574Y67223D01*
X514597Y67312D01*
X514630Y67434D01*
X514663Y67590D01*
X514685Y67779D01*
X514697Y68001D01*
X514708Y68256D01*
Y71245D01*
X515652D01*
Y65668D01*
D02*
G37*
G36*
X527440Y67979D02*
X524518D01*
Y68923D01*
X527440D01*
Y67979D01*
D02*
G37*
G36*
X554004Y71356D02*
X554126Y71334D01*
X554270Y71289D01*
X554426Y71234D01*
X554604Y71156D01*
X554793Y71056D01*
X554448Y70189D01*
X554437Y70201D01*
X554393Y70223D01*
X554326Y70256D01*
X554237Y70289D01*
X554137Y70323D01*
X554015Y70356D01*
X553893Y70378D01*
X553770Y70389D01*
X553715D01*
X553659Y70378D01*
X553582Y70367D01*
X553504Y70345D01*
X553404Y70312D01*
X553304Y70267D01*
X553215Y70201D01*
X553204Y70189D01*
X553170Y70167D01*
X553137Y70123D01*
X553082Y70067D01*
X553026Y69990D01*
X552971Y69901D01*
X552915Y69801D01*
X552871Y69678D01*
X552859Y69656D01*
X552848Y69590D01*
X552826Y69490D01*
X552793Y69356D01*
X552760Y69190D01*
X552737Y69001D01*
X552726Y68801D01*
X552715Y68579D01*
Y65668D01*
X551771D01*
Y71245D01*
X552626D01*
Y70401D01*
X552637Y70412D01*
X552682Y70490D01*
X552737Y70590D01*
X552826Y70712D01*
X552915Y70834D01*
X553015Y70967D01*
X553115Y71078D01*
X553215Y71167D01*
X553226Y71178D01*
X553259Y71201D01*
X553326Y71234D01*
X553393Y71267D01*
X553482Y71301D01*
X553593Y71334D01*
X553704Y71356D01*
X553826Y71367D01*
X553904D01*
X554004Y71356D01*
D02*
G37*
G36*
X523451Y72278D02*
X522507D01*
Y73356D01*
X523451D01*
Y72278D01*
D02*
G37*
G36*
X542872Y65579D02*
Y65568D01*
X542860Y65535D01*
X542838Y65490D01*
X542816Y65434D01*
X542783Y65357D01*
X542749Y65268D01*
X542672Y65079D01*
X542594Y64868D01*
X542505Y64657D01*
X542416Y64468D01*
X542372Y64390D01*
X542338Y64312D01*
X542327Y64290D01*
X542294Y64235D01*
X542238Y64157D01*
X542172Y64057D01*
X542083Y63946D01*
X541983Y63835D01*
X541883Y63723D01*
X541760Y63635D01*
X541749Y63623D01*
X541705Y63601D01*
X541638Y63568D01*
X541538Y63524D01*
X541427Y63479D01*
X541294Y63446D01*
X541150Y63424D01*
X540983Y63412D01*
X540938D01*
X540883Y63424D01*
X540805D01*
X540716Y63446D01*
X540616Y63468D01*
X540505Y63490D01*
X540383Y63535D01*
X540283Y64412D01*
X540294D01*
X540339Y64401D01*
X540394Y64390D01*
X540461Y64368D01*
X540638Y64335D01*
X540816Y64324D01*
X540872D01*
X540927Y64335D01*
X540994D01*
X541161Y64368D01*
X541238Y64401D01*
X541316Y64435D01*
X541327D01*
X541350Y64457D01*
X541383Y64479D01*
X541427Y64512D01*
X541527Y64601D01*
X541616Y64723D01*
Y64735D01*
X541638Y64757D01*
X541661Y64801D01*
X541683Y64868D01*
X541727Y64957D01*
X541772Y65090D01*
X541838Y65246D01*
X541905Y65434D01*
Y65446D01*
X541927Y65490D01*
X541949Y65568D01*
X541994Y65668D01*
X539883Y71245D01*
X540883D01*
X542049Y68012D01*
Y68001D01*
X542061Y67990D01*
X542072Y67956D01*
X542083Y67901D01*
X542105Y67845D01*
X542127Y67779D01*
X542183Y67623D01*
X542249Y67434D01*
X542316Y67212D01*
X542383Y66979D01*
X542449Y66723D01*
Y66734D01*
X542460Y66757D01*
X542472Y66790D01*
X542483Y66834D01*
X542494Y66890D01*
X542516Y66957D01*
X542560Y67123D01*
X542616Y67312D01*
X542694Y67534D01*
X542761Y67756D01*
X542849Y67990D01*
X544049Y71245D01*
X544994D01*
X542872Y65579D01*
D02*
G37*
G36*
X509619Y65668D02*
X508642D01*
Y72101D01*
X506397Y65668D01*
X505486D01*
X503264Y72212D01*
Y65668D01*
X502287D01*
Y73356D01*
X503809D01*
X505631Y67901D01*
Y67890D01*
X505642Y67868D01*
X505653Y67834D01*
X505675Y67779D01*
X505720Y67645D01*
X505775Y67479D01*
X505831Y67290D01*
X505898Y67101D01*
X505953Y66923D01*
X505998Y66768D01*
X506009Y66790D01*
X506020Y66845D01*
X506053Y66945D01*
X506098Y67079D01*
X506153Y67256D01*
X506231Y67468D01*
X506309Y67712D01*
X506409Y68001D01*
X508253Y73356D01*
X509619D01*
Y65668D01*
D02*
G37*
%LPC*%
G36*
X538017Y68467D02*
X538005D01*
X537994Y68456D01*
X537961Y68445D01*
X537917Y68434D01*
X537861Y68412D01*
X537794Y68390D01*
X537716Y68367D01*
X537628Y68345D01*
X537528Y68312D01*
X537405Y68290D01*
X537283Y68256D01*
X537139Y68223D01*
X536983Y68190D01*
X536828Y68156D01*
X536650Y68134D01*
X536461Y68101D01*
X536439D01*
X536372Y68090D01*
X536261Y68068D01*
X536139Y68045D01*
X536006Y68023D01*
X535872Y67990D01*
X535750Y67956D01*
X535639Y67912D01*
X535628D01*
X535595Y67890D01*
X535550Y67868D01*
X535506Y67834D01*
X535372Y67745D01*
X535261Y67612D01*
Y67601D01*
X535239Y67579D01*
X535228Y67534D01*
X535206Y67479D01*
X535183Y67412D01*
X535161Y67345D01*
X535150Y67256D01*
X535139Y67168D01*
Y67156D01*
Y67101D01*
X535150Y67034D01*
X535172Y66945D01*
X535206Y66845D01*
X535261Y66746D01*
X535328Y66634D01*
X535417Y66534D01*
X535428Y66523D01*
X535472Y66501D01*
X535539Y66457D01*
X535628Y66412D01*
X535750Y66368D01*
X535894Y66323D01*
X536061Y66301D01*
X536261Y66290D01*
X536350D01*
X536461Y66301D01*
X536583Y66323D01*
X536739Y66346D01*
X536894Y66390D01*
X537061Y66445D01*
X537228Y66523D01*
X537250Y66534D01*
X537294Y66568D01*
X537372Y66623D01*
X537461Y66701D01*
X537561Y66790D01*
X537672Y66901D01*
X537761Y67034D01*
X537850Y67179D01*
X537861Y67190D01*
X537872Y67234D01*
X537894Y67312D01*
X537928Y67412D01*
X537961Y67545D01*
X537983Y67701D01*
X537994Y67890D01*
X538005Y68112D01*
X538017Y68467D01*
D02*
G37*
G36*
X548093Y70590D02*
X548027D01*
X547982Y70578D01*
X547860Y70567D01*
X547716Y70534D01*
X547538Y70478D01*
X547349Y70401D01*
X547171Y70289D01*
X546993Y70145D01*
X546971Y70123D01*
X546927Y70067D01*
X546849Y69967D01*
X546771Y69834D01*
X546682Y69678D01*
X546604Y69478D01*
X546538Y69245D01*
X546504Y68990D01*
X549626D01*
Y69001D01*
Y69023D01*
X549615Y69056D01*
Y69101D01*
X549593Y69234D01*
X549560Y69379D01*
X549504Y69556D01*
X549449Y69723D01*
X549360Y69890D01*
X549260Y70034D01*
Y70045D01*
X549238Y70056D01*
X549182Y70123D01*
X549082Y70212D01*
X548949Y70312D01*
X548782Y70412D01*
X548582Y70501D01*
X548349Y70567D01*
X548227Y70578D01*
X548093Y70590D01*
D02*
G37*
%LPD*%
D10*
X159327Y233314D02*
D03*
Y225833D02*
D03*
X159459Y277610D02*
D03*
Y285090D02*
D03*
X9879Y233846D02*
D03*
Y226366D02*
D03*
X10107Y277861D02*
D03*
Y285341D02*
D03*
D11*
X88668Y323321D02*
D03*
X92567D02*
D03*
X96567D02*
D03*
X100468D02*
D03*
X68919D02*
D03*
X84667D02*
D03*
X80730D02*
D03*
X76793D02*
D03*
X72856D02*
D03*
D12*
X174945Y179227D02*
Y208410D01*
X199502Y333754D02*
X212266D01*
X129169Y196223D02*
X132088Y199142D01*
X109609Y269483D02*
Y272391D01*
X105967Y265840D02*
X109609Y269483D01*
X111409Y266649D02*
Y271645D01*
X9879Y226366D02*
X24791D01*
X83858Y257087D02*
X86614Y259842D01*
X83858Y236221D02*
Y257087D01*
Y236221D02*
X92126Y227953D01*
X74016Y83071D02*
X74410D01*
X75910Y84572D01*
X72835Y75984D02*
X78794Y81944D01*
Y226207D01*
X75910Y84572D02*
Y213460D01*
X62319Y103429D02*
X65748Y100000D01*
X62319Y103429D02*
Y189547D01*
X58942Y100900D02*
Y220949D01*
Y100900D02*
X67323Y92520D01*
X41776Y279621D02*
X51575Y269822D01*
Y60096D02*
Y269822D01*
Y60096D02*
X52571Y59099D01*
X98872Y278240D02*
X107662D01*
X95703Y274632D02*
X106599D01*
X132825Y329921D02*
X146063D01*
X125591Y322687D02*
X132825Y329921D01*
X125591Y264567D02*
Y322687D01*
X132641Y332283D02*
X143958D01*
X122835Y322477D02*
X132641Y332283D01*
X121035Y323222D02*
X133093Y335280D01*
X115532Y328331D02*
X117417Y326446D01*
X112363Y327046D02*
X115617Y323792D01*
X81668Y78962D02*
X88189Y72441D01*
X81668Y78962D02*
Y228340D01*
X157480Y311811D02*
Y318504D01*
X146063Y329921D02*
X157480Y318504D01*
X143958Y332283D02*
X146881Y335206D01*
X123622Y262598D02*
X125591Y264567D01*
X100000Y262598D02*
X123622D01*
X127165Y178586D02*
Y234345D01*
Y178586D02*
X128362Y177390D01*
X125365Y174389D02*
Y215973D01*
X125057Y174081D02*
X125365Y174389D01*
X121755Y173325D02*
X123565Y175135D01*
Y214624D01*
X111088Y227101D02*
X123565Y214624D01*
X114173Y227165D02*
X125365Y215973D01*
X130969Y195477D02*
X136568Y201076D01*
X114173Y227165D02*
Y237795D01*
X111088Y227101D02*
Y240695D01*
X128563Y296590D02*
X128563Y296590D01*
X136517Y308767D02*
X136568Y308717D01*
X41776Y263873D02*
X49650Y255998D01*
X45713Y72928D02*
X49650Y76865D01*
Y255998D01*
X116580Y106392D02*
Y216628D01*
X134984Y182429D02*
X135394D01*
X121755Y170117D02*
X121830Y170043D01*
X58987Y225623D02*
X62230Y222380D01*
Y189636D02*
Y222380D01*
Y189636D02*
X62319Y189547D01*
X70547Y241786D02*
X70659Y241897D01*
X112276Y331587D02*
X113648Y330215D01*
X113675D01*
X115532Y328359D01*
Y328331D02*
Y328359D01*
X131807Y308864D02*
X132088Y308584D01*
X130969Y186443D02*
X134984Y182429D01*
X118452Y167018D02*
X120517Y164953D01*
X118452Y167018D02*
Y172567D01*
X120517Y174632D01*
Y212691D01*
X121755Y170117D02*
Y173325D01*
X130969Y186443D02*
Y195477D01*
X129169Y183526D02*
Y196223D01*
Y183526D02*
X130266Y182429D01*
X148377Y293019D02*
Y308936D01*
X61610Y322959D02*
Y335749D01*
X60858Y287816D02*
Y322208D01*
X61610Y322959D01*
X88668Y335731D02*
X88726Y335790D01*
X88668Y324573D02*
Y335731D01*
X10107Y285341D02*
Y310653D01*
X11226Y311773D01*
X159459Y285090D02*
Y303829D01*
X159469Y303838D01*
X73716Y236292D02*
X81668Y228340D01*
X79957Y234137D02*
Y281442D01*
Y234137D02*
X87019Y227074D01*
Y173240D02*
Y227074D01*
X70547Y234453D02*
Y241786D01*
Y234453D02*
X78794Y226207D01*
X80709Y324551D02*
X80730Y324573D01*
X100468D02*
Y354257D01*
X100394Y354331D02*
X100468Y354257D01*
X80730Y324573D02*
Y351203D01*
X83858Y354331D01*
X72950Y323321D02*
Y349328D01*
X77953Y354331D01*
X64696Y334694D02*
X66139Y336137D01*
X64696Y284214D02*
X67366Y281543D01*
X64696Y284214D02*
Y334694D01*
X10754Y277861D02*
X15748Y282854D01*
X9879Y233846D02*
X19673D01*
X24791Y226366D02*
X26772Y228346D01*
X23622Y237795D02*
Y323622D01*
X19673Y233846D02*
X23622Y237795D01*
X157874Y234766D02*
X159327Y233314D01*
X157874Y234766D02*
Y270866D01*
X155118Y273622D02*
X157874Y270866D01*
X155118Y273622D02*
Y306693D01*
X70472Y294434D02*
X70515Y294392D01*
X70472Y294434D02*
Y311417D01*
X96457Y310852D02*
X96567Y310741D01*
X96457Y310852D02*
Y311417D01*
X26772Y228346D02*
Y300010D01*
X15748Y282854D02*
Y300010D01*
X151181Y269753D02*
Y308268D01*
X152034Y309120D01*
Y311695D01*
X92567Y307609D02*
Y308268D01*
Y324573D01*
X80709Y315354D02*
Y324551D01*
Y315354D02*
X86265Y309798D01*
Y281496D02*
Y309798D01*
X128563Y262680D02*
Y296590D01*
X151181Y269753D02*
X151893Y269041D01*
X112643Y88676D02*
Y212691D01*
X120517Y124109D02*
Y164953D01*
X128362Y141699D02*
Y177390D01*
X125057Y159482D02*
Y174081D01*
X133093Y335280D02*
X141698D01*
X96567Y310741D02*
Y324573D01*
X101816Y191038D02*
Y214539D01*
X84667Y324573D02*
Y336137D01*
X136568Y201076D02*
Y308717D01*
X132088Y199142D02*
Y308584D01*
X73706Y281543D02*
Y308361D01*
X165473Y343230D02*
X172518D01*
X220472Y170079D02*
Y216142D01*
X172518Y343230D02*
X178365Y337383D01*
X174945Y208410D02*
X178365Y211830D01*
X154724Y138189D02*
Y187008D01*
X159449Y166929D02*
Y187008D01*
X178365Y281890D02*
X182283D01*
X178365Y211830D02*
Y281890D01*
Y337383D01*
X184646Y251969D02*
X189370Y256693D01*
Y323622D01*
X199502Y333754D01*
X92126Y38583D02*
Y227953D01*
X67323Y222047D02*
X75910Y213460D01*
X111409Y271645D02*
X122835Y283071D01*
X109609Y272391D02*
X121035Y283816D01*
X105129Y270616D02*
X119217Y284704D01*
X106599Y274632D02*
X117417Y285450D01*
X107662Y278240D02*
X115617Y286195D01*
X122835Y283071D02*
Y322477D01*
X121035Y283816D02*
Y323222D01*
X117417Y285450D02*
Y326446D01*
X115617Y286195D02*
Y323792D01*
X112598Y298722D02*
Y312992D01*
X108252Y294375D02*
X112598Y298722D01*
X128563Y296590D02*
Y310453D01*
X133858Y315748D02*
X133858D01*
X128563Y310453D02*
X133858Y315748D01*
X119217Y284704D02*
Y336172D01*
X119266Y336221D01*
X119291D01*
X76978Y294460D02*
Y309352D01*
X69553Y316778D02*
X70157Y316174D01*
Y316131D02*
Y316174D01*
Y316131D02*
X70859Y315428D01*
X70903D01*
X76978Y309352D01*
D13*
X171718Y275590D02*
Y332013D01*
X141186Y232677D02*
Y236068D01*
Y191038D02*
Y232677D01*
X146484Y241365D02*
Y275766D01*
X141186Y236068D02*
X146484Y241365D01*
X132902Y92520D02*
Y131418D01*
Y84646D02*
Y92520D01*
Y76772D02*
Y84646D01*
Y68898D02*
Y76772D01*
Y61024D02*
Y68898D01*
X65399Y191038D02*
Y202849D01*
X159887Y347264D02*
X160209D01*
X31565Y181195D02*
Y246060D01*
X132902Y131418D02*
X141186Y139702D01*
X99319Y295607D02*
X107430Y303717D01*
X167730Y300252D02*
X167761Y300221D01*
X155892Y337489D02*
Y346341D01*
X155672Y346561D02*
X155892Y346341D01*
Y337489D02*
X158203Y335178D01*
X168553D01*
X171718Y332013D01*
X160209Y342199D02*
Y347264D01*
Y342199D02*
X163256Y339153D01*
X172418D01*
X107480Y315280D02*
Y340945D01*
X10107Y277861D02*
X10754D01*
X159459Y277610D02*
X167710D01*
X167761Y277559D02*
Y300221D01*
X159887Y347264D02*
Y358214D01*
X159327Y211730D02*
Y225833D01*
X76772Y314567D02*
Y339764D01*
X107430Y303717D02*
Y315330D01*
X31496Y304724D02*
X31565Y246060D01*
X26772Y309449D02*
X31496Y304724D01*
X26772Y309449D02*
Y318110D01*
X48425Y331890D02*
X52756D01*
X69788Y348922D01*
Y358492D01*
X167710Y277610D02*
X167761Y277559D01*
X159327Y225833D02*
X161660D01*
X167761Y231934D01*
Y277559D01*
X210630Y262205D02*
X216929Y255906D01*
Y173622D02*
Y255906D01*
X172418Y339153D02*
X175620Y335951D01*
Y213415D02*
Y335951D01*
X168472Y206267D02*
X175620Y213415D01*
X141186Y139702D02*
Y191038D01*
X168472Y173654D02*
Y206267D01*
Y173654D02*
X183465Y158661D01*
D14*
X203406Y300125D02*
X213655D01*
X213779Y300000D01*
X203406Y291869D02*
Y300125D01*
Y291869D02*
X203543Y291732D01*
X195545Y300125D02*
X203406D01*
X195276Y300394D02*
X195545Y300125D01*
D15*
X98402Y-19291D02*
D03*
X43365Y354509D02*
D03*
X204715Y11791D02*
D03*
X31506Y11824D02*
D03*
X216544Y350405D02*
D03*
D16*
X48942Y42112D02*
D03*
X45399Y30891D02*
D03*
Y53332D02*
D03*
X13509Y28726D02*
D03*
Y55498D02*
D03*
X121021Y-19198D02*
D03*
X129289Y-26088D02*
D03*
Y-12308D02*
D03*
X22800Y110781D02*
D03*
Y124561D02*
D03*
X31068Y117671D02*
D03*
X31068Y78301D02*
D03*
X22800Y85191D02*
D03*
Y71411D02*
D03*
X22800Y150151D02*
D03*
Y163931D02*
D03*
X31068Y157041D02*
D03*
D17*
X7997Y42112D02*
D03*
X35556D02*
D03*
X197480Y162992D02*
D03*
X207480Y152992D02*
D03*
X197480D02*
D03*
X207480Y142992D02*
D03*
X197480D02*
D03*
X138344Y-19198D02*
D03*
X13745Y117671D02*
D03*
X13745Y78301D02*
D03*
X13745Y157041D02*
D03*
D18*
X219291Y125591D02*
D03*
X148819Y229528D02*
D03*
X141186Y188189D02*
D03*
X69788Y358492D02*
D03*
X41776Y234345D02*
D03*
Y263873D02*
D03*
Y279621D02*
D03*
D19*
X29144Y337327D02*
D03*
X225272Y29943D02*
D03*
D20*
X194532Y362928D02*
D03*
X184532D02*
D03*
X77777Y-29656D02*
D03*
Y-19657D02*
D03*
D21*
X174532Y362928D02*
D03*
D22*
X203406Y300125D02*
D03*
Y309967D02*
D03*
X146218Y-19198D02*
D03*
X5871Y117671D02*
D03*
X5871Y78301D02*
D03*
X5871Y157041D02*
D03*
D23*
X207480Y162992D02*
D03*
D24*
X77777Y-9657D02*
D03*
D25*
X167609Y68409D02*
D03*
X175483Y72347D02*
D03*
X167609Y76284D02*
D03*
X175483Y80221D02*
D03*
X167609Y84158D02*
D03*
X175483Y88095D02*
D03*
D26*
X17738Y308773D02*
D03*
X151667Y208360D02*
D03*
D27*
X137402Y96850D02*
D03*
X125984Y95276D02*
D03*
X233465Y332677D02*
D03*
X212266Y333754D02*
D03*
X74016Y83071D02*
D03*
X65748Y100000D02*
D03*
X81102Y66929D02*
D03*
X88189Y72441D02*
D03*
X157480Y311811D02*
D03*
X100000Y262598D02*
D03*
X86614Y259842D02*
D03*
X141186Y232677D02*
D03*
X127165Y234345D02*
D03*
X114173Y237795D02*
D03*
X67323Y92520D02*
D03*
X72835Y75984D02*
D03*
X132902Y61024D02*
D03*
Y92520D02*
D03*
Y84646D02*
D03*
Y76772D02*
D03*
Y68898D02*
D03*
X155672Y346561D02*
D03*
X101886Y214298D02*
D03*
X65399Y191038D02*
D03*
Y202849D02*
D03*
X101816Y191038D02*
D03*
X96895Y200880D02*
D03*
X76978Y294460D02*
D03*
X112276Y331587D02*
D03*
X112363Y327046D02*
D03*
X141698Y335209D02*
D03*
X148377Y308936D02*
D03*
X82724Y295500D02*
D03*
X136496Y287988D02*
D03*
X131779Y288042D02*
D03*
X105129Y270616D02*
D03*
X98872Y278240D02*
D03*
X95703Y274632D02*
D03*
X112105Y265953D02*
D03*
X105967Y265840D02*
D03*
X128495Y262680D02*
D03*
X108252Y294375D02*
D03*
X73706Y281543D02*
D03*
X70515Y294392D02*
D03*
X67366Y281543D02*
D03*
X73814Y308361D02*
D03*
X60858Y287816D02*
D03*
X99319Y295607D02*
D03*
X131807Y308864D02*
D03*
X136517Y308767D02*
D03*
X142059Y279646D02*
D03*
X159887Y358214D02*
D03*
X165473Y343230D02*
D03*
X160209Y347264D02*
D03*
X79957Y281442D02*
D03*
X148377Y293019D02*
D03*
X31565Y246060D02*
D03*
X52571Y59099D02*
D03*
X45713Y72928D02*
D03*
X174945Y179227D02*
D03*
X31565Y181195D02*
D03*
X107968Y213922D02*
D03*
X112643Y212691D02*
D03*
X116580Y216628D02*
D03*
X120517Y212691D02*
D03*
X111088Y240695D02*
D03*
X135394Y182429D02*
D03*
X130266D02*
D03*
X112533Y88760D02*
D03*
X120527Y124137D02*
D03*
X128441Y141786D02*
D03*
X125038Y159514D02*
D03*
X121830Y170043D02*
D03*
X116580Y106392D02*
D03*
X87019Y173240D02*
D03*
X58987Y225623D02*
D03*
X58942Y220949D02*
D03*
X70659Y241897D02*
D03*
X73716Y236292D02*
D03*
X95669Y344094D02*
D03*
Y349213D02*
D03*
X36220Y256693D02*
D03*
X71104Y267624D02*
D03*
X25176Y203186D02*
D03*
X88070Y166967D02*
D03*
Y149336D02*
D03*
X88169Y131606D02*
D03*
X88268Y114173D02*
D03*
X88367Y95354D02*
D03*
X88169Y78515D02*
D03*
X68110Y49213D02*
D03*
X146881Y335206D02*
D03*
X152034Y311695D02*
D03*
X61610Y335749D02*
D03*
X88726Y335790D02*
D03*
X84729Y336137D02*
D03*
X66139D02*
D03*
X11226Y311773D02*
D03*
X146484Y275766D02*
D03*
X159459Y303829D02*
D03*
X167730Y300252D02*
D03*
X159196Y211730D02*
D03*
X158852Y202767D02*
D03*
X148819Y182677D02*
D03*
X149020Y195907D02*
D03*
X142631Y287467D02*
D03*
X193307Y306299D02*
D03*
X153247Y367292D02*
D03*
X111529Y367459D02*
D03*
X60467Y367626D02*
D03*
X205477Y367960D02*
D03*
X7415Y264503D02*
D03*
X134472Y158282D02*
D03*
X106388Y166662D02*
D03*
X123374Y111854D02*
D03*
X192147Y333641D02*
D03*
X125898Y131562D02*
D03*
X106044Y96098D02*
D03*
X25462Y186940D02*
D03*
X14151Y336929D02*
D03*
X157062Y111670D02*
D03*
X86265Y281496D02*
D03*
X83858Y354331D02*
D03*
X100394D02*
D03*
X77953D02*
D03*
X107480Y340945D02*
D03*
X76772Y339764D02*
D03*
Y314567D02*
D03*
X175591Y318504D02*
D03*
X23622Y323622D02*
D03*
X151181Y268898D02*
D03*
X155118Y307087D02*
D03*
X70472Y311417D02*
D03*
X96457D02*
D03*
X92567Y308268D02*
D03*
X26772Y300010D02*
D03*
X15748D02*
D03*
X53150Y305118D02*
D03*
X38583Y305512D02*
D03*
X100787D02*
D03*
X86614Y313386D02*
D03*
X96457Y336221D02*
D03*
X19291Y293701D02*
D03*
X4724Y302756D02*
D03*
X18898Y242520D02*
D03*
X42126Y208268D02*
D03*
X31102Y49606D02*
D03*
X127953Y246063D02*
D03*
X90158Y268110D02*
D03*
X92126Y236614D02*
D03*
X122835Y224803D02*
D03*
X26772Y318110D02*
D03*
X184252Y251969D02*
D03*
X220472Y216142D02*
D03*
X220713Y115251D02*
D03*
X210871Y95565D02*
D03*
Y56195D02*
D03*
X201028Y115251D02*
D03*
X191186Y95565D02*
D03*
X201028Y75880D02*
D03*
X191186Y56195D02*
D03*
X201028Y36510D02*
D03*
X191186Y16825D02*
D03*
X181343Y115251D02*
D03*
X171501Y95565D02*
D03*
X181343Y75880D02*
D03*
X171501Y56195D02*
D03*
X181343Y36510D02*
D03*
X171501Y16825D02*
D03*
X151816Y95565D02*
D03*
Y56195D02*
D03*
X161658Y36510D02*
D03*
X151816Y16825D02*
D03*
X141973Y351471D02*
D03*
X132131Y56195D02*
D03*
X141973Y36510D02*
D03*
X132131Y16825D02*
D03*
X122288Y351471D02*
D03*
X112446Y253046D02*
D03*
X122288Y75880D02*
D03*
X112446Y56195D02*
D03*
X122288Y36510D02*
D03*
X112446Y16825D02*
D03*
X92761Y253046D02*
D03*
X102603Y154621D02*
D03*
X92761Y16825D02*
D03*
X73076Y253046D02*
D03*
Y16825D02*
D03*
X53391Y292416D02*
D03*
Y16825D02*
D03*
X23863Y36510D02*
D03*
X168504Y189764D02*
D03*
X210630Y262205D02*
D03*
X216929Y173622D02*
D03*
X220472Y170079D02*
D03*
X171718Y275590D02*
D03*
X159449Y187008D02*
D03*
X154724D02*
D03*
X140945Y162992D02*
D03*
X159449Y166929D02*
D03*
X154724Y138189D02*
D03*
X183465Y158661D02*
D03*
X201181Y229528D02*
D03*
X196457D02*
D03*
X192126D02*
D03*
Y225197D02*
D03*
X196457D02*
D03*
X201181D02*
D03*
X192126Y220866D02*
D03*
X196457D02*
D03*
X201181D02*
D03*
X229528Y126772D02*
D03*
X229134Y147638D02*
D03*
Y170079D02*
D03*
Y182283D02*
D03*
X185433Y181496D02*
D03*
X184646Y212598D02*
D03*
X162598Y144882D02*
D03*
X179528Y145276D02*
D03*
X169291Y130315D02*
D03*
X190945D02*
D03*
X209842Y129921D02*
D03*
X92126Y38583D02*
D03*
X81496Y55118D02*
D03*
X92126Y32283D02*
D03*
X67323Y222047D02*
D03*
X112598Y312992D02*
D03*
X112205Y322441D02*
D03*
X149284Y320544D02*
D03*
X133858Y315748D02*
D03*
X119291Y336221D02*
D03*
D28*
X48425Y331890D02*
D03*
X182283Y281890D02*
D03*
M02*
