%FSLAX25Y25*%
%MOIN*%
G70*
G01*
G75*
%ADD10R,0.05906X0.05118*%
%ADD11R,0.03000X0.13386*%
%ADD12C,0.01200*%
%ADD13C,0.02500*%
%ADD14C,0.05000*%
%ADD15C,0.17716*%
%ADD16C,0.08661*%
%ADD17C,0.05906*%
%ADD18C,0.10000*%
%ADD19C,0.07874*%
%ADD20C,0.07000*%
%ADD21R,0.07000X0.07000*%
%ADD22C,0.07874*%
%ADD23R,0.05906X0.05906*%
%ADD24R,0.07000X0.07000*%
%ADD25C,0.04724*%
%ADD26C,0.06000*%
%ADD27C,0.03150*%
%ADD28C,0.03937*%
%ADD29R,0.03937X0.11811*%
%ADD30R,0.02756X0.03937*%
%ADD31R,0.03600X0.03600*%
%ADD32R,0.05000X0.03600*%
%ADD33R,0.02362X0.03543*%
%ADD34R,0.03543X0.02362*%
%ADD35R,0.03937X0.04331*%
%ADD36R,0.09843X0.07087*%
%ADD37R,0.07087X0.09843*%
%ADD38R,0.06299X0.13780*%
%ADD39R,0.13780X0.06299*%
%ADD40R,0.03937X0.02362*%
%ADD41O,0.08858X0.01575*%
%ADD42R,0.06890X0.04921*%
%ADD43O,0.02165X0.06890*%
%ADD44O,0.06890X0.02165*%
%ADD45R,0.07087X0.03937*%
%ADD46R,0.04331X0.03937*%
%ADD47R,0.07874X0.03150*%
%ADD48R,0.03600X0.05000*%
%ADD49R,0.03600X0.03600*%
%ADD50R,0.02559X0.04331*%
%ADD51R,0.05315X0.01575*%
%ADD52R,0.06299X0.08268*%
%ADD53R,0.07480X0.07480*%
%ADD54R,0.21654X0.08465*%
%ADD55R,0.05000X0.02500*%
%ADD56R,0.10000X0.10512*%
%ADD57C,0.02000*%
%ADD58C,0.10000*%
%ADD59R,0.46850X0.13386*%
%ADD60R,0.24410X0.18504*%
%ADD61R,0.34646X0.04724*%
%ADD62R,0.25591X0.18110*%
%ADD63R,0.20079X0.05512*%
%ADD64R,0.10236X0.26378*%
%ADD65R,0.27559X0.20472*%
%ADD66R,0.27165X0.35433*%
%ADD67R,0.08661X0.04331*%
%ADD68R,0.09449X0.02362*%
%ADD69R,0.05118X0.07087*%
%ADD70R,0.03937X0.05118*%
%ADD71R,0.03937X0.03150*%
%ADD72R,0.07874X0.15748*%
%ADD73C,0.00965*%
%ADD74C,0.01000*%
%ADD75C,0.00500*%
%ADD76C,0.00700*%
G36*
X445961Y47734D02*
X446050Y47723D01*
X446161Y47701D01*
X446284Y47679D01*
X446428Y47645D01*
X446561Y47612D01*
X446717Y47556D01*
X446861Y47501D01*
X447017Y47423D01*
X447172Y47334D01*
X447328Y47234D01*
X447472Y47112D01*
X447606Y46979D01*
X447617Y46968D01*
X447639Y46945D01*
X447672Y46901D01*
X447717Y46834D01*
X447772Y46756D01*
X447828Y46668D01*
X447894Y46556D01*
X447961Y46423D01*
X448028Y46279D01*
X448095Y46123D01*
X448150Y45945D01*
X448206Y45757D01*
X448250Y45545D01*
X448283Y45323D01*
X448306Y45090D01*
X448317Y44834D01*
Y44823D01*
Y44779D01*
Y44701D01*
X448306Y44590D01*
X444139D01*
Y44579D01*
Y44546D01*
X444150Y44501D01*
Y44434D01*
X444162Y44357D01*
X444184Y44268D01*
X444217Y44068D01*
X444284Y43845D01*
X444373Y43601D01*
X444495Y43379D01*
X444650Y43179D01*
X444662D01*
X444673Y43157D01*
X444739Y43101D01*
X444839Y43023D01*
X444973Y42946D01*
X445150Y42857D01*
X445350Y42779D01*
X445573Y42723D01*
X445695Y42712D01*
X445828Y42701D01*
X445917D01*
X446017Y42712D01*
X446139Y42735D01*
X446273Y42768D01*
X446428Y42812D01*
X446572Y42879D01*
X446717Y42968D01*
X446728Y42979D01*
X446783Y43023D01*
X446850Y43090D01*
X446928Y43179D01*
X447017Y43301D01*
X447117Y43457D01*
X447217Y43635D01*
X447306Y43845D01*
X448283Y43723D01*
Y43712D01*
X448272Y43690D01*
X448261Y43646D01*
X448239Y43579D01*
X448206Y43512D01*
X448172Y43423D01*
X448083Y43235D01*
X447972Y43023D01*
X447817Y42801D01*
X447639Y42590D01*
X447417Y42390D01*
X447406D01*
X447383Y42368D01*
X447350Y42346D01*
X447306Y42312D01*
X447239Y42279D01*
X447172Y42246D01*
X447084Y42201D01*
X446983Y42157D01*
X446872Y42112D01*
X446761Y42068D01*
X446484Y42001D01*
X446173Y41946D01*
X445828Y41923D01*
X445706D01*
X445628Y41935D01*
X445528Y41946D01*
X445406Y41968D01*
X445273Y41990D01*
X445128Y42012D01*
X444817Y42101D01*
X444650Y42168D01*
X444495Y42235D01*
X444328Y42323D01*
X444173Y42423D01*
X444028Y42535D01*
X443884Y42668D01*
X443873Y42679D01*
X443851Y42701D01*
X443817Y42746D01*
X443773Y42812D01*
X443717Y42890D01*
X443662Y42979D01*
X443595Y43090D01*
X443528Y43212D01*
X443462Y43357D01*
X443395Y43512D01*
X443339Y43690D01*
X443284Y43879D01*
X443239Y44079D01*
X443206Y44301D01*
X443184Y44534D01*
X443173Y44779D01*
Y44790D01*
Y44845D01*
Y44912D01*
X443184Y45012D01*
X443195Y45134D01*
X443206Y45268D01*
X443228Y45423D01*
X443262Y45579D01*
X443351Y45934D01*
X443406Y46112D01*
X443473Y46301D01*
X443562Y46479D01*
X443662Y46645D01*
X443773Y46812D01*
X443895Y46968D01*
X443906Y46979D01*
X443928Y47001D01*
X443973Y47034D01*
X444028Y47090D01*
X444095Y47145D01*
X444184Y47212D01*
X444284Y47290D01*
X444406Y47356D01*
X444528Y47434D01*
X444673Y47501D01*
X444828Y47567D01*
X444995Y47623D01*
X445173Y47679D01*
X445361Y47712D01*
X445561Y47734D01*
X445773Y47745D01*
X445884D01*
X445961Y47734D01*
D02*
G37*
G36*
X417264D02*
X417364Y47723D01*
X417475Y47701D01*
X417598Y47679D01*
X417742Y47656D01*
X418042Y47556D01*
X418197Y47501D01*
X418353Y47423D01*
X418509Y47345D01*
X418664Y47234D01*
X418809Y47123D01*
X418953Y46990D01*
X418964Y46979D01*
X418986Y46956D01*
X419020Y46912D01*
X419064Y46856D01*
X419120Y46779D01*
X419186Y46679D01*
X419253Y46567D01*
X419320Y46445D01*
X419386Y46312D01*
X419453Y46145D01*
X419520Y45979D01*
X419575Y45790D01*
X419620Y45590D01*
X419653Y45379D01*
X419675Y45156D01*
X419686Y44912D01*
Y44901D01*
Y44868D01*
Y44812D01*
Y44734D01*
X419675Y44646D01*
X419664Y44534D01*
Y44423D01*
X419642Y44301D01*
X419608Y44023D01*
X419542Y43746D01*
X419464Y43468D01*
X419353Y43212D01*
Y43201D01*
X419342Y43190D01*
X419320Y43157D01*
X419297Y43112D01*
X419220Y43001D01*
X419120Y42868D01*
X418986Y42712D01*
X418820Y42557D01*
X418631Y42401D01*
X418409Y42257D01*
X418398D01*
X418386Y42246D01*
X418353Y42224D01*
X418297Y42201D01*
X418242Y42179D01*
X418175Y42157D01*
X418009Y42090D01*
X417820Y42035D01*
X417586Y41979D01*
X417342Y41935D01*
X417075Y41923D01*
X416964D01*
X416875Y41935D01*
X416775Y41946D01*
X416664Y41968D01*
X416531Y41990D01*
X416398Y42012D01*
X416098Y42101D01*
X415931Y42168D01*
X415775Y42235D01*
X415620Y42323D01*
X415464Y42423D01*
X415320Y42535D01*
X415176Y42668D01*
X415165Y42679D01*
X415142Y42701D01*
X415109Y42746D01*
X415064Y42812D01*
X415009Y42890D01*
X414953Y42979D01*
X414887Y43090D01*
X414820Y43223D01*
X414753Y43368D01*
X414687Y43534D01*
X414631Y43712D01*
X414576Y43901D01*
X414531Y44112D01*
X414498Y44334D01*
X414476Y44579D01*
X414465Y44834D01*
Y44857D01*
Y44901D01*
X414476Y44979D01*
Y45090D01*
X414487Y45212D01*
X414509Y45368D01*
X414531Y45523D01*
X414576Y45701D01*
X414620Y45879D01*
X414676Y46068D01*
X414742Y46268D01*
X414831Y46456D01*
X414920Y46634D01*
X415042Y46812D01*
X415165Y46979D01*
X415320Y47123D01*
X415331Y47134D01*
X415353Y47145D01*
X415398Y47179D01*
X415453Y47223D01*
X415520Y47267D01*
X415609Y47323D01*
X415698Y47379D01*
X415809Y47434D01*
X415931Y47490D01*
X416064Y47545D01*
X416364Y47645D01*
X416709Y47723D01*
X416887Y47734D01*
X417075Y47745D01*
X417186D01*
X417264Y47734D01*
D02*
G37*
G36*
X413887Y48823D02*
X411354D01*
Y42046D01*
X410332D01*
Y48823D01*
X407798D01*
Y49734D01*
X413887D01*
Y48823D01*
D02*
G37*
G36*
X458038Y47734D02*
X458205Y47723D01*
X458393Y47701D01*
X458582Y47667D01*
X458771Y47623D01*
X458949Y47567D01*
X458971Y47556D01*
X459027Y47534D01*
X459104Y47501D01*
X459204Y47456D01*
X459316Y47390D01*
X459427Y47323D01*
X459527Y47234D01*
X459616Y47145D01*
X459627Y47134D01*
X459649Y47101D01*
X459682Y47045D01*
X459727Y46979D01*
X459782Y46879D01*
X459827Y46779D01*
X459871Y46656D01*
X459904Y46512D01*
Y46501D01*
X459915Y46468D01*
X459927Y46401D01*
X459938Y46312D01*
Y46190D01*
X459949Y46045D01*
X459960Y45856D01*
Y45645D01*
Y44379D01*
Y44368D01*
Y44323D01*
Y44257D01*
Y44168D01*
Y44068D01*
Y43946D01*
X459971Y43679D01*
Y43401D01*
X459982Y43123D01*
X459993Y43001D01*
Y42890D01*
X460004Y42790D01*
X460015Y42712D01*
Y42701D01*
X460027Y42657D01*
X460038Y42590D01*
X460071Y42501D01*
X460093Y42401D01*
X460138Y42290D01*
X460193Y42168D01*
X460249Y42046D01*
X459260D01*
X459249Y42057D01*
X459238Y42101D01*
X459216Y42157D01*
X459182Y42246D01*
X459149Y42346D01*
X459127Y42468D01*
X459104Y42601D01*
X459082Y42746D01*
X459071D01*
X459060Y42723D01*
X458993Y42668D01*
X458893Y42590D01*
X458760Y42490D01*
X458594Y42390D01*
X458427Y42279D01*
X458249Y42179D01*
X458060Y42101D01*
X458038Y42090D01*
X457971Y42079D01*
X457871Y42046D01*
X457749Y42012D01*
X457594Y41979D01*
X457416Y41957D01*
X457216Y41935D01*
X457016Y41923D01*
X456927D01*
X456860Y41935D01*
X456782D01*
X456694Y41946D01*
X456494Y41979D01*
X456272Y42035D01*
X456027Y42112D01*
X455805Y42224D01*
X455605Y42368D01*
X455583Y42390D01*
X455527Y42446D01*
X455449Y42546D01*
X455361Y42679D01*
X455272Y42846D01*
X455194Y43034D01*
X455138Y43268D01*
X455127Y43379D01*
X455116Y43512D01*
Y43534D01*
Y43579D01*
X455127Y43657D01*
X455138Y43757D01*
X455161Y43879D01*
X455194Y44001D01*
X455238Y44134D01*
X455294Y44257D01*
X455305Y44268D01*
X455327Y44312D01*
X455372Y44379D01*
X455427Y44457D01*
X455494Y44546D01*
X455583Y44634D01*
X455672Y44723D01*
X455783Y44801D01*
X455794Y44812D01*
X455838Y44834D01*
X455894Y44879D01*
X455983Y44923D01*
X456083Y44968D01*
X456205Y45023D01*
X456327Y45068D01*
X456471Y45112D01*
X456483D01*
X456527Y45123D01*
X456594Y45145D01*
X456682Y45156D01*
X456794Y45179D01*
X456938Y45201D01*
X457105Y45234D01*
X457305Y45257D01*
X457316D01*
X457360Y45268D01*
X457416D01*
X457494Y45279D01*
X457582Y45290D01*
X457693Y45312D01*
X457816Y45323D01*
X457949Y45345D01*
X458216Y45401D01*
X458505Y45456D01*
X458760Y45523D01*
X458882Y45557D01*
X458993Y45590D01*
Y45601D01*
Y45623D01*
X459004Y45690D01*
Y45768D01*
Y45812D01*
Y45834D01*
Y45845D01*
Y45856D01*
Y45923D01*
X458993Y46034D01*
X458971Y46156D01*
X458938Y46290D01*
X458882Y46423D01*
X458816Y46545D01*
X458727Y46645D01*
X458716Y46656D01*
X458660Y46701D01*
X458571Y46745D01*
X458460Y46812D01*
X458305Y46867D01*
X458127Y46923D01*
X457905Y46956D01*
X457649Y46968D01*
X457538D01*
X457427Y46956D01*
X457271Y46934D01*
X457116Y46912D01*
X456949Y46867D01*
X456794Y46812D01*
X456660Y46734D01*
X456649Y46723D01*
X456605Y46690D01*
X456549Y46634D01*
X456483Y46545D01*
X456416Y46434D01*
X456338Y46290D01*
X456272Y46112D01*
X456205Y45912D01*
X455283Y46034D01*
Y46045D01*
X455294Y46056D01*
Y46090D01*
X455305Y46134D01*
X455338Y46234D01*
X455383Y46379D01*
X455438Y46523D01*
X455505Y46679D01*
X455594Y46834D01*
X455694Y46979D01*
X455705Y46990D01*
X455749Y47034D01*
X455816Y47101D01*
X455905Y47190D01*
X456027Y47278D01*
X456172Y47367D01*
X456338Y47467D01*
X456527Y47545D01*
X456538D01*
X456549Y47556D01*
X456582Y47567D01*
X456627Y47578D01*
X456738Y47612D01*
X456894Y47645D01*
X457071Y47679D01*
X457294Y47712D01*
X457527Y47734D01*
X457794Y47745D01*
X457916D01*
X458038Y47734D01*
D02*
G37*
G36*
X453972Y42046D02*
X453027D01*
Y49734D01*
X453972D01*
Y42046D01*
D02*
G37*
G36*
X451694Y47734D02*
X451816Y47712D01*
X451961Y47667D01*
X452116Y47612D01*
X452294Y47534D01*
X452483Y47434D01*
X452139Y46567D01*
X452127Y46579D01*
X452083Y46601D01*
X452016Y46634D01*
X451928Y46668D01*
X451827Y46701D01*
X451705Y46734D01*
X451583Y46756D01*
X451461Y46768D01*
X451405D01*
X451350Y46756D01*
X451272Y46745D01*
X451194Y46723D01*
X451094Y46690D01*
X450994Y46645D01*
X450905Y46579D01*
X450894Y46567D01*
X450861Y46545D01*
X450828Y46501D01*
X450772Y46445D01*
X450716Y46367D01*
X450661Y46279D01*
X450605Y46179D01*
X450561Y46056D01*
X450550Y46034D01*
X450539Y45968D01*
X450517Y45868D01*
X450483Y45734D01*
X450450Y45568D01*
X450428Y45379D01*
X450417Y45179D01*
X450405Y44956D01*
Y42046D01*
X449461D01*
Y47623D01*
X450316D01*
Y46779D01*
X450328Y46790D01*
X450372Y46867D01*
X450428Y46968D01*
X450517Y47090D01*
X450605Y47212D01*
X450705Y47345D01*
X450805Y47456D01*
X450905Y47545D01*
X450916Y47556D01*
X450950Y47578D01*
X451016Y47612D01*
X451083Y47645D01*
X451172Y47679D01*
X451283Y47712D01*
X451394Y47734D01*
X451516Y47745D01*
X451594D01*
X451694Y47734D01*
D02*
G37*
G36*
X423441D02*
X423519Y47723D01*
X423686Y47701D01*
X423886Y47656D01*
X424097Y47590D01*
X424308Y47490D01*
X424519Y47367D01*
X424530D01*
X424541Y47345D01*
X424608Y47301D01*
X424708Y47212D01*
X424830Y47101D01*
X424964Y46956D01*
X425097Y46779D01*
X425230Y46567D01*
X425341Y46334D01*
Y46323D01*
X425352Y46301D01*
X425363Y46268D01*
X425386Y46223D01*
X425408Y46156D01*
X425430Y46079D01*
X425486Y45901D01*
X425541Y45679D01*
X425586Y45434D01*
X425619Y45156D01*
X425630Y44868D01*
Y44857D01*
Y44834D01*
Y44790D01*
Y44723D01*
X425619Y44646D01*
Y44557D01*
X425597Y44357D01*
X425552Y44112D01*
X425497Y43857D01*
X425419Y43590D01*
X425319Y43323D01*
Y43312D01*
X425308Y43290D01*
X425286Y43257D01*
X425264Y43212D01*
X425186Y43090D01*
X425086Y42935D01*
X424964Y42768D01*
X424808Y42601D01*
X424630Y42435D01*
X424419Y42279D01*
X424408D01*
X424397Y42268D01*
X424364Y42246D01*
X424319Y42224D01*
X424208Y42168D01*
X424052Y42101D01*
X423864Y42035D01*
X423664Y41979D01*
X423430Y41935D01*
X423197Y41923D01*
X423119D01*
X423030Y41935D01*
X422919Y41946D01*
X422786Y41968D01*
X422642Y42001D01*
X422497Y42046D01*
X422353Y42112D01*
X422341Y42123D01*
X422286Y42146D01*
X422219Y42190D01*
X422130Y42257D01*
X422042Y42323D01*
X421931Y42412D01*
X421831Y42512D01*
X421742Y42623D01*
Y39913D01*
X420797D01*
Y47623D01*
X421653D01*
Y46890D01*
X421664Y46912D01*
X421708Y46956D01*
X421764Y47034D01*
X421853Y47123D01*
X421953Y47234D01*
X422064Y47334D01*
X422197Y47434D01*
X422330Y47523D01*
X422353Y47534D01*
X422397Y47556D01*
X422486Y47590D01*
X422597Y47634D01*
X422730Y47679D01*
X422886Y47712D01*
X423064Y47734D01*
X423264Y47745D01*
X423386D01*
X423441Y47734D01*
D02*
G37*
G36*
X433429Y49856D02*
X433529D01*
X433629Y49845D01*
X433763Y49823D01*
X433896Y49801D01*
X434185Y49745D01*
X434518Y49656D01*
X434840Y49523D01*
X435007Y49445D01*
X435174Y49356D01*
X435185Y49345D01*
X435207Y49334D01*
X435251Y49301D01*
X435318Y49267D01*
X435385Y49212D01*
X435473Y49145D01*
X435662Y48989D01*
X435862Y48790D01*
X436085Y48545D01*
X436296Y48256D01*
X436473Y47934D01*
Y47923D01*
X436496Y47890D01*
X436518Y47845D01*
X436540Y47778D01*
X436585Y47690D01*
X436618Y47590D01*
X436662Y47467D01*
X436707Y47334D01*
X436740Y47190D01*
X436785Y47034D01*
X436829Y46856D01*
X436862Y46679D01*
X436907Y46290D01*
X436929Y45868D01*
Y45856D01*
Y45812D01*
Y45757D01*
X436918Y45668D01*
Y45568D01*
X436907Y45445D01*
X436884Y45312D01*
X436873Y45168D01*
X436818Y44845D01*
X436729Y44490D01*
X436607Y44134D01*
X436540Y43957D01*
X436451Y43779D01*
Y43768D01*
X436429Y43734D01*
X436407Y43690D01*
X436362Y43623D01*
X436318Y43546D01*
X436262Y43468D01*
X436107Y43257D01*
X435918Y43034D01*
X435696Y42801D01*
X435429Y42579D01*
X435118Y42379D01*
X435107D01*
X435085Y42357D01*
X435029Y42335D01*
X434963Y42301D01*
X434885Y42268D01*
X434796Y42235D01*
X434685Y42190D01*
X434562Y42146D01*
X434429Y42101D01*
X434285Y42057D01*
X433963Y41990D01*
X433618Y41935D01*
X433252Y41912D01*
X433140D01*
X433074Y41923D01*
X432974D01*
X432863Y41946D01*
X432740Y41957D01*
X432596Y41979D01*
X432296Y42046D01*
X431974Y42135D01*
X431641Y42268D01*
X431474Y42346D01*
X431307Y42435D01*
X431296Y42446D01*
X431274Y42457D01*
X431229Y42490D01*
X431163Y42535D01*
X431096Y42579D01*
X431018Y42646D01*
X430830Y42812D01*
X430618Y43012D01*
X430396Y43257D01*
X430196Y43534D01*
X430007Y43857D01*
Y43868D01*
X429985Y43901D01*
X429963Y43946D01*
X429941Y44012D01*
X429907Y44101D01*
X429874Y44201D01*
X429830Y44312D01*
X429796Y44434D01*
X429752Y44579D01*
X429707Y44723D01*
X429641Y45057D01*
X429596Y45401D01*
X429574Y45779D01*
Y45790D01*
Y45801D01*
Y45868D01*
X429585Y45968D01*
Y46101D01*
X429607Y46256D01*
X429630Y46445D01*
X429663Y46656D01*
X429707Y46879D01*
X429752Y47112D01*
X429819Y47356D01*
X429907Y47601D01*
X430007Y47856D01*
X430119Y48101D01*
X430263Y48345D01*
X430418Y48567D01*
X430596Y48778D01*
X430607Y48790D01*
X430641Y48823D01*
X430707Y48878D01*
X430785Y48945D01*
X430885Y49034D01*
X431007Y49123D01*
X431152Y49223D01*
X431318Y49323D01*
X431496Y49423D01*
X431696Y49523D01*
X431918Y49612D01*
X432152Y49700D01*
X432407Y49767D01*
X432674Y49823D01*
X432952Y49856D01*
X433252Y49867D01*
X433352D01*
X433429Y49856D01*
D02*
G37*
G36*
X463860Y41957D02*
Y41946D01*
X463848Y41912D01*
X463826Y41868D01*
X463804Y41812D01*
X463771Y41735D01*
X463737Y41646D01*
X463660Y41457D01*
X463582Y41246D01*
X463493Y41035D01*
X463404Y40846D01*
X463360Y40768D01*
X463326Y40690D01*
X463315Y40668D01*
X463282Y40613D01*
X463226Y40535D01*
X463160Y40435D01*
X463071Y40324D01*
X462971Y40213D01*
X462871Y40102D01*
X462749Y40013D01*
X462738Y40001D01*
X462693Y39979D01*
X462626Y39946D01*
X462526Y39902D01*
X462415Y39857D01*
X462282Y39824D01*
X462138Y39801D01*
X461971Y39790D01*
X461927D01*
X461871Y39801D01*
X461793D01*
X461704Y39824D01*
X461604Y39846D01*
X461493Y39868D01*
X461371Y39913D01*
X461271Y40790D01*
X461282D01*
X461327Y40779D01*
X461382Y40768D01*
X461449Y40746D01*
X461626Y40712D01*
X461804Y40701D01*
X461860D01*
X461915Y40712D01*
X461982D01*
X462149Y40746D01*
X462226Y40779D01*
X462304Y40813D01*
X462315D01*
X462337Y40835D01*
X462371Y40857D01*
X462415Y40890D01*
X462515Y40979D01*
X462604Y41101D01*
Y41113D01*
X462626Y41135D01*
X462649Y41179D01*
X462671Y41246D01*
X462715Y41335D01*
X462760Y41468D01*
X462826Y41624D01*
X462893Y41812D01*
Y41824D01*
X462915Y41868D01*
X462937Y41946D01*
X462982Y42046D01*
X460871Y47623D01*
X461871D01*
X463037Y44390D01*
Y44379D01*
X463049Y44368D01*
X463060Y44334D01*
X463071Y44279D01*
X463093Y44223D01*
X463115Y44157D01*
X463171Y44001D01*
X463237Y43812D01*
X463304Y43590D01*
X463371Y43357D01*
X463437Y43101D01*
Y43112D01*
X463448Y43134D01*
X463460Y43168D01*
X463471Y43212D01*
X463482Y43268D01*
X463504Y43334D01*
X463549Y43501D01*
X463604Y43690D01*
X463682Y43912D01*
X463749Y44134D01*
X463837Y44368D01*
X465037Y47623D01*
X465982D01*
X463860Y41957D01*
D02*
G37*
G36*
X440529Y42046D02*
X439629D01*
X437529Y47623D01*
X438529D01*
X439729Y44279D01*
Y44268D01*
X439740Y44257D01*
X439751Y44223D01*
X439762Y44190D01*
X439795Y44079D01*
X439840Y43934D01*
X439895Y43768D01*
X439962Y43579D01*
X440018Y43368D01*
X440084Y43157D01*
X440095Y43179D01*
X440106Y43235D01*
X440140Y43323D01*
X440173Y43457D01*
X440229Y43601D01*
X440284Y43790D01*
X440362Y43990D01*
X440440Y44212D01*
X441673Y47623D01*
X442651D01*
X440529Y42046D01*
D02*
G37*
%LPC*%
G36*
X433252Y48989D02*
X433152D01*
X433074Y48978D01*
X432974Y48967D01*
X432874Y48945D01*
X432752Y48923D01*
X432618Y48901D01*
X432329Y48812D01*
X432174Y48745D01*
X432018Y48678D01*
X431852Y48590D01*
X431696Y48489D01*
X431541Y48378D01*
X431396Y48245D01*
X431385Y48234D01*
X431363Y48212D01*
X431329Y48167D01*
X431274Y48101D01*
X431218Y48023D01*
X431152Y47923D01*
X431085Y47801D01*
X431007Y47656D01*
X430941Y47501D01*
X430863Y47312D01*
X430796Y47112D01*
X430741Y46890D01*
X430685Y46645D01*
X430652Y46367D01*
X430630Y46079D01*
X430618Y45768D01*
Y45757D01*
Y45712D01*
Y45634D01*
X430630Y45534D01*
X430641Y45423D01*
X430663Y45290D01*
X430685Y45134D01*
X430707Y44979D01*
X430796Y44623D01*
X430863Y44445D01*
X430930Y44257D01*
X431018Y44079D01*
X431118Y43901D01*
X431229Y43734D01*
X431363Y43579D01*
X431374Y43568D01*
X431396Y43546D01*
X431441Y43501D01*
X431496Y43457D01*
X431574Y43390D01*
X431663Y43323D01*
X431763Y43257D01*
X431874Y43179D01*
X432007Y43101D01*
X432152Y43034D01*
X432307Y42968D01*
X432474Y42901D01*
X432652Y42857D01*
X432829Y42812D01*
X433029Y42790D01*
X433240Y42779D01*
X433296D01*
X433352Y42790D01*
X433429D01*
X433529Y42801D01*
X433640Y42823D01*
X433774Y42846D01*
X433907Y42879D01*
X434063Y42923D01*
X434207Y42979D01*
X434374Y43034D01*
X434529Y43112D01*
X434685Y43212D01*
X434840Y43312D01*
X434996Y43435D01*
X435140Y43579D01*
X435151Y43590D01*
X435174Y43612D01*
X435207Y43668D01*
X435262Y43734D01*
X435318Y43812D01*
X435374Y43912D01*
X435440Y44034D01*
X435518Y44168D01*
X435585Y44323D01*
X435651Y44501D01*
X435707Y44690D01*
X435774Y44890D01*
X435818Y45112D01*
X435851Y45357D01*
X435874Y45612D01*
X435885Y45879D01*
Y45890D01*
Y45923D01*
Y45968D01*
Y46034D01*
X435874Y46112D01*
Y46212D01*
X435862Y46312D01*
X435840Y46434D01*
X435807Y46690D01*
X435751Y46956D01*
X435674Y47245D01*
X435562Y47512D01*
Y47523D01*
X435551Y47545D01*
X435529Y47578D01*
X435507Y47623D01*
X435429Y47756D01*
X435329Y47912D01*
X435196Y48090D01*
X435029Y48267D01*
X434840Y48445D01*
X434629Y48601D01*
X434618D01*
X434607Y48623D01*
X434574Y48634D01*
X434518Y48667D01*
X434462Y48689D01*
X434396Y48723D01*
X434229Y48801D01*
X434029Y48867D01*
X433796Y48934D01*
X433529Y48978D01*
X433252Y48989D01*
D02*
G37*
G36*
X445784Y46968D02*
X445717D01*
X445673Y46956D01*
X445550Y46945D01*
X445406Y46912D01*
X445228Y46856D01*
X445039Y46779D01*
X444862Y46668D01*
X444684Y46523D01*
X444662Y46501D01*
X444617Y46445D01*
X444539Y46345D01*
X444461Y46212D01*
X444373Y46056D01*
X444295Y45856D01*
X444228Y45623D01*
X444195Y45368D01*
X447317D01*
Y45379D01*
Y45401D01*
X447306Y45434D01*
Y45479D01*
X447284Y45612D01*
X447250Y45757D01*
X447195Y45934D01*
X447139Y46101D01*
X447050Y46268D01*
X446950Y46412D01*
Y46423D01*
X446928Y46434D01*
X446872Y46501D01*
X446772Y46590D01*
X446639Y46690D01*
X446473Y46790D01*
X446273Y46879D01*
X446039Y46945D01*
X445917Y46956D01*
X445784Y46968D01*
D02*
G37*
G36*
X423175Y47001D02*
X423119D01*
X423075Y46990D01*
X422964Y46968D01*
X422819Y46934D01*
X422653Y46867D01*
X422475Y46768D01*
X422375Y46701D01*
X422286Y46623D01*
X422197Y46534D01*
X422108Y46434D01*
Y46423D01*
X422086Y46412D01*
X422064Y46379D01*
X422042Y46334D01*
X422008Y46268D01*
X421964Y46201D01*
X421919Y46112D01*
X421886Y46023D01*
X421842Y45912D01*
X421797Y45790D01*
X421764Y45656D01*
X421719Y45512D01*
X421697Y45345D01*
X421675Y45179D01*
X421653Y45001D01*
Y44801D01*
Y44790D01*
Y44757D01*
Y44701D01*
X421664Y44623D01*
Y44534D01*
X421675Y44434D01*
X421708Y44201D01*
X421764Y43934D01*
X421831Y43679D01*
X421942Y43423D01*
X422008Y43312D01*
X422086Y43212D01*
X422108Y43190D01*
X422164Y43134D01*
X422253Y43046D01*
X422375Y42957D01*
X422530Y42868D01*
X422708Y42779D01*
X422908Y42723D01*
X423019Y42712D01*
X423130Y42701D01*
X423197D01*
X423241Y42712D01*
X423352Y42735D01*
X423508Y42768D01*
X423675Y42834D01*
X423852Y42923D01*
X424030Y43057D01*
X424119Y43134D01*
X424208Y43223D01*
Y43235D01*
X424230Y43246D01*
X424253Y43279D01*
X424275Y43323D01*
X424319Y43379D01*
X424352Y43457D01*
X424397Y43534D01*
X424441Y43635D01*
X424475Y43734D01*
X424519Y43868D01*
X424564Y44001D01*
X424597Y44146D01*
X424619Y44312D01*
X424641Y44490D01*
X424663Y44679D01*
Y44879D01*
Y44890D01*
Y44923D01*
Y44979D01*
X424652Y45057D01*
Y45145D01*
X424641Y45245D01*
X424608Y45479D01*
X424552Y45734D01*
X424475Y45990D01*
X424364Y46245D01*
X424297Y46367D01*
X424219Y46468D01*
Y46479D01*
X424197Y46490D01*
X424141Y46556D01*
X424052Y46634D01*
X423930Y46734D01*
X423775Y46834D01*
X423597Y46923D01*
X423397Y46979D01*
X423286Y46990D01*
X423175Y47001D01*
D02*
G37*
G36*
X459004Y44845D02*
X458993D01*
X458982Y44834D01*
X458949Y44823D01*
X458905Y44812D01*
X458849Y44790D01*
X458782Y44768D01*
X458705Y44745D01*
X458616Y44723D01*
X458516Y44690D01*
X458393Y44668D01*
X458271Y44634D01*
X458127Y44601D01*
X457971Y44568D01*
X457816Y44534D01*
X457638Y44512D01*
X457449Y44479D01*
X457427D01*
X457360Y44468D01*
X457249Y44445D01*
X457127Y44423D01*
X456994Y44401D01*
X456860Y44368D01*
X456738Y44334D01*
X456627Y44290D01*
X456616D01*
X456582Y44268D01*
X456538Y44245D01*
X456494Y44212D01*
X456360Y44123D01*
X456249Y43990D01*
Y43979D01*
X456227Y43957D01*
X456216Y43912D01*
X456194Y43857D01*
X456172Y43790D01*
X456149Y43723D01*
X456138Y43635D01*
X456127Y43546D01*
Y43534D01*
Y43479D01*
X456138Y43412D01*
X456160Y43323D01*
X456194Y43223D01*
X456249Y43123D01*
X456316Y43012D01*
X456405Y42912D01*
X456416Y42901D01*
X456460Y42879D01*
X456527Y42834D01*
X456616Y42790D01*
X456738Y42746D01*
X456882Y42701D01*
X457049Y42679D01*
X457249Y42668D01*
X457338D01*
X457449Y42679D01*
X457571Y42701D01*
X457727Y42723D01*
X457882Y42768D01*
X458049Y42823D01*
X458216Y42901D01*
X458238Y42912D01*
X458282Y42946D01*
X458360Y43001D01*
X458449Y43079D01*
X458549Y43168D01*
X458660Y43279D01*
X458749Y43412D01*
X458838Y43557D01*
X458849Y43568D01*
X458860Y43612D01*
X458882Y43690D01*
X458916Y43790D01*
X458949Y43923D01*
X458971Y44079D01*
X458982Y44268D01*
X458993Y44490D01*
X459004Y44845D01*
D02*
G37*
G36*
X417075Y46968D02*
X417009D01*
X416953Y46956D01*
X416831Y46945D01*
X416664Y46901D01*
X416475Y46834D01*
X416276Y46745D01*
X416087Y46612D01*
X415987Y46523D01*
X415898Y46434D01*
Y46423D01*
X415875Y46412D01*
X415853Y46379D01*
X415820Y46334D01*
X415787Y46279D01*
X415753Y46212D01*
X415709Y46123D01*
X415664Y46034D01*
X415620Y45923D01*
X415576Y45812D01*
X415542Y45679D01*
X415509Y45534D01*
X415476Y45379D01*
X415453Y45212D01*
X415442Y45023D01*
X415431Y44834D01*
Y44823D01*
Y44790D01*
Y44734D01*
X415442Y44657D01*
Y44568D01*
X415453Y44468D01*
X415487Y44234D01*
X415542Y43968D01*
X415631Y43701D01*
X415742Y43446D01*
X415820Y43334D01*
X415898Y43223D01*
X415909D01*
X415920Y43201D01*
X415987Y43146D01*
X416087Y43057D01*
X416220Y42968D01*
X416387Y42868D01*
X416586Y42779D01*
X416820Y42723D01*
X416942Y42712D01*
X417075Y42701D01*
X417142D01*
X417198Y42712D01*
X417320Y42735D01*
X417486Y42768D01*
X417664Y42834D01*
X417864Y42923D01*
X418053Y43057D01*
X418153Y43146D01*
X418242Y43235D01*
X418253Y43246D01*
X418264Y43257D01*
X418286Y43290D01*
X418320Y43334D01*
X418353Y43390D01*
X418398Y43457D01*
X418442Y43546D01*
X418486Y43635D01*
X418531Y43746D01*
X418564Y43868D01*
X418609Y44001D01*
X418642Y44146D01*
X418675Y44312D01*
X418698Y44479D01*
X418720Y44668D01*
Y44868D01*
Y44879D01*
Y44912D01*
Y44968D01*
X418709Y45034D01*
Y45123D01*
X418698Y45223D01*
X418664Y45456D01*
X418609Y45701D01*
X418520Y45968D01*
X418398Y46212D01*
X418331Y46334D01*
X418242Y46434D01*
Y46445D01*
X418220Y46456D01*
X418153Y46523D01*
X418053Y46601D01*
X417920Y46701D01*
X417753Y46801D01*
X417553Y46890D01*
X417331Y46945D01*
X417209Y46956D01*
X417075Y46968D01*
D02*
G37*
%LPD*%
D12*
X13801Y206392D02*
G03*
X17738Y202455I3937J0D01*
G01*
X151667D02*
G03*
X155568Y206392I-18J3918D01*
G01*
X155568Y300973D02*
G03*
X151667Y304873I-3900J0D01*
G01*
X17738Y304873D02*
G03*
X13801Y300973I-18J-3918D01*
G01*
X155568Y206392D02*
Y300973D01*
X17738Y304873D02*
X151667D01*
X13801Y206392D02*
Y300973D01*
X17738Y202455D02*
X151667D01*
D73*
X155389Y220518D02*
X163263D01*
X155523Y272295D02*
X163397D01*
X5942Y221051D02*
X13816D01*
X6170Y272546D02*
X14044D01*
D74*
X163263Y220518D02*
Y237054D01*
X155389Y222093D02*
X163263D01*
X155389Y220518D02*
Y237054D01*
X163263D01*
X155523Y288831D02*
X163397D01*
X155523Y272295D02*
Y288831D01*
Y273870D02*
X163397D01*
Y272295D02*
Y288831D01*
X13816Y221051D02*
Y237586D01*
X5942Y222626D02*
X13816D01*
X5942Y221051D02*
Y237586D01*
X13816D01*
X6170Y289081D02*
X14044D01*
X6170Y272546D02*
Y289081D01*
Y274120D02*
X14044D01*
Y272546D02*
Y289081D01*
D75*
X163446Y254916D02*
X163468Y254938D01*
Y259827D01*
X5927Y254423D02*
Y315447D01*
Y194581D02*
Y237100D01*
X163468Y194581D02*
Y237460D01*
Y259827D02*
Y315447D01*
X108368Y332473D02*
X160652D01*
X54746D02*
X61045D01*
X108368D01*
X5927Y194581D02*
X163468D01*
X61045Y312773D02*
Y332473D01*
Y312773D02*
X108368D01*
Y332473D01*
D76*
X2119Y275984D02*
X5118D01*
Y277984D01*
X2119Y280983D02*
Y278983D01*
X5118D01*
Y280983D01*
X3619Y278983D02*
Y279983D01*
X2119Y281982D02*
X5118D01*
Y283482D01*
X4618Y283982D01*
X2619D01*
X2119Y283482D01*
Y281982D01*
X5118Y284981D02*
Y285981D01*
Y285481D01*
X2119D01*
X2619Y284981D01*
X1725Y223228D02*
X4724D01*
Y225228D01*
X1725Y228227D02*
Y226227D01*
X4724D01*
Y228227D01*
X3225Y226227D02*
Y227227D01*
X1725Y229226D02*
X4724D01*
Y230726D01*
X4225Y231226D01*
X2225D01*
X1725Y230726D01*
Y229226D01*
X4724Y234225D02*
Y232225D01*
X2725Y234225D01*
X2225D01*
X1725Y233725D01*
Y232725D01*
X2225Y232225D01*
X164762Y275590D02*
X167761D01*
Y277590D01*
X164762Y280589D02*
Y278590D01*
X167761D01*
Y280589D01*
X166261Y278590D02*
Y279589D01*
X164762Y281589D02*
X167761D01*
Y283088D01*
X167261Y283588D01*
X165261D01*
X164762Y283088D01*
Y281589D01*
X165261Y284588D02*
X164762Y285087D01*
Y286087D01*
X165261Y286587D01*
X165761D01*
X166261Y286087D01*
Y285587D01*
Y286087D01*
X166761Y286587D01*
X167261D01*
X167761Y286087D01*
Y285087D01*
X167261Y284588D01*
X164380Y223060D02*
X167379D01*
Y225059D01*
X164380Y228058D02*
Y226059D01*
X167379D01*
Y228058D01*
X165880Y226059D02*
Y227058D01*
X164380Y229058D02*
X167379D01*
Y230557D01*
X166879Y231057D01*
X164880D01*
X164380Y230557D01*
Y229058D01*
X167379Y233556D02*
X164380D01*
X165880Y232057D01*
Y234056D01*
M02*
