%FSLAX25Y25*%
%MOIN*%
G70*
G01*
G75*
G04 Layer_Color=16711935*
%ADD10R,0.05906X0.05118*%
%ADD11R,0.03000X0.13386*%
%ADD12C,0.01200*%
%ADD13C,0.02500*%
%ADD14C,0.05000*%
%ADD15C,0.17716*%
%ADD16C,0.08661*%
%ADD17C,0.05906*%
%ADD18C,0.10000*%
%ADD19C,0.07874*%
%ADD20C,0.07000*%
%ADD21R,0.07000X0.07000*%
%ADD22C,0.07874*%
%ADD23R,0.05906X0.05906*%
%ADD24R,0.07000X0.07000*%
%ADD25C,0.04724*%
%ADD26C,0.06000*%
%ADD27C,0.03150*%
%ADD28C,0.03937*%
%ADD29R,0.03937X0.11811*%
%ADD30R,0.02756X0.03937*%
%ADD31R,0.03600X0.03600*%
%ADD32R,0.05000X0.03600*%
%ADD33R,0.02362X0.03543*%
%ADD34R,0.03543X0.02362*%
%ADD35R,0.03937X0.04331*%
%ADD36R,0.09843X0.07087*%
%ADD37R,0.07087X0.09843*%
%ADD38R,0.06299X0.13780*%
%ADD39R,0.13780X0.06299*%
%ADD40R,0.03937X0.02362*%
%ADD41O,0.08858X0.01575*%
%ADD42R,0.06890X0.04921*%
%ADD43O,0.02165X0.06890*%
%ADD44O,0.06890X0.02165*%
%ADD45R,0.07087X0.03937*%
%ADD46R,0.04331X0.03937*%
%ADD47R,0.07874X0.03150*%
%ADD48R,0.03600X0.05000*%
%ADD49R,0.03600X0.03600*%
%ADD50R,0.02559X0.04331*%
%ADD51R,0.05315X0.01575*%
%ADD52R,0.06299X0.08268*%
%ADD53R,0.07480X0.07480*%
%ADD54R,0.21654X0.08465*%
%ADD55R,0.05000X0.02500*%
%ADD56R,0.10000X0.10512*%
%ADD57C,0.02000*%
%ADD58C,0.10000*%
%ADD59R,0.46850X0.13386*%
%ADD60R,0.24410X0.18504*%
%ADD61R,0.34646X0.04724*%
%ADD62R,0.25591X0.18110*%
%ADD63R,0.20079X0.05512*%
%ADD64R,0.10236X0.26378*%
%ADD65R,0.27559X0.20472*%
%ADD66R,0.27165X0.35433*%
%ADD67R,0.08661X0.04331*%
%ADD68R,0.09449X0.02362*%
%ADD69R,0.05118X0.07087*%
%ADD70R,0.03937X0.05118*%
%ADD71R,0.03937X0.03150*%
%ADD72R,0.07874X0.15748*%
%ADD73C,0.00965*%
%ADD74C,0.01000*%
%ADD75C,0.00500*%
%ADD76C,0.00700*%
%ADD77R,0.06706X0.05918*%
%ADD78R,0.03800X0.14186*%
%ADD79C,0.18517*%
%ADD80C,0.09461*%
%ADD81C,0.06706*%
%ADD82C,0.10800*%
%ADD83C,0.13874*%
%ADD84C,0.07800*%
%ADD85R,0.07800X0.07800*%
%ADD86C,0.08674*%
%ADD87R,0.06706X0.06706*%
%ADD88R,0.07800X0.07800*%
%ADD89C,0.05524*%
G04:AMPARAMS|DCode=90|XSize=8mil|YSize=8mil|CornerRadius=0mil|HoleSize=0mil|Usage=FLASHONLY|Rotation=90.000|XOffset=0mil|YOffset=0mil|HoleType=Round|Shape=RoundedRectangle|*
%AMROUNDEDRECTD90*
21,1,0.00800,0.00800,0,0,90.0*
21,1,0.00800,0.00800,0,0,90.0*
1,1,0.00000,0.00400,0.00400*
1,1,0.00000,0.00400,-0.00400*
1,1,0.00000,-0.00400,-0.00400*
1,1,0.00000,-0.00400,0.00400*
%
%ADD90ROUNDEDRECTD90*%
%ADD91C,0.06800*%
%ADD92R,0.04737X0.12611*%
%ADD93R,0.03556X0.04737*%
%ADD94R,0.04400X0.04400*%
%ADD95R,0.05800X0.04400*%
%ADD96R,0.03162X0.04343*%
%ADD97R,0.04343X0.03162*%
%ADD98R,0.04737X0.05131*%
%ADD99R,0.10642X0.07887*%
%ADD100R,0.07887X0.10642*%
%ADD101R,0.07099X0.14579*%
%ADD102R,0.14579X0.07099*%
%ADD103R,0.04737X0.03162*%
%ADD104O,0.09658X0.02375*%
%ADD105R,0.07690X0.05721*%
%ADD106O,0.02965X0.07690*%
%ADD107O,0.07690X0.02965*%
%ADD108R,0.07887X0.04737*%
%ADD109R,0.05131X0.04737*%
%ADD110R,0.08674X0.03950*%
%ADD111R,0.04400X0.05800*%
%ADD112R,0.04400X0.04400*%
%ADD113R,0.03359X0.05131*%
%ADD114R,0.06115X0.02375*%
%ADD115R,0.07099X0.09068*%
%ADD116R,0.08280X0.08280*%
%ADD117R,0.22453X0.09265*%
%ADD118R,0.05800X0.03300*%
%ADD119R,0.10800X0.11312*%
%ADD120R,0.08674X0.16548*%
%ADD121C,0.01500*%
%ADD122C,0.00787*%
%ADD123C,0.01575*%
%ADD124C,0.00984*%
%ADD125C,0.02362*%
%ADD126C,0.00492*%
%ADD127C,0.00200*%
%ADD128C,0.00394*%
%ADD129C,0.01181*%
%ADD130C,0.00800*%
%ADD131R,0.09449X0.03543*%
G36*
X646781Y66579D02*
X650569D01*
Y65668D01*
X645759D01*
Y73356D01*
X646781D01*
Y66579D01*
D02*
G37*
G36*
X640804Y71245D02*
X641759D01*
Y70512D01*
X640804D01*
Y67234D01*
Y67212D01*
Y67168D01*
Y67101D01*
X640815Y67023D01*
X640826Y66845D01*
X640837Y66768D01*
X640848Y66712D01*
X640859Y66690D01*
X640893Y66645D01*
X640937Y66590D01*
X641015Y66534D01*
X641037Y66523D01*
X641093Y66501D01*
X641193Y66479D01*
X641337Y66468D01*
X641448D01*
X641504Y66479D01*
X641581D01*
X641670Y66490D01*
X641759Y66501D01*
X641882Y65668D01*
X641859D01*
X641815Y65657D01*
X641737Y65646D01*
X641637Y65635D01*
X641526Y65612D01*
X641404Y65601D01*
X641159Y65590D01*
X641071D01*
X640982Y65601D01*
X640871Y65612D01*
X640737Y65623D01*
X640604Y65657D01*
X640482Y65690D01*
X640359Y65746D01*
X640348Y65757D01*
X640315Y65779D01*
X640271Y65812D01*
X640204Y65868D01*
X640148Y65923D01*
X640082Y66001D01*
X640015Y66079D01*
X639971Y66179D01*
Y66190D01*
X639948Y66234D01*
X639937Y66312D01*
X639915Y66423D01*
X639893Y66568D01*
X639882Y66657D01*
Y66757D01*
X639871Y66879D01*
X639859Y67001D01*
Y67134D01*
Y67290D01*
Y70512D01*
X639160D01*
Y71245D01*
X639859D01*
Y72623D01*
X640804Y73189D01*
Y71245D01*
D02*
G37*
G36*
X638226Y65668D02*
X637382D01*
Y66479D01*
X637371Y66468D01*
X637349Y66434D01*
X637315Y66390D01*
X637260Y66334D01*
X637193Y66268D01*
X637115Y66179D01*
X637027Y66101D01*
X636915Y66012D01*
X636793Y65923D01*
X636660Y65846D01*
X636515Y65768D01*
X636360Y65690D01*
X636182Y65635D01*
X636004Y65590D01*
X635804Y65557D01*
X635604Y65546D01*
X635527D01*
X635427Y65557D01*
X635304Y65568D01*
X635160Y65590D01*
X635004Y65623D01*
X634849Y65668D01*
X634682Y65734D01*
X634660Y65746D01*
X634616Y65768D01*
X634538Y65812D01*
X634449Y65868D01*
X634338Y65934D01*
X634238Y66012D01*
X634138Y66101D01*
X634049Y66201D01*
X634038Y66212D01*
X634016Y66257D01*
X633982Y66312D01*
X633938Y66401D01*
X633882Y66501D01*
X633838Y66623D01*
X633793Y66757D01*
X633760Y66901D01*
Y66912D01*
X633749Y66957D01*
X633738Y67023D01*
Y67112D01*
X633727Y67245D01*
X633716Y67390D01*
X633705Y67579D01*
Y67790D01*
Y71245D01*
X634649D01*
Y68145D01*
Y68134D01*
Y68112D01*
Y68079D01*
Y68023D01*
Y67901D01*
X634660Y67745D01*
Y67579D01*
X634671Y67412D01*
X634682Y67268D01*
X634704Y67145D01*
Y67134D01*
X634727Y67090D01*
X634749Y67023D01*
X634782Y66934D01*
X634838Y66845D01*
X634904Y66746D01*
X634982Y66657D01*
X635082Y66568D01*
X635093Y66557D01*
X635138Y66534D01*
X635193Y66501D01*
X635282Y66468D01*
X635382Y66423D01*
X635504Y66390D01*
X635638Y66368D01*
X635793Y66357D01*
X635871D01*
X635949Y66368D01*
X636049Y66379D01*
X636171Y66412D01*
X636304Y66445D01*
X636449Y66501D01*
X636593Y66568D01*
X636615Y66579D01*
X636660Y66612D01*
X636727Y66657D01*
X636804Y66723D01*
X636893Y66812D01*
X636982Y66912D01*
X637060Y67023D01*
X637126Y67156D01*
X637138Y67179D01*
X637149Y67223D01*
X637171Y67312D01*
X637204Y67434D01*
X637238Y67590D01*
X637260Y67779D01*
X637271Y68001D01*
X637282Y68256D01*
Y71245D01*
X638226D01*
Y65668D01*
D02*
G37*
G36*
X654258Y71356D02*
X654425Y71345D01*
X654614Y71323D01*
X654803Y71289D01*
X654991Y71245D01*
X655169Y71189D01*
X655191Y71178D01*
X655247Y71156D01*
X655325Y71123D01*
X655425Y71078D01*
X655536Y71012D01*
X655647Y70945D01*
X655747Y70856D01*
X655836Y70767D01*
X655847Y70756D01*
X655869Y70723D01*
X655902Y70667D01*
X655947Y70601D01*
X656002Y70501D01*
X656047Y70401D01*
X656091Y70278D01*
X656124Y70134D01*
Y70123D01*
X656136Y70090D01*
X656147Y70023D01*
X656158Y69934D01*
Y69812D01*
X656169Y69667D01*
X656180Y69478D01*
Y69267D01*
Y68001D01*
Y67990D01*
Y67945D01*
Y67879D01*
Y67790D01*
Y67690D01*
Y67568D01*
X656191Y67301D01*
Y67023D01*
X656202Y66746D01*
X656213Y66623D01*
Y66512D01*
X656224Y66412D01*
X656236Y66334D01*
Y66323D01*
X656247Y66279D01*
X656258Y66212D01*
X656291Y66123D01*
X656313Y66023D01*
X656358Y65912D01*
X656413Y65790D01*
X656469Y65668D01*
X655480D01*
X655469Y65679D01*
X655458Y65723D01*
X655436Y65779D01*
X655402Y65868D01*
X655369Y65968D01*
X655347Y66090D01*
X655325Y66223D01*
X655302Y66368D01*
X655291D01*
X655280Y66346D01*
X655213Y66290D01*
X655114Y66212D01*
X654980Y66112D01*
X654814Y66012D01*
X654647Y65901D01*
X654469Y65801D01*
X654280Y65723D01*
X654258Y65712D01*
X654191Y65701D01*
X654091Y65668D01*
X653969Y65635D01*
X653814Y65601D01*
X653636Y65579D01*
X653436Y65557D01*
X653236Y65546D01*
X653147D01*
X653080Y65557D01*
X653003D01*
X652914Y65568D01*
X652714Y65601D01*
X652492Y65657D01*
X652247Y65734D01*
X652025Y65846D01*
X651825Y65990D01*
X651803Y66012D01*
X651747Y66068D01*
X651669Y66168D01*
X651581Y66301D01*
X651492Y66468D01*
X651414Y66657D01*
X651358Y66890D01*
X651347Y67001D01*
X651336Y67134D01*
Y67156D01*
Y67201D01*
X651347Y67279D01*
X651358Y67379D01*
X651381Y67501D01*
X651414Y67623D01*
X651458Y67756D01*
X651514Y67879D01*
X651525Y67890D01*
X651547Y67934D01*
X651592Y68001D01*
X651647Y68079D01*
X651714Y68168D01*
X651803Y68256D01*
X651892Y68345D01*
X652003Y68423D01*
X652014Y68434D01*
X652058Y68456D01*
X652114Y68501D01*
X652203Y68545D01*
X652303Y68590D01*
X652425Y68645D01*
X652547Y68690D01*
X652692Y68734D01*
X652703D01*
X652747Y68745D01*
X652814Y68767D01*
X652903Y68779D01*
X653014Y68801D01*
X653158Y68823D01*
X653325Y68856D01*
X653525Y68879D01*
X653536D01*
X653580Y68890D01*
X653636D01*
X653714Y68901D01*
X653802Y68912D01*
X653914Y68934D01*
X654036Y68945D01*
X654169Y68967D01*
X654436Y69023D01*
X654725Y69078D01*
X654980Y69145D01*
X655102Y69178D01*
X655213Y69212D01*
Y69223D01*
Y69245D01*
X655225Y69312D01*
Y69390D01*
Y69434D01*
Y69456D01*
Y69467D01*
Y69478D01*
Y69545D01*
X655213Y69656D01*
X655191Y69779D01*
X655158Y69912D01*
X655102Y70045D01*
X655036Y70167D01*
X654947Y70267D01*
X654936Y70278D01*
X654880Y70323D01*
X654791Y70367D01*
X654680Y70434D01*
X654525Y70490D01*
X654347Y70545D01*
X654125Y70578D01*
X653869Y70590D01*
X653758D01*
X653647Y70578D01*
X653491Y70556D01*
X653336Y70534D01*
X653169Y70490D01*
X653014Y70434D01*
X652880Y70356D01*
X652869Y70345D01*
X652825Y70312D01*
X652769Y70256D01*
X652703Y70167D01*
X652636Y70056D01*
X652558Y69912D01*
X652492Y69734D01*
X652425Y69534D01*
X651503Y69656D01*
Y69667D01*
X651514Y69678D01*
Y69712D01*
X651525Y69756D01*
X651558Y69856D01*
X651603Y70001D01*
X651658Y70145D01*
X651725Y70301D01*
X651814Y70456D01*
X651914Y70601D01*
X651925Y70612D01*
X651969Y70656D01*
X652036Y70723D01*
X652125Y70812D01*
X652247Y70901D01*
X652392Y70990D01*
X652558Y71090D01*
X652747Y71167D01*
X652758D01*
X652769Y71178D01*
X652803Y71189D01*
X652847Y71201D01*
X652958Y71234D01*
X653114Y71267D01*
X653292Y71301D01*
X653514Y71334D01*
X653747Y71356D01*
X654014Y71367D01*
X654136D01*
X654258Y71356D01*
D02*
G37*
G36*
X606329D02*
X606418Y71345D01*
X606530Y71323D01*
X606652Y71301D01*
X606796Y71267D01*
X606929Y71234D01*
X607085Y71178D01*
X607229Y71123D01*
X607385Y71045D01*
X607541Y70956D01*
X607696Y70856D01*
X607840Y70734D01*
X607974Y70601D01*
X607985Y70590D01*
X608007Y70567D01*
X608041Y70523D01*
X608085Y70456D01*
X608140Y70378D01*
X608196Y70289D01*
X608263Y70178D01*
X608329Y70045D01*
X608396Y69901D01*
X608463Y69745D01*
X608518Y69567D01*
X608574Y69379D01*
X608618Y69167D01*
X608651Y68945D01*
X608674Y68712D01*
X608685Y68456D01*
Y68445D01*
Y68401D01*
Y68323D01*
X608674Y68212D01*
X604507D01*
Y68201D01*
Y68168D01*
X604519Y68123D01*
Y68056D01*
X604530Y67979D01*
X604552Y67890D01*
X604585Y67690D01*
X604652Y67468D01*
X604741Y67223D01*
X604863Y67001D01*
X605019Y66801D01*
X605030D01*
X605041Y66779D01*
X605107Y66723D01*
X605207Y66645D01*
X605341Y66568D01*
X605518Y66479D01*
X605719Y66401D01*
X605941Y66346D01*
X606063Y66334D01*
X606196Y66323D01*
X606285D01*
X606385Y66334D01*
X606507Y66357D01*
X606641Y66390D01*
X606796Y66434D01*
X606941Y66501D01*
X607085Y66590D01*
X607096Y66601D01*
X607152Y66645D01*
X607218Y66712D01*
X607296Y66801D01*
X607385Y66923D01*
X607485Y67079D01*
X607585Y67256D01*
X607674Y67468D01*
X608651Y67345D01*
Y67334D01*
X608640Y67312D01*
X608629Y67268D01*
X608607Y67201D01*
X608574Y67134D01*
X608540Y67045D01*
X608452Y66857D01*
X608340Y66645D01*
X608185Y66423D01*
X608007Y66212D01*
X607785Y66012D01*
X607774D01*
X607752Y65990D01*
X607718Y65968D01*
X607674Y65934D01*
X607607Y65901D01*
X607541Y65868D01*
X607452Y65823D01*
X607352Y65779D01*
X607240Y65734D01*
X607129Y65690D01*
X606852Y65623D01*
X606541Y65568D01*
X606196Y65546D01*
X606074D01*
X605996Y65557D01*
X605896Y65568D01*
X605774Y65590D01*
X605641Y65612D01*
X605496Y65635D01*
X605185Y65723D01*
X605019Y65790D01*
X604863Y65857D01*
X604696Y65946D01*
X604541Y66045D01*
X604396Y66157D01*
X604252Y66290D01*
X604241Y66301D01*
X604219Y66323D01*
X604185Y66368D01*
X604141Y66434D01*
X604085Y66512D01*
X604030Y66601D01*
X603963Y66712D01*
X603896Y66834D01*
X603830Y66979D01*
X603763Y67134D01*
X603708Y67312D01*
X603652Y67501D01*
X603608Y67701D01*
X603574Y67923D01*
X603552Y68156D01*
X603541Y68401D01*
Y68412D01*
Y68467D01*
Y68534D01*
X603552Y68634D01*
X603563Y68756D01*
X603574Y68890D01*
X603596Y69045D01*
X603630Y69201D01*
X603719Y69556D01*
X603774Y69734D01*
X603841Y69923D01*
X603930Y70101D01*
X604030Y70267D01*
X604141Y70434D01*
X604263Y70590D01*
X604274Y70601D01*
X604296Y70623D01*
X604341Y70656D01*
X604396Y70712D01*
X604463Y70767D01*
X604552Y70834D01*
X604652Y70912D01*
X604774Y70978D01*
X604896Y71056D01*
X605041Y71123D01*
X605196Y71189D01*
X605363Y71245D01*
X605541Y71301D01*
X605730Y71334D01*
X605930Y71356D01*
X606141Y71367D01*
X606252D01*
X606329Y71356D01*
D02*
G37*
G36*
X629038Y73478D02*
X629138D01*
X629238Y73467D01*
X629372Y73445D01*
X629505Y73423D01*
X629794Y73367D01*
X630127Y73278D01*
X630449Y73145D01*
X630616Y73067D01*
X630783Y72978D01*
X630794Y72967D01*
X630816Y72956D01*
X630860Y72923D01*
X630927Y72889D01*
X630994Y72834D01*
X631083Y72767D01*
X631272Y72611D01*
X631471Y72412D01*
X631694Y72167D01*
X631905Y71878D01*
X632083Y71556D01*
Y71545D01*
X632105Y71512D01*
X632127Y71467D01*
X632149Y71400D01*
X632194Y71312D01*
X632227Y71212D01*
X632271Y71090D01*
X632316Y70956D01*
X632349Y70812D01*
X632394Y70656D01*
X632438Y70478D01*
X632471Y70301D01*
X632516Y69912D01*
X632538Y69490D01*
Y69478D01*
Y69434D01*
Y69379D01*
X632527Y69290D01*
Y69190D01*
X632516Y69067D01*
X632494Y68934D01*
X632482Y68790D01*
X632427Y68467D01*
X632338Y68112D01*
X632216Y67756D01*
X632149Y67579D01*
X632060Y67401D01*
Y67390D01*
X632038Y67356D01*
X632016Y67312D01*
X631971Y67245D01*
X631927Y67168D01*
X631871Y67090D01*
X631716Y66879D01*
X631527Y66657D01*
X631305Y66423D01*
X631038Y66201D01*
X630727Y66001D01*
X630716D01*
X630694Y65979D01*
X630638Y65957D01*
X630572Y65923D01*
X630494Y65890D01*
X630405Y65857D01*
X630294Y65812D01*
X630172Y65768D01*
X630038Y65723D01*
X629894Y65679D01*
X629572Y65612D01*
X629227Y65557D01*
X628861Y65535D01*
X628750D01*
X628683Y65546D01*
X628583D01*
X628472Y65568D01*
X628349Y65579D01*
X628205Y65601D01*
X627905Y65668D01*
X627583Y65757D01*
X627250Y65890D01*
X627083Y65968D01*
X626916Y66057D01*
X626905Y66068D01*
X626883Y66079D01*
X626839Y66112D01*
X626772Y66157D01*
X626705Y66201D01*
X626627Y66268D01*
X626439Y66434D01*
X626228Y66634D01*
X626005Y66879D01*
X625805Y67156D01*
X625617Y67479D01*
Y67490D01*
X625594Y67523D01*
X625572Y67568D01*
X625550Y67634D01*
X625517Y67723D01*
X625483Y67823D01*
X625439Y67934D01*
X625405Y68056D01*
X625361Y68201D01*
X625316Y68345D01*
X625250Y68679D01*
X625205Y69023D01*
X625183Y69401D01*
Y69412D01*
Y69423D01*
Y69490D01*
X625194Y69590D01*
Y69723D01*
X625216Y69879D01*
X625239Y70067D01*
X625272Y70278D01*
X625316Y70501D01*
X625361Y70734D01*
X625428Y70978D01*
X625517Y71223D01*
X625617Y71478D01*
X625728Y71723D01*
X625872Y71967D01*
X626027Y72189D01*
X626205Y72400D01*
X626216Y72412D01*
X626250Y72445D01*
X626316Y72500D01*
X626394Y72567D01*
X626494Y72656D01*
X626616Y72745D01*
X626761Y72845D01*
X626928Y72945D01*
X627105Y73045D01*
X627305Y73145D01*
X627527Y73234D01*
X627761Y73323D01*
X628016Y73389D01*
X628283Y73445D01*
X628561Y73478D01*
X628861Y73489D01*
X628961D01*
X629038Y73478D01*
D02*
G37*
G36*
X665479Y71356D02*
X665568Y71345D01*
X665679Y71323D01*
X665801Y71301D01*
X665946Y71267D01*
X666079Y71234D01*
X666235Y71178D01*
X666379Y71123D01*
X666535Y71045D01*
X666690Y70956D01*
X666846Y70856D01*
X666990Y70734D01*
X667123Y70601D01*
X667135Y70590D01*
X667157Y70567D01*
X667190Y70523D01*
X667235Y70456D01*
X667290Y70378D01*
X667346Y70289D01*
X667412Y70178D01*
X667479Y70045D01*
X667546Y69901D01*
X667612Y69745D01*
X667668Y69567D01*
X667723Y69379D01*
X667768Y69167D01*
X667801Y68945D01*
X667823Y68712D01*
X667835Y68456D01*
Y68445D01*
Y68401D01*
Y68323D01*
X667823Y68212D01*
X663657D01*
Y68201D01*
Y68168D01*
X663668Y68123D01*
Y68056D01*
X663679Y67979D01*
X663702Y67890D01*
X663735Y67690D01*
X663802Y67468D01*
X663890Y67223D01*
X664013Y67001D01*
X664168Y66801D01*
X664179D01*
X664190Y66779D01*
X664257Y66723D01*
X664357Y66645D01*
X664490Y66568D01*
X664668Y66479D01*
X664868Y66401D01*
X665090Y66346D01*
X665212Y66334D01*
X665346Y66323D01*
X665435D01*
X665535Y66334D01*
X665657Y66357D01*
X665790Y66390D01*
X665946Y66434D01*
X666090Y66501D01*
X666235Y66590D01*
X666246Y66601D01*
X666301Y66645D01*
X666368Y66712D01*
X666446Y66801D01*
X666535Y66923D01*
X666635Y67079D01*
X666735Y67256D01*
X666823Y67468D01*
X667801Y67345D01*
Y67334D01*
X667790Y67312D01*
X667779Y67268D01*
X667757Y67201D01*
X667723Y67134D01*
X667690Y67045D01*
X667601Y66857D01*
X667490Y66645D01*
X667335Y66423D01*
X667157Y66212D01*
X666935Y66012D01*
X666924D01*
X666901Y65990D01*
X666868Y65968D01*
X666823Y65934D01*
X666757Y65901D01*
X666690Y65868D01*
X666601Y65823D01*
X666501Y65779D01*
X666390Y65734D01*
X666279Y65690D01*
X666001Y65623D01*
X665690Y65568D01*
X665346Y65546D01*
X665224D01*
X665146Y65557D01*
X665046Y65568D01*
X664924Y65590D01*
X664790Y65612D01*
X664646Y65635D01*
X664335Y65723D01*
X664168Y65790D01*
X664013Y65857D01*
X663846Y65946D01*
X663690Y66045D01*
X663546Y66157D01*
X663402Y66290D01*
X663390Y66301D01*
X663368Y66323D01*
X663335Y66368D01*
X663291Y66434D01*
X663235Y66512D01*
X663179Y66601D01*
X663113Y66712D01*
X663046Y66834D01*
X662979Y66979D01*
X662913Y67134D01*
X662857Y67312D01*
X662802Y67501D01*
X662757Y67701D01*
X662724Y67923D01*
X662702Y68156D01*
X662690Y68401D01*
Y68412D01*
Y68467D01*
Y68534D01*
X662702Y68634D01*
X662713Y68756D01*
X662724Y68890D01*
X662746Y69045D01*
X662779Y69201D01*
X662868Y69556D01*
X662924Y69734D01*
X662991Y69923D01*
X663079Y70101D01*
X663179Y70267D01*
X663291Y70434D01*
X663413Y70590D01*
X663424Y70601D01*
X663446Y70623D01*
X663490Y70656D01*
X663546Y70712D01*
X663613Y70767D01*
X663702Y70834D01*
X663802Y70912D01*
X663924Y70978D01*
X664046Y71056D01*
X664190Y71123D01*
X664346Y71189D01*
X664513Y71245D01*
X664690Y71301D01*
X664879Y71334D01*
X665079Y71356D01*
X665290Y71367D01*
X665401D01*
X665479Y71356D01*
D02*
G37*
G36*
X612307D02*
X612396Y71345D01*
X612507Y71323D01*
X612629Y71301D01*
X612773Y71267D01*
X612907Y71234D01*
X613062Y71178D01*
X613207Y71123D01*
X613362Y71045D01*
X613518Y70956D01*
X613673Y70856D01*
X613818Y70734D01*
X613951Y70601D01*
X613962Y70590D01*
X613984Y70567D01*
X614018Y70523D01*
X614062Y70456D01*
X614118Y70378D01*
X614173Y70289D01*
X614240Y70178D01*
X614306Y70045D01*
X614373Y69901D01*
X614440Y69745D01*
X614495Y69567D01*
X614551Y69379D01*
X614595Y69167D01*
X614629Y68945D01*
X614651Y68712D01*
X614662Y68456D01*
Y68445D01*
Y68401D01*
Y68323D01*
X614651Y68212D01*
X610485D01*
Y68201D01*
Y68168D01*
X610496Y68123D01*
Y68056D01*
X610507Y67979D01*
X610529Y67890D01*
X610562Y67690D01*
X610629Y67468D01*
X610718Y67223D01*
X610840Y67001D01*
X610996Y66801D01*
X611007D01*
X611018Y66779D01*
X611085Y66723D01*
X611185Y66645D01*
X611318Y66568D01*
X611496Y66479D01*
X611696Y66401D01*
X611918Y66346D01*
X612040Y66334D01*
X612173Y66323D01*
X612262D01*
X612362Y66334D01*
X612485Y66357D01*
X612618Y66390D01*
X612773Y66434D01*
X612918Y66501D01*
X613062Y66590D01*
X613073Y66601D01*
X613129Y66645D01*
X613196Y66712D01*
X613273Y66801D01*
X613362Y66923D01*
X613462Y67079D01*
X613562Y67256D01*
X613651Y67468D01*
X614629Y67345D01*
Y67334D01*
X614618Y67312D01*
X614607Y67268D01*
X614584Y67201D01*
X614551Y67134D01*
X614518Y67045D01*
X614429Y66857D01*
X614318Y66645D01*
X614162Y66423D01*
X613984Y66212D01*
X613762Y66012D01*
X613751D01*
X613729Y65990D01*
X613695Y65968D01*
X613651Y65934D01*
X613584Y65901D01*
X613518Y65868D01*
X613429Y65823D01*
X613329Y65779D01*
X613218Y65734D01*
X613107Y65690D01*
X612829Y65623D01*
X612518Y65568D01*
X612173Y65546D01*
X612051D01*
X611973Y65557D01*
X611873Y65568D01*
X611751Y65590D01*
X611618Y65612D01*
X611473Y65635D01*
X611162Y65723D01*
X610996Y65790D01*
X610840Y65857D01*
X610674Y65946D01*
X610518Y66045D01*
X610374Y66157D01*
X610229Y66290D01*
X610218Y66301D01*
X610196Y66323D01*
X610162Y66368D01*
X610118Y66434D01*
X610063Y66512D01*
X610007Y66601D01*
X609940Y66712D01*
X609874Y66834D01*
X609807Y66979D01*
X609740Y67134D01*
X609685Y67312D01*
X609629Y67501D01*
X609585Y67701D01*
X609551Y67923D01*
X609529Y68156D01*
X609518Y68401D01*
Y68412D01*
Y68467D01*
Y68534D01*
X609529Y68634D01*
X609540Y68756D01*
X609551Y68890D01*
X609574Y69045D01*
X609607Y69201D01*
X609696Y69556D01*
X609751Y69734D01*
X609818Y69923D01*
X609907Y70101D01*
X610007Y70267D01*
X610118Y70434D01*
X610240Y70590D01*
X610251Y70601D01*
X610274Y70623D01*
X610318Y70656D01*
X610374Y70712D01*
X610440Y70767D01*
X610529Y70834D01*
X610629Y70912D01*
X610751Y70978D01*
X610874Y71056D01*
X611018Y71123D01*
X611173Y71189D01*
X611340Y71245D01*
X611518Y71301D01*
X611707Y71334D01*
X611907Y71356D01*
X612118Y71367D01*
X612229D01*
X612307Y71356D01*
D02*
G37*
G36*
X599763Y70234D02*
X603130Y65668D01*
X601786D01*
X599052Y69545D01*
X597797Y68334D01*
Y65668D01*
X596775D01*
Y73356D01*
X597797D01*
Y69534D01*
X601597Y73356D01*
X602985D01*
X599763Y70234D01*
D02*
G37*
G36*
X624339Y67979D02*
X621417D01*
Y68923D01*
X624339D01*
Y67979D01*
D02*
G37*
G36*
X671212Y71356D02*
X671334Y71334D01*
X671479Y71289D01*
X671634Y71234D01*
X671812Y71156D01*
X672001Y71056D01*
X671656Y70189D01*
X671645Y70201D01*
X671601Y70223D01*
X671534Y70256D01*
X671445Y70289D01*
X671345Y70323D01*
X671223Y70356D01*
X671101Y70378D01*
X670979Y70389D01*
X670923D01*
X670867Y70378D01*
X670790Y70367D01*
X670712Y70345D01*
X670612Y70312D01*
X670512Y70267D01*
X670423Y70201D01*
X670412Y70189D01*
X670379Y70167D01*
X670345Y70123D01*
X670290Y70067D01*
X670234Y69990D01*
X670179Y69901D01*
X670123Y69801D01*
X670079Y69678D01*
X670068Y69656D01*
X670056Y69590D01*
X670034Y69490D01*
X670001Y69356D01*
X669968Y69190D01*
X669945Y69001D01*
X669934Y68801D01*
X669923Y68579D01*
Y65668D01*
X668979D01*
Y71245D01*
X669834D01*
Y70401D01*
X669845Y70412D01*
X669890Y70490D01*
X669945Y70590D01*
X670034Y70712D01*
X670123Y70834D01*
X670223Y70967D01*
X670323Y71078D01*
X670423Y71167D01*
X670434Y71178D01*
X670468Y71201D01*
X670534Y71234D01*
X670601Y71267D01*
X670690Y71301D01*
X670801Y71334D01*
X670912Y71356D01*
X671034Y71367D01*
X671112D01*
X671212Y71356D01*
D02*
G37*
G36*
X618462D02*
X618539Y71345D01*
X618706Y71323D01*
X618906Y71278D01*
X619117Y71212D01*
X619328Y71112D01*
X619539Y70990D01*
X619550D01*
X619561Y70967D01*
X619628Y70923D01*
X619728Y70834D01*
X619850Y70723D01*
X619984Y70578D01*
X620117Y70401D01*
X620250Y70189D01*
X620361Y69956D01*
Y69945D01*
X620373Y69923D01*
X620384Y69890D01*
X620406Y69845D01*
X620428Y69779D01*
X620450Y69701D01*
X620506Y69523D01*
X620561Y69301D01*
X620606Y69056D01*
X620639Y68779D01*
X620650Y68490D01*
Y68479D01*
Y68456D01*
Y68412D01*
Y68345D01*
X620639Y68268D01*
Y68179D01*
X620617Y67979D01*
X620573Y67734D01*
X620517Y67479D01*
X620439Y67212D01*
X620339Y66945D01*
Y66934D01*
X620328Y66912D01*
X620306Y66879D01*
X620284Y66834D01*
X620206Y66712D01*
X620106Y66557D01*
X619984Y66390D01*
X619828Y66223D01*
X619650Y66057D01*
X619439Y65901D01*
X619428D01*
X619417Y65890D01*
X619384Y65868D01*
X619339Y65846D01*
X619228Y65790D01*
X619073Y65723D01*
X618884Y65657D01*
X618684Y65601D01*
X618450Y65557D01*
X618217Y65546D01*
X618140D01*
X618051Y65557D01*
X617940Y65568D01*
X617806Y65590D01*
X617662Y65623D01*
X617517Y65668D01*
X617373Y65734D01*
X617362Y65746D01*
X617306Y65768D01*
X617240Y65812D01*
X617151Y65879D01*
X617062Y65946D01*
X616951Y66034D01*
X616851Y66134D01*
X616762Y66246D01*
Y63535D01*
X615817D01*
Y71245D01*
X616673D01*
Y70512D01*
X616684Y70534D01*
X616728Y70578D01*
X616784Y70656D01*
X616873Y70745D01*
X616973Y70856D01*
X617084Y70956D01*
X617217Y71056D01*
X617351Y71145D01*
X617373Y71156D01*
X617417Y71178D01*
X617506Y71212D01*
X617617Y71256D01*
X617751Y71301D01*
X617906Y71334D01*
X618084Y71356D01*
X618284Y71367D01*
X618406D01*
X618462Y71356D01*
D02*
G37*
G36*
X660080Y65579D02*
Y65568D01*
X660069Y65535D01*
X660046Y65490D01*
X660024Y65434D01*
X659991Y65357D01*
X659958Y65268D01*
X659880Y65079D01*
X659802Y64868D01*
X659713Y64657D01*
X659624Y64468D01*
X659580Y64390D01*
X659546Y64312D01*
X659535Y64290D01*
X659502Y64235D01*
X659446Y64157D01*
X659380Y64057D01*
X659291Y63946D01*
X659191Y63835D01*
X659091Y63723D01*
X658969Y63635D01*
X658958Y63623D01*
X658913Y63601D01*
X658847Y63568D01*
X658746Y63524D01*
X658635Y63479D01*
X658502Y63446D01*
X658358Y63424D01*
X658191Y63412D01*
X658147D01*
X658091Y63424D01*
X658013D01*
X657924Y63446D01*
X657824Y63468D01*
X657713Y63490D01*
X657591Y63535D01*
X657491Y64412D01*
X657502D01*
X657547Y64401D01*
X657602Y64390D01*
X657669Y64368D01*
X657847Y64335D01*
X658024Y64324D01*
X658080D01*
X658136Y64335D01*
X658202D01*
X658369Y64368D01*
X658447Y64401D01*
X658524Y64435D01*
X658535D01*
X658558Y64457D01*
X658591Y64479D01*
X658635Y64512D01*
X658735Y64601D01*
X658824Y64723D01*
Y64735D01*
X658847Y64757D01*
X658869Y64801D01*
X658891Y64868D01*
X658935Y64957D01*
X658980Y65090D01*
X659047Y65246D01*
X659113Y65434D01*
Y65446D01*
X659135Y65490D01*
X659158Y65568D01*
X659202Y65668D01*
X657091Y71245D01*
X658091D01*
X659258Y68012D01*
Y68001D01*
X659269Y67990D01*
X659280Y67956D01*
X659291Y67901D01*
X659313Y67845D01*
X659335Y67779D01*
X659391Y67623D01*
X659457Y67434D01*
X659524Y67212D01*
X659591Y66979D01*
X659657Y66723D01*
Y66734D01*
X659669Y66757D01*
X659680Y66790D01*
X659691Y66834D01*
X659702Y66890D01*
X659724Y66957D01*
X659769Y67123D01*
X659824Y67312D01*
X659902Y67534D01*
X659969Y67756D01*
X660057Y67990D01*
X661257Y71245D01*
X662202D01*
X660080Y65579D01*
D02*
G37*
%LPC*%
G36*
X665301Y70590D02*
X665235D01*
X665190Y70578D01*
X665068Y70567D01*
X664924Y70534D01*
X664746Y70478D01*
X664557Y70401D01*
X664379Y70289D01*
X664201Y70145D01*
X664179Y70123D01*
X664135Y70067D01*
X664057Y69967D01*
X663979Y69834D01*
X663890Y69678D01*
X663813Y69478D01*
X663746Y69245D01*
X663713Y68990D01*
X666835D01*
Y69001D01*
Y69023D01*
X666823Y69056D01*
Y69101D01*
X666801Y69234D01*
X666768Y69379D01*
X666712Y69556D01*
X666657Y69723D01*
X666568Y69890D01*
X666468Y70034D01*
Y70045D01*
X666446Y70056D01*
X666390Y70123D01*
X666290Y70212D01*
X666157Y70312D01*
X665990Y70412D01*
X665790Y70501D01*
X665557Y70567D01*
X665435Y70578D01*
X665301Y70590D01*
D02*
G37*
G36*
X612129D02*
X612062D01*
X612018Y70578D01*
X611896Y70567D01*
X611751Y70534D01*
X611573Y70478D01*
X611385Y70401D01*
X611207Y70289D01*
X611029Y70145D01*
X611007Y70123D01*
X610962Y70067D01*
X610885Y69967D01*
X610807Y69834D01*
X610718Y69678D01*
X610640Y69478D01*
X610573Y69245D01*
X610540Y68990D01*
X613662D01*
Y69001D01*
Y69023D01*
X613651Y69056D01*
Y69101D01*
X613629Y69234D01*
X613595Y69379D01*
X613540Y69556D01*
X613484Y69723D01*
X613396Y69890D01*
X613296Y70034D01*
Y70045D01*
X613273Y70056D01*
X613218Y70123D01*
X613118Y70212D01*
X612984Y70312D01*
X612818Y70412D01*
X612618Y70501D01*
X612385Y70567D01*
X612262Y70578D01*
X612129Y70590D01*
D02*
G37*
G36*
X618195Y70623D02*
X618140D01*
X618095Y70612D01*
X617984Y70590D01*
X617839Y70556D01*
X617673Y70490D01*
X617495Y70389D01*
X617395Y70323D01*
X617306Y70245D01*
X617217Y70156D01*
X617128Y70056D01*
Y70045D01*
X617106Y70034D01*
X617084Y70001D01*
X617062Y69956D01*
X617028Y69890D01*
X616984Y69823D01*
X616940Y69734D01*
X616906Y69645D01*
X616862Y69534D01*
X616817Y69412D01*
X616784Y69279D01*
X616740Y69134D01*
X616717Y68967D01*
X616695Y68801D01*
X616673Y68623D01*
Y68423D01*
Y68412D01*
Y68379D01*
Y68323D01*
X616684Y68245D01*
Y68156D01*
X616695Y68056D01*
X616728Y67823D01*
X616784Y67557D01*
X616851Y67301D01*
X616962Y67045D01*
X617028Y66934D01*
X617106Y66834D01*
X617128Y66812D01*
X617184Y66757D01*
X617273Y66668D01*
X617395Y66579D01*
X617551Y66490D01*
X617728Y66401D01*
X617928Y66346D01*
X618040Y66334D01*
X618151Y66323D01*
X618217D01*
X618262Y66334D01*
X618373Y66357D01*
X618528Y66390D01*
X618695Y66457D01*
X618873Y66545D01*
X619051Y66679D01*
X619139Y66757D01*
X619228Y66845D01*
Y66857D01*
X619250Y66868D01*
X619273Y66901D01*
X619295Y66945D01*
X619339Y67001D01*
X619373Y67079D01*
X619417Y67156D01*
X619461Y67256D01*
X619495Y67356D01*
X619539Y67490D01*
X619584Y67623D01*
X619617Y67768D01*
X619639Y67934D01*
X619662Y68112D01*
X619684Y68301D01*
Y68501D01*
Y68512D01*
Y68545D01*
Y68601D01*
X619673Y68679D01*
Y68767D01*
X619662Y68867D01*
X619628Y69101D01*
X619573Y69356D01*
X619495Y69612D01*
X619384Y69867D01*
X619317Y69990D01*
X619239Y70090D01*
Y70101D01*
X619217Y70112D01*
X619162Y70178D01*
X619073Y70256D01*
X618951Y70356D01*
X618795Y70456D01*
X618617Y70545D01*
X618417Y70601D01*
X618306Y70612D01*
X618195Y70623D01*
D02*
G37*
G36*
X628861Y72611D02*
X628761D01*
X628683Y72600D01*
X628583Y72589D01*
X628483Y72567D01*
X628361Y72545D01*
X628227Y72523D01*
X627939Y72434D01*
X627783Y72367D01*
X627627Y72300D01*
X627461Y72212D01*
X627305Y72112D01*
X627150Y72000D01*
X627005Y71867D01*
X626994Y71856D01*
X626972Y71834D01*
X626939Y71789D01*
X626883Y71723D01*
X626827Y71645D01*
X626761Y71545D01*
X626694Y71423D01*
X626616Y71278D01*
X626550Y71123D01*
X626472Y70934D01*
X626405Y70734D01*
X626350Y70512D01*
X626294Y70267D01*
X626261Y69990D01*
X626239Y69701D01*
X626228Y69390D01*
Y69379D01*
Y69334D01*
Y69256D01*
X626239Y69156D01*
X626250Y69045D01*
X626272Y68912D01*
X626294Y68756D01*
X626316Y68601D01*
X626405Y68245D01*
X626472Y68068D01*
X626539Y67879D01*
X626627Y67701D01*
X626727Y67523D01*
X626839Y67356D01*
X626972Y67201D01*
X626983Y67190D01*
X627005Y67168D01*
X627050Y67123D01*
X627105Y67079D01*
X627183Y67012D01*
X627272Y66945D01*
X627372Y66879D01*
X627483Y66801D01*
X627616Y66723D01*
X627761Y66657D01*
X627916Y66590D01*
X628083Y66523D01*
X628261Y66479D01*
X628438Y66434D01*
X628638Y66412D01*
X628850Y66401D01*
X628905D01*
X628961Y66412D01*
X629038D01*
X629138Y66423D01*
X629249Y66445D01*
X629383Y66468D01*
X629516Y66501D01*
X629672Y66545D01*
X629816Y66601D01*
X629983Y66657D01*
X630138Y66734D01*
X630294Y66834D01*
X630449Y66934D01*
X630605Y67057D01*
X630749Y67201D01*
X630760Y67212D01*
X630783Y67234D01*
X630816Y67290D01*
X630871Y67356D01*
X630927Y67434D01*
X630983Y67534D01*
X631049Y67656D01*
X631127Y67790D01*
X631194Y67945D01*
X631260Y68123D01*
X631316Y68312D01*
X631383Y68512D01*
X631427Y68734D01*
X631460Y68979D01*
X631483Y69234D01*
X631494Y69501D01*
Y69512D01*
Y69545D01*
Y69590D01*
Y69656D01*
X631483Y69734D01*
Y69834D01*
X631471Y69934D01*
X631449Y70056D01*
X631416Y70312D01*
X631360Y70578D01*
X631283Y70867D01*
X631172Y71134D01*
Y71145D01*
X631160Y71167D01*
X631138Y71201D01*
X631116Y71245D01*
X631038Y71378D01*
X630938Y71534D01*
X630805Y71712D01*
X630638Y71889D01*
X630449Y72067D01*
X630238Y72223D01*
X630227D01*
X630216Y72245D01*
X630183Y72256D01*
X630127Y72289D01*
X630072Y72312D01*
X630005Y72345D01*
X629838Y72423D01*
X629638Y72489D01*
X629405Y72556D01*
X629138Y72600D01*
X628861Y72611D01*
D02*
G37*
G36*
X606152Y70590D02*
X606085D01*
X606041Y70578D01*
X605919Y70567D01*
X605774Y70534D01*
X605596Y70478D01*
X605407Y70401D01*
X605230Y70289D01*
X605052Y70145D01*
X605030Y70123D01*
X604985Y70067D01*
X604907Y69967D01*
X604830Y69834D01*
X604741Y69678D01*
X604663Y69478D01*
X604596Y69245D01*
X604563Y68990D01*
X607685D01*
Y69001D01*
Y69023D01*
X607674Y69056D01*
Y69101D01*
X607652Y69234D01*
X607618Y69379D01*
X607563Y69556D01*
X607507Y69723D01*
X607418Y69890D01*
X607318Y70034D01*
Y70045D01*
X607296Y70056D01*
X607240Y70123D01*
X607140Y70212D01*
X607007Y70312D01*
X606841Y70412D01*
X606641Y70501D01*
X606407Y70567D01*
X606285Y70578D01*
X606152Y70590D01*
D02*
G37*
G36*
X655225Y68467D02*
X655213D01*
X655202Y68456D01*
X655169Y68445D01*
X655125Y68434D01*
X655069Y68412D01*
X655002Y68390D01*
X654925Y68367D01*
X654836Y68345D01*
X654736Y68312D01*
X654614Y68290D01*
X654491Y68256D01*
X654347Y68223D01*
X654191Y68190D01*
X654036Y68156D01*
X653858Y68134D01*
X653669Y68101D01*
X653647D01*
X653580Y68090D01*
X653469Y68068D01*
X653347Y68045D01*
X653214Y68023D01*
X653080Y67990D01*
X652958Y67956D01*
X652847Y67912D01*
X652836D01*
X652803Y67890D01*
X652758Y67868D01*
X652714Y67834D01*
X652580Y67745D01*
X652469Y67612D01*
Y67601D01*
X652447Y67579D01*
X652436Y67534D01*
X652414Y67479D01*
X652392Y67412D01*
X652369Y67345D01*
X652358Y67256D01*
X652347Y67168D01*
Y67156D01*
Y67101D01*
X652358Y67034D01*
X652381Y66945D01*
X652414Y66845D01*
X652469Y66746D01*
X652536Y66634D01*
X652625Y66534D01*
X652636Y66523D01*
X652680Y66501D01*
X652747Y66457D01*
X652836Y66412D01*
X652958Y66368D01*
X653103Y66323D01*
X653269Y66301D01*
X653469Y66290D01*
X653558D01*
X653669Y66301D01*
X653791Y66323D01*
X653947Y66346D01*
X654103Y66390D01*
X654269Y66445D01*
X654436Y66523D01*
X654458Y66534D01*
X654502Y66568D01*
X654580Y66623D01*
X654669Y66701D01*
X654769Y66790D01*
X654880Y66901D01*
X654969Y67034D01*
X655058Y67179D01*
X655069Y67190D01*
X655080Y67234D01*
X655102Y67312D01*
X655136Y67412D01*
X655169Y67545D01*
X655191Y67701D01*
X655202Y67890D01*
X655213Y68112D01*
X655225Y68467D01*
D02*
G37*
%LPD*%
D122*
X232283Y64055D02*
G03*
X237283Y59055I5000J0D01*
G01*
X236890Y98032D02*
G03*
X232283Y93425I0J-4606D01*
G01*
X22659Y9871D02*
G03*
X9863Y22666I-12795J0D01*
G01*
Y341564D02*
G03*
X32501Y364202I0J22638D01*
G01*
X223446D02*
G03*
X236241Y351407I12795J0D01*
G01*
Y22666D02*
G03*
X223446Y9871I0J-12795D01*
G01*
X232283Y66929D02*
Y93425D01*
Y64055D02*
Y66929D01*
X237283Y59055D02*
X238210D01*
X236890Y98032D02*
X238210D01*
X70298Y-4304D02*
X152185D01*
Y-35009D02*
Y-4304D01*
X70298Y-35009D02*
X152185D01*
X70298D02*
Y-4304D01*
X22659Y28D02*
Y9871D01*
X9863Y22666D02*
Y22666D01*
X21D02*
X9863D01*
X21D02*
Y341564D01*
X9863D01*
Y341564D02*
Y341564D01*
X32501Y364202D02*
X32501Y364202D01*
X32501Y364202D02*
Y374832D01*
X223446D01*
Y364202D02*
Y374832D01*
X236241Y351407D02*
Y351407D01*
Y351407D02*
X238210D01*
X236241Y22666D02*
Y22666D01*
X223446Y28D02*
Y9871D01*
X236241Y22666D02*
X238210D01*
Y98032D02*
Y351407D01*
Y22666D02*
Y59055D01*
D128*
X36144Y337327D02*
G03*
X36144Y337327I-7000J0D01*
G01*
X232273Y29943D02*
G03*
X232273Y29943I-7000J0D01*
G01*
M02*
