%FSLAX25Y25*%
%MOIN*%
G70*
G01*
G75*
G04 Layer_Color=16711935*
%ADD10R,0.05906X0.05118*%
%ADD11R,0.03000X0.13386*%
%ADD12C,0.01200*%
%ADD13C,0.02500*%
%ADD14C,0.05000*%
%ADD15C,0.17716*%
%ADD16C,0.08661*%
%ADD17C,0.05906*%
%ADD18C,0.10000*%
%ADD19C,0.07874*%
%ADD20C,0.07000*%
%ADD21R,0.07000X0.07000*%
%ADD22C,0.07874*%
%ADD23R,0.05906X0.05906*%
%ADD24R,0.07000X0.07000*%
%ADD25C,0.04724*%
%ADD26C,0.06000*%
%ADD27C,0.03150*%
%ADD28C,0.03937*%
%ADD29R,0.03937X0.11811*%
%ADD30R,0.02756X0.03937*%
%ADD31R,0.03600X0.03600*%
%ADD32R,0.05000X0.03600*%
%ADD33R,0.02362X0.03543*%
%ADD34R,0.03543X0.02362*%
%ADD35R,0.03937X0.04331*%
%ADD36R,0.09843X0.07087*%
%ADD37R,0.07087X0.09843*%
%ADD38R,0.06299X0.13780*%
%ADD39R,0.13780X0.06299*%
%ADD40R,0.03937X0.02362*%
%ADD41O,0.08858X0.01575*%
%ADD42R,0.06890X0.04921*%
%ADD43O,0.02165X0.06890*%
%ADD44O,0.06890X0.02165*%
%ADD45R,0.07087X0.03937*%
%ADD46R,0.04331X0.03937*%
%ADD47R,0.07874X0.03150*%
%ADD48R,0.03600X0.05000*%
%ADD49R,0.03600X0.03600*%
%ADD50R,0.02559X0.04331*%
%ADD51R,0.05315X0.01575*%
%ADD52R,0.06299X0.08268*%
%ADD53R,0.07480X0.07480*%
%ADD54R,0.21654X0.08465*%
%ADD55R,0.05000X0.02500*%
%ADD56R,0.10000X0.10512*%
%ADD57C,0.02000*%
%ADD58C,0.10000*%
%ADD59R,0.46850X0.13386*%
%ADD60R,0.24410X0.18504*%
%ADD61R,0.34646X0.04724*%
%ADD62R,0.25591X0.18110*%
%ADD63R,0.20079X0.05512*%
%ADD64R,0.10236X0.26378*%
%ADD65R,0.27559X0.20472*%
%ADD66R,0.27165X0.35433*%
%ADD67R,0.08661X0.04331*%
%ADD68R,0.09449X0.02362*%
%ADD69R,0.05118X0.07087*%
%ADD70R,0.03937X0.05118*%
%ADD71R,0.03937X0.03150*%
%ADD72R,0.07874X0.15748*%
%ADD73C,0.00965*%
%ADD74C,0.01000*%
%ADD75C,0.00500*%
%ADD76C,0.00700*%
%ADD77R,0.06706X0.05918*%
%ADD78R,0.03800X0.14186*%
%ADD79C,0.18517*%
%ADD80C,0.09461*%
%ADD81C,0.06706*%
%ADD82C,0.10800*%
%ADD83C,0.13874*%
%ADD84C,0.07800*%
%ADD85R,0.07800X0.07800*%
%ADD86C,0.08674*%
%ADD87R,0.06706X0.06706*%
%ADD88R,0.07800X0.07800*%
%ADD89C,0.05524*%
G04:AMPARAMS|DCode=90|XSize=8mil|YSize=8mil|CornerRadius=0mil|HoleSize=0mil|Usage=FLASHONLY|Rotation=90.000|XOffset=0mil|YOffset=0mil|HoleType=Round|Shape=RoundedRectangle|*
%AMROUNDEDRECTD90*
21,1,0.00800,0.00800,0,0,90.0*
21,1,0.00800,0.00800,0,0,90.0*
1,1,0.00000,0.00400,0.00400*
1,1,0.00000,0.00400,-0.00400*
1,1,0.00000,-0.00400,-0.00400*
1,1,0.00000,-0.00400,0.00400*
%
%ADD90ROUNDEDRECTD90*%
%ADD91C,0.06800*%
%ADD92R,0.04737X0.12611*%
%ADD93R,0.03556X0.04737*%
%ADD94R,0.04400X0.04400*%
%ADD95R,0.05800X0.04400*%
%ADD96R,0.03162X0.04343*%
%ADD97R,0.04343X0.03162*%
%ADD98R,0.04737X0.05131*%
%ADD99R,0.10642X0.07887*%
%ADD100R,0.07887X0.10642*%
%ADD101R,0.07099X0.14579*%
%ADD102R,0.14579X0.07099*%
%ADD103R,0.04737X0.03162*%
%ADD104O,0.09658X0.02375*%
%ADD105R,0.07690X0.05721*%
%ADD106O,0.02965X0.07690*%
%ADD107O,0.07690X0.02965*%
%ADD108R,0.07887X0.04737*%
%ADD109R,0.05131X0.04737*%
%ADD110R,0.08674X0.03950*%
%ADD111R,0.04400X0.05800*%
%ADD112R,0.04400X0.04400*%
%ADD113R,0.03359X0.05131*%
%ADD114R,0.06115X0.02375*%
%ADD115R,0.07099X0.09068*%
%ADD116R,0.08280X0.08280*%
%ADD117R,0.22453X0.09265*%
%ADD118R,0.05800X0.03300*%
%ADD119R,0.10800X0.11312*%
%ADD120R,0.08674X0.16548*%
%ADD121C,0.01500*%
%ADD122C,0.00787*%
%ADD123C,0.01575*%
%ADD124C,0.00984*%
%ADD125C,0.02362*%
%ADD126C,0.00492*%
%ADD127C,0.00200*%
%ADD128C,0.00394*%
%ADD129C,0.01181*%
%ADD130C,0.00800*%
%ADD131R,0.09449X0.03543*%
G36*
X468359Y65668D02*
X467415D01*
Y71678D01*
X467404Y71667D01*
X467348Y71623D01*
X467281Y71556D01*
X467170Y71478D01*
X467048Y71378D01*
X466893Y71267D01*
X466715Y71145D01*
X466515Y71023D01*
X466504D01*
X466493Y71012D01*
X466426Y70967D01*
X466315Y70912D01*
X466182Y70845D01*
X466026Y70767D01*
X465859Y70689D01*
X465693Y70612D01*
X465526Y70545D01*
Y71456D01*
X465537D01*
X465559Y71478D01*
X465604Y71489D01*
X465659Y71523D01*
X465726Y71556D01*
X465804Y71601D01*
X465993Y71712D01*
X466215Y71834D01*
X466437Y71989D01*
X466670Y72167D01*
X466904Y72356D01*
X466915Y72367D01*
X466926Y72378D01*
X466959Y72412D01*
X467004Y72445D01*
X467104Y72556D01*
X467237Y72689D01*
X467370Y72845D01*
X467515Y73023D01*
X467637Y73200D01*
X467748Y73389D01*
X468359D01*
Y65668D01*
D02*
G37*
G36*
X436596Y71356D02*
X436762Y71345D01*
X436951Y71323D01*
X437140Y71289D01*
X437329Y71245D01*
X437507Y71189D01*
X437529Y71178D01*
X437584Y71156D01*
X437662Y71123D01*
X437762Y71078D01*
X437873Y71012D01*
X437984Y70945D01*
X438084Y70856D01*
X438173Y70767D01*
X438184Y70756D01*
X438207Y70723D01*
X438240Y70667D01*
X438284Y70601D01*
X438340Y70501D01*
X438384Y70401D01*
X438429Y70278D01*
X438462Y70134D01*
Y70123D01*
X438473Y70090D01*
X438484Y70023D01*
X438495Y69934D01*
Y69812D01*
X438507Y69667D01*
X438518Y69478D01*
Y69267D01*
Y68001D01*
Y67990D01*
Y67945D01*
Y67879D01*
Y67790D01*
Y67690D01*
Y67568D01*
X438529Y67301D01*
Y67023D01*
X438540Y66746D01*
X438551Y66623D01*
Y66512D01*
X438562Y66412D01*
X438573Y66334D01*
Y66323D01*
X438584Y66279D01*
X438595Y66212D01*
X438629Y66123D01*
X438651Y66023D01*
X438695Y65912D01*
X438751Y65790D01*
X438806Y65668D01*
X437818D01*
X437807Y65679D01*
X437795Y65723D01*
X437773Y65779D01*
X437740Y65868D01*
X437707Y65968D01*
X437684Y66090D01*
X437662Y66223D01*
X437640Y66368D01*
X437629D01*
X437618Y66346D01*
X437551Y66290D01*
X437451Y66212D01*
X437318Y66112D01*
X437151Y66012D01*
X436984Y65901D01*
X436807Y65801D01*
X436618Y65723D01*
X436596Y65712D01*
X436529Y65701D01*
X436429Y65668D01*
X436307Y65635D01*
X436151Y65601D01*
X435974Y65579D01*
X435774Y65557D01*
X435573Y65546D01*
X435485D01*
X435418Y65557D01*
X435340D01*
X435251Y65568D01*
X435051Y65601D01*
X434829Y65657D01*
X434585Y65734D01*
X434363Y65846D01*
X434163Y65990D01*
X434140Y66012D01*
X434085Y66068D01*
X434007Y66168D01*
X433918Y66301D01*
X433829Y66468D01*
X433751Y66657D01*
X433696Y66890D01*
X433685Y67001D01*
X433674Y67134D01*
Y67156D01*
Y67201D01*
X433685Y67279D01*
X433696Y67379D01*
X433718Y67501D01*
X433751Y67623D01*
X433796Y67756D01*
X433851Y67879D01*
X433863Y67890D01*
X433885Y67934D01*
X433929Y68001D01*
X433985Y68079D01*
X434052Y68168D01*
X434140Y68256D01*
X434229Y68345D01*
X434340Y68423D01*
X434351Y68434D01*
X434396Y68456D01*
X434451Y68501D01*
X434540Y68545D01*
X434640Y68590D01*
X434762Y68645D01*
X434885Y68690D01*
X435029Y68734D01*
X435040D01*
X435085Y68745D01*
X435151Y68767D01*
X435240Y68779D01*
X435351Y68801D01*
X435496Y68823D01*
X435662Y68856D01*
X435862Y68879D01*
X435874D01*
X435918Y68890D01*
X435974D01*
X436051Y68901D01*
X436140Y68912D01*
X436251Y68934D01*
X436374Y68945D01*
X436507Y68967D01*
X436773Y69023D01*
X437062Y69078D01*
X437318Y69145D01*
X437440Y69178D01*
X437551Y69212D01*
Y69223D01*
Y69245D01*
X437562Y69312D01*
Y69390D01*
Y69434D01*
Y69456D01*
Y69467D01*
Y69478D01*
Y69545D01*
X437551Y69656D01*
X437529Y69779D01*
X437496Y69912D01*
X437440Y70045D01*
X437373Y70167D01*
X437285Y70267D01*
X437273Y70278D01*
X437218Y70323D01*
X437129Y70367D01*
X437018Y70434D01*
X436862Y70490D01*
X436685Y70545D01*
X436462Y70578D01*
X436207Y70590D01*
X436096D01*
X435985Y70578D01*
X435829Y70556D01*
X435674Y70534D01*
X435507Y70490D01*
X435351Y70434D01*
X435218Y70356D01*
X435207Y70345D01*
X435162Y70312D01*
X435107Y70256D01*
X435040Y70167D01*
X434974Y70056D01*
X434896Y69912D01*
X434829Y69734D01*
X434762Y69534D01*
X433840Y69656D01*
Y69667D01*
X433851Y69678D01*
Y69712D01*
X433863Y69756D01*
X433896Y69856D01*
X433940Y70001D01*
X433996Y70145D01*
X434063Y70301D01*
X434152Y70456D01*
X434251Y70601D01*
X434263Y70612D01*
X434307Y70656D01*
X434374Y70723D01*
X434462Y70812D01*
X434585Y70901D01*
X434729Y70990D01*
X434896Y71090D01*
X435085Y71167D01*
X435096D01*
X435107Y71178D01*
X435140Y71189D01*
X435185Y71201D01*
X435296Y71234D01*
X435451Y71267D01*
X435629Y71301D01*
X435851Y71334D01*
X436085Y71356D01*
X436351Y71367D01*
X436473D01*
X436596Y71356D01*
D02*
G37*
G36*
X428963Y70601D02*
X428974Y70612D01*
X428996Y70634D01*
X429030Y70667D01*
X429085Y70723D01*
X429141Y70778D01*
X429219Y70845D01*
X429319Y70912D01*
X429419Y70990D01*
X429530Y71056D01*
X429652Y71123D01*
X429941Y71245D01*
X430096Y71301D01*
X430263Y71334D01*
X430441Y71356D01*
X430618Y71367D01*
X430719D01*
X430841Y71356D01*
X430985Y71334D01*
X431152Y71312D01*
X431329Y71267D01*
X431507Y71201D01*
X431685Y71123D01*
X431707Y71112D01*
X431763Y71078D01*
X431841Y71023D01*
X431941Y70945D01*
X432041Y70845D01*
X432152Y70734D01*
X432252Y70601D01*
X432340Y70445D01*
X432352Y70423D01*
X432374Y70367D01*
X432407Y70267D01*
X432441Y70123D01*
X432474Y69945D01*
X432507Y69734D01*
X432529Y69478D01*
X432541Y69190D01*
Y65668D01*
X431596D01*
Y69201D01*
Y69212D01*
Y69234D01*
Y69267D01*
Y69312D01*
X431585Y69434D01*
X431563Y69590D01*
X431518Y69756D01*
X431463Y69923D01*
X431385Y70090D01*
X431285Y70223D01*
X431274Y70234D01*
X431229Y70278D01*
X431163Y70334D01*
X431063Y70389D01*
X430941Y70456D01*
X430796Y70501D01*
X430618Y70545D01*
X430418Y70556D01*
X430352D01*
X430274Y70545D01*
X430163Y70534D01*
X430052Y70501D01*
X429918Y70467D01*
X429785Y70412D01*
X429641Y70334D01*
X429630Y70323D01*
X429585Y70289D01*
X429519Y70245D01*
X429441Y70178D01*
X429352Y70090D01*
X429263Y69990D01*
X429185Y69867D01*
X429119Y69734D01*
X429108Y69712D01*
X429096Y69667D01*
X429074Y69578D01*
X429041Y69467D01*
X429007Y69323D01*
X428985Y69145D01*
X428974Y68945D01*
X428963Y68712D01*
Y65668D01*
X428019D01*
Y73356D01*
X428963D01*
Y70601D01*
D02*
G37*
G36*
X446895Y65668D02*
X445950D01*
Y71245D01*
X446895D01*
Y65668D01*
D02*
G37*
G36*
X456316Y71356D02*
X456483Y71345D01*
X456671Y71323D01*
X456860Y71289D01*
X457049Y71245D01*
X457227Y71189D01*
X457249Y71178D01*
X457305Y71156D01*
X457382Y71123D01*
X457482Y71078D01*
X457594Y71012D01*
X457705Y70945D01*
X457805Y70856D01*
X457894Y70767D01*
X457905Y70756D01*
X457927Y70723D01*
X457960Y70667D01*
X458005Y70601D01*
X458060Y70501D01*
X458105Y70401D01*
X458149Y70278D01*
X458182Y70134D01*
Y70123D01*
X458193Y70090D01*
X458205Y70023D01*
X458216Y69934D01*
Y69812D01*
X458227Y69667D01*
X458238Y69478D01*
Y69267D01*
Y68001D01*
Y67990D01*
Y67945D01*
Y67879D01*
Y67790D01*
Y67690D01*
Y67568D01*
X458249Y67301D01*
Y67023D01*
X458260Y66746D01*
X458271Y66623D01*
Y66512D01*
X458282Y66412D01*
X458293Y66334D01*
Y66323D01*
X458305Y66279D01*
X458316Y66212D01*
X458349Y66123D01*
X458371Y66023D01*
X458416Y65912D01*
X458471Y65790D01*
X458527Y65668D01*
X457538D01*
X457527Y65679D01*
X457516Y65723D01*
X457494Y65779D01*
X457460Y65868D01*
X457427Y65968D01*
X457405Y66090D01*
X457382Y66223D01*
X457360Y66368D01*
X457349D01*
X457338Y66346D01*
X457271Y66290D01*
X457171Y66212D01*
X457038Y66112D01*
X456871Y66012D01*
X456705Y65901D01*
X456527Y65801D01*
X456338Y65723D01*
X456316Y65712D01*
X456249Y65701D01*
X456149Y65668D01*
X456027Y65635D01*
X455871Y65601D01*
X455694Y65579D01*
X455494Y65557D01*
X455294Y65546D01*
X455205D01*
X455138Y65557D01*
X455060D01*
X454972Y65568D01*
X454772Y65601D01*
X454549Y65657D01*
X454305Y65734D01*
X454083Y65846D01*
X453883Y65990D01*
X453861Y66012D01*
X453805Y66068D01*
X453727Y66168D01*
X453638Y66301D01*
X453549Y66468D01*
X453472Y66657D01*
X453416Y66890D01*
X453405Y67001D01*
X453394Y67134D01*
Y67156D01*
Y67201D01*
X453405Y67279D01*
X453416Y67379D01*
X453438Y67501D01*
X453472Y67623D01*
X453516Y67756D01*
X453572Y67879D01*
X453583Y67890D01*
X453605Y67934D01*
X453650Y68001D01*
X453705Y68079D01*
X453772Y68168D01*
X453861Y68256D01*
X453949Y68345D01*
X454061Y68423D01*
X454072Y68434D01*
X454116Y68456D01*
X454172Y68501D01*
X454261Y68545D01*
X454360Y68590D01*
X454483Y68645D01*
X454605Y68690D01*
X454749Y68734D01*
X454761D01*
X454805Y68745D01*
X454872Y68767D01*
X454960Y68779D01*
X455072Y68801D01*
X455216Y68823D01*
X455383Y68856D01*
X455583Y68879D01*
X455594D01*
X455638Y68890D01*
X455694D01*
X455771Y68901D01*
X455860Y68912D01*
X455971Y68934D01*
X456094Y68945D01*
X456227Y68967D01*
X456494Y69023D01*
X456782Y69078D01*
X457038Y69145D01*
X457160Y69178D01*
X457271Y69212D01*
Y69223D01*
Y69245D01*
X457282Y69312D01*
Y69390D01*
Y69434D01*
Y69456D01*
Y69467D01*
Y69478D01*
Y69545D01*
X457271Y69656D01*
X457249Y69779D01*
X457216Y69912D01*
X457160Y70045D01*
X457094Y70167D01*
X457005Y70267D01*
X456994Y70278D01*
X456938Y70323D01*
X456849Y70367D01*
X456738Y70434D01*
X456582Y70490D01*
X456405Y70545D01*
X456183Y70578D01*
X455927Y70590D01*
X455816D01*
X455705Y70578D01*
X455549Y70556D01*
X455394Y70534D01*
X455227Y70490D01*
X455072Y70434D01*
X454938Y70356D01*
X454927Y70345D01*
X454883Y70312D01*
X454827Y70256D01*
X454761Y70167D01*
X454694Y70056D01*
X454616Y69912D01*
X454549Y69734D01*
X454483Y69534D01*
X453561Y69656D01*
Y69667D01*
X453572Y69678D01*
Y69712D01*
X453583Y69756D01*
X453616Y69856D01*
X453661Y70001D01*
X453716Y70145D01*
X453783Y70301D01*
X453872Y70456D01*
X453972Y70601D01*
X453983Y70612D01*
X454027Y70656D01*
X454094Y70723D01*
X454183Y70812D01*
X454305Y70901D01*
X454449Y70990D01*
X454616Y71090D01*
X454805Y71167D01*
X454816D01*
X454827Y71178D01*
X454860Y71189D01*
X454905Y71201D01*
X455016Y71234D01*
X455172Y71267D01*
X455349Y71301D01*
X455572Y71334D01*
X455805Y71356D01*
X456072Y71367D01*
X456194D01*
X456316Y71356D01*
D02*
G37*
G36*
X460615Y65668D02*
X459671D01*
Y73356D01*
X460615D01*
Y65668D01*
D02*
G37*
G36*
X450750Y71356D02*
X450816D01*
X450905Y71345D01*
X451116Y71312D01*
X451350Y71256D01*
X451594Y71167D01*
X451839Y71056D01*
X452072Y70901D01*
X452083D01*
X452094Y70878D01*
X452161Y70812D01*
X452261Y70712D01*
X452383Y70567D01*
X452505Y70389D01*
X452627Y70167D01*
X452739Y69912D01*
X452816Y69612D01*
X451894Y69467D01*
Y69478D01*
X451883Y69490D01*
X451872Y69556D01*
X451839Y69656D01*
X451783Y69779D01*
X451727Y69912D01*
X451639Y70056D01*
X451539Y70189D01*
X451428Y70301D01*
X451416Y70312D01*
X451372Y70345D01*
X451294Y70389D01*
X451205Y70445D01*
X451083Y70501D01*
X450950Y70545D01*
X450794Y70578D01*
X450628Y70590D01*
X450561D01*
X450505Y70578D01*
X450383Y70567D01*
X450216Y70523D01*
X450039Y70467D01*
X449839Y70378D01*
X449650Y70245D01*
X449561Y70167D01*
X449472Y70078D01*
Y70067D01*
X449450Y70056D01*
X449428Y70023D01*
X449405Y69978D01*
X449372Y69923D01*
X449328Y69856D01*
X449294Y69779D01*
X449250Y69690D01*
X449205Y69578D01*
X449172Y69456D01*
X449128Y69323D01*
X449094Y69178D01*
X449072Y69023D01*
X449050Y68845D01*
X449028Y68656D01*
Y68456D01*
Y68445D01*
Y68412D01*
Y68345D01*
X449039Y68279D01*
Y68179D01*
X449050Y68079D01*
X449083Y67834D01*
X449128Y67568D01*
X449205Y67290D01*
X449305Y67045D01*
X449372Y66923D01*
X449450Y66823D01*
X449472Y66801D01*
X449528Y66746D01*
X449628Y66668D01*
X449750Y66579D01*
X449917Y66479D01*
X450105Y66401D01*
X450328Y66346D01*
X450450Y66334D01*
X450572Y66323D01*
X450594D01*
X450661Y66334D01*
X450772Y66346D01*
X450894Y66368D01*
X451039Y66401D01*
X451194Y66468D01*
X451350Y66545D01*
X451494Y66657D01*
X451516Y66668D01*
X451550Y66723D01*
X451616Y66801D01*
X451694Y66923D01*
X451772Y67068D01*
X451861Y67245D01*
X451928Y67468D01*
X451972Y67712D01*
X452905Y67590D01*
Y67579D01*
X452894Y67545D01*
X452883Y67501D01*
X452872Y67434D01*
X452850Y67345D01*
X452827Y67256D01*
X452750Y67034D01*
X452650Y66801D01*
X452505Y66545D01*
X452327Y66301D01*
X452227Y66190D01*
X452116Y66079D01*
X452105Y66068D01*
X452083Y66057D01*
X452050Y66034D01*
X452005Y66001D01*
X451950Y65957D01*
X451872Y65912D01*
X451783Y65868D01*
X451694Y65812D01*
X451472Y65712D01*
X451205Y65635D01*
X450916Y65568D01*
X450750Y65557D01*
X450583Y65546D01*
X450472D01*
X450394Y65557D01*
X450294Y65568D01*
X450183Y65590D01*
X450061Y65612D01*
X449928Y65635D01*
X449628Y65723D01*
X449483Y65790D01*
X449328Y65857D01*
X449172Y65946D01*
X449028Y66045D01*
X448883Y66157D01*
X448750Y66290D01*
X448739Y66301D01*
X448717Y66323D01*
X448683Y66368D01*
X448639Y66423D01*
X448595Y66501D01*
X448528Y66601D01*
X448472Y66712D01*
X448406Y66834D01*
X448339Y66979D01*
X448283Y67145D01*
X448217Y67312D01*
X448172Y67512D01*
X448128Y67712D01*
X448095Y67945D01*
X448072Y68179D01*
X448061Y68434D01*
Y68445D01*
Y68479D01*
Y68523D01*
Y68590D01*
X448072Y68668D01*
Y68756D01*
X448083Y68856D01*
X448095Y68967D01*
X448128Y69212D01*
X448183Y69478D01*
X448250Y69745D01*
X448350Y70012D01*
Y70023D01*
X448361Y70045D01*
X448383Y70078D01*
X448406Y70123D01*
X448472Y70245D01*
X448572Y70389D01*
X448706Y70556D01*
X448861Y70723D01*
X449050Y70890D01*
X449261Y71023D01*
X449272D01*
X449294Y71034D01*
X449328Y71056D01*
X449372Y71078D01*
X449428Y71101D01*
X449494Y71134D01*
X449661Y71201D01*
X449850Y71256D01*
X450083Y71312D01*
X450328Y71356D01*
X450594Y71367D01*
X450683D01*
X450750Y71356D01*
D02*
G37*
G36*
X442762D02*
X442884Y71345D01*
X443028Y71323D01*
X443184Y71289D01*
X443351Y71245D01*
X443506Y71178D01*
X443528Y71167D01*
X443573Y71145D01*
X443650Y71112D01*
X443739Y71056D01*
X443851Y70990D01*
X443951Y70901D01*
X444051Y70812D01*
X444139Y70701D01*
X444150Y70689D01*
X444173Y70645D01*
X444206Y70590D01*
X444262Y70512D01*
X444306Y70401D01*
X444350Y70289D01*
X444406Y70156D01*
X444439Y70012D01*
Y70001D01*
X444450Y69956D01*
X444461Y69890D01*
X444473Y69801D01*
Y69667D01*
X444484Y69512D01*
X444495Y69323D01*
Y69090D01*
Y65668D01*
X443550D01*
Y69045D01*
Y69056D01*
Y69067D01*
Y69145D01*
Y69245D01*
X443539Y69367D01*
X443528Y69512D01*
X443506Y69656D01*
X443473Y69790D01*
X443439Y69912D01*
Y69923D01*
X443417Y69956D01*
X443384Y70012D01*
X443351Y70078D01*
X443295Y70145D01*
X443228Y70223D01*
X443140Y70301D01*
X443040Y70367D01*
X443028Y70378D01*
X442995Y70401D01*
X442928Y70423D01*
X442851Y70456D01*
X442762Y70490D01*
X442651Y70523D01*
X442517Y70534D01*
X442384Y70545D01*
X442328D01*
X442284Y70534D01*
X442173Y70523D01*
X442028Y70501D01*
X441873Y70445D01*
X441695Y70378D01*
X441517Y70289D01*
X441351Y70156D01*
X441328Y70134D01*
X441284Y70078D01*
X441251Y70034D01*
X441217Y69978D01*
X441173Y69912D01*
X441140Y69834D01*
X441095Y69745D01*
X441051Y69634D01*
X441017Y69512D01*
X440984Y69379D01*
X440962Y69234D01*
X440940Y69078D01*
X440917Y68890D01*
Y68701D01*
Y65668D01*
X439973D01*
Y71245D01*
X440817D01*
Y70445D01*
X440829Y70456D01*
X440851Y70490D01*
X440884Y70534D01*
X440929Y70590D01*
X440995Y70656D01*
X441073Y70734D01*
X441162Y70823D01*
X441273Y70912D01*
X441384Y70990D01*
X441517Y71078D01*
X441662Y71156D01*
X441817Y71223D01*
X441995Y71278D01*
X442173Y71323D01*
X442373Y71356D01*
X442584Y71367D01*
X442673D01*
X442762Y71356D01*
D02*
G37*
G36*
X446895Y72278D02*
X445950D01*
Y73356D01*
X446895D01*
Y72278D01*
D02*
G37*
G36*
X415131Y65668D02*
X414153D01*
Y72101D01*
X411909Y65668D01*
X410998D01*
X408776Y72212D01*
Y65668D01*
X407798D01*
Y73356D01*
X409321D01*
X411143Y67901D01*
Y67890D01*
X411154Y67868D01*
X411165Y67834D01*
X411187Y67779D01*
X411232Y67645D01*
X411287Y67479D01*
X411343Y67290D01*
X411409Y67101D01*
X411465Y66923D01*
X411509Y66768D01*
X411520Y66790D01*
X411531Y66845D01*
X411565Y66945D01*
X411609Y67079D01*
X411665Y67256D01*
X411743Y67468D01*
X411820Y67712D01*
X411920Y68001D01*
X413765Y73356D01*
X415131D01*
Y65668D01*
D02*
G37*
G36*
X419131Y71356D02*
X419220Y71345D01*
X419331Y71323D01*
X419453Y71301D01*
X419597Y71267D01*
X419731Y71234D01*
X419886Y71178D01*
X420031Y71123D01*
X420186Y71045D01*
X420342Y70956D01*
X420497Y70856D01*
X420642Y70734D01*
X420775Y70601D01*
X420786Y70590D01*
X420808Y70567D01*
X420842Y70523D01*
X420886Y70456D01*
X420942Y70378D01*
X420997Y70289D01*
X421064Y70178D01*
X421131Y70045D01*
X421197Y69901D01*
X421264Y69745D01*
X421319Y69567D01*
X421375Y69379D01*
X421419Y69167D01*
X421453Y68945D01*
X421475Y68712D01*
X421486Y68456D01*
Y68445D01*
Y68401D01*
Y68323D01*
X421475Y68212D01*
X417309D01*
Y68201D01*
Y68168D01*
X417320Y68123D01*
Y68056D01*
X417331Y67979D01*
X417353Y67890D01*
X417386Y67690D01*
X417453Y67468D01*
X417542Y67223D01*
X417664Y67001D01*
X417820Y66801D01*
X417831D01*
X417842Y66779D01*
X417909Y66723D01*
X418009Y66645D01*
X418142Y66568D01*
X418320Y66479D01*
X418520Y66401D01*
X418742Y66346D01*
X418864Y66334D01*
X418997Y66323D01*
X419086D01*
X419186Y66334D01*
X419309Y66357D01*
X419442Y66390D01*
X419597Y66434D01*
X419742Y66501D01*
X419886Y66590D01*
X419897Y66601D01*
X419953Y66645D01*
X420019Y66712D01*
X420097Y66801D01*
X420186Y66923D01*
X420286Y67079D01*
X420386Y67256D01*
X420475Y67468D01*
X421453Y67345D01*
Y67334D01*
X421442Y67312D01*
X421430Y67268D01*
X421408Y67201D01*
X421375Y67134D01*
X421342Y67045D01*
X421253Y66857D01*
X421142Y66645D01*
X420986Y66423D01*
X420808Y66212D01*
X420586Y66012D01*
X420575D01*
X420553Y65990D01*
X420519Y65968D01*
X420475Y65934D01*
X420408Y65901D01*
X420342Y65868D01*
X420253Y65823D01*
X420153Y65779D01*
X420042Y65734D01*
X419931Y65690D01*
X419653Y65623D01*
X419342Y65568D01*
X418997Y65546D01*
X418875D01*
X418797Y65557D01*
X418698Y65568D01*
X418575Y65590D01*
X418442Y65612D01*
X418297Y65635D01*
X417986Y65723D01*
X417820Y65790D01*
X417664Y65857D01*
X417498Y65946D01*
X417342Y66045D01*
X417198Y66157D01*
X417053Y66290D01*
X417042Y66301D01*
X417020Y66323D01*
X416987Y66368D01*
X416942Y66434D01*
X416887Y66512D01*
X416831Y66601D01*
X416764Y66712D01*
X416698Y66834D01*
X416631Y66979D01*
X416564Y67134D01*
X416509Y67312D01*
X416453Y67501D01*
X416409Y67701D01*
X416375Y67923D01*
X416353Y68156D01*
X416342Y68401D01*
Y68412D01*
Y68467D01*
Y68534D01*
X416353Y68634D01*
X416364Y68756D01*
X416375Y68890D01*
X416398Y69045D01*
X416431Y69201D01*
X416520Y69556D01*
X416575Y69734D01*
X416642Y69923D01*
X416731Y70101D01*
X416831Y70267D01*
X416942Y70434D01*
X417064Y70590D01*
X417075Y70601D01*
X417098Y70623D01*
X417142Y70656D01*
X417198Y70712D01*
X417264Y70767D01*
X417353Y70834D01*
X417453Y70912D01*
X417575Y70978D01*
X417697Y71056D01*
X417842Y71123D01*
X417998Y71189D01*
X418164Y71245D01*
X418342Y71301D01*
X418531Y71334D01*
X418731Y71356D01*
X418942Y71367D01*
X419053D01*
X419131Y71356D01*
D02*
G37*
G36*
X425052D02*
X425119D01*
X425208Y71345D01*
X425419Y71312D01*
X425652Y71256D01*
X425897Y71167D01*
X426141Y71056D01*
X426374Y70901D01*
X426386D01*
X426397Y70878D01*
X426463Y70812D01*
X426563Y70712D01*
X426685Y70567D01*
X426808Y70389D01*
X426930Y70167D01*
X427041Y69912D01*
X427119Y69612D01*
X426197Y69467D01*
Y69478D01*
X426186Y69490D01*
X426174Y69556D01*
X426141Y69656D01*
X426086Y69779D01*
X426030Y69912D01*
X425941Y70056D01*
X425841Y70189D01*
X425730Y70301D01*
X425719Y70312D01*
X425674Y70345D01*
X425597Y70389D01*
X425508Y70445D01*
X425386Y70501D01*
X425252Y70545D01*
X425097Y70578D01*
X424930Y70590D01*
X424863D01*
X424808Y70578D01*
X424686Y70567D01*
X424519Y70523D01*
X424341Y70467D01*
X424141Y70378D01*
X423952Y70245D01*
X423864Y70167D01*
X423775Y70078D01*
Y70067D01*
X423752Y70056D01*
X423730Y70023D01*
X423708Y69978D01*
X423675Y69923D01*
X423630Y69856D01*
X423597Y69779D01*
X423553Y69690D01*
X423508Y69578D01*
X423475Y69456D01*
X423430Y69323D01*
X423397Y69178D01*
X423375Y69023D01*
X423352Y68845D01*
X423330Y68656D01*
Y68456D01*
Y68445D01*
Y68412D01*
Y68345D01*
X423341Y68279D01*
Y68179D01*
X423352Y68079D01*
X423386Y67834D01*
X423430Y67568D01*
X423508Y67290D01*
X423608Y67045D01*
X423675Y66923D01*
X423752Y66823D01*
X423775Y66801D01*
X423830Y66746D01*
X423930Y66668D01*
X424052Y66579D01*
X424219Y66479D01*
X424408Y66401D01*
X424630Y66346D01*
X424752Y66334D01*
X424875Y66323D01*
X424897D01*
X424964Y66334D01*
X425075Y66346D01*
X425197Y66368D01*
X425341Y66401D01*
X425497Y66468D01*
X425652Y66545D01*
X425797Y66657D01*
X425819Y66668D01*
X425852Y66723D01*
X425919Y66801D01*
X425997Y66923D01*
X426075Y67068D01*
X426163Y67245D01*
X426230Y67468D01*
X426274Y67712D01*
X427208Y67590D01*
Y67579D01*
X427197Y67545D01*
X427185Y67501D01*
X427174Y67434D01*
X427152Y67345D01*
X427130Y67256D01*
X427052Y67034D01*
X426952Y66801D01*
X426808Y66545D01*
X426630Y66301D01*
X426530Y66190D01*
X426419Y66079D01*
X426408Y66068D01*
X426386Y66057D01*
X426352Y66034D01*
X426308Y66001D01*
X426252Y65957D01*
X426174Y65912D01*
X426086Y65868D01*
X425997Y65812D01*
X425774Y65712D01*
X425508Y65635D01*
X425219Y65568D01*
X425052Y65557D01*
X424886Y65546D01*
X424775D01*
X424697Y65557D01*
X424597Y65568D01*
X424486Y65590D01*
X424364Y65612D01*
X424230Y65635D01*
X423930Y65723D01*
X423786Y65790D01*
X423630Y65857D01*
X423475Y65946D01*
X423330Y66045D01*
X423186Y66157D01*
X423053Y66290D01*
X423041Y66301D01*
X423019Y66323D01*
X422986Y66368D01*
X422941Y66423D01*
X422897Y66501D01*
X422830Y66601D01*
X422775Y66712D01*
X422708Y66834D01*
X422642Y66979D01*
X422586Y67145D01*
X422519Y67312D01*
X422475Y67512D01*
X422430Y67712D01*
X422397Y67945D01*
X422375Y68179D01*
X422364Y68434D01*
Y68445D01*
Y68479D01*
Y68523D01*
Y68590D01*
X422375Y68668D01*
Y68756D01*
X422386Y68856D01*
X422397Y68967D01*
X422430Y69212D01*
X422486Y69478D01*
X422553Y69745D01*
X422653Y70012D01*
Y70023D01*
X422664Y70045D01*
X422686Y70078D01*
X422708Y70123D01*
X422775Y70245D01*
X422875Y70389D01*
X423008Y70556D01*
X423164Y70723D01*
X423352Y70890D01*
X423564Y71023D01*
X423575D01*
X423597Y71034D01*
X423630Y71056D01*
X423675Y71078D01*
X423730Y71101D01*
X423797Y71134D01*
X423964Y71201D01*
X424153Y71256D01*
X424386Y71312D01*
X424630Y71356D01*
X424897Y71367D01*
X424986D01*
X425052Y71356D01*
D02*
G37*
%LPC*%
G36*
X418953Y70590D02*
X418886D01*
X418842Y70578D01*
X418720Y70567D01*
X418575Y70534D01*
X418398Y70478D01*
X418209Y70401D01*
X418031Y70289D01*
X417853Y70145D01*
X417831Y70123D01*
X417786Y70067D01*
X417709Y69967D01*
X417631Y69834D01*
X417542Y69678D01*
X417464Y69478D01*
X417398Y69245D01*
X417364Y68990D01*
X420486D01*
Y69001D01*
Y69023D01*
X420475Y69056D01*
Y69101D01*
X420453Y69234D01*
X420420Y69379D01*
X420364Y69556D01*
X420308Y69723D01*
X420220Y69890D01*
X420119Y70034D01*
Y70045D01*
X420097Y70056D01*
X420042Y70123D01*
X419942Y70212D01*
X419808Y70312D01*
X419642Y70412D01*
X419442Y70501D01*
X419208Y70567D01*
X419086Y70578D01*
X418953Y70590D01*
D02*
G37*
G36*
X457282Y68467D02*
X457271D01*
X457260Y68456D01*
X457227Y68445D01*
X457183Y68434D01*
X457127Y68412D01*
X457060Y68390D01*
X456983Y68367D01*
X456894Y68345D01*
X456794Y68312D01*
X456671Y68290D01*
X456549Y68256D01*
X456405Y68223D01*
X456249Y68190D01*
X456094Y68156D01*
X455916Y68134D01*
X455727Y68101D01*
X455705D01*
X455638Y68090D01*
X455527Y68068D01*
X455405Y68045D01*
X455272Y68023D01*
X455138Y67990D01*
X455016Y67956D01*
X454905Y67912D01*
X454894D01*
X454860Y67890D01*
X454816Y67868D01*
X454772Y67834D01*
X454638Y67745D01*
X454527Y67612D01*
Y67601D01*
X454505Y67579D01*
X454494Y67534D01*
X454472Y67479D01*
X454449Y67412D01*
X454427Y67345D01*
X454416Y67256D01*
X454405Y67168D01*
Y67156D01*
Y67101D01*
X454416Y67034D01*
X454438Y66945D01*
X454472Y66845D01*
X454527Y66746D01*
X454594Y66634D01*
X454683Y66534D01*
X454694Y66523D01*
X454738Y66501D01*
X454805Y66457D01*
X454894Y66412D01*
X455016Y66368D01*
X455161Y66323D01*
X455327Y66301D01*
X455527Y66290D01*
X455616D01*
X455727Y66301D01*
X455849Y66323D01*
X456005Y66346D01*
X456160Y66390D01*
X456327Y66445D01*
X456494Y66523D01*
X456516Y66534D01*
X456560Y66568D01*
X456638Y66623D01*
X456727Y66701D01*
X456827Y66790D01*
X456938Y66901D01*
X457027Y67034D01*
X457116Y67179D01*
X457127Y67190D01*
X457138Y67234D01*
X457160Y67312D01*
X457194Y67412D01*
X457227Y67545D01*
X457249Y67701D01*
X457260Y67890D01*
X457271Y68112D01*
X457282Y68467D01*
D02*
G37*
G36*
X437562D02*
X437551D01*
X437540Y68456D01*
X437507Y68445D01*
X437462Y68434D01*
X437407Y68412D01*
X437340Y68390D01*
X437262Y68367D01*
X437173Y68345D01*
X437073Y68312D01*
X436951Y68290D01*
X436829Y68256D01*
X436685Y68223D01*
X436529Y68190D01*
X436374Y68156D01*
X436196Y68134D01*
X436007Y68101D01*
X435985D01*
X435918Y68090D01*
X435807Y68068D01*
X435685Y68045D01*
X435551Y68023D01*
X435418Y67990D01*
X435296Y67956D01*
X435185Y67912D01*
X435174D01*
X435140Y67890D01*
X435096Y67868D01*
X435051Y67834D01*
X434918Y67745D01*
X434807Y67612D01*
Y67601D01*
X434785Y67579D01*
X434774Y67534D01*
X434751Y67479D01*
X434729Y67412D01*
X434707Y67345D01*
X434696Y67256D01*
X434685Y67168D01*
Y67156D01*
Y67101D01*
X434696Y67034D01*
X434718Y66945D01*
X434751Y66845D01*
X434807Y66746D01*
X434874Y66634D01*
X434963Y66534D01*
X434974Y66523D01*
X435018Y66501D01*
X435085Y66457D01*
X435174Y66412D01*
X435296Y66368D01*
X435440Y66323D01*
X435607Y66301D01*
X435807Y66290D01*
X435896D01*
X436007Y66301D01*
X436129Y66323D01*
X436285Y66346D01*
X436440Y66390D01*
X436607Y66445D01*
X436773Y66523D01*
X436796Y66534D01*
X436840Y66568D01*
X436918Y66623D01*
X437007Y66701D01*
X437107Y66790D01*
X437218Y66901D01*
X437307Y67034D01*
X437396Y67179D01*
X437407Y67190D01*
X437418Y67234D01*
X437440Y67312D01*
X437473Y67412D01*
X437507Y67545D01*
X437529Y67701D01*
X437540Y67890D01*
X437551Y68112D01*
X437562Y68467D01*
D02*
G37*
%LPD*%
D122*
X236241Y22666D02*
G03*
X223446Y9871I0J-12795D01*
G01*
X22659D02*
G03*
X9863Y22666I-12795J0D01*
G01*
Y341564D02*
G03*
X32501Y364202I0J22638D01*
G01*
X223446D02*
G03*
X236241Y351407I12795J0D01*
G01*
X236890Y98032D02*
G03*
X232283Y93425I0J-4606D01*
G01*
Y64055D02*
G03*
X237283Y59055I5000J0D01*
G01*
X140551Y28D02*
X223446D01*
X22659D02*
X136614D01*
X22659Y28D02*
Y28D01*
X140551Y-3909D02*
Y28D01*
Y-3909D02*
X150000D01*
Y-35405D02*
Y-3909D01*
X71260Y-35405D02*
X150000D01*
X71260D02*
Y-3909D01*
X73840D01*
X136614D01*
Y28D01*
X223446D02*
Y9871D01*
X22659Y28D02*
Y9871D01*
X21Y22666D02*
X9863D01*
X21D02*
Y341564D01*
X9863D01*
X32501Y364202D02*
Y374832D01*
X223446D01*
Y364202D02*
Y374832D01*
X236241Y351407D02*
X238210D01*
X236890Y98032D02*
X238210D01*
X237283Y59055D02*
X238210D01*
X232283Y64055D02*
Y66929D01*
Y93425D01*
X236241Y22666D02*
X238210D01*
Y59055D01*
Y98032D02*
Y351407D01*
M02*
