%FSLAX25Y25*%
%MOIN*%
G70*
G01*
G75*
G04 Layer_Color=8421504*
%ADD10R,0.02362X0.03543*%
%ADD11R,0.03543X0.02362*%
%ADD12R,0.03937X0.04331*%
%ADD13R,0.06299X0.13780*%
%ADD14R,0.05000X0.03600*%
%ADD15R,0.03600X0.03600*%
%ADD16R,0.06693X0.01750*%
%ADD17R,0.08661X0.05118*%
%ADD18R,0.06299X0.07874*%
%ADD19O,0.04921X0.01772*%
%ADD20R,0.06102X0.01378*%
%ADD21C,0.01000*%
%ADD22C,0.00800*%
%ADD23C,0.02500*%
%ADD24C,0.02000*%
%ADD25C,0.08000*%
%ADD26C,0.07000*%
%ADD27C,0.10000*%
%ADD28R,0.07000X0.07000*%
%ADD29C,0.04724*%
%ADD30C,0.05906*%
%ADD31R,0.07000X0.07000*%
%ADD32C,0.08661*%
%ADD33C,0.07874*%
G04:AMPARAMS|DCode=34|XSize=118.11mil|YSize=39.37mil|CornerRadius=19.69mil|HoleSize=0mil|Usage=FLASHONLY|Rotation=0.000|XOffset=0mil|YOffset=0mil|HoleType=Round|Shape=RoundedRectangle|*
%AMROUNDEDRECTD34*
21,1,0.11811,0.00000,0,0,0.0*
21,1,0.07874,0.03937,0,0,0.0*
1,1,0.03937,0.03937,0.00000*
1,1,0.03937,-0.03937,0.00000*
1,1,0.03937,-0.03937,0.00000*
1,1,0.03937,0.03937,0.00000*
%
%ADD34ROUNDEDRECTD34*%
%ADD35O,0.15748X0.03937*%
G04:AMPARAMS|DCode=36|XSize=118.11mil|YSize=39.37mil|CornerRadius=19.69mil|HoleSize=0mil|Usage=FLASHONLY|Rotation=90.000|XOffset=0mil|YOffset=0mil|HoleType=Round|Shape=RoundedRectangle|*
%AMROUNDEDRECTD36*
21,1,0.11811,0.00000,0,0,90.0*
21,1,0.07874,0.03937,0,0,90.0*
1,1,0.03937,0.00000,0.03937*
1,1,0.03937,0.00000,-0.03937*
1,1,0.03937,0.00000,-0.03937*
1,1,0.03937,0.00000,0.03937*
%
%ADD36ROUNDEDRECTD36*%
%ADD37C,0.05512*%
%ADD38C,0.17716*%
%ADD39C,0.07874*%
%ADD40C,0.03937*%
%ADD41C,0.03150*%
%ADD42R,0.05118X0.05906*%
%ADD43R,0.05315X0.02953*%
%ADD44C,0.01200*%
%ADD45C,0.00787*%
%ADD46C,0.01500*%
%ADD47C,0.00394*%
%ADD48C,0.00700*%
%ADD49C,0.00591*%
G36*
X461587Y29987D02*
X459054D01*
Y23210D01*
X458032D01*
Y29987D01*
X455499D01*
Y30898D01*
X461587D01*
Y29987D01*
D02*
G37*
G36*
X497084Y28787D02*
X498039D01*
Y28054D01*
X497084D01*
Y24777D01*
Y24755D01*
Y24710D01*
Y24643D01*
X497095Y24566D01*
X497106Y24388D01*
X497117Y24310D01*
X497128Y24255D01*
X497140Y24232D01*
X497173Y24188D01*
X497217Y24132D01*
X497295Y24077D01*
X497317Y24066D01*
X497373Y24044D01*
X497473Y24021D01*
X497617Y24010D01*
X497728D01*
X497784Y24021D01*
X497862D01*
X497951Y24032D01*
X498039Y24044D01*
X498162Y23210D01*
X498139D01*
X498095Y23199D01*
X498017Y23188D01*
X497917Y23177D01*
X497806Y23155D01*
X497684Y23144D01*
X497439Y23133D01*
X497351D01*
X497262Y23144D01*
X497151Y23155D01*
X497017Y23166D01*
X496884Y23199D01*
X496762Y23233D01*
X496639Y23288D01*
X496628Y23299D01*
X496595Y23321D01*
X496551Y23355D01*
X496484Y23410D01*
X496428Y23466D01*
X496362Y23543D01*
X496295Y23621D01*
X496251Y23721D01*
Y23732D01*
X496229Y23777D01*
X496217Y23855D01*
X496195Y23966D01*
X496173Y24110D01*
X496162Y24199D01*
Y24299D01*
X496151Y24421D01*
X496140Y24543D01*
Y24677D01*
Y24832D01*
Y28054D01*
X495440D01*
Y28787D01*
X496140D01*
Y30165D01*
X497084Y30732D01*
Y28787D01*
D02*
G37*
G36*
X487229Y28899D02*
X487396Y28887D01*
X487585Y28865D01*
X487774Y28832D01*
X487963Y28787D01*
X488140Y28732D01*
X488163Y28721D01*
X488218Y28699D01*
X488296Y28665D01*
X488396Y28621D01*
X488507Y28554D01*
X488618Y28488D01*
X488718Y28399D01*
X488807Y28310D01*
X488818Y28299D01*
X488840Y28265D01*
X488874Y28210D01*
X488918Y28143D01*
X488974Y28043D01*
X489018Y27943D01*
X489062Y27821D01*
X489096Y27676D01*
Y27665D01*
X489107Y27632D01*
X489118Y27565D01*
X489129Y27477D01*
Y27354D01*
X489140Y27210D01*
X489151Y27021D01*
Y26810D01*
Y25543D01*
Y25532D01*
Y25488D01*
Y25421D01*
Y25332D01*
Y25232D01*
Y25110D01*
X489162Y24843D01*
Y24566D01*
X489174Y24288D01*
X489185Y24166D01*
Y24055D01*
X489196Y23955D01*
X489207Y23877D01*
Y23866D01*
X489218Y23821D01*
X489229Y23755D01*
X489262Y23666D01*
X489285Y23566D01*
X489329Y23455D01*
X489385Y23332D01*
X489440Y23210D01*
X488451D01*
X488440Y23221D01*
X488429Y23266D01*
X488407Y23321D01*
X488374Y23410D01*
X488340Y23510D01*
X488318Y23632D01*
X488296Y23766D01*
X488274Y23910D01*
X488263D01*
X488251Y23888D01*
X488185Y23832D01*
X488085Y23755D01*
X487952Y23655D01*
X487785Y23555D01*
X487618Y23444D01*
X487440Y23344D01*
X487252Y23266D01*
X487229Y23255D01*
X487163Y23244D01*
X487063Y23210D01*
X486940Y23177D01*
X486785Y23144D01*
X486607Y23121D01*
X486407Y23099D01*
X486207Y23088D01*
X486118D01*
X486052Y23099D01*
X485974D01*
X485885Y23110D01*
X485685Y23144D01*
X485463Y23199D01*
X485218Y23277D01*
X484996Y23388D01*
X484796Y23532D01*
X484774Y23555D01*
X484719Y23610D01*
X484641Y23710D01*
X484552Y23844D01*
X484463Y24010D01*
X484385Y24199D01*
X484330Y24432D01*
X484318Y24543D01*
X484307Y24677D01*
Y24699D01*
Y24743D01*
X484318Y24821D01*
X484330Y24921D01*
X484352Y25043D01*
X484385Y25166D01*
X484430Y25299D01*
X484485Y25421D01*
X484496Y25432D01*
X484518Y25477D01*
X484563Y25543D01*
X484619Y25621D01*
X484685Y25710D01*
X484774Y25799D01*
X484863Y25888D01*
X484974Y25965D01*
X484985Y25977D01*
X485030Y25999D01*
X485085Y26043D01*
X485174Y26088D01*
X485274Y26132D01*
X485396Y26188D01*
X485518Y26232D01*
X485663Y26277D01*
X485674D01*
X485718Y26288D01*
X485785Y26310D01*
X485874Y26321D01*
X485985Y26343D01*
X486130Y26366D01*
X486296Y26399D01*
X486496Y26421D01*
X486507D01*
X486552Y26432D01*
X486607D01*
X486685Y26443D01*
X486774Y26454D01*
X486885Y26477D01*
X487007Y26488D01*
X487141Y26510D01*
X487407Y26565D01*
X487696Y26621D01*
X487952Y26688D01*
X488074Y26721D01*
X488185Y26754D01*
Y26765D01*
Y26788D01*
X488196Y26854D01*
Y26932D01*
Y26976D01*
Y26999D01*
Y27010D01*
Y27021D01*
Y27088D01*
X488185Y27199D01*
X488163Y27321D01*
X488129Y27454D01*
X488074Y27588D01*
X488007Y27710D01*
X487918Y27810D01*
X487907Y27821D01*
X487851Y27865D01*
X487763Y27910D01*
X487652Y27976D01*
X487496Y28032D01*
X487318Y28087D01*
X487096Y28121D01*
X486840Y28132D01*
X486729D01*
X486618Y28121D01*
X486463Y28099D01*
X486307Y28076D01*
X486141Y28032D01*
X485985Y27976D01*
X485852Y27899D01*
X485841Y27887D01*
X485796Y27854D01*
X485741Y27799D01*
X485674Y27710D01*
X485607Y27599D01*
X485530Y27454D01*
X485463Y27277D01*
X485396Y27077D01*
X484474Y27199D01*
Y27210D01*
X484485Y27221D01*
Y27254D01*
X484496Y27299D01*
X484530Y27399D01*
X484574Y27543D01*
X484630Y27688D01*
X484696Y27843D01*
X484785Y27999D01*
X484885Y28143D01*
X484896Y28154D01*
X484941Y28199D01*
X485007Y28265D01*
X485096Y28354D01*
X485218Y28443D01*
X485363Y28532D01*
X485530Y28632D01*
X485718Y28710D01*
X485730D01*
X485741Y28721D01*
X485774Y28732D01*
X485818Y28743D01*
X485929Y28776D01*
X486085Y28810D01*
X486263Y28843D01*
X486485Y28876D01*
X486718Y28899D01*
X486985Y28910D01*
X487107D01*
X487229Y28899D01*
D02*
G37*
G36*
X480908Y30887D02*
X481097Y30876D01*
X481297Y30865D01*
X481486Y30843D01*
X481652Y30821D01*
X481674D01*
X481752Y30798D01*
X481852Y30776D01*
X481986Y30743D01*
X482130Y30687D01*
X482285Y30621D01*
X482452Y30543D01*
X482596Y30454D01*
X482619Y30443D01*
X482663Y30410D01*
X482730Y30343D01*
X482819Y30265D01*
X482919Y30165D01*
X483019Y30032D01*
X483130Y29887D01*
X483219Y29721D01*
X483230Y29699D01*
X483252Y29643D01*
X483296Y29543D01*
X483341Y29410D01*
X483374Y29254D01*
X483419Y29076D01*
X483441Y28876D01*
X483452Y28665D01*
Y28654D01*
Y28621D01*
Y28576D01*
X483441Y28499D01*
X483430Y28421D01*
X483419Y28321D01*
X483396Y28210D01*
X483374Y28087D01*
X483296Y27832D01*
X483252Y27699D01*
X483185Y27554D01*
X483108Y27410D01*
X483030Y27277D01*
X482930Y27143D01*
X482819Y27010D01*
X482808Y26999D01*
X482785Y26976D01*
X482752Y26943D01*
X482696Y26910D01*
X482630Y26854D01*
X482541Y26799D01*
X482430Y26732D01*
X482308Y26676D01*
X482163Y26610D01*
X481997Y26543D01*
X481819Y26488D01*
X481608Y26443D01*
X481386Y26399D01*
X481141Y26366D01*
X480863Y26343D01*
X480575Y26332D01*
X478608D01*
Y23210D01*
X477586D01*
Y30898D01*
X480741D01*
X480908Y30887D01*
D02*
G37*
G36*
X464965Y28899D02*
X465065Y28887D01*
X465176Y28865D01*
X465298Y28843D01*
X465443Y28821D01*
X465743Y28721D01*
X465898Y28665D01*
X466054Y28587D01*
X466209Y28510D01*
X466365Y28399D01*
X466509Y28288D01*
X466654Y28154D01*
X466665Y28143D01*
X466687Y28121D01*
X466720Y28076D01*
X466765Y28021D01*
X466820Y27943D01*
X466887Y27843D01*
X466954Y27732D01*
X467020Y27610D01*
X467087Y27477D01*
X467154Y27310D01*
X467220Y27143D01*
X467276Y26954D01*
X467320Y26754D01*
X467354Y26543D01*
X467376Y26321D01*
X467387Y26077D01*
Y26065D01*
Y26032D01*
Y25977D01*
Y25899D01*
X467376Y25810D01*
X467365Y25699D01*
Y25588D01*
X467343Y25466D01*
X467309Y25188D01*
X467242Y24910D01*
X467165Y24632D01*
X467054Y24377D01*
Y24366D01*
X467042Y24355D01*
X467020Y24321D01*
X466998Y24277D01*
X466920Y24166D01*
X466820Y24032D01*
X466687Y23877D01*
X466520Y23721D01*
X466331Y23566D01*
X466109Y23421D01*
X466098D01*
X466087Y23410D01*
X466054Y23388D01*
X465998Y23366D01*
X465943Y23344D01*
X465876Y23321D01*
X465709Y23255D01*
X465520Y23199D01*
X465287Y23144D01*
X465043Y23099D01*
X464776Y23088D01*
X464665D01*
X464576Y23099D01*
X464476Y23110D01*
X464365Y23133D01*
X464232Y23155D01*
X464098Y23177D01*
X463798Y23266D01*
X463632Y23332D01*
X463476Y23399D01*
X463321Y23488D01*
X463165Y23588D01*
X463021Y23699D01*
X462876Y23832D01*
X462865Y23844D01*
X462843Y23866D01*
X462810Y23910D01*
X462765Y23977D01*
X462710Y24055D01*
X462654Y24144D01*
X462587Y24255D01*
X462521Y24388D01*
X462454Y24532D01*
X462387Y24699D01*
X462332Y24877D01*
X462276Y25066D01*
X462232Y25277D01*
X462198Y25499D01*
X462176Y25743D01*
X462165Y25999D01*
Y26021D01*
Y26065D01*
X462176Y26143D01*
Y26254D01*
X462187Y26377D01*
X462210Y26532D01*
X462232Y26688D01*
X462276Y26865D01*
X462321Y27043D01*
X462376Y27232D01*
X462443Y27432D01*
X462532Y27621D01*
X462621Y27799D01*
X462743Y27976D01*
X462865Y28143D01*
X463021Y28288D01*
X463032Y28299D01*
X463054Y28310D01*
X463098Y28343D01*
X463154Y28387D01*
X463221Y28432D01*
X463309Y28488D01*
X463398Y28543D01*
X463510Y28599D01*
X463632Y28654D01*
X463765Y28710D01*
X464065Y28810D01*
X464409Y28887D01*
X464587Y28899D01*
X464776Y28910D01*
X464887D01*
X464965Y28899D01*
D02*
G37*
G36*
X471142D02*
X471220Y28887D01*
X471386Y28865D01*
X471587Y28821D01*
X471798Y28754D01*
X472009Y28654D01*
X472220Y28532D01*
X472231D01*
X472242Y28510D01*
X472309Y28465D01*
X472409Y28376D01*
X472531Y28265D01*
X472664Y28121D01*
X472797Y27943D01*
X472931Y27732D01*
X473042Y27499D01*
Y27488D01*
X473053Y27465D01*
X473064Y27432D01*
X473086Y27388D01*
X473109Y27321D01*
X473131Y27243D01*
X473186Y27065D01*
X473242Y26843D01*
X473286Y26599D01*
X473320Y26321D01*
X473331Y26032D01*
Y26021D01*
Y25999D01*
Y25954D01*
Y25888D01*
X473320Y25810D01*
Y25721D01*
X473297Y25521D01*
X473253Y25277D01*
X473197Y25021D01*
X473120Y24755D01*
X473020Y24488D01*
Y24477D01*
X473009Y24455D01*
X472986Y24421D01*
X472964Y24377D01*
X472886Y24255D01*
X472786Y24099D01*
X472664Y23932D01*
X472509Y23766D01*
X472331Y23599D01*
X472120Y23444D01*
X472109D01*
X472097Y23432D01*
X472064Y23410D01*
X472020Y23388D01*
X471909Y23332D01*
X471753Y23266D01*
X471564Y23199D01*
X471364Y23144D01*
X471131Y23099D01*
X470898Y23088D01*
X470820D01*
X470731Y23099D01*
X470620Y23110D01*
X470487Y23133D01*
X470342Y23166D01*
X470198Y23210D01*
X470053Y23277D01*
X470042Y23288D01*
X469987Y23310D01*
X469920Y23355D01*
X469831Y23421D01*
X469742Y23488D01*
X469631Y23577D01*
X469531Y23677D01*
X469442Y23788D01*
Y21077D01*
X468498D01*
Y28787D01*
X469353D01*
Y28054D01*
X469365Y28076D01*
X469409Y28121D01*
X469464Y28199D01*
X469553Y28288D01*
X469653Y28399D01*
X469765Y28499D01*
X469898Y28599D01*
X470031Y28688D01*
X470053Y28699D01*
X470098Y28721D01*
X470187Y28754D01*
X470298Y28799D01*
X470431Y28843D01*
X470587Y28876D01*
X470764Y28899D01*
X470964Y28910D01*
X471087D01*
X471142Y28899D01*
D02*
G37*
G36*
X501439D02*
X501528Y28887D01*
X501639Y28865D01*
X501761Y28843D01*
X501906Y28810D01*
X502039Y28776D01*
X502194Y28721D01*
X502339Y28665D01*
X502494Y28587D01*
X502650Y28499D01*
X502806Y28399D01*
X502950Y28276D01*
X503083Y28143D01*
X503094Y28132D01*
X503117Y28110D01*
X503150Y28065D01*
X503194Y27999D01*
X503250Y27921D01*
X503305Y27832D01*
X503372Y27721D01*
X503439Y27588D01*
X503506Y27443D01*
X503572Y27288D01*
X503628Y27110D01*
X503683Y26921D01*
X503728Y26710D01*
X503761Y26488D01*
X503783Y26254D01*
X503794Y25999D01*
Y25988D01*
Y25943D01*
Y25866D01*
X503783Y25754D01*
X499617D01*
Y25743D01*
Y25710D01*
X499628Y25666D01*
Y25599D01*
X499639Y25521D01*
X499661Y25432D01*
X499695Y25232D01*
X499761Y25010D01*
X499850Y24766D01*
X499972Y24543D01*
X500128Y24343D01*
X500139D01*
X500150Y24321D01*
X500217Y24266D01*
X500317Y24188D01*
X500450Y24110D01*
X500628Y24021D01*
X500828Y23944D01*
X501050Y23888D01*
X501172Y23877D01*
X501306Y23866D01*
X501395D01*
X501495Y23877D01*
X501617Y23899D01*
X501750Y23932D01*
X501906Y23977D01*
X502050Y24044D01*
X502194Y24132D01*
X502206Y24144D01*
X502261Y24188D01*
X502328Y24255D01*
X502406Y24343D01*
X502494Y24466D01*
X502595Y24621D01*
X502695Y24799D01*
X502783Y25010D01*
X503761Y24888D01*
Y24877D01*
X503750Y24855D01*
X503739Y24810D01*
X503717Y24743D01*
X503683Y24677D01*
X503650Y24588D01*
X503561Y24399D01*
X503450Y24188D01*
X503294Y23966D01*
X503117Y23755D01*
X502894Y23555D01*
X502883D01*
X502861Y23532D01*
X502828Y23510D01*
X502783Y23477D01*
X502717Y23444D01*
X502650Y23410D01*
X502561Y23366D01*
X502461Y23321D01*
X502350Y23277D01*
X502239Y23233D01*
X501961Y23166D01*
X501650Y23110D01*
X501306Y23088D01*
X501184D01*
X501106Y23099D01*
X501006Y23110D01*
X500884Y23133D01*
X500750Y23155D01*
X500606Y23177D01*
X500295Y23266D01*
X500128Y23332D01*
X499972Y23399D01*
X499806Y23488D01*
X499650Y23588D01*
X499506Y23699D01*
X499362Y23832D01*
X499350Y23844D01*
X499328Y23866D01*
X499295Y23910D01*
X499250Y23977D01*
X499195Y24055D01*
X499139Y24144D01*
X499073Y24255D01*
X499006Y24377D01*
X498939Y24521D01*
X498873Y24677D01*
X498817Y24855D01*
X498762Y25043D01*
X498717Y25243D01*
X498684Y25466D01*
X498662Y25699D01*
X498651Y25943D01*
Y25954D01*
Y26010D01*
Y26077D01*
X498662Y26177D01*
X498673Y26299D01*
X498684Y26432D01*
X498706Y26588D01*
X498739Y26743D01*
X498828Y27099D01*
X498884Y27277D01*
X498950Y27465D01*
X499039Y27643D01*
X499139Y27810D01*
X499250Y27976D01*
X499373Y28132D01*
X499384Y28143D01*
X499406Y28165D01*
X499450Y28199D01*
X499506Y28254D01*
X499573Y28310D01*
X499661Y28376D01*
X499761Y28454D01*
X499884Y28521D01*
X500006Y28599D01*
X500150Y28665D01*
X500306Y28732D01*
X500472Y28787D01*
X500650Y28843D01*
X500839Y28876D01*
X501039Y28899D01*
X501250Y28910D01*
X501361D01*
X501439Y28899D01*
D02*
G37*
G36*
X492662D02*
X492829Y28887D01*
X493007Y28865D01*
X493195Y28821D01*
X493395Y28776D01*
X493584Y28710D01*
X493595D01*
X493607Y28699D01*
X493662Y28676D01*
X493751Y28632D01*
X493862Y28576D01*
X493984Y28499D01*
X494106Y28410D01*
X494218Y28310D01*
X494318Y28199D01*
X494329Y28188D01*
X494351Y28143D01*
X494395Y28065D01*
X494451Y27976D01*
X494506Y27843D01*
X494562Y27699D01*
X494606Y27532D01*
X494651Y27343D01*
X493729Y27221D01*
Y27243D01*
X493718Y27288D01*
X493695Y27365D01*
X493662Y27465D01*
X493607Y27565D01*
X493540Y27676D01*
X493462Y27788D01*
X493351Y27887D01*
X493340Y27899D01*
X493295Y27921D01*
X493229Y27965D01*
X493129Y28010D01*
X493018Y28054D01*
X492873Y28099D01*
X492696Y28121D01*
X492507Y28132D01*
X492395D01*
X492284Y28121D01*
X492140Y28110D01*
X491996Y28076D01*
X491840Y28043D01*
X491696Y27988D01*
X491573Y27910D01*
X491562Y27899D01*
X491529Y27876D01*
X491484Y27832D01*
X491440Y27765D01*
X491385Y27699D01*
X491340Y27610D01*
X491307Y27510D01*
X491296Y27410D01*
Y27399D01*
Y27376D01*
X491307Y27343D01*
Y27299D01*
X491340Y27188D01*
X491407Y27077D01*
X491418Y27065D01*
X491429Y27054D01*
X491451Y27021D01*
X491496Y26988D01*
X491540Y26954D01*
X491607Y26910D01*
X491684Y26877D01*
X491773Y26832D01*
X491784D01*
X491807Y26821D01*
X491851Y26810D01*
X491929Y26776D01*
X492040Y26743D01*
X492184Y26710D01*
X492273Y26676D01*
X492373Y26654D01*
X492484Y26621D01*
X492607Y26588D01*
X492618D01*
X492651Y26577D01*
X492707Y26565D01*
X492773Y26543D01*
X492851Y26521D01*
X492951Y26499D01*
X493162Y26432D01*
X493395Y26366D01*
X493629Y26288D01*
X493840Y26210D01*
X493929Y26177D01*
X494006Y26143D01*
X494029Y26132D01*
X494073Y26110D01*
X494140Y26077D01*
X494240Y26021D01*
X494340Y25954D01*
X494440Y25866D01*
X494540Y25765D01*
X494629Y25654D01*
X494640Y25643D01*
X494662Y25599D01*
X494706Y25532D01*
X494751Y25432D01*
X494784Y25310D01*
X494829Y25177D01*
X494851Y25021D01*
X494862Y24843D01*
Y24821D01*
Y24766D01*
X494851Y24677D01*
X494829Y24554D01*
X494795Y24421D01*
X494740Y24277D01*
X494673Y24110D01*
X494584Y23955D01*
X494573Y23932D01*
X494529Y23888D01*
X494473Y23810D01*
X494384Y23721D01*
X494262Y23621D01*
X494129Y23510D01*
X493973Y23410D01*
X493784Y23310D01*
X493773D01*
X493762Y23299D01*
X493695Y23277D01*
X493584Y23244D01*
X493440Y23199D01*
X493262Y23155D01*
X493062Y23121D01*
X492851Y23099D01*
X492607Y23088D01*
X492507D01*
X492429Y23099D01*
X492340D01*
X492229Y23110D01*
X492118Y23121D01*
X491996Y23144D01*
X491729Y23199D01*
X491451Y23277D01*
X491185Y23388D01*
X491062Y23455D01*
X490951Y23532D01*
X490940Y23543D01*
X490929Y23555D01*
X490862Y23621D01*
X490762Y23721D01*
X490651Y23877D01*
X490529Y24066D01*
X490407Y24288D01*
X490307Y24566D01*
X490229Y24877D01*
X491162Y25021D01*
Y25010D01*
Y24999D01*
X491185Y24932D01*
X491207Y24821D01*
X491251Y24699D01*
X491307Y24566D01*
X491373Y24421D01*
X491473Y24277D01*
X491596Y24155D01*
X491618Y24144D01*
X491662Y24110D01*
X491751Y24066D01*
X491862Y24010D01*
X492007Y23955D01*
X492173Y23910D01*
X492373Y23877D01*
X492607Y23866D01*
X492718D01*
X492829Y23877D01*
X492973Y23899D01*
X493129Y23932D01*
X493295Y23977D01*
X493440Y24032D01*
X493573Y24121D01*
X493584Y24132D01*
X493629Y24166D01*
X493673Y24221D01*
X493740Y24299D01*
X493795Y24388D01*
X493851Y24499D01*
X493884Y24610D01*
X493895Y24743D01*
Y24755D01*
Y24799D01*
X493884Y24855D01*
X493862Y24932D01*
X493829Y25010D01*
X493773Y25088D01*
X493707Y25177D01*
X493607Y25243D01*
X493595Y25254D01*
X493562Y25266D01*
X493506Y25299D01*
X493418Y25332D01*
X493284Y25377D01*
X493207Y25410D01*
X493118Y25432D01*
X493018Y25466D01*
X492907Y25499D01*
X492784Y25532D01*
X492640Y25565D01*
X492629D01*
X492595Y25577D01*
X492540Y25588D01*
X492473Y25610D01*
X492384Y25632D01*
X492284Y25666D01*
X492073Y25721D01*
X491829Y25799D01*
X491596Y25866D01*
X491373Y25943D01*
X491273Y25988D01*
X491196Y26021D01*
X491173Y26032D01*
X491129Y26054D01*
X491062Y26099D01*
X490973Y26154D01*
X490873Y26232D01*
X490773Y26321D01*
X490673Y26421D01*
X490585Y26543D01*
X490574Y26554D01*
X490551Y26599D01*
X490518Y26676D01*
X490485Y26765D01*
X490451Y26877D01*
X490418Y27010D01*
X490396Y27143D01*
X490385Y27299D01*
Y27321D01*
Y27365D01*
X490396Y27432D01*
X490407Y27532D01*
X490429Y27632D01*
X490451Y27754D01*
X490496Y27865D01*
X490551Y27988D01*
X490562Y27999D01*
X490585Y28043D01*
X490618Y28099D01*
X490673Y28176D01*
X490740Y28254D01*
X490818Y28354D01*
X490907Y28443D01*
X491018Y28521D01*
X491029Y28532D01*
X491062Y28543D01*
X491107Y28576D01*
X491173Y28610D01*
X491262Y28654D01*
X491362Y28699D01*
X491484Y28743D01*
X491618Y28787D01*
X491640Y28799D01*
X491684Y28810D01*
X491762Y28832D01*
X491862Y28854D01*
X491985Y28876D01*
X492118Y28887D01*
X492273Y28910D01*
X492540D01*
X492662Y28899D01*
D02*
G37*
%LPC*%
G36*
X501261Y28132D02*
X501195D01*
X501150Y28121D01*
X501028Y28110D01*
X500884Y28076D01*
X500706Y28021D01*
X500517Y27943D01*
X500339Y27832D01*
X500161Y27688D01*
X500139Y27665D01*
X500095Y27610D01*
X500017Y27510D01*
X499939Y27376D01*
X499850Y27221D01*
X499773Y27021D01*
X499706Y26788D01*
X499673Y26532D01*
X502795D01*
Y26543D01*
Y26565D01*
X502783Y26599D01*
Y26643D01*
X502761Y26776D01*
X502728Y26921D01*
X502672Y27099D01*
X502617Y27265D01*
X502528Y27432D01*
X502428Y27577D01*
Y27588D01*
X502406Y27599D01*
X502350Y27665D01*
X502250Y27754D01*
X502117Y27854D01*
X501950Y27954D01*
X501750Y28043D01*
X501517Y28110D01*
X501395Y28121D01*
X501261Y28132D01*
D02*
G37*
G36*
X480808Y29987D02*
X478608D01*
Y27243D01*
X480675D01*
X480752Y27254D01*
X480830D01*
X480919Y27265D01*
X481130Y27288D01*
X481363Y27332D01*
X481597Y27399D01*
X481808Y27488D01*
X481908Y27543D01*
X481986Y27610D01*
X482008Y27632D01*
X482052Y27676D01*
X482119Y27765D01*
X482197Y27876D01*
X482274Y28021D01*
X482341Y28199D01*
X482385Y28399D01*
X482408Y28632D01*
Y28643D01*
Y28654D01*
Y28710D01*
X482397Y28810D01*
X482374Y28921D01*
X482352Y29043D01*
X482308Y29187D01*
X482241Y29321D01*
X482163Y29454D01*
X482152Y29465D01*
X482119Y29510D01*
X482063Y29565D01*
X481997Y29643D01*
X481897Y29721D01*
X481785Y29787D01*
X481663Y29854D01*
X481519Y29910D01*
X481508D01*
X481463Y29921D01*
X481397Y29932D01*
X481308Y29954D01*
X481174Y29965D01*
X481008Y29976D01*
X480808Y29987D01*
D02*
G37*
G36*
X470876Y28165D02*
X470820D01*
X470776Y28154D01*
X470664Y28132D01*
X470520Y28099D01*
X470353Y28032D01*
X470176Y27932D01*
X470076Y27865D01*
X469987Y27788D01*
X469898Y27699D01*
X469809Y27599D01*
Y27588D01*
X469787Y27577D01*
X469765Y27543D01*
X469742Y27499D01*
X469709Y27432D01*
X469664Y27365D01*
X469620Y27277D01*
X469587Y27188D01*
X469542Y27077D01*
X469498Y26954D01*
X469464Y26821D01*
X469420Y26676D01*
X469398Y26510D01*
X469376Y26343D01*
X469353Y26166D01*
Y25965D01*
Y25954D01*
Y25921D01*
Y25866D01*
X469365Y25788D01*
Y25699D01*
X469376Y25599D01*
X469409Y25366D01*
X469464Y25099D01*
X469531Y24843D01*
X469642Y24588D01*
X469709Y24477D01*
X469787Y24377D01*
X469809Y24355D01*
X469864Y24299D01*
X469953Y24210D01*
X470076Y24121D01*
X470231Y24032D01*
X470409Y23944D01*
X470609Y23888D01*
X470720Y23877D01*
X470831Y23866D01*
X470898D01*
X470942Y23877D01*
X471053Y23899D01*
X471209Y23932D01*
X471375Y23999D01*
X471553Y24088D01*
X471731Y24221D01*
X471820Y24299D01*
X471909Y24388D01*
Y24399D01*
X471931Y24410D01*
X471953Y24443D01*
X471975Y24488D01*
X472020Y24543D01*
X472053Y24621D01*
X472097Y24699D01*
X472142Y24799D01*
X472175Y24899D01*
X472220Y25032D01*
X472264Y25166D01*
X472297Y25310D01*
X472320Y25477D01*
X472342Y25654D01*
X472364Y25843D01*
Y26043D01*
Y26054D01*
Y26088D01*
Y26143D01*
X472353Y26221D01*
Y26310D01*
X472342Y26410D01*
X472309Y26643D01*
X472253Y26899D01*
X472175Y27154D01*
X472064Y27410D01*
X471998Y27532D01*
X471920Y27632D01*
Y27643D01*
X471898Y27654D01*
X471842Y27721D01*
X471753Y27799D01*
X471631Y27899D01*
X471475Y27999D01*
X471298Y28087D01*
X471098Y28143D01*
X470987Y28154D01*
X470876Y28165D01*
D02*
G37*
G36*
X488196Y26010D02*
X488185D01*
X488174Y25999D01*
X488140Y25988D01*
X488096Y25977D01*
X488040Y25954D01*
X487974Y25932D01*
X487896Y25910D01*
X487807Y25888D01*
X487707Y25854D01*
X487585Y25832D01*
X487463Y25799D01*
X487318Y25765D01*
X487163Y25732D01*
X487007Y25699D01*
X486829Y25677D01*
X486641Y25643D01*
X486618D01*
X486552Y25632D01*
X486441Y25610D01*
X486318Y25588D01*
X486185Y25565D01*
X486052Y25532D01*
X485929Y25499D01*
X485818Y25454D01*
X485807D01*
X485774Y25432D01*
X485730Y25410D01*
X485685Y25377D01*
X485552Y25288D01*
X485441Y25155D01*
Y25143D01*
X485418Y25121D01*
X485407Y25077D01*
X485385Y25021D01*
X485363Y24954D01*
X485341Y24888D01*
X485330Y24799D01*
X485319Y24710D01*
Y24699D01*
Y24643D01*
X485330Y24577D01*
X485352Y24488D01*
X485385Y24388D01*
X485441Y24288D01*
X485507Y24177D01*
X485596Y24077D01*
X485607Y24066D01*
X485652Y24044D01*
X485718Y23999D01*
X485807Y23955D01*
X485929Y23910D01*
X486074Y23866D01*
X486241Y23844D01*
X486441Y23832D01*
X486529D01*
X486641Y23844D01*
X486763Y23866D01*
X486918Y23888D01*
X487074Y23932D01*
X487241Y23988D01*
X487407Y24066D01*
X487429Y24077D01*
X487474Y24110D01*
X487552Y24166D01*
X487640Y24243D01*
X487740Y24332D01*
X487851Y24443D01*
X487940Y24577D01*
X488029Y24721D01*
X488040Y24732D01*
X488052Y24777D01*
X488074Y24855D01*
X488107Y24954D01*
X488140Y25088D01*
X488163Y25243D01*
X488174Y25432D01*
X488185Y25654D01*
X488196Y26010D01*
D02*
G37*
G36*
X464776Y28132D02*
X464709D01*
X464654Y28121D01*
X464532Y28110D01*
X464365Y28065D01*
X464176Y27999D01*
X463976Y27910D01*
X463787Y27776D01*
X463687Y27688D01*
X463598Y27599D01*
Y27588D01*
X463576Y27577D01*
X463554Y27543D01*
X463521Y27499D01*
X463487Y27443D01*
X463454Y27376D01*
X463410Y27288D01*
X463365Y27199D01*
X463321Y27088D01*
X463276Y26976D01*
X463243Y26843D01*
X463210Y26699D01*
X463176Y26543D01*
X463154Y26377D01*
X463143Y26188D01*
X463132Y25999D01*
Y25988D01*
Y25954D01*
Y25899D01*
X463143Y25821D01*
Y25732D01*
X463154Y25632D01*
X463187Y25399D01*
X463243Y25132D01*
X463332Y24866D01*
X463443Y24610D01*
X463521Y24499D01*
X463598Y24388D01*
X463610D01*
X463621Y24366D01*
X463687Y24310D01*
X463787Y24221D01*
X463921Y24132D01*
X464087Y24032D01*
X464287Y23944D01*
X464521Y23888D01*
X464643Y23877D01*
X464776Y23866D01*
X464843D01*
X464898Y23877D01*
X465021Y23899D01*
X465187Y23932D01*
X465365Y23999D01*
X465565Y24088D01*
X465754Y24221D01*
X465854Y24310D01*
X465943Y24399D01*
X465954Y24410D01*
X465965Y24421D01*
X465987Y24455D01*
X466020Y24499D01*
X466054Y24554D01*
X466098Y24621D01*
X466143Y24710D01*
X466187Y24799D01*
X466231Y24910D01*
X466265Y25032D01*
X466309Y25166D01*
X466343Y25310D01*
X466376Y25477D01*
X466398Y25643D01*
X466420Y25832D01*
Y26032D01*
Y26043D01*
Y26077D01*
Y26132D01*
X466409Y26199D01*
Y26288D01*
X466398Y26388D01*
X466365Y26621D01*
X466309Y26865D01*
X466220Y27132D01*
X466098Y27376D01*
X466032Y27499D01*
X465943Y27599D01*
Y27610D01*
X465920Y27621D01*
X465854Y27688D01*
X465754Y27765D01*
X465620Y27865D01*
X465454Y27965D01*
X465254Y28054D01*
X465032Y28110D01*
X464909Y28121D01*
X464776Y28132D01*
D02*
G37*
%LPD*%
D10*
X123819Y112598D02*
D03*
X129724D02*
D03*
X123819Y118110D02*
D03*
X129724D02*
D03*
X24606Y107677D02*
D03*
X30512D02*
D03*
X105953Y128000D02*
D03*
X100047D02*
D03*
X98547Y115000D02*
D03*
X104453D02*
D03*
X98547Y104803D02*
D03*
X104453D02*
D03*
X90453Y105000D02*
D03*
X84547D02*
D03*
X77000Y87000D02*
D03*
X71095D02*
D03*
Y93303D02*
D03*
X77000D02*
D03*
X71095Y80500D02*
D03*
X77000D02*
D03*
X71095Y74000D02*
D03*
X77000D02*
D03*
X62953Y11500D02*
D03*
X57047D02*
D03*
X62953Y5000D02*
D03*
X57047D02*
D03*
X39567Y-1575D02*
D03*
X45472D02*
D03*
X68047Y5000D02*
D03*
X73953D02*
D03*
X80453Y26000D02*
D03*
X74547D02*
D03*
X57047Y17803D02*
D03*
X62953D02*
D03*
X39047Y20303D02*
D03*
X44953D02*
D03*
X28453Y14000D02*
D03*
X22547D02*
D03*
Y7500D02*
D03*
X28453D02*
D03*
X22547Y803D02*
D03*
X28453D02*
D03*
X53453Y56197D02*
D03*
X47547D02*
D03*
X24047Y86500D02*
D03*
X29953D02*
D03*
X24094Y79803D02*
D03*
X30000D02*
D03*
X24094Y73606D02*
D03*
X30000D02*
D03*
Y67500D02*
D03*
X24094D02*
D03*
X30000Y61303D02*
D03*
X24094D02*
D03*
X29953Y55000D02*
D03*
X24047D02*
D03*
X13047Y86500D02*
D03*
X18953D02*
D03*
X29953Y92697D02*
D03*
X24047D02*
D03*
Y99000D02*
D03*
X29953D02*
D03*
X30512Y113386D02*
D03*
X24606D02*
D03*
X52453Y107197D02*
D03*
X46547D02*
D03*
Y114000D02*
D03*
X52453D02*
D03*
X113047Y128000D02*
D03*
X118953D02*
D03*
X113047Y121500D02*
D03*
X118953D02*
D03*
D11*
X162000Y104453D02*
D03*
Y98547D02*
D03*
X168697D02*
D03*
Y104453D02*
D03*
X172500Y128953D02*
D03*
Y123047D02*
D03*
X172303Y139953D02*
D03*
Y134047D02*
D03*
X161803Y117453D02*
D03*
Y111547D02*
D03*
X95803Y80453D02*
D03*
Y74547D02*
D03*
X95697Y87547D02*
D03*
Y93453D02*
D03*
D12*
X176000Y97654D02*
D03*
Y104347D02*
D03*
X197500Y97654D02*
D03*
Y104347D02*
D03*
X179000Y140347D02*
D03*
Y133653D02*
D03*
X165013Y139847D02*
D03*
Y133153D02*
D03*
D13*
X197500Y117476D02*
D03*
Y139524D02*
D03*
X6500Y78024D02*
D03*
Y55976D02*
D03*
D14*
X84000Y126300D02*
D03*
D15*
X92000Y130000D02*
D03*
Y122500D02*
D03*
D16*
X106000Y89323D02*
D03*
Y97000D02*
D03*
Y91882D02*
D03*
Y86764D02*
D03*
Y84205D02*
D03*
Y81646D02*
D03*
Y79087D02*
D03*
Y76528D02*
D03*
Y73968D02*
D03*
X135921Y97000D02*
D03*
Y94441D02*
D03*
Y91882D02*
D03*
Y89323D02*
D03*
Y86764D02*
D03*
Y84205D02*
D03*
Y81646D02*
D03*
Y79087D02*
D03*
Y76528D02*
D03*
Y73968D02*
D03*
X106000Y94441D02*
D03*
D17*
X86500Y75700D02*
D03*
Y92300D02*
D03*
D18*
X82012Y15500D02*
D03*
X70988D02*
D03*
X16488Y27000D02*
D03*
X27512D02*
D03*
X16488Y42000D02*
D03*
X27512D02*
D03*
X44988Y67500D02*
D03*
X56012D02*
D03*
D19*
X36980Y12339D02*
D03*
Y9780D02*
D03*
Y7220D02*
D03*
Y4661D02*
D03*
X47020Y12339D02*
D03*
Y9780D02*
D03*
Y7220D02*
D03*
Y4661D02*
D03*
D20*
X60819Y81543D02*
D03*
Y84102D02*
D03*
Y86661D02*
D03*
Y89220D02*
D03*
Y91780D02*
D03*
Y94339D02*
D03*
Y96898D02*
D03*
Y99457D02*
D03*
X38181Y81543D02*
D03*
Y84102D02*
D03*
Y86661D02*
D03*
Y89220D02*
D03*
Y91780D02*
D03*
Y94339D02*
D03*
Y96898D02*
D03*
Y99457D02*
D03*
M02*
