%FSLAX25Y25*%
%MOIN*%
G70*
G01*
G75*
G04 Layer_Physical_Order=2*
G04 Layer_Color=16711680*
%ADD10R,0.02362X0.03543*%
%ADD11R,0.03543X0.02362*%
%ADD12R,0.03937X0.04331*%
%ADD13R,0.06299X0.13780*%
%ADD14R,0.05000X0.03600*%
%ADD15R,0.03600X0.03600*%
%ADD16R,0.06693X0.01750*%
%ADD17R,0.08661X0.05118*%
%ADD18R,0.06299X0.07874*%
%ADD19O,0.04921X0.01772*%
%ADD20R,0.06102X0.01378*%
%ADD21C,0.01000*%
%ADD22C,0.00800*%
%ADD23C,0.02500*%
%ADD24C,0.02000*%
%ADD25C,0.08000*%
%ADD26C,0.07000*%
%ADD27C,0.10000*%
%ADD28R,0.07000X0.07000*%
%ADD29C,0.04724*%
%ADD30C,0.05906*%
%ADD31R,0.07000X0.07000*%
%ADD32C,0.08661*%
%ADD33C,0.07874*%
G04:AMPARAMS|DCode=34|XSize=118.11mil|YSize=39.37mil|CornerRadius=19.69mil|HoleSize=0mil|Usage=FLASHONLY|Rotation=0.000|XOffset=0mil|YOffset=0mil|HoleType=Round|Shape=RoundedRectangle|*
%AMROUNDEDRECTD34*
21,1,0.11811,0.00000,0,0,0.0*
21,1,0.07874,0.03937,0,0,0.0*
1,1,0.03937,0.03937,0.00000*
1,1,0.03937,-0.03937,0.00000*
1,1,0.03937,-0.03937,0.00000*
1,1,0.03937,0.03937,0.00000*
%
%ADD34ROUNDEDRECTD34*%
%ADD35O,0.15748X0.03937*%
G04:AMPARAMS|DCode=36|XSize=118.11mil|YSize=39.37mil|CornerRadius=19.69mil|HoleSize=0mil|Usage=FLASHONLY|Rotation=90.000|XOffset=0mil|YOffset=0mil|HoleType=Round|Shape=RoundedRectangle|*
%AMROUNDEDRECTD36*
21,1,0.11811,0.00000,0,0,90.0*
21,1,0.07874,0.03937,0,0,90.0*
1,1,0.03937,0.00000,0.03937*
1,1,0.03937,0.00000,-0.03937*
1,1,0.03937,0.00000,-0.03937*
1,1,0.03937,0.00000,0.03937*
%
%ADD36ROUNDEDRECTD36*%
%ADD37C,0.05512*%
%ADD38C,0.17716*%
%ADD39C,0.07874*%
%ADD40C,0.03937*%
%ADD41C,0.03150*%
%ADD42R,0.05118X0.05906*%
%ADD43R,0.05315X0.02953*%
G36*
X409762Y6543D02*
Y5165D01*
X410462D01*
Y4432D01*
X409762D01*
Y1210D01*
Y1055D01*
Y921D01*
X409751Y799D01*
X409740Y677D01*
Y577D01*
X409729Y488D01*
X409707Y344D01*
X409684Y233D01*
X409673Y155D01*
X409651Y110D01*
Y99D01*
X409607Y-1D01*
X409540Y-78D01*
X409473Y-156D01*
X409418Y-212D01*
X409351Y-267D01*
X409307Y-301D01*
X409273Y-323D01*
X409262Y-334D01*
X409140Y-390D01*
X409018Y-423D01*
X408884Y-456D01*
X408751Y-467D01*
X408640Y-478D01*
X408551Y-490D01*
X408462D01*
X408218Y-478D01*
X408096Y-467D01*
X407985Y-445D01*
X407885Y-434D01*
X407807Y-423D01*
X407762Y-412D01*
X407740D01*
X407862Y421D01*
X407951Y410D01*
X408040Y399D01*
X408118D01*
X408173Y388D01*
X408285D01*
X408429Y399D01*
X408529Y421D01*
X408584Y444D01*
X408607Y455D01*
X408684Y510D01*
X408729Y566D01*
X408762Y610D01*
X408773Y632D01*
X408784Y688D01*
X408796Y766D01*
X408807Y944D01*
X408818Y1021D01*
Y1088D01*
Y1132D01*
Y1155D01*
Y4432D01*
X407862D01*
Y5165D01*
X408818D01*
Y7110D01*
X409762Y6543D01*
D02*
G37*
G36*
X73778Y67517D02*
X72583Y66323D01*
X72163Y65694D01*
X72016Y64953D01*
Y63500D01*
Y3436D01*
X71760Y3240D01*
X71564Y2984D01*
X55190D01*
X54899Y3575D01*
X55186Y3949D01*
X55496Y4697D01*
X55601Y5500D01*
X55496Y6303D01*
X55186Y7051D01*
X55477Y7641D01*
X55693Y7807D01*
X56186Y8449D01*
X56496Y9197D01*
X56601Y10000D01*
X56496Y10803D01*
X56186Y11551D01*
X55693Y12193D01*
X55051Y12686D01*
X54303Y12996D01*
X53500Y13101D01*
X52697Y12996D01*
X51949Y12686D01*
X51307Y12193D01*
X51111Y11937D01*
X41912D01*
X41803Y12504D01*
X42551Y12814D01*
X43193Y13307D01*
X43389Y13563D01*
X46500D01*
X47241Y13710D01*
X47870Y14130D01*
X48935Y15195D01*
X49355Y15824D01*
X49503Y16565D01*
Y28595D01*
X50093Y28795D01*
X50181Y28681D01*
X51007Y28047D01*
X51968Y27649D01*
X52500Y27579D01*
Y31500D01*
Y35421D01*
X51968Y35351D01*
X51007Y34953D01*
X50754Y34759D01*
X50333Y35180D01*
X50762Y35740D01*
X51151Y36679D01*
X51284Y37687D01*
X51151Y38696D01*
X51115Y38783D01*
X51435Y39102D01*
X51855Y39731D01*
X51974Y40331D01*
X54157D01*
Y44668D01*
X54748Y44846D01*
X55441Y44314D01*
X56380Y43925D01*
X57389Y43792D01*
X58397Y43925D01*
X59336Y44314D01*
X60143Y44933D01*
X60213Y45024D01*
X60804Y44824D01*
Y43071D01*
X59630Y41897D01*
X59210Y41269D01*
X59063Y40528D01*
Y28389D01*
X58807Y28193D01*
X58314Y27551D01*
X58004Y26803D01*
X57899Y26000D01*
X58004Y25197D01*
X58314Y24449D01*
X58807Y23807D01*
X59449Y23314D01*
X60197Y23004D01*
X61000Y22899D01*
X61803Y23004D01*
X62551Y23314D01*
X63193Y23807D01*
X63686Y24449D01*
X63996Y25197D01*
X64101Y26000D01*
X64030Y26541D01*
X64466Y27079D01*
X65000Y27009D01*
X66162Y27162D01*
X67246Y27610D01*
X68176Y28324D01*
X68889Y29254D01*
X69338Y30338D01*
X69491Y31500D01*
X69338Y32662D01*
X68889Y33746D01*
X68647Y34062D01*
X68799Y34633D01*
X69084Y34751D01*
X69787Y35289D01*
X70325Y35992D01*
X70664Y36810D01*
X70714Y37187D01*
X67389D01*
Y38187D01*
X70714D01*
X70664Y38565D01*
X70325Y39383D01*
X69787Y40085D01*
X69119Y40598D01*
Y46283D01*
X66386D01*
X66019Y46874D01*
X66101Y47500D01*
X65996Y48303D01*
X65686Y49051D01*
X65193Y49693D01*
X64937Y49889D01*
Y67698D01*
X65302Y68063D01*
X73552D01*
X73778Y67517D01*
D02*
G37*
G36*
X55961Y97267D02*
Y62311D01*
X55807Y62193D01*
X55314Y61551D01*
X55004Y60803D01*
X54899Y60000D01*
X55004Y59197D01*
X55314Y58449D01*
X55807Y57807D01*
X56449Y57314D01*
X57197Y57004D01*
X58000Y56899D01*
X58803Y57004D01*
X59551Y57314D01*
X60193Y57807D01*
X60472Y58171D01*
X61063Y57970D01*
Y50342D01*
X60538Y50055D01*
X60409Y50095D01*
X60143Y50442D01*
X59336Y51061D01*
X58397Y51450D01*
X57389Y51583D01*
X56380Y51450D01*
X55441Y51061D01*
X54634Y50442D01*
X54015Y49635D01*
X53626Y48696D01*
X53493Y47687D01*
X53600Y46874D01*
X53224Y46284D01*
X52003D01*
Y86308D01*
X52551Y86535D01*
X53193Y87028D01*
X53686Y87670D01*
X53996Y88418D01*
X54101Y89220D01*
X53996Y90023D01*
X53686Y90771D01*
X53193Y91413D01*
X52551Y91906D01*
X51803Y92216D01*
X51070Y92313D01*
X50938Y92514D01*
X50816Y92893D01*
X55415Y97493D01*
X55961Y97267D01*
D02*
G37*
G36*
X25130Y46130D02*
X25759Y45710D01*
X26500Y45563D01*
X35611D01*
X35807Y45307D01*
X36449Y44814D01*
X37197Y44504D01*
X38000Y44399D01*
X38368Y44447D01*
X38959Y43964D01*
Y28768D01*
X39053Y28050D01*
X39330Y27381D01*
X39771Y26806D01*
X42092Y24485D01*
X42314Y23949D01*
X42807Y23307D01*
X42961Y23189D01*
Y21845D01*
X42655Y21539D01*
X25811D01*
X25693Y21693D01*
X25051Y22186D01*
X24303Y22496D01*
X23500Y22601D01*
X22697Y22496D01*
X21949Y22186D01*
X21307Y21693D01*
X20814Y21051D01*
X20504Y20303D01*
X20399Y19500D01*
X20504Y18697D01*
X20814Y17949D01*
X21307Y17307D01*
X21949Y16814D01*
X22697Y16504D01*
X23500Y16399D01*
X24303Y16504D01*
X25051Y16814D01*
X25693Y17307D01*
X25811Y17461D01*
X37953D01*
X38239Y16870D01*
X38004Y16303D01*
X37899Y15500D01*
X38004Y14697D01*
X38314Y13949D01*
X38807Y13307D01*
X39449Y12814D01*
X40197Y12504D01*
X40088Y11937D01*
X23302D01*
X17437Y17802D01*
Y20500D01*
Y47025D01*
X18028Y47461D01*
X18500Y47399D01*
X19303Y47504D01*
X20051Y47814D01*
X20693Y48307D01*
X21186Y48949D01*
X21271Y49154D01*
X21967Y49293D01*
X25130Y46130D01*
D02*
G37*
G36*
X380943Y5277D02*
X381176Y5254D01*
X381398Y5221D01*
X381576Y5188D01*
X381732Y5154D01*
X381843Y5121D01*
X381887Y5110D01*
X381921Y5099D01*
X381932Y5088D01*
X381943D01*
X382132Y5010D01*
X382298Y4910D01*
X382443Y4821D01*
X382565Y4732D01*
X382654Y4643D01*
X382720Y4577D01*
X382765Y4532D01*
X382776Y4521D01*
X382876Y4377D01*
X382965Y4221D01*
X383032Y4065D01*
X383087Y3921D01*
X383132Y3777D01*
X383165Y3677D01*
X383176Y3632D01*
Y3599D01*
X383187Y3588D01*
Y3577D01*
X382265Y3455D01*
X382198Y3654D01*
X382132Y3832D01*
X382054Y3977D01*
X381987Y4088D01*
X381921Y4177D01*
X381865Y4232D01*
X381821Y4265D01*
X381809Y4277D01*
X381676Y4354D01*
X381521Y4410D01*
X381354Y4454D01*
X381198Y4477D01*
X381043Y4499D01*
X380932Y4510D01*
X380821D01*
X380565Y4499D01*
X380343Y4465D01*
X380165Y4410D01*
X380010Y4354D01*
X379899Y4288D01*
X379810Y4243D01*
X379754Y4199D01*
X379743Y4188D01*
X379654Y4088D01*
X379587Y3965D01*
X379532Y3832D01*
X379499Y3699D01*
X379476Y3577D01*
X379465Y3466D01*
Y3399D01*
Y3388D01*
Y3377D01*
Y3354D01*
Y3310D01*
Y3232D01*
X379476Y3166D01*
Y3143D01*
Y3132D01*
X379587Y3099D01*
X379710Y3066D01*
X379965Y2999D01*
X380254Y2943D01*
X380521Y2888D01*
X380654Y2866D01*
X380776Y2854D01*
X380887Y2832D01*
X380976Y2821D01*
X381054Y2810D01*
X381109D01*
X381154Y2799D01*
X381165D01*
X381365Y2777D01*
X381532Y2743D01*
X381676Y2721D01*
X381787Y2699D01*
X381876Y2688D01*
X381943Y2666D01*
X381987Y2655D01*
X381998D01*
X382143Y2610D01*
X382265Y2566D01*
X382387Y2510D01*
X382487Y2466D01*
X382576Y2421D01*
X382632Y2377D01*
X382676Y2355D01*
X382687Y2344D01*
X382798Y2266D01*
X382887Y2177D01*
X382976Y2088D01*
X383043Y1999D01*
X383098Y1921D01*
X383143Y1855D01*
X383165Y1810D01*
X383176Y1799D01*
X383231Y1677D01*
X383276Y1543D01*
X383309Y1421D01*
X383331Y1299D01*
X383343Y1199D01*
X383354Y1121D01*
Y1077D01*
Y1055D01*
X383343Y921D01*
X383331Y810D01*
X383276Y577D01*
X383198Y388D01*
X383109Y222D01*
X383020Y88D01*
X382943Y-12D01*
X382887Y-67D01*
X382865Y-90D01*
X382665Y-234D01*
X382443Y-345D01*
X382198Y-423D01*
X381976Y-478D01*
X381776Y-512D01*
X381687Y-523D01*
X381609D01*
X381543Y-534D01*
X381454D01*
X381254Y-523D01*
X381054Y-501D01*
X380876Y-478D01*
X380721Y-445D01*
X380598Y-412D01*
X380498Y-378D01*
X380432Y-367D01*
X380410Y-356D01*
X380221Y-279D01*
X380043Y-178D01*
X379876Y-67D01*
X379710Y33D01*
X379576Y133D01*
X379476Y210D01*
X379410Y266D01*
X379398Y288D01*
X379387D01*
X379365Y144D01*
X379343Y10D01*
X379321Y-112D01*
X379287Y-212D01*
X379254Y-301D01*
X379232Y-356D01*
X379221Y-401D01*
X379210Y-412D01*
X378221D01*
X378276Y-290D01*
X378332Y-167D01*
X378376Y-56D01*
X378399Y44D01*
X378432Y133D01*
X378443Y199D01*
X378454Y244D01*
Y255D01*
X378465Y333D01*
X378476Y433D01*
Y544D01*
X378487Y666D01*
X378499Y944D01*
Y1221D01*
X378510Y1488D01*
Y1610D01*
Y1710D01*
Y1799D01*
Y1866D01*
Y1910D01*
Y1921D01*
Y3188D01*
Y3399D01*
X378521Y3588D01*
X378532Y3732D01*
Y3854D01*
X378543Y3943D01*
X378554Y4010D01*
X378565Y4043D01*
Y4054D01*
X378599Y4199D01*
X378643Y4321D01*
X378688Y4421D01*
X378743Y4521D01*
X378787Y4588D01*
X378821Y4643D01*
X378843Y4677D01*
X378854Y4688D01*
X378943Y4777D01*
X379043Y4865D01*
X379154Y4932D01*
X379265Y4999D01*
X379365Y5043D01*
X379443Y5077D01*
X379499Y5099D01*
X379521Y5110D01*
X379698Y5165D01*
X379887Y5210D01*
X380076Y5243D01*
X380265Y5265D01*
X380432Y5277D01*
X380554Y5288D01*
X380676D01*
X380943Y5277D01*
D02*
G37*
G36*
X375488Y-412D02*
X375532Y-512D01*
X375554Y-590D01*
X375577Y-634D01*
Y-645D01*
X375643Y-834D01*
X375710Y-989D01*
X375754Y-1123D01*
X375799Y-1212D01*
X375821Y-1278D01*
X375843Y-1323D01*
X375866Y-1345D01*
Y-1356D01*
X375954Y-1478D01*
X376054Y-1567D01*
X376099Y-1601D01*
X376132Y-1623D01*
X376154Y-1645D01*
X376166D01*
X376243Y-1678D01*
X376321Y-1712D01*
X376488Y-1745D01*
X376554D01*
X376610Y-1756D01*
X376665D01*
X376843Y-1745D01*
X377021Y-1712D01*
X377088Y-1689D01*
X377143Y-1678D01*
X377188Y-1667D01*
X377199D01*
X377099Y-2545D01*
X376977Y-2589D01*
X376866Y-2612D01*
X376765Y-2634D01*
X376677Y-2656D01*
X376599D01*
X376543Y-2667D01*
X376499D01*
X376332Y-2656D01*
X376188Y-2634D01*
X376054Y-2600D01*
X375943Y-2556D01*
X375843Y-2512D01*
X375777Y-2478D01*
X375732Y-2456D01*
X375721Y-2445D01*
X375599Y-2356D01*
X375499Y-2245D01*
X375399Y-2134D01*
X375310Y-2023D01*
X375243Y-1923D01*
X375188Y-1845D01*
X375154Y-1790D01*
X375143Y-1767D01*
X375110Y-1689D01*
X375066Y-1612D01*
X374977Y-1423D01*
X374888Y-1212D01*
X374810Y-1001D01*
X374732Y-812D01*
X374699Y-723D01*
X374666Y-645D01*
X374643Y-590D01*
X374621Y-545D01*
X374610Y-512D01*
Y-501D01*
X372488Y5165D01*
X373432D01*
X374632Y1910D01*
X374721Y1677D01*
X374788Y1455D01*
X374866Y1233D01*
X374921Y1044D01*
X374966Y877D01*
X374988Y810D01*
X374999Y755D01*
X375010Y710D01*
X375021Y677D01*
X375032Y655D01*
Y644D01*
X375099Y899D01*
X375166Y1132D01*
X375232Y1355D01*
X375299Y1543D01*
X375355Y1699D01*
X375377Y1766D01*
X375399Y1821D01*
X375410Y1877D01*
X375421Y1910D01*
X375432Y1921D01*
Y1932D01*
X376599Y5165D01*
X377599D01*
X375488Y-412D01*
D02*
G37*
G36*
X398630Y5277D02*
X398819Y5243D01*
X398986Y5210D01*
X399130Y5165D01*
X399252Y5110D01*
X399341Y5077D01*
X399396Y5043D01*
X399419Y5032D01*
X399574Y4932D01*
X399708Y4821D01*
X399830Y4710D01*
X399930Y4599D01*
X400008Y4510D01*
X400074Y4432D01*
X400108Y4388D01*
X400119Y4366D01*
Y5165D01*
X400963D01*
Y-412D01*
X400019D01*
Y2477D01*
X400008Y2743D01*
X399996Y2977D01*
X399974Y3177D01*
X399941Y3343D01*
X399908Y3466D01*
X399885Y3554D01*
X399874Y3610D01*
X399863Y3632D01*
X399797Y3777D01*
X399719Y3899D01*
X399641Y4010D01*
X399563Y4099D01*
X399485Y4166D01*
X399430Y4210D01*
X399385Y4243D01*
X399374Y4254D01*
X399241Y4321D01*
X399119Y4377D01*
X398986Y4410D01*
X398874Y4443D01*
X398785Y4454D01*
X398708Y4465D01*
X398641D01*
X398452Y4454D01*
X398297Y4421D01*
X398163Y4366D01*
X398063Y4310D01*
X397986Y4243D01*
X397930Y4199D01*
X397897Y4154D01*
X397886Y4143D01*
X397808Y4010D01*
X397752Y3866D01*
X397708Y3710D01*
X397686Y3554D01*
X397663Y3421D01*
X397652Y3299D01*
Y3255D01*
Y3232D01*
Y3210D01*
Y3199D01*
Y-412D01*
X396708D01*
Y2821D01*
X396686Y3121D01*
X396641Y3377D01*
X396586Y3588D01*
X396508Y3766D01*
X396441Y3899D01*
X396375Y3988D01*
X396330Y4043D01*
X396319Y4065D01*
X396164Y4199D01*
X395997Y4299D01*
X395830Y4366D01*
X395675Y4421D01*
X395541Y4443D01*
X395430Y4454D01*
X395386Y4465D01*
X395330D01*
X395208Y4454D01*
X395108Y4443D01*
X395008Y4421D01*
X394930Y4388D01*
X394853Y4354D01*
X394808Y4332D01*
X394775Y4321D01*
X394764Y4310D01*
X394675Y4243D01*
X394608Y4177D01*
X394553Y4110D01*
X394508Y4043D01*
X394475Y3988D01*
X394453Y3943D01*
X394430Y3910D01*
Y3899D01*
X394397Y3799D01*
X394375Y3666D01*
X394364Y3532D01*
X394353Y3399D01*
X394341Y3277D01*
Y3177D01*
Y3110D01*
Y3099D01*
Y3088D01*
Y-412D01*
X393397D01*
Y3410D01*
Y3588D01*
X393419Y3743D01*
X393442Y3899D01*
X393464Y4032D01*
X393497Y4166D01*
X393542Y4277D01*
X393575Y4377D01*
X393619Y4477D01*
X393664Y4554D01*
X393697Y4632D01*
X393775Y4732D01*
X393819Y4799D01*
X393842Y4821D01*
X394019Y4976D01*
X394230Y5088D01*
X394442Y5176D01*
X394641Y5232D01*
X394830Y5265D01*
X394908Y5277D01*
X394986D01*
X395041Y5288D01*
X395119D01*
X395319Y5277D01*
X395497Y5243D01*
X395675Y5199D01*
X395841Y5132D01*
X395997Y5054D01*
X396141Y4976D01*
X396264Y4888D01*
X396386Y4799D01*
X396497Y4699D01*
X396586Y4610D01*
X396663Y4532D01*
X396730Y4454D01*
X396786Y4388D01*
X396819Y4343D01*
X396841Y4310D01*
X396852Y4299D01*
X396919Y4465D01*
X397008Y4610D01*
X397108Y4732D01*
X397197Y4832D01*
X397286Y4921D01*
X397352Y4976D01*
X397397Y5010D01*
X397419Y5021D01*
X397574Y5110D01*
X397741Y5176D01*
X397908Y5221D01*
X398074Y5254D01*
X398208Y5277D01*
X398330Y5288D01*
X398430D01*
X398630Y5277D01*
D02*
G37*
G36*
X412751Y6543D02*
Y5165D01*
X413451D01*
Y4432D01*
X412751D01*
Y1210D01*
Y1055D01*
Y921D01*
X412740Y799D01*
X412729Y677D01*
Y577D01*
X412717Y488D01*
X412695Y344D01*
X412673Y233D01*
X412662Y155D01*
X412640Y110D01*
Y99D01*
X412595Y-1D01*
X412529Y-78D01*
X412462Y-156D01*
X412406Y-212D01*
X412340Y-267D01*
X412295Y-301D01*
X412262Y-323D01*
X412251Y-334D01*
X412129Y-390D01*
X412006Y-423D01*
X411873Y-456D01*
X411740Y-467D01*
X411629Y-478D01*
X411540Y-490D01*
X411451D01*
X411206Y-478D01*
X411084Y-467D01*
X410973Y-445D01*
X410873Y-434D01*
X410795Y-423D01*
X410751Y-412D01*
X410729D01*
X410851Y421D01*
X410940Y410D01*
X411029Y399D01*
X411106D01*
X411162Y388D01*
X411273D01*
X411418Y399D01*
X411518Y421D01*
X411573Y444D01*
X411595Y455D01*
X411673Y510D01*
X411718Y566D01*
X411751Y610D01*
X411762Y632D01*
X411773Y688D01*
X411784Y766D01*
X411795Y944D01*
X411806Y1021D01*
Y1088D01*
Y1132D01*
Y1155D01*
Y4432D01*
X410851D01*
Y5165D01*
X411806D01*
Y7110D01*
X412751Y6543D01*
D02*
G37*
G36*
X388931Y-412D02*
X384120D01*
Y499D01*
X387909D01*
Y7276D01*
X388931D01*
Y-412D01*
D02*
G37*
G36*
X425972D02*
X423039D01*
X422772Y-401D01*
X422539Y-390D01*
X422328Y-367D01*
X422150Y-345D01*
X422005Y-323D01*
X421894Y-312D01*
X421828Y-290D01*
X421805D01*
X421617Y-234D01*
X421461Y-178D01*
X421317Y-112D01*
X421194Y-45D01*
X421094Y-1D01*
X421017Y44D01*
X420972Y77D01*
X420961Y88D01*
X420839Y188D01*
X420728Y310D01*
X420639Y433D01*
X420550Y544D01*
X420483Y655D01*
X420439Y733D01*
X420406Y788D01*
X420394Y810D01*
X420317Y988D01*
X420261Y1166D01*
X420217Y1333D01*
X420194Y1488D01*
X420172Y1621D01*
X420161Y1732D01*
Y1799D01*
Y1810D01*
Y1821D01*
X420172Y2066D01*
X420217Y2288D01*
X420283Y2477D01*
X420350Y2655D01*
X420417Y2788D01*
X420483Y2888D01*
X420528Y2954D01*
X420539Y2977D01*
X420694Y3154D01*
X420861Y3299D01*
X421050Y3421D01*
X421217Y3521D01*
X421372Y3599D01*
X421505Y3643D01*
X421550Y3666D01*
X421583Y3677D01*
X421605Y3688D01*
X421617D01*
X421428Y3799D01*
X421261Y3910D01*
X421128Y4032D01*
X421017Y4143D01*
X420928Y4232D01*
X420861Y4321D01*
X420828Y4366D01*
X420817Y4388D01*
X420728Y4554D01*
X420661Y4710D01*
X420606Y4865D01*
X420572Y5010D01*
X420550Y5132D01*
X420539Y5232D01*
Y5288D01*
Y5310D01*
X420550Y5499D01*
X420583Y5688D01*
X420639Y5854D01*
X420694Y6010D01*
X420750Y6143D01*
X420806Y6232D01*
X420839Y6299D01*
X420850Y6321D01*
X420972Y6487D01*
X421105Y6643D01*
X421250Y6765D01*
X421383Y6865D01*
X421494Y6943D01*
X421594Y6999D01*
X421661Y7032D01*
X421672Y7043D01*
X421683D01*
X421894Y7121D01*
X422128Y7176D01*
X422361Y7221D01*
X422583Y7243D01*
X422783Y7265D01*
X422872D01*
X422950Y7276D01*
X425972D01*
Y-412D01*
D02*
G37*
G36*
X363778Y5277D02*
X363889Y5254D01*
X364000Y5221D01*
X364089Y5188D01*
X364156Y5154D01*
X364222Y5121D01*
X364256Y5099D01*
X364267Y5088D01*
X364367Y4999D01*
X364467Y4888D01*
X364567Y4754D01*
X364656Y4632D01*
X364744Y4510D01*
X364800Y4410D01*
X364844Y4332D01*
X364856Y4321D01*
Y5165D01*
X365711D01*
Y-412D01*
X364767D01*
Y2499D01*
X364756Y2721D01*
X364744Y2921D01*
X364722Y3110D01*
X364689Y3277D01*
X364656Y3410D01*
X364633Y3510D01*
X364622Y3577D01*
X364611Y3599D01*
X364567Y3721D01*
X364511Y3821D01*
X364456Y3910D01*
X364400Y3988D01*
X364345Y4043D01*
X364311Y4088D01*
X364278Y4110D01*
X364267Y4121D01*
X364178Y4188D01*
X364078Y4232D01*
X363978Y4265D01*
X363900Y4288D01*
X363822Y4299D01*
X363767Y4310D01*
X363711D01*
X363589Y4299D01*
X363467Y4277D01*
X363345Y4243D01*
X363245Y4210D01*
X363156Y4177D01*
X363089Y4143D01*
X363045Y4121D01*
X363034Y4110D01*
X362689Y4976D01*
X362878Y5077D01*
X363056Y5154D01*
X363211Y5210D01*
X363356Y5254D01*
X363478Y5277D01*
X363578Y5288D01*
X363656D01*
X363778Y5277D01*
D02*
G37*
G36*
X404863D02*
X405040Y5265D01*
X405385Y5188D01*
X405685Y5088D01*
X405818Y5032D01*
X405940Y4976D01*
X406051Y4921D01*
X406140Y4865D01*
X406229Y4810D01*
X406296Y4765D01*
X406351Y4721D01*
X406396Y4688D01*
X406418Y4677D01*
X406429Y4665D01*
X406585Y4521D01*
X406707Y4354D01*
X406829Y4177D01*
X406918Y3999D01*
X407007Y3810D01*
X407073Y3610D01*
X407129Y3421D01*
X407173Y3243D01*
X407218Y3066D01*
X407240Y2910D01*
X407262Y2754D01*
X407273Y2632D01*
Y2521D01*
X407285Y2444D01*
Y2399D01*
Y2377D01*
X407273Y2121D01*
X407251Y1877D01*
X407218Y1655D01*
X407173Y1444D01*
X407118Y1255D01*
X407062Y1077D01*
X406996Y910D01*
X406929Y766D01*
X406862Y632D01*
X406796Y521D01*
X406740Y433D01*
X406685Y355D01*
X406640Y288D01*
X406607Y244D01*
X406585Y222D01*
X406574Y210D01*
X406429Y77D01*
X406285Y-34D01*
X406129Y-134D01*
X405974Y-223D01*
X405818Y-290D01*
X405652Y-356D01*
X405351Y-445D01*
X405218Y-467D01*
X405085Y-490D01*
X404974Y-512D01*
X404874Y-523D01*
X404785Y-534D01*
X404674D01*
X404407Y-523D01*
X404163Y-478D01*
X403929Y-423D01*
X403741Y-367D01*
X403574Y-301D01*
X403507Y-279D01*
X403452Y-256D01*
X403396Y-234D01*
X403363Y-212D01*
X403352Y-201D01*
X403341D01*
X403118Y-56D01*
X402929Y99D01*
X402763Y255D01*
X402630Y410D01*
X402530Y544D01*
X402452Y655D01*
X402430Y699D01*
X402407Y733D01*
X402396Y744D01*
Y755D01*
X402285Y1010D01*
X402207Y1288D01*
X402141Y1566D01*
X402107Y1843D01*
X402085Y1966D01*
Y2077D01*
X402074Y2188D01*
X402063Y2277D01*
Y2355D01*
Y2410D01*
Y2444D01*
Y2455D01*
X402074Y2699D01*
X402096Y2921D01*
X402130Y3132D01*
X402174Y3332D01*
X402230Y3521D01*
X402296Y3688D01*
X402363Y3854D01*
X402430Y3988D01*
X402496Y4110D01*
X402563Y4221D01*
X402630Y4321D01*
X402685Y4399D01*
X402730Y4454D01*
X402763Y4499D01*
X402785Y4521D01*
X402796Y4532D01*
X402941Y4665D01*
X403085Y4777D01*
X403241Y4888D01*
X403396Y4965D01*
X403552Y5043D01*
X403707Y5099D01*
X404007Y5199D01*
X404152Y5221D01*
X404274Y5243D01*
X404385Y5265D01*
X404485Y5277D01*
X404563Y5288D01*
X404674D01*
X404863Y5277D01*
D02*
G37*
G36*
X416817D02*
X416995Y5265D01*
X417339Y5188D01*
X417639Y5088D01*
X417772Y5032D01*
X417895Y4976D01*
X418006Y4921D01*
X418095Y4865D01*
X418184Y4810D01*
X418250Y4765D01*
X418306Y4721D01*
X418350Y4688D01*
X418372Y4677D01*
X418384Y4665D01*
X418539Y4521D01*
X418661Y4354D01*
X418784Y4177D01*
X418872Y3999D01*
X418961Y3810D01*
X419028Y3610D01*
X419083Y3421D01*
X419128Y3243D01*
X419172Y3066D01*
X419195Y2910D01*
X419217Y2754D01*
X419228Y2632D01*
Y2521D01*
X419239Y2444D01*
Y2399D01*
Y2377D01*
X419228Y2121D01*
X419206Y1877D01*
X419172Y1655D01*
X419128Y1444D01*
X419072Y1255D01*
X419017Y1077D01*
X418950Y910D01*
X418884Y766D01*
X418817Y632D01*
X418750Y521D01*
X418695Y433D01*
X418639Y355D01*
X418595Y288D01*
X418561Y244D01*
X418539Y222D01*
X418528Y210D01*
X418384Y77D01*
X418239Y-34D01*
X418084Y-134D01*
X417928Y-223D01*
X417772Y-290D01*
X417606Y-356D01*
X417306Y-445D01*
X417172Y-467D01*
X417039Y-490D01*
X416928Y-512D01*
X416828Y-523D01*
X416739Y-534D01*
X416628D01*
X416362Y-523D01*
X416117Y-478D01*
X415884Y-423D01*
X415695Y-367D01*
X415528Y-301D01*
X415462Y-279D01*
X415406Y-256D01*
X415350Y-234D01*
X415317Y-212D01*
X415306Y-201D01*
X415295D01*
X415073Y-56D01*
X414884Y99D01*
X414717Y255D01*
X414584Y410D01*
X414484Y544D01*
X414406Y655D01*
X414384Y699D01*
X414362Y733D01*
X414351Y744D01*
Y755D01*
X414240Y1010D01*
X414162Y1288D01*
X414095Y1566D01*
X414062Y1843D01*
X414040Y1966D01*
Y2077D01*
X414028Y2188D01*
X414017Y2277D01*
Y2355D01*
Y2410D01*
Y2444D01*
Y2455D01*
X414028Y2699D01*
X414051Y2921D01*
X414084Y3132D01*
X414128Y3332D01*
X414184Y3521D01*
X414251Y3688D01*
X414317Y3854D01*
X414384Y3988D01*
X414451Y4110D01*
X414517Y4221D01*
X414584Y4321D01*
X414640Y4399D01*
X414684Y4454D01*
X414717Y4499D01*
X414740Y4521D01*
X414751Y4532D01*
X414895Y4665D01*
X415039Y4777D01*
X415195Y4888D01*
X415350Y4965D01*
X415506Y5043D01*
X415662Y5099D01*
X415962Y5199D01*
X416106Y5221D01*
X416228Y5243D01*
X416339Y5265D01*
X416439Y5277D01*
X416517Y5288D01*
X416628D01*
X416817Y5277D01*
D02*
G37*
G36*
X155001Y159555D02*
X155001Y126102D01*
X155000Y126101D01*
X154197Y125996D01*
X153449Y125686D01*
X152807Y125193D01*
X152314Y124551D01*
X152004Y123803D01*
X151899Y123000D01*
X152004Y122197D01*
X152314Y121449D01*
X152807Y120807D01*
X152961Y120689D01*
Y93345D01*
X150632Y91016D01*
X144043D01*
X143925Y91169D01*
X143283Y91662D01*
X142535Y91972D01*
X141732Y92078D01*
X140930Y91972D01*
X140182Y91662D01*
X139539Y91169D01*
X139047Y90527D01*
X138737Y89779D01*
X138631Y88976D01*
X138737Y88174D01*
X139047Y87426D01*
X139539Y86783D01*
X139871Y86529D01*
X140181Y86290D01*
X139961Y85743D01*
X139814Y85551D01*
X139504Y84803D01*
X139399Y84000D01*
X139504Y83197D01*
X139814Y82449D01*
X140307Y81807D01*
X140949Y81314D01*
X141697Y81004D01*
X142500Y80899D01*
X143303Y81004D01*
X144051Y81314D01*
X144693Y81807D01*
X144811Y81961D01*
X150000D01*
X150780Y82116D01*
X151442Y82558D01*
X154455Y85571D01*
X155000Y85345D01*
X155000Y53206D01*
X124311D01*
X124210Y53186D01*
X121030Y53030D01*
X117805Y52552D01*
X114641Y51759D01*
X111570Y50660D01*
X108622Y49266D01*
X105825Y47589D01*
X103205Y45647D01*
X100789Y43456D01*
X98598Y41040D01*
X96656Y38420D01*
X94979Y35623D01*
X93585Y32675D01*
X92486Y29604D01*
X91694Y26441D01*
X91215Y23215D01*
X91055Y19957D01*
X91062D01*
Y9436D01*
Y5058D01*
X91078Y4976D01*
Y-6842D01*
X15510D01*
Y-0D01*
X15510Y0D01*
X15524D01*
X15333Y2428D01*
X14764Y4797D01*
X13832Y7048D01*
X12559Y9125D01*
X10977Y10977D01*
X9125Y12559D01*
X7048Y13832D01*
X4797Y14764D01*
X2428Y15333D01*
X0Y15524D01*
Y15510D01*
X-6856D01*
Y21324D01*
X-6266Y21535D01*
X-5679Y20821D01*
X-4355Y19734D01*
X-2844Y18926D01*
X-1205Y18429D01*
X500Y18261D01*
X2205Y18429D01*
X3844Y18926D01*
X5355Y19734D01*
X6679Y20821D01*
X7766Y22145D01*
X8574Y23656D01*
X9071Y25295D01*
X9239Y27000D01*
X9071Y28705D01*
X8574Y30344D01*
X7766Y31855D01*
X6679Y33179D01*
X5355Y34266D01*
X3844Y35074D01*
X2205Y35571D01*
X500Y35739D01*
X-1205Y35571D01*
X-2844Y35074D01*
X-4355Y34266D01*
X-5679Y33179D01*
X-6266Y32465D01*
X-6856Y32676D01*
Y138306D01*
X272D01*
Y138291D01*
X2701Y138482D01*
X5069Y139051D01*
X7320Y139983D01*
X8363Y140622D01*
X9057Y140355D01*
X9412Y139497D01*
X10214Y138452D01*
X11258Y137651D01*
X11842Y137409D01*
Y93666D01*
X11252Y93310D01*
X10803Y93496D01*
X10000Y93601D01*
X9197Y93496D01*
X8449Y93186D01*
X7807Y92693D01*
X7314Y92051D01*
X7004Y91303D01*
X6899Y90500D01*
X7004Y89697D01*
X7314Y88949D01*
X7807Y88307D01*
X8449Y87814D01*
X9197Y87504D01*
X10000Y87399D01*
X10063Y87344D01*
Y78000D01*
Y14000D01*
X10210Y13259D01*
X10630Y12630D01*
X23583Y-323D01*
X24211Y-742D01*
X24953Y-890D01*
X71564D01*
X71760Y-1146D01*
X72402Y-1639D01*
X73150Y-1948D01*
X73953Y-2054D01*
X74755Y-1948D01*
X75503Y-1639D01*
X76146Y-1146D01*
X76639Y-503D01*
X76948Y245D01*
X77054Y1047D01*
X76948Y1850D01*
X76639Y2598D01*
X76146Y3240D01*
X75890Y3436D01*
Y63500D01*
Y64150D01*
X76802Y65063D01*
X103611D01*
X103807Y64807D01*
X104404Y64349D01*
X104431Y64136D01*
X104385Y63702D01*
X103731Y63431D01*
X102791Y62709D01*
X102069Y61769D01*
X101616Y60675D01*
X101527Y60000D01*
X106000D01*
Y59500D01*
X106500D01*
Y55027D01*
X107175Y55116D01*
X108269Y55569D01*
X109209Y56291D01*
X109931Y57231D01*
X110384Y58325D01*
X110450Y58825D01*
X111046D01*
X111129Y58195D01*
X111633Y56978D01*
X112434Y55934D01*
X113478Y55133D01*
X114695Y54629D01*
X116000Y54457D01*
X117305Y54629D01*
X118522Y55133D01*
X119566Y55934D01*
X120368Y56978D01*
X120680Y57734D01*
X121320D01*
X121633Y56978D01*
X122434Y55934D01*
X123478Y55133D01*
X124695Y54629D01*
X126000Y54457D01*
X127305Y54629D01*
X128522Y55133D01*
X129566Y55934D01*
X130368Y56978D01*
X130680Y57734D01*
X131320D01*
X131632Y56978D01*
X132434Y55934D01*
X133478Y55133D01*
X134695Y54629D01*
X136000Y54457D01*
X137305Y54629D01*
X138522Y55133D01*
X139566Y55934D01*
X140367Y56978D01*
X140409Y57080D01*
X141000Y56962D01*
Y54500D01*
X151000D01*
Y64500D01*
X141000D01*
Y62038D01*
X140409Y61920D01*
X140367Y62022D01*
X139566Y63066D01*
X138522Y63867D01*
X137305Y64371D01*
X136000Y64543D01*
X134695Y64371D01*
X133478Y63867D01*
X132434Y63066D01*
X131632Y62022D01*
X131320Y61266D01*
X130680D01*
X130368Y62022D01*
X129566Y63066D01*
X128522Y63867D01*
X127305Y64371D01*
X126000Y64543D01*
X124695Y64371D01*
X123478Y63867D01*
X122434Y63066D01*
X121633Y62022D01*
X121320Y61266D01*
X120680D01*
X120368Y62022D01*
X119566Y63066D01*
X118522Y63867D01*
X117937Y64109D01*
Y64804D01*
X118913Y65779D01*
X129134D01*
X129875Y65927D01*
X130504Y66347D01*
X133653Y69496D01*
X134073Y70125D01*
X134221Y70866D01*
Y85827D01*
X134073Y86568D01*
X133653Y87197D01*
X129716Y91134D01*
X129088Y91553D01*
X128347Y91701D01*
X114988D01*
X114791Y91957D01*
X114149Y92450D01*
X113401Y92759D01*
X112598Y92865D01*
X111796Y92759D01*
X111048Y92450D01*
X110406Y91957D01*
X109913Y91314D01*
X109603Y90566D01*
X109497Y89764D01*
X109603Y88961D01*
X109913Y88213D01*
X110406Y87571D01*
X111048Y87078D01*
X111796Y86768D01*
X112598Y86663D01*
X113401Y86768D01*
X114149Y87078D01*
X114791Y87571D01*
X114988Y87827D01*
X127544D01*
X129943Y85428D01*
X129918Y85104D01*
X129500Y84601D01*
X128697Y84496D01*
X127949Y84186D01*
X127307Y83693D01*
X126814Y83051D01*
X126504Y82303D01*
X126399Y81500D01*
X126504Y80697D01*
X126814Y79949D01*
X127307Y79307D01*
X127563Y79111D01*
Y71937D01*
X79389D01*
X79193Y72193D01*
X78551Y72686D01*
X77803Y72996D01*
X77000Y73101D01*
X76197Y72996D01*
X75449Y72686D01*
X74807Y72193D01*
X74611Y71937D01*
X64500D01*
X63759Y71790D01*
X63130Y71370D01*
X61630Y69870D01*
X61210Y69241D01*
X61063Y68500D01*
Y62029D01*
X60472Y61829D01*
X60193Y62193D01*
X60039Y62311D01*
Y97655D01*
X61345Y98961D01*
X64689D01*
X64807Y98807D01*
X65449Y98314D01*
X66197Y98004D01*
X67000Y97899D01*
X67803Y98004D01*
X68551Y98314D01*
X69193Y98807D01*
X69686Y99449D01*
X69996Y100197D01*
X70101Y101000D01*
X69996Y101803D01*
X69686Y102551D01*
X69193Y103193D01*
X68551Y103686D01*
X67803Y103996D01*
X67000Y104101D01*
X66197Y103996D01*
X65449Y103686D01*
X64807Y103193D01*
X64689Y103039D01*
X61733D01*
X61507Y103585D01*
X67649Y109726D01*
X108226D01*
Y107339D01*
X108004Y106803D01*
X107899Y106000D01*
X108004Y105197D01*
X108314Y104449D01*
X108807Y103807D01*
X109449Y103314D01*
X110197Y103004D01*
X111000Y102899D01*
X111803Y103004D01*
X112551Y103314D01*
X113193Y103807D01*
X113686Y104449D01*
X113996Y105197D01*
X114101Y106000D01*
X113996Y106803D01*
X113774Y107339D01*
Y109726D01*
X145161D01*
X145697Y109504D01*
X146500Y109399D01*
X147303Y109504D01*
X148051Y109814D01*
X148693Y110307D01*
X149186Y110949D01*
X149496Y111697D01*
X149601Y112500D01*
X149496Y113303D01*
X149186Y114051D01*
X148693Y114693D01*
X148051Y115186D01*
X147303Y115496D01*
X146500Y115601D01*
X145697Y115496D01*
X145161Y115274D01*
X111539D01*
Y125689D01*
X111693Y125807D01*
X112186Y126449D01*
X112496Y127197D01*
X112601Y128000D01*
X112496Y128803D01*
X112186Y129551D01*
X111693Y130193D01*
X111051Y130686D01*
X110303Y130996D01*
X109500Y131101D01*
X108697Y130996D01*
X107949Y130686D01*
X107307Y130193D01*
X106814Y129551D01*
X106504Y128803D01*
X106399Y128000D01*
X106504Y127197D01*
X106814Y126449D01*
X107307Y125807D01*
X107461Y125689D01*
Y115274D01*
X66500D01*
X65782Y115179D01*
X65113Y114902D01*
X64539Y114461D01*
X53541Y103464D01*
X52864Y103621D01*
X52686Y104051D01*
X52193Y104693D01*
X51551Y105186D01*
X50803Y105496D01*
X50000Y105601D01*
X49197Y105496D01*
X48449Y105186D01*
X47807Y104693D01*
X47689Y104539D01*
X40000D01*
X39220Y104384D01*
X38558Y103942D01*
X36558Y101942D01*
X36116Y101280D01*
X35961Y100500D01*
Y80311D01*
X35807Y80193D01*
X35314Y79551D01*
X35004Y78803D01*
X34899Y78000D01*
X35004Y77197D01*
X35314Y76449D01*
X35807Y75807D01*
X36449Y75314D01*
X37197Y75004D01*
X38000Y74899D01*
X38803Y75004D01*
X39551Y75314D01*
X40193Y75807D01*
X40686Y76449D01*
X40996Y77197D01*
X41101Y78000D01*
X40996Y78803D01*
X40686Y79551D01*
X40193Y80193D01*
X40039Y80311D01*
Y99655D01*
X40845Y100461D01*
X47689D01*
X47807Y100307D01*
X48449Y99814D01*
X48879Y99636D01*
X49036Y98959D01*
X46374Y96296D01*
X45838Y96074D01*
X45196Y95582D01*
X44703Y94939D01*
X44393Y94191D01*
X44287Y93389D01*
X44393Y92586D01*
X44615Y92050D01*
Y53262D01*
X40880Y49527D01*
X40291Y49566D01*
X40193Y49693D01*
X39551Y50186D01*
X38803Y50496D01*
X38000Y50601D01*
X37197Y50496D01*
X36449Y50186D01*
X35807Y49693D01*
X35611Y49437D01*
X27302D01*
X21937Y54802D01*
Y79111D01*
X22193Y79307D01*
X22686Y79949D01*
X22996Y80697D01*
X23101Y81500D01*
X22996Y82303D01*
X22686Y83051D01*
X22193Y83693D01*
X21551Y84186D01*
X20803Y84496D01*
X20000Y84601D01*
X19528Y84539D01*
X18937Y84975D01*
Y100698D01*
X19302Y101063D01*
X27611D01*
X27807Y100807D01*
X28449Y100314D01*
X29197Y100004D01*
X30000Y99899D01*
X30803Y100004D01*
X31551Y100314D01*
X32193Y100807D01*
X32686Y101449D01*
X32996Y102197D01*
X33101Y103000D01*
X32996Y103803D01*
X32686Y104551D01*
X32193Y105193D01*
X31551Y105686D01*
X30803Y105996D01*
X30000Y106101D01*
X29197Y105996D01*
X28449Y105686D01*
X27807Y105193D01*
X27611Y104937D01*
X18500D01*
X18028Y104843D01*
X17437Y105231D01*
Y128198D01*
X19321Y130081D01*
X48629D01*
X48975Y129244D01*
X49857Y128095D01*
X51006Y127214D01*
X52344Y126660D01*
X53780Y126471D01*
X55215Y126660D01*
X56553Y127214D01*
X57033Y127582D01*
X57563Y127321D01*
Y122389D01*
X57307Y122193D01*
X56814Y121551D01*
X56504Y120803D01*
X56399Y120000D01*
X56504Y119197D01*
X56814Y118449D01*
X57307Y117807D01*
X57949Y117314D01*
X58697Y117004D01*
X59500Y116899D01*
X60303Y117004D01*
X61051Y117314D01*
X61693Y117807D01*
X62186Y118449D01*
X62496Y119197D01*
X62601Y120000D01*
X62496Y120803D01*
X62410Y121009D01*
X62738Y121500D01*
X70000D01*
Y123962D01*
X70591Y124080D01*
X70632Y123978D01*
X71434Y122934D01*
X72478Y122133D01*
X73695Y121629D01*
X75000Y121457D01*
X76305Y121629D01*
X77522Y122133D01*
X78566Y122934D01*
X79368Y123978D01*
X79871Y125195D01*
X80043Y126500D01*
X79871Y127805D01*
X79368Y129022D01*
X78566Y130066D01*
X77522Y130868D01*
X76305Y131371D01*
X75000Y131543D01*
X73695Y131371D01*
X72478Y130868D01*
X71434Y130066D01*
X70632Y129022D01*
X70591Y128920D01*
X70000Y129038D01*
Y131500D01*
X61437D01*
Y137565D01*
X65211D01*
Y146471D01*
X57092D01*
Y145971D01*
X54508D01*
X54469Y146562D01*
X55215Y146660D01*
X56553Y147214D01*
X57702Y148096D01*
X58584Y149244D01*
X59138Y150582D01*
X59327Y152018D01*
X59138Y153454D01*
X58584Y154792D01*
X57702Y155941D01*
X56553Y156822D01*
X55215Y157377D01*
X53780Y157566D01*
X52344Y157377D01*
X51006Y156822D01*
X49857Y155941D01*
X48975Y154792D01*
X48421Y153454D01*
X48232Y152018D01*
X48421Y150582D01*
X48975Y149244D01*
X49857Y148096D01*
X51006Y147214D01*
X52344Y146660D01*
X53090Y146562D01*
X53051Y145971D01*
X50112D01*
Y142518D01*
X53671D01*
Y141518D01*
X50112D01*
Y138065D01*
X53051D01*
X53090Y137475D01*
X52344Y137377D01*
X51006Y136822D01*
X49857Y135941D01*
X48975Y134792D01*
X48629Y133955D01*
X18518D01*
X17777Y133808D01*
X17148Y133388D01*
X16262Y132502D01*
X15717Y132728D01*
Y137409D01*
X16301Y137651D01*
X17346Y138452D01*
X18147Y139497D01*
X18651Y140713D01*
X18823Y142018D01*
X18651Y143323D01*
X18147Y144540D01*
X17346Y145584D01*
X16301Y146386D01*
X15085Y146889D01*
X14684Y146942D01*
X14389Y147454D01*
X15037Y149018D01*
X15605Y151387D01*
X15788Y153712D01*
X15812Y153829D01*
Y159973D01*
X154583D01*
X155001Y159555D01*
D02*
G37*
G36*
X369611Y5277D02*
X369811Y5254D01*
X370000Y5221D01*
X370177Y5165D01*
X370344Y5110D01*
X370499Y5043D01*
X370644Y4976D01*
X370766Y4899D01*
X370888Y4832D01*
X370988Y4754D01*
X371077Y4688D01*
X371144Y4632D01*
X371199Y4577D01*
X371244Y4543D01*
X371266Y4521D01*
X371277Y4510D01*
X371399Y4354D01*
X371510Y4188D01*
X371610Y4021D01*
X371699Y3843D01*
X371766Y3654D01*
X371821Y3477D01*
X371910Y3121D01*
X371944Y2966D01*
X371966Y2810D01*
X371977Y2677D01*
X371988Y2555D01*
X371999Y2455D01*
Y2388D01*
Y2332D01*
Y2321D01*
X371988Y2077D01*
X371966Y1843D01*
X371933Y1621D01*
X371888Y1421D01*
X371833Y1233D01*
X371777Y1055D01*
X371710Y899D01*
X371644Y755D01*
X371577Y632D01*
X371510Y521D01*
X371455Y433D01*
X371399Y355D01*
X371355Y288D01*
X371322Y244D01*
X371299Y222D01*
X371288Y210D01*
X371144Y77D01*
X370999Y-34D01*
X370844Y-134D01*
X370677Y-223D01*
X370522Y-290D01*
X370355Y-356D01*
X370044Y-445D01*
X369900Y-467D01*
X369766Y-490D01*
X369644Y-512D01*
X369544Y-523D01*
X369466Y-534D01*
X369344D01*
X369000Y-512D01*
X368689Y-456D01*
X368411Y-390D01*
X368300Y-345D01*
X368189Y-301D01*
X368089Y-256D01*
X368000Y-212D01*
X367933Y-178D01*
X367866Y-145D01*
X367822Y-112D01*
X367789Y-90D01*
X367766Y-67D01*
X367755D01*
X367533Y133D01*
X367355Y344D01*
X367200Y566D01*
X367089Y777D01*
X367000Y966D01*
X366966Y1055D01*
X366933Y1121D01*
X366911Y1188D01*
X366900Y1233D01*
X366889Y1255D01*
Y1266D01*
X367866Y1388D01*
X367955Y1177D01*
X368055Y999D01*
X368155Y844D01*
X368244Y721D01*
X368322Y632D01*
X368389Y566D01*
X368444Y521D01*
X368455Y510D01*
X368600Y421D01*
X368744Y355D01*
X368900Y310D01*
X369033Y277D01*
X369155Y255D01*
X369255Y244D01*
X369344D01*
X369477Y255D01*
X369600Y266D01*
X369822Y322D01*
X370022Y399D01*
X370199Y488D01*
X370333Y566D01*
X370433Y644D01*
X370499Y699D01*
X370511Y721D01*
X370522D01*
X370677Y921D01*
X370799Y1144D01*
X370888Y1388D01*
X370955Y1610D01*
X370988Y1810D01*
X371010Y1899D01*
X371022Y1977D01*
Y2043D01*
X371033Y2088D01*
Y2121D01*
Y2132D01*
X366866D01*
X366855Y2244D01*
Y2321D01*
Y2366D01*
Y2377D01*
X366866Y2632D01*
X366889Y2866D01*
X366922Y3088D01*
X366966Y3299D01*
X367022Y3488D01*
X367078Y3666D01*
X367144Y3821D01*
X367211Y3965D01*
X367278Y4099D01*
X367344Y4210D01*
X367400Y4299D01*
X367455Y4377D01*
X367500Y4443D01*
X367533Y4488D01*
X367555Y4510D01*
X367566Y4521D01*
X367700Y4654D01*
X367844Y4777D01*
X368000Y4877D01*
X368155Y4965D01*
X368311Y5043D01*
X368455Y5099D01*
X368611Y5154D01*
X368744Y5188D01*
X368888Y5221D01*
X369011Y5243D01*
X369122Y5265D01*
X369211Y5277D01*
X369288Y5288D01*
X369399D01*
X369611Y5277D01*
D02*
G37*
%LPC*%
G36*
X424950Y3143D02*
X422928D01*
X422694Y3121D01*
X422505Y3099D01*
X422350Y3077D01*
X422228Y3054D01*
X422128Y3032D01*
X422083Y3021D01*
X422061Y3010D01*
X421916Y2954D01*
X421794Y2888D01*
X421683Y2810D01*
X421594Y2732D01*
X421528Y2666D01*
X421483Y2610D01*
X421450Y2566D01*
X421439Y2555D01*
X421361Y2432D01*
X421306Y2310D01*
X421261Y2188D01*
X421239Y2077D01*
X421217Y1977D01*
X421206Y1888D01*
Y1843D01*
Y1821D01*
X421217Y1688D01*
X421228Y1555D01*
X421250Y1444D01*
X421283Y1355D01*
X421317Y1277D01*
X421339Y1210D01*
X421350Y1177D01*
X421361Y1166D01*
X421428Y1066D01*
X421483Y977D01*
X421561Y910D01*
X421617Y844D01*
X421672Y799D01*
X421716Y766D01*
X421750Y744D01*
X421761Y733D01*
X421950Y644D01*
X422139Y577D01*
X422217Y555D01*
X422283Y544D01*
X422328Y532D01*
X422339D01*
X422428Y521D01*
X422528Y510D01*
X422761Y499D01*
X424950D01*
Y3143D01*
D02*
G37*
G36*
X404740Y4510D02*
X404674D01*
X404540Y4499D01*
X404418Y4488D01*
X404196Y4432D01*
X403996Y4343D01*
X403829Y4243D01*
X403696Y4143D01*
X403596Y4065D01*
X403530Y3999D01*
X403507Y3988D01*
Y3977D01*
X403418Y3877D01*
X403352Y3754D01*
X403230Y3510D01*
X403141Y3243D01*
X403085Y2999D01*
X403052Y2766D01*
X403041Y2666D01*
Y2577D01*
X403029Y2510D01*
Y2455D01*
Y2421D01*
Y2410D01*
Y2210D01*
X403052Y2021D01*
X403074Y1855D01*
X403107Y1688D01*
X403141Y1543D01*
X403185Y1410D01*
X403218Y1288D01*
X403263Y1177D01*
X403307Y1088D01*
X403352Y999D01*
X403396Y933D01*
X403430Y877D01*
X403463Y833D01*
X403485Y799D01*
X403496Y788D01*
X403507Y777D01*
X403596Y688D01*
X403696Y599D01*
X403885Y466D01*
X404085Y377D01*
X404263Y310D01*
X404429Y277D01*
X404552Y255D01*
X404607Y244D01*
X404674D01*
X404807Y255D01*
X404929Y266D01*
X405163Y322D01*
X405363Y410D01*
X405529Y510D01*
X405663Y599D01*
X405763Y688D01*
X405829Y744D01*
X405840Y766D01*
X405852D01*
X405929Y877D01*
X406007Y988D01*
X406118Y1244D01*
X406207Y1510D01*
X406262Y1777D01*
X406296Y2010D01*
X406307Y2110D01*
Y2199D01*
X406318Y2277D01*
Y2332D01*
Y2366D01*
Y2377D01*
X406307Y2566D01*
X406296Y2754D01*
X406274Y2921D01*
X406240Y3077D01*
X406207Y3221D01*
X406174Y3354D01*
X406129Y3466D01*
X406085Y3577D01*
X406040Y3666D01*
X405996Y3754D01*
X405963Y3821D01*
X405929Y3877D01*
X405896Y3921D01*
X405874Y3954D01*
X405852Y3965D01*
Y3977D01*
X405763Y4065D01*
X405663Y4154D01*
X405474Y4288D01*
X405274Y4377D01*
X405085Y4443D01*
X404918Y4488D01*
X404796Y4499D01*
X404740Y4510D01*
D02*
G37*
G36*
X416695D02*
X416628D01*
X416495Y4499D01*
X416373Y4488D01*
X416150Y4432D01*
X415950Y4343D01*
X415784Y4243D01*
X415651Y4143D01*
X415551Y4065D01*
X415484Y3999D01*
X415462Y3988D01*
Y3977D01*
X415373Y3877D01*
X415306Y3754D01*
X415184Y3510D01*
X415095Y3243D01*
X415039Y2999D01*
X415006Y2766D01*
X414995Y2666D01*
Y2577D01*
X414984Y2510D01*
Y2455D01*
Y2421D01*
Y2410D01*
Y2210D01*
X415006Y2021D01*
X415028Y1855D01*
X415062Y1688D01*
X415095Y1543D01*
X415139Y1410D01*
X415173Y1288D01*
X415217Y1177D01*
X415262Y1088D01*
X415306Y999D01*
X415350Y933D01*
X415384Y877D01*
X415417Y833D01*
X415439Y799D01*
X415450Y788D01*
X415462Y777D01*
X415551Y688D01*
X415651Y599D01*
X415839Y466D01*
X416039Y377D01*
X416217Y310D01*
X416384Y277D01*
X416506Y255D01*
X416562Y244D01*
X416628D01*
X416761Y255D01*
X416884Y266D01*
X417117Y322D01*
X417317Y410D01*
X417484Y510D01*
X417617Y599D01*
X417717Y688D01*
X417784Y744D01*
X417795Y766D01*
X417806D01*
X417884Y877D01*
X417961Y988D01*
X418073Y1244D01*
X418161Y1510D01*
X418217Y1777D01*
X418250Y2010D01*
X418261Y2110D01*
Y2199D01*
X418272Y2277D01*
Y2332D01*
Y2366D01*
Y2377D01*
X418261Y2566D01*
X418250Y2754D01*
X418228Y2921D01*
X418195Y3077D01*
X418161Y3221D01*
X418128Y3354D01*
X418084Y3466D01*
X418039Y3577D01*
X417995Y3666D01*
X417950Y3754D01*
X417917Y3821D01*
X417884Y3877D01*
X417850Y3921D01*
X417828Y3954D01*
X417806Y3965D01*
Y3977D01*
X417717Y4065D01*
X417617Y4154D01*
X417428Y4288D01*
X417228Y4377D01*
X417039Y4443D01*
X416873Y4488D01*
X416750Y4499D01*
X416695Y4510D01*
D02*
G37*
G36*
X379476Y2388D02*
X379465D01*
X379476Y2032D01*
X379487Y1810D01*
X379499Y1621D01*
X379521Y1466D01*
X379554Y1333D01*
X379587Y1233D01*
X379610Y1155D01*
X379621Y1110D01*
X379632Y1099D01*
X379721Y955D01*
X379810Y821D01*
X379921Y710D01*
X380021Y621D01*
X380110Y544D01*
X380187Y488D01*
X380232Y455D01*
X380254Y444D01*
X380421Y366D01*
X380587Y310D01*
X380743Y266D01*
X380898Y244D01*
X381021Y222D01*
X381132Y210D01*
X381221D01*
X381421Y222D01*
X381587Y244D01*
X381732Y288D01*
X381854Y333D01*
X381943Y377D01*
X382009Y421D01*
X382054Y444D01*
X382065Y455D01*
X382154Y555D01*
X382221Y666D01*
X382276Y766D01*
X382309Y866D01*
X382332Y955D01*
X382343Y1021D01*
Y1077D01*
Y1088D01*
X382332Y1177D01*
X382320Y1266D01*
X382298Y1333D01*
X382276Y1399D01*
X382254Y1455D01*
X382243Y1499D01*
X382221Y1521D01*
Y1532D01*
X382109Y1666D01*
X381976Y1755D01*
X381932Y1788D01*
X381887Y1810D01*
X381854Y1832D01*
X381843D01*
X381732Y1877D01*
X381609Y1910D01*
X381476Y1943D01*
X381343Y1966D01*
X381221Y1988D01*
X381109Y2010D01*
X381043Y2021D01*
X381021D01*
X380832Y2055D01*
X380654Y2077D01*
X380498Y2110D01*
X380343Y2144D01*
X380199Y2177D01*
X380076Y2210D01*
X379954Y2232D01*
X379854Y2266D01*
X379765Y2288D01*
X379687Y2310D01*
X379621Y2332D01*
X379565Y2355D01*
X379521Y2366D01*
X379487Y2377D01*
X379476Y2388D01*
D02*
G37*
G36*
X2792Y137225D02*
X2116Y137158D01*
X985Y136815D01*
X-58Y136258D01*
X-971Y135508D01*
X-1721Y134594D01*
X-2278Y133552D01*
X-2621Y132421D01*
X-2688Y131745D01*
X2792D01*
Y137225D01*
D02*
G37*
G36*
X9272Y130745D02*
X3792D01*
Y125265D01*
X4468Y125332D01*
X5599Y125675D01*
X6642Y126232D01*
X7555Y126982D01*
X8305Y127895D01*
X8862Y128938D01*
X9205Y130069D01*
X9272Y130745D01*
D02*
G37*
G36*
X2792D02*
X-2688D01*
X-2621Y130069D01*
X-2278Y128938D01*
X-1721Y127895D01*
X-971Y126982D01*
X-58Y126232D01*
X985Y125675D01*
X2116Y125332D01*
X2792Y125265D01*
Y130745D01*
D02*
G37*
G36*
X108963Y147877D02*
X107820Y147765D01*
X106721Y147431D01*
X105708Y146890D01*
X104821Y146161D01*
X104203Y145408D01*
X104025Y145274D01*
X103429Y145285D01*
X102842Y145736D01*
X101807Y146165D01*
X100696Y146311D01*
X99585Y146165D01*
X98549Y145736D01*
X97660Y145054D01*
X97108Y144334D01*
X96947Y144286D01*
X96570D01*
X96409Y144334D01*
X95857Y145054D01*
X94968Y145736D01*
X93933Y146165D01*
X92822Y146311D01*
X91711Y146165D01*
X90675Y145736D01*
X89786Y145054D01*
X89104Y144165D01*
X88934Y143753D01*
X88295D01*
X88228Y143912D01*
X87626Y144697D01*
X86842Y145299D01*
X85928Y145677D01*
X85448Y145741D01*
Y142018D01*
Y138296D01*
X85928Y138359D01*
X86842Y138737D01*
X87626Y139339D01*
X88228Y140124D01*
X88295Y140283D01*
X88934D01*
X89104Y139872D01*
X89786Y138983D01*
X90675Y138301D01*
X91711Y137872D01*
X92822Y137725D01*
X93933Y137872D01*
X94968Y138301D01*
X95857Y138983D01*
X96409Y139702D01*
X96570Y139750D01*
X96947D01*
X97108Y139702D01*
X97660Y138983D01*
X98549Y138301D01*
X99585Y137872D01*
X100696Y137725D01*
X101807Y137872D01*
X102842Y138301D01*
X103429Y138751D01*
X104025Y138762D01*
X104203Y138628D01*
X104821Y137875D01*
X105708Y137147D01*
X106721Y136605D01*
X107820Y136272D01*
X108963Y136159D01*
X110106Y136272D01*
X111205Y136605D01*
X112218Y137147D01*
X113106Y137875D01*
X113835Y138763D01*
X114376Y139776D01*
X114710Y140875D01*
X114822Y142018D01*
X114710Y143161D01*
X114376Y144260D01*
X113835Y145273D01*
X113106Y146161D01*
X112218Y146890D01*
X111205Y147431D01*
X110106Y147765D01*
X108963Y147877D01*
D02*
G37*
G36*
X76680D02*
X75537Y147765D01*
X74438Y147431D01*
X73425Y146890D01*
X72537Y146161D01*
X71808Y145273D01*
X71267Y144260D01*
X70934Y143161D01*
X70821Y142018D01*
X70934Y140875D01*
X71267Y139776D01*
X71808Y138763D01*
X72537Y137875D01*
X73425Y137147D01*
X74438Y136605D01*
X75537Y136272D01*
X76680Y136159D01*
X77823Y136272D01*
X78922Y136605D01*
X79935Y137147D01*
X80823Y137875D01*
X81551Y138763D01*
X81753Y139141D01*
X82453Y139198D01*
X83053Y138737D01*
X83967Y138359D01*
X84448Y138296D01*
Y142018D01*
Y145741D01*
X83967Y145677D01*
X83053Y145299D01*
X82453Y144839D01*
X81753Y144895D01*
X81551Y145273D01*
X80823Y146161D01*
X79935Y146890D01*
X78922Y147431D01*
X77823Y147765D01*
X76680Y147877D01*
D02*
G37*
G36*
X3792Y137225D02*
Y131745D01*
X9272D01*
X9205Y132421D01*
X8862Y133552D01*
X8305Y134594D01*
X7555Y135508D01*
X6642Y136258D01*
X5599Y136815D01*
X4468Y137158D01*
X3792Y137225D01*
D02*
G37*
G36*
X56921Y31000D02*
X53500D01*
Y27579D01*
X54032Y27649D01*
X54993Y28047D01*
X55819Y28681D01*
X56453Y29507D01*
X56851Y30468D01*
X56921Y31000D01*
D02*
G37*
G36*
X424950Y6365D02*
X423128D01*
X422883Y6343D01*
X422694Y6332D01*
X422528Y6310D01*
X422405Y6288D01*
X422328Y6276D01*
X422272Y6254D01*
X422261D01*
X422139Y6210D01*
X422028Y6143D01*
X421939Y6076D01*
X421861Y6010D01*
X421805Y5954D01*
X421761Y5899D01*
X421739Y5865D01*
X421728Y5854D01*
X421661Y5743D01*
X421617Y5632D01*
X421583Y5521D01*
X421561Y5410D01*
X421550Y5321D01*
X421539Y5254D01*
Y5210D01*
Y5188D01*
X421550Y5043D01*
X421572Y4910D01*
X421605Y4799D01*
X421639Y4710D01*
X421672Y4632D01*
X421705Y4566D01*
X421728Y4532D01*
X421739Y4521D01*
X421816Y4432D01*
X421916Y4343D01*
X422016Y4277D01*
X422105Y4232D01*
X422194Y4188D01*
X422261Y4154D01*
X422305Y4143D01*
X422328Y4132D01*
X422450Y4110D01*
X422605Y4088D01*
X422761Y4077D01*
X422916Y4065D01*
X423061Y4054D01*
X424950D01*
Y6365D01*
D02*
G37*
G36*
X369455Y4510D02*
X369388D01*
X369255Y4499D01*
X369133Y4488D01*
X368900Y4421D01*
X368700Y4332D01*
X368533Y4232D01*
X368400Y4132D01*
X368300Y4043D01*
X368244Y3977D01*
X368222Y3965D01*
Y3954D01*
X368122Y3810D01*
X368033Y3643D01*
X367977Y3477D01*
X367922Y3299D01*
X367889Y3154D01*
X367866Y3021D01*
Y2977D01*
X367855Y2943D01*
Y2921D01*
Y2910D01*
X370977D01*
X370944Y3166D01*
X370877Y3399D01*
X370799Y3599D01*
X370710Y3754D01*
X370633Y3888D01*
X370555Y3988D01*
X370511Y4043D01*
X370488Y4065D01*
X370311Y4210D01*
X370133Y4321D01*
X369944Y4399D01*
X369766Y4454D01*
X369622Y4488D01*
X369499Y4499D01*
X369455Y4510D01*
D02*
G37*
G36*
X4239Y107132D02*
X2980Y107008D01*
X1770Y106641D01*
X654Y106044D01*
X-323Y105242D01*
X-1126Y104264D01*
X-1722Y103149D01*
X-2089Y101938D01*
X-2213Y100680D01*
X-2089Y99421D01*
X-1722Y98210D01*
X-1126Y97095D01*
X-323Y96117D01*
X654Y95315D01*
X1770Y94718D01*
X2980Y94351D01*
X4239Y94227D01*
X5498Y94351D01*
X6708Y94718D01*
X7824Y95315D01*
X8801Y96117D01*
X9604Y97095D01*
X10200Y98210D01*
X10567Y99421D01*
X10691Y100680D01*
X10567Y101938D01*
X10200Y103149D01*
X9604Y104264D01*
X8801Y105242D01*
X7824Y106044D01*
X6708Y106641D01*
X5498Y107008D01*
X4239Y107132D01*
D02*
G37*
G36*
X105500Y59000D02*
X101527D01*
X101616Y58325D01*
X102069Y57231D01*
X102791Y56291D01*
X103731Y55569D01*
X104825Y55116D01*
X105500Y55027D01*
Y59000D01*
D02*
G37*
G36*
X53500Y35421D02*
Y32000D01*
X56921D01*
X56851Y32532D01*
X56453Y33493D01*
X55819Y34319D01*
X54993Y34953D01*
X54032Y35351D01*
X53500Y35421D01*
D02*
G37*
%LPD*%
G36*
X476664Y46832D02*
X475719D01*
Y52409D01*
X476664D01*
Y46832D01*
D02*
G37*
G36*
X482785Y47743D02*
X486574D01*
Y46832D01*
X481763D01*
Y54520D01*
X482785D01*
Y47743D01*
D02*
G37*
G36*
X490262Y52521D02*
X490429Y52509D01*
X490618Y52487D01*
X490807Y52454D01*
X490996Y52409D01*
X491173Y52354D01*
X491196Y52343D01*
X491251Y52321D01*
X491329Y52287D01*
X491429Y52243D01*
X491540Y52176D01*
X491651Y52109D01*
X491751Y52021D01*
X491840Y51932D01*
X491851Y51921D01*
X491873Y51887D01*
X491907Y51832D01*
X491951Y51765D01*
X492007Y51665D01*
X492051Y51565D01*
X492096Y51443D01*
X492129Y51298D01*
Y51287D01*
X492140Y51254D01*
X492151Y51187D01*
X492162Y51099D01*
Y50976D01*
X492173Y50832D01*
X492184Y50643D01*
Y50432D01*
Y49165D01*
Y49154D01*
Y49110D01*
Y49043D01*
Y48954D01*
Y48854D01*
Y48732D01*
X492196Y48465D01*
Y48188D01*
X492207Y47910D01*
X492218Y47788D01*
Y47677D01*
X492229Y47577D01*
X492240Y47499D01*
Y47488D01*
X492251Y47443D01*
X492262Y47377D01*
X492296Y47288D01*
X492318Y47188D01*
X492362Y47077D01*
X492418Y46955D01*
X492473Y46832D01*
X491484D01*
X491473Y46843D01*
X491462Y46888D01*
X491440Y46943D01*
X491407Y47032D01*
X491373Y47132D01*
X491351Y47254D01*
X491329Y47388D01*
X491307Y47532D01*
X491296D01*
X491285Y47510D01*
X491218Y47454D01*
X491118Y47377D01*
X490985Y47277D01*
X490818Y47177D01*
X490651Y47066D01*
X490474Y46966D01*
X490285Y46888D01*
X490262Y46877D01*
X490196Y46866D01*
X490096Y46832D01*
X489973Y46799D01*
X489818Y46766D01*
X489640Y46743D01*
X489440Y46721D01*
X489240Y46710D01*
X489151D01*
X489085Y46721D01*
X489007D01*
X488918Y46732D01*
X488718Y46766D01*
X488496Y46821D01*
X488251Y46899D01*
X488029Y47010D01*
X487829Y47155D01*
X487807Y47177D01*
X487751Y47232D01*
X487674Y47332D01*
X487585Y47466D01*
X487496Y47632D01*
X487418Y47821D01*
X487363Y48054D01*
X487352Y48166D01*
X487340Y48299D01*
Y48321D01*
Y48366D01*
X487352Y48443D01*
X487363Y48543D01*
X487385Y48665D01*
X487418Y48788D01*
X487463Y48921D01*
X487518Y49043D01*
X487529Y49054D01*
X487552Y49099D01*
X487596Y49165D01*
X487652Y49243D01*
X487718Y49332D01*
X487807Y49421D01*
X487896Y49510D01*
X488007Y49588D01*
X488018Y49599D01*
X488063Y49621D01*
X488118Y49665D01*
X488207Y49710D01*
X488307Y49754D01*
X488429Y49810D01*
X488552Y49854D01*
X488696Y49899D01*
X488707D01*
X488751Y49910D01*
X488818Y49932D01*
X488907Y49943D01*
X489018Y49965D01*
X489162Y49988D01*
X489329Y50021D01*
X489529Y50043D01*
X489540D01*
X489585Y50054D01*
X489640D01*
X489718Y50065D01*
X489807Y50076D01*
X489918Y50099D01*
X490040Y50110D01*
X490173Y50132D01*
X490440Y50187D01*
X490729Y50243D01*
X490985Y50310D01*
X491107Y50343D01*
X491218Y50376D01*
Y50388D01*
Y50410D01*
X491229Y50476D01*
Y50554D01*
Y50599D01*
Y50621D01*
Y50632D01*
Y50643D01*
Y50710D01*
X491218Y50821D01*
X491196Y50943D01*
X491162Y51076D01*
X491107Y51210D01*
X491040Y51332D01*
X490951Y51432D01*
X490940Y51443D01*
X490885Y51487D01*
X490796Y51532D01*
X490685Y51599D01*
X490529Y51654D01*
X490351Y51710D01*
X490129Y51743D01*
X489874Y51754D01*
X489762D01*
X489651Y51743D01*
X489496Y51721D01*
X489340Y51698D01*
X489174Y51654D01*
X489018Y51599D01*
X488885Y51521D01*
X488874Y51510D01*
X488829Y51476D01*
X488774Y51421D01*
X488707Y51332D01*
X488640Y51221D01*
X488563Y51076D01*
X488496Y50898D01*
X488429Y50699D01*
X487507Y50821D01*
Y50832D01*
X487518Y50843D01*
Y50876D01*
X487529Y50921D01*
X487563Y51021D01*
X487607Y51165D01*
X487663Y51310D01*
X487729Y51465D01*
X487818Y51621D01*
X487918Y51765D01*
X487929Y51776D01*
X487974Y51821D01*
X488040Y51887D01*
X488129Y51976D01*
X488251Y52065D01*
X488396Y52154D01*
X488563Y52254D01*
X488751Y52332D01*
X488763D01*
X488774Y52343D01*
X488807Y52354D01*
X488851Y52365D01*
X488963Y52398D01*
X489118Y52432D01*
X489296Y52465D01*
X489518Y52498D01*
X489751Y52521D01*
X490018Y52532D01*
X490140D01*
X490262Y52521D01*
D02*
G37*
G36*
X501483D02*
X501572Y52509D01*
X501684Y52487D01*
X501806Y52465D01*
X501950Y52432D01*
X502083Y52398D01*
X502239Y52343D01*
X502383Y52287D01*
X502539Y52210D01*
X502695Y52121D01*
X502850Y52021D01*
X502994Y51898D01*
X503128Y51765D01*
X503139Y51754D01*
X503161Y51732D01*
X503194Y51687D01*
X503239Y51621D01*
X503294Y51543D01*
X503350Y51454D01*
X503417Y51343D01*
X503483Y51210D01*
X503550Y51065D01*
X503617Y50910D01*
X503672Y50732D01*
X503728Y50543D01*
X503772Y50332D01*
X503805Y50110D01*
X503828Y49876D01*
X503839Y49621D01*
Y49610D01*
Y49565D01*
Y49488D01*
X503828Y49376D01*
X499661D01*
Y49365D01*
Y49332D01*
X499673Y49288D01*
Y49221D01*
X499684Y49143D01*
X499706Y49054D01*
X499739Y48854D01*
X499806Y48632D01*
X499895Y48388D01*
X500017Y48166D01*
X500173Y47965D01*
X500184D01*
X500195Y47943D01*
X500261Y47888D01*
X500361Y47810D01*
X500495Y47732D01*
X500672Y47643D01*
X500873Y47565D01*
X501095Y47510D01*
X501217Y47499D01*
X501350Y47488D01*
X501439D01*
X501539Y47499D01*
X501661Y47521D01*
X501795Y47554D01*
X501950Y47599D01*
X502095Y47666D01*
X502239Y47754D01*
X502250Y47765D01*
X502306Y47810D01*
X502372Y47877D01*
X502450Y47965D01*
X502539Y48088D01*
X502639Y48243D01*
X502739Y48421D01*
X502828Y48632D01*
X503805Y48510D01*
Y48499D01*
X503794Y48477D01*
X503783Y48432D01*
X503761Y48366D01*
X503728Y48299D01*
X503694Y48210D01*
X503606Y48021D01*
X503494Y47810D01*
X503339Y47588D01*
X503161Y47377D01*
X502939Y47177D01*
X502928D01*
X502906Y47155D01*
X502872Y47132D01*
X502828Y47099D01*
X502761Y47066D01*
X502695Y47032D01*
X502606Y46988D01*
X502506Y46943D01*
X502394Y46899D01*
X502283Y46854D01*
X502006Y46788D01*
X501695Y46732D01*
X501350Y46710D01*
X501228D01*
X501150Y46721D01*
X501050Y46732D01*
X500928Y46755D01*
X500795Y46777D01*
X500650Y46799D01*
X500339Y46888D01*
X500173Y46955D01*
X500017Y47021D01*
X499850Y47110D01*
X499695Y47210D01*
X499550Y47321D01*
X499406Y47454D01*
X499395Y47466D01*
X499373Y47488D01*
X499339Y47532D01*
X499295Y47599D01*
X499239Y47677D01*
X499184Y47765D01*
X499117Y47877D01*
X499050Y47999D01*
X498984Y48143D01*
X498917Y48299D01*
X498862Y48477D01*
X498806Y48665D01*
X498762Y48865D01*
X498728Y49088D01*
X498706Y49321D01*
X498695Y49565D01*
Y49576D01*
Y49632D01*
Y49699D01*
X498706Y49799D01*
X498717Y49921D01*
X498728Y50054D01*
X498750Y50210D01*
X498784Y50365D01*
X498873Y50721D01*
X498928Y50898D01*
X498995Y51087D01*
X499084Y51265D01*
X499184Y51432D01*
X499295Y51599D01*
X499417Y51754D01*
X499428Y51765D01*
X499450Y51787D01*
X499495Y51821D01*
X499550Y51876D01*
X499617Y51932D01*
X499706Y51998D01*
X499806Y52076D01*
X499928Y52143D01*
X500050Y52221D01*
X500195Y52287D01*
X500350Y52354D01*
X500517Y52409D01*
X500695Y52465D01*
X500884Y52498D01*
X501084Y52521D01*
X501295Y52532D01*
X501406D01*
X501483Y52521D01*
D02*
G37*
G36*
X473831Y52409D02*
X474786D01*
Y51676D01*
X473831D01*
Y48399D01*
Y48377D01*
Y48332D01*
Y48265D01*
X473842Y48188D01*
X473853Y48010D01*
X473864Y47932D01*
X473875Y47877D01*
X473886Y47854D01*
X473920Y47810D01*
X473964Y47754D01*
X474042Y47699D01*
X474064Y47688D01*
X474120Y47666D01*
X474220Y47643D01*
X474364Y47632D01*
X474475D01*
X474531Y47643D01*
X474608D01*
X474697Y47654D01*
X474786Y47666D01*
X474908Y46832D01*
X474886D01*
X474842Y46821D01*
X474764Y46810D01*
X474664Y46799D01*
X474553Y46777D01*
X474431Y46766D01*
X474186Y46755D01*
X474097D01*
X474009Y46766D01*
X473897Y46777D01*
X473764Y46788D01*
X473631Y46821D01*
X473509Y46854D01*
X473386Y46910D01*
X473375Y46921D01*
X473342Y46943D01*
X473297Y46977D01*
X473231Y47032D01*
X473175Y47088D01*
X473109Y47166D01*
X473042Y47243D01*
X472998Y47343D01*
Y47355D01*
X472975Y47399D01*
X472964Y47477D01*
X472942Y47588D01*
X472920Y47732D01*
X472909Y47821D01*
Y47921D01*
X472897Y48043D01*
X472886Y48166D01*
Y48299D01*
Y48454D01*
Y51676D01*
X472186D01*
Y52409D01*
X472886D01*
Y53787D01*
X473831Y54354D01*
Y52409D01*
D02*
G37*
G36*
X471264Y46832D02*
X470320D01*
Y54520D01*
X471264D01*
Y46832D01*
D02*
G37*
G36*
X468864D02*
X468020D01*
Y47643D01*
X468009Y47632D01*
X467987Y47599D01*
X467953Y47554D01*
X467898Y47499D01*
X467831Y47432D01*
X467754Y47343D01*
X467665Y47266D01*
X467554Y47177D01*
X467431Y47088D01*
X467298Y47010D01*
X467154Y46932D01*
X466998Y46854D01*
X466820Y46799D01*
X466643Y46755D01*
X466443Y46721D01*
X466243Y46710D01*
X466165D01*
X466065Y46721D01*
X465943Y46732D01*
X465798Y46755D01*
X465643Y46788D01*
X465487Y46832D01*
X465320Y46899D01*
X465298Y46910D01*
X465254Y46932D01*
X465176Y46977D01*
X465087Y47032D01*
X464976Y47099D01*
X464876Y47177D01*
X464776Y47266D01*
X464687Y47366D01*
X464676Y47377D01*
X464654Y47421D01*
X464620Y47477D01*
X464576Y47565D01*
X464521Y47666D01*
X464476Y47788D01*
X464432Y47921D01*
X464398Y48066D01*
Y48077D01*
X464387Y48121D01*
X464376Y48188D01*
Y48277D01*
X464365Y48410D01*
X464354Y48554D01*
X464343Y48743D01*
Y48954D01*
Y52409D01*
X465287D01*
Y49310D01*
Y49299D01*
Y49277D01*
Y49243D01*
Y49188D01*
Y49065D01*
X465298Y48910D01*
Y48743D01*
X465309Y48577D01*
X465320Y48432D01*
X465343Y48310D01*
Y48299D01*
X465365Y48254D01*
X465387Y48188D01*
X465420Y48099D01*
X465476Y48010D01*
X465543Y47910D01*
X465620Y47821D01*
X465720Y47732D01*
X465731Y47721D01*
X465776Y47699D01*
X465832Y47666D01*
X465920Y47632D01*
X466020Y47588D01*
X466143Y47554D01*
X466276Y47532D01*
X466432Y47521D01*
X466509D01*
X466587Y47532D01*
X466687Y47543D01*
X466809Y47577D01*
X466943Y47610D01*
X467087Y47666D01*
X467231Y47732D01*
X467254Y47743D01*
X467298Y47777D01*
X467365Y47821D01*
X467443Y47888D01*
X467531Y47977D01*
X467620Y48077D01*
X467698Y48188D01*
X467765Y48321D01*
X467776Y48343D01*
X467787Y48388D01*
X467809Y48477D01*
X467842Y48599D01*
X467876Y48754D01*
X467898Y48943D01*
X467909Y49165D01*
X467920Y49421D01*
Y52409D01*
X468864D01*
Y46832D01*
D02*
G37*
G36*
X480652Y49143D02*
X477730D01*
Y50087D01*
X480652D01*
Y49143D01*
D02*
G37*
G36*
X507216Y52521D02*
X507338Y52498D01*
X507483Y52454D01*
X507638Y52398D01*
X507816Y52321D01*
X508005Y52221D01*
X507661Y51354D01*
X507650Y51365D01*
X507605Y51387D01*
X507539Y51421D01*
X507450Y51454D01*
X507350Y51487D01*
X507227Y51521D01*
X507105Y51543D01*
X506983Y51554D01*
X506927D01*
X506872Y51543D01*
X506794Y51532D01*
X506716Y51510D01*
X506616Y51476D01*
X506516Y51432D01*
X506427Y51365D01*
X506416Y51354D01*
X506383Y51332D01*
X506350Y51287D01*
X506294Y51232D01*
X506239Y51154D01*
X506183Y51065D01*
X506128Y50965D01*
X506083Y50843D01*
X506072Y50821D01*
X506061Y50754D01*
X506039Y50654D01*
X506005Y50521D01*
X505972Y50354D01*
X505950Y50165D01*
X505939Y49965D01*
X505928Y49743D01*
Y46832D01*
X504983D01*
Y52409D01*
X505839D01*
Y51565D01*
X505850Y51576D01*
X505894Y51654D01*
X505950Y51754D01*
X506039Y51876D01*
X506128Y51998D01*
X506227Y52132D01*
X506327Y52243D01*
X506427Y52332D01*
X506439Y52343D01*
X506472Y52365D01*
X506539Y52398D01*
X506605Y52432D01*
X506694Y52465D01*
X506805Y52498D01*
X506916Y52521D01*
X507038Y52532D01*
X507116D01*
X507216Y52521D01*
D02*
G37*
G36*
X476664Y53443D02*
X475719D01*
Y54520D01*
X476664D01*
Y53443D01*
D02*
G37*
G36*
X496084Y46743D02*
Y46732D01*
X496073Y46699D01*
X496051Y46654D01*
X496029Y46599D01*
X495995Y46521D01*
X495962Y46432D01*
X495884Y46244D01*
X495806Y46032D01*
X495717Y45821D01*
X495628Y45632D01*
X495584Y45555D01*
X495551Y45477D01*
X495540Y45455D01*
X495506Y45399D01*
X495451Y45321D01*
X495384Y45221D01*
X495295Y45110D01*
X495195Y44999D01*
X495095Y44888D01*
X494973Y44799D01*
X494962Y44788D01*
X494917Y44766D01*
X494851Y44732D01*
X494751Y44688D01*
X494640Y44644D01*
X494506Y44610D01*
X494362Y44588D01*
X494195Y44577D01*
X494151D01*
X494095Y44588D01*
X494018D01*
X493929Y44610D01*
X493829Y44633D01*
X493718Y44655D01*
X493595Y44699D01*
X493495Y45577D01*
X493506D01*
X493551Y45566D01*
X493607Y45555D01*
X493673Y45532D01*
X493851Y45499D01*
X494029Y45488D01*
X494084D01*
X494140Y45499D01*
X494206D01*
X494373Y45532D01*
X494451Y45566D01*
X494529Y45599D01*
X494540D01*
X494562Y45621D01*
X494595Y45643D01*
X494640Y45677D01*
X494740Y45766D01*
X494829Y45888D01*
Y45899D01*
X494851Y45921D01*
X494873Y45966D01*
X494895Y46032D01*
X494940Y46121D01*
X494984Y46255D01*
X495051Y46410D01*
X495118Y46599D01*
Y46610D01*
X495140Y46654D01*
X495162Y46732D01*
X495206Y46832D01*
X493095Y52409D01*
X494095D01*
X495262Y49176D01*
Y49165D01*
X495273Y49154D01*
X495284Y49121D01*
X495295Y49065D01*
X495318Y49010D01*
X495340Y48943D01*
X495395Y48788D01*
X495462Y48599D01*
X495529Y48377D01*
X495595Y48143D01*
X495662Y47888D01*
Y47899D01*
X495673Y47921D01*
X495684Y47954D01*
X495695Y47999D01*
X495706Y48054D01*
X495728Y48121D01*
X495773Y48288D01*
X495828Y48477D01*
X495906Y48699D01*
X495973Y48921D01*
X496062Y49154D01*
X497262Y52409D01*
X498206D01*
X496084Y46743D01*
D02*
G37*
G36*
X462832Y46832D02*
X461854D01*
Y53265D01*
X459610Y46832D01*
X458699D01*
X456477Y53376D01*
Y46832D01*
X455499D01*
Y54520D01*
X457021D01*
X458843Y49065D01*
Y49054D01*
X458854Y49032D01*
X458865Y48999D01*
X458888Y48943D01*
X458932Y48810D01*
X458988Y48643D01*
X459043Y48454D01*
X459110Y48265D01*
X459165Y48088D01*
X459210Y47932D01*
X459221Y47954D01*
X459232Y48010D01*
X459266Y48110D01*
X459310Y48243D01*
X459366Y48421D01*
X459443Y48632D01*
X459521Y48877D01*
X459621Y49165D01*
X461465Y54520D01*
X462832D01*
Y46832D01*
D02*
G37*
%LPC*%
G36*
X491229Y49632D02*
X491218D01*
X491207Y49621D01*
X491173Y49610D01*
X491129Y49599D01*
X491073Y49576D01*
X491007Y49554D01*
X490929Y49532D01*
X490840Y49510D01*
X490740Y49477D01*
X490618Y49454D01*
X490496Y49421D01*
X490351Y49388D01*
X490196Y49354D01*
X490040Y49321D01*
X489862Y49299D01*
X489674Y49265D01*
X489651D01*
X489585Y49254D01*
X489474Y49232D01*
X489351Y49210D01*
X489218Y49188D01*
X489085Y49154D01*
X488963Y49121D01*
X488851Y49077D01*
X488840D01*
X488807Y49054D01*
X488763Y49032D01*
X488718Y48999D01*
X488585Y48910D01*
X488474Y48777D01*
Y48765D01*
X488451Y48743D01*
X488440Y48699D01*
X488418Y48643D01*
X488396Y48577D01*
X488374Y48510D01*
X488363Y48421D01*
X488351Y48332D01*
Y48321D01*
Y48265D01*
X488363Y48199D01*
X488385Y48110D01*
X488418Y48010D01*
X488474Y47910D01*
X488540Y47799D01*
X488629Y47699D01*
X488640Y47688D01*
X488685Y47666D01*
X488751Y47621D01*
X488840Y47577D01*
X488963Y47532D01*
X489107Y47488D01*
X489274Y47466D01*
X489474Y47454D01*
X489563D01*
X489674Y47466D01*
X489796Y47488D01*
X489951Y47510D01*
X490107Y47554D01*
X490274Y47610D01*
X490440Y47688D01*
X490462Y47699D01*
X490507Y47732D01*
X490585Y47788D01*
X490673Y47866D01*
X490773Y47954D01*
X490885Y48066D01*
X490973Y48199D01*
X491062Y48343D01*
X491073Y48354D01*
X491084Y48399D01*
X491107Y48477D01*
X491140Y48577D01*
X491173Y48710D01*
X491196Y48865D01*
X491207Y49054D01*
X491218Y49277D01*
X491229Y49632D01*
D02*
G37*
G36*
X501306Y51754D02*
X501239D01*
X501195Y51743D01*
X501072Y51732D01*
X500928Y51698D01*
X500750Y51643D01*
X500561Y51565D01*
X500384Y51454D01*
X500206Y51310D01*
X500184Y51287D01*
X500139Y51232D01*
X500061Y51132D01*
X499984Y50999D01*
X499895Y50843D01*
X499817Y50643D01*
X499750Y50410D01*
X499717Y50154D01*
X502839D01*
Y50165D01*
Y50187D01*
X502828Y50221D01*
Y50265D01*
X502806Y50399D01*
X502772Y50543D01*
X502717Y50721D01*
X502661Y50887D01*
X502572Y51054D01*
X502472Y51199D01*
Y51210D01*
X502450Y51221D01*
X502394Y51287D01*
X502294Y51376D01*
X502161Y51476D01*
X501995Y51576D01*
X501795Y51665D01*
X501561Y51732D01*
X501439Y51743D01*
X501306Y51754D01*
D02*
G37*
%LPD*%
D21*
X141732Y88976D02*
X151476D01*
X142500Y84000D02*
X150000D01*
X169000Y94500D02*
Y117000D01*
X158000D02*
Y132500D01*
X60500Y101000D02*
X67000D01*
X58000Y98500D02*
X60500Y101000D01*
X58000Y60000D02*
Y98500D01*
X155000Y92500D02*
Y123000D01*
X151476Y88976D02*
X155000Y92500D01*
X150000Y84000D02*
X158000Y92000D01*
Y94000D01*
X38000Y78000D02*
Y100500D01*
X23500Y19500D02*
X43500D01*
X45000Y21000D01*
Y25500D01*
X38000Y100500D02*
X40000Y102500D01*
X50000D01*
X109500Y112500D02*
Y128000D01*
D22*
X50065Y40472D02*
Y88286D01*
X47565Y16565D02*
Y33537D01*
X47389Y33714D02*
X47565Y33537D01*
X46500Y15500D02*
X47565Y16565D01*
X112598Y89764D02*
X128347D01*
X132283Y85827D01*
Y70866D02*
Y85827D01*
X129134Y67716D02*
X132283Y70866D01*
X118110Y67716D02*
X129134D01*
X116000Y65606D02*
X118110Y67716D01*
X116000Y59500D02*
Y65606D01*
X26500Y47500D02*
X38000D01*
X20000Y54000D02*
X26500Y47500D01*
X20000Y54000D02*
Y81500D01*
X129500Y71000D02*
Y81500D01*
X128500Y70000D02*
X129500Y71000D01*
X77000Y70000D02*
X128500D01*
X50065Y88286D02*
X51000Y89220D01*
X59500Y120000D02*
Y139500D01*
X13780Y18000D02*
Y142018D01*
X18518Y132018D02*
X53780D01*
X15500Y129000D02*
X18518Y132018D01*
X15500Y20500D02*
Y129000D01*
X41000Y15500D02*
X46500D01*
X17000Y52000D02*
X18500Y50500D01*
X17000Y52000D02*
Y101500D01*
X18500Y103000D01*
X30000D01*
X64500Y70000D02*
X77000D01*
X63000Y47500D02*
Y68500D01*
X64500Y70000D01*
X73953Y1047D02*
Y63500D01*
X76000Y67000D02*
X80000D01*
X73953Y64953D02*
X76000Y67000D01*
X73953Y63500D02*
Y64953D01*
X80000Y67000D02*
X106000D01*
X24953Y1047D02*
X73953D01*
X12000Y14000D02*
X24953Y1047D01*
X12000Y14000D02*
Y78000D01*
Y88500D01*
X10000Y90500D02*
X12000Y88500D01*
X13780Y15221D02*
Y18000D01*
Y15221D02*
X23500Y5500D01*
X52500D01*
X15500Y17000D02*
Y20500D01*
Y17000D02*
X22500Y10000D01*
X53500D01*
X47389Y33714D02*
Y37795D01*
X50065Y40472D01*
X63779Y43307D02*
X64961D01*
X61000Y26000D02*
Y40528D01*
X63779Y43307D01*
D23*
X41732Y28768D02*
X45000Y25500D01*
X41732Y28768D02*
Y46457D01*
X47389Y52113D01*
Y93389D01*
X165918Y152249D02*
X171937Y158268D01*
X189502D01*
X193701Y154069D01*
Y113386D02*
Y154069D01*
X185800Y105485D02*
X193701Y113386D01*
X185800Y85827D02*
Y105485D01*
X175800Y85827D02*
Y105721D01*
X185918Y115839D01*
Y152249D01*
X47389Y93389D02*
X66500Y112500D01*
X111000D02*
X146500D01*
X111000Y106000D02*
Y112500D01*
X66500D02*
X109500D01*
X111000D01*
D24*
X173985Y20940D02*
X176786Y18139D01*
X112048Y20940D02*
X173985D01*
X108345Y17236D02*
X112048Y20940D01*
X204041Y-2143D02*
X207454Y-5555D01*
X204041Y-2143D02*
Y36216D01*
X207454Y-5555D02*
X213753D01*
X108345Y-2764D02*
X113830D01*
X117400Y-6334D01*
X152718D01*
X159857Y805D01*
X176786Y7695D02*
Y18139D01*
X108345Y7236D02*
X108923D01*
X214041Y10481D02*
Y36216D01*
X213753Y10193D02*
X214041Y10481D01*
X224041Y36216D02*
X225564Y34693D01*
Y10193D02*
Y34693D01*
D25*
X53780Y132018D02*
D03*
Y152018D02*
D03*
D26*
X13780Y142018D02*
D03*
X165918Y152249D02*
D03*
X175918D02*
D03*
X204041Y36216D02*
D03*
X214041D02*
D03*
X165800Y85827D02*
D03*
X175800D02*
D03*
X75000Y126500D02*
D03*
X108345Y7236D02*
D03*
Y17236D02*
D03*
X136000Y59500D02*
D03*
X126000D02*
D03*
X116000D02*
D03*
X106000D02*
D03*
D27*
X3292Y131245D02*
D03*
D28*
X185918Y152249D02*
D03*
X224041Y36216D02*
D03*
X185800Y85827D02*
D03*
X65000Y126500D02*
D03*
X146000Y59500D02*
D03*
D29*
X67389Y37687D02*
D03*
X47389D02*
D03*
X57389Y47687D02*
D03*
D30*
X53000Y31500D02*
D03*
X65000D02*
D03*
X168912Y7695D02*
D03*
D31*
X108345Y-2764D02*
D03*
D32*
X159857Y805D02*
D03*
Y14584D02*
D03*
X151589Y7695D02*
D03*
X108963Y142018D02*
D03*
X76680D02*
D03*
D33*
X176786Y7695D02*
D03*
D34*
X213753Y10193D02*
D03*
D35*
Y-5555D02*
D03*
D36*
X225564Y10193D02*
D03*
D37*
X100696Y142018D02*
D03*
X92822D02*
D03*
X84948D02*
D03*
D38*
X128970Y7602D02*
D03*
D39*
X223000Y128000D02*
D03*
X500Y27000D02*
D03*
D40*
X4239Y100680D02*
D03*
X222743D02*
D03*
D41*
X19685Y107874D02*
D03*
X26772Y119685D02*
D03*
X141732Y88976D02*
D03*
X112598Y89764D02*
D03*
X18898Y156693D02*
D03*
X18110Y-3937D02*
D03*
X60630Y-3150D02*
D03*
X33071Y15748D02*
D03*
X150930Y156131D02*
D03*
X153254Y82061D02*
D03*
X153266Y70794D02*
D03*
X58000Y55000D02*
D03*
X169000Y94500D02*
D03*
X158000Y132500D02*
D03*
X169000Y117000D02*
D03*
X158000D02*
D03*
X54000Y93000D02*
D03*
X51000Y89220D02*
D03*
X68500Y61000D02*
D03*
X36000Y60500D02*
D03*
X22000Y34000D02*
D03*
X146500Y123000D02*
D03*
X150500Y107000D02*
D03*
X57500Y113500D02*
D03*
X79500Y61000D02*
D03*
X136000Y103500D02*
D03*
X77500Y106500D02*
D03*
X88000Y117000D02*
D03*
X135827Y137795D02*
D03*
X116142D02*
D03*
X96457Y98425D02*
D03*
Y59055D02*
D03*
X86614Y39370D02*
D03*
Y0D02*
D03*
X47244Y118110D02*
D03*
X37402Y137795D02*
D03*
X7874Y118110D02*
D03*
Y39370D02*
D03*
X58000Y60000D02*
D03*
X67000Y101000D02*
D03*
X61000Y26000D02*
D03*
X155000Y123000D02*
D03*
X59500Y120000D02*
D03*
X129500Y81500D02*
D03*
X142500Y84000D02*
D03*
X158000Y94000D02*
D03*
X20000Y81500D02*
D03*
X41000Y15500D02*
D03*
X77000Y70000D02*
D03*
X53500Y10000D02*
D03*
X52500Y5500D02*
D03*
X18500Y50500D02*
D03*
X30000Y103000D02*
D03*
X38000Y78000D02*
D03*
X23500Y19500D02*
D03*
X45000Y25500D02*
D03*
X38000Y47500D02*
D03*
X50000Y102500D02*
D03*
X146500Y112500D02*
D03*
X47389Y93389D02*
D03*
X111000Y106000D02*
D03*
X109500Y128000D02*
D03*
X63000Y47500D02*
D03*
X47500Y52000D02*
D03*
X73953Y1047D02*
D03*
X106000Y67000D02*
D03*
X10000Y90500D02*
D03*
D42*
X53671Y142018D02*
D03*
X61152D02*
D03*
D43*
X64961Y43307D02*
D03*
X49999Y43308D02*
D03*
M02*
