%FSLAX25Y25*%
%MOIN*%
G70*
G01*
G75*
G04 Layer_Color=128*
%ADD10R,0.02362X0.03543*%
%ADD11R,0.03543X0.02362*%
%ADD12R,0.03937X0.04331*%
%ADD13R,0.06299X0.13780*%
%ADD14R,0.05000X0.03600*%
%ADD15R,0.03600X0.03600*%
%ADD16R,0.06693X0.01750*%
%ADD17R,0.08661X0.05118*%
%ADD18R,0.06299X0.07874*%
%ADD19O,0.04921X0.01772*%
%ADD20R,0.06102X0.01378*%
%ADD21C,0.01000*%
%ADD22C,0.00800*%
%ADD23C,0.02500*%
%ADD24C,0.02000*%
%ADD25C,0.08000*%
%ADD26C,0.07000*%
%ADD27C,0.10000*%
%ADD28R,0.07000X0.07000*%
%ADD29C,0.04724*%
%ADD30C,0.05906*%
%ADD31R,0.07000X0.07000*%
%ADD32C,0.08661*%
%ADD33C,0.07874*%
G04:AMPARAMS|DCode=34|XSize=118.11mil|YSize=39.37mil|CornerRadius=19.69mil|HoleSize=0mil|Usage=FLASHONLY|Rotation=0.000|XOffset=0mil|YOffset=0mil|HoleType=Round|Shape=RoundedRectangle|*
%AMROUNDEDRECTD34*
21,1,0.11811,0.00000,0,0,0.0*
21,1,0.07874,0.03937,0,0,0.0*
1,1,0.03937,0.03937,0.00000*
1,1,0.03937,-0.03937,0.00000*
1,1,0.03937,-0.03937,0.00000*
1,1,0.03937,0.03937,0.00000*
%
%ADD34ROUNDEDRECTD34*%
%ADD35O,0.15748X0.03937*%
G04:AMPARAMS|DCode=36|XSize=118.11mil|YSize=39.37mil|CornerRadius=19.69mil|HoleSize=0mil|Usage=FLASHONLY|Rotation=90.000|XOffset=0mil|YOffset=0mil|HoleType=Round|Shape=RoundedRectangle|*
%AMROUNDEDRECTD36*
21,1,0.11811,0.00000,0,0,90.0*
21,1,0.07874,0.03937,0,0,90.0*
1,1,0.03937,0.00000,0.03937*
1,1,0.03937,0.00000,-0.03937*
1,1,0.03937,0.00000,-0.03937*
1,1,0.03937,0.00000,0.03937*
%
%ADD36ROUNDEDRECTD36*%
%ADD37C,0.05512*%
%ADD38C,0.17716*%
%ADD39C,0.07874*%
%ADD40C,0.03937*%
%ADD41C,0.03150*%
%ADD42R,0.05118X0.05906*%
%ADD43R,0.05315X0.02953*%
%ADD44C,0.01200*%
%ADD45C,0.00787*%
%ADD46C,0.01500*%
%ADD47C,0.00394*%
%ADD48C,0.00700*%
%ADD49C,0.00591*%
%ADD50R,0.03162X0.04343*%
%ADD51R,0.04343X0.03162*%
%ADD52R,0.04737X0.05131*%
%ADD53R,0.07099X0.14579*%
%ADD54R,0.05800X0.04400*%
%ADD55R,0.04400X0.04400*%
%ADD56R,0.07493X0.02550*%
%ADD57R,0.09461X0.05918*%
%ADD58R,0.07099X0.08674*%
%ADD59O,0.05721X0.02572*%
%ADD60R,0.06902X0.02178*%
%ADD61C,0.08800*%
%ADD62C,0.07800*%
%ADD63C,0.10800*%
%ADD64R,0.07800X0.07800*%
%ADD65C,0.05524*%
%ADD66C,0.06706*%
%ADD67R,0.07800X0.07800*%
%ADD68C,0.09461*%
%ADD69C,0.08674*%
G04:AMPARAMS|DCode=70|XSize=126.11mil|YSize=47.37mil|CornerRadius=23.69mil|HoleSize=0mil|Usage=FLASHONLY|Rotation=0.000|XOffset=0mil|YOffset=0mil|HoleType=Round|Shape=RoundedRectangle|*
%AMROUNDEDRECTD70*
21,1,0.12611,0.00000,0,0,0.0*
21,1,0.07874,0.04737,0,0,0.0*
1,1,0.04737,0.03937,0.00000*
1,1,0.04737,-0.03937,0.00000*
1,1,0.04737,-0.03937,0.00000*
1,1,0.04737,0.03937,0.00000*
%
%ADD70ROUNDEDRECTD70*%
%ADD71O,0.16548X0.04737*%
G04:AMPARAMS|DCode=72|XSize=126.11mil|YSize=47.37mil|CornerRadius=23.69mil|HoleSize=0mil|Usage=FLASHONLY|Rotation=90.000|XOffset=0mil|YOffset=0mil|HoleType=Round|Shape=RoundedRectangle|*
%AMROUNDEDRECTD72*
21,1,0.12611,0.00000,0,0,90.0*
21,1,0.07874,0.04737,0,0,90.0*
1,1,0.04737,0.00000,0.03937*
1,1,0.04737,0.00000,-0.03937*
1,1,0.04737,0.00000,-0.03937*
1,1,0.04737,0.00000,0.03937*
%
%ADD72ROUNDEDRECTD72*%
%ADD73C,0.06312*%
%ADD74C,0.18517*%
%ADD75C,0.13874*%
%ADD76C,0.04737*%
%ADD77R,0.05918X0.06706*%
%ADD78R,0.06115X0.03753*%
G36*
X512082Y16976D02*
X513038D01*
Y16243D01*
X512082D01*
Y12966D01*
Y12944D01*
Y12899D01*
Y12832D01*
X512093Y12755D01*
X512105Y12577D01*
X512116Y12499D01*
X512127Y12444D01*
X512138Y12421D01*
X512171Y12377D01*
X512216Y12321D01*
X512293Y12266D01*
X512316Y12255D01*
X512371Y12233D01*
X512471Y12210D01*
X512616Y12199D01*
X512727D01*
X512782Y12210D01*
X512860D01*
X512949Y12221D01*
X513038Y12233D01*
X513160Y11399D01*
X513138D01*
X513094Y11388D01*
X513016Y11377D01*
X512916Y11366D01*
X512805Y11344D01*
X512682Y11333D01*
X512438Y11321D01*
X512349D01*
X512260Y11333D01*
X512149Y11344D01*
X512016Y11355D01*
X511882Y11388D01*
X511760Y11421D01*
X511638Y11477D01*
X511627Y11488D01*
X511594Y11510D01*
X511549Y11544D01*
X511482Y11599D01*
X511427Y11655D01*
X511360Y11733D01*
X511294Y11810D01*
X511249Y11910D01*
Y11921D01*
X511227Y11966D01*
X511216Y12044D01*
X511194Y12155D01*
X511171Y12299D01*
X511160Y12388D01*
Y12488D01*
X511149Y12610D01*
X511138Y12732D01*
Y12866D01*
Y13021D01*
Y16243D01*
X510438D01*
Y16976D01*
X511138D01*
Y18354D01*
X512082Y18921D01*
Y16976D01*
D02*
G37*
G36*
X472653D02*
X473608D01*
Y16243D01*
X472653D01*
Y12966D01*
Y12944D01*
Y12899D01*
Y12832D01*
X472664Y12755D01*
X472675Y12577D01*
X472686Y12499D01*
X472697Y12444D01*
X472709Y12421D01*
X472742Y12377D01*
X472786Y12321D01*
X472864Y12266D01*
X472886Y12255D01*
X472942Y12233D01*
X473042Y12210D01*
X473186Y12199D01*
X473297D01*
X473353Y12210D01*
X473431D01*
X473520Y12221D01*
X473608Y12233D01*
X473731Y11399D01*
X473708D01*
X473664Y11388D01*
X473586Y11377D01*
X473486Y11366D01*
X473375Y11344D01*
X473253Y11333D01*
X473009Y11321D01*
X472920D01*
X472831Y11333D01*
X472720Y11344D01*
X472586Y11355D01*
X472453Y11388D01*
X472331Y11421D01*
X472209Y11477D01*
X472197Y11488D01*
X472164Y11510D01*
X472120Y11544D01*
X472053Y11599D01*
X471998Y11655D01*
X471931Y11733D01*
X471864Y11810D01*
X471820Y11910D01*
Y11921D01*
X471798Y11966D01*
X471786Y12044D01*
X471764Y12155D01*
X471742Y12299D01*
X471731Y12388D01*
Y12488D01*
X471720Y12610D01*
X471709Y12732D01*
Y12866D01*
Y13021D01*
Y16243D01*
X471009D01*
Y16976D01*
X471709D01*
Y18354D01*
X472653Y18921D01*
Y16976D01*
D02*
G37*
G36*
X458599Y19076D02*
X458688D01*
X458888Y19054D01*
X459110Y19032D01*
X459343Y18987D01*
X459577Y18932D01*
X459788Y18854D01*
X459799D01*
X459810Y18843D01*
X459877Y18810D01*
X459976Y18754D01*
X460088Y18676D01*
X460221Y18576D01*
X460365Y18454D01*
X460499Y18298D01*
X460621Y18132D01*
X460632Y18110D01*
X460665Y18043D01*
X460721Y17954D01*
X460777Y17821D01*
X460832Y17665D01*
X460888Y17499D01*
X460921Y17310D01*
X460932Y17121D01*
Y17099D01*
Y17043D01*
X460921Y16943D01*
X460899Y16821D01*
X460865Y16677D01*
X460810Y16521D01*
X460743Y16365D01*
X460654Y16199D01*
X460643Y16176D01*
X460610Y16132D01*
X460543Y16043D01*
X460454Y15954D01*
X460343Y15843D01*
X460210Y15721D01*
X460043Y15610D01*
X459854Y15499D01*
X459865D01*
X459888Y15488D01*
X459921Y15477D01*
X459965Y15454D01*
X460099Y15410D01*
X460254Y15332D01*
X460421Y15232D01*
X460610Y15110D01*
X460777Y14965D01*
X460932Y14788D01*
X460943Y14765D01*
X460988Y14699D01*
X461054Y14599D01*
X461121Y14466D01*
X461188Y14288D01*
X461254Y14099D01*
X461299Y13877D01*
X461310Y13632D01*
Y13621D01*
Y13610D01*
Y13543D01*
X461299Y13432D01*
X461276Y13299D01*
X461254Y13144D01*
X461210Y12977D01*
X461154Y12799D01*
X461076Y12621D01*
X461065Y12599D01*
X461032Y12543D01*
X460988Y12466D01*
X460921Y12355D01*
X460832Y12244D01*
X460743Y12121D01*
X460632Y11999D01*
X460510Y11899D01*
X460499Y11888D01*
X460454Y11855D01*
X460377Y11810D01*
X460277Y11766D01*
X460154Y11699D01*
X460010Y11632D01*
X459854Y11577D01*
X459665Y11521D01*
X459643D01*
X459577Y11499D01*
X459466Y11488D01*
X459321Y11466D01*
X459143Y11444D01*
X458932Y11421D01*
X458699Y11410D01*
X458432Y11399D01*
X455499D01*
Y19087D01*
X458521D01*
X458599Y19076D01*
D02*
G37*
G36*
X495906D02*
X496095Y19065D01*
X496295Y19054D01*
X496484Y19032D01*
X496651Y19010D01*
X496673D01*
X496751Y18987D01*
X496851Y18965D01*
X496984Y18932D01*
X497128Y18876D01*
X497284Y18810D01*
X497451Y18732D01*
X497595Y18643D01*
X497617Y18632D01*
X497662Y18598D01*
X497728Y18532D01*
X497817Y18454D01*
X497917Y18354D01*
X498017Y18221D01*
X498128Y18076D01*
X498217Y17910D01*
X498228Y17887D01*
X498250Y17832D01*
X498295Y17732D01*
X498339Y17599D01*
X498373Y17443D01*
X498417Y17265D01*
X498439Y17065D01*
X498451Y16854D01*
Y16843D01*
Y16810D01*
Y16765D01*
X498439Y16688D01*
X498428Y16610D01*
X498417Y16510D01*
X498395Y16399D01*
X498373Y16276D01*
X498295Y16021D01*
X498250Y15888D01*
X498184Y15743D01*
X498106Y15599D01*
X498028Y15465D01*
X497928Y15332D01*
X497817Y15199D01*
X497806Y15188D01*
X497784Y15166D01*
X497751Y15132D01*
X497695Y15099D01*
X497628Y15043D01*
X497540Y14988D01*
X497428Y14921D01*
X497306Y14865D01*
X497162Y14799D01*
X496995Y14732D01*
X496817Y14677D01*
X496606Y14632D01*
X496384Y14588D01*
X496140Y14554D01*
X495862Y14532D01*
X495573Y14521D01*
X493607D01*
Y11399D01*
X492584D01*
Y19087D01*
X495740D01*
X495906Y19076D01*
D02*
G37*
G36*
X502228Y17087D02*
X502394Y17076D01*
X502583Y17054D01*
X502772Y17021D01*
X502961Y16976D01*
X503139Y16921D01*
X503161Y16910D01*
X503217Y16887D01*
X503294Y16854D01*
X503394Y16810D01*
X503506Y16743D01*
X503617Y16677D01*
X503717Y16588D01*
X503805Y16499D01*
X503817Y16488D01*
X503839Y16454D01*
X503872Y16399D01*
X503917Y16332D01*
X503972Y16232D01*
X504017Y16132D01*
X504061Y16010D01*
X504094Y15865D01*
Y15854D01*
X504106Y15821D01*
X504117Y15754D01*
X504128Y15665D01*
Y15543D01*
X504139Y15399D01*
X504150Y15210D01*
Y14999D01*
Y13732D01*
Y13721D01*
Y13677D01*
Y13610D01*
Y13521D01*
Y13421D01*
Y13299D01*
X504161Y13032D01*
Y12755D01*
X504172Y12477D01*
X504183Y12355D01*
Y12244D01*
X504194Y12144D01*
X504206Y12066D01*
Y12055D01*
X504217Y12010D01*
X504228Y11944D01*
X504261Y11855D01*
X504283Y11755D01*
X504328Y11644D01*
X504383Y11521D01*
X504439Y11399D01*
X503450D01*
X503439Y11410D01*
X503428Y11455D01*
X503406Y11510D01*
X503372Y11599D01*
X503339Y11699D01*
X503317Y11821D01*
X503294Y11955D01*
X503272Y12099D01*
X503261D01*
X503250Y12077D01*
X503183Y12021D01*
X503083Y11944D01*
X502950Y11844D01*
X502783Y11744D01*
X502617Y11632D01*
X502439Y11532D01*
X502250Y11455D01*
X502228Y11444D01*
X502161Y11433D01*
X502061Y11399D01*
X501939Y11366D01*
X501784Y11333D01*
X501606Y11310D01*
X501406Y11288D01*
X501206Y11277D01*
X501117D01*
X501050Y11288D01*
X500972D01*
X500884Y11299D01*
X500684Y11333D01*
X500461Y11388D01*
X500217Y11466D01*
X499995Y11577D01*
X499795Y11721D01*
X499773Y11744D01*
X499717Y11799D01*
X499639Y11899D01*
X499550Y12032D01*
X499462Y12199D01*
X499384Y12388D01*
X499328Y12621D01*
X499317Y12732D01*
X499306Y12866D01*
Y12888D01*
Y12932D01*
X499317Y13010D01*
X499328Y13110D01*
X499350Y13232D01*
X499384Y13355D01*
X499428Y13488D01*
X499484Y13610D01*
X499495Y13621D01*
X499517Y13666D01*
X499562Y13732D01*
X499617Y13810D01*
X499684Y13899D01*
X499773Y13988D01*
X499861Y14077D01*
X499972Y14154D01*
X499984Y14166D01*
X500028Y14188D01*
X500084Y14232D01*
X500173Y14277D01*
X500273Y14321D01*
X500395Y14377D01*
X500517Y14421D01*
X500661Y14466D01*
X500672D01*
X500717Y14477D01*
X500784Y14499D01*
X500873Y14510D01*
X500984Y14532D01*
X501128Y14554D01*
X501295Y14588D01*
X501495Y14610D01*
X501506D01*
X501550Y14621D01*
X501606D01*
X501684Y14632D01*
X501772Y14643D01*
X501884Y14665D01*
X502006Y14677D01*
X502139Y14699D01*
X502406Y14754D01*
X502695Y14810D01*
X502950Y14877D01*
X503072Y14910D01*
X503183Y14943D01*
Y14954D01*
Y14977D01*
X503194Y15043D01*
Y15121D01*
Y15166D01*
Y15188D01*
Y15199D01*
Y15210D01*
Y15277D01*
X503183Y15388D01*
X503161Y15510D01*
X503128Y15643D01*
X503072Y15777D01*
X503006Y15899D01*
X502917Y15999D01*
X502906Y16010D01*
X502850Y16054D01*
X502761Y16099D01*
X502650Y16165D01*
X502494Y16221D01*
X502317Y16276D01*
X502095Y16310D01*
X501839Y16321D01*
X501728D01*
X501617Y16310D01*
X501461Y16288D01*
X501306Y16265D01*
X501139Y16221D01*
X500984Y16165D01*
X500850Y16088D01*
X500839Y16077D01*
X500795Y16043D01*
X500739Y15988D01*
X500672Y15899D01*
X500606Y15788D01*
X500528Y15643D01*
X500461Y15465D01*
X500395Y15266D01*
X499473Y15388D01*
Y15399D01*
X499484Y15410D01*
Y15443D01*
X499495Y15488D01*
X499528Y15588D01*
X499573Y15732D01*
X499628Y15877D01*
X499695Y16032D01*
X499784Y16188D01*
X499884Y16332D01*
X499895Y16343D01*
X499939Y16388D01*
X500006Y16454D01*
X500095Y16543D01*
X500217Y16632D01*
X500361Y16721D01*
X500528Y16821D01*
X500717Y16899D01*
X500728D01*
X500739Y16910D01*
X500772Y16921D01*
X500817Y16932D01*
X500928Y16965D01*
X501084Y16999D01*
X501261Y17032D01*
X501483Y17065D01*
X501717Y17087D01*
X501983Y17099D01*
X502106D01*
X502228Y17087D01*
D02*
G37*
G36*
X469664Y16976D02*
X470620D01*
Y16243D01*
X469664D01*
Y12966D01*
Y12944D01*
Y12899D01*
Y12832D01*
X469676Y12755D01*
X469687Y12577D01*
X469698Y12499D01*
X469709Y12444D01*
X469720Y12421D01*
X469753Y12377D01*
X469798Y12321D01*
X469876Y12266D01*
X469898Y12255D01*
X469953Y12233D01*
X470053Y12210D01*
X470198Y12199D01*
X470309D01*
X470364Y12210D01*
X470442D01*
X470531Y12221D01*
X470620Y12233D01*
X470742Y11399D01*
X470720D01*
X470676Y11388D01*
X470598Y11377D01*
X470498Y11366D01*
X470387Y11344D01*
X470264Y11333D01*
X470020Y11321D01*
X469931D01*
X469842Y11333D01*
X469731Y11344D01*
X469598Y11355D01*
X469464Y11388D01*
X469342Y11421D01*
X469220Y11477D01*
X469209Y11488D01*
X469176Y11510D01*
X469131Y11544D01*
X469065Y11599D01*
X469009Y11655D01*
X468942Y11733D01*
X468876Y11810D01*
X468831Y11910D01*
Y11921D01*
X468809Y11966D01*
X468798Y12044D01*
X468776Y12155D01*
X468753Y12299D01*
X468742Y12388D01*
Y12488D01*
X468731Y12610D01*
X468720Y12732D01*
Y12866D01*
Y13021D01*
Y16243D01*
X468020D01*
Y16976D01*
X468720D01*
Y18354D01*
X469664Y18921D01*
Y16976D01*
D02*
G37*
G36*
X465032Y17087D02*
X465132Y17076D01*
X465243Y17054D01*
X465365Y17032D01*
X465509Y17010D01*
X465809Y16910D01*
X465965Y16854D01*
X466120Y16776D01*
X466276Y16699D01*
X466432Y16588D01*
X466576Y16477D01*
X466720Y16343D01*
X466731Y16332D01*
X466754Y16310D01*
X466787Y16265D01*
X466831Y16210D01*
X466887Y16132D01*
X466954Y16032D01*
X467020Y15921D01*
X467087Y15799D01*
X467154Y15665D01*
X467220Y15499D01*
X467287Y15332D01*
X467343Y15143D01*
X467387Y14943D01*
X467420Y14732D01*
X467443Y14510D01*
X467454Y14266D01*
Y14254D01*
Y14221D01*
Y14166D01*
Y14088D01*
X467443Y13999D01*
X467431Y13888D01*
Y13777D01*
X467409Y13655D01*
X467376Y13377D01*
X467309Y13099D01*
X467231Y12821D01*
X467120Y12566D01*
Y12555D01*
X467109Y12543D01*
X467087Y12510D01*
X467065Y12466D01*
X466987Y12355D01*
X466887Y12221D01*
X466754Y12066D01*
X466587Y11910D01*
X466398Y11755D01*
X466176Y11610D01*
X466165D01*
X466154Y11599D01*
X466120Y11577D01*
X466065Y11555D01*
X466009Y11532D01*
X465943Y11510D01*
X465776Y11444D01*
X465587Y11388D01*
X465354Y11333D01*
X465109Y11288D01*
X464843Y11277D01*
X464732D01*
X464643Y11288D01*
X464543Y11299D01*
X464432Y11321D01*
X464298Y11344D01*
X464165Y11366D01*
X463865Y11455D01*
X463698Y11521D01*
X463543Y11588D01*
X463387Y11677D01*
X463232Y11777D01*
X463087Y11888D01*
X462943Y12021D01*
X462932Y12032D01*
X462910Y12055D01*
X462876Y12099D01*
X462832Y12166D01*
X462776Y12244D01*
X462721Y12332D01*
X462654Y12444D01*
X462587Y12577D01*
X462521Y12721D01*
X462454Y12888D01*
X462398Y13066D01*
X462343Y13255D01*
X462298Y13466D01*
X462265Y13688D01*
X462243Y13932D01*
X462232Y14188D01*
Y14210D01*
Y14254D01*
X462243Y14332D01*
Y14443D01*
X462254Y14566D01*
X462276Y14721D01*
X462298Y14877D01*
X462343Y15054D01*
X462387Y15232D01*
X462443Y15421D01*
X462510Y15621D01*
X462599Y15810D01*
X462687Y15988D01*
X462810Y16165D01*
X462932Y16332D01*
X463087Y16477D01*
X463098Y16488D01*
X463121Y16499D01*
X463165Y16532D01*
X463221Y16577D01*
X463287Y16621D01*
X463376Y16677D01*
X463465Y16732D01*
X463576Y16788D01*
X463698Y16843D01*
X463832Y16899D01*
X464132Y16999D01*
X464476Y17076D01*
X464654Y17087D01*
X464843Y17099D01*
X464954D01*
X465032Y17087D01*
D02*
G37*
G36*
X486485D02*
X486563D01*
X486641Y17076D01*
X486829Y17043D01*
X487029Y16987D01*
X487241Y16899D01*
X487452Y16788D01*
X487629Y16632D01*
X487652Y16610D01*
X487696Y16543D01*
X487774Y16443D01*
X487807Y16365D01*
X487851Y16288D01*
X487896Y16188D01*
X487929Y16088D01*
X487974Y15977D01*
X488007Y15843D01*
X488029Y15710D01*
X488052Y15554D01*
X488074Y15399D01*
Y15221D01*
Y11399D01*
X487129D01*
Y14899D01*
Y14910D01*
Y14921D01*
Y14988D01*
Y15088D01*
X487118Y15210D01*
X487107Y15343D01*
X487096Y15477D01*
X487074Y15610D01*
X487041Y15710D01*
Y15721D01*
X487018Y15754D01*
X486996Y15799D01*
X486963Y15854D01*
X486918Y15921D01*
X486863Y15988D01*
X486796Y16054D01*
X486707Y16121D01*
X486696Y16132D01*
X486663Y16143D01*
X486618Y16165D01*
X486541Y16199D01*
X486463Y16232D01*
X486363Y16254D01*
X486263Y16265D01*
X486141Y16276D01*
X486085D01*
X486041Y16265D01*
X485929Y16254D01*
X485796Y16232D01*
X485641Y16176D01*
X485474Y16110D01*
X485307Y16010D01*
X485152Y15877D01*
X485141Y15854D01*
X485096Y15799D01*
X485030Y15710D01*
X484963Y15577D01*
X484885Y15399D01*
X484830Y15188D01*
X484785Y14932D01*
X484763Y14632D01*
Y11399D01*
X483819D01*
Y15010D01*
Y15021D01*
Y15043D01*
Y15066D01*
Y15110D01*
X483808Y15232D01*
X483785Y15365D01*
X483763Y15521D01*
X483719Y15677D01*
X483663Y15821D01*
X483585Y15954D01*
X483574Y15965D01*
X483541Y16010D01*
X483485Y16054D01*
X483407Y16121D01*
X483308Y16176D01*
X483174Y16232D01*
X483019Y16265D01*
X482830Y16276D01*
X482763D01*
X482685Y16265D01*
X482596Y16254D01*
X482485Y16221D01*
X482352Y16188D01*
X482230Y16132D01*
X482097Y16065D01*
X482085Y16054D01*
X482041Y16021D01*
X481986Y15977D01*
X481908Y15910D01*
X481830Y15821D01*
X481752Y15710D01*
X481674Y15588D01*
X481608Y15443D01*
X481597Y15421D01*
X481586Y15365D01*
X481563Y15277D01*
X481530Y15154D01*
X481497Y14988D01*
X481474Y14788D01*
X481463Y14554D01*
X481452Y14288D01*
Y11399D01*
X480508D01*
Y16976D01*
X481352D01*
Y16176D01*
X481363Y16199D01*
X481397Y16243D01*
X481463Y16321D01*
X481541Y16410D01*
X481641Y16521D01*
X481763Y16632D01*
X481897Y16743D01*
X482052Y16843D01*
X482074Y16854D01*
X482130Y16887D01*
X482219Y16921D01*
X482341Y16976D01*
X482485Y17021D01*
X482652Y17054D01*
X482841Y17087D01*
X483041Y17099D01*
X483141D01*
X483263Y17087D01*
X483396Y17065D01*
X483563Y17032D01*
X483730Y16987D01*
X483896Y16921D01*
X484052Y16832D01*
X484074Y16821D01*
X484119Y16788D01*
X484185Y16732D01*
X484274Y16643D01*
X484363Y16543D01*
X484463Y16421D01*
X484552Y16276D01*
X484619Y16110D01*
X484630Y16121D01*
X484652Y16154D01*
X484685Y16199D01*
X484741Y16265D01*
X484807Y16343D01*
X484885Y16421D01*
X484974Y16510D01*
X485085Y16610D01*
X485207Y16699D01*
X485330Y16788D01*
X485474Y16865D01*
X485630Y16943D01*
X485796Y17010D01*
X485974Y17054D01*
X486152Y17087D01*
X486352Y17099D01*
X486429D01*
X486485Y17087D01*
D02*
G37*
G36*
X476986D02*
X477086Y17076D01*
X477197Y17054D01*
X477319Y17032D01*
X477464Y17010D01*
X477764Y16910D01*
X477919Y16854D01*
X478075Y16776D01*
X478230Y16699D01*
X478386Y16588D01*
X478530Y16477D01*
X478675Y16343D01*
X478686Y16332D01*
X478708Y16310D01*
X478741Y16265D01*
X478786Y16210D01*
X478841Y16132D01*
X478908Y16032D01*
X478975Y15921D01*
X479041Y15799D01*
X479108Y15665D01*
X479175Y15499D01*
X479241Y15332D01*
X479297Y15143D01*
X479341Y14943D01*
X479375Y14732D01*
X479397Y14510D01*
X479408Y14266D01*
Y14254D01*
Y14221D01*
Y14166D01*
Y14088D01*
X479397Y13999D01*
X479386Y13888D01*
Y13777D01*
X479363Y13655D01*
X479330Y13377D01*
X479263Y13099D01*
X479186Y12821D01*
X479075Y12566D01*
Y12555D01*
X479064Y12543D01*
X479041Y12510D01*
X479019Y12466D01*
X478941Y12355D01*
X478841Y12221D01*
X478708Y12066D01*
X478541Y11910D01*
X478352Y11755D01*
X478130Y11610D01*
X478119D01*
X478108Y11599D01*
X478075Y11577D01*
X478019Y11555D01*
X477964Y11532D01*
X477897Y11510D01*
X477730Y11444D01*
X477541Y11388D01*
X477308Y11333D01*
X477064Y11288D01*
X476797Y11277D01*
X476686D01*
X476597Y11288D01*
X476497Y11299D01*
X476386Y11321D01*
X476253Y11344D01*
X476119Y11366D01*
X475819Y11455D01*
X475653Y11521D01*
X475497Y11588D01*
X475342Y11677D01*
X475186Y11777D01*
X475042Y11888D01*
X474897Y12021D01*
X474886Y12032D01*
X474864Y12055D01*
X474831Y12099D01*
X474786Y12166D01*
X474731Y12244D01*
X474675Y12332D01*
X474608Y12444D01*
X474542Y12577D01*
X474475Y12721D01*
X474408Y12888D01*
X474353Y13066D01*
X474297Y13255D01*
X474253Y13466D01*
X474220Y13688D01*
X474197Y13932D01*
X474186Y14188D01*
Y14210D01*
Y14254D01*
X474197Y14332D01*
Y14443D01*
X474208Y14566D01*
X474231Y14721D01*
X474253Y14877D01*
X474297Y15054D01*
X474342Y15232D01*
X474397Y15421D01*
X474464Y15621D01*
X474553Y15810D01*
X474642Y15988D01*
X474764Y16165D01*
X474886Y16332D01*
X475042Y16477D01*
X475053Y16488D01*
X475075Y16499D01*
X475119Y16532D01*
X475175Y16577D01*
X475242Y16621D01*
X475331Y16677D01*
X475419Y16732D01*
X475530Y16788D01*
X475653Y16843D01*
X475786Y16899D01*
X476086Y16999D01*
X476431Y17076D01*
X476608Y17087D01*
X476797Y17099D01*
X476908D01*
X476986Y17087D01*
D02*
G37*
G36*
X516438D02*
X516526Y17076D01*
X516638Y17054D01*
X516760Y17032D01*
X516904Y16999D01*
X517037Y16965D01*
X517193Y16910D01*
X517338Y16854D01*
X517493Y16776D01*
X517649Y16688D01*
X517804Y16588D01*
X517948Y16465D01*
X518082Y16332D01*
X518093Y16321D01*
X518115Y16299D01*
X518149Y16254D01*
X518193Y16188D01*
X518249Y16110D01*
X518304Y16021D01*
X518371Y15910D01*
X518437Y15777D01*
X518504Y15632D01*
X518571Y15477D01*
X518626Y15299D01*
X518682Y15110D01*
X518726Y14899D01*
X518760Y14677D01*
X518782Y14443D01*
X518793Y14188D01*
Y14177D01*
Y14132D01*
Y14054D01*
X518782Y13943D01*
X514615D01*
Y13932D01*
Y13899D01*
X514627Y13855D01*
Y13788D01*
X514638Y13710D01*
X514660Y13621D01*
X514693Y13421D01*
X514760Y13199D01*
X514849Y12955D01*
X514971Y12732D01*
X515127Y12532D01*
X515138D01*
X515149Y12510D01*
X515215Y12455D01*
X515315Y12377D01*
X515449Y12299D01*
X515626Y12210D01*
X515827Y12133D01*
X516049Y12077D01*
X516171Y12066D01*
X516304Y12055D01*
X516393D01*
X516493Y12066D01*
X516615Y12088D01*
X516749Y12121D01*
X516904Y12166D01*
X517049Y12233D01*
X517193Y12321D01*
X517204Y12332D01*
X517260Y12377D01*
X517326Y12444D01*
X517404Y12532D01*
X517493Y12655D01*
X517593Y12810D01*
X517693Y12988D01*
X517782Y13199D01*
X518760Y13077D01*
Y13066D01*
X518748Y13044D01*
X518737Y12999D01*
X518715Y12932D01*
X518682Y12866D01*
X518648Y12777D01*
X518560Y12588D01*
X518448Y12377D01*
X518293Y12155D01*
X518115Y11944D01*
X517893Y11744D01*
X517882D01*
X517860Y11721D01*
X517826Y11699D01*
X517782Y11666D01*
X517715Y11632D01*
X517649Y11599D01*
X517560Y11555D01*
X517460Y11510D01*
X517349Y11466D01*
X517238Y11421D01*
X516960Y11355D01*
X516649Y11299D01*
X516304Y11277D01*
X516182D01*
X516104Y11288D01*
X516004Y11299D01*
X515882Y11321D01*
X515749Y11344D01*
X515604Y11366D01*
X515293Y11455D01*
X515127Y11521D01*
X514971Y11588D01*
X514804Y11677D01*
X514649Y11777D01*
X514504Y11888D01*
X514360Y12021D01*
X514349Y12032D01*
X514327Y12055D01*
X514293Y12099D01*
X514249Y12166D01*
X514193Y12244D01*
X514138Y12332D01*
X514071Y12444D01*
X514005Y12566D01*
X513938Y12710D01*
X513871Y12866D01*
X513816Y13044D01*
X513760Y13232D01*
X513716Y13432D01*
X513682Y13655D01*
X513660Y13888D01*
X513649Y14132D01*
Y14143D01*
Y14199D01*
Y14266D01*
X513660Y14366D01*
X513671Y14488D01*
X513682Y14621D01*
X513704Y14777D01*
X513738Y14932D01*
X513827Y15288D01*
X513882Y15465D01*
X513949Y15654D01*
X514038Y15832D01*
X514138Y15999D01*
X514249Y16165D01*
X514371Y16321D01*
X514382Y16332D01*
X514404Y16354D01*
X514449Y16388D01*
X514504Y16443D01*
X514571Y16499D01*
X514660Y16565D01*
X514760Y16643D01*
X514882Y16710D01*
X515004Y16788D01*
X515149Y16854D01*
X515304Y16921D01*
X515471Y16976D01*
X515649Y17032D01*
X515838Y17065D01*
X516038Y17087D01*
X516249Y17099D01*
X516360D01*
X516438Y17087D01*
D02*
G37*
G36*
X507661D02*
X507827Y17076D01*
X508005Y17054D01*
X508194Y17010D01*
X508394Y16965D01*
X508583Y16899D01*
X508594D01*
X508605Y16887D01*
X508661Y16865D01*
X508749Y16821D01*
X508860Y16765D01*
X508983Y16688D01*
X509105Y16599D01*
X509216Y16499D01*
X509316Y16388D01*
X509327Y16376D01*
X509349Y16332D01*
X509394Y16254D01*
X509449Y16165D01*
X509505Y16032D01*
X509560Y15888D01*
X509605Y15721D01*
X509649Y15532D01*
X508727Y15410D01*
Y15432D01*
X508716Y15477D01*
X508694Y15554D01*
X508661Y15654D01*
X508605Y15754D01*
X508538Y15865D01*
X508461Y15977D01*
X508350Y16077D01*
X508338Y16088D01*
X508294Y16110D01*
X508227Y16154D01*
X508127Y16199D01*
X508016Y16243D01*
X507872Y16288D01*
X507694Y16310D01*
X507505Y16321D01*
X507394D01*
X507283Y16310D01*
X507138Y16299D01*
X506994Y16265D01*
X506839Y16232D01*
X506694Y16176D01*
X506572Y16099D01*
X506561Y16088D01*
X506527Y16065D01*
X506483Y16021D01*
X506439Y15954D01*
X506383Y15888D01*
X506339Y15799D01*
X506305Y15699D01*
X506294Y15599D01*
Y15588D01*
Y15565D01*
X506305Y15532D01*
Y15488D01*
X506339Y15377D01*
X506405Y15266D01*
X506416Y15254D01*
X506427Y15243D01*
X506450Y15210D01*
X506494Y15177D01*
X506539Y15143D01*
X506605Y15099D01*
X506683Y15066D01*
X506772Y15021D01*
X506783D01*
X506805Y15010D01*
X506850Y14999D01*
X506927Y14965D01*
X507038Y14932D01*
X507183Y14899D01*
X507272Y14865D01*
X507372Y14843D01*
X507483Y14810D01*
X507605Y14777D01*
X507616D01*
X507650Y14765D01*
X507705Y14754D01*
X507772Y14732D01*
X507850Y14710D01*
X507949Y14688D01*
X508161Y14621D01*
X508394Y14554D01*
X508627Y14477D01*
X508838Y14399D01*
X508927Y14366D01*
X509005Y14332D01*
X509027Y14321D01*
X509072Y14299D01*
X509138Y14266D01*
X509238Y14210D01*
X509338Y14143D01*
X509438Y14054D01*
X509538Y13954D01*
X509627Y13843D01*
X509638Y13832D01*
X509660Y13788D01*
X509705Y13721D01*
X509749Y13621D01*
X509783Y13499D01*
X509827Y13366D01*
X509849Y13210D01*
X509860Y13032D01*
Y13010D01*
Y12955D01*
X509849Y12866D01*
X509827Y12743D01*
X509794Y12610D01*
X509738Y12466D01*
X509672Y12299D01*
X509583Y12144D01*
X509572Y12121D01*
X509527Y12077D01*
X509472Y11999D01*
X509383Y11910D01*
X509261Y11810D01*
X509127Y11699D01*
X508972Y11599D01*
X508783Y11499D01*
X508772D01*
X508760Y11488D01*
X508694Y11466D01*
X508583Y11433D01*
X508438Y11388D01*
X508261Y11344D01*
X508061Y11310D01*
X507850Y11288D01*
X507605Y11277D01*
X507505D01*
X507427Y11288D01*
X507338D01*
X507227Y11299D01*
X507116Y11310D01*
X506994Y11333D01*
X506727Y11388D01*
X506450Y11466D01*
X506183Y11577D01*
X506061Y11644D01*
X505950Y11721D01*
X505939Y11733D01*
X505928Y11744D01*
X505861Y11810D01*
X505761Y11910D01*
X505650Y12066D01*
X505527Y12255D01*
X505405Y12477D01*
X505305Y12755D01*
X505228Y13066D01*
X506161Y13210D01*
Y13199D01*
Y13188D01*
X506183Y13121D01*
X506205Y13010D01*
X506250Y12888D01*
X506305Y12755D01*
X506372Y12610D01*
X506472Y12466D01*
X506594Y12344D01*
X506616Y12332D01*
X506661Y12299D01*
X506750Y12255D01*
X506861Y12199D01*
X507005Y12144D01*
X507172Y12099D01*
X507372Y12066D01*
X507605Y12055D01*
X507716D01*
X507827Y12066D01*
X507972Y12088D01*
X508127Y12121D01*
X508294Y12166D01*
X508438Y12221D01*
X508572Y12310D01*
X508583Y12321D01*
X508627Y12355D01*
X508672Y12410D01*
X508738Y12488D01*
X508794Y12577D01*
X508849Y12688D01*
X508883Y12799D01*
X508894Y12932D01*
Y12944D01*
Y12988D01*
X508883Y13044D01*
X508860Y13121D01*
X508827Y13199D01*
X508772Y13277D01*
X508705Y13366D01*
X508605Y13432D01*
X508594Y13443D01*
X508561Y13455D01*
X508505Y13488D01*
X508416Y13521D01*
X508283Y13566D01*
X508205Y13599D01*
X508116Y13621D01*
X508016Y13655D01*
X507905Y13688D01*
X507783Y13721D01*
X507638Y13755D01*
X507627D01*
X507594Y13766D01*
X507539Y13777D01*
X507472Y13799D01*
X507383Y13821D01*
X507283Y13855D01*
X507072Y13910D01*
X506827Y13988D01*
X506594Y14054D01*
X506372Y14132D01*
X506272Y14177D01*
X506194Y14210D01*
X506172Y14221D01*
X506128Y14243D01*
X506061Y14288D01*
X505972Y14343D01*
X505872Y14421D01*
X505772Y14510D01*
X505672Y14610D01*
X505583Y14732D01*
X505572Y14743D01*
X505550Y14788D01*
X505516Y14865D01*
X505483Y14954D01*
X505450Y15066D01*
X505416Y15199D01*
X505394Y15332D01*
X505383Y15488D01*
Y15510D01*
Y15554D01*
X505394Y15621D01*
X505405Y15721D01*
X505428Y15821D01*
X505450Y15943D01*
X505494Y16054D01*
X505550Y16176D01*
X505561Y16188D01*
X505583Y16232D01*
X505616Y16288D01*
X505672Y16365D01*
X505739Y16443D01*
X505816Y16543D01*
X505905Y16632D01*
X506016Y16710D01*
X506028Y16721D01*
X506061Y16732D01*
X506105Y16765D01*
X506172Y16799D01*
X506261Y16843D01*
X506361Y16887D01*
X506483Y16932D01*
X506616Y16976D01*
X506638Y16987D01*
X506683Y16999D01*
X506761Y17021D01*
X506861Y17043D01*
X506983Y17065D01*
X507116Y17076D01*
X507272Y17099D01*
X507539D01*
X507661Y17087D01*
D02*
G37*
%LPC*%
G36*
X516260Y16321D02*
X516193D01*
X516149Y16310D01*
X516026Y16299D01*
X515882Y16265D01*
X515704Y16210D01*
X515515Y16132D01*
X515338Y16021D01*
X515160Y15877D01*
X515138Y15854D01*
X515093Y15799D01*
X515016Y15699D01*
X514938Y15565D01*
X514849Y15410D01*
X514771Y15210D01*
X514704Y14977D01*
X514671Y14721D01*
X517793D01*
Y14732D01*
Y14754D01*
X517782Y14788D01*
Y14832D01*
X517760Y14965D01*
X517726Y15110D01*
X517671Y15288D01*
X517615Y15454D01*
X517526Y15621D01*
X517426Y15765D01*
Y15777D01*
X517404Y15788D01*
X517349Y15854D01*
X517249Y15943D01*
X517115Y16043D01*
X516949Y16143D01*
X516749Y16232D01*
X516515Y16299D01*
X516393Y16310D01*
X516260Y16321D01*
D02*
G37*
G36*
X495806Y18176D02*
X493607D01*
Y15432D01*
X495673D01*
X495751Y15443D01*
X495828D01*
X495917Y15454D01*
X496129Y15477D01*
X496362Y15521D01*
X496595Y15588D01*
X496806Y15677D01*
X496906Y15732D01*
X496984Y15799D01*
X497006Y15821D01*
X497051Y15865D01*
X497117Y15954D01*
X497195Y16065D01*
X497273Y16210D01*
X497339Y16388D01*
X497384Y16588D01*
X497406Y16821D01*
Y16832D01*
Y16843D01*
Y16899D01*
X497395Y16999D01*
X497373Y17110D01*
X497351Y17232D01*
X497306Y17376D01*
X497239Y17510D01*
X497162Y17643D01*
X497151Y17654D01*
X497117Y17699D01*
X497062Y17754D01*
X496995Y17832D01*
X496895Y17910D01*
X496784Y17976D01*
X496662Y18043D01*
X496517Y18099D01*
X496506D01*
X496462Y18110D01*
X496395Y18121D01*
X496306Y18143D01*
X496173Y18154D01*
X496006Y18165D01*
X495806Y18176D01*
D02*
G37*
G36*
X458343D02*
X456521D01*
Y15865D01*
X458410D01*
X458555Y15877D01*
X458710Y15888D01*
X458865Y15899D01*
X459021Y15921D01*
X459143Y15943D01*
X459165Y15954D01*
X459210Y15965D01*
X459277Y15999D01*
X459366Y16043D01*
X459454Y16088D01*
X459554Y16154D01*
X459654Y16243D01*
X459732Y16332D01*
X459743Y16343D01*
X459765Y16376D01*
X459799Y16443D01*
X459832Y16521D01*
X459865Y16610D01*
X459899Y16721D01*
X459921Y16854D01*
X459932Y16999D01*
Y17021D01*
Y17065D01*
X459921Y17132D01*
X459910Y17221D01*
X459888Y17332D01*
X459854Y17443D01*
X459810Y17554D01*
X459743Y17665D01*
X459732Y17676D01*
X459710Y17710D01*
X459665Y17765D01*
X459610Y17821D01*
X459532Y17887D01*
X459443Y17954D01*
X459332Y18021D01*
X459210Y18065D01*
X459199D01*
X459143Y18087D01*
X459065Y18099D01*
X458943Y18121D01*
X458777Y18143D01*
X458588Y18154D01*
X458343Y18176D01*
D02*
G37*
G36*
X458543Y14954D02*
X456521D01*
Y12310D01*
X458710D01*
X458943Y12321D01*
X459043Y12332D01*
X459132Y12344D01*
X459143D01*
X459188Y12355D01*
X459254Y12366D01*
X459332Y12388D01*
X459521Y12455D01*
X459710Y12543D01*
X459721Y12555D01*
X459754Y12577D01*
X459799Y12610D01*
X459854Y12655D01*
X459910Y12721D01*
X459988Y12788D01*
X460043Y12877D01*
X460110Y12977D01*
X460121Y12988D01*
X460132Y13021D01*
X460154Y13088D01*
X460188Y13166D01*
X460221Y13255D01*
X460243Y13366D01*
X460254Y13499D01*
X460265Y13632D01*
Y13655D01*
Y13699D01*
X460254Y13788D01*
X460232Y13888D01*
X460210Y13999D01*
X460165Y14121D01*
X460110Y14243D01*
X460032Y14366D01*
X460021Y14377D01*
X459988Y14421D01*
X459943Y14477D01*
X459877Y14543D01*
X459788Y14621D01*
X459677Y14699D01*
X459554Y14765D01*
X459410Y14821D01*
X459388Y14832D01*
X459343Y14843D01*
X459243Y14865D01*
X459121Y14888D01*
X458965Y14910D01*
X458777Y14932D01*
X458543Y14954D01*
D02*
G37*
G36*
X503194Y14199D02*
X503183D01*
X503172Y14188D01*
X503139Y14177D01*
X503094Y14166D01*
X503039Y14143D01*
X502972Y14121D01*
X502894Y14099D01*
X502806Y14077D01*
X502706Y14043D01*
X502583Y14021D01*
X502461Y13988D01*
X502317Y13954D01*
X502161Y13921D01*
X502006Y13888D01*
X501828Y13866D01*
X501639Y13832D01*
X501617D01*
X501550Y13821D01*
X501439Y13799D01*
X501317Y13777D01*
X501184Y13755D01*
X501050Y13721D01*
X500928Y13688D01*
X500817Y13643D01*
X500806D01*
X500772Y13621D01*
X500728Y13599D01*
X500684Y13566D01*
X500550Y13477D01*
X500439Y13343D01*
Y13332D01*
X500417Y13310D01*
X500406Y13266D01*
X500384Y13210D01*
X500361Y13144D01*
X500339Y13077D01*
X500328Y12988D01*
X500317Y12899D01*
Y12888D01*
Y12832D01*
X500328Y12766D01*
X500350Y12677D01*
X500384Y12577D01*
X500439Y12477D01*
X500506Y12366D01*
X500595Y12266D01*
X500606Y12255D01*
X500650Y12233D01*
X500717Y12188D01*
X500806Y12144D01*
X500928Y12099D01*
X501072Y12055D01*
X501239Y12032D01*
X501439Y12021D01*
X501528D01*
X501639Y12032D01*
X501761Y12055D01*
X501917Y12077D01*
X502072Y12121D01*
X502239Y12177D01*
X502406Y12255D01*
X502428Y12266D01*
X502472Y12299D01*
X502550Y12355D01*
X502639Y12432D01*
X502739Y12521D01*
X502850Y12632D01*
X502939Y12766D01*
X503028Y12910D01*
X503039Y12921D01*
X503050Y12966D01*
X503072Y13044D01*
X503106Y13144D01*
X503139Y13277D01*
X503161Y13432D01*
X503172Y13621D01*
X503183Y13843D01*
X503194Y14199D01*
D02*
G37*
G36*
X464843Y16321D02*
X464776D01*
X464720Y16310D01*
X464598Y16299D01*
X464432Y16254D01*
X464243Y16188D01*
X464043Y16099D01*
X463854Y15965D01*
X463754Y15877D01*
X463665Y15788D01*
Y15777D01*
X463643Y15765D01*
X463621Y15732D01*
X463587Y15688D01*
X463554Y15632D01*
X463521Y15565D01*
X463476Y15477D01*
X463432Y15388D01*
X463387Y15277D01*
X463343Y15166D01*
X463309Y15032D01*
X463276Y14888D01*
X463243Y14732D01*
X463221Y14566D01*
X463210Y14377D01*
X463198Y14188D01*
Y14177D01*
Y14143D01*
Y14088D01*
X463210Y14010D01*
Y13921D01*
X463221Y13821D01*
X463254Y13588D01*
X463309Y13321D01*
X463398Y13055D01*
X463510Y12799D01*
X463587Y12688D01*
X463665Y12577D01*
X463676D01*
X463687Y12555D01*
X463754Y12499D01*
X463854Y12410D01*
X463987Y12321D01*
X464154Y12221D01*
X464354Y12133D01*
X464587Y12077D01*
X464709Y12066D01*
X464843Y12055D01*
X464909D01*
X464965Y12066D01*
X465087Y12088D01*
X465254Y12121D01*
X465431Y12188D01*
X465631Y12277D01*
X465820Y12410D01*
X465920Y12499D01*
X466009Y12588D01*
X466020Y12599D01*
X466032Y12610D01*
X466054Y12643D01*
X466087Y12688D01*
X466120Y12743D01*
X466165Y12810D01*
X466209Y12899D01*
X466254Y12988D01*
X466298Y13099D01*
X466331Y13221D01*
X466376Y13355D01*
X466409Y13499D01*
X466443Y13666D01*
X466465Y13832D01*
X466487Y14021D01*
Y14221D01*
Y14232D01*
Y14266D01*
Y14321D01*
X466476Y14388D01*
Y14477D01*
X466465Y14577D01*
X466432Y14810D01*
X466376Y15054D01*
X466287Y15321D01*
X466165Y15565D01*
X466098Y15688D01*
X466009Y15788D01*
Y15799D01*
X465987Y15810D01*
X465920Y15877D01*
X465820Y15954D01*
X465687Y16054D01*
X465520Y16154D01*
X465320Y16243D01*
X465098Y16299D01*
X464976Y16310D01*
X464843Y16321D01*
D02*
G37*
G36*
X476797D02*
X476730D01*
X476675Y16310D01*
X476553Y16299D01*
X476386Y16254D01*
X476197Y16188D01*
X475997Y16099D01*
X475808Y15965D01*
X475708Y15877D01*
X475619Y15788D01*
Y15777D01*
X475597Y15765D01*
X475575Y15732D01*
X475542Y15688D01*
X475508Y15632D01*
X475475Y15565D01*
X475431Y15477D01*
X475386Y15388D01*
X475342Y15277D01*
X475297Y15166D01*
X475264Y15032D01*
X475231Y14888D01*
X475197Y14732D01*
X475175Y14566D01*
X475164Y14377D01*
X475153Y14188D01*
Y14177D01*
Y14143D01*
Y14088D01*
X475164Y14010D01*
Y13921D01*
X475175Y13821D01*
X475208Y13588D01*
X475264Y13321D01*
X475353Y13055D01*
X475464Y12799D01*
X475542Y12688D01*
X475619Y12577D01*
X475631D01*
X475642Y12555D01*
X475708Y12499D01*
X475808Y12410D01*
X475942Y12321D01*
X476108Y12221D01*
X476308Y12133D01*
X476542Y12077D01*
X476664Y12066D01*
X476797Y12055D01*
X476864D01*
X476919Y12066D01*
X477041Y12088D01*
X477208Y12121D01*
X477386Y12188D01*
X477586Y12277D01*
X477775Y12410D01*
X477875Y12499D01*
X477964Y12588D01*
X477975Y12599D01*
X477986Y12610D01*
X478008Y12643D01*
X478041Y12688D01*
X478075Y12743D01*
X478119Y12810D01*
X478164Y12899D01*
X478208Y12988D01*
X478253Y13099D01*
X478286Y13221D01*
X478330Y13355D01*
X478364Y13499D01*
X478397Y13666D01*
X478419Y13832D01*
X478441Y14021D01*
Y14221D01*
Y14232D01*
Y14266D01*
Y14321D01*
X478430Y14388D01*
Y14477D01*
X478419Y14577D01*
X478386Y14810D01*
X478330Y15054D01*
X478241Y15321D01*
X478119Y15565D01*
X478053Y15688D01*
X477964Y15788D01*
Y15799D01*
X477941Y15810D01*
X477875Y15877D01*
X477775Y15954D01*
X477641Y16054D01*
X477475Y16154D01*
X477275Y16243D01*
X477053Y16299D01*
X476930Y16310D01*
X476797Y16321D01*
D02*
G37*
%LPD*%
D42*
X53671Y142018D02*
D03*
X61152D02*
D03*
D43*
X64961Y43307D02*
D03*
X49999Y43308D02*
D03*
M02*
