%FSLAX25Y25*%
%MOIN*%
G70*
G01*
G75*
G04 Layer_Physical_Order=1*
G04 Layer_Color=255*
%ADD10R,0.02362X0.03543*%
%ADD11R,0.03543X0.02362*%
%ADD12R,0.03937X0.04331*%
%ADD13R,0.06299X0.13780*%
%ADD14R,0.05000X0.03600*%
%ADD15R,0.03600X0.03600*%
%ADD16R,0.06693X0.01750*%
%ADD17R,0.08661X0.05118*%
%ADD18R,0.06299X0.07874*%
%ADD19O,0.04921X0.01772*%
%ADD20R,0.06102X0.01378*%
%ADD21C,0.01000*%
%ADD22C,0.00800*%
%ADD23C,0.02500*%
%ADD24C,0.02000*%
%ADD25C,0.08000*%
%ADD26C,0.07000*%
%ADD27C,0.10000*%
%ADD28R,0.07000X0.07000*%
%ADD29C,0.04724*%
%ADD30C,0.05906*%
%ADD31R,0.07000X0.07000*%
%ADD32C,0.08661*%
%ADD33C,0.07874*%
G04:AMPARAMS|DCode=34|XSize=118.11mil|YSize=39.37mil|CornerRadius=19.69mil|HoleSize=0mil|Usage=FLASHONLY|Rotation=0.000|XOffset=0mil|YOffset=0mil|HoleType=Round|Shape=RoundedRectangle|*
%AMROUNDEDRECTD34*
21,1,0.11811,0.00000,0,0,0.0*
21,1,0.07874,0.03937,0,0,0.0*
1,1,0.03937,0.03937,0.00000*
1,1,0.03937,-0.03937,0.00000*
1,1,0.03937,-0.03937,0.00000*
1,1,0.03937,0.03937,0.00000*
%
%ADD34ROUNDEDRECTD34*%
%ADD35O,0.15748X0.03937*%
G04:AMPARAMS|DCode=36|XSize=118.11mil|YSize=39.37mil|CornerRadius=19.69mil|HoleSize=0mil|Usage=FLASHONLY|Rotation=90.000|XOffset=0mil|YOffset=0mil|HoleType=Round|Shape=RoundedRectangle|*
%AMROUNDEDRECTD36*
21,1,0.11811,0.00000,0,0,90.0*
21,1,0.07874,0.03937,0,0,90.0*
1,1,0.03937,0.00000,0.03937*
1,1,0.03937,0.00000,-0.03937*
1,1,0.03937,0.00000,-0.03937*
1,1,0.03937,0.00000,0.03937*
%
%ADD36ROUNDEDRECTD36*%
%ADD37C,0.05512*%
%ADD38C,0.17716*%
%ADD39C,0.07874*%
%ADD40C,0.03937*%
%ADD41C,0.03150*%
G36*
X21925Y110114D02*
X22425D01*
Y108177D01*
X24606D01*
Y107177D01*
X22425D01*
Y104905D01*
X23442D01*
X23667Y104360D01*
X22677Y103370D01*
X22257Y102741D01*
X22164Y102272D01*
X21366D01*
Y95728D01*
Y91411D01*
X20759Y91290D01*
X20130Y90870D01*
X19032Y89772D01*
X16272D01*
Y89772D01*
X15728D01*
Y89772D01*
X14921D01*
X14837Y90194D01*
X14417Y90823D01*
X13370Y91870D01*
X12741Y92290D01*
X12459Y92346D01*
X12193Y92693D01*
X11551Y93186D01*
X10803Y93496D01*
X10598Y93523D01*
X10386Y94146D01*
X12370Y96130D01*
X12790Y96759D01*
X12937Y97500D01*
Y104698D01*
X19688Y111449D01*
X21925D01*
Y110114D01*
D02*
G37*
G36*
X397374Y11310D02*
Y11299D01*
X397363Y11266D01*
X397341Y11221D01*
X397319Y11166D01*
X397285Y11088D01*
X397252Y10999D01*
X397174Y10810D01*
X397096Y10599D01*
X397007Y10388D01*
X396919Y10199D01*
X396874Y10122D01*
X396841Y10044D01*
X396830Y10022D01*
X396796Y9966D01*
X396741Y9888D01*
X396674Y9788D01*
X396585Y9677D01*
X396485Y9566D01*
X396385Y9455D01*
X396263Y9366D01*
X396252Y9355D01*
X396207Y9333D01*
X396141Y9299D01*
X396041Y9255D01*
X395930Y9211D01*
X395796Y9177D01*
X395652Y9155D01*
X395485Y9144D01*
X395441D01*
X395385Y9155D01*
X395308D01*
X395219Y9177D01*
X395119Y9199D01*
X395008Y9222D01*
X394885Y9266D01*
X394785Y10144D01*
X394796D01*
X394841Y10133D01*
X394897Y10122D01*
X394963Y10099D01*
X395141Y10066D01*
X395319Y10055D01*
X395374D01*
X395430Y10066D01*
X395497D01*
X395663Y10099D01*
X395741Y10133D01*
X395819Y10166D01*
X395830D01*
X395852Y10188D01*
X395885Y10210D01*
X395930Y10244D01*
X396030Y10333D01*
X396119Y10455D01*
Y10466D01*
X396141Y10488D01*
X396163Y10533D01*
X396185Y10599D01*
X396230Y10688D01*
X396274Y10821D01*
X396341Y10977D01*
X396408Y11166D01*
Y11177D01*
X396430Y11221D01*
X396452Y11299D01*
X396496Y11399D01*
X394386Y16976D01*
X395385D01*
X396552Y13743D01*
Y13732D01*
X396563Y13721D01*
X396574Y13688D01*
X396585Y13632D01*
X396607Y13577D01*
X396630Y13510D01*
X396685Y13355D01*
X396752Y13166D01*
X396819Y12944D01*
X396885Y12710D01*
X396952Y12455D01*
Y12466D01*
X396963Y12488D01*
X396974Y12521D01*
X396985Y12566D01*
X396996Y12621D01*
X397019Y12688D01*
X397063Y12855D01*
X397118Y13044D01*
X397196Y13266D01*
X397263Y13488D01*
X397352Y13721D01*
X398552Y16976D01*
X399496D01*
X397374Y11310D01*
D02*
G37*
G36*
X54634Y44933D02*
X55441Y44314D01*
X56048Y44062D01*
X56292Y43405D01*
X56283Y43351D01*
X56210Y43241D01*
X56063Y42500D01*
Y34877D01*
X55472Y34585D01*
X54993Y34953D01*
X54032Y35351D01*
X53500Y35421D01*
Y31500D01*
Y27579D01*
X54032Y27649D01*
X54993Y28047D01*
X55472Y28415D01*
X56063Y28123D01*
Y24000D01*
X56210Y23259D01*
X56630Y22630D01*
X58095Y21165D01*
X58082Y21016D01*
X57898Y20575D01*
X57547D01*
Y17803D01*
X57047D01*
Y17303D01*
X54866D01*
Y15362D01*
X54866Y15032D01*
X54383Y14772D01*
X54383D01*
X54366D01*
Y13583D01*
X53776Y13065D01*
X53500Y13101D01*
X52697Y12996D01*
X51949Y12686D01*
X51599Y12417D01*
X50961Y12672D01*
X50842Y13270D01*
X50315Y14059D01*
X49525Y14586D01*
X49059Y14679D01*
Y18236D01*
X48904Y19017D01*
X48462Y19678D01*
X47634Y20506D01*
Y23575D01*
X47634Y23575D01*
X47755Y24115D01*
X47996Y24697D01*
X48101Y25500D01*
X47996Y26303D01*
X47686Y27051D01*
X47193Y27693D01*
X46551Y28186D01*
X45803Y28496D01*
X45000Y28601D01*
X44197Y28496D01*
X43449Y28186D01*
X42807Y27693D01*
X42314Y27051D01*
X42004Y26303D01*
X41899Y25500D01*
X42004Y24697D01*
X42232Y24149D01*
X42272Y23575D01*
X42272Y23575D01*
X42272Y23575D01*
Y18914D01*
X41784Y18605D01*
X41228Y18818D01*
Y19803D01*
X36866D01*
Y17531D01*
X38023D01*
X38269Y16941D01*
X38004Y16303D01*
X37899Y15500D01*
X37936Y15215D01*
X37547Y14771D01*
X35405D01*
X34475Y14586D01*
X33685Y14059D01*
X33158Y13270D01*
X32973Y12339D01*
X33158Y11408D01*
X33391Y11059D01*
X33158Y10710D01*
X32973Y9780D01*
X32986Y9716D01*
X32611Y9260D01*
X31134D01*
Y10728D01*
Y17272D01*
X30492D01*
Y21563D01*
X32161D01*
Y27961D01*
X32500D01*
X33280Y28116D01*
X33942Y28558D01*
X36442Y31058D01*
X36884Y31720D01*
X37039Y32500D01*
Y43966D01*
X37630Y44447D01*
X38000Y44399D01*
X38803Y44504D01*
X39551Y44814D01*
X40193Y45307D01*
X40389Y45563D01*
X54151D01*
X54634Y44933D01*
D02*
G37*
G36*
X56444Y120341D02*
X56399Y120000D01*
X56504Y119197D01*
X56814Y118449D01*
X57307Y117807D01*
X57949Y117314D01*
X58697Y117004D01*
X59500Y116899D01*
X60303Y117004D01*
X61051Y117314D01*
X61693Y117807D01*
X61889Y118063D01*
X81698D01*
X82610Y117150D01*
Y108272D01*
X81866D01*
Y103539D01*
X73360D01*
X71521Y105379D01*
X70859Y105821D01*
X70079Y105976D01*
X64567D01*
X63787Y105821D01*
X63125Y105379D01*
X62285Y104539D01*
X54634D01*
Y106697D01*
X50272D01*
Y105840D01*
X50000Y105601D01*
X49672Y105558D01*
X49228Y105948D01*
Y110468D01*
X49228D01*
Y110468D01*
X49719Y110709D01*
X49819Y110728D01*
X55134D01*
Y117272D01*
X54492D01*
Y119224D01*
X55884Y120616D01*
X56444Y120341D01*
D02*
G37*
G36*
X376654Y17087D02*
X376732Y17076D01*
X376898Y17054D01*
X377098Y17010D01*
X377309Y16943D01*
X377520Y16843D01*
X377732Y16721D01*
X377743D01*
X377754Y16699D01*
X377820Y16654D01*
X377920Y16565D01*
X378043Y16454D01*
X378176Y16310D01*
X378309Y16132D01*
X378443Y15921D01*
X378554Y15688D01*
Y15677D01*
X378565Y15654D01*
X378576Y15621D01*
X378598Y15577D01*
X378620Y15510D01*
X378643Y15432D01*
X378698Y15254D01*
X378754Y15032D01*
X378798Y14788D01*
X378832Y14510D01*
X378843Y14221D01*
Y14210D01*
Y14188D01*
Y14143D01*
Y14077D01*
X378832Y13999D01*
Y13910D01*
X378809Y13710D01*
X378765Y13466D01*
X378709Y13210D01*
X378631Y12944D01*
X378532Y12677D01*
Y12666D01*
X378520Y12643D01*
X378498Y12610D01*
X378476Y12566D01*
X378398Y12444D01*
X378298Y12288D01*
X378176Y12121D01*
X378020Y11955D01*
X377843Y11788D01*
X377632Y11632D01*
X377621D01*
X377609Y11621D01*
X377576Y11599D01*
X377532Y11577D01*
X377420Y11521D01*
X377265Y11455D01*
X377076Y11388D01*
X376876Y11333D01*
X376643Y11288D01*
X376410Y11277D01*
X376332D01*
X376243Y11288D01*
X376132Y11299D01*
X375998Y11321D01*
X375854Y11355D01*
X375710Y11399D01*
X375565Y11466D01*
X375554Y11477D01*
X375499Y11499D01*
X375432Y11544D01*
X375343Y11610D01*
X375254Y11677D01*
X375143Y11766D01*
X375043Y11866D01*
X374954Y11977D01*
Y9266D01*
X374010D01*
Y16976D01*
X374865D01*
Y16243D01*
X374876Y16265D01*
X374921Y16310D01*
X374976Y16388D01*
X375065Y16477D01*
X375165Y16588D01*
X375276Y16688D01*
X375410Y16788D01*
X375543Y16876D01*
X375565Y16887D01*
X375610Y16910D01*
X375698Y16943D01*
X375810Y16987D01*
X375943Y17032D01*
X376098Y17065D01*
X376276Y17087D01*
X376476Y17099D01*
X376598D01*
X376654Y17087D01*
D02*
G37*
G36*
X408506D02*
X408629Y17065D01*
X408773Y17021D01*
X408928Y16965D01*
X409106Y16887D01*
X409295Y16788D01*
X408951Y15921D01*
X408940Y15932D01*
X408895Y15954D01*
X408828Y15988D01*
X408740Y16021D01*
X408640Y16054D01*
X408517Y16088D01*
X408395Y16110D01*
X408273Y16121D01*
X408217D01*
X408162Y16110D01*
X408084Y16099D01*
X408006Y16077D01*
X407906Y16043D01*
X407806Y15999D01*
X407718Y15932D01*
X407706Y15921D01*
X407673Y15899D01*
X407640Y15854D01*
X407584Y15799D01*
X407529Y15721D01*
X407473Y15632D01*
X407417Y15532D01*
X407373Y15410D01*
X407362Y15388D01*
X407351Y15321D01*
X407329Y15221D01*
X407295Y15088D01*
X407262Y14921D01*
X407240Y14732D01*
X407229Y14532D01*
X407218Y14310D01*
Y11399D01*
X406273D01*
Y16976D01*
X407129D01*
Y16132D01*
X407140Y16143D01*
X407184Y16221D01*
X407240Y16321D01*
X407329Y16443D01*
X407417Y16565D01*
X407517Y16699D01*
X407618Y16810D01*
X407718Y16899D01*
X407729Y16910D01*
X407762Y16932D01*
X407829Y16965D01*
X407895Y16999D01*
X407984Y17032D01*
X408095Y17065D01*
X408206Y17087D01*
X408328Y17099D01*
X408406D01*
X408506Y17087D01*
D02*
G37*
G36*
X78414Y29272D02*
X77772D01*
X77772Y29272D01*
X77772D01*
X77228D01*
Y29272D01*
X77181Y29272D01*
X76437D01*
Y30000D01*
X76290Y30741D01*
X75870Y31370D01*
X74370Y32870D01*
X73741Y33290D01*
X73000Y33437D01*
X69017D01*
X68889Y33746D01*
X68647Y34062D01*
X68799Y34633D01*
X69084Y34751D01*
X69787Y35289D01*
X70325Y35992D01*
X70664Y36810D01*
X70714Y37187D01*
X64063D01*
X64113Y36810D01*
X64246Y36488D01*
X63874Y35843D01*
X63838Y35838D01*
X62754Y35390D01*
X61824Y34676D01*
X61111Y33746D01*
X60662Y32662D01*
X60528Y31644D01*
X59937Y31683D01*
Y41698D01*
X62680Y44441D01*
X63000Y44399D01*
X63803Y44504D01*
X64551Y44814D01*
X65193Y45307D01*
X65686Y45949D01*
X65996Y46697D01*
X66101Y47500D01*
X65996Y48303D01*
X65686Y49051D01*
X65441Y49370D01*
X65732Y49961D01*
X78414D01*
Y29272D01*
D02*
G37*
G36*
X155000Y126101D02*
X154197Y125996D01*
X153449Y125686D01*
X152807Y125193D01*
X152314Y124551D01*
X152004Y123803D01*
X151899Y123000D01*
X152004Y122197D01*
X152314Y121449D01*
X152807Y120807D01*
X153449Y120314D01*
X154197Y120004D01*
X155000Y119899D01*
Y115274D01*
X147838D01*
X147303Y115496D01*
X146500Y115601D01*
X145697Y115496D01*
X144949Y115186D01*
X144307Y114693D01*
X143814Y114051D01*
X143504Y113303D01*
X143399Y112500D01*
X143504Y111697D01*
X143814Y110949D01*
X144307Y110307D01*
X144461Y110189D01*
Y96480D01*
X140768D01*
Y96816D01*
X140268D01*
Y98875D01*
X136421D01*
Y97000D01*
X135421D01*
Y98875D01*
X131575D01*
Y96816D01*
X131075D01*
Y92066D01*
Y89507D01*
Y86948D01*
Y84815D01*
X130484Y84420D01*
X130303Y84496D01*
X129500Y84601D01*
X129130Y84553D01*
X128539Y85034D01*
Y109827D01*
X129224D01*
Y112598D01*
X129724D01*
Y113098D01*
X131905D01*
Y115339D01*
Y117610D01*
X127273D01*
X126998Y117496D01*
X126500Y117994D01*
Y121382D01*
X125539D01*
Y123453D01*
X125384Y124233D01*
X124942Y124895D01*
X121634Y128203D01*
Y131272D01*
X116319D01*
X116272Y131272D01*
X116000D01*
X115728D01*
X115681Y131272D01*
X110366D01*
X110366Y131272D01*
Y131272D01*
X109776Y131065D01*
X109500Y131101D01*
X109224Y131065D01*
X108634Y131272D01*
Y131272D01*
X108634Y131272D01*
X103319D01*
X103272Y131272D01*
X103000D01*
X102728D01*
X102706D01*
X102116Y131332D01*
Y136424D01*
X101960Y137204D01*
X101879Y137326D01*
X102134Y138007D01*
X102842Y138301D01*
X103429Y138751D01*
X104025Y138762D01*
X104203Y138628D01*
X104821Y137875D01*
X105708Y137147D01*
X106721Y136605D01*
X107820Y136272D01*
X108963Y136159D01*
X110106Y136272D01*
X111205Y136605D01*
X112218Y137147D01*
X113106Y137875D01*
X113835Y138763D01*
X114376Y139776D01*
X114710Y140875D01*
X114822Y142018D01*
X114710Y143161D01*
X114376Y144260D01*
X113835Y145273D01*
X113106Y146161D01*
X112218Y146890D01*
X111205Y147431D01*
X110106Y147765D01*
X108963Y147877D01*
X107820Y147765D01*
X106721Y147431D01*
X105708Y146890D01*
X104821Y146161D01*
X104203Y145408D01*
X104025Y145274D01*
X103429Y145285D01*
X102842Y145736D01*
X101807Y146165D01*
X100696Y146311D01*
X99585Y146165D01*
X98549Y145736D01*
X97660Y145054D01*
X97108Y144334D01*
X96947Y144286D01*
X96570D01*
X96409Y144334D01*
X95857Y145054D01*
X94968Y145736D01*
X93933Y146165D01*
X92822Y146311D01*
X91711Y146165D01*
X90675Y145736D01*
X89786Y145054D01*
X89104Y144165D01*
X88934Y143753D01*
X88295D01*
X88228Y143912D01*
X87626Y144697D01*
X86842Y145299D01*
X85928Y145677D01*
X85448Y145741D01*
Y142018D01*
Y138296D01*
X85928Y138359D01*
X86842Y138737D01*
X87626Y139339D01*
X88228Y140124D01*
X88295Y140283D01*
X88934D01*
X89104Y139872D01*
X89786Y138983D01*
X90675Y138301D01*
X91711Y137872D01*
X92822Y137725D01*
X93933Y137872D01*
X94040Y137916D01*
X95398Y136558D01*
X96060Y136116D01*
X96840Y135961D01*
X96840Y135961D01*
X97655D01*
X98037Y135579D01*
Y131272D01*
X97366D01*
Y124969D01*
X96886Y124462D01*
X96500Y124539D01*
X95300D01*
Y125800D01*
X88700D01*
Y119200D01*
X95300D01*
Y119981D01*
X95890Y120226D01*
X96508Y119608D01*
Y118272D01*
X95866D01*
Y113039D01*
X90000D01*
X89220Y112884D01*
X88558Y112442D01*
X87030Y110914D01*
X86484Y111140D01*
Y117953D01*
X86337Y118694D01*
X85917Y119323D01*
X83870Y121370D01*
X83241Y121790D01*
X82500Y121937D01*
X78237D01*
X78037Y122528D01*
X78566Y122934D01*
X79368Y123978D01*
X79409Y124080D01*
X80000Y123962D01*
Y123000D01*
X88000D01*
Y129600D01*
X80000D01*
Y129038D01*
X79409Y128920D01*
X79368Y129022D01*
X78566Y130066D01*
X77522Y130868D01*
X76305Y131371D01*
X75000Y131543D01*
X73695Y131371D01*
X72478Y130868D01*
X71434Y130066D01*
X70632Y129022D01*
X70591Y128920D01*
X70000Y129038D01*
Y131500D01*
X60000D01*
Y125522D01*
X55867D01*
X55087Y125367D01*
X54425Y124925D01*
X51011Y121511D01*
X50569Y120849D01*
X50414Y120069D01*
Y117272D01*
X49772D01*
Y117272D01*
X49228D01*
Y117272D01*
X43866D01*
Y110728D01*
X43866D01*
Y110468D01*
X43866D01*
Y108145D01*
X43321Y107919D01*
X42370Y108870D01*
X41741Y109290D01*
X41000Y109437D01*
X33193D01*
Y110114D01*
Y116657D01*
X27831D01*
Y116657D01*
X27287D01*
Y116657D01*
X21925D01*
Y115323D01*
X18886D01*
X18145Y115176D01*
X17516Y114756D01*
X9630Y106870D01*
X9210Y106241D01*
X9113Y105751D01*
X8570Y105508D01*
X8476Y105509D01*
X7824Y106044D01*
X6708Y106641D01*
X5498Y107008D01*
X4239Y107132D01*
X2980Y107008D01*
X1770Y106641D01*
X654Y106044D01*
X-323Y105242D01*
X-1126Y104264D01*
X-1722Y103149D01*
X-2089Y101938D01*
X-2213Y100680D01*
X-2089Y99421D01*
X-1722Y98210D01*
X-1126Y97095D01*
X-323Y96117D01*
X654Y95315D01*
X1770Y94718D01*
X2980Y94351D01*
X4239Y94227D01*
X4409Y94244D01*
X4601Y93924D01*
X4698Y93679D01*
X4563Y93000D01*
Y86413D01*
X1850D01*
Y69634D01*
X11150D01*
Y83228D01*
X15728D01*
Y83228D01*
X16272D01*
X16819Y83123D01*
X17143Y82638D01*
X17004Y82303D01*
X16899Y81500D01*
X17004Y80697D01*
X17314Y79949D01*
X17807Y79307D01*
X18449Y78814D01*
X19197Y78504D01*
X20000Y78399D01*
X20803Y78504D01*
X21323Y78720D01*
X21913Y78405D01*
Y77031D01*
X23595D01*
Y79803D01*
X24094D01*
Y80303D01*
X26276D01*
Y82575D01*
X24728D01*
X24412Y83165D01*
X24454Y83228D01*
X26728D01*
X26728Y83228D01*
Y83228D01*
X27138Y82854D01*
X27319Y82657D01*
Y76531D01*
Y72437D01*
X26500D01*
X26276Y72621D01*
Y73106D01*
X21913D01*
Y70835D01*
X21413Y70772D01*
X21413D01*
Y64228D01*
Y58272D01*
X21366D01*
Y52786D01*
X20776Y52585D01*
X20693Y52693D01*
X20051Y53186D01*
X19303Y53496D01*
X18500Y53601D01*
X17697Y53496D01*
X16949Y53186D01*
X16307Y52693D01*
X15814Y52051D01*
X15504Y51303D01*
X15399Y50500D01*
X15504Y49697D01*
X15814Y48949D01*
X16307Y48307D01*
X16563Y48111D01*
Y47437D01*
X11839D01*
Y36563D01*
X21138D01*
Y47437D01*
X20437D01*
Y48111D01*
X20693Y48307D01*
X21186Y48949D01*
X21496Y49697D01*
X21601Y50500D01*
X21517Y51138D01*
X21778Y51562D01*
X21959Y51728D01*
X26681D01*
X26728Y51728D01*
X26728Y51728D01*
X27272D01*
Y51728D01*
X27272Y51728D01*
X28016D01*
Y47437D01*
X22862D01*
Y36563D01*
X32161D01*
Y47437D01*
X31890D01*
Y51728D01*
X32634D01*
Y58031D01*
X32681D01*
Y64228D01*
Y65563D01*
X40339D01*
Y62063D01*
X43425D01*
X43604Y61472D01*
X43558Y61442D01*
X43558Y61442D01*
X33558Y51442D01*
X33116Y50780D01*
X32961Y50000D01*
Y33345D01*
X32053Y32437D01*
X22862D01*
Y22517D01*
X22697Y22496D01*
X21949Y22186D01*
X21307Y21693D01*
X20814Y21051D01*
X20504Y20303D01*
X20399Y19500D01*
X20504Y18697D01*
X20814Y17949D01*
X21265Y17362D01*
X21217Y17130D01*
X21035Y16772D01*
X20366D01*
Y14500D01*
X22547D01*
Y13500D01*
X20366D01*
Y11228D01*
X20043Y10772D01*
X19866D01*
Y4228D01*
X25228D01*
Y4228D01*
X25245D01*
X25772Y3638D01*
Y-2468D01*
X31134D01*
Y4075D01*
X31134D01*
Y4228D01*
X31134D01*
Y5181D01*
X33121D01*
X33137Y5161D01*
X34192D01*
X34475Y4973D01*
X35405Y4788D01*
X36980D01*
Y4661D01*
X37480D01*
Y2739D01*
X38555D01*
X39008Y2367D01*
Y1697D01*
X36886D01*
Y-4846D01*
X42201D01*
X42248Y-4846D01*
X42248Y-4846D01*
X42791D01*
Y-4846D01*
X42791Y-4846D01*
X48154D01*
Y-1633D01*
X48390Y-1397D01*
X48809Y-769D01*
X48957Y-28D01*
Y2301D01*
X49525Y2414D01*
X50315Y2941D01*
X50701Y3005D01*
X50949Y2814D01*
X51697Y2504D01*
X52500Y2399D01*
X53303Y2504D01*
X53776Y2700D01*
X54366Y2358D01*
Y1728D01*
X59728D01*
Y1728D01*
X60272D01*
Y1728D01*
X70345D01*
X70871Y1197D01*
X70851Y1047D01*
X70957Y245D01*
X71267Y-503D01*
X71760Y-1146D01*
X72402Y-1639D01*
X73150Y-1948D01*
X73953Y-2054D01*
X74755Y-1948D01*
X75503Y-1639D01*
X76146Y-1146D01*
X76639Y-503D01*
X76948Y245D01*
X77054Y1047D01*
X76948Y1850D01*
X76639Y2598D01*
X76634Y2604D01*
Y8272D01*
X71319D01*
X71272Y8272D01*
X71000D01*
X70728D01*
X70681Y8272D01*
X69985D01*
Y10063D01*
X75638D01*
Y19351D01*
X76183Y19577D01*
X77362Y18398D01*
Y10063D01*
X86661D01*
Y20937D01*
X80303D01*
X79057Y22183D01*
X79283Y22728D01*
X83134D01*
Y29272D01*
X82492D01*
Y50953D01*
X82337Y51733D01*
X81895Y52395D01*
X80847Y53442D01*
X80186Y53884D01*
X79405Y54039D01*
X55634D01*
Y55697D01*
X53453D01*
Y56697D01*
X55634D01*
Y57196D01*
X56224Y57487D01*
X56449Y57314D01*
X57197Y57004D01*
X58000Y56899D01*
X58803Y57004D01*
X59551Y57314D01*
X60193Y57807D01*
X60686Y58449D01*
X60996Y59197D01*
X61101Y60000D01*
X60996Y60803D01*
X60710Y61493D01*
X60661Y62063D01*
X60661Y62063D01*
X60661Y62063D01*
Y65563D01*
X65000D01*
X65741Y65710D01*
X66370Y66130D01*
X68370Y68130D01*
X68790Y68759D01*
X68937Y69500D01*
Y70728D01*
X73399D01*
X73925Y70200D01*
X73899Y70000D01*
X74004Y69197D01*
X74314Y68449D01*
X74807Y67807D01*
X75449Y67314D01*
X76197Y67004D01*
X77000Y66899D01*
X77803Y67004D01*
X78551Y67314D01*
X79193Y67807D01*
X79686Y68449D01*
X79996Y69197D01*
X80101Y70000D01*
X79996Y70803D01*
X79686Y71551D01*
X79681Y71557D01*
Y77228D01*
Y83728D01*
Y90031D01*
Y96575D01*
X79024D01*
X78884Y97280D01*
X78442Y97942D01*
X77514Y98870D01*
X77564Y99163D01*
X77728Y99461D01*
X86000D01*
X86780Y99616D01*
X87442Y100058D01*
X88942Y101558D01*
X89056Y101728D01*
X93134D01*
Y106961D01*
X96366D01*
Y105303D01*
X100728D01*
Y106961D01*
X101772D01*
Y101532D01*
X102461D01*
Y99375D01*
X101154D01*
Y96480D01*
X88941D01*
X88941Y96480D01*
X88332Y96359D01*
X80669D01*
Y88241D01*
X92331D01*
Y90220D01*
X92425Y90772D01*
X96738D01*
X96961Y90500D01*
Y89728D01*
X96197D01*
Y87547D01*
Y85366D01*
X96961D01*
Y82634D01*
X96303D01*
Y80453D01*
Y78272D01*
X96566D01*
X96797Y77681D01*
X96345Y77228D01*
X92532D01*
X92331Y77736D01*
Y79759D01*
X80669D01*
Y71641D01*
X92331D01*
Y71641D01*
X92532Y71866D01*
X99075D01*
Y74191D01*
X100442Y75558D01*
X100563Y75739D01*
X101154Y75560D01*
Y74152D01*
Y71593D01*
X104063D01*
Y69389D01*
X103807Y69193D01*
X103314Y68551D01*
X103004Y67803D01*
X102899Y67000D01*
X103004Y66197D01*
X103314Y65449D01*
X103807Y64807D01*
X104404Y64349D01*
X104431Y64136D01*
X104385Y63702D01*
X103731Y63431D01*
X102791Y62709D01*
X102069Y61769D01*
X101616Y60675D01*
X101527Y60000D01*
X106000D01*
Y59500D01*
X106500D01*
Y55027D01*
X107175Y55116D01*
X108269Y55569D01*
X109209Y56291D01*
X109931Y57231D01*
X110384Y58325D01*
X110450Y58825D01*
X111046D01*
X111129Y58195D01*
X111633Y56978D01*
X112434Y55934D01*
X113478Y55133D01*
X114695Y54629D01*
X116000Y54457D01*
X117305Y54629D01*
X118522Y55133D01*
X119566Y55934D01*
X120368Y56978D01*
X120680Y57734D01*
X121320D01*
X121633Y56978D01*
X122434Y55934D01*
X123478Y55133D01*
X124695Y54629D01*
X126000Y54457D01*
X127305Y54629D01*
X128522Y55133D01*
X129566Y55934D01*
X130368Y56978D01*
X130680Y57734D01*
X131320D01*
X131632Y56978D01*
X132434Y55934D01*
X133478Y55133D01*
X134695Y54629D01*
X136000Y54457D01*
X137305Y54629D01*
X138522Y55133D01*
X139566Y55934D01*
X140367Y56978D01*
X140409Y57080D01*
X141000Y56962D01*
Y54500D01*
X151000D01*
Y61645D01*
X151384Y62220D01*
X151539Y63000D01*
Y93155D01*
X151384Y93936D01*
X150942Y94597D01*
X148539Y97000D01*
Y109726D01*
X155000D01*
Y94770D01*
X154899Y94000D01*
X155000Y93230D01*
Y53206D01*
X124311D01*
X124210Y53186D01*
X121030Y53030D01*
X117805Y52552D01*
X114641Y51759D01*
X111570Y50660D01*
X108622Y49266D01*
X105825Y47589D01*
X103205Y45647D01*
X100789Y43456D01*
X98598Y41040D01*
X96656Y38420D01*
X94979Y35623D01*
X93585Y32675D01*
X92486Y29604D01*
X91694Y26441D01*
X91215Y23215D01*
X91055Y19957D01*
X91062D01*
Y9436D01*
Y5058D01*
X91078Y4976D01*
Y-6842D01*
X15510D01*
Y-0D01*
X15510Y0D01*
X15524D01*
X15333Y2428D01*
X14764Y4797D01*
X13832Y7048D01*
X12559Y9125D01*
X10977Y10977D01*
X9125Y12559D01*
X7048Y13832D01*
X4797Y14764D01*
X2428Y15333D01*
X0Y15524D01*
Y15510D01*
X-6856D01*
Y21324D01*
X-6266Y21535D01*
X-5679Y20821D01*
X-4355Y19734D01*
X-2844Y18926D01*
X-1205Y18429D01*
X500Y18261D01*
X2205Y18429D01*
X3844Y18926D01*
X5355Y19734D01*
X6679Y20821D01*
X7766Y22145D01*
X8574Y23656D01*
X9071Y25295D01*
X9239Y27000D01*
X9071Y28705D01*
X8574Y30344D01*
X7766Y31855D01*
X6679Y33179D01*
X5355Y34266D01*
X3844Y35074D01*
X2205Y35571D01*
X500Y35739D01*
X-1205Y35571D01*
X-2844Y35074D01*
X-4355Y34266D01*
X-5679Y33179D01*
X-6266Y32465D01*
X-6856Y32676D01*
Y138306D01*
X272D01*
Y138291D01*
X2701Y138482D01*
X5069Y139051D01*
X7320Y139983D01*
X8363Y140622D01*
X9057Y140355D01*
X9412Y139497D01*
X10214Y138452D01*
X11258Y137651D01*
X12474Y137147D01*
X13780Y136975D01*
X15085Y137147D01*
X16301Y137651D01*
X17346Y138452D01*
X18147Y139497D01*
X18651Y140713D01*
X18823Y142018D01*
X18651Y143323D01*
X18147Y144540D01*
X17346Y145584D01*
X16301Y146386D01*
X15085Y146889D01*
X14684Y146942D01*
X14389Y147454D01*
X15037Y149018D01*
X15605Y151387D01*
X15788Y153712D01*
X15812Y153829D01*
Y159973D01*
X155000D01*
Y126101D01*
D02*
G37*
G36*
X402774Y17087D02*
X402862Y17076D01*
X402974Y17054D01*
X403096Y17032D01*
X403240Y16999D01*
X403373Y16965D01*
X403529Y16910D01*
X403673Y16854D01*
X403829Y16776D01*
X403984Y16688D01*
X404140Y16588D01*
X404284Y16465D01*
X404418Y16332D01*
X404429Y16321D01*
X404451Y16299D01*
X404485Y16254D01*
X404529Y16188D01*
X404585Y16110D01*
X404640Y16021D01*
X404707Y15910D01*
X404773Y15777D01*
X404840Y15632D01*
X404907Y15477D01*
X404962Y15299D01*
X405018Y15110D01*
X405062Y14899D01*
X405095Y14677D01*
X405118Y14443D01*
X405129Y14188D01*
Y14177D01*
Y14132D01*
Y14054D01*
X405118Y13943D01*
X400951D01*
Y13932D01*
Y13899D01*
X400963Y13855D01*
Y13788D01*
X400974Y13710D01*
X400996Y13621D01*
X401029Y13421D01*
X401096Y13199D01*
X401185Y12955D01*
X401307Y12732D01*
X401463Y12532D01*
X401474D01*
X401485Y12510D01*
X401551Y12455D01*
X401651Y12377D01*
X401785Y12299D01*
X401963Y12210D01*
X402163Y12133D01*
X402385Y12077D01*
X402507Y12066D01*
X402640Y12055D01*
X402729D01*
X402829Y12066D01*
X402951Y12088D01*
X403085Y12121D01*
X403240Y12166D01*
X403385Y12233D01*
X403529Y12321D01*
X403540Y12332D01*
X403596Y12377D01*
X403662Y12444D01*
X403740Y12532D01*
X403829Y12655D01*
X403929Y12810D01*
X404029Y12988D01*
X404118Y13199D01*
X405095Y13077D01*
Y13066D01*
X405084Y13044D01*
X405073Y12999D01*
X405051Y12932D01*
X405018Y12866D01*
X404984Y12777D01*
X404895Y12588D01*
X404784Y12377D01*
X404629Y12155D01*
X404451Y11944D01*
X404229Y11744D01*
X404218D01*
X404196Y11721D01*
X404162Y11699D01*
X404118Y11666D01*
X404051Y11632D01*
X403984Y11599D01*
X403896Y11555D01*
X403796Y11510D01*
X403685Y11466D01*
X403573Y11421D01*
X403296Y11355D01*
X402985Y11299D01*
X402640Y11277D01*
X402518D01*
X402440Y11288D01*
X402340Y11299D01*
X402218Y11321D01*
X402085Y11344D01*
X401940Y11366D01*
X401629Y11455D01*
X401463Y11521D01*
X401307Y11588D01*
X401140Y11677D01*
X400985Y11777D01*
X400840Y11888D01*
X400696Y12021D01*
X400685Y12032D01*
X400663Y12055D01*
X400629Y12099D01*
X400585Y12166D01*
X400529Y12244D01*
X400474Y12332D01*
X400407Y12444D01*
X400340Y12566D01*
X400274Y12710D01*
X400207Y12866D01*
X400152Y13044D01*
X400096Y13232D01*
X400052Y13432D01*
X400018Y13655D01*
X399996Y13888D01*
X399985Y14132D01*
Y14143D01*
Y14199D01*
Y14266D01*
X399996Y14366D01*
X400007Y14488D01*
X400018Y14621D01*
X400040Y14777D01*
X400074Y14932D01*
X400163Y15288D01*
X400218Y15465D01*
X400285Y15654D01*
X400374Y15832D01*
X400474Y15999D01*
X400585Y16165D01*
X400707Y16321D01*
X400718Y16332D01*
X400740Y16354D01*
X400785Y16388D01*
X400840Y16443D01*
X400907Y16499D01*
X400996Y16565D01*
X401096Y16643D01*
X401218Y16710D01*
X401340Y16788D01*
X401485Y16854D01*
X401640Y16921D01*
X401807Y16976D01*
X401985Y17032D01*
X402174Y17065D01*
X402374Y17087D01*
X402585Y17099D01*
X402696D01*
X402774Y17087D01*
D02*
G37*
G36*
X370477D02*
X370577Y17076D01*
X370688Y17054D01*
X370810Y17032D01*
X370954Y17010D01*
X371254Y16910D01*
X371410Y16854D01*
X371566Y16776D01*
X371721Y16699D01*
X371877Y16588D01*
X372021Y16477D01*
X372165Y16343D01*
X372177Y16332D01*
X372199Y16310D01*
X372232Y16265D01*
X372277Y16210D01*
X372332Y16132D01*
X372399Y16032D01*
X372465Y15921D01*
X372532Y15799D01*
X372599Y15665D01*
X372665Y15499D01*
X372732Y15332D01*
X372788Y15143D01*
X372832Y14943D01*
X372865Y14732D01*
X372888Y14510D01*
X372899Y14266D01*
Y14254D01*
Y14221D01*
Y14166D01*
Y14088D01*
X372888Y13999D01*
X372877Y13888D01*
Y13777D01*
X372854Y13655D01*
X372821Y13377D01*
X372754Y13099D01*
X372676Y12821D01*
X372565Y12566D01*
Y12555D01*
X372554Y12543D01*
X372532Y12510D01*
X372510Y12466D01*
X372432Y12355D01*
X372332Y12221D01*
X372199Y12066D01*
X372032Y11910D01*
X371843Y11755D01*
X371621Y11610D01*
X371610D01*
X371599Y11599D01*
X371566Y11577D01*
X371510Y11555D01*
X371454Y11532D01*
X371388Y11510D01*
X371221Y11444D01*
X371032Y11388D01*
X370799Y11333D01*
X370554Y11288D01*
X370288Y11277D01*
X370177D01*
X370088Y11288D01*
X369988Y11299D01*
X369877Y11321D01*
X369743Y11344D01*
X369610Y11366D01*
X369310Y11455D01*
X369144Y11521D01*
X368988Y11588D01*
X368832Y11677D01*
X368677Y11777D01*
X368532Y11888D01*
X368388Y12021D01*
X368377Y12032D01*
X368355Y12055D01*
X368321Y12099D01*
X368277Y12166D01*
X368221Y12244D01*
X368166Y12332D01*
X368099Y12444D01*
X368033Y12577D01*
X367966Y12721D01*
X367899Y12888D01*
X367844Y13066D01*
X367788Y13255D01*
X367744Y13466D01*
X367710Y13688D01*
X367688Y13932D01*
X367677Y14188D01*
Y14210D01*
Y14254D01*
X367688Y14332D01*
Y14443D01*
X367699Y14566D01*
X367722Y14721D01*
X367744Y14877D01*
X367788Y15054D01*
X367833Y15232D01*
X367888Y15421D01*
X367955Y15621D01*
X368044Y15810D01*
X368132Y15988D01*
X368255Y16165D01*
X368377Y16332D01*
X368532Y16477D01*
X368544Y16488D01*
X368566Y16499D01*
X368610Y16532D01*
X368666Y16577D01*
X368733Y16621D01*
X368821Y16677D01*
X368910Y16732D01*
X369021Y16788D01*
X369144Y16843D01*
X369277Y16899D01*
X369577Y16999D01*
X369921Y17076D01*
X370099Y17087D01*
X370288Y17099D01*
X370399D01*
X370477Y17087D01*
D02*
G37*
G36*
X367099Y18176D02*
X364566D01*
Y11399D01*
X363544D01*
Y18176D01*
X361011D01*
Y19087D01*
X367099D01*
Y18176D01*
D02*
G37*
G36*
X391552Y17087D02*
X391719Y17076D01*
X391908Y17054D01*
X392097Y17021D01*
X392286Y16976D01*
X392463Y16921D01*
X392486Y16910D01*
X392541Y16887D01*
X392619Y16854D01*
X392719Y16810D01*
X392830Y16743D01*
X392941Y16677D01*
X393041Y16588D01*
X393130Y16499D01*
X393141Y16488D01*
X393163Y16454D01*
X393197Y16399D01*
X393241Y16332D01*
X393297Y16232D01*
X393341Y16132D01*
X393386Y16010D01*
X393419Y15865D01*
Y15854D01*
X393430Y15821D01*
X393441Y15754D01*
X393452Y15665D01*
Y15543D01*
X393463Y15399D01*
X393474Y15210D01*
Y14999D01*
Y13732D01*
Y13721D01*
Y13677D01*
Y13610D01*
Y13521D01*
Y13421D01*
Y13299D01*
X393486Y13032D01*
Y12755D01*
X393497Y12477D01*
X393508Y12355D01*
Y12244D01*
X393519Y12144D01*
X393530Y12066D01*
Y12055D01*
X393541Y12010D01*
X393552Y11944D01*
X393586Y11855D01*
X393608Y11755D01*
X393652Y11644D01*
X393708Y11521D01*
X393763Y11399D01*
X392775D01*
X392763Y11410D01*
X392752Y11455D01*
X392730Y11510D01*
X392697Y11599D01*
X392663Y11699D01*
X392641Y11821D01*
X392619Y11955D01*
X392597Y12099D01*
X392586D01*
X392575Y12077D01*
X392508Y12021D01*
X392408Y11944D01*
X392275Y11844D01*
X392108Y11744D01*
X391941Y11632D01*
X391763Y11532D01*
X391575Y11455D01*
X391552Y11444D01*
X391486Y11433D01*
X391386Y11399D01*
X391264Y11366D01*
X391108Y11333D01*
X390930Y11310D01*
X390730Y11288D01*
X390530Y11277D01*
X390441D01*
X390375Y11288D01*
X390297D01*
X390208Y11299D01*
X390008Y11333D01*
X389786Y11388D01*
X389542Y11466D01*
X389319Y11577D01*
X389119Y11721D01*
X389097Y11744D01*
X389042Y11799D01*
X388964Y11899D01*
X388875Y12032D01*
X388786Y12199D01*
X388708Y12388D01*
X388653Y12621D01*
X388642Y12732D01*
X388631Y12866D01*
Y12888D01*
Y12932D01*
X388642Y13010D01*
X388653Y13110D01*
X388675Y13232D01*
X388708Y13355D01*
X388753Y13488D01*
X388808Y13610D01*
X388819Y13621D01*
X388842Y13666D01*
X388886Y13732D01*
X388942Y13810D01*
X389008Y13899D01*
X389097Y13988D01*
X389186Y14077D01*
X389297Y14154D01*
X389308Y14166D01*
X389353Y14188D01*
X389408Y14232D01*
X389497Y14277D01*
X389597Y14321D01*
X389719Y14377D01*
X389842Y14421D01*
X389986Y14466D01*
X389997D01*
X390041Y14477D01*
X390108Y14499D01*
X390197Y14510D01*
X390308Y14532D01*
X390453Y14554D01*
X390619Y14588D01*
X390819Y14610D01*
X390830D01*
X390875Y14621D01*
X390930D01*
X391008Y14632D01*
X391097Y14643D01*
X391208Y14665D01*
X391330Y14677D01*
X391463Y14699D01*
X391730Y14754D01*
X392019Y14810D01*
X392275Y14877D01*
X392397Y14910D01*
X392508Y14943D01*
Y14954D01*
Y14977D01*
X392519Y15043D01*
Y15121D01*
Y15166D01*
Y15188D01*
Y15199D01*
Y15210D01*
Y15277D01*
X392508Y15388D01*
X392486Y15510D01*
X392452Y15643D01*
X392397Y15777D01*
X392330Y15899D01*
X392241Y15999D01*
X392230Y16010D01*
X392175Y16054D01*
X392086Y16099D01*
X391975Y16165D01*
X391819Y16221D01*
X391641Y16276D01*
X391419Y16310D01*
X391164Y16321D01*
X391053D01*
X390941Y16310D01*
X390786Y16288D01*
X390630Y16265D01*
X390464Y16221D01*
X390308Y16165D01*
X390175Y16088D01*
X390164Y16077D01*
X390119Y16043D01*
X390064Y15988D01*
X389997Y15899D01*
X389930Y15788D01*
X389853Y15643D01*
X389786Y15465D01*
X389719Y15266D01*
X388797Y15388D01*
Y15399D01*
X388808Y15410D01*
Y15443D01*
X388819Y15488D01*
X388853Y15588D01*
X388897Y15732D01*
X388953Y15877D01*
X389019Y16032D01*
X389108Y16188D01*
X389208Y16332D01*
X389219Y16343D01*
X389264Y16388D01*
X389330Y16454D01*
X389419Y16543D01*
X389542Y16632D01*
X389686Y16721D01*
X389853Y16821D01*
X390041Y16899D01*
X390053D01*
X390064Y16910D01*
X390097Y16921D01*
X390141Y16932D01*
X390253Y16965D01*
X390408Y16999D01*
X390586Y17032D01*
X390808Y17065D01*
X391041Y17087D01*
X391308Y17099D01*
X391430D01*
X391552Y17087D01*
D02*
G37*
G36*
X384075Y12310D02*
X387864D01*
Y11399D01*
X383053D01*
Y19087D01*
X384075D01*
Y12310D01*
D02*
G37*
%LPC*%
G36*
X20638Y26500D02*
X16988D01*
Y22063D01*
X20638D01*
Y26500D01*
D02*
G37*
G36*
X41228Y23075D02*
X39547D01*
Y20803D01*
X41228D01*
Y23075D01*
D02*
G37*
G36*
X15988Y26500D02*
X12339D01*
Y22063D01*
X15988D01*
Y26500D01*
D02*
G37*
G36*
Y31937D02*
X12339D01*
Y27500D01*
X15988D01*
Y31937D01*
D02*
G37*
G36*
X66889Y41013D02*
X66511Y40963D01*
X65693Y40624D01*
X64991Y40085D01*
X64452Y39383D01*
X64113Y38565D01*
X64063Y38187D01*
X66889D01*
Y41013D01*
D02*
G37*
G36*
X67889D02*
Y38187D01*
X70714D01*
X70664Y38565D01*
X70325Y39383D01*
X69787Y40085D01*
X69084Y40624D01*
X68266Y40963D01*
X67889Y41013D01*
D02*
G37*
G36*
X47389Y41583D02*
X46380Y41450D01*
X45441Y41061D01*
X44634Y40442D01*
X44015Y39635D01*
X43626Y38696D01*
X43493Y37687D01*
X43626Y36679D01*
X44015Y35740D01*
X44634Y34933D01*
X45441Y34314D01*
X46380Y33925D01*
X47389Y33792D01*
X48397Y33925D01*
X49336Y34314D01*
X49570Y34493D01*
X49991Y34072D01*
X49547Y33493D01*
X49149Y32532D01*
X49079Y32000D01*
X52500D01*
Y35421D01*
X51968Y35351D01*
X51007Y34953D01*
X50754Y34759D01*
X50333Y35180D01*
X50762Y35740D01*
X51151Y36679D01*
X51284Y37687D01*
X51151Y38696D01*
X50762Y39635D01*
X50143Y40442D01*
X49336Y41061D01*
X48397Y41450D01*
X47389Y41583D01*
D02*
G37*
G36*
X20638Y31937D02*
X16988D01*
Y27500D01*
X20638D01*
Y31937D01*
D02*
G37*
G36*
X52500Y31000D02*
X49079D01*
X49149Y30468D01*
X49547Y29507D01*
X50181Y28681D01*
X51007Y28047D01*
X51968Y27649D01*
X52500Y27579D01*
Y31000D01*
D02*
G37*
G36*
X402596Y16321D02*
X402529D01*
X402485Y16310D01*
X402362Y16299D01*
X402218Y16265D01*
X402040Y16210D01*
X401851Y16132D01*
X401674Y16021D01*
X401496Y15877D01*
X401474Y15854D01*
X401429Y15799D01*
X401351Y15699D01*
X401274Y15565D01*
X401185Y15410D01*
X401107Y15210D01*
X401040Y14977D01*
X401007Y14721D01*
X404129D01*
Y14732D01*
Y14754D01*
X404118Y14788D01*
Y14832D01*
X404096Y14965D01*
X404062Y15110D01*
X404007Y15288D01*
X403951Y15454D01*
X403862Y15621D01*
X403762Y15765D01*
Y15777D01*
X403740Y15788D01*
X403685Y15854D01*
X403584Y15943D01*
X403451Y16043D01*
X403285Y16143D01*
X403085Y16232D01*
X402851Y16299D01*
X402729Y16310D01*
X402596Y16321D01*
D02*
G37*
G36*
X22047Y303D02*
X20366D01*
Y-1969D01*
X22047D01*
Y303D01*
D02*
G37*
G36*
X376387Y16354D02*
X376332D01*
X376287Y16343D01*
X376176Y16321D01*
X376032Y16288D01*
X375865Y16221D01*
X375687Y16121D01*
X375587Y16054D01*
X375499Y15977D01*
X375410Y15888D01*
X375321Y15788D01*
Y15777D01*
X375299Y15765D01*
X375276Y15732D01*
X375254Y15688D01*
X375221Y15621D01*
X375176Y15554D01*
X375132Y15465D01*
X375098Y15377D01*
X375054Y15266D01*
X375010Y15143D01*
X374976Y15010D01*
X374932Y14865D01*
X374910Y14699D01*
X374887Y14532D01*
X374865Y14355D01*
Y14154D01*
Y14143D01*
Y14110D01*
Y14054D01*
X374876Y13977D01*
Y13888D01*
X374887Y13788D01*
X374921Y13555D01*
X374976Y13288D01*
X375043Y13032D01*
X375154Y12777D01*
X375221Y12666D01*
X375299Y12566D01*
X375321Y12543D01*
X375376Y12488D01*
X375465Y12399D01*
X375587Y12310D01*
X375743Y12221D01*
X375921Y12133D01*
X376121Y12077D01*
X376232Y12066D01*
X376343Y12055D01*
X376410D01*
X376454Y12066D01*
X376565Y12088D01*
X376721Y12121D01*
X376887Y12188D01*
X377065Y12277D01*
X377243Y12410D01*
X377332Y12488D01*
X377420Y12577D01*
Y12588D01*
X377443Y12599D01*
X377465Y12632D01*
X377487Y12677D01*
X377532Y12732D01*
X377565Y12810D01*
X377609Y12888D01*
X377654Y12988D01*
X377687Y13088D01*
X377732Y13221D01*
X377776Y13355D01*
X377809Y13499D01*
X377832Y13666D01*
X377854Y13843D01*
X377876Y14032D01*
Y14232D01*
Y14243D01*
Y14277D01*
Y14332D01*
X377865Y14410D01*
Y14499D01*
X377854Y14599D01*
X377820Y14832D01*
X377765Y15088D01*
X377687Y15343D01*
X377576Y15599D01*
X377509Y15721D01*
X377432Y15821D01*
Y15832D01*
X377409Y15843D01*
X377354Y15910D01*
X377265Y15988D01*
X377143Y16088D01*
X376987Y16188D01*
X376810Y16276D01*
X376609Y16332D01*
X376498Y16343D01*
X376387Y16354D01*
D02*
G37*
G36*
X392519Y14199D02*
X392508D01*
X392497Y14188D01*
X392463Y14177D01*
X392419Y14166D01*
X392364Y14143D01*
X392297Y14121D01*
X392219Y14099D01*
X392130Y14077D01*
X392030Y14043D01*
X391908Y14021D01*
X391786Y13988D01*
X391641Y13954D01*
X391486Y13921D01*
X391330Y13888D01*
X391153Y13866D01*
X390964Y13832D01*
X390941D01*
X390875Y13821D01*
X390764Y13799D01*
X390641Y13777D01*
X390508Y13755D01*
X390375Y13721D01*
X390253Y13688D01*
X390141Y13643D01*
X390130D01*
X390097Y13621D01*
X390053Y13599D01*
X390008Y13566D01*
X389875Y13477D01*
X389764Y13343D01*
Y13332D01*
X389741Y13310D01*
X389730Y13266D01*
X389708Y13210D01*
X389686Y13144D01*
X389664Y13077D01*
X389653Y12988D01*
X389641Y12899D01*
Y12888D01*
Y12832D01*
X389653Y12766D01*
X389675Y12677D01*
X389708Y12577D01*
X389764Y12477D01*
X389830Y12366D01*
X389919Y12266D01*
X389930Y12255D01*
X389975Y12233D01*
X390041Y12188D01*
X390130Y12144D01*
X390253Y12099D01*
X390397Y12055D01*
X390564Y12032D01*
X390764Y12021D01*
X390852D01*
X390964Y12032D01*
X391086Y12055D01*
X391241Y12077D01*
X391397Y12121D01*
X391564Y12177D01*
X391730Y12255D01*
X391752Y12266D01*
X391797Y12299D01*
X391875Y12355D01*
X391964Y12432D01*
X392063Y12521D01*
X392175Y12632D01*
X392264Y12766D01*
X392352Y12910D01*
X392364Y12921D01*
X392375Y12966D01*
X392397Y13044D01*
X392430Y13144D01*
X392463Y13277D01*
X392486Y13432D01*
X392497Y13621D01*
X392508Y13843D01*
X392519Y14199D01*
D02*
G37*
G36*
X370288Y16321D02*
X370221D01*
X370166Y16310D01*
X370043Y16299D01*
X369877Y16254D01*
X369688Y16188D01*
X369488Y16099D01*
X369299Y15965D01*
X369199Y15877D01*
X369110Y15788D01*
Y15777D01*
X369088Y15765D01*
X369066Y15732D01*
X369033Y15688D01*
X368999Y15632D01*
X368966Y15565D01*
X368921Y15477D01*
X368877Y15388D01*
X368832Y15277D01*
X368788Y15166D01*
X368755Y15032D01*
X368721Y14888D01*
X368688Y14732D01*
X368666Y14566D01*
X368655Y14377D01*
X368644Y14188D01*
Y14177D01*
Y14143D01*
Y14088D01*
X368655Y14010D01*
Y13921D01*
X368666Y13821D01*
X368699Y13588D01*
X368755Y13321D01*
X368844Y13055D01*
X368955Y12799D01*
X369033Y12688D01*
X369110Y12577D01*
X369121D01*
X369132Y12555D01*
X369199Y12499D01*
X369299Y12410D01*
X369432Y12321D01*
X369599Y12221D01*
X369799Y12133D01*
X370032Y12077D01*
X370155Y12066D01*
X370288Y12055D01*
X370355D01*
X370410Y12066D01*
X370532Y12088D01*
X370699Y12121D01*
X370877Y12188D01*
X371077Y12277D01*
X371266Y12410D01*
X371365Y12499D01*
X371454Y12588D01*
X371465Y12599D01*
X371477Y12610D01*
X371499Y12643D01*
X371532Y12688D01*
X371566Y12743D01*
X371610Y12810D01*
X371654Y12899D01*
X371699Y12988D01*
X371743Y13099D01*
X371777Y13221D01*
X371821Y13355D01*
X371854Y13499D01*
X371888Y13666D01*
X371910Y13832D01*
X371932Y14021D01*
Y14221D01*
Y14232D01*
Y14266D01*
Y14321D01*
X371921Y14388D01*
Y14477D01*
X371910Y14577D01*
X371877Y14810D01*
X371821Y15054D01*
X371732Y15321D01*
X371610Y15565D01*
X371543Y15688D01*
X371454Y15788D01*
Y15799D01*
X371432Y15810D01*
X371365Y15877D01*
X371266Y15954D01*
X371132Y16054D01*
X370966Y16154D01*
X370766Y16243D01*
X370543Y16299D01*
X370421Y16310D01*
X370288Y16321D01*
D02*
G37*
G36*
X24728Y303D02*
X23047D01*
Y-1969D01*
X24728D01*
Y303D01*
D02*
G37*
G36*
X56547Y20575D02*
X54866D01*
Y18303D01*
X56547D01*
Y20575D01*
D02*
G37*
G36*
X38547Y23075D02*
X36866D01*
Y20803D01*
X38547D01*
Y23075D01*
D02*
G37*
G36*
X36480Y4161D02*
X33582D01*
X33629Y3926D01*
X34046Y3302D01*
X34670Y2885D01*
X35405Y2739D01*
X36480D01*
Y4161D01*
D02*
G37*
G36*
X22047Y3575D02*
X20366D01*
Y1303D01*
X22047D01*
Y3575D01*
D02*
G37*
G36*
X24728D02*
X23047D01*
Y1303D01*
X24728D01*
Y3575D01*
D02*
G37*
G36*
X2792Y130745D02*
X-2688D01*
X-2621Y130069D01*
X-2278Y128938D01*
X-1721Y127895D01*
X-971Y126982D01*
X-58Y126232D01*
X985Y125675D01*
X2116Y125332D01*
X2792Y125265D01*
Y130745D01*
D02*
G37*
G36*
X9272D02*
X3792D01*
Y125265D01*
X4468Y125332D01*
X5599Y125675D01*
X6642Y126232D01*
X7555Y126982D01*
X8305Y127895D01*
X8862Y128938D01*
X9205Y130069D01*
X9272Y130745D01*
D02*
G37*
G36*
X53780Y137566D02*
X52344Y137377D01*
X51006Y136822D01*
X49857Y135941D01*
X48975Y134792D01*
X48421Y133454D01*
X48232Y132018D01*
X48421Y130582D01*
X48975Y129244D01*
X49857Y128095D01*
X51006Y127214D01*
X52344Y126660D01*
X53780Y126471D01*
X55215Y126660D01*
X56553Y127214D01*
X57702Y128095D01*
X58584Y129244D01*
X59138Y130582D01*
X59327Y132018D01*
X59138Y133454D01*
X58584Y134792D01*
X57702Y135941D01*
X56553Y136822D01*
X55215Y137377D01*
X53780Y137566D01*
D02*
G37*
G36*
X131905Y120882D02*
X130224D01*
Y118610D01*
X131905D01*
Y120882D01*
D02*
G37*
G36*
X54634Y109968D02*
X52953D01*
Y107697D01*
X54634D01*
Y109968D01*
D02*
G37*
G36*
X131905Y112098D02*
X130224D01*
Y109827D01*
X131905D01*
Y112098D01*
D02*
G37*
G36*
X129224Y120882D02*
X127543D01*
Y118610D01*
X129224D01*
Y120882D01*
D02*
G37*
G36*
X91500Y129500D02*
X89200D01*
Y127200D01*
X91500D01*
Y129500D01*
D02*
G37*
G36*
X3792Y137225D02*
Y131745D01*
X9272D01*
X9205Y132421D01*
X8862Y133552D01*
X8305Y134594D01*
X7555Y135508D01*
X6642Y136258D01*
X5599Y136815D01*
X4468Y137158D01*
X3792Y137225D01*
D02*
G37*
G36*
X76680Y147877D02*
X75537Y147765D01*
X74438Y147431D01*
X73425Y146890D01*
X72537Y146161D01*
X71808Y145273D01*
X71267Y144260D01*
X70934Y143161D01*
X70821Y142018D01*
X70934Y140875D01*
X71267Y139776D01*
X71808Y138763D01*
X72537Y137875D01*
X73425Y137147D01*
X74438Y136605D01*
X75537Y136272D01*
X76680Y136159D01*
X77823Y136272D01*
X78922Y136605D01*
X79935Y137147D01*
X80823Y137875D01*
X81551Y138763D01*
X81753Y139141D01*
X82453Y139198D01*
X83053Y138737D01*
X83967Y138359D01*
X84448Y138296D01*
Y142018D01*
Y145741D01*
X83967Y145677D01*
X83053Y145299D01*
X82453Y144839D01*
X81753Y144895D01*
X81551Y145273D01*
X80823Y146161D01*
X79935Y146890D01*
X78922Y147431D01*
X77823Y147765D01*
X76680Y147877D01*
D02*
G37*
G36*
X53780Y157566D02*
X52344Y157377D01*
X51006Y156822D01*
X49857Y155941D01*
X48975Y154792D01*
X48421Y153454D01*
X48232Y152018D01*
X48421Y150582D01*
X48975Y149244D01*
X49857Y148096D01*
X51006Y147214D01*
X52344Y146660D01*
X53780Y146471D01*
X55215Y146660D01*
X56553Y147214D01*
X57702Y148096D01*
X58584Y149244D01*
X59138Y150582D01*
X59327Y152018D01*
X59138Y153454D01*
X58584Y154792D01*
X57702Y155941D01*
X56553Y156822D01*
X55215Y157377D01*
X53780Y157566D01*
D02*
G37*
G36*
X2792Y137225D02*
X2116Y137158D01*
X985Y136815D01*
X-58Y136258D01*
X-971Y135508D01*
X-1721Y134594D01*
X-2278Y133552D01*
X-2621Y132421D01*
X-2688Y131745D01*
X2792D01*
Y137225D01*
D02*
G37*
G36*
X94800Y129500D02*
X92500D01*
Y127200D01*
X94800D01*
Y129500D01*
D02*
G37*
G36*
X91500Y132800D02*
X89200D01*
Y130500D01*
X91500D01*
Y132800D01*
D02*
G37*
G36*
X94800D02*
X92500D01*
Y130500D01*
X94800D01*
Y132800D01*
D02*
G37*
G36*
X10650Y63866D02*
X7000D01*
Y56476D01*
X10650D01*
Y63866D01*
D02*
G37*
G36*
X23595Y76378D02*
X21913D01*
Y74106D01*
X23595D01*
Y76378D01*
D02*
G37*
G36*
X26276D02*
X24595D01*
Y74106D01*
X26276D01*
Y76378D01*
D02*
G37*
G36*
X6000Y63866D02*
X2350D01*
Y56476D01*
X6000D01*
Y63866D01*
D02*
G37*
G36*
Y55476D02*
X2350D01*
Y48087D01*
X6000D01*
Y55476D01*
D02*
G37*
G36*
X10650D02*
X7000D01*
Y48087D01*
X10650D01*
Y55476D01*
D02*
G37*
G36*
X105500Y59000D02*
X101527D01*
X101616Y58325D01*
X102069Y57231D01*
X102791Y56291D01*
X103731Y55569D01*
X104825Y55116D01*
X105500Y55027D01*
Y59000D01*
D02*
G37*
G36*
X26276Y79303D02*
X24595D01*
Y77031D01*
X26276D01*
Y79303D01*
D02*
G37*
G36*
X98047Y104303D02*
X96366D01*
Y102032D01*
X98047D01*
Y104303D01*
D02*
G37*
G36*
X100728D02*
X99047D01*
Y102032D01*
X100728D01*
Y104303D01*
D02*
G37*
G36*
X51953Y109968D02*
X50272D01*
Y107697D01*
X51953D01*
Y109968D01*
D02*
G37*
G36*
X95197Y89728D02*
X92925D01*
Y88047D01*
X95197D01*
Y89728D01*
D02*
G37*
G36*
X95303Y79953D02*
X93032D01*
Y78272D01*
X95303D01*
Y79953D01*
D02*
G37*
G36*
Y82634D02*
X93032D01*
Y80953D01*
X95303D01*
Y82634D01*
D02*
G37*
G36*
X95197Y87047D02*
X92925D01*
Y85366D01*
X95197D01*
Y87047D01*
D02*
G37*
%LPD*%
G36*
X476664Y46832D02*
X475719D01*
Y52409D01*
X476664D01*
Y46832D01*
D02*
G37*
G36*
X482785Y47743D02*
X486574D01*
Y46832D01*
X481763D01*
Y54520D01*
X482785D01*
Y47743D01*
D02*
G37*
G36*
X490262Y52521D02*
X490429Y52509D01*
X490618Y52487D01*
X490807Y52454D01*
X490996Y52409D01*
X491173Y52354D01*
X491196Y52343D01*
X491251Y52321D01*
X491329Y52287D01*
X491429Y52243D01*
X491540Y52176D01*
X491651Y52109D01*
X491751Y52021D01*
X491840Y51932D01*
X491851Y51921D01*
X491873Y51887D01*
X491907Y51832D01*
X491951Y51765D01*
X492007Y51665D01*
X492051Y51565D01*
X492096Y51443D01*
X492129Y51298D01*
Y51287D01*
X492140Y51254D01*
X492151Y51187D01*
X492162Y51099D01*
Y50976D01*
X492173Y50832D01*
X492184Y50643D01*
Y50432D01*
Y49165D01*
Y49154D01*
Y49110D01*
Y49043D01*
Y48954D01*
Y48854D01*
Y48732D01*
X492196Y48465D01*
Y48188D01*
X492207Y47910D01*
X492218Y47788D01*
Y47677D01*
X492229Y47577D01*
X492240Y47499D01*
Y47488D01*
X492251Y47443D01*
X492262Y47377D01*
X492296Y47288D01*
X492318Y47188D01*
X492362Y47077D01*
X492418Y46955D01*
X492473Y46832D01*
X491484D01*
X491473Y46843D01*
X491462Y46888D01*
X491440Y46943D01*
X491407Y47032D01*
X491373Y47132D01*
X491351Y47254D01*
X491329Y47388D01*
X491307Y47532D01*
X491296D01*
X491285Y47510D01*
X491218Y47454D01*
X491118Y47377D01*
X490985Y47277D01*
X490818Y47177D01*
X490651Y47066D01*
X490474Y46966D01*
X490285Y46888D01*
X490262Y46877D01*
X490196Y46866D01*
X490096Y46832D01*
X489973Y46799D01*
X489818Y46766D01*
X489640Y46743D01*
X489440Y46721D01*
X489240Y46710D01*
X489151D01*
X489085Y46721D01*
X489007D01*
X488918Y46732D01*
X488718Y46766D01*
X488496Y46821D01*
X488251Y46899D01*
X488029Y47010D01*
X487829Y47155D01*
X487807Y47177D01*
X487751Y47232D01*
X487674Y47332D01*
X487585Y47466D01*
X487496Y47632D01*
X487418Y47821D01*
X487363Y48054D01*
X487352Y48166D01*
X487340Y48299D01*
Y48321D01*
Y48366D01*
X487352Y48443D01*
X487363Y48543D01*
X487385Y48665D01*
X487418Y48788D01*
X487463Y48921D01*
X487518Y49043D01*
X487529Y49054D01*
X487552Y49099D01*
X487596Y49165D01*
X487652Y49243D01*
X487718Y49332D01*
X487807Y49421D01*
X487896Y49510D01*
X488007Y49588D01*
X488018Y49599D01*
X488063Y49621D01*
X488118Y49665D01*
X488207Y49710D01*
X488307Y49754D01*
X488429Y49810D01*
X488552Y49854D01*
X488696Y49899D01*
X488707D01*
X488751Y49910D01*
X488818Y49932D01*
X488907Y49943D01*
X489018Y49965D01*
X489162Y49988D01*
X489329Y50021D01*
X489529Y50043D01*
X489540D01*
X489585Y50054D01*
X489640D01*
X489718Y50065D01*
X489807Y50076D01*
X489918Y50099D01*
X490040Y50110D01*
X490173Y50132D01*
X490440Y50187D01*
X490729Y50243D01*
X490985Y50310D01*
X491107Y50343D01*
X491218Y50376D01*
Y50388D01*
Y50410D01*
X491229Y50476D01*
Y50554D01*
Y50599D01*
Y50621D01*
Y50632D01*
Y50643D01*
Y50710D01*
X491218Y50821D01*
X491196Y50943D01*
X491162Y51076D01*
X491107Y51210D01*
X491040Y51332D01*
X490951Y51432D01*
X490940Y51443D01*
X490885Y51487D01*
X490796Y51532D01*
X490685Y51599D01*
X490529Y51654D01*
X490351Y51710D01*
X490129Y51743D01*
X489874Y51754D01*
X489762D01*
X489651Y51743D01*
X489496Y51721D01*
X489340Y51698D01*
X489174Y51654D01*
X489018Y51599D01*
X488885Y51521D01*
X488874Y51510D01*
X488829Y51476D01*
X488774Y51421D01*
X488707Y51332D01*
X488640Y51221D01*
X488563Y51076D01*
X488496Y50898D01*
X488429Y50699D01*
X487507Y50821D01*
Y50832D01*
X487518Y50843D01*
Y50876D01*
X487529Y50921D01*
X487563Y51021D01*
X487607Y51165D01*
X487663Y51310D01*
X487729Y51465D01*
X487818Y51621D01*
X487918Y51765D01*
X487929Y51776D01*
X487974Y51821D01*
X488040Y51887D01*
X488129Y51976D01*
X488251Y52065D01*
X488396Y52154D01*
X488563Y52254D01*
X488751Y52332D01*
X488763D01*
X488774Y52343D01*
X488807Y52354D01*
X488851Y52365D01*
X488963Y52398D01*
X489118Y52432D01*
X489296Y52465D01*
X489518Y52498D01*
X489751Y52521D01*
X490018Y52532D01*
X490140D01*
X490262Y52521D01*
D02*
G37*
G36*
X501483D02*
X501572Y52509D01*
X501684Y52487D01*
X501806Y52465D01*
X501950Y52432D01*
X502083Y52398D01*
X502239Y52343D01*
X502383Y52287D01*
X502539Y52210D01*
X502695Y52121D01*
X502850Y52021D01*
X502994Y51898D01*
X503128Y51765D01*
X503139Y51754D01*
X503161Y51732D01*
X503194Y51687D01*
X503239Y51621D01*
X503294Y51543D01*
X503350Y51454D01*
X503417Y51343D01*
X503483Y51210D01*
X503550Y51065D01*
X503617Y50910D01*
X503672Y50732D01*
X503728Y50543D01*
X503772Y50332D01*
X503805Y50110D01*
X503828Y49876D01*
X503839Y49621D01*
Y49610D01*
Y49565D01*
Y49488D01*
X503828Y49376D01*
X499661D01*
Y49365D01*
Y49332D01*
X499673Y49288D01*
Y49221D01*
X499684Y49143D01*
X499706Y49054D01*
X499739Y48854D01*
X499806Y48632D01*
X499895Y48388D01*
X500017Y48166D01*
X500173Y47965D01*
X500184D01*
X500195Y47943D01*
X500261Y47888D01*
X500361Y47810D01*
X500495Y47732D01*
X500672Y47643D01*
X500873Y47565D01*
X501095Y47510D01*
X501217Y47499D01*
X501350Y47488D01*
X501439D01*
X501539Y47499D01*
X501661Y47521D01*
X501795Y47554D01*
X501950Y47599D01*
X502095Y47666D01*
X502239Y47754D01*
X502250Y47765D01*
X502306Y47810D01*
X502372Y47877D01*
X502450Y47965D01*
X502539Y48088D01*
X502639Y48243D01*
X502739Y48421D01*
X502828Y48632D01*
X503805Y48510D01*
Y48499D01*
X503794Y48477D01*
X503783Y48432D01*
X503761Y48366D01*
X503728Y48299D01*
X503694Y48210D01*
X503606Y48021D01*
X503494Y47810D01*
X503339Y47588D01*
X503161Y47377D01*
X502939Y47177D01*
X502928D01*
X502906Y47155D01*
X502872Y47132D01*
X502828Y47099D01*
X502761Y47066D01*
X502695Y47032D01*
X502606Y46988D01*
X502506Y46943D01*
X502394Y46899D01*
X502283Y46854D01*
X502006Y46788D01*
X501695Y46732D01*
X501350Y46710D01*
X501228D01*
X501150Y46721D01*
X501050Y46732D01*
X500928Y46755D01*
X500795Y46777D01*
X500650Y46799D01*
X500339Y46888D01*
X500173Y46955D01*
X500017Y47021D01*
X499850Y47110D01*
X499695Y47210D01*
X499550Y47321D01*
X499406Y47454D01*
X499395Y47466D01*
X499373Y47488D01*
X499339Y47532D01*
X499295Y47599D01*
X499239Y47677D01*
X499184Y47765D01*
X499117Y47877D01*
X499050Y47999D01*
X498984Y48143D01*
X498917Y48299D01*
X498862Y48477D01*
X498806Y48665D01*
X498762Y48865D01*
X498728Y49088D01*
X498706Y49321D01*
X498695Y49565D01*
Y49576D01*
Y49632D01*
Y49699D01*
X498706Y49799D01*
X498717Y49921D01*
X498728Y50054D01*
X498750Y50210D01*
X498784Y50365D01*
X498873Y50721D01*
X498928Y50898D01*
X498995Y51087D01*
X499084Y51265D01*
X499184Y51432D01*
X499295Y51599D01*
X499417Y51754D01*
X499428Y51765D01*
X499450Y51787D01*
X499495Y51821D01*
X499550Y51876D01*
X499617Y51932D01*
X499706Y51998D01*
X499806Y52076D01*
X499928Y52143D01*
X500050Y52221D01*
X500195Y52287D01*
X500350Y52354D01*
X500517Y52409D01*
X500695Y52465D01*
X500884Y52498D01*
X501084Y52521D01*
X501295Y52532D01*
X501406D01*
X501483Y52521D01*
D02*
G37*
G36*
X473831Y52409D02*
X474786D01*
Y51676D01*
X473831D01*
Y48399D01*
Y48377D01*
Y48332D01*
Y48265D01*
X473842Y48188D01*
X473853Y48010D01*
X473864Y47932D01*
X473875Y47877D01*
X473886Y47854D01*
X473920Y47810D01*
X473964Y47754D01*
X474042Y47699D01*
X474064Y47688D01*
X474120Y47666D01*
X474220Y47643D01*
X474364Y47632D01*
X474475D01*
X474531Y47643D01*
X474608D01*
X474697Y47654D01*
X474786Y47666D01*
X474908Y46832D01*
X474886D01*
X474842Y46821D01*
X474764Y46810D01*
X474664Y46799D01*
X474553Y46777D01*
X474431Y46766D01*
X474186Y46755D01*
X474097D01*
X474009Y46766D01*
X473897Y46777D01*
X473764Y46788D01*
X473631Y46821D01*
X473509Y46854D01*
X473386Y46910D01*
X473375Y46921D01*
X473342Y46943D01*
X473297Y46977D01*
X473231Y47032D01*
X473175Y47088D01*
X473109Y47166D01*
X473042Y47243D01*
X472998Y47343D01*
Y47355D01*
X472975Y47399D01*
X472964Y47477D01*
X472942Y47588D01*
X472920Y47732D01*
X472909Y47821D01*
Y47921D01*
X472897Y48043D01*
X472886Y48166D01*
Y48299D01*
Y48454D01*
Y51676D01*
X472186D01*
Y52409D01*
X472886D01*
Y53787D01*
X473831Y54354D01*
Y52409D01*
D02*
G37*
G36*
X471264Y46832D02*
X470320D01*
Y54520D01*
X471264D01*
Y46832D01*
D02*
G37*
G36*
X468864D02*
X468020D01*
Y47643D01*
X468009Y47632D01*
X467987Y47599D01*
X467953Y47554D01*
X467898Y47499D01*
X467831Y47432D01*
X467754Y47343D01*
X467665Y47266D01*
X467554Y47177D01*
X467431Y47088D01*
X467298Y47010D01*
X467154Y46932D01*
X466998Y46854D01*
X466820Y46799D01*
X466643Y46755D01*
X466443Y46721D01*
X466243Y46710D01*
X466165D01*
X466065Y46721D01*
X465943Y46732D01*
X465798Y46755D01*
X465643Y46788D01*
X465487Y46832D01*
X465320Y46899D01*
X465298Y46910D01*
X465254Y46932D01*
X465176Y46977D01*
X465087Y47032D01*
X464976Y47099D01*
X464876Y47177D01*
X464776Y47266D01*
X464687Y47366D01*
X464676Y47377D01*
X464654Y47421D01*
X464620Y47477D01*
X464576Y47565D01*
X464521Y47666D01*
X464476Y47788D01*
X464432Y47921D01*
X464398Y48066D01*
Y48077D01*
X464387Y48121D01*
X464376Y48188D01*
Y48277D01*
X464365Y48410D01*
X464354Y48554D01*
X464343Y48743D01*
Y48954D01*
Y52409D01*
X465287D01*
Y49310D01*
Y49299D01*
Y49277D01*
Y49243D01*
Y49188D01*
Y49065D01*
X465298Y48910D01*
Y48743D01*
X465309Y48577D01*
X465320Y48432D01*
X465343Y48310D01*
Y48299D01*
X465365Y48254D01*
X465387Y48188D01*
X465420Y48099D01*
X465476Y48010D01*
X465543Y47910D01*
X465620Y47821D01*
X465720Y47732D01*
X465731Y47721D01*
X465776Y47699D01*
X465832Y47666D01*
X465920Y47632D01*
X466020Y47588D01*
X466143Y47554D01*
X466276Y47532D01*
X466432Y47521D01*
X466509D01*
X466587Y47532D01*
X466687Y47543D01*
X466809Y47577D01*
X466943Y47610D01*
X467087Y47666D01*
X467231Y47732D01*
X467254Y47743D01*
X467298Y47777D01*
X467365Y47821D01*
X467443Y47888D01*
X467531Y47977D01*
X467620Y48077D01*
X467698Y48188D01*
X467765Y48321D01*
X467776Y48343D01*
X467787Y48388D01*
X467809Y48477D01*
X467842Y48599D01*
X467876Y48754D01*
X467898Y48943D01*
X467909Y49165D01*
X467920Y49421D01*
Y52409D01*
X468864D01*
Y46832D01*
D02*
G37*
G36*
X480652Y49143D02*
X477730D01*
Y50087D01*
X480652D01*
Y49143D01*
D02*
G37*
G36*
X507216Y52521D02*
X507338Y52498D01*
X507483Y52454D01*
X507638Y52398D01*
X507816Y52321D01*
X508005Y52221D01*
X507661Y51354D01*
X507650Y51365D01*
X507605Y51387D01*
X507539Y51421D01*
X507450Y51454D01*
X507350Y51487D01*
X507227Y51521D01*
X507105Y51543D01*
X506983Y51554D01*
X506927D01*
X506872Y51543D01*
X506794Y51532D01*
X506716Y51510D01*
X506616Y51476D01*
X506516Y51432D01*
X506427Y51365D01*
X506416Y51354D01*
X506383Y51332D01*
X506350Y51287D01*
X506294Y51232D01*
X506239Y51154D01*
X506183Y51065D01*
X506128Y50965D01*
X506083Y50843D01*
X506072Y50821D01*
X506061Y50754D01*
X506039Y50654D01*
X506005Y50521D01*
X505972Y50354D01*
X505950Y50165D01*
X505939Y49965D01*
X505928Y49743D01*
Y46832D01*
X504983D01*
Y52409D01*
X505839D01*
Y51565D01*
X505850Y51576D01*
X505894Y51654D01*
X505950Y51754D01*
X506039Y51876D01*
X506128Y51998D01*
X506227Y52132D01*
X506327Y52243D01*
X506427Y52332D01*
X506439Y52343D01*
X506472Y52365D01*
X506539Y52398D01*
X506605Y52432D01*
X506694Y52465D01*
X506805Y52498D01*
X506916Y52521D01*
X507038Y52532D01*
X507116D01*
X507216Y52521D01*
D02*
G37*
G36*
X476664Y53443D02*
X475719D01*
Y54520D01*
X476664D01*
Y53443D01*
D02*
G37*
G36*
X496084Y46743D02*
Y46732D01*
X496073Y46699D01*
X496051Y46654D01*
X496029Y46599D01*
X495995Y46521D01*
X495962Y46432D01*
X495884Y46244D01*
X495806Y46032D01*
X495717Y45821D01*
X495628Y45632D01*
X495584Y45555D01*
X495551Y45477D01*
X495540Y45455D01*
X495506Y45399D01*
X495451Y45321D01*
X495384Y45221D01*
X495295Y45110D01*
X495195Y44999D01*
X495095Y44888D01*
X494973Y44799D01*
X494962Y44788D01*
X494917Y44766D01*
X494851Y44732D01*
X494751Y44688D01*
X494640Y44644D01*
X494506Y44610D01*
X494362Y44588D01*
X494195Y44577D01*
X494151D01*
X494095Y44588D01*
X494018D01*
X493929Y44610D01*
X493829Y44633D01*
X493718Y44655D01*
X493595Y44699D01*
X493495Y45577D01*
X493506D01*
X493551Y45566D01*
X493607Y45555D01*
X493673Y45532D01*
X493851Y45499D01*
X494029Y45488D01*
X494084D01*
X494140Y45499D01*
X494206D01*
X494373Y45532D01*
X494451Y45566D01*
X494529Y45599D01*
X494540D01*
X494562Y45621D01*
X494595Y45643D01*
X494640Y45677D01*
X494740Y45766D01*
X494829Y45888D01*
Y45899D01*
X494851Y45921D01*
X494873Y45966D01*
X494895Y46032D01*
X494940Y46121D01*
X494984Y46255D01*
X495051Y46410D01*
X495118Y46599D01*
Y46610D01*
X495140Y46654D01*
X495162Y46732D01*
X495206Y46832D01*
X493095Y52409D01*
X494095D01*
X495262Y49176D01*
Y49165D01*
X495273Y49154D01*
X495284Y49121D01*
X495295Y49065D01*
X495318Y49010D01*
X495340Y48943D01*
X495395Y48788D01*
X495462Y48599D01*
X495529Y48377D01*
X495595Y48143D01*
X495662Y47888D01*
Y47899D01*
X495673Y47921D01*
X495684Y47954D01*
X495695Y47999D01*
X495706Y48054D01*
X495728Y48121D01*
X495773Y48288D01*
X495828Y48477D01*
X495906Y48699D01*
X495973Y48921D01*
X496062Y49154D01*
X497262Y52409D01*
X498206D01*
X496084Y46743D01*
D02*
G37*
G36*
X462832Y46832D02*
X461854D01*
Y53265D01*
X459610Y46832D01*
X458699D01*
X456477Y53376D01*
Y46832D01*
X455499D01*
Y54520D01*
X457021D01*
X458843Y49065D01*
Y49054D01*
X458854Y49032D01*
X458865Y48999D01*
X458888Y48943D01*
X458932Y48810D01*
X458988Y48643D01*
X459043Y48454D01*
X459110Y48265D01*
X459165Y48088D01*
X459210Y47932D01*
X459221Y47954D01*
X459232Y48010D01*
X459266Y48110D01*
X459310Y48243D01*
X459366Y48421D01*
X459443Y48632D01*
X459521Y48877D01*
X459621Y49165D01*
X461465Y54520D01*
X462832D01*
Y46832D01*
D02*
G37*
%LPC*%
G36*
X491229Y49632D02*
X491218D01*
X491207Y49621D01*
X491173Y49610D01*
X491129Y49599D01*
X491073Y49576D01*
X491007Y49554D01*
X490929Y49532D01*
X490840Y49510D01*
X490740Y49477D01*
X490618Y49454D01*
X490496Y49421D01*
X490351Y49388D01*
X490196Y49354D01*
X490040Y49321D01*
X489862Y49299D01*
X489674Y49265D01*
X489651D01*
X489585Y49254D01*
X489474Y49232D01*
X489351Y49210D01*
X489218Y49188D01*
X489085Y49154D01*
X488963Y49121D01*
X488851Y49077D01*
X488840D01*
X488807Y49054D01*
X488763Y49032D01*
X488718Y48999D01*
X488585Y48910D01*
X488474Y48777D01*
Y48765D01*
X488451Y48743D01*
X488440Y48699D01*
X488418Y48643D01*
X488396Y48577D01*
X488374Y48510D01*
X488363Y48421D01*
X488351Y48332D01*
Y48321D01*
Y48265D01*
X488363Y48199D01*
X488385Y48110D01*
X488418Y48010D01*
X488474Y47910D01*
X488540Y47799D01*
X488629Y47699D01*
X488640Y47688D01*
X488685Y47666D01*
X488751Y47621D01*
X488840Y47577D01*
X488963Y47532D01*
X489107Y47488D01*
X489274Y47466D01*
X489474Y47454D01*
X489563D01*
X489674Y47466D01*
X489796Y47488D01*
X489951Y47510D01*
X490107Y47554D01*
X490274Y47610D01*
X490440Y47688D01*
X490462Y47699D01*
X490507Y47732D01*
X490585Y47788D01*
X490673Y47866D01*
X490773Y47954D01*
X490885Y48066D01*
X490973Y48199D01*
X491062Y48343D01*
X491073Y48354D01*
X491084Y48399D01*
X491107Y48477D01*
X491140Y48577D01*
X491173Y48710D01*
X491196Y48865D01*
X491207Y49054D01*
X491218Y49277D01*
X491229Y49632D01*
D02*
G37*
G36*
X501306Y51754D02*
X501239D01*
X501195Y51743D01*
X501072Y51732D01*
X500928Y51698D01*
X500750Y51643D01*
X500561Y51565D01*
X500384Y51454D01*
X500206Y51310D01*
X500184Y51287D01*
X500139Y51232D01*
X500061Y51132D01*
X499984Y50999D01*
X499895Y50843D01*
X499817Y50643D01*
X499750Y50410D01*
X499717Y50154D01*
X502839D01*
Y50165D01*
Y50187D01*
X502828Y50221D01*
Y50265D01*
X502806Y50399D01*
X502772Y50543D01*
X502717Y50721D01*
X502661Y50887D01*
X502572Y51054D01*
X502472Y51199D01*
Y51210D01*
X502450Y51221D01*
X502394Y51287D01*
X502294Y51376D01*
X502161Y51476D01*
X501995Y51576D01*
X501795Y51665D01*
X501561Y51732D01*
X501439Y51743D01*
X501306Y51754D01*
D02*
G37*
%LPD*%
D10*
X123819Y112598D02*
D03*
X129724D02*
D03*
X123819Y118110D02*
D03*
X129724D02*
D03*
X24606Y107677D02*
D03*
X30512D02*
D03*
X105953Y128000D02*
D03*
X100047D02*
D03*
X98547Y115000D02*
D03*
X104453D02*
D03*
X98547Y104803D02*
D03*
X104453D02*
D03*
X90453Y105000D02*
D03*
X84547D02*
D03*
X77000Y87000D02*
D03*
X71095D02*
D03*
Y93303D02*
D03*
X77000D02*
D03*
X71095Y80500D02*
D03*
X77000D02*
D03*
X71095Y74000D02*
D03*
X77000D02*
D03*
X62953Y11500D02*
D03*
X57047D02*
D03*
X62953Y5000D02*
D03*
X57047D02*
D03*
X39567Y-1575D02*
D03*
X45472D02*
D03*
X68047Y5000D02*
D03*
X73953D02*
D03*
X80453Y26000D02*
D03*
X74547D02*
D03*
X57047Y17803D02*
D03*
X62953D02*
D03*
X39047Y20303D02*
D03*
X44953D02*
D03*
X28453Y14000D02*
D03*
X22547D02*
D03*
Y7500D02*
D03*
X28453D02*
D03*
X22547Y803D02*
D03*
X28453D02*
D03*
X53453Y56197D02*
D03*
X47547D02*
D03*
X24047Y86500D02*
D03*
X29953D02*
D03*
X24094Y79803D02*
D03*
X30000D02*
D03*
X24094Y73606D02*
D03*
X30000D02*
D03*
Y67500D02*
D03*
X24094D02*
D03*
X30000Y61303D02*
D03*
X24094D02*
D03*
X29953Y55000D02*
D03*
X24047D02*
D03*
X13047Y86500D02*
D03*
X18953D02*
D03*
X29953Y92697D02*
D03*
X24047D02*
D03*
Y99000D02*
D03*
X29953D02*
D03*
X30512Y113386D02*
D03*
X24606D02*
D03*
X52453Y107197D02*
D03*
X46547D02*
D03*
Y114000D02*
D03*
X52453D02*
D03*
X113047Y128000D02*
D03*
X118953D02*
D03*
X113047Y121500D02*
D03*
X118953D02*
D03*
D11*
X162000Y104453D02*
D03*
Y98547D02*
D03*
X168697D02*
D03*
Y104453D02*
D03*
X172500Y128953D02*
D03*
Y123047D02*
D03*
X172303Y139953D02*
D03*
Y134047D02*
D03*
X161803Y117453D02*
D03*
Y111547D02*
D03*
X95803Y80453D02*
D03*
Y74547D02*
D03*
X95697Y87547D02*
D03*
Y93453D02*
D03*
D12*
X176000Y97654D02*
D03*
Y104347D02*
D03*
X197500Y97654D02*
D03*
Y104347D02*
D03*
X179000Y140347D02*
D03*
Y133653D02*
D03*
X165013Y139847D02*
D03*
Y133153D02*
D03*
D13*
X197500Y117476D02*
D03*
Y139524D02*
D03*
X6500Y78024D02*
D03*
Y55976D02*
D03*
D14*
X84000Y126300D02*
D03*
D15*
X92000Y130000D02*
D03*
Y122500D02*
D03*
D16*
X106000Y89323D02*
D03*
Y97000D02*
D03*
Y91882D02*
D03*
Y86764D02*
D03*
Y84205D02*
D03*
Y81646D02*
D03*
Y79087D02*
D03*
Y76528D02*
D03*
Y73968D02*
D03*
X135921Y97000D02*
D03*
Y94441D02*
D03*
Y91882D02*
D03*
Y89323D02*
D03*
Y86764D02*
D03*
Y84205D02*
D03*
Y81646D02*
D03*
Y79087D02*
D03*
Y76528D02*
D03*
Y73968D02*
D03*
X106000Y94441D02*
D03*
D17*
X86500Y75700D02*
D03*
Y92300D02*
D03*
D18*
X82012Y15500D02*
D03*
X70988D02*
D03*
X16488Y27000D02*
D03*
X27512D02*
D03*
X16488Y42000D02*
D03*
X27512D02*
D03*
X44988Y67500D02*
D03*
X56012D02*
D03*
D19*
X36980Y12339D02*
D03*
Y9780D02*
D03*
Y7220D02*
D03*
Y4661D02*
D03*
X47020Y12339D02*
D03*
Y9780D02*
D03*
Y7220D02*
D03*
Y4661D02*
D03*
D20*
X60819Y81543D02*
D03*
Y84102D02*
D03*
Y86661D02*
D03*
Y89220D02*
D03*
Y91780D02*
D03*
Y94339D02*
D03*
Y96898D02*
D03*
Y99457D02*
D03*
X38181Y81543D02*
D03*
Y84102D02*
D03*
Y86661D02*
D03*
Y89220D02*
D03*
Y91780D02*
D03*
Y94339D02*
D03*
Y96898D02*
D03*
Y99457D02*
D03*
D21*
X118953Y128000D02*
X123500Y123453D01*
Y118110D02*
Y123453D01*
X126500Y79000D02*
Y115110D01*
X123500Y118110D02*
X126500Y115110D01*
X118953Y115693D02*
Y121500D01*
Y115693D02*
X124000Y110646D01*
Y76000D02*
Y110646D01*
X70079Y103937D02*
X72516Y101500D01*
X64567Y103937D02*
X70079D01*
X63130Y102500D02*
X64567Y103937D01*
X72516Y101500D02*
X86000D01*
X50000Y102500D02*
X63130D01*
X38181Y81543D02*
X60819D01*
X141386Y89323D02*
X141732Y88976D01*
X135921Y89323D02*
X141386D01*
X61983Y123483D02*
X65000Y126500D01*
X55867Y123483D02*
X61983D01*
X52453Y120069D02*
X55867Y123483D01*
X52453Y114000D02*
Y120069D01*
X169000Y94500D02*
Y98547D01*
X158000Y133153D02*
X165013D01*
X158000Y132500D02*
Y133153D01*
X168697Y98547D02*
X169000D01*
X54000Y93000D02*
X55221Y91780D01*
X45000Y60000D02*
X58000D01*
X35000Y50000D02*
X45000Y60000D01*
X35000Y32500D02*
Y50000D01*
X149500Y63000D02*
Y93155D01*
X146500Y96155D02*
X149500Y93155D01*
X146500Y96155D02*
Y112500D01*
X67000Y97783D02*
Y101000D01*
X63556Y94339D02*
X67000Y97783D01*
X60819Y94339D02*
X63556D01*
X68000Y95500D02*
X70000Y97500D01*
X68000Y88000D02*
Y95500D01*
X66661Y86661D02*
X68000Y88000D01*
X28732Y7220D02*
X36980D01*
X28453Y7500D02*
X28732Y7220D01*
X47020Y9780D02*
X55327D01*
X57047Y11500D01*
X175013Y144334D02*
Y152249D01*
Y144334D02*
X179000Y140347D01*
X172697Y133653D02*
X179000D01*
X172303Y134047D02*
X172697Y133653D01*
X172303Y129150D02*
Y134047D01*
Y129150D02*
X172500Y128953D01*
X162106Y104347D02*
X176000D01*
X162000Y104453D02*
X162106Y104347D01*
X88941Y94441D02*
X106000D01*
X88500Y94000D02*
X88941Y94441D01*
X100382Y91882D02*
X106000D01*
X99000Y90500D02*
X100382Y91882D01*
X99000Y77000D02*
Y90500D01*
X96500Y74500D02*
X99000Y77000D01*
X89000Y74500D02*
X96500D01*
X155000Y123000D02*
X172453D01*
X172500Y123047D01*
X106000Y86764D02*
X114764D01*
X116000Y88000D01*
Y101500D01*
X92000Y109000D02*
X113500D01*
X90453Y107453D02*
X92000Y109000D01*
X90453Y105000D02*
Y107453D01*
X116000Y101500D02*
Y106500D01*
X113500Y109000D02*
X116000Y106500D01*
X106000Y84205D02*
X115705D01*
X118000Y86500D01*
Y107500D01*
X114500Y111000D02*
X118000Y107500D01*
X90000Y111000D02*
X114500D01*
X106000Y79087D02*
X115087D01*
X120000Y84000D01*
Y108500D01*
X115500Y113000D02*
X120000Y108500D01*
X111500Y113000D02*
X115500D01*
X106000D02*
X111500D01*
X105000Y114000D02*
X106000Y113000D01*
X98547Y115000D02*
Y120453D01*
X96500Y122500D02*
X98547Y120453D01*
X92000Y122500D02*
X96500D01*
X106000Y76528D02*
X117027D01*
X122000Y81500D01*
Y109500D01*
X116500Y115000D02*
X122000Y109500D01*
X109500Y115000D02*
X116500D01*
X105500Y119000D02*
X109500Y115000D01*
X102000Y119000D02*
X105500D01*
X100076Y120924D02*
X102000Y119000D01*
X100076Y120924D02*
Y136424D01*
X98500Y138000D02*
X100076Y136424D01*
X96840Y138000D02*
X98500D01*
X92822Y142018D02*
X96840Y138000D01*
X126031Y73968D02*
X135921D01*
X124000Y76000D02*
X126031Y73968D01*
X126500Y79000D02*
X128972Y76528D01*
X135921D01*
X75200Y126300D02*
X84000D01*
X75000Y126500D02*
X75200Y126300D01*
X135921Y84205D02*
X142295D01*
X142500Y84000D01*
X158000Y94000D02*
X160500D01*
X162000Y95500D01*
Y98547D01*
X135921Y91882D02*
X143118D01*
X145500Y89500D01*
Y69500D02*
Y89500D01*
X135921Y94441D02*
X144559D01*
X147500Y91500D01*
Y69000D02*
Y91500D01*
X144000Y68000D02*
X145500Y69500D01*
X128000Y68000D02*
X144000D01*
X126000Y66000D02*
X128000Y68000D01*
X126000Y59500D02*
Y66000D01*
X147500Y68500D02*
Y69000D01*
X145000Y66000D02*
X147500Y68500D01*
X138500Y66000D02*
X145000D01*
X136000Y63500D02*
X138500Y66000D01*
X136000Y59500D02*
Y63500D01*
X60819Y84102D02*
X68197D01*
X71095Y87000D01*
Y93303D01*
Y74000D02*
X73000D01*
X74000Y75000D01*
Y83500D01*
X72000Y85500D02*
X74000Y83500D01*
X28453Y14000D02*
Y24453D01*
X32500Y30000D02*
X35000Y32500D01*
X30000Y30000D02*
X32500D01*
X28453Y803D02*
Y7500D01*
Y14000D01*
X38181Y91780D02*
X45279D01*
X46547Y93047D01*
Y107197D02*
Y114000D01*
X55221Y91780D02*
X60819D01*
X38181Y78181D02*
Y81543D01*
X38000Y78000D02*
X38181Y78181D01*
X60819Y86661D02*
X66661D01*
X70000Y97500D02*
X76000D01*
X77000Y96500D01*
Y80500D02*
Y87000D01*
Y93303D01*
Y96500D01*
X47020Y12339D02*
Y18236D01*
X44953Y20303D02*
X47020Y18236D01*
X22547Y7500D02*
Y7547D01*
X25500Y10500D01*
Y17500D01*
X23500Y19500D02*
X25500Y17500D01*
X45000Y20350D02*
Y25500D01*
X44953Y20303D02*
X45000Y20350D01*
X87500Y108500D02*
X90000Y111000D01*
X87500Y103000D02*
Y108500D01*
X86000Y101500D02*
X87500Y103000D01*
X28453Y24453D02*
X29500Y25500D01*
X46547Y94230D02*
X47389Y93389D01*
X46547Y94230D02*
Y107197D01*
X113047Y121500D02*
Y128000D01*
X105500Y106000D02*
X110850D01*
X105953Y128000D02*
X109500D01*
X113047D01*
X146000Y59500D02*
X149500Y63000D01*
X80453Y26000D02*
Y50953D01*
X79405Y52000D02*
X80453Y50953D01*
X47500Y52000D02*
X79405D01*
X104500Y97000D02*
Y105000D01*
X47500Y52000D02*
Y56150D01*
X47547Y56197D01*
D22*
X35283Y84102D02*
X38181D01*
X33858Y82677D02*
X35283Y84102D01*
X33858Y76378D02*
Y82677D01*
Y76378D02*
X35433Y74803D01*
X43307D01*
X44988Y73122D01*
Y67500D02*
Y73122D01*
X33906Y86661D02*
X38181D01*
X32283Y85039D02*
X33906Y86661D01*
X32283Y71536D02*
Y85039D01*
X31247Y70500D02*
X32283Y71536D01*
X26500Y70500D02*
X31247D01*
X28346Y106299D02*
X30709D01*
X24047Y99000D02*
Y102000D01*
X30335Y107500D02*
X41000D01*
X30512Y107677D02*
Y113386D01*
X29953Y107500D02*
X30335D01*
X30512Y107677D01*
X24047Y102000D02*
X28346Y106299D01*
X18886Y113386D02*
X24606D01*
X11000Y105500D02*
X18886Y113386D01*
X112157Y89323D02*
X112598Y89764D01*
X106000Y89323D02*
X112157D01*
X40220Y9780D02*
X40945Y9055D01*
Y-197D02*
Y9055D01*
X39567Y-1575D02*
X40945Y-197D01*
X45472Y-1575D02*
X47020Y-28D01*
Y4661D01*
X41000Y10559D02*
Y12000D01*
X40220Y9780D02*
X41000Y10559D01*
Y12677D02*
Y15500D01*
X40661Y12339D02*
X41000Y12677D01*
X51154Y88835D02*
X56631D01*
X51000Y94500D02*
X54500Y98000D01*
X51000Y89220D02*
Y94500D01*
X38181Y89220D02*
X51000D01*
X55602Y96898D02*
X60819D01*
X54500Y98000D02*
X55602Y96898D01*
X54500Y98000D02*
X55957Y99457D01*
X60819D01*
X36980Y9780D02*
X40220D01*
X62953Y5000D02*
X68047D01*
Y12547D01*
X68500Y13000D01*
X80453Y17059D02*
X82012Y15500D01*
X61000Y26000D02*
X65000D01*
X68500Y22500D01*
Y19000D02*
Y22500D01*
X69000Y80500D02*
X71095D01*
X67000Y78500D02*
X69000Y80500D01*
X67000Y69500D02*
Y78500D01*
X65000Y67500D02*
X67000Y69500D01*
X56012Y67500D02*
X65000D01*
X30409Y99457D02*
X38181D01*
Y96898D02*
X42398D01*
X43000Y97500D01*
X33839Y94339D02*
X38181D01*
X32500Y93000D02*
X33839Y94339D01*
X32500Y89500D02*
Y93000D01*
X31000Y88000D02*
X32500Y89500D01*
X29953Y73654D02*
Y86500D01*
Y73654D02*
X30000Y73606D01*
X29953Y86500D02*
Y87047D01*
X27500Y89500D02*
X29953Y87047D01*
X21500Y89500D02*
X27500D01*
X20000Y88000D02*
X21500Y89500D01*
X30000Y67500D02*
X44988D01*
X30000Y61303D02*
Y67500D01*
X24094Y61303D02*
Y67500D01*
Y68094D01*
X26500Y70500D01*
X24094Y55047D02*
Y61303D01*
X24047Y55000D02*
X24094Y55047D01*
X29953Y44953D02*
Y55000D01*
X29000Y44000D02*
X29953Y44953D01*
X24047Y86047D02*
Y86500D01*
X40661Y12339D02*
X41000Y12000D01*
X77000Y70000D02*
Y74000D01*
X36980Y12339D02*
X40661D01*
X47020Y7220D02*
X50779D01*
X52500Y5500D01*
X53000Y5000D02*
X57047D01*
X52500Y5500D02*
X53000Y5000D01*
X18500Y42500D02*
Y50500D01*
X30000Y99047D02*
X30409Y99457D01*
X30000Y99047D02*
Y103000D01*
Y104000D01*
X29953Y92697D02*
Y99000D01*
X30000D02*
Y99047D01*
X43000Y97500D02*
Y105500D01*
X41000Y107500D02*
X43000Y105500D01*
X24047Y92697D02*
Y99000D01*
X62953Y11500D02*
Y17803D01*
Y21047D01*
X61500Y22500D02*
X62953Y21047D01*
X59500Y22500D02*
X61500D01*
X58000Y24000D02*
X59500Y22500D01*
X58000Y24000D02*
Y42500D01*
X38000Y47500D02*
X57201D01*
X57389Y47687D01*
X19500Y81500D02*
X24047Y86047D01*
X59500Y120000D02*
X82500D01*
X84547Y117953D01*
Y105000D02*
Y117953D01*
X65000Y31500D02*
X73000D01*
X74500Y30000D01*
Y24000D02*
X79500Y19000D01*
X74500Y25500D02*
Y30000D01*
Y24000D02*
Y25500D01*
X58000Y42500D02*
X63000Y47500D01*
X129500Y81500D02*
X136000D01*
X57017Y89220D02*
X60819D01*
X56631Y88835D02*
X57017Y89220D01*
X73953Y1047D02*
Y5000D01*
X106000Y67000D02*
Y73968D01*
X6500Y78024D02*
Y93000D01*
X11000Y97500D01*
Y105500D01*
X13047Y86500D02*
Y89453D01*
X12000Y90500D02*
X13047Y89453D01*
X10000Y90500D02*
X12000D01*
D23*
X165800Y85827D02*
X176000Y96027D01*
Y97654D01*
X175800Y85827D02*
X187627Y97654D01*
X197500D01*
X165013Y140059D02*
Y152249D01*
X192500Y134000D02*
X195500D01*
X175500Y117000D02*
X192500Y134000D01*
X158000Y117000D02*
X175500D01*
X150500D02*
X158000D01*
X165119Y139953D02*
X172303D01*
X165013Y140059D02*
X165119Y139953D01*
X197500Y104347D02*
Y112500D01*
Y116500D01*
X146500Y112500D02*
X197500D01*
D24*
X138471Y20813D02*
X151589Y7695D01*
X122500Y20813D02*
X138471D01*
X108923Y7236D02*
X122500Y20813D01*
D25*
X53780Y132018D02*
D03*
Y152018D02*
D03*
D26*
X13780Y142018D02*
D03*
X165918Y152249D02*
D03*
X175918D02*
D03*
X204041Y36216D02*
D03*
X214041D02*
D03*
X165800Y85827D02*
D03*
X175800D02*
D03*
X75000Y126500D02*
D03*
X108345Y7236D02*
D03*
Y17236D02*
D03*
X136000Y59500D02*
D03*
X126000D02*
D03*
X116000D02*
D03*
X106000D02*
D03*
D27*
X3292Y131245D02*
D03*
D28*
X185918Y152249D02*
D03*
X224041Y36216D02*
D03*
X185800Y85827D02*
D03*
X65000Y126500D02*
D03*
X146000Y59500D02*
D03*
D29*
X67389Y37687D02*
D03*
X47389D02*
D03*
X57389Y47687D02*
D03*
D30*
X53000Y31500D02*
D03*
X65000D02*
D03*
X168912Y7695D02*
D03*
D31*
X108345Y-2764D02*
D03*
D32*
X159857Y805D02*
D03*
Y14584D02*
D03*
X151589Y7695D02*
D03*
X108963Y142018D02*
D03*
X76680D02*
D03*
D33*
X176786Y7695D02*
D03*
D34*
X213753Y10193D02*
D03*
D35*
Y-5555D02*
D03*
D36*
X225564Y10193D02*
D03*
D37*
X100696Y142018D02*
D03*
X92822D02*
D03*
X84948D02*
D03*
D38*
X128970Y7602D02*
D03*
D39*
X223000Y128000D02*
D03*
X500Y27000D02*
D03*
D40*
X4239Y100680D02*
D03*
X222743D02*
D03*
D41*
X19685Y107874D02*
D03*
X26772Y119685D02*
D03*
X141732Y88976D02*
D03*
X112598Y89764D02*
D03*
X18898Y156693D02*
D03*
X18110Y-3937D02*
D03*
X60630Y-3150D02*
D03*
X33071Y15748D02*
D03*
X150930Y156131D02*
D03*
X153254Y82061D02*
D03*
X153266Y70794D02*
D03*
X58000Y55000D02*
D03*
X169000Y94500D02*
D03*
X158000Y132500D02*
D03*
X169000Y117000D02*
D03*
X158000D02*
D03*
X54000Y93000D02*
D03*
X51000Y89220D02*
D03*
X68500Y61000D02*
D03*
X36000Y60500D02*
D03*
X22000Y34000D02*
D03*
X146500Y123000D02*
D03*
X150500Y107000D02*
D03*
X57500Y113500D02*
D03*
X79500Y61000D02*
D03*
X136000Y103500D02*
D03*
X77500Y106500D02*
D03*
X88000Y117000D02*
D03*
X135827Y137795D02*
D03*
X116142D02*
D03*
X96457Y98425D02*
D03*
Y59055D02*
D03*
X86614Y39370D02*
D03*
Y0D02*
D03*
X47244Y118110D02*
D03*
X37402Y137795D02*
D03*
X7874Y118110D02*
D03*
Y39370D02*
D03*
X58000Y60000D02*
D03*
X67000Y101000D02*
D03*
X61000Y26000D02*
D03*
X155000Y123000D02*
D03*
X59500Y120000D02*
D03*
X129500Y81500D02*
D03*
X142500Y84000D02*
D03*
X158000Y94000D02*
D03*
X20000Y81500D02*
D03*
X41000Y15500D02*
D03*
X77000Y70000D02*
D03*
X53500Y10000D02*
D03*
X52500Y5500D02*
D03*
X18500Y50500D02*
D03*
X30000Y103000D02*
D03*
X38000Y78000D02*
D03*
X23500Y19500D02*
D03*
X45000Y25500D02*
D03*
X38000Y47500D02*
D03*
X50000Y102500D02*
D03*
X146500Y112500D02*
D03*
X47389Y93389D02*
D03*
X111000Y106000D02*
D03*
X109500Y128000D02*
D03*
X63000Y47500D02*
D03*
X47500Y52000D02*
D03*
X73953Y1047D02*
D03*
X106000Y67000D02*
D03*
X10000Y90500D02*
D03*
M02*
