%FSLAX25Y25*%
%MOIN*%
G70*
G01*
G75*
G04 Layer_Color=32896*
%ADD10R,0.02362X0.03543*%
%ADD11R,0.03543X0.02362*%
%ADD12R,0.03937X0.04331*%
%ADD13R,0.06299X0.13780*%
%ADD14R,0.05000X0.03600*%
%ADD15R,0.03600X0.03600*%
%ADD16R,0.06693X0.01750*%
%ADD17R,0.08661X0.05118*%
%ADD18R,0.06299X0.07874*%
%ADD19O,0.04921X0.01772*%
%ADD20R,0.06102X0.01378*%
%ADD21C,0.01000*%
%ADD22C,0.00800*%
%ADD23C,0.02500*%
%ADD24C,0.02000*%
%ADD25C,0.08000*%
%ADD26C,0.07000*%
%ADD27C,0.10000*%
%ADD28R,0.07000X0.07000*%
%ADD29C,0.04724*%
%ADD30C,0.05906*%
%ADD31R,0.07000X0.07000*%
%ADD32C,0.08661*%
%ADD33C,0.07874*%
G04:AMPARAMS|DCode=34|XSize=118.11mil|YSize=39.37mil|CornerRadius=19.69mil|HoleSize=0mil|Usage=FLASHONLY|Rotation=0.000|XOffset=0mil|YOffset=0mil|HoleType=Round|Shape=RoundedRectangle|*
%AMROUNDEDRECTD34*
21,1,0.11811,0.00000,0,0,0.0*
21,1,0.07874,0.03937,0,0,0.0*
1,1,0.03937,0.03937,0.00000*
1,1,0.03937,-0.03937,0.00000*
1,1,0.03937,-0.03937,0.00000*
1,1,0.03937,0.03937,0.00000*
%
%ADD34ROUNDEDRECTD34*%
%ADD35O,0.15748X0.03937*%
G04:AMPARAMS|DCode=36|XSize=118.11mil|YSize=39.37mil|CornerRadius=19.69mil|HoleSize=0mil|Usage=FLASHONLY|Rotation=90.000|XOffset=0mil|YOffset=0mil|HoleType=Round|Shape=RoundedRectangle|*
%AMROUNDEDRECTD36*
21,1,0.11811,0.00000,0,0,90.0*
21,1,0.07874,0.03937,0,0,90.0*
1,1,0.03937,0.00000,0.03937*
1,1,0.03937,0.00000,-0.03937*
1,1,0.03937,0.00000,-0.03937*
1,1,0.03937,0.00000,0.03937*
%
%ADD36ROUNDEDRECTD36*%
%ADD37C,0.05512*%
%ADD38C,0.17716*%
%ADD39C,0.07874*%
%ADD40C,0.03937*%
%ADD41C,0.03150*%
%ADD42R,0.05118X0.05906*%
%ADD43R,0.05315X0.02953*%
%ADD44C,0.01200*%
%ADD45C,0.00787*%
%ADD46C,0.01500*%
%ADD47C,0.00394*%
%ADD48C,0.00700*%
%ADD49C,0.00591*%
%ADD50R,0.03162X0.04343*%
%ADD51R,0.04343X0.03162*%
%ADD52R,0.04737X0.05131*%
%ADD53R,0.07099X0.14579*%
%ADD54R,0.05800X0.04400*%
%ADD55R,0.04400X0.04400*%
%ADD56R,0.07493X0.02550*%
%ADD57R,0.09461X0.05918*%
%ADD58R,0.07099X0.08674*%
%ADD59O,0.05721X0.02572*%
%ADD60R,0.06902X0.02178*%
%ADD61C,0.08800*%
%ADD62C,0.07800*%
%ADD63C,0.10800*%
%ADD64R,0.07800X0.07800*%
%ADD65C,0.05524*%
%ADD66C,0.06706*%
%ADD67R,0.07800X0.07800*%
%ADD68C,0.09461*%
%ADD69C,0.08674*%
G04:AMPARAMS|DCode=70|XSize=126.11mil|YSize=47.37mil|CornerRadius=23.69mil|HoleSize=0mil|Usage=FLASHONLY|Rotation=0.000|XOffset=0mil|YOffset=0mil|HoleType=Round|Shape=RoundedRectangle|*
%AMROUNDEDRECTD70*
21,1,0.12611,0.00000,0,0,0.0*
21,1,0.07874,0.04737,0,0,0.0*
1,1,0.04737,0.03937,0.00000*
1,1,0.04737,-0.03937,0.00000*
1,1,0.04737,-0.03937,0.00000*
1,1,0.04737,0.03937,0.00000*
%
%ADD70ROUNDEDRECTD70*%
%ADD71O,0.16548X0.04737*%
G04:AMPARAMS|DCode=72|XSize=126.11mil|YSize=47.37mil|CornerRadius=23.69mil|HoleSize=0mil|Usage=FLASHONLY|Rotation=90.000|XOffset=0mil|YOffset=0mil|HoleType=Round|Shape=RoundedRectangle|*
%AMROUNDEDRECTD72*
21,1,0.12611,0.00000,0,0,90.0*
21,1,0.07874,0.04737,0,0,90.0*
1,1,0.04737,0.00000,0.03937*
1,1,0.04737,0.00000,-0.03937*
1,1,0.04737,0.00000,-0.03937*
1,1,0.04737,0.00000,0.03937*
%
%ADD72ROUNDEDRECTD72*%
%ADD73C,0.06312*%
%ADD74C,0.18517*%
%ADD75C,0.13874*%
%ADD76C,0.04737*%
%ADD77R,0.05918X0.06706*%
%ADD78R,0.06115X0.03753*%
%ADD79C,0.00965*%
G36*
X365744Y-12223D02*
X364800D01*
Y-4535D01*
X365744D01*
Y-12223D01*
D02*
G37*
G36*
X409762Y-5268D02*
Y-6646D01*
X410462D01*
Y-7379D01*
X409762D01*
Y-10601D01*
Y-10756D01*
Y-10890D01*
X409751Y-11012D01*
X409740Y-11134D01*
Y-11234D01*
X409729Y-11323D01*
X409707Y-11467D01*
X409684Y-11579D01*
X409673Y-11656D01*
X409651Y-11701D01*
Y-11712D01*
X409607Y-11812D01*
X409540Y-11890D01*
X409473Y-11967D01*
X409418Y-12023D01*
X409351Y-12078D01*
X409307Y-12112D01*
X409273Y-12134D01*
X409262Y-12145D01*
X409140Y-12201D01*
X409018Y-12234D01*
X408884Y-12267D01*
X408751Y-12278D01*
X408640Y-12290D01*
X408551Y-12301D01*
X408462D01*
X408218Y-12290D01*
X408096Y-12278D01*
X407985Y-12256D01*
X407885Y-12245D01*
X407807Y-12234D01*
X407762Y-12223D01*
X407740D01*
X407862Y-11390D01*
X407951Y-11401D01*
X408040Y-11412D01*
X408118D01*
X408173Y-11423D01*
X408285D01*
X408429Y-11412D01*
X408529Y-11390D01*
X408584Y-11367D01*
X408607Y-11356D01*
X408684Y-11301D01*
X408729Y-11245D01*
X408762Y-11201D01*
X408773Y-11179D01*
X408784Y-11123D01*
X408796Y-11045D01*
X408807Y-10867D01*
X408818Y-10790D01*
Y-10723D01*
Y-10678D01*
Y-10656D01*
Y-7379D01*
X407862D01*
Y-6646D01*
X408818D01*
Y-4701D01*
X409762Y-5268D01*
D02*
G37*
G36*
X412751D02*
Y-6646D01*
X413451D01*
Y-7379D01*
X412751D01*
Y-10601D01*
Y-10756D01*
Y-10890D01*
X412740Y-11012D01*
X412729Y-11134D01*
Y-11234D01*
X412717Y-11323D01*
X412695Y-11467D01*
X412673Y-11579D01*
X412662Y-11656D01*
X412640Y-11701D01*
Y-11712D01*
X412595Y-11812D01*
X412529Y-11890D01*
X412462Y-11967D01*
X412406Y-12023D01*
X412340Y-12078D01*
X412295Y-12112D01*
X412262Y-12134D01*
X412251Y-12145D01*
X412129Y-12201D01*
X412006Y-12234D01*
X411873Y-12267D01*
X411740Y-12278D01*
X411629Y-12290D01*
X411540Y-12301D01*
X411451D01*
X411206Y-12290D01*
X411084Y-12278D01*
X410973Y-12256D01*
X410873Y-12245D01*
X410795Y-12234D01*
X410751Y-12223D01*
X410729D01*
X410851Y-11390D01*
X410940Y-11401D01*
X411029Y-11412D01*
X411106D01*
X411162Y-11423D01*
X411273D01*
X411418Y-11412D01*
X411518Y-11390D01*
X411573Y-11367D01*
X411595Y-11356D01*
X411673Y-11301D01*
X411718Y-11245D01*
X411751Y-11201D01*
X411762Y-11179D01*
X411773Y-11123D01*
X411784Y-11045D01*
X411795Y-10867D01*
X411806Y-10790D01*
Y-10723D01*
Y-10678D01*
Y-10656D01*
Y-7379D01*
X410851D01*
Y-6646D01*
X411806D01*
Y-4701D01*
X412751Y-5268D01*
D02*
G37*
G36*
X373210Y-6534D02*
X373410Y-6557D01*
X373599Y-6590D01*
X373777Y-6646D01*
X373943Y-6701D01*
X374099Y-6768D01*
X374243Y-6835D01*
X374366Y-6912D01*
X374488Y-6979D01*
X374588Y-7057D01*
X374677Y-7123D01*
X374743Y-7179D01*
X374799Y-7234D01*
X374843Y-7268D01*
X374866Y-7290D01*
X374877Y-7301D01*
X374999Y-7457D01*
X375110Y-7623D01*
X375210Y-7790D01*
X375299Y-7968D01*
X375366Y-8157D01*
X375421Y-8334D01*
X375510Y-8690D01*
X375543Y-8845D01*
X375566Y-9001D01*
X375577Y-9134D01*
X375588Y-9257D01*
X375599Y-9357D01*
Y-9423D01*
Y-9479D01*
Y-9490D01*
X375588Y-9734D01*
X375566Y-9967D01*
X375532Y-10190D01*
X375488Y-10390D01*
X375432Y-10579D01*
X375377Y-10756D01*
X375310Y-10912D01*
X375243Y-11056D01*
X375177Y-11179D01*
X375110Y-11290D01*
X375055Y-11378D01*
X374999Y-11456D01*
X374955Y-11523D01*
X374921Y-11567D01*
X374899Y-11590D01*
X374888Y-11601D01*
X374743Y-11734D01*
X374599Y-11845D01*
X374444Y-11945D01*
X374277Y-12034D01*
X374121Y-12101D01*
X373955Y-12167D01*
X373644Y-12256D01*
X373499Y-12278D01*
X373366Y-12301D01*
X373244Y-12323D01*
X373144Y-12334D01*
X373066Y-12345D01*
X372944D01*
X372599Y-12323D01*
X372288Y-12267D01*
X372010Y-12201D01*
X371899Y-12156D01*
X371788Y-12112D01*
X371688Y-12067D01*
X371599Y-12023D01*
X371533Y-11989D01*
X371466Y-11956D01*
X371422Y-11923D01*
X371388Y-11901D01*
X371366Y-11878D01*
X371355D01*
X371133Y-11678D01*
X370955Y-11467D01*
X370799Y-11245D01*
X370688Y-11034D01*
X370599Y-10845D01*
X370566Y-10756D01*
X370533Y-10690D01*
X370511Y-10623D01*
X370499Y-10579D01*
X370488Y-10556D01*
Y-10545D01*
X371466Y-10423D01*
X371555Y-10634D01*
X371655Y-10812D01*
X371755Y-10967D01*
X371844Y-11090D01*
X371921Y-11179D01*
X371988Y-11245D01*
X372044Y-11290D01*
X372055Y-11301D01*
X372199Y-11390D01*
X372344Y-11456D01*
X372499Y-11501D01*
X372633Y-11534D01*
X372755Y-11556D01*
X372855Y-11567D01*
X372944D01*
X373077Y-11556D01*
X373199Y-11545D01*
X373421Y-11490D01*
X373621Y-11412D01*
X373799Y-11323D01*
X373932Y-11245D01*
X374032Y-11167D01*
X374099Y-11112D01*
X374110Y-11090D01*
X374121D01*
X374277Y-10890D01*
X374399Y-10667D01*
X374488Y-10423D01*
X374555Y-10201D01*
X374588Y-10001D01*
X374610Y-9912D01*
X374621Y-9834D01*
Y-9768D01*
X374632Y-9723D01*
Y-9690D01*
Y-9679D01*
X370466D01*
X370455Y-9567D01*
Y-9490D01*
Y-9445D01*
Y-9434D01*
X370466Y-9179D01*
X370488Y-8945D01*
X370522Y-8723D01*
X370566Y-8512D01*
X370622Y-8323D01*
X370677Y-8145D01*
X370744Y-7990D01*
X370811Y-7846D01*
X370877Y-7712D01*
X370944Y-7601D01*
X370999Y-7512D01*
X371055Y-7434D01*
X371099Y-7368D01*
X371133Y-7323D01*
X371155Y-7301D01*
X371166Y-7290D01*
X371299Y-7157D01*
X371444Y-7034D01*
X371599Y-6934D01*
X371755Y-6846D01*
X371910Y-6768D01*
X372055Y-6712D01*
X372210Y-6657D01*
X372344Y-6623D01*
X372488Y-6590D01*
X372610Y-6568D01*
X372721Y-6546D01*
X372810Y-6534D01*
X372888Y-6523D01*
X372999D01*
X373210Y-6534D01*
D02*
G37*
G36*
X425972Y-12223D02*
X423039D01*
X422772Y-12212D01*
X422539Y-12201D01*
X422328Y-12178D01*
X422150Y-12156D01*
X422005Y-12134D01*
X421894Y-12123D01*
X421828Y-12101D01*
X421805D01*
X421617Y-12045D01*
X421461Y-11989D01*
X421317Y-11923D01*
X421194Y-11856D01*
X421094Y-11812D01*
X421017Y-11767D01*
X420972Y-11734D01*
X420961Y-11723D01*
X420839Y-11623D01*
X420728Y-11501D01*
X420639Y-11378D01*
X420550Y-11267D01*
X420483Y-11156D01*
X420439Y-11079D01*
X420406Y-11023D01*
X420394Y-11001D01*
X420317Y-10823D01*
X420261Y-10645D01*
X420217Y-10479D01*
X420194Y-10323D01*
X420172Y-10190D01*
X420161Y-10079D01*
Y-10012D01*
Y-10001D01*
Y-9990D01*
X420172Y-9745D01*
X420217Y-9523D01*
X420283Y-9334D01*
X420350Y-9156D01*
X420417Y-9023D01*
X420483Y-8923D01*
X420528Y-8856D01*
X420539Y-8834D01*
X420694Y-8657D01*
X420861Y-8512D01*
X421050Y-8390D01*
X421217Y-8290D01*
X421372Y-8212D01*
X421505Y-8168D01*
X421550Y-8145D01*
X421583Y-8134D01*
X421605Y-8123D01*
X421617D01*
X421428Y-8012D01*
X421261Y-7901D01*
X421128Y-7779D01*
X421017Y-7668D01*
X420928Y-7579D01*
X420861Y-7490D01*
X420828Y-7446D01*
X420817Y-7423D01*
X420728Y-7257D01*
X420661Y-7101D01*
X420606Y-6946D01*
X420572Y-6801D01*
X420550Y-6679D01*
X420539Y-6579D01*
Y-6523D01*
Y-6501D01*
X420550Y-6312D01*
X420583Y-6123D01*
X420639Y-5957D01*
X420694Y-5801D01*
X420750Y-5668D01*
X420806Y-5579D01*
X420839Y-5512D01*
X420850Y-5490D01*
X420972Y-5324D01*
X421105Y-5168D01*
X421250Y-5046D01*
X421383Y-4946D01*
X421494Y-4868D01*
X421594Y-4812D01*
X421661Y-4779D01*
X421672Y-4768D01*
X421683D01*
X421894Y-4690D01*
X422128Y-4635D01*
X422361Y-4590D01*
X422583Y-4568D01*
X422783Y-4546D01*
X422872D01*
X422950Y-4535D01*
X425972D01*
Y-12223D01*
D02*
G37*
G36*
X367377Y-6534D02*
X367489Y-6557D01*
X367600Y-6590D01*
X367689Y-6623D01*
X367755Y-6657D01*
X367822Y-6690D01*
X367855Y-6712D01*
X367866Y-6723D01*
X367966Y-6812D01*
X368066Y-6923D01*
X368166Y-7057D01*
X368255Y-7179D01*
X368344Y-7301D01*
X368400Y-7401D01*
X368444Y-7479D01*
X368455Y-7490D01*
Y-6646D01*
X369311D01*
Y-12223D01*
X368366D01*
Y-9312D01*
X368355Y-9090D01*
X368344Y-8890D01*
X368322Y-8701D01*
X368288Y-8534D01*
X368255Y-8401D01*
X368233Y-8301D01*
X368222Y-8234D01*
X368211Y-8212D01*
X368166Y-8090D01*
X368111Y-7990D01*
X368055Y-7901D01*
X368000Y-7823D01*
X367944Y-7768D01*
X367911Y-7723D01*
X367878Y-7701D01*
X367866Y-7690D01*
X367777Y-7623D01*
X367677Y-7579D01*
X367578Y-7546D01*
X367500Y-7523D01*
X367422Y-7512D01*
X367366Y-7501D01*
X367311D01*
X367189Y-7512D01*
X367066Y-7534D01*
X366944Y-7568D01*
X366844Y-7601D01*
X366755Y-7634D01*
X366689Y-7668D01*
X366644Y-7690D01*
X366633Y-7701D01*
X366289Y-6835D01*
X366478Y-6735D01*
X366655Y-6657D01*
X366811Y-6601D01*
X366955Y-6557D01*
X367078Y-6534D01*
X367178Y-6523D01*
X367255D01*
X367377Y-6534D01*
D02*
G37*
G36*
X416817D02*
X416995Y-6546D01*
X417339Y-6623D01*
X417639Y-6723D01*
X417772Y-6779D01*
X417895Y-6835D01*
X418006Y-6890D01*
X418095Y-6946D01*
X418184Y-7001D01*
X418250Y-7046D01*
X418306Y-7090D01*
X418350Y-7123D01*
X418372Y-7135D01*
X418384Y-7146D01*
X418539Y-7290D01*
X418661Y-7457D01*
X418784Y-7634D01*
X418872Y-7812D01*
X418961Y-8001D01*
X419028Y-8201D01*
X419083Y-8390D01*
X419128Y-8568D01*
X419172Y-8745D01*
X419195Y-8901D01*
X419217Y-9057D01*
X419228Y-9179D01*
Y-9290D01*
X419239Y-9368D01*
Y-9412D01*
Y-9434D01*
X419228Y-9690D01*
X419206Y-9934D01*
X419172Y-10156D01*
X419128Y-10368D01*
X419072Y-10556D01*
X419017Y-10734D01*
X418950Y-10901D01*
X418884Y-11045D01*
X418817Y-11179D01*
X418750Y-11290D01*
X418695Y-11378D01*
X418639Y-11456D01*
X418595Y-11523D01*
X418561Y-11567D01*
X418539Y-11590D01*
X418528Y-11601D01*
X418384Y-11734D01*
X418239Y-11845D01*
X418084Y-11945D01*
X417928Y-12034D01*
X417772Y-12101D01*
X417606Y-12167D01*
X417306Y-12256D01*
X417172Y-12278D01*
X417039Y-12301D01*
X416928Y-12323D01*
X416828Y-12334D01*
X416739Y-12345D01*
X416628D01*
X416362Y-12334D01*
X416117Y-12290D01*
X415884Y-12234D01*
X415695Y-12178D01*
X415528Y-12112D01*
X415462Y-12089D01*
X415406Y-12067D01*
X415350Y-12045D01*
X415317Y-12023D01*
X415306Y-12012D01*
X415295D01*
X415073Y-11867D01*
X414884Y-11712D01*
X414717Y-11556D01*
X414584Y-11401D01*
X414484Y-11267D01*
X414406Y-11156D01*
X414384Y-11112D01*
X414362Y-11079D01*
X414351Y-11067D01*
Y-11056D01*
X414240Y-10801D01*
X414162Y-10523D01*
X414095Y-10245D01*
X414062Y-9967D01*
X414040Y-9845D01*
Y-9734D01*
X414028Y-9623D01*
X414017Y-9534D01*
Y-9456D01*
Y-9401D01*
Y-9368D01*
Y-9357D01*
X414028Y-9112D01*
X414051Y-8890D01*
X414084Y-8679D01*
X414128Y-8479D01*
X414184Y-8290D01*
X414251Y-8123D01*
X414317Y-7957D01*
X414384Y-7823D01*
X414451Y-7701D01*
X414517Y-7590D01*
X414584Y-7490D01*
X414640Y-7412D01*
X414684Y-7357D01*
X414717Y-7312D01*
X414740Y-7290D01*
X414751Y-7279D01*
X414895Y-7146D01*
X415039Y-7034D01*
X415195Y-6923D01*
X415350Y-6846D01*
X415506Y-6768D01*
X415662Y-6712D01*
X415962Y-6612D01*
X416106Y-6590D01*
X416228Y-6568D01*
X416339Y-6546D01*
X416439Y-6534D01*
X416517Y-6523D01*
X416628D01*
X416817Y-6534D01*
D02*
G37*
G36*
X361245D02*
X361478Y-6557D01*
X361700Y-6590D01*
X361878Y-6623D01*
X362034Y-6657D01*
X362145Y-6690D01*
X362189Y-6701D01*
X362223Y-6712D01*
X362234Y-6723D01*
X362245D01*
X362434Y-6801D01*
X362600Y-6901D01*
X362745Y-6990D01*
X362867Y-7079D01*
X362956Y-7168D01*
X363022Y-7234D01*
X363067Y-7279D01*
X363078Y-7290D01*
X363178Y-7434D01*
X363267Y-7590D01*
X363334Y-7745D01*
X363389Y-7890D01*
X363434Y-8034D01*
X363467Y-8134D01*
X363478Y-8179D01*
Y-8212D01*
X363489Y-8223D01*
Y-8234D01*
X362567Y-8357D01*
X362500Y-8157D01*
X362434Y-7979D01*
X362356Y-7834D01*
X362289Y-7723D01*
X362223Y-7634D01*
X362167Y-7579D01*
X362123Y-7546D01*
X362111Y-7534D01*
X361978Y-7457D01*
X361823Y-7401D01*
X361656Y-7357D01*
X361500Y-7334D01*
X361345Y-7312D01*
X361234Y-7301D01*
X361123D01*
X360867Y-7312D01*
X360645Y-7346D01*
X360467Y-7401D01*
X360312Y-7457D01*
X360201Y-7523D01*
X360112Y-7568D01*
X360056Y-7612D01*
X360045Y-7623D01*
X359956Y-7723D01*
X359889Y-7846D01*
X359834Y-7979D01*
X359801Y-8112D01*
X359778Y-8234D01*
X359767Y-8345D01*
Y-8412D01*
Y-8423D01*
Y-8434D01*
Y-8457D01*
Y-8501D01*
Y-8579D01*
X359778Y-8645D01*
Y-8668D01*
Y-8679D01*
X359889Y-8712D01*
X360012Y-8745D01*
X360267Y-8812D01*
X360556Y-8868D01*
X360823Y-8923D01*
X360956Y-8945D01*
X361078Y-8957D01*
X361189Y-8979D01*
X361278Y-8990D01*
X361356Y-9001D01*
X361411D01*
X361456Y-9012D01*
X361467D01*
X361667Y-9034D01*
X361834Y-9068D01*
X361978Y-9090D01*
X362089Y-9112D01*
X362178Y-9123D01*
X362245Y-9145D01*
X362289Y-9156D01*
X362300D01*
X362445Y-9201D01*
X362567Y-9245D01*
X362689Y-9301D01*
X362789Y-9345D01*
X362878Y-9390D01*
X362933Y-9434D01*
X362978Y-9456D01*
X362989Y-9468D01*
X363100Y-9545D01*
X363189Y-9634D01*
X363278Y-9723D01*
X363345Y-9812D01*
X363400Y-9890D01*
X363445Y-9956D01*
X363467Y-10001D01*
X363478Y-10012D01*
X363533Y-10134D01*
X363578Y-10267D01*
X363611Y-10390D01*
X363633Y-10512D01*
X363645Y-10612D01*
X363656Y-10690D01*
Y-10734D01*
Y-10756D01*
X363645Y-10890D01*
X363633Y-11001D01*
X363578Y-11234D01*
X363500Y-11423D01*
X363411Y-11590D01*
X363322Y-11723D01*
X363245Y-11823D01*
X363189Y-11878D01*
X363167Y-11901D01*
X362967Y-12045D01*
X362745Y-12156D01*
X362500Y-12234D01*
X362278Y-12290D01*
X362078Y-12323D01*
X361989Y-12334D01*
X361911D01*
X361845Y-12345D01*
X361756D01*
X361556Y-12334D01*
X361356Y-12312D01*
X361178Y-12290D01*
X361023Y-12256D01*
X360900Y-12223D01*
X360800Y-12190D01*
X360734Y-12178D01*
X360712Y-12167D01*
X360523Y-12089D01*
X360345Y-11989D01*
X360178Y-11878D01*
X360012Y-11778D01*
X359878Y-11678D01*
X359778Y-11601D01*
X359712Y-11545D01*
X359700Y-11523D01*
X359689D01*
X359667Y-11667D01*
X359645Y-11801D01*
X359623Y-11923D01*
X359589Y-12023D01*
X359556Y-12112D01*
X359534Y-12167D01*
X359523Y-12212D01*
X359512Y-12223D01*
X358523D01*
X358578Y-12101D01*
X358634Y-11978D01*
X358678Y-11867D01*
X358701Y-11767D01*
X358734Y-11678D01*
X358745Y-11612D01*
X358756Y-11567D01*
Y-11556D01*
X358767Y-11479D01*
X358778Y-11378D01*
Y-11267D01*
X358789Y-11145D01*
X358801Y-10867D01*
Y-10590D01*
X358812Y-10323D01*
Y-10201D01*
Y-10101D01*
Y-10012D01*
Y-9945D01*
Y-9901D01*
Y-9890D01*
Y-8623D01*
Y-8412D01*
X358823Y-8223D01*
X358834Y-8079D01*
Y-7957D01*
X358845Y-7868D01*
X358856Y-7801D01*
X358867Y-7768D01*
Y-7757D01*
X358901Y-7612D01*
X358945Y-7490D01*
X358990Y-7390D01*
X359045Y-7290D01*
X359089Y-7223D01*
X359123Y-7168D01*
X359145Y-7135D01*
X359156Y-7123D01*
X359245Y-7034D01*
X359345Y-6946D01*
X359456Y-6879D01*
X359567Y-6812D01*
X359667Y-6768D01*
X359745Y-6735D01*
X359801Y-6712D01*
X359823Y-6701D01*
X360000Y-6646D01*
X360189Y-6601D01*
X360378Y-6568D01*
X360567Y-6546D01*
X360734Y-6534D01*
X360856Y-6523D01*
X360978D01*
X361245Y-6534D01*
D02*
G37*
G36*
X385820Y-4412D02*
X386098Y-4446D01*
X386365Y-4501D01*
X386620Y-4568D01*
X386853Y-4657D01*
X387076Y-4746D01*
X387276Y-4846D01*
X387453Y-4946D01*
X387620Y-5046D01*
X387764Y-5146D01*
X387887Y-5235D01*
X387987Y-5324D01*
X388064Y-5390D01*
X388131Y-5446D01*
X388164Y-5479D01*
X388175Y-5490D01*
X388353Y-5701D01*
X388509Y-5923D01*
X388653Y-6168D01*
X388764Y-6412D01*
X388864Y-6668D01*
X388953Y-6912D01*
X389020Y-7157D01*
X389064Y-7390D01*
X389109Y-7612D01*
X389142Y-7823D01*
X389164Y-8012D01*
X389187Y-8168D01*
Y-8301D01*
X389198Y-8401D01*
Y-8468D01*
Y-8479D01*
Y-8490D01*
X389175Y-8868D01*
X389131Y-9212D01*
X389064Y-9545D01*
X389020Y-9690D01*
X388975Y-9834D01*
X388942Y-9956D01*
X388898Y-10068D01*
X388864Y-10167D01*
X388831Y-10256D01*
X388809Y-10323D01*
X388787Y-10368D01*
X388764Y-10401D01*
Y-10412D01*
X388575Y-10734D01*
X388375Y-11012D01*
X388153Y-11256D01*
X387942Y-11456D01*
X387753Y-11623D01*
X387675Y-11690D01*
X387609Y-11734D01*
X387542Y-11778D01*
X387498Y-11812D01*
X387475Y-11823D01*
X387464Y-11834D01*
X387298Y-11923D01*
X387131Y-12001D01*
X386798Y-12134D01*
X386476Y-12223D01*
X386176Y-12290D01*
X386031Y-12312D01*
X385909Y-12323D01*
X385798Y-12345D01*
X385698D01*
X385631Y-12356D01*
X385520D01*
X385154Y-12334D01*
X384809Y-12278D01*
X384487Y-12212D01*
X384343Y-12167D01*
X384209Y-12123D01*
X384087Y-12078D01*
X383976Y-12034D01*
X383887Y-12001D01*
X383809Y-11967D01*
X383742Y-11934D01*
X383687Y-11912D01*
X383665Y-11890D01*
X383654D01*
X383343Y-11690D01*
X383076Y-11467D01*
X382854Y-11234D01*
X382665Y-11012D01*
X382509Y-10801D01*
X382454Y-10723D01*
X382409Y-10645D01*
X382365Y-10579D01*
X382343Y-10534D01*
X382320Y-10501D01*
Y-10490D01*
X382232Y-10312D01*
X382165Y-10134D01*
X382043Y-9779D01*
X381954Y-9423D01*
X381898Y-9101D01*
X381887Y-8957D01*
X381865Y-8823D01*
X381854Y-8701D01*
Y-8601D01*
X381843Y-8512D01*
Y-8457D01*
Y-8412D01*
Y-8401D01*
X381865Y-7979D01*
X381909Y-7590D01*
X381943Y-7412D01*
X381987Y-7234D01*
X382032Y-7079D01*
X382065Y-6934D01*
X382109Y-6801D01*
X382154Y-6679D01*
X382187Y-6579D01*
X382232Y-6490D01*
X382254Y-6423D01*
X382276Y-6379D01*
X382298Y-6346D01*
Y-6335D01*
X382476Y-6012D01*
X382687Y-5723D01*
X382909Y-5479D01*
X383109Y-5279D01*
X383298Y-5124D01*
X383387Y-5057D01*
X383454Y-5001D01*
X383520Y-4968D01*
X383565Y-4935D01*
X383587Y-4924D01*
X383598Y-4913D01*
X383765Y-4824D01*
X383931Y-4746D01*
X384254Y-4612D01*
X384587Y-4524D01*
X384876Y-4468D01*
X385009Y-4446D01*
X385142Y-4424D01*
X385242Y-4412D01*
X385342D01*
X385420Y-4401D01*
X385520D01*
X385820Y-4412D01*
D02*
G37*
G36*
X398630Y-6534D02*
X398819Y-6568D01*
X398986Y-6601D01*
X399130Y-6646D01*
X399252Y-6701D01*
X399341Y-6735D01*
X399396Y-6768D01*
X399419Y-6779D01*
X399574Y-6879D01*
X399708Y-6990D01*
X399830Y-7101D01*
X399930Y-7212D01*
X400008Y-7301D01*
X400074Y-7379D01*
X400108Y-7423D01*
X400119Y-7446D01*
Y-6646D01*
X400963D01*
Y-12223D01*
X400019D01*
Y-9334D01*
X400008Y-9068D01*
X399996Y-8834D01*
X399974Y-8634D01*
X399941Y-8468D01*
X399908Y-8345D01*
X399885Y-8257D01*
X399874Y-8201D01*
X399863Y-8179D01*
X399797Y-8034D01*
X399719Y-7912D01*
X399641Y-7801D01*
X399563Y-7712D01*
X399485Y-7645D01*
X399430Y-7601D01*
X399385Y-7568D01*
X399374Y-7557D01*
X399241Y-7490D01*
X399119Y-7434D01*
X398986Y-7401D01*
X398874Y-7368D01*
X398785Y-7357D01*
X398708Y-7346D01*
X398641D01*
X398452Y-7357D01*
X398297Y-7390D01*
X398163Y-7446D01*
X398063Y-7501D01*
X397986Y-7568D01*
X397930Y-7612D01*
X397897Y-7657D01*
X397886Y-7668D01*
X397808Y-7801D01*
X397752Y-7946D01*
X397708Y-8101D01*
X397686Y-8257D01*
X397663Y-8390D01*
X397652Y-8512D01*
Y-8557D01*
Y-8579D01*
Y-8601D01*
Y-8612D01*
Y-12223D01*
X396708D01*
Y-8990D01*
X396686Y-8690D01*
X396641Y-8434D01*
X396586Y-8223D01*
X396508Y-8045D01*
X396441Y-7912D01*
X396375Y-7823D01*
X396330Y-7768D01*
X396319Y-7745D01*
X396164Y-7612D01*
X395997Y-7512D01*
X395830Y-7446D01*
X395675Y-7390D01*
X395541Y-7368D01*
X395430Y-7357D01*
X395386Y-7346D01*
X395330D01*
X395208Y-7357D01*
X395108Y-7368D01*
X395008Y-7390D01*
X394930Y-7423D01*
X394853Y-7457D01*
X394808Y-7479D01*
X394775Y-7490D01*
X394764Y-7501D01*
X394675Y-7568D01*
X394608Y-7634D01*
X394553Y-7701D01*
X394508Y-7768D01*
X394475Y-7823D01*
X394453Y-7868D01*
X394430Y-7901D01*
Y-7912D01*
X394397Y-8012D01*
X394375Y-8145D01*
X394364Y-8279D01*
X394353Y-8412D01*
X394341Y-8534D01*
Y-8634D01*
Y-8701D01*
Y-8712D01*
Y-8723D01*
Y-12223D01*
X393397D01*
Y-8401D01*
Y-8223D01*
X393419Y-8068D01*
X393442Y-7912D01*
X393464Y-7779D01*
X393497Y-7645D01*
X393542Y-7534D01*
X393575Y-7434D01*
X393619Y-7334D01*
X393664Y-7257D01*
X393697Y-7179D01*
X393775Y-7079D01*
X393819Y-7012D01*
X393842Y-6990D01*
X394019Y-6835D01*
X394230Y-6723D01*
X394442Y-6634D01*
X394641Y-6579D01*
X394830Y-6546D01*
X394908Y-6534D01*
X394986D01*
X395041Y-6523D01*
X395119D01*
X395319Y-6534D01*
X395497Y-6568D01*
X395675Y-6612D01*
X395841Y-6679D01*
X395997Y-6757D01*
X396141Y-6835D01*
X396264Y-6923D01*
X396386Y-7012D01*
X396497Y-7112D01*
X396586Y-7201D01*
X396663Y-7279D01*
X396730Y-7357D01*
X396786Y-7423D01*
X396819Y-7468D01*
X396841Y-7501D01*
X396852Y-7512D01*
X396919Y-7346D01*
X397008Y-7201D01*
X397108Y-7079D01*
X397197Y-6979D01*
X397286Y-6890D01*
X397352Y-6835D01*
X397397Y-6801D01*
X397419Y-6790D01*
X397574Y-6701D01*
X397741Y-6634D01*
X397908Y-6590D01*
X398074Y-6557D01*
X398208Y-6534D01*
X398330Y-6523D01*
X398430D01*
X398630Y-6534D01*
D02*
G37*
G36*
X355790Y-12223D02*
X355834Y-12323D01*
X355856Y-12401D01*
X355879Y-12445D01*
Y-12456D01*
X355945Y-12645D01*
X356012Y-12801D01*
X356056Y-12934D01*
X356101Y-13023D01*
X356123Y-13089D01*
X356145Y-13134D01*
X356168Y-13156D01*
Y-13167D01*
X356256Y-13289D01*
X356356Y-13378D01*
X356401Y-13412D01*
X356434Y-13434D01*
X356456Y-13456D01*
X356468D01*
X356545Y-13489D01*
X356623Y-13523D01*
X356790Y-13556D01*
X356856D01*
X356912Y-13567D01*
X356967D01*
X357145Y-13556D01*
X357323Y-13523D01*
X357390Y-13500D01*
X357445Y-13489D01*
X357490Y-13478D01*
X357501D01*
X357401Y-14356D01*
X357278Y-14400D01*
X357167Y-14423D01*
X357067Y-14445D01*
X356979Y-14467D01*
X356901D01*
X356845Y-14478D01*
X356801D01*
X356634Y-14467D01*
X356490Y-14445D01*
X356356Y-14412D01*
X356245Y-14367D01*
X356145Y-14323D01*
X356079Y-14289D01*
X356034Y-14267D01*
X356023Y-14256D01*
X355901Y-14167D01*
X355801Y-14056D01*
X355701Y-13945D01*
X355612Y-13834D01*
X355545Y-13734D01*
X355490Y-13656D01*
X355456Y-13600D01*
X355445Y-13578D01*
X355412Y-13500D01*
X355368Y-13423D01*
X355279Y-13234D01*
X355190Y-13023D01*
X355112Y-12812D01*
X355034Y-12623D01*
X355001Y-12534D01*
X354968Y-12456D01*
X354945Y-12401D01*
X354923Y-12356D01*
X354912Y-12323D01*
Y-12312D01*
X352790Y-6646D01*
X353734D01*
X354934Y-9901D01*
X355023Y-10134D01*
X355090Y-10356D01*
X355168Y-10579D01*
X355223Y-10767D01*
X355268Y-10934D01*
X355290Y-11001D01*
X355301Y-11056D01*
X355312Y-11101D01*
X355323Y-11134D01*
X355334Y-11156D01*
Y-11167D01*
X355401Y-10912D01*
X355468Y-10678D01*
X355534Y-10456D01*
X355601Y-10267D01*
X355657Y-10112D01*
X355679Y-10045D01*
X355701Y-9990D01*
X355712Y-9934D01*
X355723Y-9901D01*
X355734Y-9890D01*
Y-9879D01*
X356901Y-6646D01*
X357901D01*
X355790Y-12223D01*
D02*
G37*
G36*
X379143D02*
X378243D01*
X376121Y-6646D01*
X377099D01*
X378332Y-10056D01*
X378410Y-10279D01*
X378487Y-10479D01*
X378543Y-10667D01*
X378599Y-10812D01*
X378632Y-10945D01*
X378665Y-11034D01*
X378676Y-11090D01*
X378688Y-11112D01*
X378754Y-10901D01*
X378810Y-10690D01*
X378876Y-10501D01*
X378932Y-10334D01*
X378976Y-10190D01*
X379010Y-10079D01*
X379021Y-10045D01*
X379032Y-10012D01*
X379043Y-10001D01*
Y-9990D01*
X380243Y-6646D01*
X381243D01*
X379143Y-12223D01*
D02*
G37*
G36*
X404863Y-6534D02*
X405040Y-6546D01*
X405385Y-6623D01*
X405685Y-6723D01*
X405818Y-6779D01*
X405940Y-6835D01*
X406051Y-6890D01*
X406140Y-6946D01*
X406229Y-7001D01*
X406296Y-7046D01*
X406351Y-7090D01*
X406396Y-7123D01*
X406418Y-7135D01*
X406429Y-7146D01*
X406585Y-7290D01*
X406707Y-7457D01*
X406829Y-7634D01*
X406918Y-7812D01*
X407007Y-8001D01*
X407073Y-8201D01*
X407129Y-8390D01*
X407173Y-8568D01*
X407218Y-8745D01*
X407240Y-8901D01*
X407262Y-9057D01*
X407273Y-9179D01*
Y-9290D01*
X407285Y-9368D01*
Y-9412D01*
Y-9434D01*
X407273Y-9690D01*
X407251Y-9934D01*
X407218Y-10156D01*
X407173Y-10368D01*
X407118Y-10556D01*
X407062Y-10734D01*
X406996Y-10901D01*
X406929Y-11045D01*
X406862Y-11179D01*
X406796Y-11290D01*
X406740Y-11378D01*
X406685Y-11456D01*
X406640Y-11523D01*
X406607Y-11567D01*
X406585Y-11590D01*
X406574Y-11601D01*
X406429Y-11734D01*
X406285Y-11845D01*
X406129Y-11945D01*
X405974Y-12034D01*
X405818Y-12101D01*
X405652Y-12167D01*
X405351Y-12256D01*
X405218Y-12278D01*
X405085Y-12301D01*
X404974Y-12323D01*
X404874Y-12334D01*
X404785Y-12345D01*
X404674D01*
X404407Y-12334D01*
X404163Y-12290D01*
X403929Y-12234D01*
X403741Y-12178D01*
X403574Y-12112D01*
X403507Y-12089D01*
X403452Y-12067D01*
X403396Y-12045D01*
X403363Y-12023D01*
X403352Y-12012D01*
X403341D01*
X403118Y-11867D01*
X402929Y-11712D01*
X402763Y-11556D01*
X402630Y-11401D01*
X402530Y-11267D01*
X402452Y-11156D01*
X402430Y-11112D01*
X402407Y-11079D01*
X402396Y-11067D01*
Y-11056D01*
X402285Y-10801D01*
X402207Y-10523D01*
X402141Y-10245D01*
X402107Y-9967D01*
X402085Y-9845D01*
Y-9734D01*
X402074Y-9623D01*
X402063Y-9534D01*
Y-9456D01*
Y-9401D01*
Y-9368D01*
Y-9357D01*
X402074Y-9112D01*
X402096Y-8890D01*
X402130Y-8679D01*
X402174Y-8479D01*
X402230Y-8290D01*
X402296Y-8123D01*
X402363Y-7957D01*
X402430Y-7823D01*
X402496Y-7701D01*
X402563Y-7590D01*
X402630Y-7490D01*
X402685Y-7412D01*
X402730Y-7357D01*
X402763Y-7312D01*
X402785Y-7290D01*
X402796Y-7279D01*
X402941Y-7146D01*
X403085Y-7034D01*
X403241Y-6923D01*
X403396Y-6846D01*
X403552Y-6768D01*
X403707Y-6712D01*
X404007Y-6612D01*
X404152Y-6590D01*
X404274Y-6568D01*
X404385Y-6546D01*
X404485Y-6534D01*
X404563Y-6523D01*
X404674D01*
X404863Y-6534D01*
D02*
G37*
%LPC*%
G36*
X359778Y-9423D02*
X359767D01*
X359778Y-9779D01*
X359789Y-10001D01*
X359801Y-10190D01*
X359823Y-10345D01*
X359856Y-10479D01*
X359889Y-10579D01*
X359912Y-10656D01*
X359923Y-10701D01*
X359934Y-10712D01*
X360023Y-10856D01*
X360112Y-10990D01*
X360223Y-11101D01*
X360323Y-11190D01*
X360412Y-11267D01*
X360489Y-11323D01*
X360534Y-11356D01*
X360556Y-11367D01*
X360723Y-11445D01*
X360889Y-11501D01*
X361045Y-11545D01*
X361200Y-11567D01*
X361323Y-11590D01*
X361434Y-11601D01*
X361523D01*
X361722Y-11590D01*
X361889Y-11567D01*
X362034Y-11523D01*
X362156Y-11479D01*
X362245Y-11434D01*
X362311Y-11390D01*
X362356Y-11367D01*
X362367Y-11356D01*
X362456Y-11256D01*
X362522Y-11145D01*
X362578Y-11045D01*
X362611Y-10945D01*
X362634Y-10856D01*
X362645Y-10790D01*
Y-10734D01*
Y-10723D01*
X362634Y-10634D01*
X362622Y-10545D01*
X362600Y-10479D01*
X362578Y-10412D01*
X362556Y-10356D01*
X362545Y-10312D01*
X362522Y-10290D01*
Y-10279D01*
X362411Y-10145D01*
X362278Y-10056D01*
X362234Y-10023D01*
X362189Y-10001D01*
X362156Y-9979D01*
X362145D01*
X362034Y-9934D01*
X361911Y-9901D01*
X361778Y-9867D01*
X361645Y-9845D01*
X361523Y-9823D01*
X361411Y-9801D01*
X361345Y-9790D01*
X361323D01*
X361134Y-9756D01*
X360956Y-9734D01*
X360800Y-9701D01*
X360645Y-9668D01*
X360500Y-9634D01*
X360378Y-9601D01*
X360256Y-9579D01*
X360156Y-9545D01*
X360067Y-9523D01*
X359989Y-9501D01*
X359923Y-9479D01*
X359867Y-9456D01*
X359823Y-9445D01*
X359789Y-9434D01*
X359778Y-9423D01*
D02*
G37*
G36*
X424950Y-8668D02*
X422928D01*
X422694Y-8690D01*
X422505Y-8712D01*
X422350Y-8734D01*
X422228Y-8756D01*
X422128Y-8779D01*
X422083Y-8790D01*
X422061Y-8801D01*
X421916Y-8856D01*
X421794Y-8923D01*
X421683Y-9001D01*
X421594Y-9079D01*
X421528Y-9145D01*
X421483Y-9201D01*
X421450Y-9245D01*
X421439Y-9257D01*
X421361Y-9379D01*
X421306Y-9501D01*
X421261Y-9623D01*
X421239Y-9734D01*
X421217Y-9834D01*
X421206Y-9923D01*
Y-9967D01*
Y-9990D01*
X421217Y-10123D01*
X421228Y-10256D01*
X421250Y-10368D01*
X421283Y-10456D01*
X421317Y-10534D01*
X421339Y-10601D01*
X421350Y-10634D01*
X421361Y-10645D01*
X421428Y-10745D01*
X421483Y-10834D01*
X421561Y-10901D01*
X421617Y-10967D01*
X421672Y-11012D01*
X421716Y-11045D01*
X421750Y-11067D01*
X421761Y-11079D01*
X421950Y-11167D01*
X422139Y-11234D01*
X422217Y-11256D01*
X422283Y-11267D01*
X422328Y-11278D01*
X422339D01*
X422428Y-11290D01*
X422528Y-11301D01*
X422761Y-11312D01*
X424950D01*
Y-8668D01*
D02*
G37*
G36*
X373055Y-7301D02*
X372988D01*
X372855Y-7312D01*
X372732Y-7323D01*
X372499Y-7390D01*
X372299Y-7479D01*
X372133Y-7579D01*
X371999Y-7679D01*
X371899Y-7768D01*
X371844Y-7834D01*
X371821Y-7846D01*
Y-7857D01*
X371722Y-8001D01*
X371633Y-8168D01*
X371577Y-8334D01*
X371521Y-8512D01*
X371488Y-8657D01*
X371466Y-8790D01*
Y-8834D01*
X371455Y-8868D01*
Y-8890D01*
Y-8901D01*
X374577D01*
X374543Y-8645D01*
X374477Y-8412D01*
X374399Y-8212D01*
X374310Y-8057D01*
X374232Y-7923D01*
X374155Y-7823D01*
X374110Y-7768D01*
X374088Y-7745D01*
X373910Y-7601D01*
X373732Y-7490D01*
X373544Y-7412D01*
X373366Y-7357D01*
X373221Y-7323D01*
X373099Y-7312D01*
X373055Y-7301D01*
D02*
G37*
G36*
X424950Y-5446D02*
X423128D01*
X422883Y-5468D01*
X422694Y-5479D01*
X422528Y-5501D01*
X422405Y-5523D01*
X422328Y-5535D01*
X422272Y-5557D01*
X422261D01*
X422139Y-5601D01*
X422028Y-5668D01*
X421939Y-5735D01*
X421861Y-5801D01*
X421805Y-5857D01*
X421761Y-5912D01*
X421739Y-5946D01*
X421728Y-5957D01*
X421661Y-6068D01*
X421617Y-6179D01*
X421583Y-6290D01*
X421561Y-6401D01*
X421550Y-6490D01*
X421539Y-6557D01*
Y-6601D01*
Y-6623D01*
X421550Y-6768D01*
X421572Y-6901D01*
X421605Y-7012D01*
X421639Y-7101D01*
X421672Y-7179D01*
X421705Y-7246D01*
X421728Y-7279D01*
X421739Y-7290D01*
X421816Y-7379D01*
X421916Y-7468D01*
X422016Y-7534D01*
X422105Y-7579D01*
X422194Y-7623D01*
X422261Y-7657D01*
X422305Y-7668D01*
X422328Y-7679D01*
X422450Y-7701D01*
X422605Y-7723D01*
X422761Y-7734D01*
X422916Y-7745D01*
X423061Y-7757D01*
X424950D01*
Y-5446D01*
D02*
G37*
G36*
X404740Y-7301D02*
X404674D01*
X404540Y-7312D01*
X404418Y-7323D01*
X404196Y-7379D01*
X403996Y-7468D01*
X403829Y-7568D01*
X403696Y-7668D01*
X403596Y-7745D01*
X403530Y-7812D01*
X403507Y-7823D01*
Y-7834D01*
X403418Y-7934D01*
X403352Y-8057D01*
X403230Y-8301D01*
X403141Y-8568D01*
X403085Y-8812D01*
X403052Y-9045D01*
X403041Y-9145D01*
Y-9234D01*
X403029Y-9301D01*
Y-9357D01*
Y-9390D01*
Y-9401D01*
Y-9601D01*
X403052Y-9790D01*
X403074Y-9956D01*
X403107Y-10123D01*
X403141Y-10267D01*
X403185Y-10401D01*
X403218Y-10523D01*
X403263Y-10634D01*
X403307Y-10723D01*
X403352Y-10812D01*
X403396Y-10879D01*
X403430Y-10934D01*
X403463Y-10978D01*
X403485Y-11012D01*
X403496Y-11023D01*
X403507Y-11034D01*
X403596Y-11123D01*
X403696Y-11212D01*
X403885Y-11345D01*
X404085Y-11434D01*
X404263Y-11501D01*
X404429Y-11534D01*
X404552Y-11556D01*
X404607Y-11567D01*
X404674D01*
X404807Y-11556D01*
X404929Y-11545D01*
X405163Y-11490D01*
X405363Y-11401D01*
X405529Y-11301D01*
X405663Y-11212D01*
X405763Y-11123D01*
X405829Y-11067D01*
X405840Y-11045D01*
X405852D01*
X405929Y-10934D01*
X406007Y-10823D01*
X406118Y-10567D01*
X406207Y-10301D01*
X406262Y-10034D01*
X406296Y-9801D01*
X406307Y-9701D01*
Y-9612D01*
X406318Y-9534D01*
Y-9479D01*
Y-9445D01*
Y-9434D01*
X406307Y-9245D01*
X406296Y-9057D01*
X406274Y-8890D01*
X406240Y-8734D01*
X406207Y-8590D01*
X406174Y-8457D01*
X406129Y-8345D01*
X406085Y-8234D01*
X406040Y-8145D01*
X405996Y-8057D01*
X405963Y-7990D01*
X405929Y-7934D01*
X405896Y-7890D01*
X405874Y-7857D01*
X405852Y-7846D01*
Y-7834D01*
X405763Y-7745D01*
X405663Y-7657D01*
X405474Y-7523D01*
X405274Y-7434D01*
X405085Y-7368D01*
X404918Y-7323D01*
X404796Y-7312D01*
X404740Y-7301D01*
D02*
G37*
G36*
X416695D02*
X416628D01*
X416495Y-7312D01*
X416373Y-7323D01*
X416150Y-7379D01*
X415950Y-7468D01*
X415784Y-7568D01*
X415651Y-7668D01*
X415551Y-7745D01*
X415484Y-7812D01*
X415462Y-7823D01*
Y-7834D01*
X415373Y-7934D01*
X415306Y-8057D01*
X415184Y-8301D01*
X415095Y-8568D01*
X415039Y-8812D01*
X415006Y-9045D01*
X414995Y-9145D01*
Y-9234D01*
X414984Y-9301D01*
Y-9357D01*
Y-9390D01*
Y-9401D01*
Y-9601D01*
X415006Y-9790D01*
X415028Y-9956D01*
X415062Y-10123D01*
X415095Y-10267D01*
X415139Y-10401D01*
X415173Y-10523D01*
X415217Y-10634D01*
X415262Y-10723D01*
X415306Y-10812D01*
X415350Y-10879D01*
X415384Y-10934D01*
X415417Y-10978D01*
X415439Y-11012D01*
X415450Y-11023D01*
X415462Y-11034D01*
X415551Y-11123D01*
X415651Y-11212D01*
X415839Y-11345D01*
X416039Y-11434D01*
X416217Y-11501D01*
X416384Y-11534D01*
X416506Y-11556D01*
X416562Y-11567D01*
X416628D01*
X416761Y-11556D01*
X416884Y-11545D01*
X417117Y-11490D01*
X417317Y-11401D01*
X417484Y-11301D01*
X417617Y-11212D01*
X417717Y-11123D01*
X417784Y-11067D01*
X417795Y-11045D01*
X417806D01*
X417884Y-10934D01*
X417961Y-10823D01*
X418073Y-10567D01*
X418161Y-10301D01*
X418217Y-10034D01*
X418250Y-9801D01*
X418261Y-9701D01*
Y-9612D01*
X418272Y-9534D01*
Y-9479D01*
Y-9445D01*
Y-9434D01*
X418261Y-9245D01*
X418250Y-9057D01*
X418228Y-8890D01*
X418195Y-8734D01*
X418161Y-8590D01*
X418128Y-8457D01*
X418084Y-8345D01*
X418039Y-8234D01*
X417995Y-8145D01*
X417950Y-8057D01*
X417917Y-7990D01*
X417884Y-7934D01*
X417850Y-7890D01*
X417828Y-7857D01*
X417806Y-7846D01*
Y-7834D01*
X417717Y-7745D01*
X417617Y-7657D01*
X417428Y-7523D01*
X417228Y-7434D01*
X417039Y-7368D01*
X416873Y-7323D01*
X416750Y-7312D01*
X416695Y-7301D01*
D02*
G37*
G36*
X385620Y-5279D02*
X385520D01*
X385242Y-5290D01*
X384976Y-5335D01*
X384742Y-5401D01*
X384542Y-5468D01*
X384376Y-5546D01*
X384309Y-5579D01*
X384254Y-5601D01*
X384198Y-5635D01*
X384165Y-5646D01*
X384154Y-5668D01*
X384142D01*
X383931Y-5824D01*
X383742Y-6001D01*
X383576Y-6179D01*
X383443Y-6357D01*
X383343Y-6512D01*
X383265Y-6646D01*
X383243Y-6690D01*
X383220Y-6723D01*
X383209Y-6746D01*
Y-6757D01*
X383098Y-7023D01*
X383020Y-7312D01*
X382965Y-7579D01*
X382931Y-7834D01*
X382909Y-7957D01*
X382898Y-8057D01*
Y-8157D01*
X382887Y-8234D01*
Y-8301D01*
Y-8345D01*
Y-8379D01*
Y-8390D01*
X382898Y-8657D01*
X382920Y-8912D01*
X382954Y-9156D01*
X382998Y-9379D01*
X383065Y-9579D01*
X383120Y-9768D01*
X383187Y-9945D01*
X383254Y-10101D01*
X383331Y-10234D01*
X383398Y-10356D01*
X383454Y-10456D01*
X383509Y-10534D01*
X383565Y-10601D01*
X383598Y-10656D01*
X383620Y-10678D01*
X383631Y-10690D01*
X383776Y-10834D01*
X383931Y-10956D01*
X384087Y-11056D01*
X384243Y-11156D01*
X384398Y-11234D01*
X384565Y-11290D01*
X384709Y-11345D01*
X384865Y-11390D01*
X384998Y-11423D01*
X385131Y-11445D01*
X385242Y-11467D01*
X385342Y-11479D01*
X385420D01*
X385476Y-11490D01*
X385531D01*
X385742Y-11479D01*
X385942Y-11456D01*
X386120Y-11412D01*
X386298Y-11367D01*
X386465Y-11301D01*
X386620Y-11234D01*
X386765Y-11167D01*
X386898Y-11090D01*
X387009Y-11012D01*
X387109Y-10945D01*
X387198Y-10879D01*
X387276Y-10812D01*
X387331Y-10767D01*
X387375Y-10723D01*
X387398Y-10701D01*
X387409Y-10690D01*
X387542Y-10534D01*
X387653Y-10368D01*
X387753Y-10190D01*
X387842Y-10012D01*
X387909Y-9823D01*
X387976Y-9645D01*
X388064Y-9290D01*
X388087Y-9134D01*
X388109Y-8979D01*
X388131Y-8845D01*
X388142Y-8734D01*
X388153Y-8634D01*
Y-8557D01*
Y-8512D01*
Y-8501D01*
X388142Y-8190D01*
X388120Y-7901D01*
X388087Y-7623D01*
X388031Y-7379D01*
X387976Y-7157D01*
X387909Y-6957D01*
X387831Y-6768D01*
X387764Y-6612D01*
X387687Y-6468D01*
X387620Y-6346D01*
X387553Y-6246D01*
X387498Y-6168D01*
X387442Y-6101D01*
X387409Y-6057D01*
X387387Y-6035D01*
X387375Y-6024D01*
X387231Y-5890D01*
X387076Y-5779D01*
X386920Y-5679D01*
X386753Y-5590D01*
X386598Y-5523D01*
X386442Y-5457D01*
X386153Y-5368D01*
X386020Y-5346D01*
X385898Y-5324D01*
X385798Y-5301D01*
X385698Y-5290D01*
X385620Y-5279D01*
D02*
G37*
%LPD*%
D21*
X180918Y147249D02*
Y157249D01*
X190918Y147249D02*
Y157249D01*
X160918D02*
X190918D01*
X160918Y147249D02*
Y157249D01*
Y147249D02*
X190918D01*
X219041Y31216D02*
Y41216D01*
X229041Y31216D02*
Y41216D01*
X199041D02*
X229041D01*
X199041Y31216D02*
Y41216D01*
Y31216D02*
X229041D01*
X60000Y131500D02*
X80000D01*
Y121500D02*
Y131500D01*
X60000Y121500D02*
X80000D01*
X60000D02*
Y131500D01*
X70000Y121500D02*
Y131500D01*
X65285Y137097D02*
Y146939D01*
X47089Y137097D02*
X65285D01*
X47089Y146939D02*
X65285D01*
X48947Y137097D02*
Y146939D01*
X48924Y137983D02*
Y145983D01*
D45*
X78000Y37500D02*
G03*
X78000Y37500I-21000J0D01*
G01*
X56500Y31500D02*
X61500D01*
D47*
X53150Y45276D02*
X55512Y47638D01*
X53150Y43110D02*
Y47638D01*
X61811D01*
Y38976D02*
Y47638D01*
X53150Y38976D02*
X61811D01*
X53150D02*
Y43110D01*
D48*
X78500Y55999D02*
Y53500D01*
X78000Y53000D01*
X77000D01*
X76501Y53500D01*
Y55999D01*
X75501Y55499D02*
X75001Y55999D01*
X74001D01*
X73502Y55499D01*
Y54999D01*
X74001Y54500D01*
X74501D01*
X74001D01*
X73502Y54000D01*
Y53500D01*
X74001Y53000D01*
X75001D01*
X75501Y53500D01*
X60630Y34646D02*
Y37645D01*
X59130D01*
X58631Y37145D01*
Y36145D01*
X59130Y35645D01*
X60630D01*
X57631Y37645D02*
Y34646D01*
X56131D01*
X55632Y35146D01*
Y37145D01*
X56131Y37645D01*
X57631D01*
X54632Y34646D02*
X53632D01*
X54132D01*
Y37645D01*
X54632Y37145D01*
X45000Y143999D02*
Y141000D01*
X43001D01*
X40002Y143999D02*
X42001D01*
Y141000D01*
X40002D01*
X42001Y142499D02*
X41001D01*
X39002Y143999D02*
Y141000D01*
X37502D01*
X37003Y141500D01*
Y143499D01*
X37502Y143999D01*
X39002D01*
X34004Y141000D02*
X36003D01*
X34004Y142999D01*
Y143499D01*
X34503Y143999D01*
X35503D01*
X36003Y143499D01*
X84001Y128499D02*
X85000D01*
X84500D01*
Y126000D01*
X85000Y125500D01*
X85500D01*
X86000Y126000D01*
X83001Y125500D02*
X82001D01*
X82501D01*
Y128499D01*
X83001Y127999D01*
X50000Y44500D02*
Y47499D01*
X49000Y46499D01*
X48001Y47499D01*
Y44500D01*
X47001Y47499D02*
X46001D01*
X46501D01*
Y44500D01*
X47001D01*
X46001D01*
X42502Y46999D02*
X43002Y47499D01*
X44002D01*
X44502Y46999D01*
Y45000D01*
X44002Y44500D01*
X43002D01*
X42502Y45000D01*
X41503Y44500D02*
X40503D01*
X41003D01*
Y47499D01*
X41503Y46999D01*
X204270Y29062D02*
X205269D01*
X204769D01*
Y26562D01*
X205269Y26063D01*
X205769D01*
X206269Y26562D01*
X203270Y29062D02*
X201271D01*
Y28562D01*
X203270Y26562D01*
Y26063D01*
X196384Y154802D02*
X197384D01*
X196884D01*
Y152303D01*
X197384Y151803D01*
X197883D01*
X198383Y152303D01*
X195384Y154302D02*
X194884Y154802D01*
X193885D01*
X193385Y154302D01*
Y153802D01*
X193885Y153302D01*
X194385D01*
X193885D01*
X193385Y152803D01*
Y152303D01*
X193885Y151803D01*
X194884D01*
X195384Y152303D01*
D79*
X47089Y137097D02*
Y146939D01*
X48924Y145983D02*
X48959Y146018D01*
M02*
