%FSLAX25Y25*%
%MOIN*%
G70*
G01*
G75*
G04 Layer_Color=16711935*
%ADD10R,0.02362X0.03543*%
%ADD11R,0.03543X0.02362*%
%ADD12R,0.03937X0.04331*%
%ADD13R,0.06299X0.13780*%
%ADD14R,0.05000X0.03600*%
%ADD15R,0.03600X0.03600*%
%ADD16R,0.06693X0.01750*%
%ADD17R,0.08661X0.05118*%
%ADD18R,0.06299X0.07874*%
%ADD19O,0.04921X0.01772*%
%ADD20R,0.06102X0.01378*%
%ADD21C,0.01000*%
%ADD22C,0.00800*%
%ADD23C,0.02500*%
%ADD24C,0.02000*%
%ADD25C,0.08000*%
%ADD26C,0.07000*%
%ADD27C,0.10000*%
%ADD28R,0.07000X0.07000*%
%ADD29C,0.04724*%
%ADD30C,0.05906*%
%ADD31R,0.07000X0.07000*%
%ADD32C,0.08661*%
%ADD33C,0.07874*%
G04:AMPARAMS|DCode=34|XSize=118.11mil|YSize=39.37mil|CornerRadius=19.69mil|HoleSize=0mil|Usage=FLASHONLY|Rotation=0.000|XOffset=0mil|YOffset=0mil|HoleType=Round|Shape=RoundedRectangle|*
%AMROUNDEDRECTD34*
21,1,0.11811,0.00000,0,0,0.0*
21,1,0.07874,0.03937,0,0,0.0*
1,1,0.03937,0.03937,0.00000*
1,1,0.03937,-0.03937,0.00000*
1,1,0.03937,-0.03937,0.00000*
1,1,0.03937,0.03937,0.00000*
%
%ADD34ROUNDEDRECTD34*%
%ADD35O,0.15748X0.03937*%
G04:AMPARAMS|DCode=36|XSize=118.11mil|YSize=39.37mil|CornerRadius=19.69mil|HoleSize=0mil|Usage=FLASHONLY|Rotation=90.000|XOffset=0mil|YOffset=0mil|HoleType=Round|Shape=RoundedRectangle|*
%AMROUNDEDRECTD36*
21,1,0.11811,0.00000,0,0,90.0*
21,1,0.07874,0.03937,0,0,90.0*
1,1,0.03937,0.00000,0.03937*
1,1,0.03937,0.00000,-0.03937*
1,1,0.03937,0.00000,-0.03937*
1,1,0.03937,0.00000,0.03937*
%
%ADD36ROUNDEDRECTD36*%
%ADD37C,0.05512*%
%ADD38C,0.17716*%
%ADD39C,0.07874*%
%ADD40C,0.03937*%
%ADD41C,0.03150*%
%ADD42R,0.05118X0.05906*%
%ADD43R,0.05315X0.02953*%
%ADD44C,0.01200*%
%ADD45C,0.00787*%
%ADD46C,0.01500*%
%ADD47C,0.00394*%
%ADD48C,0.00700*%
%ADD49C,0.00591*%
%ADD50R,0.03162X0.04343*%
%ADD51R,0.04343X0.03162*%
%ADD52R,0.04737X0.05131*%
%ADD53R,0.07099X0.14579*%
%ADD54R,0.05800X0.04400*%
%ADD55R,0.04400X0.04400*%
%ADD56R,0.07493X0.02550*%
%ADD57R,0.09461X0.05918*%
%ADD58R,0.07099X0.08674*%
%ADD59O,0.05721X0.02572*%
%ADD60R,0.06902X0.02178*%
%ADD61C,0.08800*%
%ADD62C,0.07800*%
%ADD63C,0.10800*%
%ADD64R,0.07800X0.07800*%
%ADD65C,0.05524*%
%ADD66C,0.06706*%
%ADD67R,0.07800X0.07800*%
%ADD68C,0.09461*%
%ADD69C,0.08674*%
G04:AMPARAMS|DCode=70|XSize=126.11mil|YSize=47.37mil|CornerRadius=23.69mil|HoleSize=0mil|Usage=FLASHONLY|Rotation=0.000|XOffset=0mil|YOffset=0mil|HoleType=Round|Shape=RoundedRectangle|*
%AMROUNDEDRECTD70*
21,1,0.12611,0.00000,0,0,0.0*
21,1,0.07874,0.04737,0,0,0.0*
1,1,0.04737,0.03937,0.00000*
1,1,0.04737,-0.03937,0.00000*
1,1,0.04737,-0.03937,0.00000*
1,1,0.04737,0.03937,0.00000*
%
%ADD70ROUNDEDRECTD70*%
%ADD71O,0.16548X0.04737*%
G04:AMPARAMS|DCode=72|XSize=126.11mil|YSize=47.37mil|CornerRadius=23.69mil|HoleSize=0mil|Usage=FLASHONLY|Rotation=90.000|XOffset=0mil|YOffset=0mil|HoleType=Round|Shape=RoundedRectangle|*
%AMROUNDEDRECTD72*
21,1,0.12611,0.00000,0,0,90.0*
21,1,0.07874,0.04737,0,0,90.0*
1,1,0.04737,0.00000,0.03937*
1,1,0.04737,0.00000,-0.03937*
1,1,0.04737,0.00000,-0.03937*
1,1,0.04737,0.00000,0.03937*
%
%ADD72ROUNDEDRECTD72*%
%ADD73C,0.06312*%
%ADD74C,0.18517*%
%ADD75C,0.13874*%
%ADD76C,0.04737*%
%ADD77R,0.05918X0.06706*%
%ADD78R,0.06115X0.03753*%
%ADD79C,0.00965*%
G36*
X421572Y46832D02*
X420627D01*
Y52843D01*
X420616Y52832D01*
X420561Y52787D01*
X420494Y52721D01*
X420383Y52643D01*
X420261Y52543D01*
X420105Y52432D01*
X419927Y52310D01*
X419727Y52187D01*
X419716D01*
X419705Y52176D01*
X419638Y52132D01*
X419527Y52076D01*
X419394Y52009D01*
X419239Y51932D01*
X419072Y51854D01*
X418905Y51776D01*
X418739Y51710D01*
Y52621D01*
X418750D01*
X418772Y52643D01*
X418816Y52654D01*
X418872Y52687D01*
X418939Y52721D01*
X419016Y52765D01*
X419205Y52876D01*
X419427Y52998D01*
X419650Y53154D01*
X419883Y53332D01*
X420116Y53521D01*
X420127Y53532D01*
X420139Y53543D01*
X420172Y53576D01*
X420216Y53609D01*
X420316Y53720D01*
X420449Y53854D01*
X420583Y54009D01*
X420727Y54187D01*
X420850Y54365D01*
X420961Y54554D01*
X421572D01*
Y46832D01*
D02*
G37*
G36*
X389808Y52521D02*
X389975Y52509D01*
X390164Y52487D01*
X390353Y52454D01*
X390541Y52409D01*
X390719Y52354D01*
X390741Y52343D01*
X390797Y52321D01*
X390875Y52287D01*
X390975Y52243D01*
X391086Y52176D01*
X391197Y52109D01*
X391297Y52021D01*
X391386Y51932D01*
X391397Y51921D01*
X391419Y51887D01*
X391452Y51832D01*
X391497Y51765D01*
X391552Y51665D01*
X391597Y51565D01*
X391641Y51443D01*
X391675Y51298D01*
Y51287D01*
X391686Y51254D01*
X391697Y51187D01*
X391708Y51099D01*
Y50976D01*
X391719Y50832D01*
X391730Y50643D01*
Y50432D01*
Y49165D01*
Y49154D01*
Y49110D01*
Y49043D01*
Y48954D01*
Y48854D01*
Y48732D01*
X391741Y48465D01*
Y48188D01*
X391752Y47910D01*
X391763Y47788D01*
Y47677D01*
X391775Y47577D01*
X391786Y47499D01*
Y47488D01*
X391797Y47443D01*
X391808Y47377D01*
X391841Y47288D01*
X391863Y47188D01*
X391908Y47077D01*
X391964Y46955D01*
X392019Y46832D01*
X391030D01*
X391019Y46843D01*
X391008Y46888D01*
X390986Y46943D01*
X390952Y47032D01*
X390919Y47132D01*
X390897Y47254D01*
X390875Y47388D01*
X390852Y47532D01*
X390841D01*
X390830Y47510D01*
X390764Y47454D01*
X390664Y47377D01*
X390530Y47277D01*
X390364Y47177D01*
X390197Y47066D01*
X390019Y46966D01*
X389830Y46888D01*
X389808Y46877D01*
X389741Y46866D01*
X389641Y46832D01*
X389519Y46799D01*
X389364Y46766D01*
X389186Y46743D01*
X388986Y46721D01*
X388786Y46710D01*
X388697D01*
X388631Y46721D01*
X388553D01*
X388464Y46732D01*
X388264Y46766D01*
X388042Y46821D01*
X387797Y46899D01*
X387575Y47010D01*
X387375Y47155D01*
X387353Y47177D01*
X387297Y47232D01*
X387220Y47332D01*
X387131Y47466D01*
X387042Y47632D01*
X386964Y47821D01*
X386908Y48054D01*
X386897Y48166D01*
X386886Y48299D01*
Y48321D01*
Y48366D01*
X386897Y48443D01*
X386908Y48543D01*
X386931Y48665D01*
X386964Y48788D01*
X387008Y48921D01*
X387064Y49043D01*
X387075Y49054D01*
X387097Y49099D01*
X387142Y49165D01*
X387197Y49243D01*
X387264Y49332D01*
X387353Y49421D01*
X387442Y49510D01*
X387553Y49588D01*
X387564Y49599D01*
X387608Y49621D01*
X387664Y49665D01*
X387753Y49710D01*
X387853Y49754D01*
X387975Y49810D01*
X388097Y49854D01*
X388242Y49899D01*
X388253D01*
X388297Y49910D01*
X388364Y49932D01*
X388453Y49943D01*
X388564Y49965D01*
X388708Y49988D01*
X388875Y50021D01*
X389075Y50043D01*
X389086D01*
X389130Y50054D01*
X389186D01*
X389264Y50065D01*
X389353Y50076D01*
X389464Y50099D01*
X389586Y50110D01*
X389719Y50132D01*
X389986Y50187D01*
X390275Y50243D01*
X390530Y50310D01*
X390652Y50343D01*
X390764Y50376D01*
Y50388D01*
Y50410D01*
X390775Y50476D01*
Y50554D01*
Y50599D01*
Y50621D01*
Y50632D01*
Y50643D01*
Y50710D01*
X390764Y50821D01*
X390741Y50943D01*
X390708Y51076D01*
X390652Y51210D01*
X390586Y51332D01*
X390497Y51432D01*
X390486Y51443D01*
X390430Y51487D01*
X390341Y51532D01*
X390230Y51599D01*
X390075Y51654D01*
X389897Y51710D01*
X389675Y51743D01*
X389419Y51754D01*
X389308D01*
X389197Y51743D01*
X389042Y51721D01*
X388886Y51698D01*
X388719Y51654D01*
X388564Y51599D01*
X388431Y51521D01*
X388419Y51510D01*
X388375Y51476D01*
X388319Y51421D01*
X388253Y51332D01*
X388186Y51221D01*
X388108Y51076D01*
X388042Y50898D01*
X387975Y50699D01*
X387053Y50821D01*
Y50832D01*
X387064Y50843D01*
Y50876D01*
X387075Y50921D01*
X387108Y51021D01*
X387153Y51165D01*
X387208Y51310D01*
X387275Y51465D01*
X387364Y51621D01*
X387464Y51765D01*
X387475Y51776D01*
X387520Y51821D01*
X387586Y51887D01*
X387675Y51976D01*
X387797Y52065D01*
X387942Y52154D01*
X388108Y52254D01*
X388297Y52332D01*
X388308D01*
X388319Y52343D01*
X388353Y52354D01*
X388397Y52365D01*
X388508Y52398D01*
X388664Y52432D01*
X388842Y52465D01*
X389064Y52498D01*
X389297Y52521D01*
X389564Y52532D01*
X389686D01*
X389808Y52521D01*
D02*
G37*
G36*
X382176Y51765D02*
X382187Y51776D01*
X382209Y51798D01*
X382242Y51832D01*
X382298Y51887D01*
X382353Y51943D01*
X382431Y52009D01*
X382531Y52076D01*
X382631Y52154D01*
X382742Y52221D01*
X382864Y52287D01*
X383153Y52409D01*
X383309Y52465D01*
X383475Y52498D01*
X383653Y52521D01*
X383831Y52532D01*
X383931D01*
X384053Y52521D01*
X384198Y52498D01*
X384364Y52476D01*
X384542Y52432D01*
X384720Y52365D01*
X384897Y52287D01*
X384920Y52276D01*
X384975Y52243D01*
X385053Y52187D01*
X385153Y52109D01*
X385253Y52009D01*
X385364Y51898D01*
X385464Y51765D01*
X385553Y51610D01*
X385564Y51587D01*
X385586Y51532D01*
X385620Y51432D01*
X385653Y51287D01*
X385686Y51110D01*
X385720Y50898D01*
X385742Y50643D01*
X385753Y50354D01*
Y46832D01*
X384809D01*
Y50365D01*
Y50376D01*
Y50399D01*
Y50432D01*
Y50476D01*
X384798Y50599D01*
X384775Y50754D01*
X384731Y50921D01*
X384675Y51087D01*
X384598Y51254D01*
X384498Y51387D01*
X384487Y51398D01*
X384442Y51443D01*
X384375Y51499D01*
X384275Y51554D01*
X384153Y51621D01*
X384009Y51665D01*
X383831Y51710D01*
X383631Y51721D01*
X383564D01*
X383487Y51710D01*
X383376Y51698D01*
X383264Y51665D01*
X383131Y51632D01*
X382998Y51576D01*
X382853Y51499D01*
X382842Y51487D01*
X382798Y51454D01*
X382731Y51410D01*
X382653Y51343D01*
X382564Y51254D01*
X382476Y51154D01*
X382398Y51032D01*
X382331Y50898D01*
X382320Y50876D01*
X382309Y50832D01*
X382287Y50743D01*
X382253Y50632D01*
X382220Y50488D01*
X382198Y50310D01*
X382187Y50110D01*
X382176Y49876D01*
Y46832D01*
X381231D01*
Y54520D01*
X382176D01*
Y51765D01*
D02*
G37*
G36*
X400107Y46832D02*
X399163D01*
Y52409D01*
X400107D01*
Y46832D01*
D02*
G37*
G36*
X409528Y52521D02*
X409695Y52509D01*
X409884Y52487D01*
X410073Y52454D01*
X410262Y52409D01*
X410439Y52354D01*
X410462Y52343D01*
X410517Y52321D01*
X410595Y52287D01*
X410695Y52243D01*
X410806Y52176D01*
X410917Y52109D01*
X411017Y52021D01*
X411106Y51932D01*
X411117Y51921D01*
X411139Y51887D01*
X411173Y51832D01*
X411217Y51765D01*
X411273Y51665D01*
X411317Y51565D01*
X411362Y51443D01*
X411395Y51298D01*
Y51287D01*
X411406Y51254D01*
X411417Y51187D01*
X411428Y51099D01*
Y50976D01*
X411439Y50832D01*
X411450Y50643D01*
Y50432D01*
Y49165D01*
Y49154D01*
Y49110D01*
Y49043D01*
Y48954D01*
Y48854D01*
Y48732D01*
X411461Y48465D01*
Y48188D01*
X411473Y47910D01*
X411484Y47788D01*
Y47677D01*
X411495Y47577D01*
X411506Y47499D01*
Y47488D01*
X411517Y47443D01*
X411528Y47377D01*
X411561Y47288D01*
X411584Y47188D01*
X411628Y47077D01*
X411684Y46955D01*
X411739Y46832D01*
X410750D01*
X410739Y46843D01*
X410728Y46888D01*
X410706Y46943D01*
X410673Y47032D01*
X410639Y47132D01*
X410617Y47254D01*
X410595Y47388D01*
X410573Y47532D01*
X410562D01*
X410550Y47510D01*
X410484Y47454D01*
X410384Y47377D01*
X410251Y47277D01*
X410084Y47177D01*
X409917Y47066D01*
X409739Y46966D01*
X409551Y46888D01*
X409528Y46877D01*
X409462Y46866D01*
X409362Y46832D01*
X409239Y46799D01*
X409084Y46766D01*
X408906Y46743D01*
X408706Y46721D01*
X408506Y46710D01*
X408417D01*
X408351Y46721D01*
X408273D01*
X408184Y46732D01*
X407984Y46766D01*
X407762Y46821D01*
X407517Y46899D01*
X407295Y47010D01*
X407095Y47155D01*
X407073Y47177D01*
X407018Y47232D01*
X406940Y47332D01*
X406851Y47466D01*
X406762Y47632D01*
X406684Y47821D01*
X406629Y48054D01*
X406618Y48166D01*
X406606Y48299D01*
Y48321D01*
Y48366D01*
X406618Y48443D01*
X406629Y48543D01*
X406651Y48665D01*
X406684Y48788D01*
X406729Y48921D01*
X406784Y49043D01*
X406795Y49054D01*
X406818Y49099D01*
X406862Y49165D01*
X406917Y49243D01*
X406984Y49332D01*
X407073Y49421D01*
X407162Y49510D01*
X407273Y49588D01*
X407284Y49599D01*
X407329Y49621D01*
X407384Y49665D01*
X407473Y49710D01*
X407573Y49754D01*
X407695Y49810D01*
X407818Y49854D01*
X407962Y49899D01*
X407973D01*
X408017Y49910D01*
X408084Y49932D01*
X408173Y49943D01*
X408284Y49965D01*
X408428Y49988D01*
X408595Y50021D01*
X408795Y50043D01*
X408806D01*
X408851Y50054D01*
X408906D01*
X408984Y50065D01*
X409073Y50076D01*
X409184Y50099D01*
X409306Y50110D01*
X409440Y50132D01*
X409706Y50187D01*
X409995Y50243D01*
X410251Y50310D01*
X410373Y50343D01*
X410484Y50376D01*
Y50388D01*
Y50410D01*
X410495Y50476D01*
Y50554D01*
Y50599D01*
Y50621D01*
Y50632D01*
Y50643D01*
Y50710D01*
X410484Y50821D01*
X410462Y50943D01*
X410428Y51076D01*
X410373Y51210D01*
X410306Y51332D01*
X410217Y51432D01*
X410206Y51443D01*
X410151Y51487D01*
X410062Y51532D01*
X409951Y51599D01*
X409795Y51654D01*
X409617Y51710D01*
X409395Y51743D01*
X409140Y51754D01*
X409028D01*
X408917Y51743D01*
X408762Y51721D01*
X408606Y51698D01*
X408440Y51654D01*
X408284Y51599D01*
X408151Y51521D01*
X408140Y51510D01*
X408095Y51476D01*
X408040Y51421D01*
X407973Y51332D01*
X407906Y51221D01*
X407829Y51076D01*
X407762Y50898D01*
X407695Y50699D01*
X406773Y50821D01*
Y50832D01*
X406784Y50843D01*
Y50876D01*
X406795Y50921D01*
X406829Y51021D01*
X406873Y51165D01*
X406929Y51310D01*
X406995Y51465D01*
X407084Y51621D01*
X407184Y51765D01*
X407195Y51776D01*
X407240Y51821D01*
X407306Y51887D01*
X407395Y51976D01*
X407517Y52065D01*
X407662Y52154D01*
X407829Y52254D01*
X408017Y52332D01*
X408029D01*
X408040Y52343D01*
X408073Y52354D01*
X408117Y52365D01*
X408228Y52398D01*
X408384Y52432D01*
X408562Y52465D01*
X408784Y52498D01*
X409017Y52521D01*
X409284Y52532D01*
X409406D01*
X409528Y52521D01*
D02*
G37*
G36*
X413828Y46832D02*
X412884D01*
Y54520D01*
X413828D01*
Y46832D01*
D02*
G37*
G36*
X403962Y52521D02*
X404029D01*
X404118Y52509D01*
X404329Y52476D01*
X404562Y52421D01*
X404807Y52332D01*
X405051Y52221D01*
X405284Y52065D01*
X405296D01*
X405307Y52043D01*
X405373Y51976D01*
X405473Y51876D01*
X405595Y51732D01*
X405718Y51554D01*
X405840Y51332D01*
X405951Y51076D01*
X406029Y50776D01*
X405107Y50632D01*
Y50643D01*
X405095Y50654D01*
X405084Y50721D01*
X405051Y50821D01*
X404995Y50943D01*
X404940Y51076D01*
X404851Y51221D01*
X404751Y51354D01*
X404640Y51465D01*
X404629Y51476D01*
X404585Y51510D01*
X404507Y51554D01*
X404418Y51610D01*
X404296Y51665D01*
X404162Y51710D01*
X404007Y51743D01*
X403840Y51754D01*
X403773D01*
X403718Y51743D01*
X403596Y51732D01*
X403429Y51687D01*
X403251Y51632D01*
X403051Y51543D01*
X402862Y51410D01*
X402774Y51332D01*
X402685Y51243D01*
Y51232D01*
X402662Y51221D01*
X402640Y51187D01*
X402618Y51143D01*
X402585Y51087D01*
X402540Y51021D01*
X402507Y50943D01*
X402462Y50854D01*
X402418Y50743D01*
X402385Y50621D01*
X402340Y50488D01*
X402307Y50343D01*
X402285Y50187D01*
X402262Y50010D01*
X402240Y49821D01*
Y49621D01*
Y49610D01*
Y49576D01*
Y49510D01*
X402251Y49443D01*
Y49343D01*
X402262Y49243D01*
X402296Y48999D01*
X402340Y48732D01*
X402418Y48454D01*
X402518Y48210D01*
X402585Y48088D01*
X402662Y47988D01*
X402685Y47965D01*
X402740Y47910D01*
X402840Y47832D01*
X402962Y47743D01*
X403129Y47643D01*
X403318Y47565D01*
X403540Y47510D01*
X403662Y47499D01*
X403785Y47488D01*
X403807D01*
X403873Y47499D01*
X403984Y47510D01*
X404107Y47532D01*
X404251Y47565D01*
X404407Y47632D01*
X404562Y47710D01*
X404707Y47821D01*
X404729Y47832D01*
X404762Y47888D01*
X404829Y47965D01*
X404907Y48088D01*
X404984Y48232D01*
X405073Y48410D01*
X405140Y48632D01*
X405184Y48877D01*
X406118Y48754D01*
Y48743D01*
X406107Y48710D01*
X406095Y48665D01*
X406084Y48599D01*
X406062Y48510D01*
X406040Y48421D01*
X405962Y48199D01*
X405862Y47965D01*
X405718Y47710D01*
X405540Y47466D01*
X405440Y47355D01*
X405329Y47243D01*
X405318Y47232D01*
X405296Y47221D01*
X405262Y47199D01*
X405218Y47166D01*
X405162Y47121D01*
X405084Y47077D01*
X404995Y47032D01*
X404907Y46977D01*
X404684Y46877D01*
X404418Y46799D01*
X404129Y46732D01*
X403962Y46721D01*
X403796Y46710D01*
X403685D01*
X403607Y46721D01*
X403507Y46732D01*
X403396Y46755D01*
X403273Y46777D01*
X403140Y46799D01*
X402840Y46888D01*
X402696Y46955D01*
X402540Y47021D01*
X402385Y47110D01*
X402240Y47210D01*
X402096Y47321D01*
X401963Y47454D01*
X401951Y47466D01*
X401929Y47488D01*
X401896Y47532D01*
X401851Y47588D01*
X401807Y47666D01*
X401740Y47765D01*
X401685Y47877D01*
X401618Y47999D01*
X401551Y48143D01*
X401496Y48310D01*
X401429Y48477D01*
X401385Y48676D01*
X401340Y48877D01*
X401307Y49110D01*
X401285Y49343D01*
X401274Y49599D01*
Y49610D01*
Y49643D01*
Y49687D01*
Y49754D01*
X401285Y49832D01*
Y49921D01*
X401296Y50021D01*
X401307Y50132D01*
X401340Y50376D01*
X401396Y50643D01*
X401463Y50910D01*
X401562Y51176D01*
Y51187D01*
X401574Y51210D01*
X401596Y51243D01*
X401618Y51287D01*
X401685Y51410D01*
X401785Y51554D01*
X401918Y51721D01*
X402074Y51887D01*
X402262Y52054D01*
X402473Y52187D01*
X402485D01*
X402507Y52198D01*
X402540Y52221D01*
X402585Y52243D01*
X402640Y52265D01*
X402707Y52298D01*
X402874Y52365D01*
X403062Y52421D01*
X403296Y52476D01*
X403540Y52521D01*
X403807Y52532D01*
X403896D01*
X403962Y52521D01*
D02*
G37*
G36*
X395974D02*
X396096Y52509D01*
X396241Y52487D01*
X396396Y52454D01*
X396563Y52409D01*
X396719Y52343D01*
X396741Y52332D01*
X396785Y52310D01*
X396863Y52276D01*
X396952Y52221D01*
X397063Y52154D01*
X397163Y52065D01*
X397263Y51976D01*
X397352Y51865D01*
X397363Y51854D01*
X397385Y51810D01*
X397418Y51754D01*
X397474Y51676D01*
X397518Y51565D01*
X397563Y51454D01*
X397619Y51321D01*
X397652Y51176D01*
Y51165D01*
X397663Y51121D01*
X397674Y51054D01*
X397685Y50965D01*
Y50832D01*
X397696Y50676D01*
X397707Y50488D01*
Y50254D01*
Y46832D01*
X396763D01*
Y50210D01*
Y50221D01*
Y50232D01*
Y50310D01*
Y50410D01*
X396752Y50532D01*
X396741Y50676D01*
X396719Y50821D01*
X396685Y50954D01*
X396652Y51076D01*
Y51087D01*
X396630Y51121D01*
X396596Y51176D01*
X396563Y51243D01*
X396508Y51310D01*
X396441Y51387D01*
X396352Y51465D01*
X396252Y51532D01*
X396241Y51543D01*
X396207Y51565D01*
X396141Y51587D01*
X396063Y51621D01*
X395974Y51654D01*
X395863Y51687D01*
X395730Y51698D01*
X395597Y51710D01*
X395541D01*
X395497Y51698D01*
X395385Y51687D01*
X395241Y51665D01*
X395085Y51610D01*
X394908Y51543D01*
X394730Y51454D01*
X394563Y51321D01*
X394541Y51298D01*
X394497Y51243D01*
X394463Y51199D01*
X394430Y51143D01*
X394386Y51076D01*
X394352Y50999D01*
X394308Y50910D01*
X394263Y50799D01*
X394230Y50676D01*
X394197Y50543D01*
X394174Y50399D01*
X394152Y50243D01*
X394130Y50054D01*
Y49865D01*
Y46832D01*
X393186D01*
Y52409D01*
X394030D01*
Y51610D01*
X394041Y51621D01*
X394063Y51654D01*
X394097Y51698D01*
X394141Y51754D01*
X394208Y51821D01*
X394285Y51898D01*
X394374Y51987D01*
X394485Y52076D01*
X394597Y52154D01*
X394730Y52243D01*
X394874Y52321D01*
X395030Y52387D01*
X395208Y52443D01*
X395385Y52487D01*
X395585Y52521D01*
X395796Y52532D01*
X395885D01*
X395974Y52521D01*
D02*
G37*
G36*
X400107Y53443D02*
X399163D01*
Y54520D01*
X400107D01*
Y53443D01*
D02*
G37*
G36*
X368344Y46832D02*
X367366D01*
Y53265D01*
X365122Y46832D01*
X364211D01*
X361989Y53376D01*
Y46832D01*
X361011D01*
Y54520D01*
X362533D01*
X364355Y49065D01*
Y49054D01*
X364366Y49032D01*
X364377Y48999D01*
X364400Y48943D01*
X364444Y48810D01*
X364500Y48643D01*
X364555Y48454D01*
X364622Y48265D01*
X364677Y48088D01*
X364722Y47932D01*
X364733Y47954D01*
X364744Y48010D01*
X364777Y48110D01*
X364822Y48243D01*
X364877Y48421D01*
X364955Y48632D01*
X365033Y48877D01*
X365133Y49165D01*
X366977Y54520D01*
X368344D01*
Y46832D01*
D02*
G37*
G36*
X372343Y52521D02*
X372432Y52509D01*
X372543Y52487D01*
X372665Y52465D01*
X372810Y52432D01*
X372943Y52398D01*
X373099Y52343D01*
X373243Y52287D01*
X373399Y52210D01*
X373554Y52121D01*
X373710Y52021D01*
X373854Y51898D01*
X373988Y51765D01*
X373999Y51754D01*
X374021Y51732D01*
X374054Y51687D01*
X374099Y51621D01*
X374154Y51543D01*
X374210Y51454D01*
X374276Y51343D01*
X374343Y51210D01*
X374410Y51065D01*
X374476Y50910D01*
X374532Y50732D01*
X374587Y50543D01*
X374632Y50332D01*
X374665Y50110D01*
X374687Y49876D01*
X374698Y49621D01*
Y49610D01*
Y49565D01*
Y49488D01*
X374687Y49376D01*
X370521D01*
Y49365D01*
Y49332D01*
X370532Y49288D01*
Y49221D01*
X370543Y49143D01*
X370566Y49054D01*
X370599Y48854D01*
X370666Y48632D01*
X370755Y48388D01*
X370877Y48166D01*
X371032Y47965D01*
X371043D01*
X371055Y47943D01*
X371121Y47888D01*
X371221Y47810D01*
X371354Y47732D01*
X371532Y47643D01*
X371732Y47565D01*
X371954Y47510D01*
X372077Y47499D01*
X372210Y47488D01*
X372299D01*
X372399Y47499D01*
X372521Y47521D01*
X372654Y47554D01*
X372810Y47599D01*
X372954Y47666D01*
X373099Y47754D01*
X373110Y47765D01*
X373165Y47810D01*
X373232Y47877D01*
X373310Y47965D01*
X373399Y48088D01*
X373499Y48243D01*
X373599Y48421D01*
X373688Y48632D01*
X374665Y48510D01*
Y48499D01*
X374654Y48477D01*
X374643Y48432D01*
X374621Y48366D01*
X374587Y48299D01*
X374554Y48210D01*
X374465Y48021D01*
X374354Y47810D01*
X374199Y47588D01*
X374021Y47377D01*
X373799Y47177D01*
X373787D01*
X373765Y47155D01*
X373732Y47132D01*
X373688Y47099D01*
X373621Y47066D01*
X373554Y47032D01*
X373465Y46988D01*
X373365Y46943D01*
X373254Y46899D01*
X373143Y46854D01*
X372865Y46788D01*
X372554Y46732D01*
X372210Y46710D01*
X372088D01*
X372010Y46721D01*
X371910Y46732D01*
X371788Y46755D01*
X371654Y46777D01*
X371510Y46799D01*
X371199Y46888D01*
X371032Y46955D01*
X370877Y47021D01*
X370710Y47110D01*
X370554Y47210D01*
X370410Y47321D01*
X370266Y47454D01*
X370255Y47466D01*
X370232Y47488D01*
X370199Y47532D01*
X370155Y47599D01*
X370099Y47677D01*
X370043Y47765D01*
X369977Y47877D01*
X369910Y47999D01*
X369844Y48143D01*
X369777Y48299D01*
X369721Y48477D01*
X369666Y48665D01*
X369621Y48865D01*
X369588Y49088D01*
X369566Y49321D01*
X369555Y49565D01*
Y49576D01*
Y49632D01*
Y49699D01*
X369566Y49799D01*
X369577Y49921D01*
X369588Y50054D01*
X369610Y50210D01*
X369643Y50365D01*
X369732Y50721D01*
X369788Y50898D01*
X369855Y51087D01*
X369943Y51265D01*
X370043Y51432D01*
X370155Y51599D01*
X370277Y51754D01*
X370288Y51765D01*
X370310Y51787D01*
X370355Y51821D01*
X370410Y51876D01*
X370477Y51932D01*
X370566Y51998D01*
X370666Y52076D01*
X370788Y52143D01*
X370910Y52221D01*
X371055Y52287D01*
X371210Y52354D01*
X371377Y52409D01*
X371554Y52465D01*
X371743Y52498D01*
X371943Y52521D01*
X372154Y52532D01*
X372266D01*
X372343Y52521D01*
D02*
G37*
G36*
X378265D02*
X378331D01*
X378420Y52509D01*
X378631Y52476D01*
X378865Y52421D01*
X379109Y52332D01*
X379354Y52221D01*
X379587Y52065D01*
X379598D01*
X379609Y52043D01*
X379676Y51976D01*
X379776Y51876D01*
X379898Y51732D01*
X380020Y51554D01*
X380142Y51332D01*
X380254Y51076D01*
X380331Y50776D01*
X379409Y50632D01*
Y50643D01*
X379398Y50654D01*
X379387Y50721D01*
X379354Y50821D01*
X379298Y50943D01*
X379242Y51076D01*
X379154Y51221D01*
X379054Y51354D01*
X378943Y51465D01*
X378931Y51476D01*
X378887Y51510D01*
X378809Y51554D01*
X378720Y51610D01*
X378598Y51665D01*
X378465Y51710D01*
X378309Y51743D01*
X378143Y51754D01*
X378076D01*
X378020Y51743D01*
X377898Y51732D01*
X377732Y51687D01*
X377554Y51632D01*
X377354Y51543D01*
X377165Y51410D01*
X377076Y51332D01*
X376987Y51243D01*
Y51232D01*
X376965Y51221D01*
X376943Y51187D01*
X376921Y51143D01*
X376887Y51087D01*
X376843Y51021D01*
X376810Y50943D01*
X376765Y50854D01*
X376721Y50743D01*
X376687Y50621D01*
X376643Y50488D01*
X376609Y50343D01*
X376587Y50187D01*
X376565Y50010D01*
X376543Y49821D01*
Y49621D01*
Y49610D01*
Y49576D01*
Y49510D01*
X376554Y49443D01*
Y49343D01*
X376565Y49243D01*
X376598Y48999D01*
X376643Y48732D01*
X376721Y48454D01*
X376821Y48210D01*
X376887Y48088D01*
X376965Y47988D01*
X376987Y47965D01*
X377043Y47910D01*
X377143Y47832D01*
X377265Y47743D01*
X377432Y47643D01*
X377621Y47565D01*
X377843Y47510D01*
X377965Y47499D01*
X378087Y47488D01*
X378109D01*
X378176Y47499D01*
X378287Y47510D01*
X378409Y47532D01*
X378554Y47565D01*
X378709Y47632D01*
X378865Y47710D01*
X379009Y47821D01*
X379031Y47832D01*
X379065Y47888D01*
X379131Y47965D01*
X379209Y48088D01*
X379287Y48232D01*
X379376Y48410D01*
X379443Y48632D01*
X379487Y48877D01*
X380420Y48754D01*
Y48743D01*
X380409Y48710D01*
X380398Y48665D01*
X380387Y48599D01*
X380365Y48510D01*
X380342Y48421D01*
X380265Y48199D01*
X380165Y47965D01*
X380020Y47710D01*
X379842Y47466D01*
X379743Y47355D01*
X379631Y47243D01*
X379620Y47232D01*
X379598Y47221D01*
X379565Y47199D01*
X379520Y47166D01*
X379465Y47121D01*
X379387Y47077D01*
X379298Y47032D01*
X379209Y46977D01*
X378987Y46877D01*
X378720Y46799D01*
X378432Y46732D01*
X378265Y46721D01*
X378098Y46710D01*
X377987D01*
X377909Y46721D01*
X377809Y46732D01*
X377698Y46755D01*
X377576Y46777D01*
X377443Y46799D01*
X377143Y46888D01*
X376998Y46955D01*
X376843Y47021D01*
X376687Y47110D01*
X376543Y47210D01*
X376398Y47321D01*
X376265Y47454D01*
X376254Y47466D01*
X376232Y47488D01*
X376198Y47532D01*
X376154Y47588D01*
X376110Y47666D01*
X376043Y47765D01*
X375987Y47877D01*
X375921Y47999D01*
X375854Y48143D01*
X375798Y48310D01*
X375732Y48477D01*
X375687Y48676D01*
X375643Y48877D01*
X375610Y49110D01*
X375587Y49343D01*
X375576Y49599D01*
Y49610D01*
Y49643D01*
Y49687D01*
Y49754D01*
X375587Y49832D01*
Y49921D01*
X375599Y50021D01*
X375610Y50132D01*
X375643Y50376D01*
X375698Y50643D01*
X375765Y50910D01*
X375865Y51176D01*
Y51187D01*
X375876Y51210D01*
X375898Y51243D01*
X375921Y51287D01*
X375987Y51410D01*
X376087Y51554D01*
X376221Y51721D01*
X376376Y51887D01*
X376565Y52054D01*
X376776Y52187D01*
X376787D01*
X376810Y52198D01*
X376843Y52221D01*
X376887Y52243D01*
X376943Y52265D01*
X377009Y52298D01*
X377176Y52365D01*
X377365Y52421D01*
X377598Y52476D01*
X377843Y52521D01*
X378109Y52532D01*
X378198D01*
X378265Y52521D01*
D02*
G37*
%LPC*%
G36*
X372165Y51754D02*
X372099D01*
X372054Y51743D01*
X371932Y51732D01*
X371788Y51698D01*
X371610Y51643D01*
X371421Y51565D01*
X371243Y51454D01*
X371066Y51310D01*
X371043Y51287D01*
X370999Y51232D01*
X370921Y51132D01*
X370843Y50999D01*
X370755Y50843D01*
X370677Y50643D01*
X370610Y50410D01*
X370577Y50154D01*
X373699D01*
Y50165D01*
Y50187D01*
X373688Y50221D01*
Y50265D01*
X373665Y50399D01*
X373632Y50543D01*
X373576Y50721D01*
X373521Y50887D01*
X373432Y51054D01*
X373332Y51199D01*
Y51210D01*
X373310Y51221D01*
X373254Y51287D01*
X373154Y51376D01*
X373021Y51476D01*
X372854Y51576D01*
X372654Y51665D01*
X372421Y51732D01*
X372299Y51743D01*
X372165Y51754D01*
D02*
G37*
G36*
X410495Y49632D02*
X410484D01*
X410473Y49621D01*
X410439Y49610D01*
X410395Y49599D01*
X410339Y49576D01*
X410273Y49554D01*
X410195Y49532D01*
X410106Y49510D01*
X410006Y49477D01*
X409884Y49454D01*
X409762Y49421D01*
X409617Y49388D01*
X409462Y49354D01*
X409306Y49321D01*
X409128Y49299D01*
X408940Y49265D01*
X408917D01*
X408851Y49254D01*
X408740Y49232D01*
X408617Y49210D01*
X408484Y49188D01*
X408351Y49154D01*
X408228Y49121D01*
X408117Y49077D01*
X408106D01*
X408073Y49054D01*
X408029Y49032D01*
X407984Y48999D01*
X407851Y48910D01*
X407740Y48777D01*
Y48765D01*
X407718Y48743D01*
X407706Y48699D01*
X407684Y48643D01*
X407662Y48577D01*
X407640Y48510D01*
X407629Y48421D01*
X407618Y48332D01*
Y48321D01*
Y48265D01*
X407629Y48199D01*
X407651Y48110D01*
X407684Y48010D01*
X407740Y47910D01*
X407806Y47799D01*
X407895Y47699D01*
X407906Y47688D01*
X407951Y47666D01*
X408017Y47621D01*
X408106Y47577D01*
X408228Y47532D01*
X408373Y47488D01*
X408540Y47466D01*
X408740Y47454D01*
X408828D01*
X408940Y47466D01*
X409062Y47488D01*
X409217Y47510D01*
X409373Y47554D01*
X409540Y47610D01*
X409706Y47688D01*
X409728Y47699D01*
X409773Y47732D01*
X409851Y47788D01*
X409939Y47866D01*
X410040Y47954D01*
X410151Y48066D01*
X410239Y48199D01*
X410328Y48343D01*
X410339Y48354D01*
X410351Y48399D01*
X410373Y48477D01*
X410406Y48577D01*
X410439Y48710D01*
X410462Y48865D01*
X410473Y49054D01*
X410484Y49277D01*
X410495Y49632D01*
D02*
G37*
G36*
X390775D02*
X390764D01*
X390753Y49621D01*
X390719Y49610D01*
X390675Y49599D01*
X390619Y49576D01*
X390552Y49554D01*
X390475Y49532D01*
X390386Y49510D01*
X390286Y49477D01*
X390164Y49454D01*
X390041Y49421D01*
X389897Y49388D01*
X389741Y49354D01*
X389586Y49321D01*
X389408Y49299D01*
X389219Y49265D01*
X389197D01*
X389130Y49254D01*
X389019Y49232D01*
X388897Y49210D01*
X388764Y49188D01*
X388631Y49154D01*
X388508Y49121D01*
X388397Y49077D01*
X388386D01*
X388353Y49054D01*
X388308Y49032D01*
X388264Y48999D01*
X388130Y48910D01*
X388019Y48777D01*
Y48765D01*
X387997Y48743D01*
X387986Y48699D01*
X387964Y48643D01*
X387942Y48577D01*
X387919Y48510D01*
X387908Y48421D01*
X387897Y48332D01*
Y48321D01*
Y48265D01*
X387908Y48199D01*
X387931Y48110D01*
X387964Y48010D01*
X388019Y47910D01*
X388086Y47799D01*
X388175Y47699D01*
X388186Y47688D01*
X388230Y47666D01*
X388297Y47621D01*
X388386Y47577D01*
X388508Y47532D01*
X388653Y47488D01*
X388819Y47466D01*
X389019Y47454D01*
X389108D01*
X389219Y47466D01*
X389341Y47488D01*
X389497Y47510D01*
X389653Y47554D01*
X389819Y47610D01*
X389986Y47688D01*
X390008Y47699D01*
X390053Y47732D01*
X390130Y47788D01*
X390219Y47866D01*
X390319Y47954D01*
X390430Y48066D01*
X390519Y48199D01*
X390608Y48343D01*
X390619Y48354D01*
X390630Y48399D01*
X390652Y48477D01*
X390686Y48577D01*
X390719Y48710D01*
X390741Y48865D01*
X390753Y49054D01*
X390764Y49277D01*
X390775Y49632D01*
D02*
G37*
%LPD*%
D47*
X272Y140036D02*
G03*
X14052Y153815I0J13780D01*
G01*
X212871D02*
G03*
X226650Y140036I13780J0D01*
G01*
Y73107D02*
G03*
X212871Y59327I0J-13780D01*
G01*
X124288Y51453D02*
G03*
X92792Y19957I0J-31496D01*
G01*
X13780Y0D02*
G03*
X0Y13780I-13780J0D01*
G01*
X207087Y42870D02*
X215208D01*
X197513D02*
X203150D01*
X207087Y51453D02*
X212871D01*
X193186D02*
X203150D01*
X207087Y42870D02*
Y51453D01*
X203150Y42870D02*
Y51453D01*
X100471Y9414D02*
Y22984D01*
Y-8512D02*
Y5058D01*
X193186Y68187D02*
Y68209D01*
Y68187D02*
Y75590D01*
X158146D02*
X193186D01*
X215208Y42870D02*
X230570D01*
X139841Y22984D02*
X143778D01*
X177978Y161689D02*
X212871D01*
X14082Y161703D02*
X177978D01*
X212871Y153815D02*
Y161689D01*
X226650Y140036D02*
X234524D01*
Y73107D02*
Y140036D01*
X226650Y73107D02*
X234524D01*
X212871Y51453D02*
Y59327D01*
X13780Y-8586D02*
Y0D01*
X-8586Y13780D02*
X0D01*
X-8586D02*
Y140036D01*
X272D01*
X14082Y153829D02*
Y161703D01*
X13809Y-8573D02*
X92822D01*
X143778Y22984D02*
X181102D01*
X100471Y-8512D02*
X181102D01*
X100471Y22984D02*
X104408D01*
X139841D01*
X158146Y51476D02*
Y75590D01*
X193186Y51476D02*
Y68209D01*
X197513Y22934D02*
Y42870D01*
X230570Y22934D02*
Y42870D01*
Y-8437D02*
Y55D01*
Y22934D01*
X197638Y-8437D02*
X230570D01*
X124311Y51476D02*
X158146D01*
X92808Y5058D02*
X100471D01*
X92808Y-8573D02*
Y5058D01*
X181102Y8889D02*
Y22984D01*
Y-8512D02*
Y8889D01*
X197513Y-8437D02*
Y22934D01*
X92792Y9436D02*
Y19957D01*
X92798Y9414D02*
X100471D01*
M02*
