%FSLAX25Y25*%
%MOIN*%
G70*
G01*
G75*
%ADD10R,0.02362X0.03543*%
%ADD11R,0.03543X0.02362*%
%ADD12R,0.03937X0.04331*%
%ADD13R,0.06299X0.13780*%
%ADD14R,0.05000X0.03600*%
%ADD15R,0.03600X0.03600*%
%ADD16R,0.06693X0.01750*%
%ADD17R,0.08661X0.05118*%
%ADD18R,0.06299X0.07874*%
%ADD19O,0.04921X0.01772*%
%ADD20R,0.06102X0.01378*%
%ADD21C,0.01000*%
%ADD22C,0.00800*%
%ADD23C,0.02500*%
%ADD24C,0.02000*%
%ADD25C,0.08000*%
%ADD26C,0.07000*%
%ADD27C,0.10000*%
%ADD28R,0.07000X0.07000*%
%ADD29C,0.04724*%
%ADD30C,0.05906*%
%ADD31R,0.07000X0.07000*%
%ADD32C,0.08661*%
%ADD33C,0.07874*%
G04:AMPARAMS|DCode=34|XSize=118.11mil|YSize=39.37mil|CornerRadius=19.69mil|HoleSize=0mil|Usage=FLASHONLY|Rotation=0.000|XOffset=0mil|YOffset=0mil|HoleType=Round|Shape=RoundedRectangle|*
%AMROUNDEDRECTD34*
21,1,0.11811,0.00000,0,0,0.0*
21,1,0.07874,0.03937,0,0,0.0*
1,1,0.03937,0.03937,0.00000*
1,1,0.03937,-0.03937,0.00000*
1,1,0.03937,-0.03937,0.00000*
1,1,0.03937,0.03937,0.00000*
%
%ADD34ROUNDEDRECTD34*%
%ADD35O,0.15748X0.03937*%
G04:AMPARAMS|DCode=36|XSize=118.11mil|YSize=39.37mil|CornerRadius=19.69mil|HoleSize=0mil|Usage=FLASHONLY|Rotation=90.000|XOffset=0mil|YOffset=0mil|HoleType=Round|Shape=RoundedRectangle|*
%AMROUNDEDRECTD36*
21,1,0.11811,0.00000,0,0,90.0*
21,1,0.07874,0.03937,0,0,90.0*
1,1,0.03937,0.00000,0.03937*
1,1,0.03937,0.00000,-0.03937*
1,1,0.03937,0.00000,-0.03937*
1,1,0.03937,0.00000,0.03937*
%
%ADD36ROUNDEDRECTD36*%
%ADD37C,0.05512*%
%ADD38C,0.17716*%
%ADD39C,0.07874*%
%ADD40C,0.03937*%
%ADD41C,0.03150*%
%ADD42R,0.05118X0.05906*%
%ADD43R,0.05315X0.02953*%
D10*
X123819Y112598D02*
D03*
X129724D02*
D03*
X123819Y118110D02*
D03*
X129724D02*
D03*
X24606Y107677D02*
D03*
X30512D02*
D03*
X105953Y128000D02*
D03*
X100047D02*
D03*
X98547Y115000D02*
D03*
X104453D02*
D03*
X98547Y104803D02*
D03*
X104453D02*
D03*
X90453Y105000D02*
D03*
X84547D02*
D03*
X77000Y87000D02*
D03*
X71095D02*
D03*
Y93303D02*
D03*
X77000D02*
D03*
X71095Y80500D02*
D03*
X77000D02*
D03*
X71095Y74000D02*
D03*
X77000D02*
D03*
X62953Y11500D02*
D03*
X57047D02*
D03*
X62953Y5000D02*
D03*
X57047D02*
D03*
X39567Y-1575D02*
D03*
X45472D02*
D03*
X68047Y5000D02*
D03*
X73953D02*
D03*
X80453Y26000D02*
D03*
X74547D02*
D03*
X57047Y17803D02*
D03*
X62953D02*
D03*
X39047Y20303D02*
D03*
X44953D02*
D03*
X28453Y14000D02*
D03*
X22547D02*
D03*
Y7500D02*
D03*
X28453D02*
D03*
X22547Y803D02*
D03*
X28453D02*
D03*
X53453Y56197D02*
D03*
X47547D02*
D03*
X24047Y86500D02*
D03*
X29953D02*
D03*
X24094Y79803D02*
D03*
X30000D02*
D03*
X24094Y73606D02*
D03*
X30000D02*
D03*
Y67500D02*
D03*
X24094D02*
D03*
X30000Y61303D02*
D03*
X24094D02*
D03*
X29953Y55000D02*
D03*
X24047D02*
D03*
X13047Y86500D02*
D03*
X18953D02*
D03*
X29953Y92697D02*
D03*
X24047D02*
D03*
Y99000D02*
D03*
X29953D02*
D03*
X30512Y113386D02*
D03*
X24606D02*
D03*
X52453Y107197D02*
D03*
X46547D02*
D03*
Y114000D02*
D03*
X52453D02*
D03*
X113047Y128000D02*
D03*
X118953D02*
D03*
X113047Y121500D02*
D03*
X118953D02*
D03*
D11*
X162000Y104453D02*
D03*
Y98547D02*
D03*
X168697D02*
D03*
Y104453D02*
D03*
X172500Y128953D02*
D03*
Y123047D02*
D03*
X172303Y139953D02*
D03*
Y134047D02*
D03*
X161803Y117453D02*
D03*
Y111547D02*
D03*
X95803Y80453D02*
D03*
Y74547D02*
D03*
X95697Y87547D02*
D03*
Y93453D02*
D03*
D12*
X176000Y97654D02*
D03*
Y104347D02*
D03*
X197500Y97654D02*
D03*
Y104347D02*
D03*
X179000Y140347D02*
D03*
Y133653D02*
D03*
X165013Y139847D02*
D03*
Y133153D02*
D03*
D13*
X197500Y117476D02*
D03*
Y139524D02*
D03*
X6500Y78024D02*
D03*
Y55976D02*
D03*
D14*
X84000Y126300D02*
D03*
D15*
X92000Y130000D02*
D03*
Y122500D02*
D03*
D16*
X106000Y89323D02*
D03*
Y97000D02*
D03*
Y91882D02*
D03*
Y86764D02*
D03*
Y84205D02*
D03*
Y81646D02*
D03*
Y79087D02*
D03*
Y76528D02*
D03*
Y73968D02*
D03*
X135921Y97000D02*
D03*
Y94441D02*
D03*
Y91882D02*
D03*
Y89323D02*
D03*
Y86764D02*
D03*
Y84205D02*
D03*
Y81646D02*
D03*
Y79087D02*
D03*
Y76528D02*
D03*
Y73968D02*
D03*
X106000Y94441D02*
D03*
D17*
X86500Y75700D02*
D03*
Y92300D02*
D03*
D18*
X82012Y15500D02*
D03*
X70988D02*
D03*
X16488Y27000D02*
D03*
X27512D02*
D03*
X16488Y42000D02*
D03*
X27512D02*
D03*
X44988Y67500D02*
D03*
X56012D02*
D03*
D19*
X36980Y12339D02*
D03*
Y9780D02*
D03*
Y7220D02*
D03*
Y4661D02*
D03*
X47020Y12339D02*
D03*
Y9780D02*
D03*
Y7220D02*
D03*
Y4661D02*
D03*
D20*
X60819Y81543D02*
D03*
Y84102D02*
D03*
Y86661D02*
D03*
Y89220D02*
D03*
Y91780D02*
D03*
Y94339D02*
D03*
Y96898D02*
D03*
Y99457D02*
D03*
X38181Y81543D02*
D03*
Y84102D02*
D03*
Y86661D02*
D03*
Y89220D02*
D03*
Y91780D02*
D03*
Y94339D02*
D03*
Y96898D02*
D03*
Y99457D02*
D03*
D25*
X53780Y132018D02*
D03*
Y152018D02*
D03*
D26*
X13780Y142018D02*
D03*
X165918Y152249D02*
D03*
X175918D02*
D03*
X204041Y36216D02*
D03*
X214041D02*
D03*
X165800Y85827D02*
D03*
X175800D02*
D03*
X75000Y126500D02*
D03*
X108345Y7236D02*
D03*
Y17236D02*
D03*
X136000Y59500D02*
D03*
X126000D02*
D03*
X116000D02*
D03*
X106000D02*
D03*
D27*
X3292Y131245D02*
D03*
D28*
X185918Y152249D02*
D03*
X224041Y36216D02*
D03*
X185800Y85827D02*
D03*
X65000Y126500D02*
D03*
X146000Y59500D02*
D03*
D29*
X67389Y37687D02*
D03*
X47389D02*
D03*
X57389Y47687D02*
D03*
D30*
X53000Y31500D02*
D03*
X65000D02*
D03*
X168912Y7695D02*
D03*
D31*
X108345Y-2764D02*
D03*
D32*
X159857Y805D02*
D03*
Y14584D02*
D03*
X151589Y7695D02*
D03*
X108963Y142018D02*
D03*
X76680D02*
D03*
D33*
X176786Y7695D02*
D03*
D34*
X213753Y10193D02*
D03*
D35*
Y-5555D02*
D03*
D36*
X225564Y10193D02*
D03*
D37*
X100696Y142018D02*
D03*
X92822D02*
D03*
X84948D02*
D03*
D38*
X128970Y7602D02*
D03*
D39*
X223000Y128000D02*
D03*
X500Y27000D02*
D03*
D40*
X4239Y100680D02*
D03*
X222743D02*
D03*
M02*
