%FSLAX25Y25*%
%MOIN*%
G70*
G01*
G75*
G04 Layer_Color=16711935*
%ADD10R,0.02362X0.03543*%
%ADD11R,0.03543X0.02362*%
%ADD12R,0.03937X0.04331*%
%ADD13R,0.06299X0.13780*%
%ADD14R,0.05000X0.03600*%
%ADD15R,0.03600X0.03600*%
%ADD16R,0.06693X0.01750*%
%ADD17R,0.08661X0.05118*%
%ADD18R,0.06299X0.07874*%
%ADD19O,0.04921X0.01772*%
%ADD20R,0.06102X0.01378*%
%ADD21C,0.01000*%
%ADD22C,0.00800*%
%ADD23C,0.02500*%
%ADD24C,0.02000*%
%ADD25C,0.08000*%
%ADD26C,0.07000*%
%ADD27C,0.10000*%
%ADD28R,0.07000X0.07000*%
%ADD29C,0.04724*%
%ADD30C,0.05906*%
%ADD31R,0.07000X0.07000*%
%ADD32C,0.08661*%
%ADD33C,0.07874*%
G04:AMPARAMS|DCode=34|XSize=118.11mil|YSize=39.37mil|CornerRadius=19.69mil|HoleSize=0mil|Usage=FLASHONLY|Rotation=0.000|XOffset=0mil|YOffset=0mil|HoleType=Round|Shape=RoundedRectangle|*
%AMROUNDEDRECTD34*
21,1,0.11811,0.00000,0,0,0.0*
21,1,0.07874,0.03937,0,0,0.0*
1,1,0.03937,0.03937,0.00000*
1,1,0.03937,-0.03937,0.00000*
1,1,0.03937,-0.03937,0.00000*
1,1,0.03937,0.03937,0.00000*
%
%ADD34ROUNDEDRECTD34*%
%ADD35O,0.15748X0.03937*%
G04:AMPARAMS|DCode=36|XSize=118.11mil|YSize=39.37mil|CornerRadius=19.69mil|HoleSize=0mil|Usage=FLASHONLY|Rotation=90.000|XOffset=0mil|YOffset=0mil|HoleType=Round|Shape=RoundedRectangle|*
%AMROUNDEDRECTD36*
21,1,0.11811,0.00000,0,0,90.0*
21,1,0.07874,0.03937,0,0,90.0*
1,1,0.03937,0.00000,0.03937*
1,1,0.03937,0.00000,-0.03937*
1,1,0.03937,0.00000,-0.03937*
1,1,0.03937,0.00000,0.03937*
%
%ADD36ROUNDEDRECTD36*%
%ADD37C,0.05512*%
%ADD38C,0.17716*%
%ADD39C,0.07874*%
%ADD40C,0.03937*%
%ADD41C,0.03150*%
%ADD42R,0.05118X0.05906*%
%ADD43R,0.05315X0.02953*%
%ADD44C,0.01200*%
%ADD45C,0.00787*%
%ADD46C,0.01500*%
%ADD47C,0.00394*%
%ADD48C,0.00700*%
%ADD49C,0.00591*%
%ADD50R,0.03162X0.04343*%
%ADD51R,0.04343X0.03162*%
%ADD52R,0.04737X0.05131*%
%ADD53R,0.07099X0.14579*%
%ADD54R,0.05800X0.04400*%
%ADD55R,0.04400X0.04400*%
%ADD56R,0.07493X0.02550*%
%ADD57R,0.09461X0.05918*%
%ADD58R,0.07099X0.08674*%
%ADD59O,0.05721X0.02572*%
%ADD60R,0.06902X0.02178*%
%ADD61C,0.08800*%
%ADD62C,0.07800*%
%ADD63C,0.10800*%
%ADD64R,0.07800X0.07800*%
%ADD65C,0.05524*%
%ADD66C,0.06706*%
%ADD67R,0.07800X0.07800*%
%ADD68C,0.09461*%
%ADD69C,0.08674*%
G04:AMPARAMS|DCode=70|XSize=126.11mil|YSize=47.37mil|CornerRadius=23.69mil|HoleSize=0mil|Usage=FLASHONLY|Rotation=0.000|XOffset=0mil|YOffset=0mil|HoleType=Round|Shape=RoundedRectangle|*
%AMROUNDEDRECTD70*
21,1,0.12611,0.00000,0,0,0.0*
21,1,0.07874,0.04737,0,0,0.0*
1,1,0.04737,0.03937,0.00000*
1,1,0.04737,-0.03937,0.00000*
1,1,0.04737,-0.03937,0.00000*
1,1,0.04737,0.03937,0.00000*
%
%ADD70ROUNDEDRECTD70*%
%ADD71O,0.16548X0.04737*%
G04:AMPARAMS|DCode=72|XSize=126.11mil|YSize=47.37mil|CornerRadius=23.69mil|HoleSize=0mil|Usage=FLASHONLY|Rotation=90.000|XOffset=0mil|YOffset=0mil|HoleType=Round|Shape=RoundedRectangle|*
%AMROUNDEDRECTD72*
21,1,0.12611,0.00000,0,0,90.0*
21,1,0.07874,0.04737,0,0,90.0*
1,1,0.04737,0.00000,0.03937*
1,1,0.04737,0.00000,-0.03937*
1,1,0.04737,0.00000,-0.03937*
1,1,0.04737,0.00000,0.03937*
%
%ADD72ROUNDEDRECTD72*%
%ADD73C,0.06312*%
%ADD74C,0.18517*%
%ADD75C,0.13874*%
%ADD76C,0.04737*%
%ADD77R,0.05918X0.06706*%
%ADD78R,0.06115X0.03753*%
%ADD79C,0.00965*%
G36*
X599994Y47743D02*
X603782D01*
Y46832D01*
X598971D01*
Y54520D01*
X599994D01*
Y47743D01*
D02*
G37*
G36*
X594016Y52409D02*
X594972D01*
Y51676D01*
X594016D01*
Y48399D01*
Y48377D01*
Y48332D01*
Y48265D01*
X594028Y48188D01*
X594039Y48010D01*
X594050Y47932D01*
X594061Y47877D01*
X594072Y47854D01*
X594105Y47810D01*
X594150Y47754D01*
X594227Y47699D01*
X594250Y47688D01*
X594305Y47666D01*
X594405Y47643D01*
X594550Y47632D01*
X594661D01*
X594716Y47643D01*
X594794D01*
X594883Y47654D01*
X594972Y47666D01*
X595094Y46832D01*
X595072D01*
X595027Y46821D01*
X594950Y46810D01*
X594850Y46799D01*
X594738Y46777D01*
X594616Y46766D01*
X594372Y46755D01*
X594283D01*
X594194Y46766D01*
X594083Y46777D01*
X593950Y46788D01*
X593816Y46821D01*
X593694Y46854D01*
X593572Y46910D01*
X593561Y46921D01*
X593528Y46943D01*
X593483Y46977D01*
X593416Y47032D01*
X593361Y47088D01*
X593294Y47166D01*
X593227Y47243D01*
X593183Y47343D01*
Y47355D01*
X593161Y47399D01*
X593150Y47477D01*
X593127Y47588D01*
X593105Y47732D01*
X593094Y47821D01*
Y47921D01*
X593083Y48043D01*
X593072Y48166D01*
Y48299D01*
Y48454D01*
Y51676D01*
X592372D01*
Y52409D01*
X593072D01*
Y53787D01*
X594016Y54354D01*
Y52409D01*
D02*
G37*
G36*
X591439Y46832D02*
X590594D01*
Y47643D01*
X590583Y47632D01*
X590561Y47599D01*
X590528Y47554D01*
X590472Y47499D01*
X590406Y47432D01*
X590328Y47343D01*
X590239Y47266D01*
X590128Y47177D01*
X590006Y47088D01*
X589872Y47010D01*
X589728Y46932D01*
X589572Y46854D01*
X589395Y46799D01*
X589217Y46755D01*
X589017Y46721D01*
X588817Y46710D01*
X588739D01*
X588639Y46721D01*
X588517Y46732D01*
X588373Y46755D01*
X588217Y46788D01*
X588061Y46832D01*
X587895Y46899D01*
X587873Y46910D01*
X587828Y46932D01*
X587750Y46977D01*
X587661Y47032D01*
X587550Y47099D01*
X587450Y47177D01*
X587350Y47266D01*
X587261Y47366D01*
X587250Y47377D01*
X587228Y47421D01*
X587195Y47477D01*
X587150Y47565D01*
X587095Y47666D01*
X587050Y47788D01*
X587006Y47921D01*
X586973Y48066D01*
Y48077D01*
X586962Y48121D01*
X586950Y48188D01*
Y48277D01*
X586939Y48410D01*
X586928Y48554D01*
X586917Y48743D01*
Y48954D01*
Y52409D01*
X587861D01*
Y49310D01*
Y49299D01*
Y49277D01*
Y49243D01*
Y49188D01*
Y49065D01*
X587873Y48910D01*
Y48743D01*
X587884Y48577D01*
X587895Y48432D01*
X587917Y48310D01*
Y48299D01*
X587939Y48254D01*
X587961Y48188D01*
X587995Y48099D01*
X588050Y48010D01*
X588117Y47910D01*
X588195Y47821D01*
X588295Y47732D01*
X588306Y47721D01*
X588350Y47699D01*
X588406Y47666D01*
X588495Y47632D01*
X588595Y47588D01*
X588717Y47554D01*
X588850Y47532D01*
X589006Y47521D01*
X589083D01*
X589161Y47532D01*
X589261Y47543D01*
X589384Y47577D01*
X589517Y47610D01*
X589661Y47666D01*
X589806Y47732D01*
X589828Y47743D01*
X589872Y47777D01*
X589939Y47821D01*
X590017Y47888D01*
X590106Y47977D01*
X590195Y48077D01*
X590272Y48188D01*
X590339Y48321D01*
X590350Y48343D01*
X590361Y48388D01*
X590383Y48477D01*
X590417Y48599D01*
X590450Y48754D01*
X590472Y48943D01*
X590483Y49165D01*
X590494Y49421D01*
Y52409D01*
X591439D01*
Y46832D01*
D02*
G37*
G36*
X607471Y52521D02*
X607637Y52509D01*
X607826Y52487D01*
X608015Y52454D01*
X608204Y52409D01*
X608382Y52354D01*
X608404Y52343D01*
X608459Y52321D01*
X608537Y52287D01*
X608637Y52243D01*
X608748Y52176D01*
X608859Y52109D01*
X608959Y52021D01*
X609048Y51932D01*
X609059Y51921D01*
X609082Y51887D01*
X609115Y51832D01*
X609159Y51765D01*
X609215Y51665D01*
X609259Y51565D01*
X609304Y51443D01*
X609337Y51298D01*
Y51287D01*
X609348Y51254D01*
X609359Y51187D01*
X609370Y51099D01*
Y50976D01*
X609381Y50832D01*
X609393Y50643D01*
Y50432D01*
Y49165D01*
Y49154D01*
Y49110D01*
Y49043D01*
Y48954D01*
Y48854D01*
Y48732D01*
X609404Y48465D01*
Y48188D01*
X609415Y47910D01*
X609426Y47788D01*
Y47677D01*
X609437Y47577D01*
X609448Y47499D01*
Y47488D01*
X609459Y47443D01*
X609470Y47377D01*
X609504Y47288D01*
X609526Y47188D01*
X609570Y47077D01*
X609626Y46955D01*
X609681Y46832D01*
X608693D01*
X608681Y46843D01*
X608670Y46888D01*
X608648Y46943D01*
X608615Y47032D01*
X608581Y47132D01*
X608559Y47254D01*
X608537Y47388D01*
X608515Y47532D01*
X608504D01*
X608493Y47510D01*
X608426Y47454D01*
X608326Y47377D01*
X608193Y47277D01*
X608026Y47177D01*
X607859Y47066D01*
X607682Y46966D01*
X607493Y46888D01*
X607471Y46877D01*
X607404Y46866D01*
X607304Y46832D01*
X607182Y46799D01*
X607026Y46766D01*
X606848Y46743D01*
X606648Y46721D01*
X606448Y46710D01*
X606360D01*
X606293Y46721D01*
X606215D01*
X606126Y46732D01*
X605926Y46766D01*
X605704Y46821D01*
X605460Y46899D01*
X605237Y47010D01*
X605037Y47155D01*
X605015Y47177D01*
X604960Y47232D01*
X604882Y47332D01*
X604793Y47466D01*
X604704Y47632D01*
X604626Y47821D01*
X604571Y48054D01*
X604560Y48166D01*
X604549Y48299D01*
Y48321D01*
Y48366D01*
X604560Y48443D01*
X604571Y48543D01*
X604593Y48665D01*
X604626Y48788D01*
X604671Y48921D01*
X604726Y49043D01*
X604738Y49054D01*
X604760Y49099D01*
X604804Y49165D01*
X604860Y49243D01*
X604926Y49332D01*
X605015Y49421D01*
X605104Y49510D01*
X605215Y49588D01*
X605226Y49599D01*
X605271Y49621D01*
X605326Y49665D01*
X605415Y49710D01*
X605515Y49754D01*
X605637Y49810D01*
X605760Y49854D01*
X605904Y49899D01*
X605915D01*
X605960Y49910D01*
X606026Y49932D01*
X606115Y49943D01*
X606226Y49965D01*
X606371Y49988D01*
X606537Y50021D01*
X606737Y50043D01*
X606748D01*
X606793Y50054D01*
X606848D01*
X606926Y50065D01*
X607015Y50076D01*
X607126Y50099D01*
X607248Y50110D01*
X607382Y50132D01*
X607648Y50187D01*
X607937Y50243D01*
X608193Y50310D01*
X608315Y50343D01*
X608426Y50376D01*
Y50388D01*
Y50410D01*
X608437Y50476D01*
Y50554D01*
Y50599D01*
Y50621D01*
Y50632D01*
Y50643D01*
Y50710D01*
X608426Y50821D01*
X608404Y50943D01*
X608370Y51076D01*
X608315Y51210D01*
X608248Y51332D01*
X608159Y51432D01*
X608148Y51443D01*
X608093Y51487D01*
X608004Y51532D01*
X607893Y51599D01*
X607737Y51654D01*
X607559Y51710D01*
X607337Y51743D01*
X607082Y51754D01*
X606971D01*
X606859Y51743D01*
X606704Y51721D01*
X606548Y51698D01*
X606382Y51654D01*
X606226Y51599D01*
X606093Y51521D01*
X606082Y51510D01*
X606037Y51476D01*
X605982Y51421D01*
X605915Y51332D01*
X605849Y51221D01*
X605771Y51076D01*
X605704Y50898D01*
X605637Y50699D01*
X604715Y50821D01*
Y50832D01*
X604726Y50843D01*
Y50876D01*
X604738Y50921D01*
X604771Y51021D01*
X604815Y51165D01*
X604871Y51310D01*
X604938Y51465D01*
X605026Y51621D01*
X605126Y51765D01*
X605137Y51776D01*
X605182Y51821D01*
X605248Y51887D01*
X605337Y51976D01*
X605460Y52065D01*
X605604Y52154D01*
X605771Y52254D01*
X605960Y52332D01*
X605971D01*
X605982Y52343D01*
X606015Y52354D01*
X606060Y52365D01*
X606171Y52398D01*
X606326Y52432D01*
X606504Y52465D01*
X606726Y52498D01*
X606959Y52521D01*
X607226Y52532D01*
X607348D01*
X607471Y52521D01*
D02*
G37*
G36*
X559542D02*
X559631Y52509D01*
X559742Y52487D01*
X559864Y52465D01*
X560009Y52432D01*
X560142Y52398D01*
X560297Y52343D01*
X560442Y52287D01*
X560598Y52210D01*
X560753Y52121D01*
X560909Y52021D01*
X561053Y51898D01*
X561186Y51765D01*
X561197Y51754D01*
X561220Y51732D01*
X561253Y51687D01*
X561297Y51621D01*
X561353Y51543D01*
X561409Y51454D01*
X561475Y51343D01*
X561542Y51210D01*
X561609Y51065D01*
X561675Y50910D01*
X561731Y50732D01*
X561786Y50543D01*
X561831Y50332D01*
X561864Y50110D01*
X561886Y49876D01*
X561897Y49621D01*
Y49610D01*
Y49565D01*
Y49488D01*
X561886Y49376D01*
X557720D01*
Y49365D01*
Y49332D01*
X557731Y49288D01*
Y49221D01*
X557742Y49143D01*
X557764Y49054D01*
X557798Y48854D01*
X557864Y48632D01*
X557953Y48388D01*
X558076Y48166D01*
X558231Y47965D01*
X558242D01*
X558253Y47943D01*
X558320Y47888D01*
X558420Y47810D01*
X558553Y47732D01*
X558731Y47643D01*
X558931Y47565D01*
X559153Y47510D01*
X559275Y47499D01*
X559409Y47488D01*
X559498D01*
X559598Y47499D01*
X559720Y47521D01*
X559853Y47554D01*
X560009Y47599D01*
X560153Y47666D01*
X560297Y47754D01*
X560309Y47765D01*
X560364Y47810D01*
X560431Y47877D01*
X560509Y47965D01*
X560598Y48088D01*
X560698Y48243D01*
X560797Y48421D01*
X560886Y48632D01*
X561864Y48510D01*
Y48499D01*
X561853Y48477D01*
X561842Y48432D01*
X561820Y48366D01*
X561786Y48299D01*
X561753Y48210D01*
X561664Y48021D01*
X561553Y47810D01*
X561397Y47588D01*
X561220Y47377D01*
X560997Y47177D01*
X560986D01*
X560964Y47155D01*
X560931Y47132D01*
X560886Y47099D01*
X560820Y47066D01*
X560753Y47032D01*
X560664Y46988D01*
X560564Y46943D01*
X560453Y46899D01*
X560342Y46854D01*
X560064Y46788D01*
X559753Y46732D01*
X559409Y46710D01*
X559286D01*
X559209Y46721D01*
X559109Y46732D01*
X558987Y46755D01*
X558853Y46777D01*
X558709Y46799D01*
X558398Y46888D01*
X558231Y46955D01*
X558076Y47021D01*
X557909Y47110D01*
X557753Y47210D01*
X557609Y47321D01*
X557464Y47454D01*
X557453Y47466D01*
X557431Y47488D01*
X557398Y47532D01*
X557353Y47599D01*
X557298Y47677D01*
X557242Y47765D01*
X557176Y47877D01*
X557109Y47999D01*
X557042Y48143D01*
X556976Y48299D01*
X556920Y48477D01*
X556865Y48665D01*
X556820Y48865D01*
X556787Y49088D01*
X556765Y49321D01*
X556753Y49565D01*
Y49576D01*
Y49632D01*
Y49699D01*
X556765Y49799D01*
X556776Y49921D01*
X556787Y50054D01*
X556809Y50210D01*
X556842Y50365D01*
X556931Y50721D01*
X556987Y50898D01*
X557053Y51087D01*
X557142Y51265D01*
X557242Y51432D01*
X557353Y51599D01*
X557476Y51754D01*
X557487Y51765D01*
X557509Y51787D01*
X557553Y51821D01*
X557609Y51876D01*
X557676Y51932D01*
X557764Y51998D01*
X557864Y52076D01*
X557987Y52143D01*
X558109Y52221D01*
X558253Y52287D01*
X558409Y52354D01*
X558575Y52409D01*
X558753Y52465D01*
X558942Y52498D01*
X559142Y52521D01*
X559353Y52532D01*
X559464D01*
X559542Y52521D01*
D02*
G37*
G36*
X582251Y54643D02*
X582351D01*
X582451Y54632D01*
X582584Y54609D01*
X582718Y54587D01*
X583006Y54532D01*
X583340Y54443D01*
X583662Y54309D01*
X583828Y54232D01*
X583995Y54143D01*
X584006Y54132D01*
X584028Y54120D01*
X584073Y54087D01*
X584139Y54054D01*
X584206Y53998D01*
X584295Y53932D01*
X584484Y53776D01*
X584684Y53576D01*
X584906Y53332D01*
X585117Y53043D01*
X585295Y52721D01*
Y52710D01*
X585317Y52676D01*
X585339Y52632D01*
X585362Y52565D01*
X585406Y52476D01*
X585439Y52376D01*
X585484Y52254D01*
X585528Y52121D01*
X585562Y51976D01*
X585606Y51821D01*
X585650Y51643D01*
X585684Y51465D01*
X585728Y51076D01*
X585750Y50654D01*
Y50643D01*
Y50599D01*
Y50543D01*
X585739Y50454D01*
Y50354D01*
X585728Y50232D01*
X585706Y50099D01*
X585695Y49954D01*
X585639Y49632D01*
X585550Y49277D01*
X585428Y48921D01*
X585362Y48743D01*
X585273Y48565D01*
Y48554D01*
X585251Y48521D01*
X585228Y48477D01*
X585184Y48410D01*
X585140Y48332D01*
X585084Y48254D01*
X584928Y48043D01*
X584739Y47821D01*
X584517Y47588D01*
X584251Y47366D01*
X583940Y47166D01*
X583928D01*
X583906Y47143D01*
X583851Y47121D01*
X583784Y47088D01*
X583706Y47054D01*
X583617Y47021D01*
X583506Y46977D01*
X583384Y46932D01*
X583251Y46888D01*
X583106Y46843D01*
X582784Y46777D01*
X582440Y46721D01*
X582073Y46699D01*
X581962D01*
X581895Y46710D01*
X581795D01*
X581684Y46732D01*
X581562Y46743D01*
X581418Y46766D01*
X581118Y46832D01*
X580795Y46921D01*
X580462Y47054D01*
X580296Y47132D01*
X580129Y47221D01*
X580118Y47232D01*
X580095Y47243D01*
X580051Y47277D01*
X579984Y47321D01*
X579918Y47366D01*
X579840Y47432D01*
X579651Y47599D01*
X579440Y47799D01*
X579218Y48043D01*
X579018Y48321D01*
X578829Y48643D01*
Y48654D01*
X578807Y48688D01*
X578785Y48732D01*
X578762Y48799D01*
X578729Y48888D01*
X578696Y48988D01*
X578651Y49099D01*
X578618Y49221D01*
X578573Y49365D01*
X578529Y49510D01*
X578462Y49843D01*
X578418Y50187D01*
X578396Y50565D01*
Y50576D01*
Y50587D01*
Y50654D01*
X578407Y50754D01*
Y50887D01*
X578429Y51043D01*
X578451Y51232D01*
X578485Y51443D01*
X578529Y51665D01*
X578573Y51898D01*
X578640Y52143D01*
X578729Y52387D01*
X578829Y52643D01*
X578940Y52887D01*
X579084Y53132D01*
X579240Y53354D01*
X579418Y53565D01*
X579429Y53576D01*
X579462Y53609D01*
X579529Y53665D01*
X579607Y53732D01*
X579707Y53821D01*
X579829Y53909D01*
X579973Y54009D01*
X580140Y54109D01*
X580318Y54209D01*
X580518Y54309D01*
X580740Y54398D01*
X580973Y54487D01*
X581229Y54554D01*
X581495Y54609D01*
X581773Y54643D01*
X582073Y54654D01*
X582173D01*
X582251Y54643D01*
D02*
G37*
G36*
X618692Y52521D02*
X618781Y52509D01*
X618892Y52487D01*
X619014Y52465D01*
X619158Y52432D01*
X619292Y52398D01*
X619447Y52343D01*
X619592Y52287D01*
X619747Y52210D01*
X619903Y52121D01*
X620058Y52021D01*
X620203Y51898D01*
X620336Y51765D01*
X620347Y51754D01*
X620369Y51732D01*
X620403Y51687D01*
X620447Y51621D01*
X620503Y51543D01*
X620558Y51454D01*
X620625Y51343D01*
X620691Y51210D01*
X620758Y51065D01*
X620825Y50910D01*
X620880Y50732D01*
X620936Y50543D01*
X620980Y50332D01*
X621014Y50110D01*
X621036Y49876D01*
X621047Y49621D01*
Y49610D01*
Y49565D01*
Y49488D01*
X621036Y49376D01*
X616870D01*
Y49365D01*
Y49332D01*
X616881Y49288D01*
Y49221D01*
X616892Y49143D01*
X616914Y49054D01*
X616947Y48854D01*
X617014Y48632D01*
X617103Y48388D01*
X617225Y48166D01*
X617381Y47965D01*
X617392D01*
X617403Y47943D01*
X617470Y47888D01*
X617569Y47810D01*
X617703Y47732D01*
X617881Y47643D01*
X618081Y47565D01*
X618303Y47510D01*
X618425Y47499D01*
X618558Y47488D01*
X618647D01*
X618747Y47499D01*
X618869Y47521D01*
X619003Y47554D01*
X619158Y47599D01*
X619303Y47666D01*
X619447Y47754D01*
X619458Y47765D01*
X619514Y47810D01*
X619581Y47877D01*
X619658Y47965D01*
X619747Y48088D01*
X619847Y48243D01*
X619947Y48421D01*
X620036Y48632D01*
X621014Y48510D01*
Y48499D01*
X621002Y48477D01*
X620991Y48432D01*
X620969Y48366D01*
X620936Y48299D01*
X620902Y48210D01*
X620814Y48021D01*
X620703Y47810D01*
X620547Y47588D01*
X620369Y47377D01*
X620147Y47177D01*
X620136D01*
X620114Y47155D01*
X620080Y47132D01*
X620036Y47099D01*
X619969Y47066D01*
X619903Y47032D01*
X619814Y46988D01*
X619714Y46943D01*
X619603Y46899D01*
X619492Y46854D01*
X619214Y46788D01*
X618903Y46732D01*
X618558Y46710D01*
X618436D01*
X618358Y46721D01*
X618258Y46732D01*
X618136Y46755D01*
X618003Y46777D01*
X617858Y46799D01*
X617547Y46888D01*
X617381Y46955D01*
X617225Y47021D01*
X617059Y47110D01*
X616903Y47210D01*
X616758Y47321D01*
X616614Y47454D01*
X616603Y47466D01*
X616581Y47488D01*
X616547Y47532D01*
X616503Y47599D01*
X616447Y47677D01*
X616392Y47765D01*
X616325Y47877D01*
X616259Y47999D01*
X616192Y48143D01*
X616125Y48299D01*
X616070Y48477D01*
X616014Y48665D01*
X615970Y48865D01*
X615936Y49088D01*
X615914Y49321D01*
X615903Y49565D01*
Y49576D01*
Y49632D01*
Y49699D01*
X615914Y49799D01*
X615925Y49921D01*
X615936Y50054D01*
X615959Y50210D01*
X615992Y50365D01*
X616081Y50721D01*
X616136Y50898D01*
X616203Y51087D01*
X616292Y51265D01*
X616392Y51432D01*
X616503Y51599D01*
X616625Y51754D01*
X616636Y51765D01*
X616658Y51787D01*
X616703Y51821D01*
X616758Y51876D01*
X616825Y51932D01*
X616914Y51998D01*
X617014Y52076D01*
X617136Y52143D01*
X617259Y52221D01*
X617403Y52287D01*
X617558Y52354D01*
X617725Y52409D01*
X617903Y52465D01*
X618092Y52498D01*
X618292Y52521D01*
X618503Y52532D01*
X618614D01*
X618692Y52521D01*
D02*
G37*
G36*
X565519D02*
X565608Y52509D01*
X565719Y52487D01*
X565841Y52465D01*
X565986Y52432D01*
X566119Y52398D01*
X566275Y52343D01*
X566419Y52287D01*
X566575Y52210D01*
X566730Y52121D01*
X566886Y52021D01*
X567030Y51898D01*
X567164Y51765D01*
X567175Y51754D01*
X567197Y51732D01*
X567230Y51687D01*
X567275Y51621D01*
X567330Y51543D01*
X567386Y51454D01*
X567452Y51343D01*
X567519Y51210D01*
X567586Y51065D01*
X567652Y50910D01*
X567708Y50732D01*
X567763Y50543D01*
X567808Y50332D01*
X567841Y50110D01*
X567863Y49876D01*
X567874Y49621D01*
Y49610D01*
Y49565D01*
Y49488D01*
X567863Y49376D01*
X563697D01*
Y49365D01*
Y49332D01*
X563708Y49288D01*
Y49221D01*
X563719Y49143D01*
X563742Y49054D01*
X563775Y48854D01*
X563842Y48632D01*
X563931Y48388D01*
X564053Y48166D01*
X564208Y47965D01*
X564219D01*
X564230Y47943D01*
X564297Y47888D01*
X564397Y47810D01*
X564530Y47732D01*
X564708Y47643D01*
X564908Y47565D01*
X565130Y47510D01*
X565252Y47499D01*
X565386Y47488D01*
X565475D01*
X565575Y47499D01*
X565697Y47521D01*
X565830Y47554D01*
X565986Y47599D01*
X566130Y47666D01*
X566275Y47754D01*
X566286Y47765D01*
X566341Y47810D01*
X566408Y47877D01*
X566486Y47965D01*
X566575Y48088D01*
X566675Y48243D01*
X566775Y48421D01*
X566863Y48632D01*
X567841Y48510D01*
Y48499D01*
X567830Y48477D01*
X567819Y48432D01*
X567797Y48366D01*
X567763Y48299D01*
X567730Y48210D01*
X567641Y48021D01*
X567530Y47810D01*
X567375Y47588D01*
X567197Y47377D01*
X566975Y47177D01*
X566963D01*
X566941Y47155D01*
X566908Y47132D01*
X566863Y47099D01*
X566797Y47066D01*
X566730Y47032D01*
X566641Y46988D01*
X566541Y46943D01*
X566430Y46899D01*
X566319Y46854D01*
X566041Y46788D01*
X565730Y46732D01*
X565386Y46710D01*
X565264D01*
X565186Y46721D01*
X565086Y46732D01*
X564964Y46755D01*
X564830Y46777D01*
X564686Y46799D01*
X564375Y46888D01*
X564208Y46955D01*
X564053Y47021D01*
X563886Y47110D01*
X563730Y47210D01*
X563586Y47321D01*
X563442Y47454D01*
X563431Y47466D01*
X563408Y47488D01*
X563375Y47532D01*
X563331Y47599D01*
X563275Y47677D01*
X563219Y47765D01*
X563153Y47877D01*
X563086Y47999D01*
X563019Y48143D01*
X562953Y48299D01*
X562897Y48477D01*
X562842Y48665D01*
X562797Y48865D01*
X562764Y49088D01*
X562742Y49321D01*
X562731Y49565D01*
Y49576D01*
Y49632D01*
Y49699D01*
X562742Y49799D01*
X562753Y49921D01*
X562764Y50054D01*
X562786Y50210D01*
X562819Y50365D01*
X562908Y50721D01*
X562964Y50898D01*
X563031Y51087D01*
X563119Y51265D01*
X563219Y51432D01*
X563331Y51599D01*
X563453Y51754D01*
X563464Y51765D01*
X563486Y51787D01*
X563530Y51821D01*
X563586Y51876D01*
X563653Y51932D01*
X563742Y51998D01*
X563842Y52076D01*
X563964Y52143D01*
X564086Y52221D01*
X564230Y52287D01*
X564386Y52354D01*
X564553Y52409D01*
X564730Y52465D01*
X564919Y52498D01*
X565119Y52521D01*
X565330Y52532D01*
X565441D01*
X565519Y52521D01*
D02*
G37*
G36*
X552976Y51398D02*
X556342Y46832D01*
X554998D01*
X552265Y50710D01*
X551010Y49499D01*
Y46832D01*
X549987D01*
Y54520D01*
X551010D01*
Y50699D01*
X554809Y54520D01*
X556198D01*
X552976Y51398D01*
D02*
G37*
G36*
X577551Y49143D02*
X574629D01*
Y50087D01*
X577551D01*
Y49143D01*
D02*
G37*
G36*
X624424Y52521D02*
X624547Y52498D01*
X624691Y52454D01*
X624847Y52398D01*
X625024Y52321D01*
X625213Y52221D01*
X624869Y51354D01*
X624858Y51365D01*
X624813Y51387D01*
X624747Y51421D01*
X624658Y51454D01*
X624558Y51487D01*
X624436Y51521D01*
X624313Y51543D01*
X624191Y51554D01*
X624135D01*
X624080Y51543D01*
X624002Y51532D01*
X623924Y51510D01*
X623825Y51476D01*
X623725Y51432D01*
X623636Y51365D01*
X623625Y51354D01*
X623591Y51332D01*
X623558Y51287D01*
X623502Y51232D01*
X623447Y51154D01*
X623391Y51065D01*
X623336Y50965D01*
X623291Y50843D01*
X623280Y50821D01*
X623269Y50754D01*
X623247Y50654D01*
X623213Y50521D01*
X623180Y50354D01*
X623158Y50165D01*
X623147Y49965D01*
X623136Y49743D01*
Y46832D01*
X622191D01*
Y52409D01*
X623047D01*
Y51565D01*
X623058Y51576D01*
X623102Y51654D01*
X623158Y51754D01*
X623247Y51876D01*
X623336Y51998D01*
X623436Y52132D01*
X623536Y52243D01*
X623636Y52332D01*
X623647Y52343D01*
X623680Y52365D01*
X623747Y52398D01*
X623813Y52432D01*
X623902Y52465D01*
X624013Y52498D01*
X624124Y52521D01*
X624247Y52532D01*
X624324D01*
X624424Y52521D01*
D02*
G37*
G36*
X571674D02*
X571752Y52509D01*
X571918Y52487D01*
X572119Y52443D01*
X572330Y52376D01*
X572541Y52276D01*
X572752Y52154D01*
X572763D01*
X572774Y52132D01*
X572841Y52087D01*
X572941Y51998D01*
X573063Y51887D01*
X573196Y51743D01*
X573329Y51565D01*
X573463Y51354D01*
X573574Y51121D01*
Y51110D01*
X573585Y51087D01*
X573596Y51054D01*
X573618Y51010D01*
X573641Y50943D01*
X573663Y50865D01*
X573718Y50687D01*
X573774Y50465D01*
X573818Y50221D01*
X573852Y49943D01*
X573863Y49654D01*
Y49643D01*
Y49621D01*
Y49576D01*
Y49510D01*
X573852Y49432D01*
Y49343D01*
X573830Y49143D01*
X573785Y48899D01*
X573730Y48643D01*
X573652Y48377D01*
X573552Y48110D01*
Y48099D01*
X573541Y48077D01*
X573518Y48043D01*
X573496Y47999D01*
X573418Y47877D01*
X573318Y47721D01*
X573196Y47554D01*
X573041Y47388D01*
X572863Y47221D01*
X572652Y47066D01*
X572641D01*
X572630Y47054D01*
X572596Y47032D01*
X572552Y47010D01*
X572441Y46955D01*
X572285Y46888D01*
X572096Y46821D01*
X571896Y46766D01*
X571663Y46721D01*
X571430Y46710D01*
X571352D01*
X571263Y46721D01*
X571152Y46732D01*
X571019Y46755D01*
X570874Y46788D01*
X570730Y46832D01*
X570585Y46899D01*
X570574Y46910D01*
X570519Y46932D01*
X570452Y46977D01*
X570363Y47043D01*
X570274Y47110D01*
X570163Y47199D01*
X570063Y47299D01*
X569974Y47410D01*
Y44699D01*
X569030D01*
Y52409D01*
X569885D01*
Y51676D01*
X569897Y51698D01*
X569941Y51743D01*
X569997Y51821D01*
X570085Y51910D01*
X570185Y52021D01*
X570296Y52121D01*
X570430Y52221D01*
X570563Y52310D01*
X570585Y52321D01*
X570630Y52343D01*
X570719Y52376D01*
X570830Y52421D01*
X570963Y52465D01*
X571119Y52498D01*
X571296Y52521D01*
X571496Y52532D01*
X571619D01*
X571674Y52521D01*
D02*
G37*
G36*
X613292Y46743D02*
Y46732D01*
X613281Y46699D01*
X613259Y46654D01*
X613237Y46599D01*
X613203Y46521D01*
X613170Y46432D01*
X613092Y46244D01*
X613014Y46032D01*
X612926Y45821D01*
X612837Y45632D01*
X612792Y45555D01*
X612759Y45477D01*
X612748Y45455D01*
X612714Y45399D01*
X612659Y45321D01*
X612592Y45221D01*
X612503Y45110D01*
X612403Y44999D01*
X612303Y44888D01*
X612181Y44799D01*
X612170Y44788D01*
X612126Y44766D01*
X612059Y44732D01*
X611959Y44688D01*
X611848Y44644D01*
X611715Y44610D01*
X611570Y44588D01*
X611404Y44577D01*
X611359D01*
X611304Y44588D01*
X611226D01*
X611137Y44610D01*
X611037Y44633D01*
X610926Y44655D01*
X610804Y44699D01*
X610704Y45577D01*
X610715D01*
X610759Y45566D01*
X610815Y45555D01*
X610881Y45532D01*
X611059Y45499D01*
X611237Y45488D01*
X611292D01*
X611348Y45499D01*
X611415D01*
X611581Y45532D01*
X611659Y45566D01*
X611737Y45599D01*
X611748D01*
X611770Y45621D01*
X611803Y45643D01*
X611848Y45677D01*
X611948Y45766D01*
X612037Y45888D01*
Y45899D01*
X612059Y45921D01*
X612081Y45966D01*
X612103Y46032D01*
X612148Y46121D01*
X612192Y46255D01*
X612259Y46410D01*
X612326Y46599D01*
Y46610D01*
X612348Y46654D01*
X612370Y46732D01*
X612415Y46832D01*
X610304Y52409D01*
X611304D01*
X612470Y49176D01*
Y49165D01*
X612481Y49154D01*
X612492Y49121D01*
X612503Y49065D01*
X612526Y49010D01*
X612548Y48943D01*
X612603Y48788D01*
X612670Y48599D01*
X612737Y48377D01*
X612803Y48143D01*
X612870Y47888D01*
Y47899D01*
X612881Y47921D01*
X612892Y47954D01*
X612903Y47999D01*
X612915Y48054D01*
X612937Y48121D01*
X612981Y48288D01*
X613037Y48477D01*
X613114Y48699D01*
X613181Y48921D01*
X613270Y49154D01*
X614470Y52409D01*
X615414D01*
X613292Y46743D01*
D02*
G37*
%LPC*%
G36*
X618514Y51754D02*
X618447D01*
X618403Y51743D01*
X618281Y51732D01*
X618136Y51698D01*
X617958Y51643D01*
X617769Y51565D01*
X617592Y51454D01*
X617414Y51310D01*
X617392Y51287D01*
X617347Y51232D01*
X617270Y51132D01*
X617192Y50999D01*
X617103Y50843D01*
X617025Y50643D01*
X616959Y50410D01*
X616925Y50154D01*
X620047D01*
Y50165D01*
Y50187D01*
X620036Y50221D01*
Y50265D01*
X620014Y50399D01*
X619980Y50543D01*
X619925Y50721D01*
X619869Y50887D01*
X619780Y51054D01*
X619680Y51199D01*
Y51210D01*
X619658Y51221D01*
X619603Y51287D01*
X619503Y51376D01*
X619369Y51476D01*
X619203Y51576D01*
X619003Y51665D01*
X618769Y51732D01*
X618647Y51743D01*
X618514Y51754D01*
D02*
G37*
G36*
X565341D02*
X565275D01*
X565230Y51743D01*
X565108Y51732D01*
X564964Y51698D01*
X564786Y51643D01*
X564597Y51565D01*
X564419Y51454D01*
X564242Y51310D01*
X564219Y51287D01*
X564175Y51232D01*
X564097Y51132D01*
X564019Y50999D01*
X563931Y50843D01*
X563853Y50643D01*
X563786Y50410D01*
X563753Y50154D01*
X566875D01*
Y50165D01*
Y50187D01*
X566863Y50221D01*
Y50265D01*
X566841Y50399D01*
X566808Y50543D01*
X566752Y50721D01*
X566697Y50887D01*
X566608Y51054D01*
X566508Y51199D01*
Y51210D01*
X566486Y51221D01*
X566430Y51287D01*
X566330Y51376D01*
X566197Y51476D01*
X566030Y51576D01*
X565830Y51665D01*
X565597Y51732D01*
X565475Y51743D01*
X565341Y51754D01*
D02*
G37*
G36*
X571408Y51787D02*
X571352D01*
X571308Y51776D01*
X571196Y51754D01*
X571052Y51721D01*
X570885Y51654D01*
X570708Y51554D01*
X570608Y51487D01*
X570519Y51410D01*
X570430Y51321D01*
X570341Y51221D01*
Y51210D01*
X570319Y51199D01*
X570296Y51165D01*
X570274Y51121D01*
X570241Y51054D01*
X570196Y50987D01*
X570152Y50898D01*
X570119Y50810D01*
X570074Y50699D01*
X570030Y50576D01*
X569997Y50443D01*
X569952Y50299D01*
X569930Y50132D01*
X569908Y49965D01*
X569885Y49788D01*
Y49588D01*
Y49576D01*
Y49543D01*
Y49488D01*
X569897Y49410D01*
Y49321D01*
X569908Y49221D01*
X569941Y48988D01*
X569997Y48721D01*
X570063Y48465D01*
X570174Y48210D01*
X570241Y48099D01*
X570319Y47999D01*
X570341Y47977D01*
X570397Y47921D01*
X570485Y47832D01*
X570608Y47743D01*
X570763Y47654D01*
X570941Y47565D01*
X571141Y47510D01*
X571252Y47499D01*
X571363Y47488D01*
X571430D01*
X571474Y47499D01*
X571585Y47521D01*
X571741Y47554D01*
X571907Y47621D01*
X572085Y47710D01*
X572263Y47843D01*
X572352Y47921D01*
X572441Y48010D01*
Y48021D01*
X572463Y48032D01*
X572485Y48066D01*
X572507Y48110D01*
X572552Y48166D01*
X572585Y48243D01*
X572630Y48321D01*
X572674Y48421D01*
X572707Y48521D01*
X572752Y48654D01*
X572796Y48788D01*
X572830Y48932D01*
X572852Y49099D01*
X572874Y49277D01*
X572896Y49465D01*
Y49665D01*
Y49676D01*
Y49710D01*
Y49765D01*
X572885Y49843D01*
Y49932D01*
X572874Y50032D01*
X572841Y50265D01*
X572785Y50521D01*
X572707Y50776D01*
X572596Y51032D01*
X572530Y51154D01*
X572452Y51254D01*
Y51265D01*
X572430Y51276D01*
X572374Y51343D01*
X572285Y51421D01*
X572163Y51521D01*
X572007Y51621D01*
X571830Y51710D01*
X571630Y51765D01*
X571519Y51776D01*
X571408Y51787D01*
D02*
G37*
G36*
X582073Y53776D02*
X581973D01*
X581895Y53765D01*
X581795Y53754D01*
X581695Y53732D01*
X581573Y53709D01*
X581440Y53687D01*
X581151Y53598D01*
X580995Y53532D01*
X580840Y53465D01*
X580673Y53376D01*
X580518Y53276D01*
X580362Y53165D01*
X580218Y53032D01*
X580207Y53021D01*
X580184Y52998D01*
X580151Y52954D01*
X580095Y52887D01*
X580040Y52810D01*
X579973Y52710D01*
X579907Y52587D01*
X579829Y52443D01*
X579762Y52287D01*
X579684Y52098D01*
X579618Y51898D01*
X579562Y51676D01*
X579507Y51432D01*
X579473Y51154D01*
X579451Y50865D01*
X579440Y50554D01*
Y50543D01*
Y50499D01*
Y50421D01*
X579451Y50321D01*
X579462Y50210D01*
X579485Y50076D01*
X579507Y49921D01*
X579529Y49765D01*
X579618Y49410D01*
X579684Y49232D01*
X579751Y49043D01*
X579840Y48865D01*
X579940Y48688D01*
X580051Y48521D01*
X580184Y48366D01*
X580196Y48354D01*
X580218Y48332D01*
X580262Y48288D01*
X580318Y48243D01*
X580396Y48177D01*
X580484Y48110D01*
X580584Y48043D01*
X580695Y47965D01*
X580829Y47888D01*
X580973Y47821D01*
X581129Y47754D01*
X581295Y47688D01*
X581473Y47643D01*
X581651Y47599D01*
X581851Y47577D01*
X582062Y47565D01*
X582118D01*
X582173Y47577D01*
X582251D01*
X582351Y47588D01*
X582462Y47610D01*
X582595Y47632D01*
X582729Y47666D01*
X582884Y47710D01*
X583029Y47765D01*
X583195Y47821D01*
X583351Y47899D01*
X583506Y47999D01*
X583662Y48099D01*
X583817Y48221D01*
X583962Y48366D01*
X583973Y48377D01*
X583995Y48399D01*
X584028Y48454D01*
X584084Y48521D01*
X584139Y48599D01*
X584195Y48699D01*
X584262Y48821D01*
X584340Y48954D01*
X584406Y49110D01*
X584473Y49288D01*
X584528Y49477D01*
X584595Y49676D01*
X584640Y49899D01*
X584673Y50143D01*
X584695Y50399D01*
X584706Y50665D01*
Y50676D01*
Y50710D01*
Y50754D01*
Y50821D01*
X584695Y50898D01*
Y50999D01*
X584684Y51099D01*
X584662Y51221D01*
X584628Y51476D01*
X584573Y51743D01*
X584495Y52032D01*
X584384Y52298D01*
Y52310D01*
X584373Y52332D01*
X584351Y52365D01*
X584328Y52409D01*
X584251Y52543D01*
X584151Y52698D01*
X584017Y52876D01*
X583851Y53054D01*
X583662Y53232D01*
X583451Y53387D01*
X583440D01*
X583428Y53409D01*
X583395Y53421D01*
X583340Y53454D01*
X583284Y53476D01*
X583217Y53509D01*
X583051Y53587D01*
X582851Y53654D01*
X582618Y53720D01*
X582351Y53765D01*
X582073Y53776D01*
D02*
G37*
G36*
X559364Y51754D02*
X559298D01*
X559253Y51743D01*
X559131Y51732D01*
X558987Y51698D01*
X558809Y51643D01*
X558620Y51565D01*
X558442Y51454D01*
X558264Y51310D01*
X558242Y51287D01*
X558198Y51232D01*
X558120Y51132D01*
X558042Y50999D01*
X557953Y50843D01*
X557875Y50643D01*
X557809Y50410D01*
X557775Y50154D01*
X560897D01*
Y50165D01*
Y50187D01*
X560886Y50221D01*
Y50265D01*
X560864Y50399D01*
X560831Y50543D01*
X560775Y50721D01*
X560720Y50887D01*
X560631Y51054D01*
X560531Y51199D01*
Y51210D01*
X560509Y51221D01*
X560453Y51287D01*
X560353Y51376D01*
X560220Y51476D01*
X560053Y51576D01*
X559853Y51665D01*
X559620Y51732D01*
X559498Y51743D01*
X559364Y51754D01*
D02*
G37*
G36*
X608437Y49632D02*
X608426D01*
X608415Y49621D01*
X608382Y49610D01*
X608337Y49599D01*
X608282Y49576D01*
X608215Y49554D01*
X608137Y49532D01*
X608048Y49510D01*
X607948Y49477D01*
X607826Y49454D01*
X607704Y49421D01*
X607559Y49388D01*
X607404Y49354D01*
X607248Y49321D01*
X607071Y49299D01*
X606882Y49265D01*
X606859D01*
X606793Y49254D01*
X606682Y49232D01*
X606560Y49210D01*
X606426Y49188D01*
X606293Y49154D01*
X606171Y49121D01*
X606060Y49077D01*
X606048D01*
X606015Y49054D01*
X605971Y49032D01*
X605926Y48999D01*
X605793Y48910D01*
X605682Y48777D01*
Y48765D01*
X605660Y48743D01*
X605649Y48699D01*
X605626Y48643D01*
X605604Y48577D01*
X605582Y48510D01*
X605571Y48421D01*
X605560Y48332D01*
Y48321D01*
Y48265D01*
X605571Y48199D01*
X605593Y48110D01*
X605626Y48010D01*
X605682Y47910D01*
X605749Y47799D01*
X605837Y47699D01*
X605849Y47688D01*
X605893Y47666D01*
X605960Y47621D01*
X606048Y47577D01*
X606171Y47532D01*
X606315Y47488D01*
X606482Y47466D01*
X606682Y47454D01*
X606771D01*
X606882Y47466D01*
X607004Y47488D01*
X607160Y47510D01*
X607315Y47554D01*
X607482Y47610D01*
X607648Y47688D01*
X607670Y47699D01*
X607715Y47732D01*
X607793Y47788D01*
X607882Y47866D01*
X607982Y47954D01*
X608093Y48066D01*
X608182Y48199D01*
X608271Y48343D01*
X608282Y48354D01*
X608293Y48399D01*
X608315Y48477D01*
X608348Y48577D01*
X608382Y48710D01*
X608404Y48865D01*
X608415Y49054D01*
X608426Y49277D01*
X608437Y49632D01*
D02*
G37*
%LPD*%
D47*
X272Y140036D02*
G03*
X14052Y153815I0J13780D01*
G01*
X212871D02*
G03*
X226650Y140036I13780J0D01*
G01*
Y73107D02*
G03*
X212871Y59327I0J-13780D01*
G01*
X124288Y51453D02*
G03*
X92792Y19957I0J-31496D01*
G01*
X13780Y0D02*
G03*
X0Y13780I-13780J0D01*
G01*
X230000Y128000D02*
G03*
X230000Y128000I-7000J0D01*
G01*
X7500Y27000D02*
G03*
X7500Y27000I-7000J0D01*
G01*
X92792Y5058D02*
X92808D01*
X92792D02*
Y9436D01*
X100471Y9414D02*
Y22984D01*
Y-8512D02*
Y5058D01*
X193186Y68187D02*
Y68209D01*
Y68187D02*
Y75590D01*
X158146D02*
X193186D01*
X197513Y42870D02*
X215208D01*
X230570D01*
X139841Y22984D02*
X143778D01*
X177978Y161689D02*
X212871D01*
X14082Y161703D02*
X177978D01*
X212871Y153815D02*
Y161689D01*
X226650Y140036D02*
X234524D01*
Y73107D02*
Y140036D01*
X226650Y73107D02*
X234524D01*
X212871Y51453D02*
Y59327D01*
X13780Y-8586D02*
Y0D01*
X-8586Y13780D02*
X0D01*
X-8586D02*
Y140036D01*
X272D01*
X14082Y153829D02*
Y161703D01*
X13809Y-8573D02*
X92822D01*
X143778Y22984D02*
X183148D01*
X100471Y-8512D02*
X183148D01*
X100471Y22984D02*
X104408D01*
X139841D01*
X158146Y51476D02*
Y75590D01*
X193186Y51476D02*
Y68209D01*
X193576Y22934D02*
X197513D01*
X193576Y-8437D02*
Y-3882D01*
X197513Y22934D02*
Y42870D01*
X230570Y22934D02*
Y42870D01*
X234507Y-8437D02*
Y-3882D01*
Y22934D01*
X230570D02*
X234507D01*
X193576Y-8437D02*
X234507D01*
X193186Y51453D02*
X212871D01*
X124311Y51476D02*
X158146D01*
X92808Y5058D02*
X100471D01*
X92808Y-8573D02*
Y5058D01*
X183138Y4797D02*
X193581D01*
X183185Y8889D02*
X193581D01*
X183148Y22984D02*
X183185D01*
Y8889D02*
Y22984D01*
X183148Y-8512D02*
Y4797D01*
X193576Y-3882D02*
X193581D01*
Y4797D01*
X193576Y8889D02*
Y22934D01*
X92792Y9436D02*
Y19957D01*
X92798Y9414D02*
X100471D01*
M02*
