%FSLAX25Y25*%
%MOIN*%
G70*
G01*
G75*
G04 Layer_Color=8388736*
%ADD10R,0.02362X0.03543*%
%ADD11R,0.03543X0.02362*%
%ADD12R,0.03937X0.04331*%
%ADD13R,0.06299X0.13780*%
%ADD14R,0.05000X0.03600*%
%ADD15R,0.03600X0.03600*%
%ADD16R,0.06693X0.01750*%
%ADD17R,0.08661X0.05118*%
%ADD18R,0.06299X0.07874*%
%ADD19O,0.04921X0.01772*%
%ADD20R,0.06102X0.01378*%
%ADD21C,0.01000*%
%ADD22C,0.00800*%
%ADD23C,0.02500*%
%ADD24C,0.02000*%
%ADD25C,0.08000*%
%ADD26C,0.07000*%
%ADD27C,0.10000*%
%ADD28R,0.07000X0.07000*%
%ADD29C,0.04724*%
%ADD30C,0.05906*%
%ADD31R,0.07000X0.07000*%
%ADD32C,0.08661*%
%ADD33C,0.07874*%
G04:AMPARAMS|DCode=34|XSize=118.11mil|YSize=39.37mil|CornerRadius=19.69mil|HoleSize=0mil|Usage=FLASHONLY|Rotation=0.000|XOffset=0mil|YOffset=0mil|HoleType=Round|Shape=RoundedRectangle|*
%AMROUNDEDRECTD34*
21,1,0.11811,0.00000,0,0,0.0*
21,1,0.07874,0.03937,0,0,0.0*
1,1,0.03937,0.03937,0.00000*
1,1,0.03937,-0.03937,0.00000*
1,1,0.03937,-0.03937,0.00000*
1,1,0.03937,0.03937,0.00000*
%
%ADD34ROUNDEDRECTD34*%
%ADD35O,0.15748X0.03937*%
G04:AMPARAMS|DCode=36|XSize=118.11mil|YSize=39.37mil|CornerRadius=19.69mil|HoleSize=0mil|Usage=FLASHONLY|Rotation=90.000|XOffset=0mil|YOffset=0mil|HoleType=Round|Shape=RoundedRectangle|*
%AMROUNDEDRECTD36*
21,1,0.11811,0.00000,0,0,90.0*
21,1,0.07874,0.03937,0,0,90.0*
1,1,0.03937,0.00000,0.03937*
1,1,0.03937,0.00000,-0.03937*
1,1,0.03937,0.00000,-0.03937*
1,1,0.03937,0.00000,0.03937*
%
%ADD36ROUNDEDRECTD36*%
%ADD37C,0.05512*%
%ADD38C,0.17716*%
%ADD39C,0.07874*%
%ADD40C,0.03937*%
%ADD41C,0.03150*%
%ADD42R,0.05118X0.05906*%
%ADD43R,0.05315X0.02953*%
%ADD44C,0.01200*%
%ADD45C,0.00787*%
%ADD46C,0.01500*%
%ADD47C,0.00394*%
%ADD48C,0.00700*%
%ADD49C,0.00591*%
%ADD50R,0.03162X0.04343*%
%ADD51R,0.04343X0.03162*%
%ADD52R,0.04737X0.05131*%
%ADD53R,0.07099X0.14579*%
%ADD54R,0.05800X0.04400*%
%ADD55R,0.04400X0.04400*%
%ADD56R,0.07493X0.02550*%
%ADD57R,0.09461X0.05918*%
%ADD58R,0.07099X0.08674*%
%ADD59O,0.05721X0.02572*%
%ADD60R,0.06902X0.02178*%
%ADD61C,0.08800*%
%ADD62C,0.07800*%
%ADD63C,0.10800*%
%ADD64R,0.07800X0.07800*%
%ADD65C,0.05524*%
%ADD66C,0.06706*%
%ADD67R,0.07800X0.07800*%
%ADD68C,0.09461*%
%ADD69C,0.08674*%
G04:AMPARAMS|DCode=70|XSize=126.11mil|YSize=47.37mil|CornerRadius=23.69mil|HoleSize=0mil|Usage=FLASHONLY|Rotation=0.000|XOffset=0mil|YOffset=0mil|HoleType=Round|Shape=RoundedRectangle|*
%AMROUNDEDRECTD70*
21,1,0.12611,0.00000,0,0,0.0*
21,1,0.07874,0.04737,0,0,0.0*
1,1,0.04737,0.03937,0.00000*
1,1,0.04737,-0.03937,0.00000*
1,1,0.04737,-0.03937,0.00000*
1,1,0.04737,0.03937,0.00000*
%
%ADD70ROUNDEDRECTD70*%
%ADD71O,0.16548X0.04737*%
G04:AMPARAMS|DCode=72|XSize=126.11mil|YSize=47.37mil|CornerRadius=23.69mil|HoleSize=0mil|Usage=FLASHONLY|Rotation=90.000|XOffset=0mil|YOffset=0mil|HoleType=Round|Shape=RoundedRectangle|*
%AMROUNDEDRECTD72*
21,1,0.12611,0.00000,0,0,90.0*
21,1,0.07874,0.04737,0,0,90.0*
1,1,0.04737,0.00000,0.03937*
1,1,0.04737,0.00000,-0.03937*
1,1,0.04737,0.00000,-0.03937*
1,1,0.04737,0.00000,0.03937*
%
%ADD72ROUNDEDRECTD72*%
%ADD73C,0.06312*%
%ADD74C,0.18517*%
%ADD75C,0.13874*%
%ADD76C,0.04737*%
G36*
X501439Y5277D02*
X501528Y5265D01*
X501639Y5243D01*
X501761Y5221D01*
X501906Y5188D01*
X502039Y5154D01*
X502194Y5099D01*
X502339Y5043D01*
X502494Y4965D01*
X502650Y4877D01*
X502806Y4777D01*
X502950Y4654D01*
X503083Y4521D01*
X503094Y4510D01*
X503117Y4488D01*
X503150Y4443D01*
X503194Y4377D01*
X503250Y4299D01*
X503305Y4210D01*
X503372Y4099D01*
X503439Y3965D01*
X503506Y3821D01*
X503572Y3666D01*
X503628Y3488D01*
X503683Y3299D01*
X503728Y3088D01*
X503761Y2866D01*
X503783Y2632D01*
X503794Y2377D01*
Y2366D01*
Y2321D01*
Y2244D01*
X503783Y2132D01*
X499617D01*
Y2121D01*
Y2088D01*
X499628Y2043D01*
Y1977D01*
X499639Y1899D01*
X499661Y1810D01*
X499695Y1610D01*
X499761Y1388D01*
X499850Y1144D01*
X499972Y921D01*
X500128Y721D01*
X500139D01*
X500150Y699D01*
X500217Y644D01*
X500317Y566D01*
X500450Y488D01*
X500628Y399D01*
X500828Y322D01*
X501050Y266D01*
X501172Y255D01*
X501306Y244D01*
X501395D01*
X501495Y255D01*
X501617Y277D01*
X501750Y310D01*
X501906Y355D01*
X502050Y421D01*
X502194Y510D01*
X502206Y521D01*
X502261Y566D01*
X502328Y632D01*
X502406Y721D01*
X502494Y844D01*
X502595Y999D01*
X502695Y1177D01*
X502783Y1388D01*
X503761Y1266D01*
Y1255D01*
X503750Y1233D01*
X503739Y1188D01*
X503717Y1121D01*
X503683Y1055D01*
X503650Y966D01*
X503561Y777D01*
X503450Y566D01*
X503294Y344D01*
X503117Y133D01*
X502894Y-67D01*
X502883D01*
X502861Y-90D01*
X502828Y-112D01*
X502783Y-145D01*
X502717Y-178D01*
X502650Y-212D01*
X502561Y-256D01*
X502461Y-301D01*
X502350Y-345D01*
X502239Y-390D01*
X501961Y-456D01*
X501650Y-512D01*
X501306Y-534D01*
X501184D01*
X501106Y-523D01*
X501006Y-512D01*
X500884Y-490D01*
X500750Y-467D01*
X500606Y-445D01*
X500295Y-356D01*
X500128Y-290D01*
X499972Y-223D01*
X499806Y-134D01*
X499650Y-34D01*
X499506Y77D01*
X499362Y210D01*
X499350Y222D01*
X499328Y244D01*
X499295Y288D01*
X499250Y355D01*
X499195Y433D01*
X499139Y521D01*
X499073Y632D01*
X499006Y755D01*
X498939Y899D01*
X498873Y1055D01*
X498817Y1233D01*
X498762Y1421D01*
X498717Y1621D01*
X498684Y1843D01*
X498662Y2077D01*
X498651Y2321D01*
Y2332D01*
Y2388D01*
Y2455D01*
X498662Y2555D01*
X498673Y2677D01*
X498684Y2810D01*
X498706Y2966D01*
X498739Y3121D01*
X498828Y3477D01*
X498884Y3654D01*
X498950Y3843D01*
X499039Y4021D01*
X499139Y4188D01*
X499250Y4354D01*
X499373Y4510D01*
X499384Y4521D01*
X499406Y4543D01*
X499450Y4577D01*
X499506Y4632D01*
X499573Y4688D01*
X499661Y4754D01*
X499761Y4832D01*
X499884Y4899D01*
X500006Y4976D01*
X500150Y5043D01*
X500306Y5110D01*
X500472Y5165D01*
X500650Y5221D01*
X500839Y5254D01*
X501039Y5277D01*
X501250Y5288D01*
X501361D01*
X501439Y5277D01*
D02*
G37*
G36*
X487074D02*
X487174Y5265D01*
X487285Y5243D01*
X487407Y5221D01*
X487552Y5199D01*
X487851Y5099D01*
X488007Y5043D01*
X488163Y4965D01*
X488318Y4888D01*
X488474Y4777D01*
X488618Y4665D01*
X488763Y4532D01*
X488774Y4521D01*
X488796Y4499D01*
X488829Y4454D01*
X488874Y4399D01*
X488929Y4321D01*
X488996Y4221D01*
X489062Y4110D01*
X489129Y3988D01*
X489196Y3854D01*
X489262Y3688D01*
X489329Y3521D01*
X489385Y3332D01*
X489429Y3132D01*
X489463Y2921D01*
X489485Y2699D01*
X489496Y2455D01*
Y2444D01*
Y2410D01*
Y2355D01*
Y2277D01*
X489485Y2188D01*
X489474Y2077D01*
Y1966D01*
X489451Y1843D01*
X489418Y1566D01*
X489351Y1288D01*
X489274Y1010D01*
X489162Y755D01*
Y744D01*
X489151Y733D01*
X489129Y699D01*
X489107Y655D01*
X489029Y544D01*
X488929Y410D01*
X488796Y255D01*
X488629Y99D01*
X488440Y-56D01*
X488218Y-201D01*
X488207D01*
X488196Y-212D01*
X488163Y-234D01*
X488107Y-256D01*
X488052Y-279D01*
X487985Y-301D01*
X487818Y-367D01*
X487629Y-423D01*
X487396Y-478D01*
X487152Y-523D01*
X486885Y-534D01*
X486774D01*
X486685Y-523D01*
X486585Y-512D01*
X486474Y-490D01*
X486341Y-467D01*
X486207Y-445D01*
X485907Y-356D01*
X485741Y-290D01*
X485585Y-223D01*
X485430Y-134D01*
X485274Y-34D01*
X485130Y77D01*
X484985Y210D01*
X484974Y222D01*
X484952Y244D01*
X484918Y288D01*
X484874Y355D01*
X484819Y433D01*
X484763Y521D01*
X484696Y632D01*
X484630Y766D01*
X484563Y910D01*
X484496Y1077D01*
X484441Y1255D01*
X484385Y1444D01*
X484341Y1655D01*
X484307Y1877D01*
X484285Y2121D01*
X484274Y2377D01*
Y2399D01*
Y2444D01*
X484285Y2521D01*
Y2632D01*
X484296Y2754D01*
X484318Y2910D01*
X484341Y3066D01*
X484385Y3243D01*
X484430Y3421D01*
X484485Y3610D01*
X484552Y3810D01*
X484641Y3999D01*
X484730Y4177D01*
X484852Y4354D01*
X484974Y4521D01*
X485130Y4665D01*
X485141Y4677D01*
X485163Y4688D01*
X485207Y4721D01*
X485263Y4765D01*
X485330Y4810D01*
X485418Y4865D01*
X485507Y4921D01*
X485618Y4976D01*
X485741Y5032D01*
X485874Y5088D01*
X486174Y5188D01*
X486518Y5265D01*
X486696Y5277D01*
X486885Y5288D01*
X486996D01*
X487074Y5277D01*
D02*
G37*
G36*
X491529Y-412D02*
X490585D01*
Y7276D01*
X491529D01*
Y-412D01*
D02*
G37*
G36*
X461587Y6365D02*
X459054D01*
Y-412D01*
X458032D01*
Y6365D01*
X455499D01*
Y7276D01*
X461587D01*
Y6365D01*
D02*
G37*
G36*
X464965Y5277D02*
X465065Y5265D01*
X465176Y5243D01*
X465298Y5221D01*
X465443Y5199D01*
X465743Y5099D01*
X465898Y5043D01*
X466054Y4965D01*
X466209Y4888D01*
X466365Y4777D01*
X466509Y4665D01*
X466654Y4532D01*
X466665Y4521D01*
X466687Y4499D01*
X466720Y4454D01*
X466765Y4399D01*
X466820Y4321D01*
X466887Y4221D01*
X466954Y4110D01*
X467020Y3988D01*
X467087Y3854D01*
X467154Y3688D01*
X467220Y3521D01*
X467276Y3332D01*
X467320Y3132D01*
X467354Y2921D01*
X467376Y2699D01*
X467387Y2455D01*
Y2444D01*
Y2410D01*
Y2355D01*
Y2277D01*
X467376Y2188D01*
X467365Y2077D01*
Y1966D01*
X467343Y1843D01*
X467309Y1566D01*
X467242Y1288D01*
X467165Y1010D01*
X467054Y755D01*
Y744D01*
X467042Y733D01*
X467020Y699D01*
X466998Y655D01*
X466920Y544D01*
X466820Y410D01*
X466687Y255D01*
X466520Y99D01*
X466331Y-56D01*
X466109Y-201D01*
X466098D01*
X466087Y-212D01*
X466054Y-234D01*
X465998Y-256D01*
X465943Y-279D01*
X465876Y-301D01*
X465709Y-367D01*
X465520Y-423D01*
X465287Y-478D01*
X465043Y-523D01*
X464776Y-534D01*
X464665D01*
X464576Y-523D01*
X464476Y-512D01*
X464365Y-490D01*
X464232Y-467D01*
X464098Y-445D01*
X463798Y-356D01*
X463632Y-290D01*
X463476Y-223D01*
X463321Y-134D01*
X463165Y-34D01*
X463021Y77D01*
X462876Y210D01*
X462865Y222D01*
X462843Y244D01*
X462810Y288D01*
X462765Y355D01*
X462710Y433D01*
X462654Y521D01*
X462587Y632D01*
X462521Y766D01*
X462454Y910D01*
X462387Y1077D01*
X462332Y1255D01*
X462276Y1444D01*
X462232Y1655D01*
X462198Y1877D01*
X462176Y2121D01*
X462165Y2377D01*
Y2399D01*
Y2444D01*
X462176Y2521D01*
Y2632D01*
X462187Y2754D01*
X462210Y2910D01*
X462232Y3066D01*
X462276Y3243D01*
X462321Y3421D01*
X462376Y3610D01*
X462443Y3810D01*
X462532Y3999D01*
X462621Y4177D01*
X462743Y4354D01*
X462865Y4521D01*
X463021Y4665D01*
X463032Y4677D01*
X463054Y4688D01*
X463098Y4721D01*
X463154Y4765D01*
X463221Y4810D01*
X463309Y4865D01*
X463398Y4921D01*
X463510Y4976D01*
X463632Y5032D01*
X463765Y5088D01*
X464065Y5188D01*
X464409Y5265D01*
X464587Y5277D01*
X464776Y5288D01*
X464887D01*
X464965Y5277D01*
D02*
G37*
G36*
X497473Y-412D02*
X496595D01*
Y288D01*
X496584Y277D01*
X496573Y255D01*
X496539Y210D01*
X496495Y155D01*
X496440Y99D01*
X496373Y33D01*
X496295Y-45D01*
X496195Y-123D01*
X496095Y-201D01*
X495984Y-279D01*
X495851Y-345D01*
X495706Y-401D01*
X495562Y-456D01*
X495395Y-501D01*
X495218Y-523D01*
X495029Y-534D01*
X494962D01*
X494917Y-523D01*
X494784Y-512D01*
X494629Y-490D01*
X494440Y-445D01*
X494229Y-378D01*
X494018Y-290D01*
X493807Y-167D01*
X493795D01*
X493784Y-145D01*
X493718Y-101D01*
X493618Y-12D01*
X493495Y99D01*
X493351Y244D01*
X493207Y421D01*
X493062Y621D01*
X492940Y855D01*
Y866D01*
X492929Y888D01*
X492918Y921D01*
X492896Y966D01*
X492873Y1032D01*
X492840Y1110D01*
X492818Y1188D01*
X492796Y1288D01*
X492740Y1510D01*
X492684Y1766D01*
X492651Y2055D01*
X492640Y2366D01*
Y2377D01*
Y2399D01*
Y2444D01*
Y2510D01*
X492651Y2577D01*
Y2666D01*
X492673Y2866D01*
X492707Y3099D01*
X492762Y3354D01*
X492829Y3621D01*
X492918Y3877D01*
Y3888D01*
X492929Y3910D01*
X492951Y3943D01*
X492973Y3988D01*
X493040Y4110D01*
X493129Y4265D01*
X493240Y4432D01*
X493384Y4599D01*
X493551Y4777D01*
X493751Y4921D01*
X493762D01*
X493773Y4932D01*
X493807Y4954D01*
X493851Y4976D01*
X493962Y5032D01*
X494118Y5110D01*
X494295Y5176D01*
X494506Y5232D01*
X494740Y5277D01*
X494984Y5288D01*
X495073D01*
X495162Y5277D01*
X495284Y5265D01*
X495429Y5232D01*
X495584Y5199D01*
X495740Y5143D01*
X495884Y5065D01*
X495906Y5054D01*
X495951Y5032D01*
X496017Y4976D01*
X496106Y4921D01*
X496217Y4843D01*
X496317Y4743D01*
X496428Y4643D01*
X496528Y4521D01*
Y7276D01*
X497473D01*
Y-412D01*
D02*
G37*
G36*
X480452Y7399D02*
X480530D01*
X480741Y7376D01*
X480974Y7343D01*
X481219Y7287D01*
X481486Y7221D01*
X481730Y7132D01*
X481741D01*
X481763Y7121D01*
X481797Y7099D01*
X481841Y7076D01*
X481952Y7021D01*
X482097Y6921D01*
X482263Y6810D01*
X482430Y6665D01*
X482585Y6499D01*
X482730Y6310D01*
Y6299D01*
X482741Y6288D01*
X482763Y6254D01*
X482785Y6221D01*
X482841Y6110D01*
X482908Y5965D01*
X482985Y5788D01*
X483041Y5576D01*
X483097Y5354D01*
X483119Y5110D01*
X482141Y5032D01*
Y5043D01*
Y5065D01*
X482130Y5099D01*
X482119Y5154D01*
X482085Y5277D01*
X482041Y5443D01*
X481974Y5621D01*
X481874Y5799D01*
X481752Y5965D01*
X481597Y6121D01*
X481574Y6132D01*
X481519Y6176D01*
X481408Y6243D01*
X481263Y6310D01*
X481074Y6376D01*
X480852Y6443D01*
X480575Y6487D01*
X480263Y6499D01*
X480108D01*
X480041Y6487D01*
X479952Y6476D01*
X479752Y6454D01*
X479530Y6410D01*
X479308Y6354D01*
X479097Y6265D01*
X479008Y6210D01*
X478919Y6154D01*
X478897Y6143D01*
X478852Y6099D01*
X478786Y6021D01*
X478719Y5932D01*
X478641Y5810D01*
X478575Y5677D01*
X478530Y5521D01*
X478508Y5343D01*
Y5321D01*
Y5277D01*
X478519Y5199D01*
X478541Y5110D01*
X478575Y4999D01*
X478630Y4888D01*
X478697Y4777D01*
X478797Y4665D01*
X478808Y4654D01*
X478863Y4621D01*
X478908Y4588D01*
X478952Y4566D01*
X479019Y4532D01*
X479097Y4488D01*
X479197Y4454D01*
X479308Y4410D01*
X479430Y4366D01*
X479575Y4310D01*
X479730Y4265D01*
X479908Y4210D01*
X480108Y4166D01*
X480330Y4110D01*
X480341D01*
X480386Y4099D01*
X480452Y4088D01*
X480530Y4065D01*
X480630Y4043D01*
X480752Y4010D01*
X480874Y3977D01*
X481008Y3943D01*
X481297Y3866D01*
X481574Y3788D01*
X481708Y3743D01*
X481830Y3699D01*
X481941Y3666D01*
X482030Y3621D01*
X482041D01*
X482063Y3610D01*
X482097Y3588D01*
X482141Y3566D01*
X482263Y3499D01*
X482408Y3410D01*
X482574Y3288D01*
X482741Y3154D01*
X482897Y2999D01*
X483030Y2832D01*
X483041Y2810D01*
X483085Y2754D01*
X483130Y2655D01*
X483196Y2521D01*
X483252Y2366D01*
X483308Y2177D01*
X483341Y1966D01*
X483352Y1743D01*
Y1732D01*
Y1721D01*
Y1688D01*
Y1643D01*
X483330Y1521D01*
X483308Y1366D01*
X483263Y1188D01*
X483208Y999D01*
X483119Y799D01*
X482997Y588D01*
Y577D01*
X482985Y566D01*
X482930Y499D01*
X482852Y399D01*
X482741Y288D01*
X482596Y155D01*
X482419Y10D01*
X482219Y-123D01*
X481986Y-245D01*
X481974D01*
X481952Y-256D01*
X481919Y-267D01*
X481874Y-290D01*
X481808Y-312D01*
X481730Y-345D01*
X481552Y-390D01*
X481341Y-445D01*
X481085Y-501D01*
X480808Y-534D01*
X480508Y-545D01*
X480330D01*
X480241Y-534D01*
X480141D01*
X480030Y-523D01*
X479897Y-512D01*
X479619Y-467D01*
X479330Y-423D01*
X479041Y-345D01*
X478764Y-245D01*
X478752D01*
X478730Y-234D01*
X478697Y-212D01*
X478652Y-190D01*
X478519Y-123D01*
X478364Y-23D01*
X478186Y110D01*
X477997Y266D01*
X477819Y455D01*
X477653Y666D01*
Y677D01*
X477630Y699D01*
X477619Y733D01*
X477586Y777D01*
X477564Y833D01*
X477530Y899D01*
X477453Y1066D01*
X477375Y1277D01*
X477308Y1510D01*
X477264Y1777D01*
X477242Y2055D01*
X478197Y2144D01*
Y2132D01*
Y2121D01*
X478208Y2088D01*
Y2043D01*
X478230Y1943D01*
X478264Y1799D01*
X478308Y1655D01*
X478352Y1488D01*
X478430Y1333D01*
X478508Y1188D01*
X478519Y1177D01*
X478552Y1132D01*
X478608Y1055D01*
X478697Y977D01*
X478808Y877D01*
X478930Y777D01*
X479097Y677D01*
X479275Y588D01*
X479286D01*
X479297Y577D01*
X479330Y566D01*
X479363Y555D01*
X479475Y521D01*
X479619Y477D01*
X479797Y433D01*
X479997Y399D01*
X480219Y377D01*
X480463Y366D01*
X480563D01*
X480675Y377D01*
X480808Y388D01*
X480963Y410D01*
X481141Y433D01*
X481319Y477D01*
X481486Y532D01*
X481508Y544D01*
X481563Y566D01*
X481641Y610D01*
X481741Y655D01*
X481841Y733D01*
X481952Y810D01*
X482063Y899D01*
X482152Y1010D01*
X482163Y1021D01*
X482185Y1066D01*
X482219Y1121D01*
X482263Y1210D01*
X482308Y1299D01*
X482341Y1410D01*
X482363Y1532D01*
X482374Y1666D01*
Y1677D01*
Y1732D01*
X482363Y1799D01*
X482352Y1888D01*
X482319Y1977D01*
X482285Y2088D01*
X482230Y2199D01*
X482152Y2299D01*
X482141Y2310D01*
X482108Y2344D01*
X482063Y2388D01*
X481986Y2455D01*
X481897Y2521D01*
X481774Y2599D01*
X481630Y2677D01*
X481463Y2743D01*
X481452Y2754D01*
X481397Y2766D01*
X481308Y2799D01*
X481252Y2810D01*
X481174Y2832D01*
X481097Y2866D01*
X480997Y2888D01*
X480886Y2921D01*
X480752Y2954D01*
X480619Y2988D01*
X480463Y3032D01*
X480286Y3077D01*
X480097Y3121D01*
X480086D01*
X480052Y3132D01*
X479997Y3143D01*
X479930Y3166D01*
X479841Y3188D01*
X479741Y3210D01*
X479519Y3277D01*
X479275Y3354D01*
X479019Y3432D01*
X478797Y3510D01*
X478697Y3554D01*
X478608Y3599D01*
X478597D01*
X478586Y3610D01*
X478519Y3654D01*
X478419Y3710D01*
X478308Y3799D01*
X478175Y3899D01*
X478041Y4021D01*
X477908Y4166D01*
X477797Y4321D01*
X477786Y4343D01*
X477752Y4399D01*
X477708Y4488D01*
X477664Y4599D01*
X477619Y4743D01*
X477575Y4910D01*
X477541Y5088D01*
X477530Y5277D01*
Y5288D01*
Y5299D01*
Y5332D01*
Y5376D01*
X477553Y5488D01*
X477575Y5632D01*
X477608Y5799D01*
X477664Y5988D01*
X477741Y6176D01*
X477852Y6365D01*
Y6376D01*
X477864Y6387D01*
X477919Y6454D01*
X477997Y6543D01*
X478097Y6654D01*
X478230Y6776D01*
X478397Y6910D01*
X478597Y7032D01*
X478819Y7143D01*
X478830D01*
X478852Y7154D01*
X478886Y7165D01*
X478930Y7187D01*
X478986Y7210D01*
X479064Y7232D01*
X479230Y7276D01*
X479441Y7321D01*
X479686Y7365D01*
X479941Y7399D01*
X480230Y7410D01*
X480374D01*
X480452Y7399D01*
D02*
G37*
G36*
X507172Y5277D02*
X507294Y5254D01*
X507439Y5210D01*
X507594Y5154D01*
X507772Y5077D01*
X507961Y4976D01*
X507616Y4110D01*
X507605Y4121D01*
X507561Y4143D01*
X507494Y4177D01*
X507405Y4210D01*
X507305Y4243D01*
X507183Y4277D01*
X507061Y4299D01*
X506939Y4310D01*
X506883D01*
X506827Y4299D01*
X506750Y4288D01*
X506672Y4265D01*
X506572Y4232D01*
X506472Y4188D01*
X506383Y4121D01*
X506372Y4110D01*
X506339Y4088D01*
X506305Y4043D01*
X506250Y3988D01*
X506194Y3910D01*
X506139Y3821D01*
X506083Y3721D01*
X506039Y3599D01*
X506028Y3577D01*
X506016Y3510D01*
X505994Y3410D01*
X505961Y3277D01*
X505928Y3110D01*
X505905Y2921D01*
X505894Y2721D01*
X505883Y2499D01*
Y-412D01*
X504939D01*
Y5165D01*
X505794D01*
Y4321D01*
X505805Y4332D01*
X505850Y4410D01*
X505905Y4510D01*
X505994Y4632D01*
X506083Y4754D01*
X506183Y4888D01*
X506283Y4999D01*
X506383Y5088D01*
X506394Y5099D01*
X506427Y5121D01*
X506494Y5154D01*
X506561Y5188D01*
X506650Y5221D01*
X506761Y5254D01*
X506872Y5277D01*
X506994Y5288D01*
X507072D01*
X507172Y5277D01*
D02*
G37*
G36*
X471142D02*
X471220Y5265D01*
X471386Y5243D01*
X471587Y5199D01*
X471798Y5132D01*
X472009Y5032D01*
X472220Y4910D01*
X472231D01*
X472242Y4888D01*
X472309Y4843D01*
X472409Y4754D01*
X472531Y4643D01*
X472664Y4499D01*
X472797Y4321D01*
X472931Y4110D01*
X473042Y3877D01*
Y3866D01*
X473053Y3843D01*
X473064Y3810D01*
X473086Y3766D01*
X473109Y3699D01*
X473131Y3621D01*
X473186Y3443D01*
X473242Y3221D01*
X473286Y2977D01*
X473320Y2699D01*
X473331Y2410D01*
Y2399D01*
Y2377D01*
Y2332D01*
Y2266D01*
X473320Y2188D01*
Y2099D01*
X473297Y1899D01*
X473253Y1655D01*
X473197Y1399D01*
X473120Y1132D01*
X473020Y866D01*
Y855D01*
X473009Y833D01*
X472986Y799D01*
X472964Y755D01*
X472886Y632D01*
X472786Y477D01*
X472664Y310D01*
X472509Y144D01*
X472331Y-23D01*
X472120Y-178D01*
X472109D01*
X472097Y-190D01*
X472064Y-212D01*
X472020Y-234D01*
X471909Y-290D01*
X471753Y-356D01*
X471564Y-423D01*
X471364Y-478D01*
X471131Y-523D01*
X470898Y-534D01*
X470820D01*
X470731Y-523D01*
X470620Y-512D01*
X470487Y-490D01*
X470342Y-456D01*
X470198Y-412D01*
X470053Y-345D01*
X470042Y-334D01*
X469987Y-312D01*
X469920Y-267D01*
X469831Y-201D01*
X469742Y-134D01*
X469631Y-45D01*
X469531Y55D01*
X469442Y166D01*
Y-2545D01*
X468498D01*
Y5165D01*
X469353D01*
Y4432D01*
X469365Y4454D01*
X469409Y4499D01*
X469464Y4577D01*
X469553Y4665D01*
X469653Y4777D01*
X469765Y4877D01*
X469898Y4976D01*
X470031Y5065D01*
X470053Y5077D01*
X470098Y5099D01*
X470187Y5132D01*
X470298Y5176D01*
X470431Y5221D01*
X470587Y5254D01*
X470764Y5277D01*
X470964Y5288D01*
X471087D01*
X471142Y5277D01*
D02*
G37*
%LPC*%
G36*
X495084Y4510D02*
X495029D01*
X494984Y4499D01*
X494862Y4488D01*
X494718Y4443D01*
X494551Y4388D01*
X494373Y4288D01*
X494195Y4166D01*
X494106Y4077D01*
X494029Y3988D01*
Y3977D01*
X494006Y3965D01*
X493995Y3932D01*
X493962Y3888D01*
X493929Y3832D01*
X493895Y3766D01*
X493862Y3688D01*
X493818Y3599D01*
X493773Y3488D01*
X493740Y3366D01*
X493707Y3232D01*
X493673Y3088D01*
X493651Y2932D01*
X493629Y2754D01*
X493607Y2566D01*
Y2366D01*
Y2355D01*
Y2321D01*
Y2266D01*
X493618Y2188D01*
Y2099D01*
X493629Y1999D01*
X493662Y1766D01*
X493718Y1510D01*
X493795Y1244D01*
X493906Y988D01*
X493973Y877D01*
X494051Y766D01*
X494062D01*
X494073Y744D01*
X494129Y688D01*
X494229Y599D01*
X494351Y510D01*
X494506Y410D01*
X494695Y322D01*
X494895Y266D01*
X495006Y255D01*
X495118Y244D01*
X495173D01*
X495218Y255D01*
X495340Y266D01*
X495484Y310D01*
X495651Y366D01*
X495828Y455D01*
X496006Y577D01*
X496095Y655D01*
X496173Y744D01*
Y755D01*
X496195Y766D01*
X496217Y799D01*
X496240Y844D01*
X496273Y899D01*
X496317Y955D01*
X496351Y1044D01*
X496395Y1132D01*
X496440Y1233D01*
X496473Y1344D01*
X496517Y1477D01*
X496551Y1610D01*
X496573Y1766D01*
X496595Y1921D01*
X496617Y2099D01*
Y2288D01*
Y2299D01*
Y2344D01*
Y2399D01*
X496606Y2477D01*
Y2566D01*
X496595Y2677D01*
X496584Y2799D01*
X496562Y2932D01*
X496506Y3199D01*
X496428Y3477D01*
X496317Y3743D01*
X496251Y3854D01*
X496173Y3965D01*
Y3977D01*
X496151Y3988D01*
X496095Y4054D01*
X495995Y4143D01*
X495873Y4243D01*
X495717Y4343D01*
X495529Y4421D01*
X495318Y4488D01*
X495206Y4499D01*
X495084Y4510D01*
D02*
G37*
G36*
X501261D02*
X501195D01*
X501150Y4499D01*
X501028Y4488D01*
X500884Y4454D01*
X500706Y4399D01*
X500517Y4321D01*
X500339Y4210D01*
X500161Y4065D01*
X500139Y4043D01*
X500095Y3988D01*
X500017Y3888D01*
X499939Y3754D01*
X499850Y3599D01*
X499773Y3399D01*
X499706Y3166D01*
X499673Y2910D01*
X502795D01*
Y2921D01*
Y2943D01*
X502783Y2977D01*
Y3021D01*
X502761Y3154D01*
X502728Y3299D01*
X502672Y3477D01*
X502617Y3643D01*
X502528Y3810D01*
X502428Y3954D01*
Y3965D01*
X502406Y3977D01*
X502350Y4043D01*
X502250Y4132D01*
X502117Y4232D01*
X501950Y4332D01*
X501750Y4421D01*
X501517Y4488D01*
X501395Y4499D01*
X501261Y4510D01*
D02*
G37*
G36*
X486885D02*
X486818D01*
X486763Y4499D01*
X486641Y4488D01*
X486474Y4443D01*
X486285Y4377D01*
X486085Y4288D01*
X485896Y4154D01*
X485796Y4065D01*
X485707Y3977D01*
Y3965D01*
X485685Y3954D01*
X485663Y3921D01*
X485630Y3877D01*
X485596Y3821D01*
X485563Y3754D01*
X485518Y3666D01*
X485474Y3577D01*
X485430Y3466D01*
X485385Y3354D01*
X485352Y3221D01*
X485319Y3077D01*
X485285Y2921D01*
X485263Y2754D01*
X485252Y2566D01*
X485241Y2377D01*
Y2366D01*
Y2332D01*
Y2277D01*
X485252Y2199D01*
Y2110D01*
X485263Y2010D01*
X485296Y1777D01*
X485352Y1510D01*
X485441Y1244D01*
X485552Y988D01*
X485630Y877D01*
X485707Y766D01*
X485718D01*
X485730Y744D01*
X485796Y688D01*
X485896Y599D01*
X486029Y510D01*
X486196Y410D01*
X486396Y322D01*
X486629Y266D01*
X486752Y255D01*
X486885Y244D01*
X486952D01*
X487007Y255D01*
X487129Y277D01*
X487296Y310D01*
X487474Y377D01*
X487674Y466D01*
X487863Y599D01*
X487963Y688D01*
X488052Y777D01*
X488063Y788D01*
X488074Y799D01*
X488096Y833D01*
X488129Y877D01*
X488163Y933D01*
X488207Y999D01*
X488251Y1088D01*
X488296Y1177D01*
X488340Y1288D01*
X488374Y1410D01*
X488418Y1543D01*
X488451Y1688D01*
X488485Y1855D01*
X488507Y2021D01*
X488529Y2210D01*
Y2410D01*
Y2421D01*
Y2455D01*
Y2510D01*
X488518Y2577D01*
Y2666D01*
X488507Y2766D01*
X488474Y2999D01*
X488418Y3243D01*
X488329Y3510D01*
X488207Y3754D01*
X488140Y3877D01*
X488052Y3977D01*
Y3988D01*
X488029Y3999D01*
X487963Y4065D01*
X487863Y4143D01*
X487729Y4243D01*
X487563Y4343D01*
X487363Y4432D01*
X487141Y4488D01*
X487018Y4499D01*
X486885Y4510D01*
D02*
G37*
G36*
X464776D02*
X464709D01*
X464654Y4499D01*
X464532Y4488D01*
X464365Y4443D01*
X464176Y4377D01*
X463976Y4288D01*
X463787Y4154D01*
X463687Y4065D01*
X463598Y3977D01*
Y3965D01*
X463576Y3954D01*
X463554Y3921D01*
X463521Y3877D01*
X463487Y3821D01*
X463454Y3754D01*
X463410Y3666D01*
X463365Y3577D01*
X463321Y3466D01*
X463276Y3354D01*
X463243Y3221D01*
X463210Y3077D01*
X463176Y2921D01*
X463154Y2754D01*
X463143Y2566D01*
X463132Y2377D01*
Y2366D01*
Y2332D01*
Y2277D01*
X463143Y2199D01*
Y2110D01*
X463154Y2010D01*
X463187Y1777D01*
X463243Y1510D01*
X463332Y1244D01*
X463443Y988D01*
X463521Y877D01*
X463598Y766D01*
X463610D01*
X463621Y744D01*
X463687Y688D01*
X463787Y599D01*
X463921Y510D01*
X464087Y410D01*
X464287Y322D01*
X464521Y266D01*
X464643Y255D01*
X464776Y244D01*
X464843D01*
X464898Y255D01*
X465021Y277D01*
X465187Y310D01*
X465365Y377D01*
X465565Y466D01*
X465754Y599D01*
X465854Y688D01*
X465943Y777D01*
X465954Y788D01*
X465965Y799D01*
X465987Y833D01*
X466020Y877D01*
X466054Y933D01*
X466098Y999D01*
X466143Y1088D01*
X466187Y1177D01*
X466231Y1288D01*
X466265Y1410D01*
X466309Y1543D01*
X466343Y1688D01*
X466376Y1855D01*
X466398Y2021D01*
X466420Y2210D01*
Y2410D01*
Y2421D01*
Y2455D01*
Y2510D01*
X466409Y2577D01*
Y2666D01*
X466398Y2766D01*
X466365Y2999D01*
X466309Y3243D01*
X466220Y3510D01*
X466098Y3754D01*
X466032Y3877D01*
X465943Y3977D01*
Y3988D01*
X465920Y3999D01*
X465854Y4065D01*
X465754Y4143D01*
X465620Y4243D01*
X465454Y4343D01*
X465254Y4432D01*
X465032Y4488D01*
X464909Y4499D01*
X464776Y4510D01*
D02*
G37*
G36*
X470876Y4543D02*
X470820D01*
X470776Y4532D01*
X470664Y4510D01*
X470520Y4477D01*
X470353Y4410D01*
X470176Y4310D01*
X470076Y4243D01*
X469987Y4166D01*
X469898Y4077D01*
X469809Y3977D01*
Y3965D01*
X469787Y3954D01*
X469765Y3921D01*
X469742Y3877D01*
X469709Y3810D01*
X469664Y3743D01*
X469620Y3654D01*
X469587Y3566D01*
X469542Y3455D01*
X469498Y3332D01*
X469464Y3199D01*
X469420Y3054D01*
X469398Y2888D01*
X469376Y2721D01*
X469353Y2543D01*
Y2344D01*
Y2332D01*
Y2299D01*
Y2244D01*
X469365Y2166D01*
Y2077D01*
X469376Y1977D01*
X469409Y1743D01*
X469464Y1477D01*
X469531Y1221D01*
X469642Y966D01*
X469709Y855D01*
X469787Y755D01*
X469809Y733D01*
X469864Y677D01*
X469953Y588D01*
X470076Y499D01*
X470231Y410D01*
X470409Y322D01*
X470609Y266D01*
X470720Y255D01*
X470831Y244D01*
X470898D01*
X470942Y255D01*
X471053Y277D01*
X471209Y310D01*
X471375Y377D01*
X471553Y466D01*
X471731Y599D01*
X471820Y677D01*
X471909Y766D01*
Y777D01*
X471931Y788D01*
X471953Y821D01*
X471975Y866D01*
X472020Y921D01*
X472053Y999D01*
X472097Y1077D01*
X472142Y1177D01*
X472175Y1277D01*
X472220Y1410D01*
X472264Y1543D01*
X472297Y1688D01*
X472320Y1855D01*
X472342Y2032D01*
X472364Y2221D01*
Y2421D01*
Y2432D01*
Y2466D01*
Y2521D01*
X472353Y2599D01*
Y2688D01*
X472342Y2788D01*
X472309Y3021D01*
X472253Y3277D01*
X472175Y3532D01*
X472064Y3788D01*
X471998Y3910D01*
X471920Y4010D01*
Y4021D01*
X471898Y4032D01*
X471842Y4099D01*
X471753Y4177D01*
X471631Y4277D01*
X471475Y4377D01*
X471298Y4465D01*
X471098Y4521D01*
X470987Y4532D01*
X470876Y4543D01*
D02*
G37*
%LPD*%
D50*
X123819Y112598D02*
D03*
X129724D02*
D03*
X123819Y118110D02*
D03*
X129724D02*
D03*
X24606Y107677D02*
D03*
X30512D02*
D03*
X105953Y128000D02*
D03*
X100047D02*
D03*
X98547Y115000D02*
D03*
X104453D02*
D03*
X98547Y104803D02*
D03*
X104453D02*
D03*
X90453Y105000D02*
D03*
X84547D02*
D03*
X77000Y87000D02*
D03*
X71095D02*
D03*
Y93303D02*
D03*
X77000D02*
D03*
X71095Y80500D02*
D03*
X77000D02*
D03*
X71095Y74000D02*
D03*
X77000D02*
D03*
X62953Y11500D02*
D03*
X57047D02*
D03*
X62953Y5000D02*
D03*
X57047D02*
D03*
X39567Y-1575D02*
D03*
X45472D02*
D03*
X68047Y5000D02*
D03*
X73953D02*
D03*
X80453Y26000D02*
D03*
X74547D02*
D03*
X57047Y17803D02*
D03*
X62953D02*
D03*
X39047Y20303D02*
D03*
X44953D02*
D03*
X28453Y14000D02*
D03*
X22547D02*
D03*
Y7500D02*
D03*
X28453D02*
D03*
X22547Y803D02*
D03*
X28453D02*
D03*
X53453Y56197D02*
D03*
X47547D02*
D03*
X24047Y86500D02*
D03*
X29953D02*
D03*
X24094Y79803D02*
D03*
X30000D02*
D03*
X24094Y73606D02*
D03*
X30000D02*
D03*
Y67500D02*
D03*
X24094D02*
D03*
X30000Y61303D02*
D03*
X24094D02*
D03*
X29953Y55000D02*
D03*
X24047D02*
D03*
X13047Y86500D02*
D03*
X18953D02*
D03*
X29953Y92697D02*
D03*
X24047D02*
D03*
Y99000D02*
D03*
X29953D02*
D03*
X30512Y113386D02*
D03*
X24606D02*
D03*
X52453Y107197D02*
D03*
X46547D02*
D03*
Y114000D02*
D03*
X52453D02*
D03*
X113047Y128000D02*
D03*
X118953D02*
D03*
X113047Y121500D02*
D03*
X118953D02*
D03*
D51*
X162000Y104453D02*
D03*
Y98547D02*
D03*
X168697D02*
D03*
Y104453D02*
D03*
X172500Y128953D02*
D03*
Y123047D02*
D03*
X172303Y139953D02*
D03*
Y134047D02*
D03*
X161803Y117453D02*
D03*
Y111547D02*
D03*
X95803Y80453D02*
D03*
Y74547D02*
D03*
X95697Y87547D02*
D03*
Y93453D02*
D03*
D52*
X176000Y97654D02*
D03*
Y104347D02*
D03*
X197500Y97654D02*
D03*
Y104347D02*
D03*
X179000Y140347D02*
D03*
Y133653D02*
D03*
X165013Y139847D02*
D03*
Y133153D02*
D03*
D53*
X197500Y117476D02*
D03*
Y139524D02*
D03*
X6500Y78024D02*
D03*
Y55976D02*
D03*
D54*
X84000Y126300D02*
D03*
D55*
X92000Y130000D02*
D03*
Y122500D02*
D03*
D56*
X106000Y89323D02*
D03*
Y97000D02*
D03*
Y91882D02*
D03*
Y86764D02*
D03*
Y84205D02*
D03*
Y81646D02*
D03*
Y79087D02*
D03*
Y76528D02*
D03*
Y73968D02*
D03*
X135921Y97000D02*
D03*
Y94441D02*
D03*
Y91882D02*
D03*
Y89323D02*
D03*
Y86764D02*
D03*
Y84205D02*
D03*
Y81646D02*
D03*
Y79087D02*
D03*
Y76528D02*
D03*
Y73968D02*
D03*
X106000Y94441D02*
D03*
D57*
X86500Y75700D02*
D03*
Y92300D02*
D03*
D58*
X82012Y15500D02*
D03*
X70988D02*
D03*
X16488Y27000D02*
D03*
X27512D02*
D03*
X16488Y42000D02*
D03*
X27512D02*
D03*
X44988Y67500D02*
D03*
X56012D02*
D03*
D59*
X36980Y12339D02*
D03*
Y9780D02*
D03*
Y7220D02*
D03*
Y4661D02*
D03*
X47020Y12339D02*
D03*
Y9780D02*
D03*
Y7220D02*
D03*
Y4661D02*
D03*
D60*
X60819Y81543D02*
D03*
Y84102D02*
D03*
Y86661D02*
D03*
Y89220D02*
D03*
Y91780D02*
D03*
Y94339D02*
D03*
Y96898D02*
D03*
Y99457D02*
D03*
X38181Y81543D02*
D03*
Y84102D02*
D03*
Y86661D02*
D03*
Y89220D02*
D03*
Y91780D02*
D03*
Y94339D02*
D03*
Y96898D02*
D03*
Y99457D02*
D03*
D61*
X53780Y132018D02*
D03*
Y152018D02*
D03*
D62*
X13780Y142018D02*
D03*
X165918Y152249D02*
D03*
X175918D02*
D03*
X204041Y36216D02*
D03*
X214041D02*
D03*
X165800Y85827D02*
D03*
X175800D02*
D03*
X75000Y126500D02*
D03*
X108345Y7236D02*
D03*
Y17236D02*
D03*
X136000Y59500D02*
D03*
X126000D02*
D03*
X116000D02*
D03*
X106000D02*
D03*
D63*
X3292Y131245D02*
D03*
D64*
X185918Y152249D02*
D03*
X224041Y36216D02*
D03*
X185800Y85827D02*
D03*
X65000Y126500D02*
D03*
X146000Y59500D02*
D03*
D65*
X67389Y37687D02*
D03*
X47389D02*
D03*
X57389Y47687D02*
D03*
D66*
X53000Y31500D02*
D03*
X65000D02*
D03*
X168912Y7695D02*
D03*
D67*
X108345Y-2764D02*
D03*
D68*
X159857Y805D02*
D03*
Y14584D02*
D03*
X151589Y7695D02*
D03*
X108963Y142018D02*
D03*
X76680D02*
D03*
D69*
X176786Y7695D02*
D03*
D70*
X213753Y10193D02*
D03*
D71*
Y-5555D02*
D03*
D72*
X225564Y10193D02*
D03*
D73*
X100696Y142018D02*
D03*
X92822D02*
D03*
X84948D02*
D03*
D74*
X128970Y7602D02*
D03*
D75*
X223000Y128000D02*
D03*
X500Y27000D02*
D03*
D76*
X4239Y100680D02*
D03*
X222743D02*
D03*
M02*
