%FSLAX25Y25*%
%MOIN*%
G70*
G01*
G75*
G04 Layer_Color=12632256*
%ADD10R,0.02362X0.03543*%
%ADD11R,0.03543X0.02362*%
%ADD12R,0.03937X0.04331*%
%ADD13R,0.06299X0.13780*%
%ADD14R,0.05000X0.03600*%
%ADD15R,0.03600X0.03600*%
%ADD16R,0.06693X0.01750*%
%ADD17R,0.08661X0.05118*%
%ADD18R,0.06299X0.07874*%
%ADD19O,0.04921X0.01772*%
%ADD20R,0.06102X0.01378*%
%ADD21C,0.01000*%
%ADD22C,0.00800*%
%ADD23C,0.02500*%
%ADD24C,0.02000*%
%ADD25C,0.08000*%
%ADD26C,0.07000*%
%ADD27C,0.10000*%
%ADD28R,0.07000X0.07000*%
%ADD29C,0.04724*%
%ADD30C,0.05906*%
%ADD31R,0.07000X0.07000*%
%ADD32C,0.08661*%
%ADD33C,0.07874*%
G04:AMPARAMS|DCode=34|XSize=118.11mil|YSize=39.37mil|CornerRadius=19.69mil|HoleSize=0mil|Usage=FLASHONLY|Rotation=0.000|XOffset=0mil|YOffset=0mil|HoleType=Round|Shape=RoundedRectangle|*
%AMROUNDEDRECTD34*
21,1,0.11811,0.00000,0,0,0.0*
21,1,0.07874,0.03937,0,0,0.0*
1,1,0.03937,0.03937,0.00000*
1,1,0.03937,-0.03937,0.00000*
1,1,0.03937,-0.03937,0.00000*
1,1,0.03937,0.03937,0.00000*
%
%ADD34ROUNDEDRECTD34*%
%ADD35O,0.15748X0.03937*%
G04:AMPARAMS|DCode=36|XSize=118.11mil|YSize=39.37mil|CornerRadius=19.69mil|HoleSize=0mil|Usage=FLASHONLY|Rotation=90.000|XOffset=0mil|YOffset=0mil|HoleType=Round|Shape=RoundedRectangle|*
%AMROUNDEDRECTD36*
21,1,0.11811,0.00000,0,0,90.0*
21,1,0.07874,0.03937,0,0,90.0*
1,1,0.03937,0.00000,0.03937*
1,1,0.03937,0.00000,-0.03937*
1,1,0.03937,0.00000,-0.03937*
1,1,0.03937,0.00000,0.03937*
%
%ADD36ROUNDEDRECTD36*%
%ADD37C,0.05512*%
%ADD38C,0.17716*%
%ADD39C,0.07874*%
%ADD40C,0.03937*%
%ADD41C,0.03150*%
%ADD42R,0.05118X0.05906*%
%ADD43R,0.05315X0.02953*%
%ADD44C,0.01200*%
%ADD45C,0.00787*%
%ADD46C,0.01500*%
%ADD47C,0.00394*%
%ADD48C,0.00700*%
%ADD49C,0.00591*%
%ADD50R,0.03162X0.04343*%
%ADD51R,0.04343X0.03162*%
%ADD52R,0.04737X0.05131*%
%ADD53R,0.07099X0.14579*%
%ADD54R,0.05800X0.04400*%
%ADD55R,0.04400X0.04400*%
%ADD56R,0.07493X0.02550*%
%ADD57R,0.09461X0.05918*%
%ADD58R,0.07099X0.08674*%
%ADD59O,0.05721X0.02572*%
%ADD60R,0.06902X0.02178*%
%ADD61C,0.08800*%
%ADD62C,0.07800*%
%ADD63C,0.10800*%
%ADD64R,0.07800X0.07800*%
%ADD65C,0.05524*%
%ADD66C,0.06706*%
%ADD67R,0.07800X0.07800*%
%ADD68C,0.09461*%
%ADD69C,0.08674*%
G04:AMPARAMS|DCode=70|XSize=126.11mil|YSize=47.37mil|CornerRadius=23.69mil|HoleSize=0mil|Usage=FLASHONLY|Rotation=0.000|XOffset=0mil|YOffset=0mil|HoleType=Round|Shape=RoundedRectangle|*
%AMROUNDEDRECTD70*
21,1,0.12611,0.00000,0,0,0.0*
21,1,0.07874,0.04737,0,0,0.0*
1,1,0.04737,0.03937,0.00000*
1,1,0.04737,-0.03937,0.00000*
1,1,0.04737,-0.03937,0.00000*
1,1,0.04737,0.03937,0.00000*
%
%ADD70ROUNDEDRECTD70*%
%ADD71O,0.16548X0.04737*%
G04:AMPARAMS|DCode=72|XSize=126.11mil|YSize=47.37mil|CornerRadius=23.69mil|HoleSize=0mil|Usage=FLASHONLY|Rotation=90.000|XOffset=0mil|YOffset=0mil|HoleType=Round|Shape=RoundedRectangle|*
%AMROUNDEDRECTD72*
21,1,0.12611,0.00000,0,0,90.0*
21,1,0.07874,0.04737,0,0,90.0*
1,1,0.04737,0.00000,0.03937*
1,1,0.04737,0.00000,-0.03937*
1,1,0.04737,0.00000,-0.03937*
1,1,0.04737,0.00000,0.03937*
%
%ADD72ROUNDEDRECTD72*%
%ADD73C,0.06312*%
%ADD74C,0.18517*%
%ADD75C,0.13874*%
%ADD76C,0.04737*%
%ADD77R,0.05918X0.06706*%
%ADD78R,0.06115X0.03753*%
%ADD79C,0.00965*%
%ADD80C,0.03937*%
%ADD81C,0.01575*%
%ADD82C,0.01969*%
%ADD83C,0.00600*%
G36*
X476664Y46832D02*
X475719D01*
Y52409D01*
X476664D01*
Y46832D01*
D02*
G37*
G36*
X482785Y47743D02*
X486574D01*
Y46832D01*
X481763D01*
Y54520D01*
X482785D01*
Y47743D01*
D02*
G37*
G36*
X490262Y52521D02*
X490429Y52509D01*
X490618Y52487D01*
X490807Y52454D01*
X490996Y52409D01*
X491173Y52354D01*
X491196Y52343D01*
X491251Y52321D01*
X491329Y52287D01*
X491429Y52243D01*
X491540Y52176D01*
X491651Y52109D01*
X491751Y52021D01*
X491840Y51932D01*
X491851Y51921D01*
X491873Y51887D01*
X491907Y51832D01*
X491951Y51765D01*
X492007Y51665D01*
X492051Y51565D01*
X492096Y51443D01*
X492129Y51298D01*
Y51287D01*
X492140Y51254D01*
X492151Y51187D01*
X492162Y51099D01*
Y50976D01*
X492173Y50832D01*
X492184Y50643D01*
Y50432D01*
Y49165D01*
Y49154D01*
Y49110D01*
Y49043D01*
Y48954D01*
Y48854D01*
Y48732D01*
X492196Y48465D01*
Y48188D01*
X492207Y47910D01*
X492218Y47788D01*
Y47677D01*
X492229Y47577D01*
X492240Y47499D01*
Y47488D01*
X492251Y47443D01*
X492262Y47377D01*
X492296Y47288D01*
X492318Y47188D01*
X492362Y47077D01*
X492418Y46955D01*
X492473Y46832D01*
X491484D01*
X491473Y46843D01*
X491462Y46888D01*
X491440Y46943D01*
X491407Y47032D01*
X491373Y47132D01*
X491351Y47254D01*
X491329Y47388D01*
X491307Y47532D01*
X491296D01*
X491285Y47510D01*
X491218Y47454D01*
X491118Y47377D01*
X490985Y47277D01*
X490818Y47177D01*
X490651Y47066D01*
X490474Y46966D01*
X490285Y46888D01*
X490262Y46877D01*
X490196Y46866D01*
X490096Y46832D01*
X489973Y46799D01*
X489818Y46766D01*
X489640Y46743D01*
X489440Y46721D01*
X489240Y46710D01*
X489151D01*
X489085Y46721D01*
X489007D01*
X488918Y46732D01*
X488718Y46766D01*
X488496Y46821D01*
X488251Y46899D01*
X488029Y47010D01*
X487829Y47155D01*
X487807Y47177D01*
X487751Y47232D01*
X487674Y47332D01*
X487585Y47466D01*
X487496Y47632D01*
X487418Y47821D01*
X487363Y48054D01*
X487352Y48166D01*
X487340Y48299D01*
Y48321D01*
Y48366D01*
X487352Y48443D01*
X487363Y48543D01*
X487385Y48665D01*
X487418Y48788D01*
X487463Y48921D01*
X487518Y49043D01*
X487529Y49054D01*
X487552Y49099D01*
X487596Y49165D01*
X487652Y49243D01*
X487718Y49332D01*
X487807Y49421D01*
X487896Y49510D01*
X488007Y49588D01*
X488018Y49599D01*
X488063Y49621D01*
X488118Y49665D01*
X488207Y49710D01*
X488307Y49754D01*
X488429Y49810D01*
X488552Y49854D01*
X488696Y49899D01*
X488707D01*
X488751Y49910D01*
X488818Y49932D01*
X488907Y49943D01*
X489018Y49965D01*
X489162Y49988D01*
X489329Y50021D01*
X489529Y50043D01*
X489540D01*
X489585Y50054D01*
X489640D01*
X489718Y50065D01*
X489807Y50076D01*
X489918Y50099D01*
X490040Y50110D01*
X490173Y50132D01*
X490440Y50187D01*
X490729Y50243D01*
X490985Y50310D01*
X491107Y50343D01*
X491218Y50376D01*
Y50388D01*
Y50410D01*
X491229Y50476D01*
Y50554D01*
Y50599D01*
Y50621D01*
Y50632D01*
Y50643D01*
Y50710D01*
X491218Y50821D01*
X491196Y50943D01*
X491162Y51076D01*
X491107Y51210D01*
X491040Y51332D01*
X490951Y51432D01*
X490940Y51443D01*
X490885Y51487D01*
X490796Y51532D01*
X490685Y51599D01*
X490529Y51654D01*
X490351Y51710D01*
X490129Y51743D01*
X489874Y51754D01*
X489762D01*
X489651Y51743D01*
X489496Y51721D01*
X489340Y51698D01*
X489174Y51654D01*
X489018Y51599D01*
X488885Y51521D01*
X488874Y51510D01*
X488829Y51476D01*
X488774Y51421D01*
X488707Y51332D01*
X488640Y51221D01*
X488563Y51076D01*
X488496Y50898D01*
X488429Y50699D01*
X487507Y50821D01*
Y50832D01*
X487518Y50843D01*
Y50876D01*
X487529Y50921D01*
X487563Y51021D01*
X487607Y51165D01*
X487663Y51310D01*
X487729Y51465D01*
X487818Y51621D01*
X487918Y51765D01*
X487929Y51776D01*
X487974Y51821D01*
X488040Y51887D01*
X488129Y51976D01*
X488251Y52065D01*
X488396Y52154D01*
X488563Y52254D01*
X488751Y52332D01*
X488763D01*
X488774Y52343D01*
X488807Y52354D01*
X488851Y52365D01*
X488963Y52398D01*
X489118Y52432D01*
X489296Y52465D01*
X489518Y52498D01*
X489751Y52521D01*
X490018Y52532D01*
X490140D01*
X490262Y52521D01*
D02*
G37*
G36*
X501483D02*
X501572Y52509D01*
X501684Y52487D01*
X501806Y52465D01*
X501950Y52432D01*
X502083Y52398D01*
X502239Y52343D01*
X502383Y52287D01*
X502539Y52210D01*
X502695Y52121D01*
X502850Y52021D01*
X502994Y51898D01*
X503128Y51765D01*
X503139Y51754D01*
X503161Y51732D01*
X503194Y51687D01*
X503239Y51621D01*
X503294Y51543D01*
X503350Y51454D01*
X503417Y51343D01*
X503483Y51210D01*
X503550Y51065D01*
X503617Y50910D01*
X503672Y50732D01*
X503728Y50543D01*
X503772Y50332D01*
X503805Y50110D01*
X503828Y49876D01*
X503839Y49621D01*
Y49610D01*
Y49565D01*
Y49488D01*
X503828Y49376D01*
X499661D01*
Y49365D01*
Y49332D01*
X499673Y49288D01*
Y49221D01*
X499684Y49143D01*
X499706Y49054D01*
X499739Y48854D01*
X499806Y48632D01*
X499895Y48388D01*
X500017Y48166D01*
X500173Y47965D01*
X500184D01*
X500195Y47943D01*
X500261Y47888D01*
X500361Y47810D01*
X500495Y47732D01*
X500672Y47643D01*
X500873Y47565D01*
X501095Y47510D01*
X501217Y47499D01*
X501350Y47488D01*
X501439D01*
X501539Y47499D01*
X501661Y47521D01*
X501795Y47554D01*
X501950Y47599D01*
X502095Y47666D01*
X502239Y47754D01*
X502250Y47765D01*
X502306Y47810D01*
X502372Y47877D01*
X502450Y47965D01*
X502539Y48088D01*
X502639Y48243D01*
X502739Y48421D01*
X502828Y48632D01*
X503805Y48510D01*
Y48499D01*
X503794Y48477D01*
X503783Y48432D01*
X503761Y48366D01*
X503728Y48299D01*
X503694Y48210D01*
X503606Y48021D01*
X503494Y47810D01*
X503339Y47588D01*
X503161Y47377D01*
X502939Y47177D01*
X502928D01*
X502906Y47155D01*
X502872Y47132D01*
X502828Y47099D01*
X502761Y47066D01*
X502695Y47032D01*
X502606Y46988D01*
X502506Y46943D01*
X502394Y46899D01*
X502283Y46854D01*
X502006Y46788D01*
X501695Y46732D01*
X501350Y46710D01*
X501228D01*
X501150Y46721D01*
X501050Y46732D01*
X500928Y46755D01*
X500795Y46777D01*
X500650Y46799D01*
X500339Y46888D01*
X500173Y46955D01*
X500017Y47021D01*
X499850Y47110D01*
X499695Y47210D01*
X499550Y47321D01*
X499406Y47454D01*
X499395Y47466D01*
X499373Y47488D01*
X499339Y47532D01*
X499295Y47599D01*
X499239Y47677D01*
X499184Y47765D01*
X499117Y47877D01*
X499050Y47999D01*
X498984Y48143D01*
X498917Y48299D01*
X498862Y48477D01*
X498806Y48665D01*
X498762Y48865D01*
X498728Y49088D01*
X498706Y49321D01*
X498695Y49565D01*
Y49576D01*
Y49632D01*
Y49699D01*
X498706Y49799D01*
X498717Y49921D01*
X498728Y50054D01*
X498750Y50210D01*
X498784Y50365D01*
X498873Y50721D01*
X498928Y50898D01*
X498995Y51087D01*
X499084Y51265D01*
X499184Y51432D01*
X499295Y51599D01*
X499417Y51754D01*
X499428Y51765D01*
X499450Y51787D01*
X499495Y51821D01*
X499550Y51876D01*
X499617Y51932D01*
X499706Y51998D01*
X499806Y52076D01*
X499928Y52143D01*
X500050Y52221D01*
X500195Y52287D01*
X500350Y52354D01*
X500517Y52409D01*
X500695Y52465D01*
X500884Y52498D01*
X501084Y52521D01*
X501295Y52532D01*
X501406D01*
X501483Y52521D01*
D02*
G37*
G36*
X473831Y52409D02*
X474786D01*
Y51676D01*
X473831D01*
Y48399D01*
Y48377D01*
Y48332D01*
Y48265D01*
X473842Y48188D01*
X473853Y48010D01*
X473864Y47932D01*
X473875Y47877D01*
X473886Y47854D01*
X473920Y47810D01*
X473964Y47754D01*
X474042Y47699D01*
X474064Y47688D01*
X474120Y47666D01*
X474220Y47643D01*
X474364Y47632D01*
X474475D01*
X474531Y47643D01*
X474608D01*
X474697Y47654D01*
X474786Y47666D01*
X474908Y46832D01*
X474886D01*
X474842Y46821D01*
X474764Y46810D01*
X474664Y46799D01*
X474553Y46777D01*
X474431Y46766D01*
X474186Y46755D01*
X474097D01*
X474009Y46766D01*
X473897Y46777D01*
X473764Y46788D01*
X473631Y46821D01*
X473509Y46854D01*
X473386Y46910D01*
X473375Y46921D01*
X473342Y46943D01*
X473297Y46977D01*
X473231Y47032D01*
X473175Y47088D01*
X473109Y47166D01*
X473042Y47243D01*
X472998Y47343D01*
Y47355D01*
X472975Y47399D01*
X472964Y47477D01*
X472942Y47588D01*
X472920Y47732D01*
X472909Y47821D01*
Y47921D01*
X472897Y48043D01*
X472886Y48166D01*
Y48299D01*
Y48454D01*
Y51676D01*
X472186D01*
Y52409D01*
X472886D01*
Y53787D01*
X473831Y54354D01*
Y52409D01*
D02*
G37*
G36*
X471264Y46832D02*
X470320D01*
Y54520D01*
X471264D01*
Y46832D01*
D02*
G37*
G36*
X468864D02*
X468020D01*
Y47643D01*
X468009Y47632D01*
X467987Y47599D01*
X467953Y47554D01*
X467898Y47499D01*
X467831Y47432D01*
X467754Y47343D01*
X467665Y47266D01*
X467554Y47177D01*
X467431Y47088D01*
X467298Y47010D01*
X467154Y46932D01*
X466998Y46854D01*
X466820Y46799D01*
X466643Y46755D01*
X466443Y46721D01*
X466243Y46710D01*
X466165D01*
X466065Y46721D01*
X465943Y46732D01*
X465798Y46755D01*
X465643Y46788D01*
X465487Y46832D01*
X465320Y46899D01*
X465298Y46910D01*
X465254Y46932D01*
X465176Y46977D01*
X465087Y47032D01*
X464976Y47099D01*
X464876Y47177D01*
X464776Y47266D01*
X464687Y47366D01*
X464676Y47377D01*
X464654Y47421D01*
X464620Y47477D01*
X464576Y47565D01*
X464521Y47666D01*
X464476Y47788D01*
X464432Y47921D01*
X464398Y48066D01*
Y48077D01*
X464387Y48121D01*
X464376Y48188D01*
Y48277D01*
X464365Y48410D01*
X464354Y48554D01*
X464343Y48743D01*
Y48954D01*
Y52409D01*
X465287D01*
Y49310D01*
Y49299D01*
Y49277D01*
Y49243D01*
Y49188D01*
Y49065D01*
X465298Y48910D01*
Y48743D01*
X465309Y48577D01*
X465320Y48432D01*
X465343Y48310D01*
Y48299D01*
X465365Y48254D01*
X465387Y48188D01*
X465420Y48099D01*
X465476Y48010D01*
X465543Y47910D01*
X465620Y47821D01*
X465720Y47732D01*
X465731Y47721D01*
X465776Y47699D01*
X465832Y47666D01*
X465920Y47632D01*
X466020Y47588D01*
X466143Y47554D01*
X466276Y47532D01*
X466432Y47521D01*
X466509D01*
X466587Y47532D01*
X466687Y47543D01*
X466809Y47577D01*
X466943Y47610D01*
X467087Y47666D01*
X467231Y47732D01*
X467254Y47743D01*
X467298Y47777D01*
X467365Y47821D01*
X467443Y47888D01*
X467531Y47977D01*
X467620Y48077D01*
X467698Y48188D01*
X467765Y48321D01*
X467776Y48343D01*
X467787Y48388D01*
X467809Y48477D01*
X467842Y48599D01*
X467876Y48754D01*
X467898Y48943D01*
X467909Y49165D01*
X467920Y49421D01*
Y52409D01*
X468864D01*
Y46832D01*
D02*
G37*
G36*
X480652Y49143D02*
X477730D01*
Y50087D01*
X480652D01*
Y49143D01*
D02*
G37*
G36*
X507216Y52521D02*
X507338Y52498D01*
X507483Y52454D01*
X507638Y52398D01*
X507816Y52321D01*
X508005Y52221D01*
X507661Y51354D01*
X507650Y51365D01*
X507605Y51387D01*
X507539Y51421D01*
X507450Y51454D01*
X507350Y51487D01*
X507227Y51521D01*
X507105Y51543D01*
X506983Y51554D01*
X506927D01*
X506872Y51543D01*
X506794Y51532D01*
X506716Y51510D01*
X506616Y51476D01*
X506516Y51432D01*
X506427Y51365D01*
X506416Y51354D01*
X506383Y51332D01*
X506350Y51287D01*
X506294Y51232D01*
X506239Y51154D01*
X506183Y51065D01*
X506128Y50965D01*
X506083Y50843D01*
X506072Y50821D01*
X506061Y50754D01*
X506039Y50654D01*
X506005Y50521D01*
X505972Y50354D01*
X505950Y50165D01*
X505939Y49965D01*
X505928Y49743D01*
Y46832D01*
X504983D01*
Y52409D01*
X505839D01*
Y51565D01*
X505850Y51576D01*
X505894Y51654D01*
X505950Y51754D01*
X506039Y51876D01*
X506128Y51998D01*
X506227Y52132D01*
X506327Y52243D01*
X506427Y52332D01*
X506439Y52343D01*
X506472Y52365D01*
X506539Y52398D01*
X506605Y52432D01*
X506694Y52465D01*
X506805Y52498D01*
X506916Y52521D01*
X507038Y52532D01*
X507116D01*
X507216Y52521D01*
D02*
G37*
G36*
X476664Y53443D02*
X475719D01*
Y54520D01*
X476664D01*
Y53443D01*
D02*
G37*
G36*
X496084Y46743D02*
Y46732D01*
X496073Y46699D01*
X496051Y46654D01*
X496029Y46599D01*
X495995Y46521D01*
X495962Y46432D01*
X495884Y46244D01*
X495806Y46032D01*
X495717Y45821D01*
X495628Y45632D01*
X495584Y45555D01*
X495551Y45477D01*
X495540Y45455D01*
X495506Y45399D01*
X495451Y45321D01*
X495384Y45221D01*
X495295Y45110D01*
X495195Y44999D01*
X495095Y44888D01*
X494973Y44799D01*
X494962Y44788D01*
X494917Y44766D01*
X494851Y44732D01*
X494751Y44688D01*
X494640Y44644D01*
X494506Y44610D01*
X494362Y44588D01*
X494195Y44577D01*
X494151D01*
X494095Y44588D01*
X494018D01*
X493929Y44610D01*
X493829Y44633D01*
X493718Y44655D01*
X493595Y44699D01*
X493495Y45577D01*
X493506D01*
X493551Y45566D01*
X493607Y45555D01*
X493673Y45532D01*
X493851Y45499D01*
X494029Y45488D01*
X494084D01*
X494140Y45499D01*
X494206D01*
X494373Y45532D01*
X494451Y45566D01*
X494529Y45599D01*
X494540D01*
X494562Y45621D01*
X494595Y45643D01*
X494640Y45677D01*
X494740Y45766D01*
X494829Y45888D01*
Y45899D01*
X494851Y45921D01*
X494873Y45966D01*
X494895Y46032D01*
X494940Y46121D01*
X494984Y46255D01*
X495051Y46410D01*
X495118Y46599D01*
Y46610D01*
X495140Y46654D01*
X495162Y46732D01*
X495206Y46832D01*
X493095Y52409D01*
X494095D01*
X495262Y49176D01*
Y49165D01*
X495273Y49154D01*
X495284Y49121D01*
X495295Y49065D01*
X495318Y49010D01*
X495340Y48943D01*
X495395Y48788D01*
X495462Y48599D01*
X495529Y48377D01*
X495595Y48143D01*
X495662Y47888D01*
Y47899D01*
X495673Y47921D01*
X495684Y47954D01*
X495695Y47999D01*
X495706Y48054D01*
X495728Y48121D01*
X495773Y48288D01*
X495828Y48477D01*
X495906Y48699D01*
X495973Y48921D01*
X496062Y49154D01*
X497262Y52409D01*
X498206D01*
X496084Y46743D01*
D02*
G37*
G36*
X462832Y46832D02*
X461854D01*
Y53265D01*
X459610Y46832D01*
X458699D01*
X456477Y53376D01*
Y46832D01*
X455499D01*
Y54520D01*
X457021D01*
X458843Y49065D01*
Y49054D01*
X458854Y49032D01*
X458865Y48999D01*
X458888Y48943D01*
X458932Y48810D01*
X458988Y48643D01*
X459043Y48454D01*
X459110Y48265D01*
X459165Y48088D01*
X459210Y47932D01*
X459221Y47954D01*
X459232Y48010D01*
X459266Y48110D01*
X459310Y48243D01*
X459366Y48421D01*
X459443Y48632D01*
X459521Y48877D01*
X459621Y49165D01*
X461465Y54520D01*
X462832D01*
Y46832D01*
D02*
G37*
%LPC*%
G36*
X491229Y49632D02*
X491218D01*
X491207Y49621D01*
X491173Y49610D01*
X491129Y49599D01*
X491073Y49576D01*
X491007Y49554D01*
X490929Y49532D01*
X490840Y49510D01*
X490740Y49477D01*
X490618Y49454D01*
X490496Y49421D01*
X490351Y49388D01*
X490196Y49354D01*
X490040Y49321D01*
X489862Y49299D01*
X489674Y49265D01*
X489651D01*
X489585Y49254D01*
X489474Y49232D01*
X489351Y49210D01*
X489218Y49188D01*
X489085Y49154D01*
X488963Y49121D01*
X488851Y49077D01*
X488840D01*
X488807Y49054D01*
X488763Y49032D01*
X488718Y48999D01*
X488585Y48910D01*
X488474Y48777D01*
Y48765D01*
X488451Y48743D01*
X488440Y48699D01*
X488418Y48643D01*
X488396Y48577D01*
X488374Y48510D01*
X488363Y48421D01*
X488351Y48332D01*
Y48321D01*
Y48265D01*
X488363Y48199D01*
X488385Y48110D01*
X488418Y48010D01*
X488474Y47910D01*
X488540Y47799D01*
X488629Y47699D01*
X488640Y47688D01*
X488685Y47666D01*
X488751Y47621D01*
X488840Y47577D01*
X488963Y47532D01*
X489107Y47488D01*
X489274Y47466D01*
X489474Y47454D01*
X489563D01*
X489674Y47466D01*
X489796Y47488D01*
X489951Y47510D01*
X490107Y47554D01*
X490274Y47610D01*
X490440Y47688D01*
X490462Y47699D01*
X490507Y47732D01*
X490585Y47788D01*
X490673Y47866D01*
X490773Y47954D01*
X490885Y48066D01*
X490973Y48199D01*
X491062Y48343D01*
X491073Y48354D01*
X491084Y48399D01*
X491107Y48477D01*
X491140Y48577D01*
X491173Y48710D01*
X491196Y48865D01*
X491207Y49054D01*
X491218Y49277D01*
X491229Y49632D01*
D02*
G37*
G36*
X501306Y51754D02*
X501239D01*
X501195Y51743D01*
X501072Y51732D01*
X500928Y51698D01*
X500750Y51643D01*
X500561Y51565D01*
X500384Y51454D01*
X500206Y51310D01*
X500184Y51287D01*
X500139Y51232D01*
X500061Y51132D01*
X499984Y50999D01*
X499895Y50843D01*
X499817Y50643D01*
X499750Y50410D01*
X499717Y50154D01*
X502839D01*
Y50165D01*
Y50187D01*
X502828Y50221D01*
Y50265D01*
X502806Y50399D01*
X502772Y50543D01*
X502717Y50721D01*
X502661Y50887D01*
X502572Y51054D01*
X502472Y51199D01*
Y51210D01*
X502450Y51221D01*
X502394Y51287D01*
X502294Y51376D01*
X502161Y51476D01*
X501995Y51576D01*
X501795Y51665D01*
X501561Y51732D01*
X501439Y51743D01*
X501306Y51754D01*
D02*
G37*
%LPD*%
D25*
X53780Y132018D02*
D03*
Y152018D02*
D03*
D26*
X13780Y142018D02*
D03*
X165918Y152249D02*
D03*
X175918D02*
D03*
X204041Y36216D02*
D03*
X214041D02*
D03*
X165800Y85827D02*
D03*
X175800D02*
D03*
X75000Y126500D02*
D03*
X108345Y7236D02*
D03*
Y17236D02*
D03*
X136000Y59500D02*
D03*
X126000D02*
D03*
X116000D02*
D03*
X106000D02*
D03*
D27*
X3292Y131245D02*
D03*
D28*
X185918Y152249D02*
D03*
X224041Y36216D02*
D03*
X185800Y85827D02*
D03*
X65000Y126500D02*
D03*
X146000Y59500D02*
D03*
D29*
X67389Y37687D02*
D03*
X47389D02*
D03*
X57389Y47687D02*
D03*
D30*
X53000Y31500D02*
D03*
X65000D02*
D03*
X168912Y7695D02*
D03*
D31*
X108345Y-2764D02*
D03*
D32*
X159857Y805D02*
D03*
Y14584D02*
D03*
X151589Y7695D02*
D03*
X108963Y142018D02*
D03*
X76680D02*
D03*
D33*
X176786Y7695D02*
D03*
D34*
X213753Y10193D02*
D03*
D35*
Y-5555D02*
D03*
D36*
X225564Y10193D02*
D03*
D37*
X100696Y142018D02*
D03*
X92822D02*
D03*
X84948D02*
D03*
D38*
X128970Y7602D02*
D03*
D39*
X223000Y128000D02*
D03*
X500Y27000D02*
D03*
D40*
X4239Y100680D02*
D03*
X222743D02*
D03*
M02*
