%FSLAX25Y25*%
%MOIN*%
G70*
G01*
G75*
%ADD10R,0.02362X0.03543*%
%ADD11R,0.03543X0.02362*%
%ADD12R,0.03937X0.04331*%
%ADD13R,0.06299X0.13780*%
%ADD14R,0.05000X0.03600*%
%ADD15R,0.03600X0.03600*%
%ADD16R,0.06693X0.01750*%
%ADD17R,0.08661X0.05118*%
%ADD18R,0.06299X0.07874*%
%ADD19O,0.04921X0.01772*%
%ADD20R,0.06102X0.01378*%
%ADD21C,0.01000*%
%ADD22C,0.00800*%
%ADD23C,0.02500*%
%ADD24C,0.02000*%
%ADD25C,0.08000*%
%ADD26C,0.07000*%
%ADD27C,0.10000*%
%ADD28R,0.07000X0.07000*%
%ADD29C,0.04724*%
%ADD30C,0.05906*%
%ADD31R,0.07000X0.07000*%
%ADD32C,0.08661*%
%ADD33C,0.07874*%
G04:AMPARAMS|DCode=34|XSize=118.11mil|YSize=39.37mil|CornerRadius=19.69mil|HoleSize=0mil|Usage=FLASHONLY|Rotation=0.000|XOffset=0mil|YOffset=0mil|HoleType=Round|Shape=RoundedRectangle|*
%AMROUNDEDRECTD34*
21,1,0.11811,0.00000,0,0,0.0*
21,1,0.07874,0.03937,0,0,0.0*
1,1,0.03937,0.03937,0.00000*
1,1,0.03937,-0.03937,0.00000*
1,1,0.03937,-0.03937,0.00000*
1,1,0.03937,0.03937,0.00000*
%
%ADD34ROUNDEDRECTD34*%
%ADD35O,0.15748X0.03937*%
G04:AMPARAMS|DCode=36|XSize=118.11mil|YSize=39.37mil|CornerRadius=19.69mil|HoleSize=0mil|Usage=FLASHONLY|Rotation=90.000|XOffset=0mil|YOffset=0mil|HoleType=Round|Shape=RoundedRectangle|*
%AMROUNDEDRECTD36*
21,1,0.11811,0.00000,0,0,90.0*
21,1,0.07874,0.03937,0,0,90.0*
1,1,0.03937,0.00000,0.03937*
1,1,0.03937,0.00000,-0.03937*
1,1,0.03937,0.00000,-0.03937*
1,1,0.03937,0.00000,0.03937*
%
%ADD36ROUNDEDRECTD36*%
%ADD37C,0.05512*%
%ADD38C,0.17716*%
%ADD39C,0.07874*%
%ADD40C,0.03937*%
%ADD41C,0.03150*%
%ADD42R,0.05118X0.05906*%
%ADD43R,0.05315X0.02953*%
%ADD44C,0.01200*%
%ADD45C,0.00787*%
%ADD46C,0.01500*%
%ADD47C,0.00394*%
%ADD48C,0.00700*%
%ADD49C,0.00591*%
G36*
X399174Y28899D02*
X399263Y28887D01*
X399374Y28865D01*
X399496Y28843D01*
X399640Y28810D01*
X399774Y28776D01*
X399929Y28721D01*
X400074Y28665D01*
X400229Y28587D01*
X400385Y28499D01*
X400540Y28399D01*
X400685Y28276D01*
X400818Y28143D01*
X400829Y28132D01*
X400851Y28110D01*
X400885Y28065D01*
X400929Y27999D01*
X400985Y27921D01*
X401040Y27832D01*
X401107Y27721D01*
X401174Y27588D01*
X401240Y27443D01*
X401307Y27288D01*
X401363Y27110D01*
X401418Y26921D01*
X401463Y26710D01*
X401496Y26488D01*
X401518Y26254D01*
X401529Y25999D01*
Y25988D01*
Y25943D01*
Y25866D01*
X401518Y25754D01*
X397352D01*
Y25743D01*
Y25710D01*
X397363Y25666D01*
Y25599D01*
X397374Y25521D01*
X397396Y25432D01*
X397430Y25232D01*
X397496Y25010D01*
X397585Y24766D01*
X397707Y24543D01*
X397863Y24343D01*
X397874D01*
X397885Y24321D01*
X397952Y24266D01*
X398052Y24188D01*
X398185Y24110D01*
X398363Y24021D01*
X398563Y23944D01*
X398785Y23888D01*
X398907Y23877D01*
X399041Y23866D01*
X399129D01*
X399229Y23877D01*
X399352Y23899D01*
X399485Y23932D01*
X399640Y23977D01*
X399785Y24044D01*
X399929Y24132D01*
X399940Y24144D01*
X399996Y24188D01*
X400063Y24255D01*
X400140Y24343D01*
X400229Y24466D01*
X400329Y24621D01*
X400429Y24799D01*
X400518Y25010D01*
X401496Y24888D01*
Y24877D01*
X401485Y24855D01*
X401474Y24810D01*
X401451Y24743D01*
X401418Y24677D01*
X401385Y24588D01*
X401296Y24399D01*
X401185Y24188D01*
X401029Y23966D01*
X400851Y23755D01*
X400629Y23555D01*
X400618D01*
X400596Y23532D01*
X400563Y23510D01*
X400518Y23477D01*
X400452Y23444D01*
X400385Y23410D01*
X400296Y23366D01*
X400196Y23321D01*
X400085Y23277D01*
X399974Y23233D01*
X399696Y23166D01*
X399385Y23110D01*
X399041Y23088D01*
X398918D01*
X398841Y23099D01*
X398741Y23110D01*
X398618Y23133D01*
X398485Y23155D01*
X398341Y23177D01*
X398030Y23266D01*
X397863Y23332D01*
X397707Y23399D01*
X397541Y23488D01*
X397385Y23588D01*
X397241Y23699D01*
X397096Y23832D01*
X397085Y23844D01*
X397063Y23866D01*
X397030Y23910D01*
X396985Y23977D01*
X396930Y24055D01*
X396874Y24144D01*
X396808Y24255D01*
X396741Y24377D01*
X396674Y24521D01*
X396607Y24677D01*
X396552Y24855D01*
X396496Y25043D01*
X396452Y25243D01*
X396419Y25466D01*
X396396Y25699D01*
X396385Y25943D01*
Y25954D01*
Y26010D01*
Y26077D01*
X396396Y26177D01*
X396408Y26299D01*
X396419Y26432D01*
X396441Y26588D01*
X396474Y26743D01*
X396563Y27099D01*
X396619Y27277D01*
X396685Y27465D01*
X396774Y27643D01*
X396874Y27810D01*
X396985Y27976D01*
X397107Y28132D01*
X397118Y28143D01*
X397141Y28165D01*
X397185Y28199D01*
X397241Y28254D01*
X397307Y28310D01*
X397396Y28376D01*
X397496Y28454D01*
X397619Y28521D01*
X397741Y28599D01*
X397885Y28665D01*
X398041Y28732D01*
X398207Y28787D01*
X398385Y28843D01*
X398574Y28876D01*
X398774Y28899D01*
X398985Y28910D01*
X399096D01*
X399174Y28899D01*
D02*
G37*
G36*
X370477D02*
X370577Y28887D01*
X370688Y28865D01*
X370810Y28843D01*
X370954Y28821D01*
X371254Y28721D01*
X371410Y28665D01*
X371566Y28587D01*
X371721Y28510D01*
X371877Y28399D01*
X372021Y28288D01*
X372165Y28154D01*
X372177Y28143D01*
X372199Y28121D01*
X372232Y28076D01*
X372277Y28021D01*
X372332Y27943D01*
X372399Y27843D01*
X372465Y27732D01*
X372532Y27610D01*
X372599Y27477D01*
X372665Y27310D01*
X372732Y27143D01*
X372788Y26954D01*
X372832Y26754D01*
X372865Y26543D01*
X372888Y26321D01*
X372899Y26077D01*
Y26065D01*
Y26032D01*
Y25977D01*
Y25899D01*
X372888Y25810D01*
X372877Y25699D01*
Y25588D01*
X372854Y25466D01*
X372821Y25188D01*
X372754Y24910D01*
X372676Y24632D01*
X372565Y24377D01*
Y24366D01*
X372554Y24355D01*
X372532Y24321D01*
X372510Y24277D01*
X372432Y24166D01*
X372332Y24032D01*
X372199Y23877D01*
X372032Y23721D01*
X371843Y23566D01*
X371621Y23421D01*
X371610D01*
X371599Y23410D01*
X371566Y23388D01*
X371510Y23366D01*
X371454Y23344D01*
X371388Y23321D01*
X371221Y23255D01*
X371032Y23199D01*
X370799Y23144D01*
X370554Y23099D01*
X370288Y23088D01*
X370177D01*
X370088Y23099D01*
X369988Y23110D01*
X369877Y23133D01*
X369743Y23155D01*
X369610Y23177D01*
X369310Y23266D01*
X369144Y23332D01*
X368988Y23399D01*
X368832Y23488D01*
X368677Y23588D01*
X368532Y23699D01*
X368388Y23832D01*
X368377Y23844D01*
X368355Y23866D01*
X368321Y23910D01*
X368277Y23977D01*
X368221Y24055D01*
X368166Y24144D01*
X368099Y24255D01*
X368033Y24388D01*
X367966Y24532D01*
X367899Y24699D01*
X367844Y24877D01*
X367788Y25066D01*
X367744Y25277D01*
X367710Y25499D01*
X367688Y25743D01*
X367677Y25999D01*
Y26021D01*
Y26065D01*
X367688Y26143D01*
Y26254D01*
X367699Y26377D01*
X367722Y26532D01*
X367744Y26688D01*
X367788Y26865D01*
X367833Y27043D01*
X367888Y27232D01*
X367955Y27432D01*
X368044Y27621D01*
X368132Y27799D01*
X368255Y27976D01*
X368377Y28143D01*
X368532Y28288D01*
X368544Y28299D01*
X368566Y28310D01*
X368610Y28343D01*
X368666Y28387D01*
X368733Y28432D01*
X368821Y28488D01*
X368910Y28543D01*
X369021Y28599D01*
X369144Y28654D01*
X369277Y28710D01*
X369577Y28810D01*
X369921Y28887D01*
X370099Y28899D01*
X370288Y28910D01*
X370399D01*
X370477Y28899D01*
D02*
G37*
G36*
X367099Y29987D02*
X364566D01*
Y23210D01*
X363544D01*
Y29987D01*
X361011D01*
Y30898D01*
X367099D01*
Y29987D01*
D02*
G37*
G36*
X411250Y28899D02*
X411417Y28887D01*
X411606Y28865D01*
X411795Y28832D01*
X411984Y28787D01*
X412161Y28732D01*
X412184Y28721D01*
X412239Y28699D01*
X412317Y28665D01*
X412417Y28621D01*
X412528Y28554D01*
X412639Y28488D01*
X412739Y28399D01*
X412828Y28310D01*
X412839Y28299D01*
X412861Y28265D01*
X412895Y28210D01*
X412939Y28143D01*
X412995Y28043D01*
X413039Y27943D01*
X413084Y27821D01*
X413117Y27676D01*
Y27665D01*
X413128Y27632D01*
X413139Y27565D01*
X413150Y27477D01*
Y27354D01*
X413161Y27210D01*
X413172Y27021D01*
Y26810D01*
Y25543D01*
Y25532D01*
Y25488D01*
Y25421D01*
Y25332D01*
Y25232D01*
Y25110D01*
X413184Y24843D01*
Y24566D01*
X413195Y24288D01*
X413206Y24166D01*
Y24055D01*
X413217Y23955D01*
X413228Y23877D01*
Y23866D01*
X413239Y23821D01*
X413250Y23755D01*
X413284Y23666D01*
X413306Y23566D01*
X413350Y23455D01*
X413406Y23332D01*
X413461Y23210D01*
X412472D01*
X412461Y23221D01*
X412450Y23266D01*
X412428Y23321D01*
X412395Y23410D01*
X412361Y23510D01*
X412339Y23632D01*
X412317Y23766D01*
X412295Y23910D01*
X412284D01*
X412273Y23888D01*
X412206Y23832D01*
X412106Y23755D01*
X411973Y23655D01*
X411806Y23555D01*
X411639Y23444D01*
X411461Y23344D01*
X411273Y23266D01*
X411250Y23255D01*
X411184Y23244D01*
X411084Y23210D01*
X410962Y23177D01*
X410806Y23144D01*
X410628Y23121D01*
X410428Y23099D01*
X410228Y23088D01*
X410140D01*
X410073Y23099D01*
X409995D01*
X409906Y23110D01*
X409706Y23144D01*
X409484Y23199D01*
X409239Y23277D01*
X409017Y23388D01*
X408817Y23532D01*
X408795Y23555D01*
X408740Y23610D01*
X408662Y23710D01*
X408573Y23844D01*
X408484Y24010D01*
X408406Y24199D01*
X408351Y24432D01*
X408340Y24543D01*
X408328Y24677D01*
Y24699D01*
Y24743D01*
X408340Y24821D01*
X408351Y24921D01*
X408373Y25043D01*
X408406Y25166D01*
X408451Y25299D01*
X408506Y25421D01*
X408517Y25432D01*
X408540Y25477D01*
X408584Y25543D01*
X408640Y25621D01*
X408706Y25710D01*
X408795Y25799D01*
X408884Y25888D01*
X408995Y25965D01*
X409006Y25977D01*
X409051Y25999D01*
X409106Y26043D01*
X409195Y26088D01*
X409295Y26132D01*
X409417Y26188D01*
X409540Y26232D01*
X409684Y26277D01*
X409695D01*
X409739Y26288D01*
X409806Y26310D01*
X409895Y26321D01*
X410006Y26343D01*
X410151Y26366D01*
X410317Y26399D01*
X410517Y26421D01*
X410528D01*
X410573Y26432D01*
X410628D01*
X410706Y26443D01*
X410795Y26454D01*
X410906Y26477D01*
X411028Y26488D01*
X411162Y26510D01*
X411428Y26565D01*
X411717Y26621D01*
X411973Y26688D01*
X412095Y26721D01*
X412206Y26754D01*
Y26765D01*
Y26788D01*
X412217Y26854D01*
Y26932D01*
Y26976D01*
Y26999D01*
Y27010D01*
Y27021D01*
Y27088D01*
X412206Y27199D01*
X412184Y27321D01*
X412150Y27454D01*
X412095Y27588D01*
X412028Y27710D01*
X411939Y27810D01*
X411928Y27821D01*
X411873Y27865D01*
X411784Y27910D01*
X411673Y27976D01*
X411517Y28032D01*
X411339Y28087D01*
X411117Y28121D01*
X410862Y28132D01*
X410750D01*
X410639Y28121D01*
X410484Y28099D01*
X410328Y28076D01*
X410162Y28032D01*
X410006Y27976D01*
X409873Y27899D01*
X409862Y27887D01*
X409817Y27854D01*
X409762Y27799D01*
X409695Y27710D01*
X409628Y27599D01*
X409551Y27454D01*
X409484Y27277D01*
X409417Y27077D01*
X408495Y27199D01*
Y27210D01*
X408506Y27221D01*
Y27254D01*
X408517Y27299D01*
X408551Y27399D01*
X408595Y27543D01*
X408651Y27688D01*
X408717Y27843D01*
X408806Y27999D01*
X408906Y28143D01*
X408917Y28154D01*
X408962Y28199D01*
X409028Y28265D01*
X409117Y28354D01*
X409239Y28443D01*
X409384Y28532D01*
X409551Y28632D01*
X409739Y28710D01*
X409751D01*
X409762Y28721D01*
X409795Y28732D01*
X409839Y28743D01*
X409951Y28776D01*
X410106Y28810D01*
X410284Y28843D01*
X410506Y28876D01*
X410739Y28899D01*
X411006Y28910D01*
X411128D01*
X411250Y28899D01*
D02*
G37*
G36*
X407184Y23210D02*
X406240D01*
Y30898D01*
X407184D01*
Y23210D01*
D02*
G37*
G36*
X404907Y28899D02*
X405029Y28876D01*
X405173Y28832D01*
X405329Y28776D01*
X405507Y28699D01*
X405695Y28599D01*
X405351Y27732D01*
X405340Y27743D01*
X405296Y27765D01*
X405229Y27799D01*
X405140Y27832D01*
X405040Y27865D01*
X404918Y27899D01*
X404796Y27921D01*
X404673Y27932D01*
X404618D01*
X404562Y27921D01*
X404485Y27910D01*
X404407Y27887D01*
X404307Y27854D01*
X404207Y27810D01*
X404118Y27743D01*
X404107Y27732D01*
X404073Y27710D01*
X404040Y27665D01*
X403984Y27610D01*
X403929Y27532D01*
X403873Y27443D01*
X403818Y27343D01*
X403773Y27221D01*
X403762Y27199D01*
X403751Y27132D01*
X403729Y27032D01*
X403696Y26899D01*
X403662Y26732D01*
X403640Y26543D01*
X403629Y26343D01*
X403618Y26121D01*
Y23210D01*
X402673D01*
Y28787D01*
X403529D01*
Y27943D01*
X403540Y27954D01*
X403584Y28032D01*
X403640Y28132D01*
X403729Y28254D01*
X403818Y28376D01*
X403918Y28510D01*
X404018Y28621D01*
X404118Y28710D01*
X404129Y28721D01*
X404162Y28743D01*
X404229Y28776D01*
X404296Y28810D01*
X404385Y28843D01*
X404496Y28876D01*
X404607Y28899D01*
X404729Y28910D01*
X404807D01*
X404907Y28899D01*
D02*
G37*
G36*
X376654D02*
X376732Y28887D01*
X376898Y28865D01*
X377098Y28821D01*
X377309Y28754D01*
X377520Y28654D01*
X377732Y28532D01*
X377743D01*
X377754Y28510D01*
X377820Y28465D01*
X377920Y28376D01*
X378043Y28265D01*
X378176Y28121D01*
X378309Y27943D01*
X378443Y27732D01*
X378554Y27499D01*
Y27488D01*
X378565Y27465D01*
X378576Y27432D01*
X378598Y27388D01*
X378620Y27321D01*
X378643Y27243D01*
X378698Y27065D01*
X378754Y26843D01*
X378798Y26599D01*
X378832Y26321D01*
X378843Y26032D01*
Y26021D01*
Y25999D01*
Y25954D01*
Y25888D01*
X378832Y25810D01*
Y25721D01*
X378809Y25521D01*
X378765Y25277D01*
X378709Y25021D01*
X378631Y24755D01*
X378532Y24488D01*
Y24477D01*
X378520Y24455D01*
X378498Y24421D01*
X378476Y24377D01*
X378398Y24255D01*
X378298Y24099D01*
X378176Y23932D01*
X378020Y23766D01*
X377843Y23599D01*
X377632Y23444D01*
X377621D01*
X377609Y23432D01*
X377576Y23410D01*
X377532Y23388D01*
X377420Y23332D01*
X377265Y23266D01*
X377076Y23199D01*
X376876Y23144D01*
X376643Y23099D01*
X376410Y23088D01*
X376332D01*
X376243Y23099D01*
X376132Y23110D01*
X375998Y23133D01*
X375854Y23166D01*
X375710Y23210D01*
X375565Y23277D01*
X375554Y23288D01*
X375499Y23310D01*
X375432Y23355D01*
X375343Y23421D01*
X375254Y23488D01*
X375143Y23577D01*
X375043Y23677D01*
X374954Y23788D01*
Y21077D01*
X374010D01*
Y28787D01*
X374865D01*
Y28054D01*
X374876Y28076D01*
X374921Y28121D01*
X374976Y28199D01*
X375065Y28288D01*
X375165Y28399D01*
X375276Y28499D01*
X375410Y28599D01*
X375543Y28688D01*
X375565Y28699D01*
X375610Y28721D01*
X375698Y28754D01*
X375810Y28799D01*
X375943Y28843D01*
X376098Y28876D01*
X376276Y28899D01*
X376476Y28910D01*
X376598D01*
X376654Y28899D01*
D02*
G37*
G36*
X386642Y31021D02*
X386742D01*
X386842Y31009D01*
X386975Y30987D01*
X387108Y30965D01*
X387397Y30909D01*
X387731Y30821D01*
X388053Y30687D01*
X388219Y30610D01*
X388386Y30521D01*
X388397Y30509D01*
X388419Y30498D01*
X388464Y30465D01*
X388530Y30432D01*
X388597Y30376D01*
X388686Y30310D01*
X388875Y30154D01*
X389075Y29954D01*
X389297Y29710D01*
X389508Y29421D01*
X389686Y29098D01*
Y29087D01*
X389708Y29054D01*
X389730Y29010D01*
X389753Y28943D01*
X389797Y28854D01*
X389830Y28754D01*
X389875Y28632D01*
X389919Y28499D01*
X389953Y28354D01*
X389997Y28199D01*
X390041Y28021D01*
X390075Y27843D01*
X390119Y27454D01*
X390141Y27032D01*
Y27021D01*
Y26976D01*
Y26921D01*
X390130Y26832D01*
Y26732D01*
X390119Y26610D01*
X390097Y26477D01*
X390086Y26332D01*
X390030Y26010D01*
X389942Y25654D01*
X389819Y25299D01*
X389753Y25121D01*
X389664Y24943D01*
Y24932D01*
X389641Y24899D01*
X389619Y24855D01*
X389575Y24788D01*
X389530Y24710D01*
X389475Y24632D01*
X389319Y24421D01*
X389130Y24199D01*
X388908Y23966D01*
X388642Y23743D01*
X388331Y23543D01*
X388319D01*
X388297Y23521D01*
X388242Y23499D01*
X388175Y23466D01*
X388097Y23432D01*
X388008Y23399D01*
X387897Y23355D01*
X387775Y23310D01*
X387642Y23266D01*
X387497Y23221D01*
X387175Y23155D01*
X386831Y23099D01*
X386464Y23077D01*
X386353D01*
X386286Y23088D01*
X386186D01*
X386075Y23110D01*
X385953Y23121D01*
X385809Y23144D01*
X385509Y23210D01*
X385186Y23299D01*
X384853Y23432D01*
X384686Y23510D01*
X384520Y23599D01*
X384509Y23610D01*
X384487Y23621D01*
X384442Y23655D01*
X384375Y23699D01*
X384309Y23743D01*
X384231Y23810D01*
X384042Y23977D01*
X383831Y24177D01*
X383609Y24421D01*
X383409Y24699D01*
X383220Y25021D01*
Y25032D01*
X383198Y25066D01*
X383175Y25110D01*
X383153Y25177D01*
X383120Y25266D01*
X383087Y25366D01*
X383042Y25477D01*
X383009Y25599D01*
X382964Y25743D01*
X382920Y25888D01*
X382853Y26221D01*
X382809Y26565D01*
X382787Y26943D01*
Y26954D01*
Y26965D01*
Y27032D01*
X382798Y27132D01*
Y27265D01*
X382820Y27421D01*
X382842Y27610D01*
X382875Y27821D01*
X382920Y28043D01*
X382964Y28276D01*
X383031Y28521D01*
X383120Y28765D01*
X383220Y29021D01*
X383331Y29265D01*
X383475Y29510D01*
X383631Y29732D01*
X383809Y29943D01*
X383820Y29954D01*
X383853Y29987D01*
X383920Y30043D01*
X383998Y30110D01*
X384098Y30198D01*
X384220Y30287D01*
X384364Y30387D01*
X384531Y30487D01*
X384709Y30587D01*
X384909Y30687D01*
X385131Y30776D01*
X385364Y30865D01*
X385620Y30932D01*
X385886Y30987D01*
X386164Y31021D01*
X386464Y31032D01*
X386564D01*
X386642Y31021D01*
D02*
G37*
G36*
X417072Y23121D02*
Y23110D01*
X417061Y23077D01*
X417039Y23032D01*
X417017Y22977D01*
X416983Y22899D01*
X416950Y22810D01*
X416872Y22621D01*
X416794Y22410D01*
X416706Y22199D01*
X416617Y22010D01*
X416572Y21933D01*
X416539Y21855D01*
X416528Y21833D01*
X416494Y21777D01*
X416439Y21699D01*
X416372Y21599D01*
X416283Y21488D01*
X416183Y21377D01*
X416083Y21266D01*
X415961Y21177D01*
X415950Y21166D01*
X415906Y21144D01*
X415839Y21110D01*
X415739Y21066D01*
X415628Y21022D01*
X415494Y20988D01*
X415350Y20966D01*
X415183Y20955D01*
X415139D01*
X415083Y20966D01*
X415006D01*
X414917Y20988D01*
X414817Y21011D01*
X414706Y21033D01*
X414583Y21077D01*
X414483Y21955D01*
X414495D01*
X414539Y21944D01*
X414595Y21933D01*
X414661Y21910D01*
X414839Y21877D01*
X415017Y21866D01*
X415072D01*
X415128Y21877D01*
X415195D01*
X415361Y21910D01*
X415439Y21944D01*
X415517Y21977D01*
X415528D01*
X415550Y21999D01*
X415583Y22021D01*
X415628Y22055D01*
X415728Y22144D01*
X415817Y22266D01*
Y22277D01*
X415839Y22299D01*
X415861Y22344D01*
X415883Y22410D01*
X415928Y22499D01*
X415972Y22633D01*
X416039Y22788D01*
X416106Y22977D01*
Y22988D01*
X416128Y23032D01*
X416150Y23110D01*
X416194Y23210D01*
X414083Y28787D01*
X415083D01*
X416250Y25554D01*
Y25543D01*
X416261Y25532D01*
X416272Y25499D01*
X416283Y25443D01*
X416305Y25388D01*
X416328Y25321D01*
X416383Y25166D01*
X416450Y24977D01*
X416517Y24755D01*
X416583Y24521D01*
X416650Y24266D01*
Y24277D01*
X416661Y24299D01*
X416672Y24332D01*
X416683Y24377D01*
X416694Y24432D01*
X416717Y24499D01*
X416761Y24666D01*
X416817Y24855D01*
X416894Y25077D01*
X416961Y25299D01*
X417050Y25532D01*
X418250Y28787D01*
X419194D01*
X417072Y23121D01*
D02*
G37*
G36*
X393741Y23210D02*
X392841D01*
X390741Y28787D01*
X391741D01*
X392941Y25443D01*
Y25432D01*
X392952Y25421D01*
X392963Y25388D01*
X392974Y25354D01*
X393008Y25243D01*
X393052Y25099D01*
X393108Y24932D01*
X393175Y24743D01*
X393230Y24532D01*
X393297Y24321D01*
X393308Y24343D01*
X393319Y24399D01*
X393352Y24488D01*
X393386Y24621D01*
X393441Y24766D01*
X393497Y24954D01*
X393574Y25155D01*
X393652Y25377D01*
X394885Y28787D01*
X395863D01*
X393741Y23210D01*
D02*
G37*
%LPC*%
G36*
X386464Y30154D02*
X386364D01*
X386286Y30143D01*
X386186Y30132D01*
X386086Y30110D01*
X385964Y30087D01*
X385831Y30065D01*
X385542Y29976D01*
X385386Y29910D01*
X385231Y29843D01*
X385064Y29754D01*
X384909Y29654D01*
X384753Y29543D01*
X384609Y29410D01*
X384598Y29399D01*
X384575Y29376D01*
X384542Y29332D01*
X384487Y29265D01*
X384431Y29187D01*
X384364Y29087D01*
X384298Y28965D01*
X384220Y28821D01*
X384153Y28665D01*
X384075Y28476D01*
X384009Y28276D01*
X383953Y28054D01*
X383898Y27810D01*
X383864Y27532D01*
X383842Y27243D01*
X383831Y26932D01*
Y26921D01*
Y26877D01*
Y26799D01*
X383842Y26699D01*
X383853Y26588D01*
X383875Y26454D01*
X383898Y26299D01*
X383920Y26143D01*
X384009Y25788D01*
X384075Y25610D01*
X384142Y25421D01*
X384231Y25243D01*
X384331Y25066D01*
X384442Y24899D01*
X384575Y24743D01*
X384587Y24732D01*
X384609Y24710D01*
X384653Y24666D01*
X384709Y24621D01*
X384786Y24554D01*
X384875Y24488D01*
X384975Y24421D01*
X385086Y24343D01*
X385220Y24266D01*
X385364Y24199D01*
X385520Y24132D01*
X385686Y24066D01*
X385864Y24021D01*
X386042Y23977D01*
X386242Y23955D01*
X386453Y23944D01*
X386508D01*
X386564Y23955D01*
X386642D01*
X386742Y23966D01*
X386853Y23988D01*
X386986Y24010D01*
X387120Y24044D01*
X387275Y24088D01*
X387420Y24144D01*
X387586Y24199D01*
X387742Y24277D01*
X387897Y24377D01*
X388053Y24477D01*
X388208Y24599D01*
X388353Y24743D01*
X388364Y24755D01*
X388386Y24777D01*
X388419Y24832D01*
X388475Y24899D01*
X388530Y24977D01*
X388586Y25077D01*
X388653Y25199D01*
X388731Y25332D01*
X388797Y25488D01*
X388864Y25666D01*
X388919Y25854D01*
X388986Y26054D01*
X389031Y26277D01*
X389064Y26521D01*
X389086Y26776D01*
X389097Y27043D01*
Y27054D01*
Y27088D01*
Y27132D01*
Y27199D01*
X389086Y27277D01*
Y27376D01*
X389075Y27477D01*
X389053Y27599D01*
X389019Y27854D01*
X388964Y28121D01*
X388886Y28410D01*
X388775Y28676D01*
Y28688D01*
X388764Y28710D01*
X388742Y28743D01*
X388719Y28787D01*
X388642Y28921D01*
X388542Y29076D01*
X388408Y29254D01*
X388242Y29432D01*
X388053Y29610D01*
X387842Y29765D01*
X387831D01*
X387820Y29787D01*
X387786Y29798D01*
X387731Y29832D01*
X387675Y29854D01*
X387608Y29887D01*
X387442Y29965D01*
X387242Y30032D01*
X387008Y30098D01*
X386742Y30143D01*
X386464Y30154D01*
D02*
G37*
G36*
X398996Y28132D02*
X398930D01*
X398885Y28121D01*
X398763Y28110D01*
X398618Y28076D01*
X398441Y28021D01*
X398252Y27943D01*
X398074Y27832D01*
X397896Y27688D01*
X397874Y27665D01*
X397830Y27610D01*
X397752Y27510D01*
X397674Y27376D01*
X397585Y27221D01*
X397507Y27021D01*
X397441Y26788D01*
X397407Y26532D01*
X400529D01*
Y26543D01*
Y26565D01*
X400518Y26599D01*
Y26643D01*
X400496Y26776D01*
X400463Y26921D01*
X400407Y27099D01*
X400351Y27265D01*
X400263Y27432D01*
X400163Y27577D01*
Y27588D01*
X400140Y27599D01*
X400085Y27665D01*
X399985Y27754D01*
X399852Y27854D01*
X399685Y27954D01*
X399485Y28043D01*
X399252Y28110D01*
X399129Y28121D01*
X398996Y28132D01*
D02*
G37*
G36*
X376387Y28165D02*
X376332D01*
X376287Y28154D01*
X376176Y28132D01*
X376032Y28099D01*
X375865Y28032D01*
X375687Y27932D01*
X375587Y27865D01*
X375499Y27788D01*
X375410Y27699D01*
X375321Y27599D01*
Y27588D01*
X375299Y27577D01*
X375276Y27543D01*
X375254Y27499D01*
X375221Y27432D01*
X375176Y27365D01*
X375132Y27277D01*
X375098Y27188D01*
X375054Y27077D01*
X375010Y26954D01*
X374976Y26821D01*
X374932Y26676D01*
X374910Y26510D01*
X374887Y26343D01*
X374865Y26166D01*
Y25965D01*
Y25954D01*
Y25921D01*
Y25866D01*
X374876Y25788D01*
Y25699D01*
X374887Y25599D01*
X374921Y25366D01*
X374976Y25099D01*
X375043Y24843D01*
X375154Y24588D01*
X375221Y24477D01*
X375299Y24377D01*
X375321Y24355D01*
X375376Y24299D01*
X375465Y24210D01*
X375587Y24121D01*
X375743Y24032D01*
X375921Y23944D01*
X376121Y23888D01*
X376232Y23877D01*
X376343Y23866D01*
X376410D01*
X376454Y23877D01*
X376565Y23899D01*
X376721Y23932D01*
X376887Y23999D01*
X377065Y24088D01*
X377243Y24221D01*
X377332Y24299D01*
X377420Y24388D01*
Y24399D01*
X377443Y24410D01*
X377465Y24443D01*
X377487Y24488D01*
X377532Y24543D01*
X377565Y24621D01*
X377609Y24699D01*
X377654Y24799D01*
X377687Y24899D01*
X377732Y25032D01*
X377776Y25166D01*
X377809Y25310D01*
X377832Y25477D01*
X377854Y25654D01*
X377876Y25843D01*
Y26043D01*
Y26054D01*
Y26088D01*
Y26143D01*
X377865Y26221D01*
Y26310D01*
X377854Y26410D01*
X377820Y26643D01*
X377765Y26899D01*
X377687Y27154D01*
X377576Y27410D01*
X377509Y27532D01*
X377432Y27632D01*
Y27643D01*
X377409Y27654D01*
X377354Y27721D01*
X377265Y27799D01*
X377143Y27899D01*
X376987Y27999D01*
X376810Y28087D01*
X376609Y28143D01*
X376498Y28154D01*
X376387Y28165D01*
D02*
G37*
G36*
X412217Y26010D02*
X412206D01*
X412195Y25999D01*
X412161Y25988D01*
X412117Y25977D01*
X412062Y25954D01*
X411995Y25932D01*
X411917Y25910D01*
X411828Y25888D01*
X411728Y25854D01*
X411606Y25832D01*
X411484Y25799D01*
X411339Y25765D01*
X411184Y25732D01*
X411028Y25699D01*
X410850Y25677D01*
X410662Y25643D01*
X410639D01*
X410573Y25632D01*
X410462Y25610D01*
X410339Y25588D01*
X410206Y25565D01*
X410073Y25532D01*
X409951Y25499D01*
X409839Y25454D01*
X409828D01*
X409795Y25432D01*
X409751Y25410D01*
X409706Y25377D01*
X409573Y25288D01*
X409462Y25155D01*
Y25143D01*
X409440Y25121D01*
X409428Y25077D01*
X409406Y25021D01*
X409384Y24954D01*
X409362Y24888D01*
X409351Y24799D01*
X409340Y24710D01*
Y24699D01*
Y24643D01*
X409351Y24577D01*
X409373Y24488D01*
X409406Y24388D01*
X409462Y24288D01*
X409528Y24177D01*
X409617Y24077D01*
X409628Y24066D01*
X409673Y24044D01*
X409739Y23999D01*
X409828Y23955D01*
X409951Y23910D01*
X410095Y23866D01*
X410262Y23844D01*
X410462Y23832D01*
X410550D01*
X410662Y23844D01*
X410784Y23866D01*
X410939Y23888D01*
X411095Y23932D01*
X411262Y23988D01*
X411428Y24066D01*
X411450Y24077D01*
X411495Y24110D01*
X411573Y24166D01*
X411661Y24243D01*
X411762Y24332D01*
X411873Y24443D01*
X411962Y24577D01*
X412050Y24721D01*
X412062Y24732D01*
X412073Y24777D01*
X412095Y24855D01*
X412128Y24954D01*
X412161Y25088D01*
X412184Y25243D01*
X412195Y25432D01*
X412206Y25654D01*
X412217Y26010D01*
D02*
G37*
G36*
X370288Y28132D02*
X370221D01*
X370166Y28121D01*
X370043Y28110D01*
X369877Y28065D01*
X369688Y27999D01*
X369488Y27910D01*
X369299Y27776D01*
X369199Y27688D01*
X369110Y27599D01*
Y27588D01*
X369088Y27577D01*
X369066Y27543D01*
X369033Y27499D01*
X368999Y27443D01*
X368966Y27376D01*
X368921Y27288D01*
X368877Y27199D01*
X368832Y27088D01*
X368788Y26976D01*
X368755Y26843D01*
X368721Y26699D01*
X368688Y26543D01*
X368666Y26377D01*
X368655Y26188D01*
X368644Y25999D01*
Y25988D01*
Y25954D01*
Y25899D01*
X368655Y25821D01*
Y25732D01*
X368666Y25632D01*
X368699Y25399D01*
X368755Y25132D01*
X368844Y24866D01*
X368955Y24610D01*
X369033Y24499D01*
X369110Y24388D01*
X369121D01*
X369132Y24366D01*
X369199Y24310D01*
X369299Y24221D01*
X369432Y24132D01*
X369599Y24032D01*
X369799Y23944D01*
X370032Y23888D01*
X370155Y23877D01*
X370288Y23866D01*
X370355D01*
X370410Y23877D01*
X370532Y23899D01*
X370699Y23932D01*
X370877Y23999D01*
X371077Y24088D01*
X371266Y24221D01*
X371365Y24310D01*
X371454Y24399D01*
X371465Y24410D01*
X371477Y24421D01*
X371499Y24455D01*
X371532Y24499D01*
X371566Y24554D01*
X371610Y24621D01*
X371654Y24710D01*
X371699Y24799D01*
X371743Y24910D01*
X371777Y25032D01*
X371821Y25166D01*
X371854Y25310D01*
X371888Y25477D01*
X371910Y25643D01*
X371932Y25832D01*
Y26032D01*
Y26043D01*
Y26077D01*
Y26132D01*
X371921Y26199D01*
Y26288D01*
X371910Y26388D01*
X371877Y26621D01*
X371821Y26865D01*
X371732Y27132D01*
X371610Y27376D01*
X371543Y27499D01*
X371454Y27599D01*
Y27610D01*
X371432Y27621D01*
X371365Y27688D01*
X371266Y27765D01*
X371132Y27865D01*
X370966Y27965D01*
X370766Y28054D01*
X370543Y28110D01*
X370421Y28121D01*
X370288Y28132D01*
D02*
G37*
%LPD*%
D21*
X33779Y142018D02*
X35280D01*
X32280D02*
X33779D01*
Y141018D02*
Y143018D01*
Y141018D02*
Y142018D01*
X122047Y121500D02*
Y160870D01*
X161417D01*
Y121500D02*
Y160870D01*
X122047Y121500D02*
X161417D01*
X180800Y80827D02*
Y90827D01*
X190800Y80827D02*
Y90827D01*
X160800D02*
X190800D01*
X160800Y80827D02*
Y90827D01*
Y80827D02*
X190800D01*
X113345Y-7764D02*
Y22236D01*
X103345D02*
X113345D01*
X103345Y-7764D02*
Y22236D01*
Y-7764D02*
X113345D01*
X103345Y2236D02*
X113345D01*
X140784Y54500D02*
Y64500D01*
X151000Y54500D02*
Y64500D01*
X101000D02*
X151000D01*
X101000Y54500D02*
Y64500D01*
Y54500D02*
X151000D01*
X173000Y94000D02*
Y108000D01*
X179000D01*
Y94000D02*
Y108000D01*
X173000Y94000D02*
X179000D01*
X194500D02*
Y108000D01*
X200500D01*
Y94000D02*
Y108000D01*
X194500Y94000D02*
X200500D01*
X182000Y130000D02*
Y144000D01*
X176000Y130000D02*
X182000D01*
X176000D02*
Y144000D01*
X182000D01*
X168013Y129500D02*
Y143500D01*
X162013Y129500D02*
X168013D01*
X162013D02*
Y143500D01*
X168013D01*
X63361Y23332D02*
X67461D01*
X65361Y21531D02*
Y25232D01*
X31039Y19169D02*
X35139D01*
X33139Y17268D02*
Y20968D01*
X31039Y34168D02*
X35139D01*
X33139Y32269D02*
Y35969D01*
X59539Y59668D02*
X63639D01*
X61639Y57768D02*
Y61468D01*
X156433Y63634D02*
X153809D01*
X155121D01*
Y55762D01*
X156433Y57074D01*
D44*
X9792Y131245D02*
G03*
X9792Y131245I-6500J0D01*
G01*
X83500Y132000D02*
X88000D01*
X83500Y120500D02*
X88000D01*
X83500Y130000D02*
Y132000D01*
X92500Y126000D02*
Y126500D01*
X83500Y120500D02*
Y122500D01*
D45*
X222489Y-2911D02*
G03*
X205018Y-2911I-8735J13103D01*
G01*
X206114Y133743D02*
G03*
X202462Y137278I-8613J-5243D01*
G01*
X202580Y116778D02*
G03*
X202903Y140077I-5080J11722D01*
G01*
X192538Y137278D02*
G03*
X188887Y133743I4962J-8778D01*
G01*
X192097Y140077D02*
G03*
X192420Y116778I5403J-11577D01*
G01*
X120321Y98280D02*
G03*
X121600Y98280I640J0D01*
G01*
X40324Y14405D02*
G03*
X43479Y14405I1578J0D01*
G01*
X-2113Y61757D02*
G03*
X1538Y58222I8613J5243D01*
G01*
X1420Y78722D02*
G03*
X1097Y55423I5080J-11722D01*
G01*
X11462Y58222D02*
G03*
X15113Y61757I-4962J8778D01*
G01*
X11903Y55423D02*
G03*
X11580Y78722I-5403J11577D01*
G01*
X46350Y100343D02*
G03*
X52650Y100343I3150J0D01*
G01*
X3292Y116481D02*
Y124355D01*
Y116481D02*
X13135D01*
X-6550D02*
X13135D01*
X-4582Y114513D02*
X11166D01*
X-2613Y112544D02*
X9198D01*
X-645Y110575D02*
X7229D01*
X1324Y108607D02*
X5261D01*
X189286Y-1805D02*
Y17195D01*
X144286Y20695D02*
X182692D01*
X144242Y-5305D02*
X144243Y20694D01*
X182786Y17195D02*
X189286D01*
X182786Y-1805D02*
X189286D01*
X182692Y-5305D02*
Y20695D01*
X144286Y-5305D02*
X182692D01*
X187500Y114720D02*
X191279D01*
X203720D02*
X207500D01*
X211280Y118500D01*
X183721D02*
X187500Y114720D01*
X202616Y139482D02*
X203447D01*
X202462Y139636D02*
X202616Y139482D01*
X202462Y137278D02*
Y139636D01*
Y137278D02*
X204863D01*
X207343Y134799D01*
X206286D02*
X207343D01*
X206286D02*
X207343Y133743D01*
Y135546D01*
X206929Y135960D02*
X207343Y135546D01*
X206161Y135193D02*
X206929Y135960D01*
X206161Y135193D02*
X207736D01*
X208047Y134882D01*
Y133826D02*
Y134882D01*
Y133826D02*
X208130Y133743D01*
X206824D02*
X208130D01*
X206114Y134453D02*
X206824Y133743D01*
X206114Y134453D02*
Y136816D01*
X208792Y134137D01*
Y133743D02*
Y134137D01*
X206114Y133743D02*
X208792D01*
X203012Y142280D02*
X211280D01*
Y118500D02*
Y142280D01*
X202462Y137278D02*
Y139636D01*
X202903Y140077D01*
Y140026D02*
Y140077D01*
Y140026D02*
X206114Y136816D01*
Y133743D02*
Y136816D01*
Y133743D02*
X206161Y133791D01*
Y137555D01*
X205883Y137833D02*
X206161Y137555D01*
X205096Y137833D02*
X205883D01*
X203447Y139482D02*
X205096Y137833D01*
X202462Y138497D02*
X203447Y139482D01*
X202462Y138497D02*
X202464D01*
X203405Y137555D01*
Y137161D02*
Y137555D01*
Y137161D02*
X205374Y135193D01*
Y135635D01*
X205519Y135780D01*
Y137410D01*
X203759Y139170D02*
X205519Y137410D01*
X202931Y138342D02*
X203759Y139170D01*
X202931Y138030D02*
Y138342D01*
Y138030D02*
X203426Y138524D01*
X203763D01*
X205519Y136768D01*
X205456D02*
X205519D01*
X204627Y135939D02*
X205456Y136768D01*
X204627Y135939D02*
Y137659D01*
X204523Y137555D02*
X204627Y137659D01*
X204395Y137555D02*
X204523D01*
X204001Y137161D02*
X204395Y137555D01*
X204001Y137161D02*
Y138286D01*
Y138151D02*
Y138286D01*
X203405Y137555D02*
X204001Y138151D01*
X191553Y139482D02*
X192384D01*
X192538Y139636D01*
Y137278D02*
Y139636D01*
X190137Y137278D02*
X192538D01*
X187657Y134799D02*
X190137Y137278D01*
X187657Y134799D02*
X188714D01*
X187657Y133743D02*
X188714Y134799D01*
X187657Y133743D02*
Y135546D01*
X188071Y135960D01*
X188839Y135193D01*
X187264D02*
X188839D01*
X186953Y134882D02*
X187264Y135193D01*
X186953Y133826D02*
Y134882D01*
X186870Y133743D02*
X186953Y133826D01*
X186870Y133743D02*
X188176D01*
X188886Y134453D01*
Y136816D01*
X186207Y134137D02*
X188886Y136816D01*
X186207Y133743D02*
Y134137D01*
Y133743D02*
X188886D01*
X183721Y142280D02*
X191988D01*
X183721Y118500D02*
Y142280D01*
X192538Y137278D02*
Y139636D01*
X192097Y140077D02*
X192538Y139636D01*
X192097Y140026D02*
Y140077D01*
X188886Y136816D02*
X192097Y140026D01*
X188886Y133743D02*
Y136816D01*
X188839Y133791D02*
X188886Y133743D01*
X188839Y133791D02*
Y137555D01*
X189117Y137833D01*
X189904D01*
X191553Y139482D01*
X192538Y138497D01*
X192536D02*
X192538D01*
X191595Y137555D02*
X192536Y138497D01*
X191595Y137161D02*
Y137555D01*
X189626Y135193D02*
X191595Y137161D01*
X189626Y135193D02*
Y135635D01*
X189481Y135780D02*
X189626Y135635D01*
X189481Y135780D02*
Y137410D01*
X191241Y139170D01*
X192069Y138342D01*
Y138030D02*
Y138342D01*
X191574Y138524D02*
X192069Y138030D01*
X191237Y138524D02*
X191574D01*
X189481Y136768D02*
X191237Y138524D01*
X189481Y136768D02*
X189544D01*
X190373Y135939D01*
Y137659D01*
X190477Y137555D01*
X190605D01*
X190999Y137161D01*
Y138286D01*
Y138151D02*
Y138286D01*
Y138151D02*
X191595Y137555D01*
X207151Y135778D02*
Y136172D01*
X206161Y137161D02*
X207151Y136172D01*
X76680Y133554D02*
Y136506D01*
X108963Y147530D02*
Y150483D01*
Y133554D02*
Y136506D01*
X76680Y133554D02*
X108963D01*
X76680Y147530D02*
Y150483D01*
X108963D01*
X112634Y98280D02*
X120321D01*
X121600D02*
X129287D01*
Y72689D02*
Y98280D01*
X112634Y72689D02*
X129287D01*
X112634D02*
Y98280D01*
X67500Y75500D02*
X68929Y77744D01*
X9500Y19000D02*
X11370Y20701D01*
X76118Y2244D02*
X78000Y1000D01*
X65118Y2244D02*
X68000Y-500D01*
X53000Y15000D02*
X54882Y14256D01*
X67839Y21799D02*
X86343D01*
X87130Y9595D02*
Y21799D01*
X67839Y9595D02*
X86343D01*
X66264Y20224D02*
X67839Y21799D01*
X66264Y11169D02*
Y20224D01*
Y11169D02*
X67839Y9595D01*
X86343D02*
X87130D01*
X86343Y21799D02*
X87130D01*
X40425Y2595D02*
Y14405D01*
X43575Y2595D02*
Y14405D01*
X40425Y2595D02*
X43575D01*
X12157Y20701D02*
X30661D01*
X11370D02*
Y32906D01*
X12157D02*
X30661D01*
Y20701D02*
X32236Y22276D01*
Y31331D01*
X30661Y32906D02*
X32236Y31331D01*
X11370Y32906D02*
X12157D01*
X11370Y20701D02*
X12157D01*
Y35701D02*
X30661D01*
X11370D02*
Y47905D01*
X12157D02*
X30661D01*
Y35701D02*
X32236Y37276D01*
Y46331D01*
X30661Y47905D02*
X32236Y46331D01*
X11370Y47905D02*
X12157D01*
X11370Y35701D02*
X12157D01*
X40657Y61201D02*
X59161D01*
X39870D02*
Y73405D01*
X40657D02*
X59161D01*
Y61201D02*
X60736Y62776D01*
Y71831D01*
X59161Y73405D02*
X60736Y71831D01*
X39870Y73405D02*
X40657D01*
X39870Y61201D02*
X40657D01*
X33000Y79500D02*
X43000Y77000D01*
X20500Y95500D02*
X21882Y95453D01*
X20500Y90500D02*
X21882Y89256D01*
X12720Y80779D02*
X16500D01*
X-3500D02*
X280D01*
X-7280Y77000D02*
X-3500Y80779D01*
X16500D02*
X20279Y77000D01*
X553Y56018D02*
X1384D01*
X1538Y55864D01*
Y58222D01*
X-863D02*
X1538D01*
X-3342Y60701D02*
X-863Y58222D01*
X-3342Y60701D02*
X-2286D01*
X-3342Y61757D02*
X-2286Y60701D01*
X-3342Y59954D02*
Y61757D01*
Y59954D02*
X-2929Y59540D01*
X-2161Y60307D01*
X-3736D02*
X-2161D01*
X-4047Y60618D02*
X-3736Y60307D01*
X-4047Y60618D02*
Y61674D01*
X-4130Y61757D02*
X-4047Y61674D01*
X-4130Y61757D02*
X-2824D01*
X-2114Y61046D01*
Y58684D02*
Y61046D01*
X-4792Y61363D02*
X-2114Y58684D01*
X-4792Y61363D02*
Y61757D01*
X-2114D01*
X-7280Y53220D02*
X988D01*
X-7280D02*
Y77000D01*
X1538Y55864D02*
Y58222D01*
X1097Y55423D02*
X1538Y55864D01*
X1097Y55423D02*
Y55474D01*
X-2114Y58684D02*
X1097Y55474D01*
X-2114Y58684D02*
Y61757D01*
X-2161Y61709D02*
X-2114Y61757D01*
X-2161Y57945D02*
Y61709D01*
Y57945D02*
X-1883Y57666D01*
X-1096D01*
X553Y56018D01*
X1538Y57003D01*
X1536D02*
X1538D01*
X594Y57945D02*
X1536Y57003D01*
X594Y57945D02*
Y58339D01*
X-1374Y60307D02*
X594Y58339D01*
X-1374Y59865D02*
Y60307D01*
X-1519Y59720D02*
X-1374Y59865D01*
X-1519Y58090D02*
Y59720D01*
Y58090D02*
X241Y56330D01*
X1069Y57157D01*
Y57470D01*
X574Y56976D02*
X1069Y57470D01*
X237Y56976D02*
X574D01*
X-1519Y58732D02*
X237Y56976D01*
X-1519Y58732D02*
X-1456D01*
X-628Y59561D01*
Y57841D02*
Y59561D01*
Y57841D02*
X-523Y57945D01*
X-395D01*
X-1Y58339D01*
Y57214D02*
Y58339D01*
Y57214D02*
Y57349D01*
X594Y57945D01*
X11616Y56018D02*
X12447D01*
X11462Y55864D02*
X11616Y56018D01*
X11462Y55864D02*
Y58222D01*
X13863D01*
X16342Y60701D01*
X15286D02*
X16342D01*
X15286D02*
X16342Y61757D01*
Y59954D02*
Y61757D01*
X15929Y59540D02*
X16342Y59954D01*
X15161Y60307D02*
X15929Y59540D01*
X15161Y60307D02*
X16736D01*
X17047Y60618D01*
Y61674D01*
X17130Y61757D01*
X15824D02*
X17130D01*
X15113Y61046D02*
X15824Y61757D01*
X15113Y58684D02*
Y61046D01*
Y58684D02*
X17793Y61363D01*
Y61757D01*
X15113D02*
X17793D01*
X12012Y53220D02*
X20279D01*
Y77000D01*
X11462Y55864D02*
Y58222D01*
Y55864D02*
X11903Y55423D01*
Y55474D01*
X15113Y58684D01*
Y61757D01*
X15161Y61709D01*
Y57945D02*
Y61709D01*
X14883Y57666D02*
X15161Y57945D01*
X14096Y57666D02*
X14883D01*
X12447Y56018D02*
X14096Y57666D01*
X11462Y57003D02*
X12447Y56018D01*
X11462Y57003D02*
X11463D01*
X12405Y57945D01*
Y58339D01*
X14374Y60307D01*
Y59865D02*
Y60307D01*
Y59865D02*
X14519Y59720D01*
Y58090D02*
Y59720D01*
X12759Y56330D02*
X14519Y58090D01*
X11931Y57157D02*
X12759Y56330D01*
X11931Y57157D02*
Y57470D01*
X12426Y56976D01*
X12763D01*
X14519Y58732D01*
X14456D02*
X14519D01*
X13627Y59561D02*
X14456Y58732D01*
X13627Y57841D02*
Y59561D01*
X13523Y57945D02*
X13627Y57841D01*
X13395Y57945D02*
X13523D01*
X13001Y58339D02*
X13395Y57945D01*
X13001Y57214D02*
Y58339D01*
Y57214D02*
Y57349D01*
X12405Y57945D02*
X13001Y57349D01*
X-3151Y59328D02*
Y59722D01*
Y59328D02*
X-2161Y58339D01*
X52650Y100343D02*
X56193D01*
X42807D02*
X46350D01*
X42807Y80658D02*
X56193D01*
Y100343D01*
X42807Y80658D02*
Y100343D01*
X195277Y52756D02*
Y55380D01*
Y54068D01*
X199213D01*
Y56692D02*
X195277D01*
Y58659D01*
X195933Y59316D01*
X197245D01*
X197901Y58659D01*
Y56692D01*
Y58003D02*
X199213Y59316D01*
X195277Y60627D02*
Y61939D01*
Y61283D01*
X199213D01*
Y60627D01*
Y61939D01*
X195933Y63907D02*
X195277Y64563D01*
Y65875D01*
X195933Y66531D01*
X198557D01*
X199213Y65875D01*
Y64563D01*
X198557Y63907D01*
X195933D01*
Y67843D02*
X195277Y68499D01*
Y69811D01*
X195933Y70467D01*
X198557D01*
X199213Y69811D01*
Y68499D01*
X198557Y67843D01*
X195933D01*
X199213Y74402D02*
Y71779D01*
X196589Y74402D01*
X195933D01*
X195277Y73747D01*
Y72435D01*
X195933Y71779D01*
X233071Y78214D02*
Y75590D01*
X230447Y78214D01*
X229791D01*
X229135Y77558D01*
Y76247D01*
X229791Y75590D01*
Y79526D02*
X229135Y80182D01*
Y81494D01*
X229791Y82150D01*
X232415D01*
X233071Y81494D01*
Y80182D01*
X232415Y79526D01*
X229791D01*
X233071Y83462D02*
X230447Y86086D01*
X233071Y87398D02*
Y88710D01*
Y88054D01*
X229135D01*
X229791Y87398D01*
Y90677D02*
X229135Y91334D01*
Y92645D01*
X229791Y93301D01*
X232415D01*
X233071Y92645D01*
Y91334D01*
X232415Y90677D01*
X229791D01*
X233071Y94613D02*
X230447Y97237D01*
X233071Y101173D02*
Y98549D01*
X230447Y101173D01*
X229791D01*
X229135Y100517D01*
Y99205D01*
X229791Y98549D01*
Y102485D02*
X229135Y103141D01*
Y104453D01*
X229791Y105109D01*
X232415D01*
X233071Y104453D01*
Y103141D01*
X232415Y102485D01*
X229791D01*
X233071Y106421D02*
Y107732D01*
Y107077D01*
X229135D01*
X229791Y106421D01*
X233071Y111668D02*
X229135D01*
X231103Y109700D01*
Y112324D01*
X202232Y55380D02*
X201576Y54724D01*
Y53412D01*
X202232Y52756D01*
X202888D01*
X203544Y53412D01*
Y54724D01*
X204200Y55380D01*
X204856D01*
X205512Y54724D01*
Y53412D01*
X204856Y52756D01*
X205512Y58659D02*
Y57348D01*
X204856Y56692D01*
X203544D01*
X202888Y57348D01*
Y58659D01*
X203544Y59316D01*
X204200D01*
Y56692D01*
X205512Y60627D02*
X202888D01*
Y62595D01*
X203544Y63251D01*
X205512D01*
Y64563D02*
Y66531D01*
X204856Y67187D01*
X204200Y66531D01*
Y65219D01*
X203544Y64563D01*
X202888Y65219D01*
Y67187D01*
X205512Y69155D02*
Y70467D01*
X204856Y71123D01*
X203544D01*
X202888Y70467D01*
Y69155D01*
X203544Y68499D01*
X204856D01*
X205512Y69155D01*
X202888Y72435D02*
X205512D01*
X204200D01*
X203544Y73091D01*
X202888Y73747D01*
Y74402D01*
X201576Y80306D02*
X205512D01*
Y82274D01*
X204856Y82930D01*
X204200D01*
X203544D01*
X202888Y82274D01*
Y80306D01*
X205512Y84898D02*
Y86210D01*
X204856Y86866D01*
X203544D01*
X202888Y86210D01*
Y84898D01*
X203544Y84242D01*
X204856D01*
X205512Y84898D01*
X202888Y88833D02*
Y90145D01*
X203544Y90801D01*
X205512D01*
Y88833D01*
X204856Y88178D01*
X204200Y88833D01*
Y90801D01*
X202888Y92113D02*
X205512D01*
X204200D01*
X203544Y92769D01*
X202888Y93425D01*
Y94081D01*
X201576Y98673D02*
X205512D01*
Y96705D01*
X204856Y96049D01*
X203544D01*
X202888Y96705D01*
Y98673D01*
X207875Y52756D02*
Y54068D01*
Y53412D01*
X211811D01*
Y52756D01*
Y54068D01*
Y56036D02*
Y58003D01*
X211155Y58659D01*
X210499Y58003D01*
Y56692D01*
X209843Y56036D01*
X209187Y56692D01*
Y58659D01*
X211811Y59971D02*
Y61939D01*
X211155Y62595D01*
X210499Y61939D01*
Y60627D01*
X209843Y59971D01*
X209187Y60627D01*
Y62595D01*
Y63907D02*
X211155D01*
X211811Y64563D01*
Y66531D01*
X209187D01*
X211811Y69811D02*
Y68499D01*
X211155Y67843D01*
X209843D01*
X209187Y68499D01*
Y69811D01*
X209843Y70467D01*
X210499D01*
Y67843D01*
X211811Y77682D02*
X207875D01*
X209843Y75714D01*
Y78338D01*
X211811Y79650D02*
X211155D01*
Y80306D01*
X211811D01*
Y79650D01*
X208531Y82930D02*
X207875Y83586D01*
Y84898D01*
X208531Y85554D01*
X211155D01*
X211811Y84898D01*
Y83586D01*
X211155Y82930D01*
X208531D01*
D46*
X139994Y7602D02*
G03*
X139994Y7602I-11024J0D01*
G01*
D47*
X37402Y122333D02*
X55118D01*
Y125286D01*
X11811Y122333D02*
X37402D01*
X11811D02*
Y136113D01*
Y147924D02*
Y161703D01*
X37402D01*
X55118Y158750D02*
Y161703D01*
X37402D02*
X55118D01*
X131890Y109843D02*
Y115354D01*
X121653D02*
X131890D01*
X121653Y109843D02*
Y115354D01*
Y109843D02*
X131890D01*
Y115354D02*
Y120866D01*
X121653D02*
X131890D01*
X121653Y115354D02*
Y120866D01*
Y115354D02*
X131890D01*
X22441Y110433D02*
X32677D01*
Y104921D02*
Y110433D01*
X22441Y104921D02*
X32677D01*
X22441D02*
Y110433D01*
X159244Y96382D02*
X164756D01*
Y106618D01*
X159244D02*
X164756D01*
X159244Y96382D02*
Y106618D01*
X165941Y96382D02*
Y106618D01*
X171453D01*
Y96382D02*
Y106618D01*
X165941Y96382D02*
X171453D01*
X169744Y120882D02*
X175256D01*
Y131118D01*
X169744D02*
X175256D01*
X169744Y120882D02*
Y131118D01*
X175059Y131882D02*
Y142118D01*
X169547Y131882D02*
X175059D01*
X169547D02*
Y142118D01*
X175059D01*
X164559Y109382D02*
Y119618D01*
X159047Y109382D02*
X164559D01*
X159047D02*
Y119618D01*
X164559D01*
X97882Y125244D02*
Y130756D01*
Y125244D02*
X108118D01*
Y130756D01*
X97882D02*
X108118D01*
X81200Y95800D02*
X91800D01*
X81200Y72200D02*
Y95600D01*
Y72200D02*
X91800D01*
Y95800D01*
X98559Y72382D02*
Y82618D01*
X93047Y72382D02*
X98559D01*
X93047D02*
Y82618D01*
X98559D01*
X92941Y85382D02*
Y95618D01*
X98453D01*
Y85382D02*
Y95618D01*
X92941Y85382D02*
X98453D01*
X106618Y112244D02*
Y117756D01*
X96382D02*
X106618D01*
X96382Y112244D02*
Y117756D01*
Y112244D02*
X106618D01*
X96382Y107559D02*
X106618D01*
Y102047D02*
Y107559D01*
X96382Y102047D02*
X106618D01*
X96382D02*
Y107559D01*
X82382Y102244D02*
Y107756D01*
Y102244D02*
X92618D01*
Y107756D01*
X82382D02*
X92618D01*
X68929Y84244D02*
Y89756D01*
Y84244D02*
X79165D01*
Y89756D01*
X68929D02*
X79165D01*
X68929Y96059D02*
X79165D01*
Y90547D02*
Y96059D01*
X68929Y90547D02*
X79165D01*
X68929D02*
Y96059D01*
X79165Y77744D02*
Y83256D01*
X68929D02*
X79165D01*
X68929Y77744D02*
Y83256D01*
Y77744D02*
X79165D01*
Y71244D02*
Y76756D01*
X68929D02*
X79165D01*
X68929Y71244D02*
Y76756D01*
Y71244D02*
X79165D01*
X54882Y8744D02*
Y14256D01*
Y8744D02*
X65118D01*
Y14256D01*
X54882D02*
X65118D01*
X54882Y2244D02*
Y7756D01*
Y2244D02*
X65118D01*
Y7756D01*
X54882D02*
X65118D01*
X47638Y-4331D02*
Y1181D01*
X37402D02*
X47638D01*
X37402Y-4331D02*
Y1181D01*
Y-4331D02*
X47638D01*
X76118Y2244D02*
Y7756D01*
X65882D02*
X76118D01*
X65882Y2244D02*
Y7756D01*
Y2244D02*
X76118D01*
X72382Y23244D02*
Y28756D01*
Y23244D02*
X82618D01*
Y28756D01*
X72382D02*
X82618D01*
X54882Y20559D02*
X65118D01*
Y15047D02*
Y20559D01*
X54882Y15047D02*
X65118D01*
X54882D02*
Y20559D01*
X36882Y23059D02*
X47118D01*
Y17547D02*
Y23059D01*
X36882Y17547D02*
X47118D01*
X36882D02*
Y23059D01*
X20382Y11244D02*
Y16756D01*
Y11244D02*
X30618D01*
Y16756D01*
X20382D02*
X30618D01*
Y4744D02*
Y10256D01*
X20382D02*
X30618D01*
X20382Y4744D02*
Y10256D01*
Y4744D02*
X30618D01*
X20382Y3559D02*
X30618D01*
Y-1953D02*
Y3559D01*
X20382Y-1953D02*
X30618D01*
X20382D02*
Y3559D01*
X45382Y53441D02*
X55618D01*
X45382D02*
Y58953D01*
X55618D01*
Y53441D02*
Y58953D01*
X32118Y83744D02*
Y89256D01*
X21882D02*
X32118D01*
X21882Y83744D02*
Y89256D01*
Y83744D02*
X32118D01*
X32165Y77047D02*
Y82559D01*
X21929D02*
X32165D01*
X21929Y77047D02*
Y82559D01*
Y77047D02*
X32165D01*
X21929Y76362D02*
X32165D01*
Y70850D02*
Y76362D01*
X21929Y70850D02*
X32165D01*
X21929D02*
Y76362D01*
Y64744D02*
X32165D01*
X21929D02*
Y70256D01*
X32165D01*
Y64744D02*
Y70256D01*
X21929Y58547D02*
Y64059D01*
Y58547D02*
X32165D01*
Y64059D01*
X21929D02*
X32165D01*
X21882Y52244D02*
Y57756D01*
Y52244D02*
X32118D01*
Y57756D01*
X21882D02*
X32118D01*
X21118Y83744D02*
Y89256D01*
X10882D02*
X21118D01*
X10882Y83744D02*
Y89256D01*
Y83744D02*
X21118D01*
X21882Y89941D02*
X32118D01*
X21882D02*
Y95453D01*
X32118D01*
Y89941D02*
Y95453D01*
Y96244D02*
Y101756D01*
X21882D02*
X32118D01*
X21882Y96244D02*
Y101756D01*
Y96244D02*
X32118D01*
X22441Y110630D02*
Y116142D01*
Y110630D02*
X32677D01*
Y116142D01*
X22441D02*
X32677D01*
X44382Y104441D02*
X54618D01*
X44382D02*
Y109953D01*
X54618D01*
Y104441D02*
Y109953D01*
Y111244D02*
Y116756D01*
X44382D02*
X54618D01*
X44382Y111244D02*
Y116756D01*
Y111244D02*
X54618D01*
X121118Y125244D02*
Y130756D01*
X110882D02*
X121118D01*
X110882Y125244D02*
Y130756D01*
Y125244D02*
X121118D01*
Y118744D02*
Y124256D01*
X110882D02*
X121118D01*
X110882Y118744D02*
Y124256D01*
Y118744D02*
X121118D01*
D48*
X35858Y109586D02*
X35358Y110086D01*
X34358D01*
X33858Y109586D01*
Y107586D01*
X34358Y107087D01*
X35358D01*
X35858Y107586D01*
X38857Y107087D02*
X36857D01*
X38857Y109086D01*
Y109586D01*
X38357Y110086D01*
X37357D01*
X36857Y109586D01*
X41856Y107087D02*
X39856D01*
X41856Y109086D01*
Y109586D01*
X41356Y110086D01*
X40356D01*
X39856Y109586D01*
X156330Y88826D02*
X155330D01*
X155830D01*
Y86327D01*
X155330Y85827D01*
X154831D01*
X154331Y86327D01*
X158829Y85827D02*
Y88826D01*
X157330Y87326D01*
X159329D01*
X61500Y139000D02*
X58501D01*
Y140499D01*
X59001Y140999D01*
X60000D01*
X60500Y140499D01*
Y139000D01*
Y140000D02*
X61500Y140999D01*
Y141999D02*
Y142999D01*
Y142499D01*
X58501D01*
X59001Y141999D01*
X58501Y144498D02*
Y146498D01*
X59001D01*
X61000Y144498D01*
X61500D01*
X70897Y136357D02*
X70397Y136857D01*
X69397D01*
X68898Y136357D01*
Y135858D01*
X69397Y135358D01*
X70397D01*
X70897Y134858D01*
Y134358D01*
X70397Y133858D01*
X69397D01*
X68898Y134358D01*
X73896Y133858D02*
X71897D01*
X73896Y135858D01*
Y136357D01*
X73396Y136857D01*
X72396D01*
X71897Y136357D01*
X6499Y44499D02*
X5999Y44999D01*
X5000D01*
X4500Y44499D01*
Y42500D01*
X5000Y42000D01*
X5999D01*
X6499Y42500D01*
X9498Y44999D02*
X8499Y44499D01*
X7499Y43499D01*
Y42500D01*
X7999Y42000D01*
X8999D01*
X9498Y42500D01*
Y43000D01*
X8999Y43499D01*
X7499D01*
X55391Y77336D02*
X54891Y77836D01*
X53891D01*
X53391Y77336D01*
Y75337D01*
X53891Y74837D01*
X54891D01*
X55391Y75337D01*
X56391Y77836D02*
X58390D01*
Y77336D01*
X56391Y75337D01*
Y74837D01*
X5999Y18999D02*
X5500Y19499D01*
X4500D01*
X4000Y18999D01*
Y17000D01*
X4500Y16500D01*
X5500D01*
X5999Y17000D01*
X6999Y18999D02*
X7499Y19499D01*
X8499D01*
X8998Y18999D01*
Y18499D01*
X8499Y18000D01*
X8998Y17500D01*
Y17000D01*
X8499Y16500D01*
X7499D01*
X6999Y17000D01*
Y17500D01*
X7499Y18000D01*
X6999Y18499D01*
Y18999D01*
X7499Y18000D02*
X8499D01*
X-4501Y50499D02*
X-5001Y50999D01*
X-6000D01*
X-6500Y50499D01*
Y48500D01*
X-6000Y48000D01*
X-5001D01*
X-4501Y48500D01*
X-3501Y48000D02*
X-2501D01*
X-3001D01*
Y50999D01*
X-3501Y50499D01*
X-1002D02*
X-502Y50999D01*
X498D01*
X998Y50499D01*
Y48500D01*
X498Y48000D01*
X-502D01*
X-1002Y48500D01*
Y50499D01*
X85499Y7499D02*
X85000Y7999D01*
X84000D01*
X83500Y7499D01*
Y5500D01*
X84000Y5000D01*
X85000D01*
X85499Y5500D01*
X86499Y5000D02*
X87499D01*
X86999D01*
Y7999D01*
X86499Y7499D01*
X90998Y5000D02*
X88998D01*
X90998Y6999D01*
Y7499D01*
X90498Y7999D01*
X89498D01*
X88998Y7499D01*
X205499Y146999D02*
X204999Y147499D01*
X204000D01*
X203500Y146999D01*
Y145000D01*
X204000Y144500D01*
X204999D01*
X205499Y145000D01*
X206499Y144500D02*
X207499D01*
X206999D01*
Y147499D01*
X206499Y146999D01*
X210498Y144500D02*
Y147499D01*
X208998Y146000D01*
X210998D01*
X145847Y70090D02*
X144847D01*
X145347D01*
Y67591D01*
X144847Y67091D01*
X144347D01*
X143848Y67591D01*
X148846Y67091D02*
X146846D01*
X148846Y69090D01*
Y69590D01*
X148346Y70090D01*
X147346D01*
X146846Y69590D01*
X196063Y91975D02*
Y88976D01*
X198062D01*
X199062D02*
X200062D01*
X199562D01*
Y91975D01*
X199062Y91476D01*
X180000Y102999D02*
Y100000D01*
X181999D01*
X184998D02*
X182999D01*
X184998Y101999D01*
Y102499D01*
X184499Y102999D01*
X183499D01*
X182999Y102499D01*
X177165Y128983D02*
Y125984D01*
X179165D01*
X180164Y128483D02*
X180664Y128983D01*
X181664D01*
X182164Y128483D01*
Y127984D01*
X181664Y127484D01*
X181164D01*
X181664D01*
X182164Y126984D01*
Y126484D01*
X181664Y125984D01*
X180664D01*
X180164Y126484D01*
X162489Y127899D02*
Y124900D01*
X164488D01*
X166987D02*
Y127899D01*
X165488Y126399D01*
X167487D01*
X79999Y118000D02*
Y119999D01*
X79500Y120499D01*
X78500D01*
X78000Y119999D01*
Y118000D01*
X78500Y117500D01*
X79500D01*
X79000Y118500D02*
X79999Y117500D01*
X79500D02*
X79999Y118000D01*
X80999Y117500D02*
X81999D01*
X81499D01*
Y120499D01*
X80999Y119999D01*
X36220Y105361D02*
Y102862D01*
X36720Y102362D01*
X37720D01*
X38220Y102862D01*
Y105361D01*
X41219Y102362D02*
X39219D01*
X41219Y104362D01*
Y104861D01*
X40719Y105361D01*
X39719D01*
X39219Y104861D01*
X118110Y70716D02*
Y68216D01*
X118610Y67716D01*
X119610D01*
X120110Y68216D01*
Y70716D01*
X122609Y67716D02*
Y70716D01*
X121109Y69216D01*
X123109D01*
X84501Y70839D02*
X86501Y67840D01*
Y70839D02*
X84501Y67840D01*
X87500D02*
X88500D01*
X88000D01*
Y70839D01*
X87500Y70340D01*
X172284Y146063D02*
X171784Y146563D01*
X170784D01*
X170284Y146063D01*
Y144063D01*
X170784Y143564D01*
X171784D01*
X172284Y144063D01*
X173283Y143564D02*
X174283D01*
X173783D01*
Y146563D01*
X173283Y146063D01*
X168002Y110713D02*
X167502Y111213D01*
X166503D01*
X166003Y110713D01*
Y108714D01*
X166503Y108214D01*
X167502D01*
X168002Y108714D01*
X171001Y108214D02*
X169002D01*
X171001Y110213D01*
Y110713D01*
X170501Y111213D01*
X169502D01*
X169002Y110713D01*
X17499Y97499D02*
X16999Y97999D01*
X16000D01*
X15500Y97499D01*
Y95500D01*
X16000Y95000D01*
X16999D01*
X17499Y95500D01*
X18499Y97499D02*
X18999Y97999D01*
X19999D01*
X20498Y97499D01*
Y96999D01*
X19999Y96500D01*
X19499D01*
X19999D01*
X20498Y96000D01*
Y95500D01*
X19999Y95000D01*
X18999D01*
X18499Y95500D01*
X35499Y68499D02*
X34999Y68999D01*
X34000D01*
X33500Y68499D01*
Y66500D01*
X34000Y66000D01*
X34999D01*
X35499Y66500D01*
X37999Y66000D02*
Y68999D01*
X36499Y67500D01*
X38498D01*
X73225Y99764D02*
X72725Y100264D01*
X71725D01*
X71225Y99764D01*
Y97765D01*
X71725Y97265D01*
X72725D01*
X73225Y97765D01*
X76223Y100264D02*
X74224D01*
Y98765D01*
X75224Y99264D01*
X75724D01*
X76223Y98765D01*
Y97765D01*
X75724Y97265D01*
X74724D01*
X74224Y97765D01*
X35499Y74499D02*
X34999Y74999D01*
X34000D01*
X33500Y74499D01*
Y72500D01*
X34000Y72000D01*
X34999D01*
X35499Y72500D01*
X36499D02*
X36999Y72000D01*
X37999D01*
X38498Y72500D01*
Y74499D01*
X37999Y74999D01*
X36999D01*
X36499Y74499D01*
Y73999D01*
X36999Y73500D01*
X38498D01*
X95499Y99499D02*
X94999Y99999D01*
X94000D01*
X93500Y99499D01*
Y97500D01*
X94000Y97000D01*
X94999D01*
X95499Y97500D01*
X96499Y97000D02*
X97499D01*
X96999D01*
Y99999D01*
X96499Y99499D01*
X98998Y97000D02*
X99998D01*
X99498D01*
Y99999D01*
X98998Y99499D01*
X155501Y112999D02*
X155001Y112499D01*
Y111500D01*
X155501Y111000D01*
X157500D01*
X158000Y111500D01*
Y112499D01*
X157500Y112999D01*
X158000Y113999D02*
Y114999D01*
Y114499D01*
X155001D01*
X155501Y113999D01*
Y116498D02*
X155001Y116998D01*
Y117998D01*
X155501Y118498D01*
X156001D01*
X156500Y117998D01*
Y117498D01*
Y117998D01*
X157000Y118498D01*
X157500D01*
X158000Y117998D01*
Y116998D01*
X157500Y116498D01*
X48456Y51318D02*
X47956Y51818D01*
X46957D01*
X46457Y51318D01*
Y49319D01*
X46957Y48819D01*
X47956D01*
X48456Y49319D01*
X49456Y48819D02*
X50455D01*
X49956D01*
Y51818D01*
X49456Y51318D01*
X53954Y51818D02*
X51955D01*
Y50318D01*
X52955Y50818D01*
X53454D01*
X53954Y50318D01*
Y49319D01*
X53454Y48819D01*
X52455D01*
X51955Y49319D01*
X109999Y102999D02*
X109500Y103499D01*
X108500D01*
X108000Y102999D01*
Y101000D01*
X108500Y100500D01*
X109500D01*
X109999Y101000D01*
X110999Y100500D02*
X111999D01*
X111499D01*
Y103499D01*
X110999Y102999D01*
X115498Y103499D02*
X114498Y102999D01*
X113498Y101999D01*
Y101000D01*
X113998Y100500D01*
X114998D01*
X115498Y101000D01*
Y101500D01*
X114998Y101999D01*
X113498D01*
X38499Y27499D02*
X37999Y27999D01*
X37000D01*
X36500Y27499D01*
Y25500D01*
X37000Y25000D01*
X37999D01*
X38499Y25500D01*
X39499Y25000D02*
X40499D01*
X39999D01*
Y27999D01*
X39499Y27499D01*
X41998Y27999D02*
X43998D01*
Y27499D01*
X41998Y25500D01*
Y25000D01*
X57999Y108499D02*
X57499Y108999D01*
X56500D01*
X56000Y108499D01*
Y106500D01*
X56500Y106000D01*
X57499D01*
X57999Y106500D01*
X58999Y106000D02*
X59999D01*
X59499D01*
Y108999D01*
X58999Y108499D01*
X61498D02*
X61998Y108999D01*
X62998D01*
X63498Y108499D01*
Y107999D01*
X62998Y107500D01*
X63498Y107000D01*
Y106500D01*
X62998Y106000D01*
X61998D01*
X61498Y106500D01*
Y107000D01*
X61998Y107500D01*
X61498Y107999D01*
Y108499D01*
X61998Y107500D02*
X62998D01*
X23499Y-3501D02*
X22999Y-3001D01*
X22000D01*
X21500Y-3501D01*
Y-5500D01*
X22000Y-6000D01*
X22999D01*
X23499Y-5500D01*
X24499Y-6000D02*
X25499D01*
X24999D01*
Y-3001D01*
X24499Y-3501D01*
X26998Y-5500D02*
X27498Y-6000D01*
X28498D01*
X28998Y-5500D01*
Y-3501D01*
X28498Y-3001D01*
X27498D01*
X26998Y-3501D01*
Y-4001D01*
X27498Y-4501D01*
X28998D01*
X94999Y70499D02*
X94499Y70999D01*
X93500D01*
X93000Y70499D01*
Y68500D01*
X93500Y68000D01*
X94499D01*
X94999Y68500D01*
X97998Y68000D02*
X95999D01*
X97998Y69999D01*
Y70499D01*
X97499Y70999D01*
X96499D01*
X95999Y70499D01*
X98998D02*
X99498Y70999D01*
X100498D01*
X100997Y70499D01*
Y68500D01*
X100498Y68000D01*
X99498D01*
X98998Y68500D01*
Y70499D01*
X53999Y24499D02*
X53500Y24999D01*
X52500D01*
X52000Y24499D01*
Y22500D01*
X52500Y22000D01*
X53500D01*
X53999Y22500D01*
X56998Y22000D02*
X54999D01*
X56998Y23999D01*
Y24499D01*
X56499Y24999D01*
X55499D01*
X54999Y24499D01*
X57998Y22000D02*
X58998D01*
X58498D01*
Y24999D01*
X57998Y24499D01*
X49000Y15500D02*
Y18499D01*
X50499D01*
X50999Y17999D01*
Y16999D01*
X50499Y16500D01*
X49000D01*
X50000D02*
X50999Y15500D01*
X51999D02*
X52999D01*
X52499D01*
Y18499D01*
X51999Y17999D01*
X15000Y101000D02*
Y103999D01*
X16499D01*
X16999Y103499D01*
Y102499D01*
X16499Y102000D01*
X15000D01*
X16000D02*
X16999Y101000D01*
X19998Y103999D02*
X17999D01*
Y102499D01*
X18999Y102999D01*
X19499D01*
X19998Y102499D01*
Y101500D01*
X19499Y101000D01*
X18499D01*
X17999Y101500D01*
X33500Y59500D02*
Y62499D01*
X34999D01*
X35499Y61999D01*
Y61000D01*
X34999Y60500D01*
X33500D01*
X34500D02*
X35499Y59500D01*
X38498Y62499D02*
X37499Y61999D01*
X36499Y61000D01*
Y60000D01*
X36999Y59500D01*
X37999D01*
X38498Y60000D01*
Y60500D01*
X37999Y61000D01*
X36499D01*
X68000Y84500D02*
X65001D01*
Y86000D01*
X65501Y86499D01*
X66501D01*
X67000Y86000D01*
Y84500D01*
Y85500D02*
X68000Y86499D01*
X65001Y87499D02*
Y89498D01*
X65501D01*
X67500Y87499D01*
X68000D01*
X19500Y4500D02*
X16501D01*
Y5999D01*
X17001Y6499D01*
X18000D01*
X18500Y5999D01*
Y4500D01*
Y5500D02*
X19500Y6499D01*
X17001Y7499D02*
X16501Y7999D01*
Y8999D01*
X17001Y9498D01*
X17501D01*
X18000Y8999D01*
X18500Y9498D01*
X19000D01*
X19500Y8999D01*
Y7999D01*
X19000Y7499D01*
X18500D01*
X18000Y7999D01*
X17501Y7499D01*
X17001D01*
X18000Y7999D02*
Y8999D01*
X33500Y53500D02*
Y56499D01*
X34999D01*
X35499Y55999D01*
Y55000D01*
X34999Y54500D01*
X33500D01*
X34500D02*
X35499Y53500D01*
X36499Y54000D02*
X36999Y53500D01*
X37999D01*
X38498Y54000D01*
Y55999D01*
X37999Y56499D01*
X36999D01*
X36499Y55999D01*
Y55499D01*
X36999Y55000D01*
X38498D01*
X11500Y14000D02*
Y16999D01*
X13000D01*
X13499Y16499D01*
Y15499D01*
X13000Y15000D01*
X11500D01*
X12500D02*
X13499Y14000D01*
X14499D02*
X15499D01*
X14999D01*
Y16999D01*
X14499Y16499D01*
X16998D02*
X17498Y16999D01*
X18498D01*
X18998Y16499D01*
Y14500D01*
X18498Y14000D01*
X17498D01*
X16998Y14500D01*
Y16499D01*
X60500Y75000D02*
Y77999D01*
X61999D01*
X62499Y77499D01*
Y76499D01*
X61999Y76000D01*
X60500D01*
X61500D02*
X62499Y75000D01*
X63499D02*
X64499D01*
X63999D01*
Y77999D01*
X63499Y77499D01*
X65998Y75000D02*
X66998D01*
X66498D01*
Y77999D01*
X65998Y77499D01*
X13945Y112185D02*
Y115184D01*
X15444D01*
X15944Y114684D01*
Y113685D01*
X15444Y113185D01*
X13945D01*
X14945D02*
X15944Y112185D01*
X16944D02*
X17944D01*
X17444D01*
Y115184D01*
X16944Y114684D01*
X21442Y112185D02*
X19443D01*
X21442Y114184D01*
Y114684D01*
X20943Y115184D01*
X19943D01*
X19443Y114684D01*
X44000Y75500D02*
Y78499D01*
X45500D01*
X45999Y77999D01*
Y76999D01*
X45500Y76500D01*
X44000D01*
X45000D02*
X45999Y75500D01*
X46999D02*
X47999D01*
X47499D01*
Y78499D01*
X46999Y77999D01*
X49498D02*
X49998Y78499D01*
X50998D01*
X51498Y77999D01*
Y77499D01*
X50998Y76999D01*
X50498D01*
X50998D01*
X51498Y76500D01*
Y76000D01*
X50998Y75500D01*
X49998D01*
X49498Y76000D01*
X112253Y114035D02*
Y117034D01*
X113753D01*
X114253Y116534D01*
Y115534D01*
X113753Y115034D01*
X112253D01*
X113253D02*
X114253Y114035D01*
X115253D02*
X116252D01*
X115752D01*
Y117034D01*
X115253Y116534D01*
X119751Y117034D02*
X117752D01*
Y115534D01*
X118751Y116034D01*
X119251D01*
X119751Y115534D01*
Y114534D01*
X119251Y114035D01*
X118252D01*
X117752Y114534D01*
X112253Y132535D02*
Y135534D01*
X113753D01*
X114253Y135034D01*
Y134034D01*
X113753Y133534D01*
X112253D01*
X113253D02*
X114253Y132535D01*
X115253D02*
X116252D01*
X115752D01*
Y135534D01*
X115253Y135034D01*
X119751Y135534D02*
X118751Y135034D01*
X117752Y134034D01*
Y133035D01*
X118252Y132535D01*
X119251D01*
X119751Y133035D01*
Y133534D01*
X119251Y134034D01*
X117752D01*
X73000Y30500D02*
Y33499D01*
X74499D01*
X74999Y32999D01*
Y31999D01*
X74499Y31500D01*
X73000D01*
X74000D02*
X74999Y30500D01*
X75999D02*
X76999D01*
X76499D01*
Y33499D01*
X75999Y32999D01*
X78498D02*
X78998Y33499D01*
X79998D01*
X80498Y32999D01*
Y32499D01*
X79998Y31999D01*
X80498Y31500D01*
Y31000D01*
X79998Y30500D01*
X78998D01*
X78498Y31000D01*
Y31500D01*
X78998Y31999D01*
X78498Y32499D01*
Y32999D01*
X78998Y31999D02*
X79998D01*
X99000Y120500D02*
Y123499D01*
X100499D01*
X100999Y122999D01*
Y122000D01*
X100499Y121500D01*
X99000D01*
X100000D02*
X100999Y120500D01*
X101999D02*
X102999D01*
X102499D01*
Y123499D01*
X101999Y122999D01*
X104498Y121000D02*
X104998Y120500D01*
X105998D01*
X106498Y121000D01*
Y122999D01*
X105998Y123499D01*
X104998D01*
X104498Y122999D01*
Y122499D01*
X104998Y122000D01*
X106498D01*
X83500Y109000D02*
Y111999D01*
X85000D01*
X85499Y111499D01*
Y110500D01*
X85000Y110000D01*
X83500D01*
X84500D02*
X85499Y109000D01*
X88498D02*
X86499D01*
X88498Y110999D01*
Y111499D01*
X87999Y111999D01*
X86999D01*
X86499Y111499D01*
X89498D02*
X89998Y111999D01*
X90998D01*
X91497Y111499D01*
Y109500D01*
X90998Y109000D01*
X89998D01*
X89498Y109500D01*
Y111499D01*
X88976Y113386D02*
Y116385D01*
X90476D01*
X90976Y115885D01*
Y114885D01*
X90476Y114385D01*
X88976D01*
X89976D02*
X90976Y113386D01*
X93975D02*
X91975D01*
X93975Y115385D01*
Y115885D01*
X93475Y116385D01*
X92475D01*
X91975Y115885D01*
X94974Y113386D02*
X95974D01*
X95474D01*
Y116385D01*
X94974Y115885D01*
X66500Y-4500D02*
Y-1501D01*
X68000D01*
X68499Y-2001D01*
Y-3001D01*
X68000Y-3500D01*
X66500D01*
X67500D02*
X68499Y-4500D01*
X71498D02*
X69499D01*
X71498Y-2501D01*
Y-2001D01*
X70999Y-1501D01*
X69999D01*
X69499Y-2001D01*
X74497Y-4500D02*
X72498D01*
X74497Y-2501D01*
Y-2001D01*
X73998Y-1501D01*
X72998D01*
X72498Y-2001D01*
X133071Y111024D02*
Y114023D01*
X134570D01*
X135070Y113523D01*
Y112523D01*
X134570Y112023D01*
X133071D01*
X134071D02*
X135070Y111024D01*
X138069D02*
X136070D01*
X138069Y113023D01*
Y113523D01*
X137569Y114023D01*
X136570D01*
X136070Y113523D01*
X139069D02*
X139569Y114023D01*
X140568D01*
X141068Y113523D01*
Y113023D01*
X140568Y112523D01*
X140069D01*
X140568D01*
X141068Y112023D01*
Y111523D01*
X140568Y111024D01*
X139569D01*
X139069Y111523D01*
X133071Y116535D02*
Y119535D01*
X134570D01*
X135070Y119035D01*
Y118035D01*
X134570Y117535D01*
X133071D01*
X134071D02*
X135070Y116535D01*
X138069D02*
X136070D01*
X138069Y118535D01*
Y119035D01*
X137569Y119535D01*
X136570D01*
X136070Y119035D01*
X140568Y116535D02*
Y119535D01*
X139069Y118035D01*
X141068D01*
X172041Y116228D02*
Y119227D01*
X173540D01*
X174040Y118727D01*
Y117727D01*
X173540Y117228D01*
X172041D01*
X173040D02*
X174040Y116228D01*
X177039D02*
X175040D01*
X177039Y118227D01*
Y118727D01*
X176539Y119227D01*
X175540D01*
X175040Y118727D01*
X180038Y119227D02*
X179039Y118727D01*
X178039Y117727D01*
Y116728D01*
X178539Y116228D01*
X179538D01*
X180038Y116728D01*
Y117228D01*
X179538Y117727D01*
X178039D01*
X158000Y98000D02*
X155001D01*
Y99499D01*
X155501Y99999D01*
X156500D01*
X157000Y99499D01*
Y98000D01*
Y99000D02*
X158000Y99999D01*
Y102998D02*
Y100999D01*
X156001Y102998D01*
X155501D01*
X155001Y102499D01*
Y101499D01*
X155501Y100999D01*
X155001Y103998D02*
Y105997D01*
X155501D01*
X157500Y103998D01*
X158000D01*
X12500Y90500D02*
Y93499D01*
X13999D01*
X14499Y92999D01*
Y92000D01*
X13999Y91500D01*
X12500D01*
X13500D02*
X14499Y90500D01*
X17498D02*
X15499D01*
X17498Y92499D01*
Y92999D01*
X16999Y93499D01*
X15999D01*
X15499Y92999D01*
X18498D02*
X18998Y93499D01*
X19998D01*
X20497Y92999D01*
Y92499D01*
X19998Y92000D01*
X20497Y91500D01*
Y91000D01*
X19998Y90500D01*
X18998D01*
X18498Y91000D01*
Y91500D01*
X18998Y92000D01*
X18498Y92499D01*
Y92999D01*
X18998Y92000D02*
X19998D01*
X61887Y67091D02*
Y70090D01*
X63387D01*
X63887Y69590D01*
Y68590D01*
X63387Y68090D01*
X61887D01*
X62887D02*
X63887Y67091D01*
X66886D02*
X64886D01*
X66886Y69090D01*
Y69590D01*
X66386Y70090D01*
X65386D01*
X64886Y69590D01*
X67885Y67590D02*
X68385Y67091D01*
X69385D01*
X69885Y67590D01*
Y69590D01*
X69385Y70090D01*
X68385D01*
X67885Y69590D01*
Y69090D01*
X68385Y68590D01*
X69885D01*
X56000Y113000D02*
Y115999D01*
X57499D01*
X57999Y115499D01*
Y114499D01*
X57499Y114000D01*
X56000D01*
X57000D02*
X57999Y113000D01*
X58999Y115499D02*
X59499Y115999D01*
X60499D01*
X60998Y115499D01*
Y114999D01*
X60499Y114499D01*
X59999D01*
X60499D01*
X60998Y114000D01*
Y113500D01*
X60499Y113000D01*
X59499D01*
X58999Y113500D01*
X61998Y115499D02*
X62498Y115999D01*
X63498D01*
X63997Y115499D01*
Y113500D01*
X63498Y113000D01*
X62498D01*
X61998Y113500D01*
Y115499D01*
X50394Y-3150D02*
Y-151D01*
X51893D01*
X52393Y-650D01*
Y-1650D01*
X51893Y-2150D01*
X50394D01*
X51393D02*
X52393Y-3150D01*
X53393Y-650D02*
X53893Y-151D01*
X54892D01*
X55392Y-650D01*
Y-1150D01*
X54892Y-1650D01*
X54392D01*
X54892D01*
X55392Y-2150D01*
Y-2650D01*
X54892Y-3150D01*
X53893D01*
X53393Y-2650D01*
X56392Y-3150D02*
X57391D01*
X56892D01*
Y-151D01*
X56392Y-650D01*
X-1000Y87500D02*
Y90499D01*
X500D01*
X999Y89999D01*
Y88999D01*
X500Y88500D01*
X-1000D01*
X-0D02*
X999Y87500D01*
X1999Y89999D02*
X2499Y90499D01*
X3499D01*
X3998Y89999D01*
Y89499D01*
X3499Y88999D01*
X2999D01*
X3499D01*
X3998Y88500D01*
Y88000D01*
X3499Y87500D01*
X2499D01*
X1999Y88000D01*
X6997Y87500D02*
X4998D01*
X6997Y89499D01*
Y89999D01*
X6498Y90499D01*
X5498D01*
X4998Y89999D01*
X78000Y-2500D02*
Y499D01*
X79500D01*
X79999Y-1D01*
Y-1001D01*
X79500Y-1500D01*
X78000D01*
X79000D02*
X79999Y-2500D01*
X80999Y-1D02*
X81499Y499D01*
X82499D01*
X82998Y-1D01*
Y-501D01*
X82499Y-1001D01*
X81999D01*
X82499D01*
X82998Y-1500D01*
Y-2000D01*
X82499Y-2500D01*
X81499D01*
X80999Y-2000D01*
X83998Y-1D02*
X84498Y499D01*
X85498D01*
X85997Y-1D01*
Y-501D01*
X85498Y-1001D01*
X84998D01*
X85498D01*
X85997Y-1500D01*
Y-2000D01*
X85498Y-2500D01*
X84498D01*
X83998Y-2000D01*
X32283Y2212D02*
Y-288D01*
X32783Y-787D01*
X33783D01*
X34283Y-288D01*
Y2212D01*
X35282Y-787D02*
X36282D01*
X35782D01*
Y2212D01*
X35282Y1712D01*
X200425Y-4088D02*
X199425D01*
X199925D01*
Y-6587D01*
X199425Y-7087D01*
X198925D01*
X198425Y-6587D01*
X201424Y-4587D02*
X201924Y-4088D01*
X202924D01*
X203424Y-4587D01*
Y-5087D01*
X202924Y-5587D01*
X203424Y-6087D01*
Y-6587D01*
X202924Y-7087D01*
X201924D01*
X201424Y-6587D01*
Y-6087D01*
X201924Y-5587D01*
X201424Y-5087D01*
Y-4587D01*
X201924Y-5587D02*
X202924D01*
X118667Y-3963D02*
Y-2963D01*
Y-3463D01*
X116168D01*
X115668Y-2963D01*
Y-2464D01*
X116168Y-1964D01*
X118667Y-6962D02*
Y-4963D01*
X117167D01*
X117667Y-5962D01*
Y-6462D01*
X117167Y-6962D01*
X116168D01*
X115668Y-6462D01*
Y-5463D01*
X116168Y-4963D01*
X142667Y19537D02*
Y20537D01*
Y20037D01*
X140168D01*
X139668Y20537D01*
Y21036D01*
X140168Y21536D01*
X142667Y16538D02*
X142167Y17537D01*
X141167Y18537D01*
X140168D01*
X139668Y18037D01*
Y17038D01*
X140168Y16538D01*
X140668D01*
X141167Y17038D01*
Y18537D01*
D49*
X142990Y4297D02*
X143384Y4690D01*
Y5477D01*
X142990Y5871D01*
X142596D01*
X142203Y5477D01*
Y4690D01*
X141809Y4297D01*
X141416D01*
X141022Y4690D01*
Y5477D01*
X141416Y5871D01*
X143384Y1935D02*
Y3509D01*
X141022D01*
Y1935D01*
X142203Y3509D02*
Y2722D01*
X141022Y1148D02*
X143384D01*
X141022Y-426D01*
X143384D01*
X142990Y-2788D02*
X143384Y-2394D01*
Y-1607D01*
X142990Y-1213D01*
X142596D01*
X142203Y-1607D01*
Y-2394D01*
X141809Y-2788D01*
X141416D01*
X141022Y-2394D01*
Y-1607D01*
X141416Y-1213D01*
X143384Y-4756D02*
Y-3968D01*
X142990Y-3575D01*
X141416D01*
X141022Y-3968D01*
Y-4756D01*
X141416Y-5149D01*
X142990D01*
X143384Y-4756D01*
X141022Y-5936D02*
X143384D01*
Y-7117D01*
X142990Y-7511D01*
X142203D01*
X141809Y-7117D01*
Y-5936D01*
Y-6724D02*
X141022Y-7511D01*
M02*
